<svg width="98" height="21" viewBox="0 0 98 21" fill="none" xmlns="http://www.w3.org/2000/svg">
<path d="M0.535563 20V2.216H6.36756C10.3036 2.216 13.3276 3.608 13.3276 7.808C13.3276 11.864 10.2796 13.688 6.46356 13.688H4.08756V20H0.535563ZM4.08756 10.88H6.22356C8.67156 10.88 9.84756 9.848 9.84756 7.808C9.84756 5.744 8.55156 5.048 6.10356 5.048H4.08756V10.88ZM16.2554 20V6.56H19.1354L19.3994 8.936H19.4714C20.4554 7.184 21.8954 6.224 23.2874 6.224C24.0314 6.224 24.4634 6.344 24.8714 6.512L24.2714 9.56C23.7914 9.416 23.4074 9.344 22.8554 9.344C21.7994 9.344 20.5274 10.04 19.7834 11.984V20H16.2554ZM32.0433 20.336C28.6833 20.336 25.5873 17.744 25.5873 13.28C25.5873 8.816 28.6833 6.224 32.0433 6.224C35.4033 6.224 38.4993 8.816 38.4993 13.28C38.4993 17.744 35.4033 20.336 32.0433 20.336ZM32.0433 17.456C33.8673 17.456 34.8993 15.824 34.8993 13.28C34.8993 10.76 33.8673 9.104 32.0433 9.104C30.2193 9.104 29.1873 10.76 29.1873 13.28C29.1873 15.824 30.2193 17.456 32.0433 17.456ZM48.1947 20.336C46.9947 20.336 45.6987 19.712 44.6187 18.584H44.5227L44.2107 20H41.4507V0.847999H44.9787V5.672L44.8827 7.832C45.9387 6.872 47.2827 6.224 48.6027 6.224C51.9147 6.224 53.9067 8.936 53.9067 13.04C53.9067 17.672 51.1467 20.336 48.1947 20.336ZM47.4027 17.432C49.0347 17.432 50.2827 16.04 50.2827 13.112C50.2827 10.544 49.4667 9.128 47.6187 9.128C46.7067 9.128 45.8907 9.584 44.9787 10.52V16.424C45.8187 17.168 46.6827 17.432 47.4027 17.432ZM60.208 20.336C57.76 20.336 56.896 18.728 56.896 16.232V0.847999H60.424V16.376C60.424 17.192 60.784 17.456 61.12 17.456C61.264 17.456 61.36 17.456 61.6 17.408L62.032 20.024C61.624 20.192 61.048 20.336 60.208 20.336ZM70.3223 20.336C66.5543 20.336 63.6263 17.72 63.6263 13.28C63.6263 8.936 66.6983 6.224 69.8903 6.224C73.5863 6.224 75.5063 8.936 75.5063 12.632C75.5063 13.304 75.4343 13.952 75.3383 14.264H67.0583C67.3463 16.472 68.7863 17.624 70.7783 17.624C71.8823 17.624 72.8423 17.288 73.8023 16.688L75.0023 18.848C73.6823 19.76 71.9783 20.336 70.3223 20.336ZM67.0103 11.912H72.4823C72.4823 10.112 71.6663 8.96 69.9383 8.96C68.5223 8.96 67.2743 9.968 67.0103 11.912ZM78.4116 20V6.56H81.2916L81.5556 8.36H81.6276C82.7556 7.184 84.0036 6.224 85.7556 6.224C87.6756 6.224 88.8036 7.088 89.4516 8.576C90.6756 7.28 91.9716 6.224 93.7236 6.224C96.5796 6.224 97.8996 8.24 97.8996 11.624V20H94.3716V12.056C94.3716 9.968 93.7716 9.248 92.4996 9.248C91.7316 9.248 90.8676 9.752 89.9076 10.76V20H86.4036V12.056C86.4036 9.968 85.7796 9.248 84.5076 9.248C83.7396 9.248 82.8756 9.752 81.9396 10.76V20H78.4116Z" fill="#0E66C8" fill-opacity="0.78"/>
</svg>
