<svg width="650" height="27" viewBox="0 0 650 27" fill="none" xmlns="http://www.w3.org/2000/svg">
<path d="M5.41022 15.672C6.61022 15.672 7.47422 14.712 7.47422 13.056C7.47422 11.4 6.61022 10.416 5.41022 10.416C4.21022 10.416 3.34622 11.4 3.34622 13.056C3.34622 14.712 4.21022 15.672 5.41022 15.672ZM5.41022 7.776C8.24222 7.776 10.2582 9.96 10.2582 13.056C10.2582 16.128 8.24222 18.312 5.41022 18.312C2.57822 18.312 0.562219 16.128 0.562219 13.056C0.562219 9.96 2.57822 7.776 5.41022 7.776ZM6.97022 1.56V4.296H10.6422V6.816H0.0822188V4.296H3.85022V1.56H6.97022ZM16.0662 0.935999H19.0662V23.04H16.0662V12.504H14.3862V22.128H11.4342V1.368H14.3862V9.96H16.0662V0.935999ZM25.9763 5.544V15.192H30.2963V5.544H25.9763ZM22.8563 17.688V3.048H33.4163V17.688H22.8563ZM42.7043 9.288V11.904H39.4883V23.064H36.3203V0.983999H39.4883V9.288H42.7043ZM48.2705 5.568V15.168C51.4145 15.12 54.0305 14.952 56.8865 14.472L57.1985 17.088C53.8625 17.688 50.8385 17.808 46.9985 17.808H45.1265V3H55.4225V5.568H48.2705ZM64.7825 9.12V11.736H61.5665V23.112H58.3985V0.959999H61.5665V9.12H64.7825ZM73.6981 10.32L72.6421 7.848C76.8181 7.488 78.9781 6.024 79.4821 4.512H73.6021V1.992H89.9461V4.512H84.0421C84.5461 6.024 86.7061 7.488 90.9061 7.848L89.8021 10.32C85.6501 9.936 82.9141 8.4 81.7621 6.288C80.5861 8.4 77.8741 9.936 73.6981 10.32ZM81.7141 20.64C84.6661 20.64 86.1781 20.112 86.1781 18.96C86.1781 17.808 84.6661 17.304 81.7141 17.304C78.7621 17.304 77.2501 17.808 77.2501 18.96C77.2501 20.112 78.7621 20.64 81.7141 20.64ZM81.7141 14.856C86.4901 14.856 89.3941 16.368 89.3941 18.96C89.3941 21.576 86.4901 23.064 81.7141 23.064C76.9381 23.064 74.0581 21.576 74.0581 18.96C74.0581 16.368 76.9381 14.856 81.7141 14.856ZM71.7781 11.16H91.7461V13.656H71.7781V11.16ZM94.8642 3.216H105.28C105.28 9.84 102.76 15.528 95.4162 19.248L93.6402 16.824C98.7762 14.184 101.512 10.68 102.088 5.784H94.8642V3.216ZM114.256 9.384V12H111.16V23.016H107.992V0.935999H111.16V9.384H114.256ZM122.318 15.96C123.806 15.96 124.886 14.952 124.886 13.248C124.886 11.592 123.806 10.56 122.318 10.56C120.83 10.56 119.726 11.592 119.726 13.272C119.726 14.952 120.83 15.96 122.318 15.96ZM122.318 7.992C125.51 7.992 127.886 10.176 127.886 13.248C127.886 16.368 125.51 18.552 122.318 18.552C119.102 18.552 116.702 16.368 116.702 13.248C116.702 10.176 119.102 7.992 122.318 7.992ZM123.878 1.344V4.224H128.678V6.744H115.814V4.224H120.71V1.344H123.878ZM136.454 9.6V12.216H133.286V23.064H130.118V0.959999H133.286V9.6H136.454ZM155.82 6.936V9.456H140.484V1.752H143.652V6.936H155.82ZM143.46 16.008V20.064H155.94V22.584H140.268V16.008H143.46ZM138.012 11.712H158.028V14.256H138.012V11.712ZM179.592 9.792V16.92H176.64V1.368H179.592V7.248H181.368V0.959999H184.368V17.352H181.368V9.792H179.592ZM175.608 11.352L175.872 13.848C173.376 14.28 171.192 14.352 167.952 14.352H166.416V7.344H171.72V5.232H166.392V2.76H174.768V9.648H169.464V11.856C171.816 11.832 173.616 11.712 175.608 11.352ZM172.656 20.16H184.92V22.68H169.488V15.84H172.656V20.16ZM200.806 10.512L199.198 12.96C196.846 12.192 195.214 10.704 194.254 8.784C193.294 10.896 191.59 12.528 189.094 13.344L187.438 10.872C191.11 9.72 192.646 6.936 192.646 4.056V1.968H195.838V4.248C195.838 6.888 197.326 9.432 200.806 10.512ZM194.494 17.016V20.328H202.99V17.016H194.494ZM191.374 22.8V14.544H206.086V22.8H191.374ZM202.918 0.959999H206.086V13.584H202.918V7.368H198.886V4.8H202.918V0.959999ZM215.18 4.56C213.956 4.56 213.068 5.208 213.068 6.408C213.068 7.56 213.956 8.232 215.18 8.232C216.38 8.232 217.244 7.56 217.244 6.408C217.244 5.208 216.38 4.56 215.18 4.56ZM215.18 10.584C212.348 10.584 210.26 8.832 210.26 6.408C210.26 3.936 212.348 2.208 215.18 2.208C217.988 2.208 220.052 3.936 220.052 6.408C220.052 8.832 217.988 10.584 215.18 10.584ZM220.508 11.208L220.748 13.512C219.476 13.752 218.036 13.944 216.644 14.064V21.336H213.62V14.232C212.156 14.304 210.812 14.304 209.684 14.304L209.348 11.736C212.3 11.736 217.028 11.688 220.508 11.208ZM221.588 15.192V1.344H224.54V22.056H221.588V17.568H218.132V15.192H221.588ZM226.004 0.983999H229.004V23.064H226.004V0.983999ZM237.81 15.408C239.442 15.408 240.522 13.656 240.522 10.368C240.522 7.104 239.442 5.352 237.81 5.352C236.202 5.352 235.122 7.104 235.122 10.368C235.122 13.656 236.202 15.408 237.81 15.408ZM247.146 0.935999H250.314V23.112H247.146V11.472H243.474C243.138 15.696 240.882 18.288 237.81 18.288C234.522 18.288 232.098 15.24 232.098 10.368C232.098 5.52 234.522 2.496 237.81 2.496C240.786 2.496 243.018 4.92 243.45 8.904H247.146V0.935999ZM264.798 5.544V15.36C265.614 15.36 266.43 15.312 267.27 15.288V5.544H264.798ZM270.318 5.544V15.096C271.254 15.048 272.166 14.952 273.078 14.832L273.27 17.112C268.614 17.904 263.526 18 259.566 18.024L259.23 15.432C260.022 15.432 260.862 15.432 261.726 15.432V5.544H259.806V3H272.214V5.544H270.318ZM274.494 0.983999H277.686V23.088H274.494V0.983999ZM286.66 15.672C287.86 15.672 288.724 14.712 288.724 13.056C288.724 11.4 287.86 10.416 286.66 10.416C285.46 10.416 284.596 11.4 284.596 13.056C284.596 14.712 285.46 15.672 286.66 15.672ZM286.66 7.776C289.492 7.776 291.508 9.96 291.508 13.056C291.508 16.128 289.492 18.312 286.66 18.312C283.828 18.312 281.812 16.128 281.812 13.056C281.812 9.96 283.828 7.776 286.66 7.776ZM288.22 1.56V4.296H291.892V6.816H281.332V4.296H285.1V1.56H288.22ZM297.316 0.935999H300.316V23.04H297.316V12.504H295.636V22.128H292.684V1.368H295.636V9.96H297.316V0.935999ZM317.008 2.664V5.88C317.008 9.864 318.568 13.872 322.12 15.624L320.2 18.12C317.896 16.944 316.336 14.808 315.424 12.168C314.464 14.976 312.808 17.304 310.312 18.528L308.416 15.96C312.136 14.208 313.816 9.984 313.816 5.88V2.664H317.008ZM329.392 9.456V12.096H326.176V23.064H323.008V0.959999H326.176V9.456H329.392ZM348.158 15.552L344.99 15.192C345.83 11.016 345.878 7.944 345.878 5.376H332.99V2.856H349.046V4.968C349.046 7.728 349.046 10.848 348.158 15.552ZM341.198 17.856H350.966V20.4H330.974V17.856H338.03V10.248H341.198V17.856ZM354.012 26.112L353.268 24.192C355.14 23.496 356.172 22.248 356.148 20.904C356.076 20.904 356.004 20.904 355.932 20.904C354.78 20.904 353.724 20.16 353.724 18.816C353.724 17.544 354.756 16.728 356.004 16.728C357.636 16.728 358.548 18.024 358.548 20.208C358.548 23.016 356.916 25.152 354.012 26.112ZM380.646 5.616V5.52H368.334V3H383.814V5.616C383.814 8.712 383.814 11.736 382.998 16.272L379.854 15.984C380.646 11.76 380.646 8.616 380.646 5.616ZM366.27 17.592H386.262V20.184H366.27V17.592ZM392.236 11.112V15.408C395.236 15.384 397.756 15.24 400.54 14.784L400.828 17.352C397.54 17.88 394.612 18 390.94 18H389.116V8.64H395.884V5.352H389.068V2.832H399.028V11.112H392.236ZM403.66 0.935999H406.852V23.112H403.66V11.472H400.204V8.904H403.66V0.935999ZM414.267 3.048V15C417.051 14.928 420.051 14.688 423.147 14.088L423.459 16.68C419.787 17.448 416.235 17.64 413.019 17.64H411.099V3.048H414.267ZM430.827 9.288V11.904H427.731V23.016H424.563V0.935999H427.731V9.288H430.827ZM452.462 9.072V6.792H443.366V9.072H452.462ZM455.582 1.8V11.592H440.222V1.8H443.366V4.32H452.462V1.8H455.582ZM457.958 13.68V16.2H449.462V23.088H446.294V16.2H437.942V13.68H457.958ZM461.964 10.224L460.884 7.752C465.036 7.368 467.22 5.832 467.724 4.272H461.82V1.776H478.188V4.272H472.284C472.788 5.832 474.948 7.392 479.148 7.752L478.02 10.224C473.892 9.816 471.156 8.232 470.004 6.096C468.828 8.232 466.116 9.816 461.964 10.224ZM462.228 18.312V15.816H477.588V23.088H474.42V18.312H462.228ZM471.564 11.688H480.012V14.232H460.02V11.688H468.396V8.856H471.564V11.688ZM495.13 3.288L495.106 5.76H482.098V3.288H486.994V0.935999H490.186V3.288H495.13ZM486.202 10.8C486.202 12.024 487.186 12.672 488.602 12.672C489.994 12.672 491.002 12.024 491.002 10.8C491.002 9.6 489.994 8.952 488.602 8.952C487.186 8.952 486.202 9.6 486.202 10.8ZM494.026 10.8C494.026 13.344 491.77 15.072 488.602 15.072C485.434 15.072 483.178 13.344 483.178 10.8C483.178 8.304 485.434 6.552 488.602 6.552C491.77 6.552 494.026 8.304 494.026 10.8ZM488.41 16.272V20.16H500.29V22.68H485.242V16.272H488.41ZM499.498 7.704H502.426V10.32H499.498V17.496H496.33V0.959999H499.498V7.704ZM514.87 8.256V11.352H524.326V8.256H514.87ZM521.182 17.928H529.63V20.496H509.614V17.928H518.014V13.872H511.726V2.328H514.87V5.76H524.326V2.328H527.446V13.872H521.182V17.928ZM534.956 7.992C534.956 9.792 536.204 10.872 537.86 10.872C539.492 10.872 540.764 9.792 540.764 7.992C540.764 6.192 539.492 5.112 537.86 5.112C536.204 5.112 534.956 6.192 534.956 7.992ZM543.836 7.992C543.836 11.232 541.22 13.608 537.86 13.608C534.476 13.608 531.86 11.232 531.86 7.992C531.86 4.728 534.476 2.376 537.86 2.376C541.22 2.376 543.836 4.728 543.836 7.992ZM538.004 15.384V20.16H549.884V22.68H534.836V15.384H538.004ZM549.092 7.296H552.02V9.888H549.092V17.04H545.924V0.959999H549.092V7.296ZM562.952 6.072V15.48C565.016 15.432 566.888 15.312 569 14.928L569.24 17.496C566.552 18 564.2 18.096 561.368 18.096H559.832V3.504H568.016V6.072H562.952ZM575.168 0.935999H578.168V23.064H575.168V12H573.176V22.032H570.224V1.368H573.176V9.456H575.168V0.935999ZM581.286 11.28H601.254V13.776H581.286V11.28ZM591.222 14.976C595.998 14.976 598.902 16.44 598.902 19.032C598.902 21.624 595.998 23.088 591.222 23.088C586.446 23.088 583.566 21.624 583.566 19.032C583.566 16.44 586.446 14.976 591.222 14.976ZM591.222 17.376C588.27 17.376 586.758 17.904 586.758 19.032C586.758 20.184 588.27 20.688 591.222 20.688C594.174 20.688 595.686 20.184 595.686 19.032C595.686 17.904 594.174 17.376 591.222 17.376ZM591.27 1.44C596.142 1.44 599.286 3.096 599.286 5.76C599.286 8.472 596.142 10.104 591.27 10.104C586.422 10.104 583.278 8.472 583.278 5.76C583.278 3.096 586.422 1.44 591.27 1.44ZM591.27 3.864C588.27 3.864 586.542 4.512 586.542 5.76C586.542 7.056 588.27 7.68 591.27 7.68C594.294 7.68 596.022 7.056 596.022 5.76C596.022 4.512 594.294 3.864 591.27 3.864ZM626.586 6.456V8.976H611.322V1.344H614.49V6.456H626.586ZM618.738 20.592C621.69 20.592 623.202 20.064 623.202 18.912C623.202 17.76 621.69 17.232 618.738 17.232C615.786 17.232 614.274 17.76 614.274 18.912C614.274 20.064 615.786 20.592 618.738 20.592ZM618.738 14.808C623.514 14.808 626.418 16.32 626.418 18.912C626.418 21.504 623.514 23.016 618.738 23.016C613.962 23.016 611.082 21.504 611.082 18.912C611.082 16.32 613.962 14.808 618.738 14.808ZM608.826 10.848H628.818V13.368H608.826V10.848ZM642.16 10.968L642.472 13.488C639.904 13.968 637.624 14.04 633.424 14.04H631.72V6.84H638.248V4.752H631.696V2.208H641.368V9.192H634.864V11.496C638.032 11.472 639.976 11.376 642.16 10.968ZM634.24 18.096V15.576H649.36V23.088H646.192V18.096H634.24ZM646.192 0.983999L649.36 0.959999V14.592H646.192V11.256H642.64V8.736H646.192V6.552H642.64V4.008H646.192V0.983999Z" fill="black" fill-opacity="0.65"/>
</svg>
