<svg width="491" height="16" viewBox="0 0 491 16" fill="none" xmlns="http://www.w3.org/2000/svg">
<path d="M0.723242 12V1.724H3.94324C6.02924 1.724 7.52724 2.48 7.52724 4.622C7.52724 6.218 6.60324 7.17 5.20324 7.506L7.83524 12H6.36524L3.87324 7.646H2.02524V12H0.723242ZM2.02524 6.596H3.74724C5.35724 6.596 6.23924 5.952 6.23924 4.622C6.23924 3.264 5.35724 2.788 3.74724 2.788H2.02524V6.596ZM11.2069 12.182C9.93295 12.182 8.98095 11.398 8.98095 10.026C8.98095 8.374 10.4229 7.548 13.6569 7.184C13.6569 6.204 13.3349 5.266 12.0889 5.266C11.2069 5.266 10.4089 5.672 9.80695 6.078L9.30295 5.196C10.0029 4.748 11.0809 4.202 12.2989 4.202C14.1469 4.202 14.9309 5.448 14.9309 7.324V12H13.8809L13.7689 11.09H13.7269C12.9989 11.692 12.1449 12.182 11.2069 12.182ZM11.5709 11.16C12.3129 11.16 12.9149 10.81 13.6569 10.152V8.024C11.0949 8.332 10.2269 8.962 10.2269 9.942C10.2269 10.81 10.8149 11.16 11.5709 11.16ZM17.3593 12V4.398H18.4093L18.5213 5.49H18.5633C19.2913 4.776 20.0753 4.202 21.1113 4.202C22.7073 4.202 23.4353 5.238 23.4353 7.184V12H22.1613V7.352C22.1613 5.924 21.7273 5.322 20.7193 5.322C19.9353 5.322 19.4033 5.714 18.6333 6.484V12H17.3593ZM27.9059 12.182C26.8279 12.182 25.7919 11.734 25.0639 11.132L25.6939 10.292C26.3519 10.824 27.0379 11.188 27.9479 11.188C28.9559 11.188 29.4459 10.656 29.4459 9.998C29.4459 9.214 28.5499 8.878 27.7099 8.556C26.6459 8.164 25.4839 7.646 25.4839 6.358C25.4839 5.154 26.4639 4.202 28.1159 4.202C29.0539 4.202 29.8799 4.594 30.4679 5.056L29.8519 5.882C29.3339 5.49 28.8019 5.21 28.1299 5.21C27.1639 5.21 26.7159 5.714 26.7159 6.302C26.7159 7.03 27.4999 7.296 28.3539 7.618C29.4599 8.038 30.6779 8.486 30.6779 9.928C30.6779 11.16 29.6979 12.182 27.9059 12.182ZM35.4207 12.182C33.5587 12.182 31.8927 10.726 31.8927 8.206C31.8927 5.672 33.5587 4.202 35.4207 4.202C37.2827 4.202 38.9487 5.672 38.9487 8.206C38.9487 10.726 37.2827 12.182 35.4207 12.182ZM35.4207 11.118C36.7367 11.118 37.6327 9.956 37.6327 8.206C37.6327 6.456 36.7367 5.266 35.4207 5.266C34.1047 5.266 33.2227 6.456 33.2227 8.206C33.2227 9.956 34.1047 11.118 35.4207 11.118ZM40.9569 12V4.398H42.0069L42.1189 5.504H42.1609C42.8189 4.776 43.6169 4.202 44.5269 4.202C45.6889 4.202 46.3189 4.762 46.6269 5.658C47.4109 4.804 48.2089 4.202 49.1329 4.202C50.7009 4.202 51.4429 5.238 51.4429 7.184V12H50.1689V7.352C50.1689 5.924 49.7209 5.322 48.7549 5.322C48.1669 5.322 47.5509 5.7 46.8369 6.484V12H45.5629V7.352C45.5629 5.924 45.1149 5.322 44.1489 5.322C43.5749 5.322 42.9309 5.7 42.2309 6.484V12H40.9569ZM55.1219 12L53.0079 4.398H54.3099L55.4439 8.794C55.5979 9.522 55.7519 10.208 55.8919 10.922H55.9619C56.1299 10.208 56.2839 9.508 56.4799 8.794L57.6559 4.398H58.9019L60.0919 8.794C60.2739 9.522 60.4419 10.208 60.6239 10.922H60.6799C60.8479 10.208 60.9879 9.522 61.1559 8.794L62.2759 4.398H63.4799L61.4359 12H59.8959L58.7899 7.898C58.5939 7.184 58.4539 6.484 58.2719 5.714H58.2019C58.0339 6.484 57.8799 7.198 57.6839 7.926L56.6199 12H55.1219ZM66.7421 12.182C65.4681 12.182 64.5161 11.398 64.5161 10.026C64.5161 8.374 65.9581 7.548 69.1921 7.184C69.1921 6.204 68.8701 5.266 67.6241 5.266C66.7421 5.266 65.9441 5.672 65.3421 6.078L64.8381 5.196C65.5381 4.748 66.6161 4.202 67.8341 4.202C69.6821 4.202 70.4661 5.448 70.4661 7.324V12H69.4161L69.3041 11.09H69.2621C68.5341 11.692 67.6801 12.182 66.7421 12.182ZM67.1061 11.16C67.8481 11.16 68.4501 10.81 69.1921 10.152V8.024C66.6301 8.332 65.7621 8.962 65.7621 9.942C65.7621 10.81 66.3501 11.16 67.1061 11.16ZM72.8944 12V4.398H73.9444L74.0564 5.784H74.0984C74.6304 4.818 75.4004 4.202 76.2544 4.202C76.5904 4.202 76.8284 4.244 77.0664 4.37L76.8284 5.49C76.5764 5.392 76.3944 5.364 76.0864 5.364C75.4564 5.364 74.6724 5.812 74.1684 7.114V12H72.8944ZM81.2378 12.182C79.2218 12.182 77.5978 10.712 77.5978 8.206C77.5978 5.742 79.2638 4.202 81.0278 4.202C82.9598 4.202 84.0518 5.602 84.0518 7.772C84.0518 8.052 84.0238 8.318 83.9958 8.5H78.8718C78.9558 10.124 79.9498 11.16 81.3918 11.16C82.1338 11.16 82.7358 10.936 83.2958 10.558L83.7578 11.398C83.0858 11.832 82.2738 12.182 81.2378 12.182ZM78.8578 7.576H82.9318C82.9318 6.05 82.2318 5.224 81.0418 5.224C79.9638 5.224 79.0118 6.092 78.8578 7.576ZM89.1666 12V1.724H91.7426C94.8926 1.724 96.5866 3.572 96.5866 6.834C96.5866 10.082 94.8926 12 91.7986 12H89.1666ZM90.4686 10.936H91.6306C94.0526 10.936 95.2426 9.424 95.2426 6.834C95.2426 4.23 94.0526 2.788 91.6306 2.788H90.4686V10.936ZM100.416 12.182C99.1419 12.182 98.1899 11.398 98.1899 10.026C98.1899 8.374 99.6319 7.548 102.866 7.184C102.866 6.204 102.544 5.266 101.298 5.266C100.416 5.266 99.6179 5.672 99.0159 6.078L98.5119 5.196C99.2119 4.748 100.29 4.202 101.508 4.202C103.356 4.202 104.14 5.448 104.14 7.324V12H103.09L102.978 11.09H102.936C102.208 11.692 101.354 12.182 100.416 12.182ZM100.78 11.16C101.522 11.16 102.124 10.81 102.866 10.152V8.024C100.304 8.332 99.4359 8.962 99.4359 9.942C99.4359 10.81 100.024 11.16 100.78 11.16ZM106.568 12V4.398H107.618L107.73 5.504H107.772C108.43 4.776 109.228 4.202 110.138 4.202C111.3 4.202 111.93 4.762 112.238 5.658C113.022 4.804 113.82 4.202 114.744 4.202C116.312 4.202 117.054 5.238 117.054 7.184V12H115.78V7.352C115.78 5.924 115.332 5.322 114.366 5.322C113.778 5.322 113.162 5.7 112.448 6.484V12H111.174V7.352C111.174 5.924 110.726 5.322 109.76 5.322C109.186 5.322 108.542 5.7 107.842 6.484V12H106.568ZM121.279 12.182C120.005 12.182 119.053 11.398 119.053 10.026C119.053 8.374 120.495 7.548 123.729 7.184C123.729 6.204 123.407 5.266 122.161 5.266C121.279 5.266 120.481 5.672 119.879 6.078L119.375 5.196C120.075 4.748 121.153 4.202 122.371 4.202C124.219 4.202 125.003 5.448 125.003 7.324V12H123.953L123.841 11.09H123.799C123.071 11.692 122.217 12.182 121.279 12.182ZM121.643 11.16C122.385 11.16 122.987 10.81 123.729 10.152V8.024C121.167 8.332 120.299 8.962 120.299 9.942C120.299 10.81 120.887 11.16 121.643 11.16ZM129.994 15.5C128.132 15.5 126.858 14.772 126.858 13.456C126.858 12.812 127.264 12.196 127.978 11.734V11.678C127.572 11.44 127.278 11.034 127.278 10.432C127.278 9.802 127.74 9.298 128.132 9.018V8.962C127.628 8.556 127.138 7.828 127.138 6.918C127.138 5.252 128.454 4.202 129.994 4.202C130.414 4.202 130.792 4.3 131.058 4.398H133.704V5.378H132.15C132.514 5.728 132.766 6.288 132.766 6.946C132.766 8.57 131.534 9.592 129.994 9.592C129.616 9.592 129.196 9.494 128.86 9.326C128.58 9.564 128.37 9.816 128.37 10.236C128.37 10.726 128.678 11.062 129.7 11.062H131.184C132.948 11.062 133.844 11.622 133.844 12.868C133.844 14.282 132.346 15.5 129.994 15.5ZM129.994 8.724C130.862 8.724 131.618 8.024 131.618 6.918C131.618 5.812 130.89 5.14 129.994 5.14C129.098 5.14 128.37 5.798 128.37 6.918C128.37 8.024 129.112 8.724 129.994 8.724ZM130.176 14.632C131.632 14.632 132.598 13.862 132.598 13.064C132.598 12.364 132.052 12.126 131.044 12.126H129.728C129.448 12.126 129.084 12.084 128.748 12C128.202 12.392 127.978 12.84 127.978 13.288C127.978 14.1 128.804 14.632 130.176 14.632ZM138.181 12.182C136.165 12.182 134.541 10.712 134.541 8.206C134.541 5.742 136.207 4.202 137.971 4.202C139.903 4.202 140.995 5.602 140.995 7.772C140.995 8.052 140.967 8.318 140.939 8.5H135.815C135.899 10.124 136.893 11.16 138.335 11.16C139.077 11.16 139.679 10.936 140.239 10.558L140.701 11.398C140.029 11.832 139.217 12.182 138.181 12.182ZM135.801 7.576H139.875C139.875 6.05 139.175 5.224 137.985 5.224C136.907 5.224 135.955 6.092 135.801 7.576ZM146.11 12V1.724H147.412V12H146.11ZM150.1 12V4.398H151.15L151.262 5.49H151.304C152.032 4.776 152.816 4.202 153.852 4.202C155.448 4.202 156.176 5.238 156.176 7.184V12H154.902V7.352C154.902 5.924 154.468 5.322 153.46 5.322C152.676 5.322 152.144 5.714 151.374 6.484V12H150.1ZM161.654 12.182C159.638 12.182 158.084 10.726 158.084 8.206C158.084 5.672 159.806 4.202 161.752 4.202C162.746 4.202 163.432 4.622 163.978 5.098L163.32 5.938C162.872 5.546 162.41 5.266 161.808 5.266C160.422 5.266 159.414 6.456 159.414 8.206C159.414 9.956 160.366 11.118 161.766 11.118C162.466 11.118 163.082 10.796 163.558 10.362L164.118 11.216C163.432 11.832 162.564 12.182 161.654 12.182ZM165.781 12V4.398H166.831L166.943 5.784H166.985C167.517 4.818 168.287 4.202 169.141 4.202C169.477 4.202 169.715 4.244 169.953 4.37L169.715 5.49C169.463 5.392 169.281 5.364 168.973 5.364C168.343 5.364 167.559 5.812 167.055 7.114V12H165.781ZM174.125 12.182C172.109 12.182 170.485 10.712 170.485 8.206C170.485 5.742 172.151 4.202 173.915 4.202C175.847 4.202 176.939 5.602 176.939 7.772C176.939 8.052 176.911 8.318 176.883 8.5H171.759C171.843 10.124 172.837 11.16 174.279 11.16C175.021 11.16 175.623 10.936 176.183 10.558L176.645 11.398C175.973 11.832 175.161 12.182 174.125 12.182ZM171.745 7.576H175.819C175.819 6.05 175.119 5.224 173.929 5.224C172.851 5.224 171.899 6.092 171.745 7.576ZM180.342 12.182C179.068 12.182 178.116 11.398 178.116 10.026C178.116 8.374 179.558 7.548 182.792 7.184C182.792 6.204 182.47 5.266 181.224 5.266C180.342 5.266 179.544 5.672 178.942 6.078L178.438 5.196C179.138 4.748 180.216 4.202 181.434 4.202C183.282 4.202 184.066 5.448 184.066 7.324V12H183.016L182.904 11.09H182.862C182.134 11.692 181.28 12.182 180.342 12.182ZM180.706 11.16C181.448 11.16 182.05 10.81 182.792 10.152V8.024C180.23 8.332 179.362 8.962 179.362 9.942C179.362 10.81 179.95 11.16 180.706 11.16ZM188.482 12.182C187.404 12.182 186.368 11.734 185.64 11.132L186.27 10.292C186.928 10.824 187.614 11.188 188.524 11.188C189.532 11.188 190.022 10.656 190.022 9.998C190.022 9.214 189.126 8.878 188.286 8.556C187.222 8.164 186.06 7.646 186.06 6.358C186.06 5.154 187.04 4.202 188.692 4.202C189.63 4.202 190.456 4.594 191.044 5.056L190.428 5.882C189.91 5.49 189.378 5.21 188.706 5.21C187.74 5.21 187.292 5.714 187.292 6.302C187.292 7.03 188.076 7.296 188.93 7.618C190.036 8.038 191.254 8.486 191.254 9.928C191.254 11.16 190.274 12.182 188.482 12.182ZM196.109 12.182C194.093 12.182 192.469 10.712 192.469 8.206C192.469 5.742 194.135 4.202 195.899 4.202C197.831 4.202 198.923 5.602 198.923 7.772C198.923 8.052 198.895 8.318 198.867 8.5H193.743C193.827 10.124 194.821 11.16 196.263 11.16C197.005 11.16 197.607 10.936 198.167 10.558L198.629 11.398C197.957 11.832 197.145 12.182 196.109 12.182ZM193.729 7.576H197.803C197.803 6.05 197.103 5.224 195.913 5.224C194.835 5.224 193.883 6.092 193.729 7.576ZM202.783 12.182C201.705 12.182 200.669 11.734 199.941 11.132L200.571 10.292C201.229 10.824 201.915 11.188 202.825 11.188C203.833 11.188 204.323 10.656 204.323 9.998C204.323 9.214 203.427 8.878 202.587 8.556C201.523 8.164 200.361 7.646 200.361 6.358C200.361 5.154 201.341 4.202 202.993 4.202C203.931 4.202 204.757 4.594 205.345 5.056L204.729 5.882C204.211 5.49 203.679 5.21 203.007 5.21C202.041 5.21 201.593 5.714 201.593 6.302C201.593 7.03 202.377 7.296 203.231 7.618C204.337 8.038 205.555 8.486 205.555 9.928C205.555 11.16 204.575 12.182 202.783 12.182ZM212.253 12V8.01L209.173 1.724H210.559L211.875 4.636C212.211 5.392 212.519 6.106 212.883 6.876H212.939C213.303 6.106 213.653 5.392 213.961 4.636L215.291 1.724H216.635L213.555 8.01V12H212.253ZM220.335 12.182C218.319 12.182 216.695 10.712 216.695 8.206C216.695 5.742 218.361 4.202 220.125 4.202C222.057 4.202 223.149 5.602 223.149 7.772C223.149 8.052 223.121 8.318 223.093 8.5H217.969C218.053 10.124 219.047 11.16 220.489 11.16C221.231 11.16 221.833 10.936 222.393 10.558L222.855 11.398C222.183 11.832 221.371 12.182 220.335 12.182ZM217.955 7.576H222.029C222.029 6.05 221.329 5.224 220.139 5.224C219.061 5.224 218.109 6.092 217.955 7.576ZM226.553 12.182C225.279 12.182 224.327 11.398 224.327 10.026C224.327 8.374 225.769 7.548 229.003 7.184C229.003 6.204 228.681 5.266 227.435 5.266C226.553 5.266 225.755 5.672 225.153 6.078L224.649 5.196C225.349 4.748 226.427 4.202 227.645 4.202C229.493 4.202 230.277 5.448 230.277 7.324V12H229.227L229.115 11.09H229.073C228.345 11.692 227.491 12.182 226.553 12.182ZM226.917 11.16C227.659 11.16 228.261 10.81 229.003 10.152V8.024C226.441 8.332 225.573 8.962 225.573 9.942C225.573 10.81 226.161 11.16 226.917 11.16ZM232.705 12V4.398H233.755L233.867 5.784H233.909C234.441 4.818 235.211 4.202 236.065 4.202C236.401 4.202 236.639 4.244 236.877 4.37L236.639 5.49C236.387 5.392 236.205 5.364 235.897 5.364C235.267 5.364 234.483 5.812 233.979 7.114V12H232.705ZM241.376 12V1.724H244.428C246.514 1.724 247.956 2.438 247.956 4.244C247.956 5.266 247.41 6.162 246.458 6.47V6.54C247.676 6.778 248.544 7.59 248.544 8.99C248.544 11.006 246.948 12 244.652 12H241.376ZM242.678 6.106H244.204C245.968 6.106 246.682 5.448 246.682 4.412C246.682 3.208 245.856 2.76 244.26 2.76H242.678V6.106ZM242.678 10.964H244.47C246.234 10.964 247.27 10.334 247.27 8.948C247.27 7.674 246.262 7.086 244.47 7.086H242.678V10.964ZM250.386 15.276C250.022 15.276 249.728 15.22 249.49 15.122L249.742 14.1C249.896 14.156 250.12 14.226 250.316 14.226C251.184 14.226 251.73 13.526 252.038 12.588L252.206 12.014L249.154 4.398H250.484L252.038 8.626C252.262 9.284 252.528 10.068 252.766 10.754H252.836C253.046 10.068 253.27 9.298 253.48 8.626L254.838 4.398H256.084L253.214 12.63C252.696 14.128 251.898 15.276 250.386 15.276ZM262.469 12V8.01L259.389 1.724H260.775L262.091 4.636C262.427 5.392 262.735 6.106 263.099 6.876H263.155C263.519 6.106 263.869 5.392 264.177 4.636L265.507 1.724H266.851L263.771 8.01V12H262.469ZM270.552 12.182C268.536 12.182 266.912 10.712 266.912 8.206C266.912 5.742 268.578 4.202 270.342 4.202C272.274 4.202 273.366 5.602 273.366 7.772C273.366 8.052 273.338 8.318 273.31 8.5H268.186C268.27 10.124 269.264 11.16 270.706 11.16C271.448 11.16 272.05 10.936 272.61 10.558L273.072 11.398C272.4 11.832 271.588 12.182 270.552 12.182ZM268.172 7.576H272.246C272.246 6.05 271.546 5.224 270.356 5.224C269.278 5.224 268.326 6.092 268.172 7.576ZM276.769 12.182C275.495 12.182 274.543 11.398 274.543 10.026C274.543 8.374 275.985 7.548 279.219 7.184C279.219 6.204 278.897 5.266 277.651 5.266C276.769 5.266 275.971 5.672 275.369 6.078L274.865 5.196C275.565 4.748 276.643 4.202 277.861 4.202C279.709 4.202 280.493 5.448 280.493 7.324V12H279.443L279.331 11.09H279.289C278.561 11.692 277.707 12.182 276.769 12.182ZM277.133 11.16C277.875 11.16 278.477 10.81 279.219 10.152V8.024C276.657 8.332 275.789 8.962 275.789 9.942C275.789 10.81 276.377 11.16 277.133 11.16ZM282.922 12V4.398H283.972L284.084 5.784H284.126C284.658 4.818 285.428 4.202 286.282 4.202C286.618 4.202 286.856 4.244 287.094 4.37L286.856 5.49C286.604 5.392 286.422 5.364 286.114 5.364C285.484 5.364 284.7 5.812 284.196 7.114V12H282.922ZM287.223 14.66L286.915 13.904C287.797 13.512 288.315 12.826 288.315 12C288.259 12.014 288.217 12.014 288.161 12.014C287.671 12.014 287.223 11.706 287.223 11.118C287.223 10.572 287.671 10.222 288.189 10.222C288.861 10.222 289.267 10.796 289.267 11.734C289.267 13.078 288.483 14.128 287.223 14.66ZM294.6 12V1.724H297.652C299.738 1.724 301.18 2.438 301.18 4.244C301.18 5.266 300.634 6.162 299.682 6.47V6.54C300.9 6.778 301.768 7.59 301.768 8.99C301.768 11.006 300.172 12 297.876 12H294.6ZM295.902 6.106H297.428C299.192 6.106 299.906 5.448 299.906 4.412C299.906 3.208 299.08 2.76 297.484 2.76H295.902V6.106ZM295.902 10.964H297.694C299.458 10.964 300.494 10.334 300.494 8.948C300.494 7.674 299.486 7.086 297.694 7.086H295.902V10.964ZM305.901 12.182C304.305 12.182 303.591 11.146 303.591 9.214V4.398H304.865V9.06C304.865 10.474 305.285 11.076 306.293 11.076C307.077 11.076 307.623 10.698 308.351 9.788V4.398H309.625V12H308.561L308.463 10.81H308.421C307.707 11.636 306.951 12.182 305.901 12.182ZM314.587 12.182C312.963 12.182 312.417 11.16 312.417 9.648V5.434H311.283V4.468L312.473 4.398L312.627 2.256H313.691V4.398H315.749V5.434H313.691V9.676C313.691 10.614 313.985 11.146 314.867 11.146C315.133 11.146 315.483 11.048 315.735 10.95L315.987 11.902C315.553 12.042 315.049 12.182 314.587 12.182ZM320.713 12V1.724H322.015V10.894H326.495V12H320.713ZM329.953 12.182C328.679 12.182 327.727 11.398 327.727 10.026C327.727 8.374 329.169 7.548 332.403 7.184C332.403 6.204 332.081 5.266 330.835 5.266C329.953 5.266 329.155 5.672 328.553 6.078L328.049 5.196C328.749 4.748 329.827 4.202 331.045 4.202C332.893 4.202 333.677 5.448 333.677 7.324V12H332.627L332.515 11.09H332.473C331.745 11.692 330.891 12.182 329.953 12.182ZM330.317 11.16C331.059 11.16 331.661 10.81 332.403 10.152V8.024C329.841 8.332 328.973 8.962 328.973 9.942C328.973 10.81 329.561 11.16 330.317 11.16ZM339.101 12.182C337.085 12.182 335.531 10.726 335.531 8.206C335.531 5.672 337.253 4.202 339.199 4.202C340.193 4.202 340.879 4.622 341.425 5.098L340.767 5.938C340.319 5.546 339.857 5.266 339.255 5.266C337.869 5.266 336.861 6.456 336.861 8.206C336.861 9.956 337.813 11.118 339.213 11.118C339.913 11.118 340.529 10.796 341.005 10.362L341.565 11.216C340.879 11.832 340.011 12.182 339.101 12.182ZM343.228 12V0.855999H344.488V8.416H344.53L347.764 4.398H349.192L346.658 7.464L349.528 12H348.142L345.916 8.332L344.488 9.998V12H343.228ZM357.99 12.182C355.414 12.182 353.608 10.124 353.608 6.834C353.608 3.544 355.414 1.542 357.99 1.542C360.566 1.542 362.372 3.544 362.372 6.834C362.372 10.124 360.566 12.182 357.99 12.182ZM357.99 11.048C359.824 11.048 361.042 9.396 361.042 6.834C361.042 4.258 359.824 2.676 357.99 2.676C356.142 2.676 354.938 4.258 354.938 6.834C354.938 9.396 356.142 11.048 357.99 11.048ZM364.685 12V5.434H363.649V4.468L364.685 4.398V3.18C364.685 1.64 365.385 0.674 366.897 0.674C367.359 0.674 367.821 0.771999 368.171 0.926L367.891 1.892C367.611 1.766 367.303 1.696 367.037 1.696C366.309 1.696 365.959 2.214 365.959 3.194V4.398H367.569V5.434H365.959V12H364.685ZM375.126 12.182C373.67 12.182 372.424 11.594 371.528 10.656L372.312 9.774C373.04 10.544 374.076 11.048 375.14 11.048C376.484 11.048 377.296 10.376 377.296 9.368C377.296 8.318 376.554 7.982 375.588 7.548L374.104 6.904C373.152 6.498 372.018 5.77 372.018 4.272C372.018 2.69 373.39 1.542 375.252 1.542C376.47 1.542 377.548 2.06 378.276 2.816L377.59 3.642C376.96 3.054 376.204 2.676 375.252 2.676C374.09 2.676 373.334 3.264 373.334 4.188C373.334 5.182 374.23 5.56 375.028 5.896L376.498 6.526C377.688 7.044 378.612 7.744 378.612 9.27C378.612 10.894 377.268 12.182 375.126 12.182ZM383.578 12.182C381.562 12.182 379.938 10.712 379.938 8.206C379.938 5.742 381.604 4.202 383.368 4.202C385.3 4.202 386.392 5.602 386.392 7.772C386.392 8.052 386.364 8.318 386.336 8.5H381.212C381.296 10.124 382.29 11.16 383.732 11.16C384.474 11.16 385.076 10.936 385.636 10.558L386.098 11.398C385.426 11.832 384.614 12.182 383.578 12.182ZM381.198 7.576H385.272C385.272 6.05 384.572 5.224 383.382 5.224C382.304 5.224 381.352 6.092 381.198 7.576ZM391.26 12.182C389.244 12.182 387.69 10.726 387.69 8.206C387.69 5.672 389.412 4.202 391.358 4.202C392.352 4.202 393.038 4.622 393.584 5.098L392.926 5.938C392.478 5.546 392.016 5.266 391.414 5.266C390.028 5.266 389.02 6.456 389.02 8.206C389.02 9.956 389.972 11.118 391.372 11.118C392.072 11.118 392.688 10.796 393.164 10.362L393.724 11.216C393.038 11.832 392.17 12.182 391.26 12.182ZM397.599 12.182C396.003 12.182 395.289 11.146 395.289 9.214V4.398H396.563V9.06C396.563 10.474 396.983 11.076 397.991 11.076C398.775 11.076 399.321 10.698 400.049 9.788V4.398H401.323V12H400.259L400.161 10.81H400.119C399.405 11.636 398.649 12.182 397.599 12.182ZM403.891 12V4.398H404.941L405.053 5.784H405.095C405.627 4.818 406.397 4.202 407.251 4.202C407.587 4.202 407.825 4.244 408.063 4.37L407.825 5.49C407.573 5.392 407.391 5.364 407.083 5.364C406.453 5.364 405.669 5.812 405.165 7.114V12H403.891ZM409.318 12V4.398H410.592V12H409.318ZM409.962 2.83C409.458 2.83 409.108 2.494 409.108 1.976C409.108 1.486 409.458 1.15 409.962 1.15C410.466 1.15 410.816 1.486 410.816 1.976C410.816 2.494 410.466 2.83 409.962 2.83ZM415.568 12.182C413.944 12.182 413.398 11.16 413.398 9.648V5.434H412.264V4.468L413.454 4.398L413.608 2.256H414.672V4.398H416.73V5.434H414.672V9.676C414.672 10.614 414.966 11.146 415.848 11.146C416.114 11.146 416.464 11.048 416.716 10.95L416.968 11.902C416.534 12.042 416.03 12.182 415.568 12.182ZM418.577 15.276C418.213 15.276 417.919 15.22 417.681 15.122L417.933 14.1C418.087 14.156 418.311 14.226 418.507 14.226C419.375 14.226 419.921 13.526 420.229 12.588L420.397 12.014L417.345 4.398H418.675L420.229 8.626C420.453 9.284 420.719 10.068 420.957 10.754H421.027C421.237 10.068 421.461 9.298 421.671 8.626L423.029 4.398H424.275L421.405 12.63C420.887 14.128 420.089 15.276 418.577 15.276ZM428.995 12V1.724H432.215C434.301 1.724 435.799 2.48 435.799 4.622C435.799 6.218 434.875 7.17 433.475 7.506L436.107 12H434.637L432.145 7.646H430.297V12H428.995ZM430.297 6.596H432.019C433.629 6.596 434.511 5.952 434.511 4.622C434.511 3.264 433.629 2.788 432.019 2.788H430.297V6.596ZM440.699 12.182C438.683 12.182 437.059 10.712 437.059 8.206C437.059 5.742 438.725 4.202 440.489 4.202C442.421 4.202 443.513 5.602 443.513 7.772C443.513 8.052 443.485 8.318 443.457 8.5H438.333C438.417 10.124 439.411 11.16 440.853 11.16C441.595 11.16 442.197 10.936 442.757 10.558L443.219 11.398C442.547 11.832 441.735 12.182 440.699 12.182ZM438.319 7.576H442.393C442.393 6.05 441.693 5.224 440.503 5.224C439.425 5.224 438.473 6.092 438.319 7.576ZM447.373 12.182C446.295 12.182 445.259 11.734 444.531 11.132L445.161 10.292C445.819 10.824 446.505 11.188 447.415 11.188C448.423 11.188 448.913 10.656 448.913 9.998C448.913 9.214 448.017 8.878 447.177 8.556C446.113 8.164 444.951 7.646 444.951 6.358C444.951 5.154 445.931 4.202 447.583 4.202C448.521 4.202 449.347 4.594 449.935 5.056L449.319 5.882C448.801 5.49 448.269 5.21 447.597 5.21C446.631 5.21 446.183 5.714 446.183 6.302C446.183 7.03 446.967 7.296 447.821 7.618C448.927 8.038 450.145 8.486 450.145 9.928C450.145 11.16 449.165 12.182 447.373 12.182ZM451.934 15.206V4.398H452.984L453.096 5.266H453.138C453.824 4.706 454.678 4.202 455.56 4.202C457.52 4.202 458.584 5.742 458.584 8.08C458.584 10.684 457.03 12.182 455.28 12.182C454.594 12.182 453.866 11.86 453.18 11.3L453.208 12.63V15.206H451.934ZM455.07 11.118C456.33 11.118 457.254 9.984 457.254 8.094C457.254 6.414 456.694 5.28 455.252 5.28C454.608 5.28 453.95 5.644 453.208 6.33V10.32C453.894 10.908 454.566 11.118 455.07 11.118ZM463.569 12.182C461.707 12.182 460.041 10.726 460.041 8.206C460.041 5.672 461.707 4.202 463.569 4.202C465.431 4.202 467.097 5.672 467.097 8.206C467.097 10.726 465.431 12.182 463.569 12.182ZM463.569 11.118C464.885 11.118 465.781 9.956 465.781 8.206C465.781 6.456 464.885 5.266 463.569 5.266C462.253 5.266 461.371 6.456 461.371 8.206C461.371 9.956 462.253 11.118 463.569 11.118ZM469.105 12V4.398H470.155L470.267 5.49H470.309C471.037 4.776 471.821 4.202 472.857 4.202C474.453 4.202 475.181 5.238 475.181 7.184V12H473.907V7.352C473.907 5.924 473.473 5.322 472.465 5.322C471.681 5.322 471.149 5.714 470.379 6.484V12H469.105ZM479.652 12.182C478.574 12.182 477.538 11.734 476.81 11.132L477.44 10.292C478.098 10.824 478.784 11.188 479.694 11.188C480.702 11.188 481.192 10.656 481.192 9.998C481.192 9.214 480.296 8.878 479.456 8.556C478.392 8.164 477.23 7.646 477.23 6.358C477.23 5.154 478.21 4.202 479.862 4.202C480.8 4.202 481.626 4.594 482.214 5.056L481.598 5.882C481.08 5.49 480.548 5.21 479.876 5.21C478.91 5.21 478.462 5.714 478.462 6.302C478.462 7.03 479.246 7.296 480.1 7.618C481.206 8.038 482.424 8.486 482.424 9.928C482.424 11.16 481.444 12.182 479.652 12.182ZM487.279 12.182C485.263 12.182 483.639 10.712 483.639 8.206C483.639 5.742 485.305 4.202 487.069 4.202C489.001 4.202 490.093 5.602 490.093 7.772C490.093 8.052 490.065 8.318 490.037 8.5H484.913C484.997 10.124 485.991 11.16 487.433 11.16C488.175 11.16 488.777 10.936 489.337 10.558L489.799 11.398C489.127 11.832 488.315 12.182 487.279 12.182ZM484.899 7.576H488.973C488.973 6.05 488.273 5.224 487.083 5.224C486.005 5.224 485.053 6.092 484.899 7.576Z" fill="black" fill-opacity="0.33"/>
</svg>
