<svg width="18" height="58" viewBox="0 0 18 58" fill="none" xmlns="http://www.w3.org/2000/svg">
<path d="M8.15147 56.8485C8.6201 57.3172 9.3799 57.3172 9.84853 56.8485L17.4853 49.2118C17.9539 48.7431 17.9539 47.9833 17.4853 47.5147C17.0167 47.0461 16.2569 47.0461 15.7882 47.5147L9 54.3029L2.21177 47.5147C1.74315 47.0461 0.983348 47.0461 0.514718 47.5147C0.0460892 47.9833 0.0460892 48.7431 0.514718 49.2118L8.15147 56.8485ZM7.8 0V2.33333H10.2V0H7.8ZM7.8 7V11.6667H10.2V7H7.8ZM7.8 16.3333V21H10.2V16.3333H7.8ZM7.8 25.6667V30.3333H10.2V25.6667H7.8ZM7.8 35V39.6667H10.2V35H7.8ZM7.8 44.3333V49H10.2V44.3333H7.8ZM7.8 53.6667V56H10.2V53.6667H7.8Z" fill="#498BD3" fill-opacity="0.4"/>
</svg>
