<svg width="589" height="70" viewBox="0 0 589 70" fill="none" xmlns="http://www.w3.org/2000/svg">
<path d="M1.73489 55.836H7.61489C7.61489 59.462 5.94889 62.654 1.77689 64.698L1.16089 63.76C4.53489 62.15 6.21489 59.742 6.45289 56.76H1.73489V55.836ZM10.1489 54.478H11.2969V67.036H10.1489V54.478ZM15.1318 60.05L14.6978 59.126C16.9238 58.832 18.9538 57.586 18.9538 56.046V56.018H15.0478V55.094H24.3438V56.018H20.4378V56.046C20.4378 57.586 22.4678 58.832 24.6938 59.126L24.2598 60.05C22.2298 59.742 20.3818 58.734 19.6958 57.278C19.0098 58.734 17.1618 59.742 15.1318 60.05ZM16.6158 63.214V65.818H24.1058V66.756H15.4678V63.214H16.6158ZM20.2558 61.254H25.4078V62.192H13.9978V61.254H19.1078V59.168H20.2558V61.254ZM30.9596 66V55.724H33.8996C36.1956 55.724 37.7356 56.508 37.7356 58.748C37.7356 60.918 36.2096 61.926 33.9556 61.926H32.2616V66H30.9596ZM32.2616 60.876H33.7876C35.5936 60.876 36.4476 60.218 36.4476 58.748C36.4476 57.264 35.5376 56.788 33.7316 56.788H32.2616V60.876ZM43.8233 66.182C41.2753 66.182 39.3573 64.208 39.3573 60.876C39.3573 57.558 41.3033 55.542 43.9073 55.542C45.1533 55.542 46.1333 56.158 46.7213 56.816L46.0213 57.656C45.4893 57.082 44.8033 56.676 43.9213 56.676C41.9753 56.676 40.6873 58.272 40.6873 60.834C40.6873 63.424 41.9193 65.048 43.8793 65.048C44.8593 65.048 45.6013 64.614 46.2593 63.9L46.9733 64.712C46.1613 65.65 45.1533 66.182 43.8233 66.182ZM50.833 58.552V60.862H57.245V58.552H50.833ZM54.613 64.488H59.737V65.426H48.355V64.488H53.451V61.786H49.699V55.374H50.833V57.614H57.245V55.374H58.365V61.786H54.613V64.488ZM62.7319 58.454C62.7319 59.686 63.6559 60.554 64.8879 60.554C66.1199 60.554 67.0439 59.686 67.0439 58.454C67.0439 57.222 66.1199 56.354 64.8879 56.354C63.6559 56.354 62.7319 57.222 62.7319 58.454ZM68.1639 58.454C68.1639 60.274 66.7639 61.548 64.8879 61.548C63.0119 61.548 61.6119 60.274 61.6119 58.454C61.6119 56.634 63.0119 55.36 64.8879 55.36C66.7639 55.36 68.1639 56.634 68.1639 58.454ZM64.4539 62.78V65.818H71.6779V66.756H63.3059V62.78H64.4539ZM71.1179 58.3H72.9659V59.252H71.1179V63.718H69.9699V54.478H71.1179V58.3ZM78.4668 55.402C80.4268 55.402 81.8268 56.592 81.8268 58.356C81.8268 60.106 80.4268 61.31 78.4668 61.31C76.5208 61.31 75.1068 60.106 75.1068 58.356C75.1068 56.592 76.5208 55.402 78.4668 55.402ZM78.4668 56.382C77.1788 56.382 76.2268 57.18 76.2268 58.356C76.2268 59.518 77.1788 60.33 78.4668 60.33C79.7688 60.33 80.7068 59.518 80.7068 58.356C80.7068 57.18 79.7688 56.382 78.4668 56.382ZM83.4788 54.478H84.6268V67.064H83.4788V54.478ZM74.6168 64.306L74.4768 63.34C76.7588 63.34 79.9088 63.326 82.6528 62.906L82.7508 63.76C79.9228 64.278 76.8848 64.306 74.6168 64.306ZM99.4466 58.552V55.99H93.2586V58.552H99.4466ZM100.581 55.066V59.476H92.1386V55.066H100.581ZM93.2586 63.172V65.818H100.791V66.756H92.1106V63.172H93.2586ZM90.6546 60.904H102.065V61.828H97.0246V64.362H95.8766V61.828H90.6546V60.904ZM107.383 56.886V58.02C107.383 60.204 108.321 62.388 110.057 63.368L109.357 64.208C108.139 63.48 107.271 62.136 106.837 60.54C106.403 62.262 105.493 63.732 104.247 64.516L103.547 63.662C105.297 62.612 106.277 60.33 106.277 58.02V56.886H103.897V55.948H109.623V56.886H107.383ZM110.743 58.986V54.758H111.835V66.378H110.743V59.924H108.671V58.986H110.743ZM113.263 54.464H114.369V67.022H113.263V54.464ZM124.126 60.526L123.552 61.422C122.152 60.918 121.074 59.868 120.528 58.58C119.982 60.022 118.834 61.17 117.364 61.702L116.762 60.806C118.624 60.134 119.926 58.468 119.926 56.69V56.214H117.126V55.276H123.832V56.214H121.074V56.676C121.074 58.314 122.306 59.882 124.126 60.526ZM120.024 63.354V65.944H125.946V63.354H120.024ZM118.904 66.868V62.444H127.066V66.868H118.904ZM125.904 54.478H127.066V61.828H125.904V58.58H123.426V57.628H125.904V54.478ZM135.409 55.556C133.351 55.556 132.175 56.032 132.175 56.872C132.175 57.712 133.351 58.188 135.409 58.188C137.467 58.188 138.643 57.712 138.643 56.872C138.643 56.032 137.467 55.556 135.409 55.556ZM135.409 59.042C132.651 59.042 130.999 58.286 130.999 56.872C130.999 55.458 132.651 54.688 135.409 54.688C138.167 54.688 139.819 55.458 139.819 56.872C139.819 58.286 138.167 59.042 135.409 59.042ZM132.259 64.726V66H140.015V66.896H131.139V63.886H138.503V62.766H131.097V61.898H139.637V64.726H132.259ZM129.725 59.896H141.093V60.82H129.725V59.896ZM148.479 56.438V60.512H154.905V56.438H148.479ZM152.287 64.474H157.411V65.426H146.029V64.474H151.125V61.422H147.373V55.528H156.025V61.422H152.287V64.474ZM169.002 59.154V60.078H160.602V55.22H168.848V56.158H161.778V59.154H169.002ZM170.43 61.716V62.654H165.278V66.98H164.13V62.654H159.048V61.716H170.43ZM178.446 63.172C179.412 63.172 180.112 62.374 180.112 61.254C180.112 60.162 179.412 59.364 178.446 59.364C177.466 59.364 176.78 60.162 176.78 61.254C176.78 62.374 177.466 63.172 178.446 63.172ZM178.446 58.398C180 58.398 181.134 59.574 181.134 61.254C181.134 62.962 180 64.124 178.446 64.124C176.892 64.124 175.758 62.962 175.758 61.254C175.758 59.574 176.892 58.398 178.446 58.398ZM179.006 54.842V56.62H181.554V57.558H175.324V56.62H177.872V54.842H179.006ZM184.872 54.464H185.978V67.022H184.872V60.708H183.262V66.42H182.184V54.758H183.262V59.77H184.872V54.464ZM197.541 57.194H194.447C193.663 59.168 191.745 60.512 188.973 61.17L188.553 60.232C191.619 59.518 193.369 58.02 193.579 56.032H189.211V55.094H194.825C194.825 55.514 194.783 55.906 194.699 56.298H197.541V54.478H198.703V60.89H197.541V59.588H194.265V58.692H197.541V57.194ZM191.773 66H199.123V66.91H190.639V63.676H197.555V62.388H190.611V61.464H198.703V64.544H191.773V66ZM208.824 55.626V56.508H201.418V55.626H204.54V54.352H205.688V55.626H208.824ZM203.21 59.126C203.21 59.868 203.952 60.33 205.114 60.33C206.276 60.33 207.032 59.868 207.032 59.126C207.032 58.37 206.276 57.922 205.114 57.922C203.952 57.922 203.21 58.37 203.21 59.126ZM208.124 59.126C208.124 60.4 206.934 61.184 205.114 61.184C203.308 61.184 202.118 60.4 202.118 59.126C202.118 57.852 203.308 57.068 205.114 57.068C206.934 57.068 208.124 57.852 208.124 59.126ZM204.302 64.81V66.014H211.582V66.896H203.182V63.97H209.986V62.878H203.14V62.024H211.12V64.81H204.302ZM211.12 57.46H212.982V58.412H211.12V61.38H209.972V54.436H211.12V57.46ZM228.473 59.266L227.997 60.19C226.051 59.854 224.161 58.762 223.349 57.25C222.565 58.776 220.675 59.854 218.715 60.19L218.253 59.266C220.535 58.93 222.747 57.418 222.747 55.626V54.926H223.951V55.626C223.951 57.376 226.191 58.93 228.473 59.266ZM229.019 61.548L229.033 62.5H223.895V67.05H222.747V62.5H217.679V61.548H229.019ZM244.259 54.492V61.66H243.111V54.492H244.259ZM237.511 56.172C236.265 56.172 235.369 56.998 235.369 58.146C235.369 59.308 236.265 60.12 237.511 60.12C238.757 60.12 239.681 59.308 239.681 58.146C239.681 56.998 238.757 56.172 237.511 56.172ZM237.511 61.072C235.621 61.072 234.249 59.882 234.249 58.146C234.249 56.41 235.621 55.22 237.511 55.22C239.415 55.22 240.801 56.41 240.801 58.146C240.801 59.882 239.415 61.072 237.511 61.072ZM242.859 62.206V62.878C242.859 64.18 243.783 65.468 245.379 66L244.805 66.868C243.573 66.42 242.705 65.552 242.285 64.502C241.893 65.524 241.123 66.476 239.961 66.98C238.757 66.504 238.001 65.594 237.623 64.544C237.175 65.552 236.321 66.42 235.145 66.868L234.571 66C236.153 65.44 237.091 64.082 237.091 62.878V62.206H238.197V62.878C238.197 63.984 238.771 65.174 239.933 65.86C241.137 65.118 241.739 63.858 241.739 62.878V62.206H242.859ZM257.04 58.258V59.196H248.5V54.94H249.648V58.258H257.04ZM249.564 63.06V65.79H257.11V66.728H248.416V63.06H249.564ZM246.96 60.876H258.342V61.8H246.96V60.876ZM266.988 55.668V58.02C266.988 60.036 267.926 62.164 269.578 63.172L268.92 64.068C267.73 63.34 266.89 62.01 266.442 60.484C265.994 62.15 265.084 63.564 263.838 64.334L263.124 63.48C264.846 62.472 265.882 60.218 265.882 58.062V55.668H266.988ZM270.292 58.986V54.758H271.37V66.42H270.292V59.938H268.22V58.986H270.292ZM272.84 54.478H273.932V67.036H272.84V54.478ZM278.957 56.732V62.948C279.615 62.934 280.301 62.906 280.987 62.864V56.732H278.957ZM282.107 56.732V62.794C282.723 62.766 283.311 62.71 283.899 62.64L283.983 63.48C281.435 63.872 278.495 63.942 276.311 63.942L276.185 62.976C276.689 62.976 277.263 62.976 277.837 62.962V56.732H276.577V55.794H283.507V56.732H282.107ZM285.481 54.492H286.629V67.036H285.481V60.162H283.087V59.21H285.481V54.492ZM299.368 60.498V61.436H290.744V55.626H299.242V56.578H291.878V60.498H299.368ZM289.288 64.39H300.684V65.342H289.288V64.39ZM306.394 55.402C308.354 55.402 309.754 56.592 309.754 58.356C309.754 60.106 308.354 61.31 306.394 61.31C304.448 61.31 303.034 60.106 303.034 58.356C303.034 56.592 304.448 55.402 306.394 55.402ZM306.394 56.382C305.106 56.382 304.154 57.18 304.154 58.356C304.154 59.518 305.106 60.33 306.394 60.33C307.696 60.33 308.634 59.518 308.634 58.356C308.634 57.18 307.696 56.382 306.394 56.382ZM311.406 54.478H312.554V67.064H311.406V54.478ZM302.544 64.306L302.404 63.34C304.686 63.34 307.836 63.326 310.58 62.906L310.678 63.76C307.85 64.278 304.812 64.306 302.544 64.306ZM321.13 64.74V66H328.886V66.896H320.01V63.886H327.374V62.766H319.968V61.898H328.508V64.74H321.13ZM321.046 56.802C321.046 57.642 322.222 58.118 324.28 58.118C326.338 58.118 327.514 57.642 327.514 56.802C327.514 55.962 326.338 55.486 324.28 55.486C322.222 55.486 321.046 55.962 321.046 56.802ZM324.854 59.924H329.95V60.848H318.61V59.924H323.706V58.972C321.284 58.874 319.87 58.104 319.87 56.802C319.87 55.388 321.522 54.618 324.28 54.618C327.052 54.618 328.69 55.388 328.69 56.802C328.69 58.118 327.262 58.874 324.854 58.972V59.924ZM341.933 54.492V63.662H340.785V54.492H341.933ZM333.043 58.44C333.043 59.686 333.967 60.554 335.185 60.554C336.431 60.554 337.355 59.686 337.355 58.44C337.355 57.222 336.431 56.354 335.185 56.354C333.967 56.354 333.043 57.222 333.043 58.44ZM338.475 58.44C338.475 60.26 337.061 61.548 335.185 61.548C333.323 61.548 331.923 60.26 331.923 58.44C331.923 56.634 333.323 55.36 335.185 55.36C337.061 55.36 338.475 56.634 338.475 58.44ZM335.003 65.818H342.311V66.756H333.855V62.724H335.003V65.818ZM351.228 61.898H353.776V54.478H354.924V64.04H353.776V62.752H351.228V61.898ZM348.666 55.836C347.476 55.836 346.664 56.368 346.664 57.166C346.664 57.978 347.476 58.51 348.666 58.51C349.856 58.51 350.668 57.978 350.668 57.166C350.668 56.368 349.856 55.836 348.666 55.836ZM348.666 59.364C346.832 59.364 345.572 58.51 345.572 57.166C345.572 55.85 346.832 54.982 348.666 54.982C350.5 54.982 351.76 55.85 351.76 57.166C351.76 58.51 350.5 59.364 348.666 59.364ZM348.218 63.592V61.17C346.972 61.226 345.768 61.24 344.732 61.24L344.578 60.288C346.902 60.288 350.01 60.26 352.67 59.924L352.768 60.75C351.662 60.918 350.5 61.044 349.366 61.114V63.592H348.218ZM347.518 65.818H355.246V66.756H346.37V63.102H347.518V65.818ZM363.416 58.552V60.862H369.828V58.552H363.416ZM367.196 64.488H372.32V65.426H360.938V64.488H366.034V61.786H362.282V55.374H363.416V57.614H369.828V55.374H370.948V61.786H367.196V64.488ZM375.315 58.454C375.315 59.686 376.239 60.554 377.471 60.554C378.703 60.554 379.627 59.686 379.627 58.454C379.627 57.222 378.703 56.354 377.471 56.354C376.239 56.354 375.315 57.222 375.315 58.454ZM380.747 58.454C380.747 60.274 379.347 61.548 377.471 61.548C375.595 61.548 374.195 60.274 374.195 58.454C374.195 56.634 375.595 55.36 377.471 55.36C379.347 55.36 380.747 56.634 380.747 58.454ZM377.037 62.78V65.818H384.261V66.756H375.889V62.78H377.037ZM383.701 58.3H385.549V59.252H383.701V63.718H382.553V54.478H383.701V58.3ZM397.47 61.03V56.662H394.348V61.03H397.47ZM393.2 61.03V56.662H391.254V55.738H400.564V56.662H398.618V61.03H400.536V61.968H391.282V61.03H393.2ZM390.246 64.474H401.628V65.426H390.246V64.474ZM409.523 64.544H414.661V65.482H403.251V64.544H408.361V62.178H404.679V58.3H412.127V56.34H404.651V55.402H413.247V59.224H405.813V61.254H413.541V62.178H409.523V64.544ZM424.992 57.068V56.746H417.516V55.808H426.126V57.068C426.126 58.664 426.126 60.47 425.636 63.186L424.488 63.06C424.992 60.498 424.992 58.622 424.992 57.068ZM416.298 64.25H427.652V65.202H416.298V64.25ZM435.309 60.134L435.421 61.058C433.825 61.352 432.509 61.422 430.703 61.422H429.877V57.852H433.461V56.228H429.849V55.304H434.567V58.72H430.983V60.498C432.607 60.498 433.839 60.428 435.309 60.134ZM432.775 63.494V65.944H438.781V63.494H432.775ZM431.655 66.868V62.584H439.901V66.868H431.655ZM438.795 54.478H439.901V61.982H438.795V58.608H437.115V61.814H436.023V54.716H437.115V57.67H438.795V54.478ZM456.303 58.09L455.911 58.986C453.923 58.72 452.061 57.852 451.263 56.508C450.479 57.852 448.603 58.72 446.615 58.986L446.223 58.09C448.533 57.838 450.675 56.648 450.675 55.038V54.576H451.851V55.038C451.851 56.648 453.993 57.838 456.303 58.09ZM448.113 64.782V66H455.869V66.896H446.993V63.942H454.357V62.78H446.951V61.912H455.491V64.782H448.113ZM451.837 59.952H456.947V60.876H445.579V59.952H450.689V58.328H451.837V59.952ZM467.46 57.376V55.892H459.956V54.982H468.622V58.258H461.146V59.868H468.902V60.806H459.998V57.376H467.46ZM469.994 62.094V63.032H464.856V67.05H463.708V63.032H458.598V62.094H469.994ZM480.815 63.858V59.854H478.281V58.916H480.815V57.264H478.281V56.34H480.815V54.478H481.977V63.858H480.815ZM478.953 61.072L478.323 61.982C476.965 61.408 475.901 60.274 475.355 58.874C474.837 60.386 473.731 61.59 472.261 62.192L471.645 61.282C473.521 60.554 474.781 58.762 474.781 56.788V55.178H475.929V56.788C475.929 58.636 477.147 60.358 478.953 61.072ZM475.047 65.818H482.271V66.756H473.899V62.906H475.047V65.818ZM490.32 55.556C488.262 55.556 487.086 56.032 487.086 56.872C487.086 57.712 488.262 58.188 490.32 58.188C492.378 58.188 493.554 57.712 493.554 56.872C493.554 56.032 492.378 55.556 490.32 55.556ZM490.32 59.042C487.562 59.042 485.91 58.286 485.91 56.872C485.91 55.458 487.562 54.688 490.32 54.688C493.078 54.688 494.73 55.458 494.73 56.872C494.73 58.286 493.078 59.042 490.32 59.042ZM487.17 64.726V66H494.926V66.896H486.05V63.886H493.414V62.766H486.008V61.898H494.548V64.726H487.17ZM484.636 59.896H496.004V60.82H484.636V59.896ZM508.401 55.626V56.494H501.191V55.626H504.229V54.394H505.377V55.626H508.401ZM502.955 58.818C502.955 59.476 503.669 59.896 504.803 59.896C505.909 59.896 506.637 59.476 506.637 58.818C506.637 58.16 505.909 57.754 504.803 57.754C503.669 57.754 502.955 58.16 502.955 58.818ZM508.779 61.226L508.863 62.052C506.175 62.514 503.207 62.528 501.009 62.542L500.883 61.618C501.877 61.618 503.025 61.618 504.229 61.576V60.666C502.773 60.526 501.863 59.854 501.863 58.818C501.863 57.67 503.025 56.956 504.803 56.956C506.553 56.956 507.729 57.67 507.729 58.818C507.729 59.84 506.819 60.512 505.377 60.666V61.534C506.525 61.478 507.687 61.394 508.779 61.226ZM502.409 64.446V63.536H510.669V67.036H509.521V64.446H502.409ZM512.503 58.286V59.238H510.669V62.906H509.521V54.492H510.669V58.286H512.503ZM524.262 54.492V63.662H523.114V54.492H524.262ZM515.372 58.44C515.372 59.686 516.296 60.554 517.514 60.554C518.76 60.554 519.684 59.686 519.684 58.44C519.684 57.222 518.76 56.354 517.514 56.354C516.296 56.354 515.372 57.222 515.372 58.44ZM520.804 58.44C520.804 60.26 519.39 61.548 517.514 61.548C515.652 61.548 514.252 60.26 514.252 58.44C514.252 56.634 515.652 55.36 517.514 55.36C519.39 55.36 520.804 56.634 520.804 58.44ZM517.332 65.818H524.64V66.756H516.184V62.724H517.332V65.818ZM533.356 63.172C534.322 63.172 535.022 62.374 535.022 61.254C535.022 60.162 534.322 59.364 533.356 59.364C532.376 59.364 531.69 60.162 531.69 61.254C531.69 62.374 532.376 63.172 533.356 63.172ZM533.356 58.398C534.91 58.398 536.044 59.574 536.044 61.254C536.044 62.962 534.91 64.124 533.356 64.124C531.802 64.124 530.668 62.962 530.668 61.254C530.668 59.574 531.802 58.398 533.356 58.398ZM533.916 54.842V56.62H536.464V57.558H530.234V56.62H532.782V54.842H533.916ZM539.782 54.464H540.888V67.022H539.782V60.708H538.172V66.42H537.094V54.758H538.172V59.77H539.782V54.464ZM549.016 58.552V60.862H555.428V58.552H549.016ZM552.796 64.488H557.92V65.426H546.538V64.488H551.634V61.786H547.882V55.374H549.016V57.614H555.428V55.374H556.548V61.786H552.796V64.488ZM563.281 55.668V58.02C563.281 60.036 564.219 62.164 565.871 63.172L565.213 64.068C564.023 63.34 563.183 62.01 562.735 60.484C562.287 62.15 561.377 63.564 560.131 64.334L559.417 63.48C561.139 62.472 562.175 60.218 562.175 58.062V55.668H563.281ZM566.585 58.986V54.758H567.663V66.42H566.585V59.938H564.513V58.986H566.585ZM569.133 54.478H570.225V67.036H569.133V54.478ZM576.51 61.52V64.474H580.01V61.52C579.478 61.646 578.876 61.716 578.246 61.716C577.63 61.716 577.028 61.646 576.51 61.52ZM578.246 56.172C576.23 56.172 574.788 57.096 574.788 58.496C574.788 59.896 576.23 60.82 578.246 60.82C580.262 60.82 581.718 59.896 581.718 58.496C581.718 57.096 580.262 56.172 578.246 56.172ZM581.158 64.474H583.972V65.426H572.562V64.474H575.362V61.086C574.312 60.54 573.682 59.63 573.682 58.496C573.682 56.536 575.586 55.276 578.246 55.276C580.92 55.276 582.81 56.536 582.81 58.496C582.81 59.63 582.194 60.526 581.158 61.072V64.474ZM586.799 66.182C586.295 66.182 585.875 65.79 585.875 65.216C585.875 64.628 586.295 64.222 586.799 64.222C587.303 64.222 587.723 64.628 587.723 65.216C587.723 65.79 587.303 66.182 586.799 66.182Z" fill="black" fill-opacity="0.78"/>
<path d="M120.44 13.32H134.584C134.584 22.344 131.544 29.704 121.08 34.76L118.872 31.432C126.392 27.816 129.656 23.208 130.264 16.68H120.44V13.32ZM139.096 10.248H143.352V39.72H139.096V10.248ZM151.285 23.656L149.749 20.328C155.477 19.688 158.389 17.288 158.901 14.888H150.997V11.528H172.821V14.888H164.853C165.365 17.288 168.245 19.688 174.005 20.328L172.501 23.656C167.029 23.048 163.413 20.744 161.877 17.704C160.341 20.744 156.757 23.048 151.285 23.656ZM156.021 30.824V35.88H172.213V39.24H151.797V30.824H156.021ZM163.957 25.608H175.221V29H148.565V25.608H159.733V21.576H163.957V25.608ZM187.795 12.232C192.403 12.232 195.923 15.272 195.923 19.496C195.923 23.752 192.403 26.76 187.795 26.76C183.187 26.76 179.699 23.752 179.699 19.496C179.699 15.272 183.187 12.232 187.795 12.232ZM187.795 15.848C185.523 15.848 183.795 17.192 183.795 19.496C183.795 21.8 185.523 23.144 187.795 23.144C190.067 23.144 191.795 21.8 191.795 19.496C191.795 17.192 190.067 15.848 187.795 15.848ZM198.675 10.248H202.899V39.816H198.675V10.248ZM178.995 33.832L178.451 30.408C183.635 30.408 190.867 30.376 197.075 29.448L197.331 32.488C190.995 33.768 184.083 33.832 178.995 33.832ZM217.186 37V13.288H224.962C230.21 13.288 234.242 15.144 234.242 20.744C234.242 26.152 230.178 28.584 225.09 28.584H221.922V37H217.186ZM221.922 24.84H224.77C228.034 24.84 229.602 23.464 229.602 20.744C229.602 17.992 227.874 17.064 224.61 17.064H221.922V24.84ZM248.514 37.448C242.53 37.448 237.666 33.16 237.666 25.256C237.666 17.448 242.69 12.872 248.674 12.872C251.682 12.872 254.082 14.312 255.618 15.912L253.154 18.92C251.938 17.768 250.562 16.936 248.77 16.936C245.186 16.936 242.498 20.008 242.498 25.096C242.498 30.248 244.93 33.352 248.674 33.352C250.722 33.352 252.29 32.392 253.57 31.016L256.066 33.96C254.114 36.232 251.586 37.448 248.514 37.448ZM265.673 20.008V24.136H278.281V20.008H265.673ZM274.089 32.904H285.353V36.328H258.665V32.904H269.865V27.496H261.481V12.104H265.673V16.68H278.281V12.104H282.441V27.496H274.089V32.904ZM292.775 19.656C292.775 22.056 294.439 23.496 296.647 23.496C298.823 23.496 300.519 22.056 300.519 19.656C300.519 17.256 298.823 15.816 296.647 15.816C294.439 15.816 292.775 17.256 292.775 19.656ZM304.615 19.656C304.615 23.976 301.127 27.144 296.647 27.144C292.135 27.144 288.647 23.976 288.647 19.656C288.647 15.304 292.135 12.168 296.647 12.168C301.127 12.168 304.615 15.304 304.615 19.656ZM296.839 29.512V35.88H312.679V39.24H292.615V29.512H296.839ZM311.623 18.728H315.527V22.184H311.623V31.72H307.399V10.28H311.623V18.728ZM319.492 43.816L318.5 41.256C320.996 40.328 322.372 38.664 322.34 36.872C322.244 36.872 322.148 36.872 322.052 36.872C320.516 36.872 319.108 35.88 319.108 34.088C319.108 32.392 320.484 31.304 322.148 31.304C324.324 31.304 325.54 33.032 325.54 35.944C325.54 39.688 323.364 42.536 319.492 43.816ZM355.581 19.176V14.824H343.901V19.176H355.581ZM359.741 11.528V22.504H339.741V11.528H359.741ZM343.773 30.696V35.88H360.189V39.24H339.549V30.696H343.773ZM336.445 24.84H363.133V28.168H352.285V33.192H348.061V28.168H336.445V24.84ZM375.578 16.648V18.088C375.578 23.016 377.018 27.976 381.274 30.472L378.81 33.544C376.218 31.976 374.522 29.448 373.562 26.344C372.538 29.704 370.81 32.584 368.154 34.248L365.658 31.144C369.946 28.424 371.482 23.144 371.482 18.088V16.648H366.746V13.224H379.866V16.648H375.578ZM381.562 20.328V10.76H385.498V38.408H381.562V23.752H377.818V20.328H381.562ZM387.514 10.248H391.514V39.72H387.514V10.248ZM413.752 23.528L411.704 26.824C408.472 25.768 406.296 23.656 405.016 21.032C403.704 23.944 401.4 26.248 397.976 27.4L395.832 24.04C400.568 22.504 402.68 18.792 402.776 15.144H396.984V11.784H412.824V15.144H407.096C407.224 18.536 409.24 22.024 413.752 23.528ZM405.176 31.816V36.104H416.504V31.816H405.176ZM401.016 39.4V28.52H420.632V39.4H401.016ZM416.408 10.28H420.632V27.304H416.408V20.52H411.96V17.096H416.408V10.28ZM439.061 14.472C435.125 14.472 432.757 15.432 432.757 17.224C432.757 19.048 435.125 19.944 439.061 19.944C443.029 19.944 445.397 19.048 445.397 17.224C445.397 15.432 443.029 14.472 439.061 14.472ZM439.061 23.304C432.661 23.304 428.405 20.968 428.405 17.224C428.405 13.48 432.661 11.144 439.061 11.144C445.493 11.144 449.749 13.48 449.749 17.224C449.749 20.968 445.493 23.304 439.061 23.304ZM433.205 30.664V35.88H449.397V39.24H428.981V30.664H433.205ZM425.749 25.32H452.373V28.68H425.749V25.32ZM459.795 28.936C459.027 23.784 464.467 21.704 464.467 18.664C464.467 17.064 463.411 16.04 461.747 16.04C460.339 16.04 459.219 16.776 458.195 17.832L455.603 15.464C457.267 13.576 459.539 12.264 462.323 12.264C466.163 12.264 468.979 14.248 468.979 18.344C468.979 22.888 463.411 24.424 463.891 28.936H459.795ZM461.843 37.448C460.179 37.448 458.931 36.104 458.931 34.376C458.931 32.616 460.179 31.304 461.843 31.304C463.539 31.304 464.787 32.616 464.787 34.376C464.787 36.104 463.539 37.448 461.843 37.448Z" fill="black"/>
</svg>
