<svg width="99" height="21" viewBox="0 0 99 21" fill="none" xmlns="http://www.w3.org/2000/svg">
<path d="M6.67941 20.336C4.30341 20.336 1.92741 19.4 0.199406 17.744L2.23941 15.296C3.51141 16.472 5.19141 17.264 6.75141 17.264C8.59941 17.264 9.58341 16.472 9.58341 15.224C9.58341 13.904 8.50341 13.496 6.91941 12.824L4.54341 11.816C2.74341 11.072 0.943406 9.632 0.943406 7.04C0.943406 4.136 3.48741 1.904 7.08741 1.904C9.15141 1.904 11.2154 2.72 12.6554 4.184L10.8554 6.416C9.72741 5.48 8.55141 4.952 7.08741 4.952C5.52741 4.952 4.54341 5.648 4.54341 6.824C4.54341 8.096 5.79141 8.552 7.30341 9.152L9.63141 10.136C11.7914 11.024 13.2074 12.392 13.2074 14.96C13.2074 17.864 10.7834 20.336 6.67941 20.336ZM21.68 20.336C18.32 20.336 15.224 17.744 15.224 13.28C15.224 8.816 18.32 6.224 21.68 6.224C25.04 6.224 28.136 8.816 28.136 13.28C28.136 17.744 25.04 20.336 21.68 20.336ZM21.68 17.456C23.504 17.456 24.536 15.824 24.536 13.28C24.536 10.76 23.504 9.104 21.68 9.104C19.856 9.104 18.824 10.76 18.824 13.28C18.824 15.824 19.856 17.456 21.68 17.456ZM34.3994 20.336C31.9514 20.336 31.0874 18.728 31.0874 16.232V0.847999H34.6154V16.376C34.6154 17.192 34.9754 17.456 35.3114 17.456C35.4554 17.456 35.5514 17.456 35.7914 17.408L36.2234 20.024C35.8154 20.192 35.2394 20.336 34.3994 20.336ZM42.6657 20.336C39.7617 20.336 38.5137 18.32 38.5137 14.96V6.56H42.0417V14.504C42.0417 16.568 42.6177 17.312 43.9137 17.312C45.0177 17.312 45.7377 16.832 46.6497 15.632V6.56H50.1777V20H47.2977L47.0337 18.08H46.9377C45.7857 19.448 44.4897 20.336 42.6657 20.336ZM58.859 20.336C55.667 20.336 54.443 18.296 54.443 15.296V9.344H52.547V6.728L54.635 6.56L55.043 2.936H57.971V6.56H61.283V9.344H57.971V15.296C57.971 16.832 58.595 17.552 59.795 17.552C60.227 17.552 60.755 17.408 61.115 17.264L61.691 19.832C60.971 20.072 60.035 20.336 58.859 20.336ZM64.0171 20V6.56H67.5451V20H64.0171ZM65.7931 4.4C64.5691 4.4 63.7291 3.632 63.7291 2.456C63.7291 1.304 64.5691 0.535999 65.7931 0.535999C66.9931 0.535999 67.8331 1.304 67.8331 2.456C67.8331 3.632 66.9931 4.4 65.7931 4.4ZM76.9222 20.336C73.5622 20.336 70.4662 17.744 70.4662 13.28C70.4662 8.816 73.5622 6.224 76.9222 6.224C80.2822 6.224 83.3782 8.816 83.3782 13.28C83.3782 17.744 80.2822 20.336 76.9222 20.336ZM76.9222 17.456C78.7462 17.456 79.7782 15.824 79.7782 13.28C79.7782 10.76 78.7462 9.104 76.9222 9.104C75.0982 9.104 74.0662 10.76 74.0662 13.28C74.0662 15.824 75.0982 17.456 76.9222 17.456ZM86.3296 20V6.56H89.2096L89.4736 8.336H89.5456C90.7216 7.184 92.0896 6.224 93.9136 6.224C96.8176 6.224 98.0656 8.24 98.0656 11.624V20H94.5376V12.056C94.5376 9.968 93.9616 9.248 92.6416 9.248C91.5376 9.248 90.8416 9.776 89.8576 10.76V20H86.3296Z" fill="white" fill-opacity="0.8"/>
</svg>
