<svg width="461" height="24" viewBox="0 0 461 24" fill="none" xmlns="http://www.w3.org/2000/svg">
<path d="M7.48253 2.88V6.48C7.48253 10.056 8.44253 13.728 11.4425 15.72L9.71453 18.168C7.84253 17.016 6.66653 15.144 5.97053 12.912C5.20253 15.36 3.90653 17.472 1.91453 18.672L0.0185313 16.296C3.25853 14.328 4.43453 10.368 4.43453 6.6V2.88H7.48253ZM11.8985 8.424V1.32H14.8505V22.08H11.8985V10.992H9.11453V8.424H11.8985ZM16.3865 0.959999H19.3865V23.064H16.3865V0.959999ZM27.9047 5.424V15.432C28.6247 15.408 29.3447 15.384 30.0887 15.336V5.424H27.9047ZM33.1367 5.424V15.144C34.0247 15.096 34.9127 15 35.7527 14.904L35.9447 17.208C31.5287 17.976 26.5127 18.072 22.7447 18.072L22.4087 15.504C23.1767 15.504 23.9927 15.504 24.8327 15.504V5.424H23.0087V2.904H35.2007V5.424H33.1367ZM37.8887 0.959999H41.0567V23.088H37.8887V11.544H34.6007V8.976H37.8887V0.959999ZM62.4628 11.16V13.68H46.9108V2.784H62.2948V5.352H50.0788V11.16H62.4628ZM44.5828 17.832H64.5988V20.424H44.5828V17.832ZM73.7649 2.424C77.2209 2.424 79.8609 4.704 79.8609 7.872C79.8609 11.064 77.2209 13.32 73.7649 13.32C70.3089 13.32 67.6929 11.064 67.6929 7.872C67.6929 4.704 70.3089 2.424 73.7649 2.424ZM73.7649 5.136C72.0609 5.136 70.7649 6.144 70.7649 7.872C70.7649 9.6 72.0609 10.608 73.7649 10.608C75.4689 10.608 76.7649 9.6 76.7649 7.872C76.7649 6.144 75.4689 5.136 73.7649 5.136ZM81.9249 0.935999H85.0929V23.112H81.9249V0.935999ZM67.1649 18.624L66.7569 16.056C70.6449 16.056 76.0689 16.032 80.7249 15.336L80.9169 17.616C76.1649 18.576 70.9809 18.624 67.1649 18.624ZM108.241 9.792V16.92H105.289V1.368H108.241V7.248H110.017V0.959999H113.017V17.352H110.017V9.792H108.241ZM104.257 11.352L104.521 13.848C102.025 14.28 99.8405 14.352 96.6005 14.352H95.0645V7.344H100.369V5.232H95.0405V2.76H103.417V9.648H98.1125V11.856C100.465 11.832 102.265 11.712 104.257 11.352ZM101.305 20.16H113.569V22.68H98.1365V15.84H101.305V20.16ZM129.455 10.512L127.847 12.96C125.495 12.192 123.863 10.704 122.903 8.784C121.943 10.896 120.239 12.528 117.743 13.344L116.087 10.872C119.759 9.72 121.295 6.936 121.295 4.056V1.968H124.487V4.248C124.487 6.888 125.975 9.432 129.455 10.512ZM123.143 17.016V20.328H131.639V17.016H123.143ZM120.023 22.8V14.544H134.735V22.8H120.023ZM131.567 0.959999H134.735V13.584H131.567V7.368H127.535V4.8H131.567V0.959999ZM143.829 4.56C142.605 4.56 141.717 5.208 141.717 6.408C141.717 7.56 142.605 8.232 143.829 8.232C145.029 8.232 145.893 7.56 145.893 6.408C145.893 5.208 145.029 4.56 143.829 4.56ZM143.829 10.584C140.997 10.584 138.909 8.832 138.909 6.408C138.909 3.936 140.997 2.208 143.829 2.208C146.637 2.208 148.701 3.936 148.701 6.408C148.701 8.832 146.637 10.584 143.829 10.584ZM149.157 11.208L149.397 13.512C148.125 13.752 146.685 13.944 145.293 14.064V21.336H142.269V14.232C140.805 14.304 139.461 14.304 138.333 14.304L137.997 11.736C140.949 11.736 145.677 11.688 149.157 11.208ZM150.237 15.192V1.344H153.189V22.056H150.237V17.568H146.781V15.192H150.237ZM154.653 0.983999H157.653V23.064H154.653V0.983999ZM166.459 15.408C168.091 15.408 169.171 13.656 169.171 10.368C169.171 7.104 168.091 5.352 166.459 5.352C164.851 5.352 163.771 7.104 163.771 10.368C163.771 13.656 164.851 15.408 166.459 15.408ZM175.795 0.935999H178.963V23.112H175.795V11.472H172.123C171.787 15.696 169.531 18.288 166.459 18.288C163.171 18.288 160.747 15.24 160.747 10.368C160.747 5.52 163.171 2.496 166.459 2.496C169.435 2.496 171.667 4.92 172.099 8.904H175.795V0.935999ZM191.671 6.072V15.48C193.735 15.432 195.607 15.312 197.719 14.928L197.959 17.496C195.271 18 192.919 18.096 190.087 18.096H188.551V3.504H196.735V6.072H191.671ZM203.887 0.935999H206.887V23.064H203.887V12H201.895V22.032H198.943V1.368H201.895V9.456H203.887V0.935999ZM210.005 11.28H229.973V13.776H210.005V11.28ZM219.941 14.976C224.717 14.976 227.621 16.44 227.621 19.032C227.621 21.624 224.717 23.088 219.941 23.088C215.165 23.088 212.285 21.624 212.285 19.032C212.285 16.44 215.165 14.976 219.941 14.976ZM219.941 17.376C216.989 17.376 215.477 17.904 215.477 19.032C215.477 20.184 216.989 20.688 219.941 20.688C222.893 20.688 224.405 20.184 224.405 19.032C224.405 17.904 222.893 17.376 219.941 17.376ZM219.989 1.44C224.861 1.44 228.005 3.096 228.005 5.76C228.005 8.472 224.861 10.104 219.989 10.104C215.141 10.104 211.997 8.472 211.997 5.76C211.997 3.096 215.141 1.44 219.989 1.44ZM219.989 3.864C216.989 3.864 215.261 4.512 215.261 5.76C215.261 7.056 216.989 7.68 219.989 7.68C223.013 7.68 224.741 7.056 224.741 5.76C224.741 4.512 223.013 3.864 219.989 3.864ZM256.432 6.504L255.376 8.904C251.584 8.448 248.872 7.128 247.48 5.136C246.064 7.128 243.328 8.448 239.56 8.904L238.504 6.504C243.592 6 245.848 3.912 245.848 1.608V1.152H249.088V1.608C249.088 3.912 251.344 6 256.432 6.504ZM242.968 19.296V20.52H255.64V22.896H239.824V17.088H251.944V15.912H239.8V13.584H255.064V19.296H242.968ZM249.064 9.984H257.488V12.456H237.52V9.984H245.896V7.632H249.064V9.984ZM274.094 5.88V4.152H261.902V1.656H277.31V8.256H265.166V10.08H277.838V12.576H261.926V5.88H274.094ZM279.614 14.184V16.728H271.142V23.112H267.974V16.728H259.598V14.184H279.614ZM296.989 17.328V10.632H293.317V8.088H296.989V6.36H293.317V3.84H296.989V0.959999H300.157V17.328H296.989ZM294.877 12.144L293.125 14.592C290.821 13.68 289.261 11.976 288.349 9.864C287.413 12.12 285.733 13.92 283.213 14.856L281.557 12.384C285.205 11.088 286.717 7.992 286.717 4.776V2.208H289.933V4.776C289.933 7.8 291.373 10.824 294.877 12.144ZM288.733 20.16H300.637V22.68H285.565V15.84H288.733V20.16ZM312 11.112C310.488 11.112 309.672 9.912 309.672 7.848C309.672 5.4 310.872 3.552 313.272 2.304L314.088 3.864C312.528 4.704 311.736 5.736 311.736 7.272C311.832 7.248 311.904 7.248 312 7.248C313.032 7.248 313.92 7.944 313.92 9.096C313.92 10.344 313.128 11.112 312 11.112ZM318 11.112C316.488 11.112 315.672 9.912 315.672 7.848C315.672 5.4 316.872 3.552 319.272 2.304L320.088 3.864C318.528 4.704 317.736 5.736 317.736 7.272C317.832 7.248 317.904 7.248 318 7.248C319.032 7.248 319.92 7.944 319.92 9.096C319.92 10.344 319.104 11.112 318 11.112ZM324.149 21V3.216H329.021C334.445 3.216 337.805 6.048 337.805 12.048C337.805 18.024 334.445 21 329.213 21H324.149ZM327.701 18.144H328.805C332.117 18.144 334.181 16.368 334.181 12.048C334.181 7.704 332.117 6.072 328.805 6.072H327.701V18.144ZM340.274 15.384V12.864H346.826V15.384H340.274ZM350.164 21V3.216H356.044C359.692 3.216 362.476 4.296 362.476 7.608C362.476 9.24 361.564 10.92 360.052 11.448V11.568C361.972 12.024 363.388 13.368 363.388 15.768C363.388 19.344 360.412 21 356.5 21H350.164ZM353.716 10.464H355.78C358.036 10.464 359.02 9.552 359.02 8.136C359.02 6.576 357.964 5.952 355.828 5.952H353.716V10.464ZM353.716 18.264H356.188C358.612 18.264 359.932 17.4 359.932 15.552C359.932 13.824 358.636 13.08 356.188 13.08H353.716V18.264ZM373.316 21.336C368.996 21.336 366.404 18.912 366.404 13.008V3.216H369.956V13.32C369.956 17.016 371.252 18.264 373.316 18.264C375.428 18.264 376.772 17.016 376.772 13.32V3.216H380.18V13.008C380.18 18.912 377.66 21.336 373.316 21.336ZM392.086 21.336C387.262 21.336 383.566 18.12 383.566 12.192C383.566 6.336 387.358 2.904 392.086 2.904C394.654 2.904 396.43 4.008 397.582 5.184L395.71 7.44C394.822 6.6 393.814 5.952 392.206 5.952C389.254 5.952 387.19 8.256 387.19 12.072C387.19 15.936 388.966 18.264 392.47 18.264C393.31 18.264 394.174 18.024 394.678 17.592V14.088H391.534V11.184H397.846V19.2C396.646 20.376 394.558 21.336 392.086 21.336ZM409.289 21.336C404.465 21.336 400.769 18.12 400.769 12.192C400.769 6.336 404.561 2.904 409.289 2.904C411.857 2.904 413.633 4.008 414.785 5.184L412.913 7.44C412.025 6.6 411.017 5.952 409.409 5.952C406.457 5.952 404.393 8.256 404.393 12.072C404.393 15.936 406.169 18.264 409.673 18.264C410.513 18.264 411.377 18.024 411.881 17.592V14.088H408.737V11.184H415.049V19.2C413.849 20.376 411.761 21.336 409.289 21.336ZM418.86 21V3.216H429.756V6.192H422.412V10.296H428.652V13.272H422.412V18.024H430.02V21H418.86ZM433.625 21V3.216H439.817C443.537 3.216 446.489 4.536 446.489 8.616C446.489 11.28 445.145 12.936 443.105 13.728L447.257 21H443.297L439.649 14.28H437.177V21H433.625ZM437.177 11.472H439.481C441.761 11.472 443.033 10.512 443.033 8.616C443.033 6.696 441.761 6.048 439.481 6.048H437.177V11.472ZM450.489 10.824L449.673 9.288C451.233 8.424 452.025 7.416 452.025 5.856C451.929 5.88 451.857 5.88 451.761 5.88C450.729 5.88 449.841 5.184 449.841 4.032C449.841 2.808 450.657 2.016 451.761 2.016C453.273 2.016 454.089 3.216 454.089 5.256C454.089 7.728 452.889 9.6 450.489 10.824ZM456.489 10.824L455.673 9.288C457.233 8.424 458.025 7.416 458.025 5.856C457.929 5.88 457.857 5.88 457.761 5.88C456.729 5.88 455.841 5.184 455.841 4.032C455.841 2.808 456.657 2.016 457.761 2.016C459.273 2.016 460.089 3.216 460.089 5.256C460.089 7.728 458.889 9.6 456.489 10.824Z" fill="white"/>
</svg>
