<svg width="373" height="16" viewBox="0 0 373 16" fill="none" xmlns="http://www.w3.org/2000/svg">
<path d="M4.47768 12.182C3.02168 12.182 1.77568 11.594 0.87968 10.656L1.66368 9.774C2.39168 10.544 3.42768 11.048 4.49168 11.048C5.83568 11.048 6.64768 10.376 6.64768 9.368C6.64768 8.318 5.90568 7.982 4.93968 7.548L3.45568 6.904C2.50368 6.498 1.36968 5.77 1.36968 4.272C1.36968 2.69 2.74168 1.542 4.60368 1.542C5.82168 1.542 6.89968 2.06 7.62768 2.816L6.94168 3.642C6.31168 3.054 5.55568 2.676 4.60368 2.676C3.44168 2.676 2.68568 3.264 2.68568 4.188C2.68568 5.182 3.58168 5.56 4.37968 5.896L5.84968 6.526C7.03968 7.044 7.96368 7.744 7.96368 9.27C7.96368 10.894 6.61968 12.182 4.47768 12.182ZM9.8632 12V0.855999H11.1372V3.908L11.0952 5.476C11.7952 4.776 12.5792 4.202 13.6152 4.202C15.2112 4.202 15.9392 5.238 15.9392 7.184V12H14.6652V7.352C14.6652 5.924 14.2312 5.322 13.2232 5.322C12.4392 5.322 11.9072 5.714 11.1372 6.484V12H9.8632ZM21.4331 12.182C19.4171 12.182 17.7931 10.712 17.7931 8.206C17.7931 5.742 19.4591 4.202 21.2231 4.202C23.1551 4.202 24.2471 5.602 24.2471 7.772C24.2471 8.052 24.2191 8.318 24.1911 8.5H19.0671C19.1511 10.124 20.1451 11.16 21.5871 11.16C22.3291 11.16 22.9311 10.936 23.4911 10.558L23.9531 11.398C23.2811 11.832 22.4691 12.182 21.4331 12.182ZM19.0531 7.576H23.1271C23.1271 6.05 22.4271 5.224 21.2371 5.224C20.1591 5.224 19.2071 6.092 19.0531 7.576ZM26.1191 15.206V4.398H27.1691L27.2811 5.266H27.3231C28.0091 4.706 28.8631 4.202 29.7451 4.202C31.7051 4.202 32.7691 5.742 32.7691 8.08C32.7691 10.684 31.2151 12.182 29.4651 12.182C28.7791 12.182 28.0511 11.86 27.3651 11.3L27.3931 12.63V15.206H26.1191ZM29.2551 11.118C30.5151 11.118 31.4391 9.984 31.4391 8.094C31.4391 6.414 30.8791 5.28 29.4371 5.28C28.7931 5.28 28.1351 5.644 27.3931 6.33V10.32C28.0791 10.908 28.7511 11.118 29.2551 11.118ZM34.8007 12V0.855999H36.0747V3.908L36.0327 5.476C36.7327 4.776 37.5167 4.202 38.5527 4.202C40.1487 4.202 40.8767 5.238 40.8767 7.184V12H39.6027V7.352C39.6027 5.924 39.1687 5.322 38.1607 5.322C37.3767 5.322 36.8447 5.714 36.0747 6.484V12H34.8007ZM46.3706 12.182C44.3546 12.182 42.7306 10.712 42.7306 8.206C42.7306 5.742 44.3966 4.202 46.1606 4.202C48.0926 4.202 49.1846 5.602 49.1846 7.772C49.1846 8.052 49.1566 8.318 49.1286 8.5H44.0046C44.0886 10.124 45.0826 11.16 46.5246 11.16C47.2666 11.16 47.8686 10.936 48.4286 10.558L48.8906 11.398C48.2186 11.832 47.4066 12.182 46.3706 12.182ZM43.9906 7.576H48.0646C48.0646 6.05 47.3646 5.224 46.1746 5.224C45.0966 5.224 44.1446 6.092 43.9906 7.576ZM51.0566 12V4.398H52.1066L52.2186 5.784H52.2606C52.7926 4.818 53.5626 4.202 54.4166 4.202C54.7526 4.202 54.9906 4.244 55.2286 4.37L54.9906 5.49C54.7386 5.392 54.5566 5.364 54.2486 5.364C53.6186 5.364 52.8346 5.812 52.3306 7.114V12H51.0566ZM58.9239 12.182C57.0199 12.182 55.7879 10.74 55.7879 8.206C55.7879 5.742 57.3419 4.202 59.0779 4.202C59.9739 4.202 60.5479 4.538 61.2199 5.098L61.1639 3.782V0.855999H62.4239V12H61.3879L61.2759 11.104H61.2339C60.6319 11.692 59.8339 12.182 58.9239 12.182ZM59.2039 11.118C59.9039 11.118 60.5199 10.768 61.1639 10.068V6.078C60.5059 5.504 59.9319 5.28 59.3019 5.28C58.0699 5.28 57.1039 6.456 57.1039 8.192C57.1039 10.026 57.8599 11.118 59.2039 11.118ZM65.2675 5.238L65.0155 2.648L64.9875 1.206H66.3315L66.3035 2.648L66.0515 5.238H65.2675ZM70.5856 12.182C69.5076 12.182 68.4716 11.734 67.7436 11.132L68.3736 10.292C69.0316 10.824 69.7176 11.188 70.6276 11.188C71.6356 11.188 72.1256 10.656 72.1256 9.998C72.1256 9.214 71.2296 8.878 70.3896 8.556C69.3256 8.164 68.1636 7.646 68.1636 6.358C68.1636 5.154 69.1436 4.202 70.7956 4.202C71.7336 4.202 72.5596 4.594 73.1476 5.056L72.5316 5.882C72.0136 5.49 71.4816 5.21 70.8096 5.21C69.8436 5.21 69.3956 5.714 69.3956 6.302C69.3956 7.03 70.1796 7.296 71.0336 7.618C72.1396 8.038 73.3576 8.486 73.3576 9.928C73.3576 11.16 72.3776 12.182 70.5856 12.182ZM78.3893 12V1.724H81.6093C83.6953 1.724 85.1933 2.48 85.1933 4.622C85.1933 6.218 84.2693 7.17 82.8693 7.506L85.5013 12H84.0313L81.5393 7.646H79.6913V12H78.3893ZM79.6913 6.596H81.4133C83.0233 6.596 83.9053 5.952 83.9053 4.622C83.9053 3.264 83.0233 2.788 81.4133 2.788H79.6913V6.596ZM88.873 12.182C87.599 12.182 86.647 11.398 86.647 10.026C86.647 8.374 88.089 7.548 91.323 7.184C91.323 6.204 91.001 5.266 89.755 5.266C88.873 5.266 88.075 5.672 87.473 6.078L86.969 5.196C87.669 4.748 88.747 4.202 89.965 4.202C91.813 4.202 92.597 5.448 92.597 7.324V12H91.547L91.435 11.09H91.393C90.665 11.692 89.811 12.182 88.873 12.182ZM89.237 11.16C89.979 11.16 90.581 10.81 91.323 10.152V8.024C88.761 8.332 87.893 8.962 87.893 9.942C87.893 10.81 88.481 11.16 89.237 11.16ZM95.0253 12V4.398H96.0753L96.1873 5.49H96.2293C96.9573 4.776 97.7413 4.202 98.7773 4.202C100.373 4.202 101.101 5.238 101.101 7.184V12H99.8273V7.352C99.8273 5.924 99.3933 5.322 98.3853 5.322C97.6013 5.322 97.0693 5.714 96.2993 6.484V12H95.0253ZM105.572 12.182C104.494 12.182 103.458 11.734 102.73 11.132L103.36 10.292C104.018 10.824 104.704 11.188 105.614 11.188C106.622 11.188 107.112 10.656 107.112 9.998C107.112 9.214 106.216 8.878 105.376 8.556C104.312 8.164 103.15 7.646 103.15 6.358C103.15 5.154 104.13 4.202 105.782 4.202C106.72 4.202 107.546 4.594 108.134 5.056L107.518 5.882C107 5.49 106.468 5.21 105.796 5.21C104.83 5.21 104.382 5.714 104.382 6.302C104.382 7.03 105.166 7.296 106.02 7.618C107.126 8.038 108.344 8.486 108.344 9.928C108.344 11.16 107.364 12.182 105.572 12.182ZM113.087 12.182C111.225 12.182 109.559 10.726 109.559 8.206C109.559 5.672 111.225 4.202 113.087 4.202C114.949 4.202 116.615 5.672 116.615 8.206C116.615 10.726 114.949 12.182 113.087 12.182ZM113.087 11.118C114.403 11.118 115.299 9.956 115.299 8.206C115.299 6.456 114.403 5.266 113.087 5.266C111.771 5.266 110.889 6.456 110.889 8.206C110.889 9.956 111.771 11.118 113.087 11.118ZM118.623 12V4.398H119.673L119.785 5.504H119.827C120.485 4.776 121.283 4.202 122.193 4.202C123.355 4.202 123.985 4.762 124.293 5.658C125.077 4.804 125.875 4.202 126.799 4.202C128.367 4.202 129.109 5.238 129.109 7.184V12H127.835V7.352C127.835 5.924 127.387 5.322 126.421 5.322C125.833 5.322 125.217 5.7 124.503 6.484V12H123.229V7.352C123.229 5.924 122.781 5.322 121.815 5.322C121.241 5.322 120.597 5.7 119.897 6.484V12H118.623ZM132.788 12L130.674 4.398H131.976L133.11 8.794C133.264 9.522 133.418 10.208 133.558 10.922H133.628C133.796 10.208 133.95 9.508 134.146 8.794L135.322 4.398H136.568L137.758 8.794C137.94 9.522 138.108 10.208 138.29 10.922H138.346C138.514 10.208 138.654 9.522 138.822 8.794L139.942 4.398H141.146L139.102 12H137.562L136.456 7.898C136.26 7.184 136.12 6.484 135.938 5.714H135.868C135.7 6.484 135.546 7.198 135.35 7.926L134.286 12H132.788ZM144.408 12.182C143.134 12.182 142.182 11.398 142.182 10.026C142.182 8.374 143.624 7.548 146.858 7.184C146.858 6.204 146.536 5.266 145.29 5.266C144.408 5.266 143.61 5.672 143.008 6.078L142.504 5.196C143.204 4.748 144.282 4.202 145.5 4.202C147.348 4.202 148.132 5.448 148.132 7.324V12H147.082L146.97 11.09H146.928C146.2 11.692 145.346 12.182 144.408 12.182ZM144.772 11.16C145.514 11.16 146.116 10.81 146.858 10.152V8.024C144.296 8.332 143.428 8.962 143.428 9.942C143.428 10.81 144.016 11.16 144.772 11.16ZM150.56 12V4.398H151.61L151.722 5.784H151.764C152.296 4.818 153.066 4.202 153.92 4.202C154.256 4.202 154.494 4.244 154.732 4.37L154.494 5.49C154.242 5.392 154.06 5.364 153.752 5.364C153.122 5.364 152.338 5.812 151.834 7.114V12H150.56ZM158.904 12.182C156.888 12.182 155.264 10.712 155.264 8.206C155.264 5.742 156.93 4.202 158.694 4.202C160.626 4.202 161.718 5.602 161.718 7.772C161.718 8.052 161.69 8.318 161.662 8.5H156.538C156.622 10.124 157.616 11.16 159.058 11.16C159.8 11.16 160.402 10.936 160.962 10.558L161.424 11.398C160.752 11.832 159.94 12.182 158.904 12.182ZM156.524 7.576H160.598C160.598 6.05 159.898 5.224 158.708 5.224C157.63 5.224 156.678 6.092 156.524 7.576ZM166.833 12V1.724H170.053C172.139 1.724 173.637 2.48 173.637 4.622C173.637 6.218 172.713 7.17 171.313 7.506L173.945 12H172.475L169.983 7.646H168.135V12H166.833ZM168.135 6.596H169.857C171.467 6.596 172.349 5.952 172.349 4.622C172.349 3.264 171.467 2.788 169.857 2.788H168.135V6.596ZM178.537 12.182C176.521 12.182 174.897 10.712 174.897 8.206C174.897 5.742 176.563 4.202 178.327 4.202C180.259 4.202 181.351 5.602 181.351 7.772C181.351 8.052 181.323 8.318 181.295 8.5H176.171C176.255 10.124 177.249 11.16 178.691 11.16C179.433 11.16 180.035 10.936 180.595 10.558L181.057 11.398C180.385 11.832 179.573 12.182 178.537 12.182ZM176.157 7.576H180.231C180.231 6.05 179.531 5.224 178.341 5.224C177.263 5.224 176.311 6.092 176.157 7.576ZM185.211 12.182C184.133 12.182 183.097 11.734 182.369 11.132L182.999 10.292C183.657 10.824 184.343 11.188 185.253 11.188C186.261 11.188 186.751 10.656 186.751 9.998C186.751 9.214 185.855 8.878 185.015 8.556C183.951 8.164 182.789 7.646 182.789 6.358C182.789 5.154 183.769 4.202 185.421 4.202C186.359 4.202 187.185 4.594 187.773 5.056L187.157 5.882C186.639 5.49 186.107 5.21 185.435 5.21C184.469 5.21 184.021 5.714 184.021 6.302C184.021 7.03 184.805 7.296 185.659 7.618C186.765 8.038 187.983 8.486 187.983 9.928C187.983 11.16 187.003 12.182 185.211 12.182ZM189.771 15.206V4.398H190.821L190.933 5.266H190.975C191.661 4.706 192.515 4.202 193.397 4.202C195.357 4.202 196.421 5.742 196.421 8.08C196.421 10.684 194.867 12.182 193.117 12.182C192.431 12.182 191.703 11.86 191.017 11.3L191.045 12.63V15.206H189.771ZM192.907 11.118C194.167 11.118 195.091 9.984 195.091 8.094C195.091 6.414 194.531 5.28 193.089 5.28C192.445 5.28 191.787 5.644 191.045 6.33V10.32C191.731 10.908 192.403 11.118 192.907 11.118ZM201.407 12.182C199.545 12.182 197.879 10.726 197.879 8.206C197.879 5.672 199.545 4.202 201.407 4.202C203.269 4.202 204.935 5.672 204.935 8.206C204.935 10.726 203.269 12.182 201.407 12.182ZM201.407 11.118C202.723 11.118 203.619 9.956 203.619 8.206C203.619 6.456 202.723 5.266 201.407 5.266C200.091 5.266 199.209 6.456 199.209 8.206C199.209 9.956 200.091 11.118 201.407 11.118ZM206.943 12V4.398H207.993L208.105 5.49H208.147C208.875 4.776 209.659 4.202 210.695 4.202C212.291 4.202 213.019 5.238 213.019 7.184V12H211.745V7.352C211.745 5.924 211.311 5.322 210.303 5.322C209.519 5.322 208.987 5.714 208.217 6.484V12H206.943ZM217.49 12.182C216.412 12.182 215.376 11.734 214.648 11.132L215.278 10.292C215.936 10.824 216.622 11.188 217.532 11.188C218.54 11.188 219.03 10.656 219.03 9.998C219.03 9.214 218.134 8.878 217.294 8.556C216.23 8.164 215.068 7.646 215.068 6.358C215.068 5.154 216.048 4.202 217.7 4.202C218.638 4.202 219.464 4.594 220.052 5.056L219.436 5.882C218.918 5.49 218.386 5.21 217.714 5.21C216.748 5.21 216.3 5.714 216.3 6.302C216.3 7.03 217.084 7.296 217.938 7.618C219.044 8.038 220.262 8.486 220.262 9.928C220.262 11.16 219.282 12.182 217.49 12.182ZM225.117 12.182C223.101 12.182 221.477 10.712 221.477 8.206C221.477 5.742 223.143 4.202 224.907 4.202C226.839 4.202 227.931 5.602 227.931 7.772C227.931 8.052 227.903 8.318 227.875 8.5H222.751C222.835 10.124 223.829 11.16 225.271 11.16C226.013 11.16 226.615 10.936 227.175 10.558L227.637 11.398C226.965 11.832 226.153 12.182 225.117 12.182ZM222.737 7.576H226.811C226.811 6.05 226.111 5.224 224.921 5.224C223.843 5.224 222.891 6.092 222.737 7.576ZM235.902 12.182C234.446 12.182 233.2 11.594 232.304 10.656L233.088 9.774C233.816 10.544 234.852 11.048 235.916 11.048C237.26 11.048 238.072 10.376 238.072 9.368C238.072 8.318 237.33 7.982 236.364 7.548L234.88 6.904C233.928 6.498 232.794 5.77 232.794 4.272C232.794 2.69 234.166 1.542 236.028 1.542C237.246 1.542 238.324 2.06 239.052 2.816L238.366 3.642C237.736 3.054 236.98 2.676 236.028 2.676C234.866 2.676 234.11 3.264 234.11 4.188C234.11 5.182 235.006 5.56 235.804 5.896L237.274 6.526C238.464 7.044 239.388 7.744 239.388 9.27C239.388 10.894 238.044 12.182 235.902 12.182ZM244.241 12.182C242.379 12.182 240.713 10.726 240.713 8.206C240.713 5.672 242.379 4.202 244.241 4.202C246.103 4.202 247.769 5.672 247.769 8.206C247.769 10.726 246.103 12.182 244.241 12.182ZM244.241 11.118C245.557 11.118 246.453 9.956 246.453 8.206C246.453 6.456 245.557 5.266 244.241 5.266C242.925 5.266 242.043 6.456 242.043 8.206C242.043 9.956 242.925 11.118 244.241 11.118ZM251.121 12.182C250.169 12.182 249.777 11.566 249.777 10.488V0.855999H251.051V10.572C251.051 10.964 251.219 11.118 251.415 11.118C251.485 11.118 251.541 11.118 251.681 11.09L251.863 12.07C251.681 12.14 251.471 12.182 251.121 12.182ZM255.981 12.182C254.385 12.182 253.671 11.146 253.671 9.214V4.398H254.945V9.06C254.945 10.474 255.365 11.076 256.373 11.076C257.157 11.076 257.703 10.698 258.431 9.788V4.398H259.705V12H258.641L258.543 10.81H258.501C257.787 11.636 257.031 12.182 255.981 12.182ZM264.667 12.182C263.043 12.182 262.497 11.16 262.497 9.648V5.434H261.363V4.468L262.553 4.398L262.707 2.256H263.771V4.398H265.829V5.434H263.771V9.676C263.771 10.614 264.065 11.146 264.947 11.146C265.213 11.146 265.563 11.048 265.815 10.95L266.067 11.902C265.633 12.042 265.129 12.182 264.667 12.182ZM267.551 12V4.398H268.825V12H267.551ZM268.195 2.83C267.691 2.83 267.341 2.494 267.341 1.976C267.341 1.486 267.691 1.15 268.195 1.15C268.699 1.15 269.049 1.486 269.049 1.976C269.049 2.494 268.699 2.83 268.195 2.83ZM274.36 12.182C272.498 12.182 270.832 10.726 270.832 8.206C270.832 5.672 272.498 4.202 274.36 4.202C276.222 4.202 277.888 5.672 277.888 8.206C277.888 10.726 276.222 12.182 274.36 12.182ZM274.36 11.118C275.676 11.118 276.572 9.956 276.572 8.206C276.572 6.456 275.676 5.266 274.36 5.266C273.044 5.266 272.162 6.456 272.162 8.206C272.162 9.956 273.044 11.118 274.36 11.118ZM279.896 12V4.398H280.946L281.058 5.49H281.1C281.828 4.776 282.612 4.202 283.648 4.202C285.244 4.202 285.972 5.238 285.972 7.184V12H284.698V7.352C284.698 5.924 284.264 5.322 283.256 5.322C282.472 5.322 281.94 5.714 281.17 6.484V12H279.896ZM291.838 5.238L291.586 2.648L291.558 1.206H292.902L292.874 2.648L292.622 5.238H291.838ZM294.596 5.238L294.344 2.648L294.302 1.206H295.66L295.632 2.648L295.366 5.238H294.596ZM298.342 12V1.724H300.918C304.068 1.724 305.762 3.572 305.762 6.834C305.762 10.082 304.068 12 300.974 12H298.342ZM299.644 10.936H300.806C303.228 10.936 304.418 9.424 304.418 6.834C304.418 4.23 303.228 2.788 300.806 2.788H299.644V10.936ZM307.198 8.57V7.59H310.782V8.57H307.198ZM312.807 12V1.724H315.859C317.945 1.724 319.387 2.438 319.387 4.244C319.387 5.266 318.841 6.162 317.889 6.47V6.54C319.107 6.778 319.975 7.59 319.975 8.99C319.975 11.006 318.379 12 316.083 12H312.807ZM314.109 6.106H315.635C317.399 6.106 318.113 5.448 318.113 4.412C318.113 3.208 317.287 2.76 315.691 2.76H314.109V6.106ZM314.109 10.964H315.901C317.665 10.964 318.701 10.334 318.701 8.948C318.701 7.674 317.693 7.086 315.901 7.086H314.109V10.964ZM325.648 12.182C323.562 12.182 321.966 11.062 321.966 7.758V1.724H323.268V7.8C323.268 10.278 324.318 11.048 325.648 11.048C327.02 11.048 328.098 10.278 328.098 7.8V1.724H329.344V7.758C329.344 11.062 327.748 12.182 325.648 12.182ZM336.13 12.182C333.442 12.182 331.51 10.208 331.51 6.876C331.51 3.558 333.498 1.542 336.214 1.542C337.642 1.542 338.58 2.186 339.168 2.816L338.468 3.656C337.95 3.11 337.292 2.676 336.242 2.676C334.184 2.676 332.84 4.272 332.84 6.834C332.84 9.424 334.058 11.048 336.27 11.048C336.998 11.048 337.712 10.824 338.118 10.446V7.758H335.948V6.68H339.308V10.992C338.65 11.678 337.516 12.182 336.13 12.182ZM345.783 12.182C343.095 12.182 341.163 10.208 341.163 6.876C341.163 3.558 343.151 1.542 345.867 1.542C347.295 1.542 348.233 2.186 348.821 2.816L348.121 3.656C347.603 3.11 346.945 2.676 345.895 2.676C343.837 2.676 342.493 4.272 342.493 6.834C342.493 9.424 343.711 11.048 345.923 11.048C346.651 11.048 347.365 10.824 347.771 10.446V7.758H345.601V6.68H348.961V10.992C348.303 11.678 347.169 12.182 345.783 12.182ZM351.403 12V1.724H357.325V2.83H352.705V6.05H356.597V7.156H352.705V10.894H357.479V12H351.403ZM359.633 12V1.724H362.853C364.939 1.724 366.437 2.48 366.437 4.622C366.437 6.218 365.513 7.17 364.113 7.506L366.745 12H365.275L362.783 7.646H360.935V12H359.633ZM360.935 6.596H362.657C364.267 6.596 365.149 5.952 365.149 4.622C365.149 3.264 364.267 2.788 362.657 2.788H360.935V6.596ZM368.674 5.238L368.422 2.648L368.394 1.206H369.738L369.71 2.648L369.458 5.238H368.674ZM371.432 5.238L371.18 2.648L371.138 1.206H372.496L372.468 2.648L372.202 5.238H371.432Z" fill="white" fill-opacity="0.51"/>
</svg>
