<svg width="353" height="188" viewBox="0 0 353 188" fill="none" xmlns="http://www.w3.org/2000/svg">
<rect width="353" height="188" rx="25" fill="white"/>
<path d="M128.297 112.86V114.94H118.197V112.86H122.057V111.16H124.697V112.86H128.297ZM121.517 118.82C121.517 119.76 122.257 120.24 123.377 120.24C124.477 120.24 125.237 119.76 125.237 118.82C125.237 117.9 124.477 117.42 123.377 117.42C122.257 117.42 121.517 117.9 121.517 118.82ZM127.677 118.82C127.677 120.82 125.897 122.18 123.377 122.18C120.837 122.18 119.057 120.82 119.057 118.82C119.057 116.84 120.837 115.48 123.377 115.48C125.897 115.48 127.677 116.84 127.677 118.82ZM130.937 127.48V126.24H123.817V127.48H130.937ZM130.937 124.3V122.96H133.537V129.5H121.217V122.96H123.817V124.3H130.937ZM130.897 111.3H133.537V122.28H130.897V120.96H128.497V118.86H130.897V117.32H128.537V115.22H130.897V111.3ZM149.316 127.4V125.76H142.356V127.4H149.316ZM149.316 123.76V122H151.936V129.5H139.736V122H142.356V123.76H149.316ZM141.616 118.66C142.976 118.66 143.956 117.84 143.956 116.46C143.956 115.08 142.976 114.26 141.616 114.26C140.276 114.26 139.296 115.08 139.296 116.46C139.296 117.84 140.276 118.66 141.616 118.66ZM149.296 111.3H151.936V121.2H149.296V117.5H146.376C145.876 119.5 143.996 120.86 141.616 120.86C138.856 120.86 136.776 119.02 136.776 116.46C136.776 113.9 138.856 112.06 141.616 112.06C143.956 112.06 145.836 113.4 146.356 115.36H149.296V111.3ZM163.846 117.38V119.96H171.726V117.38H163.846ZM169.106 125.44H176.146V127.58H159.466V125.44H166.466V122.06H161.226V112.44H163.846V115.3H171.726V112.44H174.326V122.06H169.106V125.44ZM180.584 117.16C180.584 118.66 181.624 119.56 183.004 119.56C184.364 119.56 185.424 118.66 185.424 117.16C185.424 115.66 184.364 114.76 183.004 114.76C181.624 114.76 180.584 115.66 180.584 117.16ZM187.984 117.16C187.984 119.86 185.804 121.84 183.004 121.84C180.184 121.84 178.004 119.86 178.004 117.16C178.004 114.44 180.184 112.48 183.004 112.48C185.804 112.48 187.984 114.44 187.984 117.16ZM183.124 123.32V127.3H193.024V129.4H180.484V123.32H183.124ZM192.364 116.58H194.804V118.74H192.364V124.7H189.724V111.3H192.364V116.58ZM210.634 119.2L208.054 118.9C208.354 117.18 208.434 115.84 208.454 114.74H201.594V112.64H211.054V113.78C211.054 115.06 211.054 116.88 210.634 119.2ZM211.854 119.94L212.014 121.82C208.214 122.52 203.934 122.6 200.774 122.62L200.534 120.52C201.554 120.52 202.694 120.52 203.894 120.5V116.92H206.474V120.4C208.294 120.32 210.134 120.18 211.854 119.94ZM205.854 123.86V127.3H216.074V129.4H203.214V123.86H205.854ZM215.494 116.9H217.694V119.08H215.494V125.08H212.854V111.28H215.494V116.9ZM222.872 119.98V123.3C225.672 123.28 227.992 123.14 230.592 122.7L230.872 124.84C227.872 125.36 225.172 125.48 221.832 125.48H220.172V117.9H226.152V114.96H220.152V112.86H228.852V119.98H222.872ZM231.872 111.28H234.512V129.76H231.872V111.28Z" fill="black" fill-opacity="0.8"/>
<path d="M89.002 146.616V148.596H94.498V146.616H89.002ZM92.242 151.704H96.634V152.508H86.878V151.704H91.246V149.388H88.03V143.892H89.002V145.812H94.498V143.892H95.458V149.388H92.242V151.704ZM99.0811 146.532C99.0811 147.588 99.8731 148.332 100.929 148.332C101.985 148.332 102.777 147.588 102.777 146.532C102.777 145.476 101.985 144.732 100.929 144.732C99.8731 144.732 99.0811 145.476 99.0811 146.532ZM103.737 146.532C103.737 148.092 102.537 149.184 100.929 149.184C99.3211 149.184 98.1211 148.092 98.1211 146.532C98.1211 144.972 99.3211 143.88 100.929 143.88C102.537 143.88 103.737 144.972 103.737 146.532ZM100.557 150.24V152.844H106.749V153.648H99.5731V150.24H100.557ZM106.269 146.4H107.853V147.216H106.269V151.044H105.285V143.124H106.269V146.4ZM114.668 146.1H116.828V143.136H117.824V151.02H116.828V146.904H114.668V146.1ZM115.304 148.632L114.812 149.4C113.612 148.968 112.688 148.068 112.22 146.964C111.752 148.188 110.768 149.184 109.508 149.64L108.992 148.872C110.588 148.296 111.704 146.868 111.704 145.344V144.804H109.304V144H115.052V144.804H112.688V145.332C112.688 146.736 113.744 148.08 115.304 148.632ZM111.932 152.844H118.124V153.648H110.936V150.324H111.932V152.844ZM126.223 147.444L126.331 148.236C124.855 148.536 123.583 148.62 121.327 148.62H120.487V143.844H125.227V144.636H121.471V147.804C123.595 147.804 124.819 147.72 126.223 147.444ZM122.551 150.576V152.94H127.375V150.576H122.551ZM121.591 153.732V149.796H128.347V153.732H121.591ZM129.943 145.752V146.568H128.347V149.22H127.363V143.112H128.347V145.752H129.943ZM139.866 143.136V150.996H138.882V143.136H139.866ZM132.246 146.52C132.246 147.588 133.038 148.332 134.082 148.332C135.15 148.332 135.942 147.588 135.942 146.52C135.942 145.476 135.15 144.732 134.082 144.732C133.038 144.732 132.246 145.476 132.246 146.52ZM136.902 146.52C136.902 148.08 135.69 149.184 134.082 149.184C132.486 149.184 131.286 148.08 131.286 146.52C131.286 144.972 132.486 143.88 134.082 143.88C135.69 143.88 136.902 144.972 136.902 146.52ZM133.926 152.844H140.19V153.648H132.942V150.192H133.926V152.844ZM147.761 148.2L147.857 148.992C146.537 149.22 145.445 149.256 143.297 149.256H142.529V146.064H146.177V144.576H142.493V143.772H147.137V146.82H143.489V148.452C145.481 148.452 146.513 148.404 147.761 148.2ZM143.729 151.128V150.324H150.941V153.9H149.945V151.128H143.729ZM149.945 143.136H150.941V149.748H149.945V147.756H147.845V146.964H149.945V145.524H147.845V144.72H149.945V143.136ZM159.84 152.976V151.524H157.944V152.976H159.84ZM159.84 150.792V149.436H160.752V153.744H157.02V149.436H157.944V150.792H159.84ZM158.736 147.744C159.804 147.744 160.572 147.048 160.572 146.076C160.572 145.104 159.804 144.42 158.736 144.42C157.668 144.42 156.9 145.104 156.9 146.076C156.9 147.048 157.668 147.744 158.736 147.744ZM163.668 146.46H161.484C161.292 147.72 160.212 148.56 158.736 148.56C157.128 148.56 155.964 147.552 155.964 146.076C155.964 144.6 157.128 143.604 158.736 143.604C160.188 143.604 161.268 144.42 161.472 145.656H163.668V143.136H164.664V148.824H163.668V146.46ZM163.8 149.364V150.276C163.8 151.416 164.472 152.592 165.756 153.096L165.264 153.84C164.292 153.432 163.644 152.7 163.32 151.812C162.972 152.688 162.324 153.432 161.388 153.84L160.884 153.096C162.168 152.544 162.84 151.38 162.84 150.276V149.364H163.8ZM174.659 143.124H175.643V153.912H174.659V143.124ZM169.967 143.952C171.563 143.952 172.703 145.416 172.703 147.708C172.703 150 171.563 151.464 169.967 151.464C168.371 151.464 167.231 150 167.231 147.708C167.231 145.416 168.371 143.952 169.967 143.952ZM169.967 144.84C168.911 144.84 168.167 145.968 168.167 147.708C168.167 149.46 168.911 150.588 169.967 150.588C171.011 150.588 171.755 149.46 171.755 147.708C171.755 145.968 171.011 144.84 169.967 144.84ZM186.27 146.1H188.43V143.136H189.426V151.02H188.43V146.904H186.27V146.1ZM186.906 148.632L186.414 149.4C185.214 148.968 184.29 148.068 183.822 146.964C183.354 148.188 182.37 149.184 181.11 149.64L180.594 148.872C182.19 148.296 183.306 146.868 183.306 145.344V144.804H180.906V144H186.654V144.804H184.29V145.332C184.29 146.736 185.346 148.08 186.906 148.632ZM183.534 152.844H189.726V153.648H182.538V150.324H183.534V152.844ZM200.856 148.38L200.376 149.16C199.14 148.728 198.156 147.84 197.664 146.712C197.208 147.936 196.212 148.896 194.94 149.364L194.424 148.596C196.056 148.02 197.148 146.616 197.148 145.104V144.672H194.688V143.88H200.592V144.672H198.156V145.104C198.156 146.544 199.272 147.852 200.856 148.38ZM195.912 150.996V150.204H203.112V153.888H202.128V150.996H195.912ZM202.128 143.124H203.112V149.64H202.128V143.124ZM210.959 149.484H213.143V143.124H214.127V151.32H213.143V150.216H210.959V149.484ZM208.763 144.288C207.743 144.288 207.047 144.744 207.047 145.428C207.047 146.124 207.743 146.58 208.763 146.58C209.783 146.58 210.479 146.124 210.479 145.428C210.479 144.744 209.783 144.288 208.763 144.288ZM208.763 147.312C207.191 147.312 206.111 146.58 206.111 145.428C206.111 144.3 207.191 143.556 208.763 143.556C210.335 143.556 211.415 144.3 211.415 145.428C211.415 146.58 210.335 147.312 208.763 147.312ZM208.379 150.936V148.86C207.311 148.908 206.279 148.92 205.391 148.92L205.259 148.104C207.251 148.104 209.915 148.08 212.195 147.792L212.279 148.5C211.331 148.644 210.335 148.752 209.363 148.812V150.936H208.379ZM207.779 152.844H214.403V153.648H206.795V150.516H207.779V152.844ZM224.182 143.124H225.166V153.912H224.182V143.124ZM219.49 143.952C221.086 143.952 222.226 145.416 222.226 147.708C222.226 150 221.086 151.464 219.49 151.464C217.894 151.464 216.754 150 216.754 147.708C216.754 145.416 217.894 143.952 219.49 143.952ZM219.49 144.84C218.434 144.84 217.69 145.968 217.69 147.708C217.69 149.46 218.434 150.588 219.49 150.588C220.534 150.588 221.278 149.46 221.278 147.708C221.278 145.968 220.534 144.84 219.49 144.84ZM230.645 153V144.192H233.165C235.133 144.192 236.453 144.864 236.453 146.784C236.453 148.644 235.145 149.508 233.213 149.508H231.761V153H230.645ZM231.761 148.608H233.069C234.617 148.608 235.349 148.044 235.349 146.784C235.349 145.512 234.569 145.104 233.021 145.104H231.761V148.608ZM241.551 153.156C239.367 153.156 237.723 151.464 237.723 148.608C237.723 145.764 239.391 144.036 241.623 144.036C242.691 144.036 243.531 144.564 244.035 145.128L243.435 145.848C242.979 145.356 242.391 145.008 241.635 145.008C239.967 145.008 238.863 146.376 238.863 148.572C238.863 150.792 239.919 152.184 241.599 152.184C242.439 152.184 243.075 151.812 243.639 151.2L244.251 151.896C243.555 152.7 242.691 153.156 241.551 153.156ZM247.44 146.616V148.596H252.936V146.616H247.44ZM250.68 151.704H255.072V152.508H245.316V151.704H249.684V149.388H246.468V143.892H247.44V145.812H252.936V143.892H253.896V149.388H250.68V151.704ZM257.519 146.532C257.519 147.588 258.311 148.332 259.367 148.332C260.423 148.332 261.215 147.588 261.215 146.532C261.215 145.476 260.423 144.732 259.367 144.732C258.311 144.732 257.519 145.476 257.519 146.532ZM262.175 146.532C262.175 148.092 260.975 149.184 259.367 149.184C257.759 149.184 256.559 148.092 256.559 146.532C256.559 144.972 257.759 143.88 259.367 143.88C260.975 143.88 262.175 144.972 262.175 146.532ZM258.995 150.24V152.844H265.187V153.648H258.011V150.24H258.995ZM264.707 146.4H266.291V147.216H264.707V151.044H263.723V143.124H264.707V146.4ZM80.3393 164.228L79.9313 165.02C78.2633 164.732 76.6433 163.796 75.9473 162.5C75.2753 163.808 73.6553 164.732 71.9753 165.02L71.5793 164.228C73.5353 163.94 75.4313 162.644 75.4313 161.108V160.508H76.4633V161.108C76.4633 162.608 78.3833 163.94 80.3393 164.228ZM80.8073 166.184L80.8193 167H76.4153V170.9H75.4313V167H71.0873V166.184H80.8073ZM83.0743 164.888L82.7023 164.096C84.6103 163.844 86.3503 162.776 86.3503 161.468V161.456H83.0023V160.664H90.9703V161.456H87.6223V161.468C87.6223 162.776 89.3623 163.844 91.2583 164.096L90.8983 164.888C89.1463 164.624 87.5623 163.76 86.9863 162.512C86.3983 163.76 84.8143 164.624 83.0743 164.888ZM84.3223 167.6V169.844H90.7783V170.648H83.3383V167.6H84.3223ZM82.0903 165.668H91.8583V166.46H87.5503V168.644H86.5663V166.46H82.0903V165.668ZM98.0134 161.048C96.2494 161.048 95.2414 161.456 95.2414 162.176C95.2414 162.896 96.2494 163.304 98.0134 163.304C99.7774 163.304 100.785 162.896 100.785 162.176C100.785 161.456 99.7774 161.048 98.0134 161.048ZM98.0134 164.036C95.6494 164.036 94.2334 163.388 94.2334 162.176C94.2334 160.964 95.6494 160.304 98.0134 160.304C100.377 160.304 101.793 160.964 101.793 162.176C101.793 163.388 100.377 164.036 98.0134 164.036ZM95.3134 168.908V170H101.961V170.768H94.3534V168.188H100.665V167.228H94.3174V166.484H101.637V168.908H95.3134ZM93.1414 164.768H102.885V165.56H93.1414V164.768ZM114.4 161.588V161.468H108.04V160.676H115.372V161.588C115.372 162.452 115.372 163.328 115.072 164.432L114.112 164.324C114.4 163.22 114.4 162.428 114.4 161.588ZM111.7 170.108C113.392 170.108 114.472 169.652 114.472 168.908C114.472 168.14 113.392 167.684 111.7 167.684C110.02 167.684 108.94 168.14 108.94 168.908C108.94 169.652 110.02 170.108 111.7 170.108ZM111.7 166.928C113.992 166.928 115.456 167.66 115.456 168.908C115.456 170.132 113.992 170.876 111.7 170.876C109.408 170.876 107.956 170.132 107.956 168.908C107.956 167.66 109.408 166.928 111.7 166.928ZM111.856 165.14H116.584V165.932H106.9V165.14H110.872V163.076H111.856V165.14ZM122.763 161.348C121.131 161.348 120.015 161.948 120.015 162.896C120.015 163.844 121.131 164.456 122.763 164.456C124.407 164.456 125.523 163.844 125.523 162.896C125.523 161.948 124.407 161.348 122.763 161.348ZM122.763 165.248C120.531 165.248 119.007 164.336 119.007 162.896C119.007 161.456 120.531 160.556 122.763 160.556C125.007 160.556 126.531 161.456 126.531 162.896C126.531 164.336 125.007 165.248 122.763 165.248ZM127.659 166.256V167.06H125.115V170.888H124.119V167.06H121.419V170.888H120.423V167.06H117.915V166.256H127.659ZM132.11 167.672C133.094 167.672 133.802 166.976 133.802 166.016C133.802 165.044 133.094 164.348 132.11 164.348C131.138 164.348 130.43 165.044 130.43 166.016C130.43 166.976 131.138 167.672 132.11 167.672ZM132.11 163.532C133.646 163.532 134.738 164.564 134.738 166.016C134.738 167.48 133.646 168.488 132.11 168.488C130.598 168.488 129.506 167.48 129.506 166.016C129.506 164.564 130.598 163.532 132.11 163.532ZM132.59 160.256V161.852H135.242V162.644H128.894V161.852H131.606V160.256H132.59ZM139.01 164.552V165.38H137.246V170.888H136.262V160.136H137.246V164.552H139.01ZM145.321 165.668H147.877V163.508H145.321V165.668ZM144.349 167.384V161.96H141.385V167.384H144.349ZM147.877 160.124H148.861V170.912H147.877V166.472H145.321V168.164H140.425V161.18H145.321V162.704H147.877V160.124ZM154.352 161.288H159.392C159.392 164.396 157.964 167.132 154.388 168.884L153.86 168.08C156.752 166.7 158.192 164.636 158.396 162.08H154.352V161.288ZM161.564 160.124H162.548V170.888H161.564V160.124ZM172.639 169.952V168.56H167.707V169.952H172.639ZM172.639 167.792V166.424H173.623V170.744H166.735V166.424H167.707V167.792H172.639ZM167.695 164.792C168.763 164.792 169.531 164.096 169.531 163.112C169.531 162.128 168.763 161.444 167.695 161.444C166.627 161.444 165.859 162.128 165.859 163.112C165.859 164.096 166.627 164.792 167.695 164.792ZM172.627 160.136H173.623V165.908H172.627V163.496H170.443C170.251 164.768 169.171 165.608 167.695 165.608C166.087 165.608 164.923 164.6 164.923 163.112C164.923 161.636 166.087 160.628 167.695 160.628C169.147 160.628 170.227 161.444 170.431 162.692H172.627V160.136ZM182.078 162.776V163.616C182.078 165.344 183.146 167.108 184.694 167.852L184.142 168.62C182.966 168.044 182.054 166.868 181.598 165.488C181.142 166.964 180.158 168.212 178.934 168.812L178.382 168.068C179.954 167.3 181.106 165.476 181.106 163.616V162.776H178.67V161.984H181.094V160.316H182.078V161.984H184.466V162.776H182.078ZM188.534 164.552V165.368H186.758V170.888H185.774V160.124H186.758V164.552H188.534ZM195.157 166.484H197.341V160.124H198.325V168.32H197.341V167.216H195.157V166.484ZM192.961 161.288C191.941 161.288 191.245 161.744 191.245 162.428C191.245 163.124 191.941 163.58 192.961 163.58C193.981 163.58 194.677 163.124 194.677 162.428C194.677 161.744 193.981 161.288 192.961 161.288ZM192.961 164.312C191.389 164.312 190.309 163.58 190.309 162.428C190.309 161.3 191.389 160.556 192.961 160.556C194.533 160.556 195.613 161.3 195.613 162.428C195.613 163.58 194.533 164.312 192.961 164.312ZM192.577 167.936V165.86C191.509 165.908 190.477 165.92 189.589 165.92L189.457 165.104C191.449 165.104 194.113 165.08 196.393 164.792L196.477 165.5C195.529 165.644 194.533 165.752 193.561 165.812V167.936H192.577ZM191.977 169.844H198.601V170.648H190.993V167.516H191.977V169.844ZM204.048 160.916C205.728 160.916 206.928 161.936 206.928 163.448C206.928 164.948 205.728 165.98 204.048 165.98C202.38 165.98 201.168 164.948 201.168 163.448C201.168 161.936 202.38 160.916 204.048 160.916ZM204.048 161.756C202.944 161.756 202.128 162.44 202.128 163.448C202.128 164.444 202.944 165.14 204.048 165.14C205.164 165.14 205.968 164.444 205.968 163.448C205.968 162.44 205.164 161.756 204.048 161.756ZM208.344 160.124H209.328V170.912H208.344V160.124ZM200.748 168.548L200.628 167.72C202.584 167.72 205.284 167.708 207.636 167.348L207.72 168.08C205.296 168.524 202.692 168.548 200.748 168.548ZM216.402 163.616V165.596H221.898V163.616H216.402ZM219.642 168.704H224.034V169.508H214.278V168.704H218.646V166.388H215.43V160.892H216.402V162.812H221.898V160.892H222.858V166.388H219.642V168.704ZM226.481 163.532C226.481 164.588 227.273 165.332 228.329 165.332C229.385 165.332 230.177 164.588 230.177 163.532C230.177 162.476 229.385 161.732 228.329 161.732C227.273 161.732 226.481 162.476 226.481 163.532ZM231.137 163.532C231.137 165.092 229.937 166.184 228.329 166.184C226.721 166.184 225.521 165.092 225.521 163.532C225.521 161.972 226.721 160.88 228.329 160.88C229.937 160.88 231.137 161.972 231.137 163.532ZM227.957 167.24V169.844H234.149V170.648H226.973V167.24H227.957ZM233.669 163.4H235.253V164.216H233.669V168.044H232.685V160.124H233.669V163.4ZM242.009 164.72L241.037 164.612C241.289 163.376 241.325 162.452 241.325 161.768H236.933V160.964H242.285V161.528C242.285 162.236 242.285 163.304 242.009 164.72ZM243.029 165.368L243.101 166.088C240.869 166.46 238.289 166.52 236.381 166.52L236.285 165.716C236.969 165.716 237.749 165.704 238.565 165.692V163.364H239.537V165.656C240.713 165.608 241.937 165.512 243.029 165.368ZM238.913 167.492V169.844H245.081V170.648H237.929V167.492H238.913ZM244.733 163.628H246.269V164.444H244.733V168.236H243.749V160.124H244.733V163.628ZM249.004 164.96V167.48C250.768 167.48 252.352 167.396 254.236 167.096L254.332 167.9C252.388 168.224 250.756 168.296 248.908 168.296H248.02V164.168H251.98V161.924H247.984V161.12H252.976V164.96H249.004ZM255.244 160.112H256.228V170.9H255.244V160.112ZM261.754 161.288H266.794C266.794 164.396 265.366 167.132 261.79 168.884L261.262 168.08C264.154 166.7 265.594 164.636 265.798 162.08H261.754V161.288ZM268.966 160.124H269.95V170.888H268.966V160.124ZM280.785 163.124V163.916H273.477V160.352H274.461V163.124H280.785ZM277.017 170.084C278.697 170.084 279.705 169.64 279.705 168.896C279.705 168.128 278.709 167.696 277.017 167.696C275.325 167.696 274.329 168.128 274.329 168.896C274.329 169.64 275.325 170.084 277.017 170.084ZM277.017 166.928C279.309 166.928 280.701 167.636 280.701 168.896C280.701 170.144 279.309 170.852 277.017 170.852C274.725 170.852 273.333 170.144 273.333 168.896C273.333 167.636 274.725 166.928 277.017 166.928ZM272.169 165.164H281.901V165.968H272.169V165.164Z" fill="black" fill-opacity="0.51"/>
<path d="M196.111 17H156.889C148.224 17 141.2 23.9645 141.2 32.5556V71.4444C141.2 80.0355 148.224 87 156.889 87H196.111C204.776 87 211.8 80.0355 211.8 71.4444V32.5556C211.8 23.9645 204.776 17 196.111 17Z" fill="#498BD3" fill-opacity="0.15"/>
<mask id="path-5-inside-1_239_9492" fill="white">
<path d="M156.664 37L175.659 28L194.654 40.75V56.5L181.737 74.5L171.1 76C166.541 70 157.271 57.85 156.664 57.25C156.056 56.65 156.41 43.5 156.664 37Z"/>
</mask>
<path d="M156.664 37L175.659 28L194.654 40.75V56.5L181.737 74.5L171.1 76C166.541 70 157.271 57.85 156.664 57.25C156.056 56.65 156.41 43.5 156.664 37Z" fill="white"/>
<path d="M175.659 28L206.869 -18.4966L180.443 -36.2345L151.681 -22.607L175.659 28ZM156.664 37L132.686 -13.607L102.027 0.919334L100.706 34.8196L156.664 37ZM156.664 57.25L196.003 17.3957L196.003 17.3957L156.664 57.25ZM171.1 76L126.51 109.879L146.386 136.039L178.919 131.451L171.1 76ZM181.737 74.5L189.556 129.951L213.271 126.607L227.235 107.149L181.737 74.5ZM194.654 56.5L240.151 89.149L250.654 74.5136V56.5H194.654ZM194.654 40.75H250.654V10.8932L225.864 -5.74662L194.654 40.75ZM151.681 -22.607L132.686 -13.607L180.641 87.607L199.636 78.607L151.681 -22.607ZM100.706 34.8196C100.567 38.3737 100.396 43.8543 100.344 48.743C100.319 51.0756 100.313 53.9682 100.404 56.6514C100.444 57.8343 100.537 60.1111 100.825 62.689C100.952 63.8332 101.274 66.5215 102.044 69.7979C102.421 71.406 103.196 74.4257 104.647 78.0369C105.67 80.5818 109.157 89.0434 117.324 97.1043L196.003 17.3957C200.47 21.805 203.311 26.0986 204.965 28.9234C206.69 31.8699 207.841 34.4603 208.571 36.2783C209.988 39.8041 210.731 42.7151 211.077 44.1923C211.785 47.207 212.053 49.5449 212.133 50.2594C212.244 51.2602 212.293 51.9896 212.311 52.2838C212.332 52.6245 212.339 52.826 212.339 52.8423C212.34 52.8575 212.332 52.6076 212.329 52.0202C212.326 51.4655 212.329 50.7667 212.337 49.932C212.374 46.4707 212.506 42.1263 212.621 39.1804L100.706 34.8196ZM117.324 97.1043C115.762 95.5633 114.644 94.2657 114.515 94.1171C114.149 93.6969 113.882 93.3766 113.778 93.2511C113.559 92.9867 113.446 92.8432 113.513 92.9279C113.62 93.0621 113.886 93.3988 114.351 93.9957C115.251 95.1518 116.512 96.7876 117.969 98.6863C120.861 102.456 124.261 106.919 126.51 109.879L215.689 42.1212C213.379 39.0808 209.865 34.469 206.831 30.5137C205.324 28.5499 203.869 26.6607 202.718 25.1824C202.157 24.4621 201.563 23.7043 201.029 23.0358C200.777 22.7191 200.397 22.2472 199.973 21.736C199.767 21.487 199.413 21.0638 198.976 20.562C198.776 20.3319 197.603 18.9742 196.003 17.3957L117.324 97.1043ZM178.919 131.451L189.556 129.951L173.917 19.0486L163.28 20.5486L178.919 131.451ZM227.235 107.149L240.151 89.149L149.156 23.851L136.239 41.851L227.235 107.149ZM250.654 56.5V40.75H138.654V56.5H250.654ZM225.864 -5.74662L206.869 -18.4966L144.449 74.4966L163.444 87.2466L225.864 -5.74662Z" fill="white" mask="url(#path-5-inside-1_239_9492)"/>
<path d="M176.5 26L155 35.4545V49.6364C155 62.7545 164.174 75.0218 176.5 78C188.827 75.0218 198 62.7545 198 49.6364V35.4545L176.5 26ZM176.5 35.4545C178.401 35.4545 180.224 36.2016 181.568 37.5314C182.912 38.8612 183.667 40.6648 183.667 42.5455C183.667 44.4261 182.912 46.2297 181.568 47.5595C180.224 48.8893 178.401 49.6364 176.5 49.6364C174.6 49.6364 172.777 48.8893 171.433 47.5595C170.089 46.2297 169.334 44.4261 169.334 42.5455C169.334 40.6648 170.089 38.8612 171.433 37.5314C172.777 36.2016 174.6 35.4545 176.5 35.4545ZM188.755 63.8182C185.861 68.2019 181.536 71.472 176.5 73.0836C171.465 71.472 167.14 68.2019 164.245 63.8182C163.433 62.6364 162.74 61.4545 162.167 60.2018C162.167 56.3018 168.641 53.1109 176.5 53.1109C184.36 53.1109 190.834 56.2309 190.834 60.2018C190.26 61.4545 189.567 62.6364 188.755 63.8182Z" fill="#0E66C8"/>
</svg>
