<svg width="348" height="188" viewBox="0 0 348 188" fill="none" xmlns="http://www.w3.org/2000/svg">
<rect width="348" height="188" rx="25" fill="white"/>
<path d="M108.393 118.66V124.6H105.933V111.64H108.393V116.54H109.873V111.3H112.373V124.96H109.873V118.66H108.393ZM105.073 119.96L105.293 122.04C103.213 122.4 101.393 122.46 98.6931 122.46H97.4131V116.62H101.833V114.86H97.3931V112.8H104.373V118.54H99.9531V120.38C101.913 120.36 103.413 120.26 105.073 119.96ZM102.613 127.3H112.833V129.4H99.9731V123.7H102.613V127.3ZM126.072 119.26L124.732 121.3C122.772 120.66 121.412 119.42 120.612 117.82C119.812 119.58 118.392 120.94 116.312 121.62L114.932 119.56C117.992 118.6 119.272 116.28 119.272 113.88V112.14H121.932V114.04C121.932 116.24 123.172 118.36 126.072 119.26ZM120.812 124.68V127.44H127.892V124.68H120.812ZM118.212 129.5V122.62H130.472V129.5H118.212ZM127.832 111.3H130.472V121.82H127.832V116.64H124.472V114.5H127.832V111.3ZM138.05 114.3C137.03 114.3 136.29 114.84 136.29 115.84C136.29 116.8 137.03 117.36 138.05 117.36C139.05 117.36 139.77 116.8 139.77 115.84C139.77 114.84 139.05 114.3 138.05 114.3ZM138.05 119.32C135.69 119.32 133.95 117.86 133.95 115.84C133.95 113.78 135.69 112.34 138.05 112.34C140.39 112.34 142.11 113.78 142.11 115.84C142.11 117.86 140.39 119.32 138.05 119.32ZM142.49 119.84L142.69 121.76C141.63 121.96 140.43 122.12 139.27 122.22V128.28H136.75V122.36C135.53 122.42 134.41 122.42 133.47 122.42L133.19 120.28C135.65 120.28 139.59 120.24 142.49 119.84ZM143.39 123.16V111.62H145.85V128.88H143.39V125.14H140.51V123.16H143.39ZM147.07 111.32H149.57V129.72H147.07V111.32ZM156.908 123.34C158.268 123.34 159.168 121.88 159.168 119.14C159.168 116.42 158.268 114.96 156.908 114.96C155.568 114.96 154.668 116.42 154.668 119.14C154.668 121.88 155.568 123.34 156.908 123.34ZM164.688 111.28H167.328V129.76H164.688V120.06H161.628C161.348 123.58 159.468 125.74 156.908 125.74C154.168 125.74 152.148 123.2 152.148 119.14C152.148 115.1 154.168 112.58 156.908 112.58C159.388 112.58 161.248 114.6 161.608 117.92H164.688V111.28ZM177.918 115.56V123.4C179.638 123.36 181.198 123.26 182.958 122.94L183.158 125.08C180.918 125.5 178.958 125.58 176.598 125.58H175.318V113.42H182.138V115.56H177.918ZM188.098 111.28H190.598V129.72H188.098V120.5H186.438V128.86H183.978V111.64H186.438V118.38H188.098V111.28ZM193.197 119.9H209.837V121.98H193.197V119.9ZM201.477 122.98C205.457 122.98 207.877 124.2 207.877 126.36C207.877 128.52 205.457 129.74 201.477 129.74C197.497 129.74 195.097 128.52 195.097 126.36C195.097 124.2 197.497 122.98 201.477 122.98ZM201.477 124.98C199.017 124.98 197.757 125.42 197.757 126.36C197.757 127.32 199.017 127.74 201.477 127.74C203.937 127.74 205.197 127.32 205.197 126.36C205.197 125.42 203.937 124.98 201.477 124.98ZM201.517 111.7C205.577 111.7 208.197 113.08 208.197 115.3C208.197 117.56 205.577 118.92 201.517 118.92C197.477 118.92 194.857 117.56 194.857 115.3C194.857 113.08 197.477 111.7 201.517 111.7ZM201.517 113.72C199.017 113.72 197.577 114.26 197.577 115.3C197.577 116.38 199.017 116.9 201.517 116.9C204.037 116.9 205.477 116.38 205.477 115.3C205.477 114.26 204.037 113.72 201.517 113.72ZM225.966 119.2L223.386 118.9C223.686 117.18 223.766 115.84 223.786 114.74H216.926V112.64H226.386V113.78C226.386 115.06 226.386 116.88 225.966 119.2ZM227.186 119.94L227.346 121.82C223.546 122.52 219.266 122.6 216.106 122.62L215.866 120.52C216.886 120.52 218.026 120.52 219.226 120.5V116.92H221.806V120.4C223.626 120.32 225.466 120.18 227.186 119.94ZM221.186 123.86V127.3H231.406V129.4H218.546V123.86H221.186ZM230.826 116.9H233.026V119.08H230.826V125.08H228.186V111.28H230.826V116.9ZM238.205 119.98V123.3C241.005 123.28 243.325 123.14 245.925 122.7L246.205 124.84C243.205 125.36 240.505 125.48 237.165 125.48H235.505V117.9H241.485V114.96H235.485V112.86H244.185V119.98H238.205ZM247.205 111.28H249.845V129.76H247.205V111.28Z" fill="black" fill-opacity="0.8"/>
<path d="M90.7111 149.484H92.8951V143.124H93.8791V151.32H92.8951V150.216H90.7111V149.484ZM88.5151 144.288C87.4951 144.288 86.7991 144.744 86.7991 145.428C86.7991 146.124 87.4951 146.58 88.5151 146.58C89.5351 146.58 90.2311 146.124 90.2311 145.428C90.2311 144.744 89.5351 144.288 88.5151 144.288ZM88.5151 147.312C86.9431 147.312 85.8631 146.58 85.8631 145.428C85.8631 144.3 86.9431 143.556 88.5151 143.556C90.0871 143.556 91.1671 144.3 91.1671 145.428C91.1671 146.58 90.0871 147.312 88.5151 147.312ZM88.1311 150.936V148.86C87.0631 148.908 86.0311 148.92 85.1431 148.92L85.0111 148.104C87.0031 148.104 89.6671 148.08 91.9471 147.792L92.0311 148.5C91.0831 148.644 90.0871 148.752 89.1151 148.812V150.936H88.1311ZM87.5311 152.844H94.1551V153.648H86.5471V150.516H87.5311V152.844ZM98.3421 150.672V152.844H104.762V153.648H97.3581V150.672H98.3421ZM98.3661 145.68V147.06H103.598V145.68H98.3661ZM101.474 149.004H105.842V149.808H96.0981V149.004H100.49V147.852H97.3941V143.544H98.3661V144.912H103.598V143.544H104.57V147.852H101.474V149.004ZM112.089 145.08V150.372C112.665 150.36 113.265 150.336 113.853 150.312V145.08H112.089ZM114.813 145.08V150.252C115.377 150.216 115.929 150.168 116.457 150.096L116.529 150.828C114.273 151.188 111.717 151.224 109.821 151.224L109.701 150.396C110.145 150.396 110.625 150.396 111.129 150.384V145.08H109.977V144.288H115.965V145.08H114.813ZM119.889 147.432V148.248H118.113V153.888H117.129V143.136H118.113V147.432H119.889ZM129.704 143.124V148.644H128.72V143.124H129.704ZM122.072 145.908C122.072 146.832 122.852 147.492 123.896 147.492C124.952 147.492 125.72 146.832 125.72 145.908C125.72 144.972 124.952 144.312 123.896 144.312C122.852 144.312 122.072 144.972 122.072 145.908ZM126.68 145.908C126.68 147.324 125.504 148.284 123.896 148.284C122.288 148.284 121.124 147.324 121.124 145.908C121.124 144.48 122.288 143.508 123.896 143.508C125.504 143.508 126.68 144.48 126.68 145.908ZM123.728 152.964H130.064V153.744H122.756V151.044H128.732V149.952H122.732V149.172H129.704V151.776H123.728V152.964ZM143.414 143.124V149.304H142.43V143.124H143.414ZM139.226 147.432V144.6H136.118V147.432H139.226ZM140.186 143.82V148.224H135.158V143.82H140.186ZM143.666 150.792H140.522C140.534 151.824 142.202 152.868 144.05 153.096L143.714 153.852C142.094 153.624 140.654 152.88 140.018 151.884C139.37 152.904 137.882 153.624 136.262 153.852L135.938 153.096C137.774 152.88 139.49 151.86 139.502 150.792H136.358V150.036H139.514V148.992H140.51V150.036H143.666V150.792ZM152.049 148.032V146.292H149.733V148.032H152.049ZM152.973 143.82V148.824H148.797V143.82H149.733V145.512H152.049V143.82H152.973ZM150.165 151.032V150.24H157.401V153.888H156.417V151.032H150.165ZM156.453 143.136H157.401V149.58H156.453V146.736H155.085V149.532H154.149V143.328H155.085V145.932H156.453V143.136ZM167.24 152.952V151.56H162.308V152.952H167.24ZM167.24 150.792V149.424H168.224V153.744H161.336V149.424H162.308V150.792H167.24ZM162.296 147.792C163.364 147.792 164.132 147.096 164.132 146.112C164.132 145.128 163.364 144.444 162.296 144.444C161.228 144.444 160.46 145.128 160.46 146.112C160.46 147.096 161.228 147.792 162.296 147.792ZM167.228 143.136H168.224V148.908H167.228V146.496H165.044C164.852 147.768 163.772 148.608 162.296 148.608C160.688 148.608 159.524 147.6 159.524 146.112C159.524 144.636 160.688 143.628 162.296 143.628C163.748 143.628 164.828 144.444 165.032 145.692H167.228V143.136ZM172.651 145.08V150.372C173.227 150.36 173.827 150.336 174.415 150.312V145.08H172.651ZM175.375 145.08V150.252C175.939 150.216 176.491 150.168 177.019 150.096L177.091 150.828C174.835 151.188 172.279 151.224 170.383 151.224L170.263 150.396C170.707 150.396 171.187 150.396 171.691 150.384V145.08H170.539V144.288H176.527V145.08H175.375ZM180.451 147.432V148.248H178.675V153.888H177.691V143.136H178.675V147.432H180.451ZM190.266 143.124V148.644H189.282V143.124H190.266ZM182.634 145.908C182.634 146.832 183.414 147.492 184.458 147.492C185.514 147.492 186.282 146.832 186.282 145.908C186.282 144.972 185.514 144.312 184.458 144.312C183.414 144.312 182.634 144.972 182.634 145.908ZM187.242 145.908C187.242 147.324 186.066 148.284 184.458 148.284C182.85 148.284 181.686 147.324 181.686 145.908C181.686 144.48 182.85 143.508 184.458 143.508C186.066 143.508 187.242 144.48 187.242 145.908ZM184.29 152.964H190.626V153.744H183.318V151.044H189.294V149.952H183.294V149.172H190.266V151.776H184.29V152.964ZM201.853 147.156V150.828H200.917V143.328H201.853V146.352H203.293V143.136H204.241V151.14H203.293V147.156H201.853ZM200.305 148.428L200.401 149.22C199.033 149.484 197.905 149.544 196.357 149.544H195.649V146.376H198.721V144.852H195.625V144.06H199.669V147.12H196.597V148.74C198.001 148.74 199.045 148.68 200.305 148.428ZM198.205 152.844H204.553V153.648H197.221V150.42H198.205V152.844ZM212.484 148.02L211.968 148.8C210.78 148.368 209.856 147.504 209.376 146.412C208.932 147.636 207.972 148.572 206.7 149.04L206.196 148.26C207.828 147.696 208.872 146.304 208.872 144.732V143.592H209.844V144.768C209.844 146.196 210.924 147.504 212.484 148.02ZM209.028 150.672V152.952H214.104V150.672H209.028ZM208.068 153.744V149.88H215.064V153.744H208.068ZM214.068 143.136H215.064V149.328H214.068V146.052H211.728V145.248H214.068V143.136ZM219.947 144.564C219.095 144.564 218.483 145.068 218.483 145.8C218.483 146.52 219.095 147.036 219.947 147.036C220.799 147.036 221.399 146.52 221.399 145.8C221.399 145.068 220.799 144.564 219.947 144.564ZM219.947 147.78C218.591 147.78 217.607 146.964 217.607 145.8C217.607 144.624 218.591 143.82 219.947 143.82C221.291 143.82 222.287 144.624 222.287 145.8C222.287 146.964 221.291 147.78 219.947 147.78ZM222.695 148.332L222.767 149.052C222.011 149.208 221.183 149.292 220.367 149.34V153.024H219.431V149.4C218.615 149.436 217.835 149.436 217.211 149.436L217.091 148.608C218.567 148.608 220.955 148.596 222.695 148.332ZM223.379 150.192V143.388H224.303V153.336H223.379V150.96H221.363V150.192H223.379ZM225.407 143.136H226.355V153.888H225.407V143.136ZM231.154 150.588C232.174 150.588 232.894 149.46 232.894 147.708C232.894 145.968 232.174 144.84 231.154 144.84C230.122 144.84 229.402 145.968 229.402 147.708C229.402 149.46 230.122 150.588 231.154 150.588ZM236.158 143.124H237.142V153.912H236.158V148.032H233.818C233.722 150.144 232.654 151.464 231.154 151.464C229.582 151.464 228.466 150 228.466 147.708C228.466 145.416 229.582 143.952 231.154 143.952C232.606 143.952 233.662 145.212 233.818 147.228H236.158V143.124ZM246.461 147.972V146.196H243.413V147.972H246.461ZM247.421 143.808V148.764H242.441V143.808H243.413V145.428H246.461V143.808H247.421ZM246.929 153.108C248.513 153.108 249.485 152.652 249.485 151.884C249.485 151.116 248.513 150.672 246.929 150.672C245.321 150.672 244.361 151.116 244.361 151.884C244.361 152.652 245.321 153.108 246.929 153.108ZM246.929 149.88C249.113 149.88 250.469 150.612 250.469 151.884C250.469 153.156 249.113 153.888 246.929 153.888C244.733 153.888 243.377 153.156 243.377 151.884C243.377 150.612 244.733 149.88 246.929 149.88ZM250.349 145.836H251.945V146.652H250.349V149.604H249.365V143.124H250.349V145.836ZM256.876 145.044V146.412C256.876 148.236 258.172 150.096 259.756 150.768L259.204 151.56C257.956 150.984 256.9 149.748 256.384 148.272C255.892 149.844 254.836 151.2 253.612 151.824L253.036 151.032C254.584 150.3 255.892 148.272 255.892 146.412V145.044H253.396V144.228H259.408V145.044H256.876ZM260.86 143.136H261.844V153.888H260.86V143.136ZM61.5532 163.34C61.5532 164.348 62.3692 165.044 63.4612 165.044C64.5892 165.044 65.3932 164.348 65.3932 163.34C65.3932 162.344 64.5892 161.66 63.4612 161.66C62.3692 161.66 61.5532 162.344 61.5532 163.34ZM63.9532 165.848V167.672C64.9972 167.612 66.0652 167.528 67.0612 167.372L67.1452 168.104C64.7212 168.548 62.1172 168.572 60.1732 168.572L60.0532 167.744C60.9172 167.744 61.9132 167.744 62.9692 167.708V165.848C61.5772 165.668 60.5932 164.696 60.5932 163.34C60.5932 161.84 61.8052 160.82 63.4612 160.82C65.1532 160.82 66.3532 161.84 66.3532 163.34C66.3532 164.696 65.3812 165.68 63.9532 165.848ZM67.7692 160.112H68.7532V170.912H67.7692V160.112ZM77.2603 165.332L76.7923 166.1C75.5683 165.704 74.6443 164.852 74.1883 163.784C73.7323 165.008 72.7603 165.968 71.4763 166.424L70.9723 165.644C72.5923 165.08 73.6723 163.688 73.6723 162.14V161.72H71.2603V160.928H77.0323V161.72H74.6563V162.14C74.6563 163.544 75.6763 164.804 77.2603 165.332ZM75.9523 170.096C77.5363 170.096 78.5083 169.652 78.5083 168.884C78.5083 168.128 77.5363 167.684 75.9523 167.684C74.3443 167.684 73.3843 168.128 73.3843 168.884C73.3843 169.652 74.3443 170.096 75.9523 170.096ZM75.9523 166.904C78.1363 166.904 79.4923 167.636 79.4923 168.884C79.4923 170.144 78.1363 170.876 75.9523 170.876C73.7443 170.876 72.4003 170.144 72.4003 168.884C72.4003 167.636 73.7443 166.904 75.9523 166.904ZM79.3723 162.848H80.9683V163.676H79.3723V166.628H78.3883V160.136H79.3723V162.848ZM85.2153 167.672C86.1993 167.672 86.9073 166.976 86.9073 166.016C86.9073 165.044 86.1993 164.348 85.2153 164.348C84.2433 164.348 83.5353 165.044 83.5353 166.016C83.5353 166.976 84.2433 167.672 85.2153 167.672ZM85.2153 163.532C86.7513 163.532 87.8433 164.564 87.8433 166.016C87.8433 167.48 86.7513 168.488 85.2153 168.488C83.7033 168.488 82.6113 167.48 82.6113 166.016C82.6113 164.564 83.7033 163.532 85.2153 163.532ZM85.6953 160.256V161.852H88.3473V162.644H81.9993V161.852H84.7113V160.256H85.6953ZM92.1153 164.552V165.38H90.3513V170.888H89.3673V160.136H90.3513V164.552H92.1153ZM101.726 165.284V166.088H94.3344V161.108H101.618V161.924H95.3064V165.284H101.726ZM93.0864 168.62H102.854V169.436H93.0864V168.62ZM104.401 172.28L104.137 171.632C104.893 171.296 105.337 170.708 105.337 170C105.289 170.012 105.253 170.012 105.205 170.012C104.785 170.012 104.401 169.748 104.401 169.244C104.401 168.776 104.785 168.476 105.229 168.476C105.805 168.476 106.153 168.968 106.153 169.772C106.153 170.924 105.481 171.824 104.401 172.28ZM111.661 161.276V167.312C112.813 167.3 113.893 167.228 115.141 166.976L115.273 167.804C113.869 168.092 112.669 168.164 111.373 168.164H110.689V161.276H111.661ZM116.077 163.736V160.388H117.013V170.348H116.077V164.552H113.677V163.736H116.077ZM118.369 160.112H119.305V170.888H118.369V160.112ZM129.84 165.932V166.724H122.448V161.06H129.732V161.852H123.444V163.448H129.492V164.228H123.444V165.932H129.84ZM121.188 168.692H130.956V169.496H121.188V168.692ZM135.707 161.42C134.663 161.42 133.931 161.972 133.931 162.776C133.931 163.604 134.663 164.144 135.707 164.144C136.751 164.144 137.483 163.604 137.483 162.776C137.483 161.972 136.751 161.42 135.707 161.42ZM135.707 164.9C134.111 164.9 133.007 164.048 133.007 162.776C133.007 161.516 134.111 160.664 135.707 160.664C137.303 160.664 138.407 161.516 138.407 162.776C138.407 164.048 137.303 164.9 135.707 164.9ZM139.283 165.44L139.343 166.172C138.287 166.352 137.207 166.46 136.151 166.52V170.564H135.167V166.568C134.147 166.604 133.175 166.616 132.323 166.616L132.203 165.788C134.231 165.788 136.943 165.776 139.283 165.44ZM140.099 160.136H141.083V170.9H140.099V168.248H137.663V167.48H140.099V160.136ZM144.166 164.492L150.838 164.204C150.862 163.64 150.862 163.088 150.862 162.536V162.02H144.442V161.216H151.822V162.536C151.822 164.132 151.822 165.584 151.354 167.792L150.382 167.696C150.622 166.664 150.742 165.776 150.802 164.948L144.31 165.308L144.166 164.492ZM143.29 168.584H153.022V169.388H143.29V168.584ZM165.629 165.284V166.088H158.237V161.108H165.521V161.924H159.209V165.284H165.629ZM156.989 168.62H166.757V169.436H156.989V168.62ZM169.444 164.984V167.48C171.4 167.48 172.792 167.408 174.4 167.096L174.508 167.912C172.828 168.212 171.388 168.296 169.336 168.296H168.484V164.18H172.348V161.924H168.448V161.12H173.32V164.984H169.444ZM178.096 164.396V165.224H176.332V170.9H175.348V160.112H176.332V164.396H178.096ZM186.903 160.124H187.887V170.912H186.903V160.124ZM182.211 160.952C183.807 160.952 184.947 162.416 184.947 164.708C184.947 167 183.807 168.464 182.211 168.464C180.615 168.464 179.475 167 179.475 164.708C179.475 162.416 180.615 160.952 182.211 160.952ZM182.211 161.84C181.155 161.84 180.411 162.968 180.411 164.708C180.411 166.46 181.155 167.588 182.211 167.588C183.255 167.588 183.999 166.46 183.999 164.708C183.999 162.968 183.255 161.84 182.211 161.84ZM190.118 168.644H199.874V169.46H190.118V168.644ZM191.27 160.904H192.242V162.872H197.738V160.904H198.698V166.508H191.27V160.904ZM192.242 163.664V165.704H197.738V163.664H192.242ZM207.681 162.044V163.412C207.681 165.236 208.977 167.096 210.561 167.768L210.009 168.56C208.761 167.984 207.705 166.748 207.189 165.272C206.697 166.844 205.641 168.2 204.417 168.824L203.841 168.032C205.389 167.3 206.697 165.272 206.697 163.412V162.044H204.201V161.228H210.213V162.044H207.681ZM211.665 160.136H212.649V170.888H211.665V160.136ZM220.628 162.92H222.752V160.136H223.748V166.544H222.752V163.724H220.628V162.92ZM221.228 165.368L220.736 166.136C219.536 165.704 218.612 164.816 218.144 163.712C217.688 164.96 216.692 165.968 215.432 166.448L214.916 165.668C216.524 165.08 217.628 163.628 217.628 162.08V161.708H215.228V160.916H220.976V161.708H218.612V162.08C218.612 163.46 219.668 164.816 221.228 165.368ZM220.196 170.12C221.816 170.12 222.8 169.664 222.8 168.884C222.8 168.104 221.816 167.636 220.196 167.636C218.576 167.636 217.592 168.104 217.592 168.884C217.592 169.664 218.576 170.12 220.196 170.12ZM220.196 166.88C222.404 166.88 223.784 167.612 223.784 168.884C223.784 170.156 222.404 170.888 220.196 170.888C217.988 170.888 216.608 170.156 216.608 168.884C216.608 167.612 217.988 166.88 220.196 166.88ZM232.334 165.032V163.292H230.018V165.032H232.334ZM233.258 160.82V165.824H229.082V160.82H230.018V162.512H232.334V160.82H233.258ZM230.45 168.032V167.24H237.686V170.888H236.702V168.032H230.45ZM236.738 160.136H237.686V166.58H236.738V163.736H235.37V166.532H234.434V160.328H235.37V162.932H236.738V160.136ZM247.525 169.952V168.56H242.593V169.952H247.525ZM247.525 167.792V166.424H248.509V170.744H241.621V166.424H242.593V167.792H247.525ZM242.581 164.792C243.649 164.792 244.417 164.096 244.417 163.112C244.417 162.128 243.649 161.444 242.581 161.444C241.513 161.444 240.745 162.128 240.745 163.112C240.745 164.096 241.513 164.792 242.581 164.792ZM247.513 160.136H248.509V165.908H247.513V163.496H245.329C245.137 164.768 244.057 165.608 242.581 165.608C240.973 165.608 239.809 164.6 239.809 163.112C239.809 161.636 240.973 160.628 242.581 160.628C244.033 160.628 245.113 161.444 245.317 162.692H247.513V160.136ZM262.184 160.124V166.304H261.2V160.124H262.184ZM257.996 164.432V161.6H254.888V164.432H257.996ZM258.956 160.82V165.224H253.928V160.82H258.956ZM262.436 167.792H259.292C259.304 168.824 260.972 169.868 262.82 170.096L262.484 170.852C260.864 170.624 259.424 169.88 258.788 168.884C258.14 169.904 256.652 170.624 255.032 170.852L254.708 170.096C256.544 169.88 258.26 168.86 258.272 167.792H255.128V167.036H258.284V165.992H259.28V167.036H262.436V167.792ZM268.167 168.32V167.528H275.619V170.888H274.635V168.32H268.167ZM269.343 162.368V163.616H274.575V162.368H269.343ZM272.451 165.68H276.819V166.484H267.075V165.68H271.467V164.396H268.371V160.376H269.343V161.6H274.575V160.376H275.547V164.396H272.451V165.68ZM287.87 165.452V166.256H283.478V170.9H282.482V166.256H278.138V165.452H285.278C285.614 163.904 285.614 162.764 285.614 161.756V161.612H279.35V160.82H286.574V161.756C286.574 162.764 286.574 163.904 286.274 165.452H287.87Z" fill="black" fill-opacity="0.51"/>
<path d="M194.59 17H153.285C144.161 17 136.764 23.9645 136.764 32.5556V71.4444C136.764 80.0355 144.161 87 153.285 87H194.59C203.714 87 211.111 80.0355 211.111 71.4444V32.5556C211.111 23.9645 203.714 17 194.59 17Z" fill="#E4EEF9"/>
<path d="M172.954 29.9908L159.704 34.9596C157.982 35.6221 156.833 37.2563 156.833 39.1113V49.4904C156.833 60.1567 163.745 70.1825 173.241 73.23C174.058 73.495 174.942 73.495 175.759 73.23C185.255 70.1825 192.167 60.1788 192.167 49.4904V39.1113C192.165 38.2126 191.889 37.3358 191.377 36.5979C190.864 35.86 190.138 35.2962 189.296 34.9817L176.046 30.0129C175.052 29.6154 173.948 29.6154 172.954 29.9908Z" fill="#0E66C8"/>
<path d="M168.5 51.4667L172.467 55.4333L180.4 47.5" stroke="white" stroke-width="4" stroke-linecap="round" stroke-linejoin="round"/>
</svg>
