<svg width="423" height="34" viewBox="0 0 423 34" fill="none" xmlns="http://www.w3.org/2000/svg">
<path d="M0.9745 27V3.288H7.4705C14.7025 3.288 19.1825 7.064 19.1825 15.064C19.1825 23.032 14.7025 27 7.7265 27H0.9745ZM5.7105 23.192H7.1825C11.5985 23.192 14.3505 20.824 14.3505 15.064C14.3505 9.272 11.5985 7.096 7.1825 7.096H5.7105V23.192ZM22.4743 19.512V16.152H31.2103V19.512H22.4743ZM35.662 27V3.288H43.502C48.366 3.288 52.078 4.728 52.078 9.144C52.078 11.32 50.862 13.56 48.846 14.264V14.424C51.406 15.032 53.294 16.824 53.294 20.024C53.294 24.792 49.326 27 44.11 27H35.662ZM40.398 12.952H43.15C46.158 12.952 47.47 11.736 47.47 9.848C47.47 7.768 46.062 6.936 43.214 6.936H40.398V12.952ZM40.398 23.352H43.694C46.926 23.352 48.686 22.2 48.686 19.736C48.686 17.432 46.958 16.44 43.694 16.44H40.398V23.352ZM66.5313 27.448C60.7713 27.448 57.3153 24.216 57.3153 16.344V3.288H62.0513V16.76C62.0513 21.688 63.7793 23.352 66.5313 23.352C69.3473 23.352 71.1393 21.688 71.1393 16.76V3.288H75.6833V16.344C75.6833 24.216 72.3233 27.448 66.5313 27.448ZM91.5568 27.448C85.1248 27.448 80.1968 23.16 80.1968 15.256C80.1968 7.448 85.2528 2.872 91.5568 2.872C94.9808 2.872 97.3488 4.344 98.8848 5.912L96.3888 8.92C95.2048 7.8 93.8608 6.936 91.7168 6.936C87.7808 6.936 85.0288 10.008 85.0288 15.096C85.0288 20.248 87.3968 23.352 92.0688 23.352C93.1888 23.352 94.3408 23.032 95.0128 22.456V17.784H90.8208V13.912H99.2368V24.6C97.6368 26.168 94.8528 27.448 91.5568 27.448ZM114.494 27.448C108.062 27.448 103.134 23.16 103.134 15.256C103.134 7.448 108.19 2.872 114.494 2.872C117.918 2.872 120.286 4.344 121.822 5.912L119.326 8.92C118.142 7.8 116.798 6.936 114.654 6.936C110.718 6.936 107.966 10.008 107.966 15.096C107.966 20.248 110.334 23.352 115.006 23.352C116.126 23.352 117.278 23.032 117.95 22.456V17.784H113.758V13.912H122.174V24.6C120.574 26.168 117.79 27.448 114.494 27.448ZM127.256 27V3.288H141.784V7.256H131.992V12.728H140.312V16.696H131.992V23.032H142.136V27H127.256ZM146.943 27V3.288H155.199C160.159 3.288 164.095 5.048 164.095 10.488C164.095 14.04 162.303 16.248 159.583 17.304L165.119 27H159.839L154.975 18.04H151.679V27H146.943ZM151.679 14.296H154.751C157.791 14.296 159.487 13.016 159.487 10.488C159.487 7.928 157.791 7.064 154.751 7.064H151.679V14.296ZM168.532 33.816L167.54 31.256C170.036 30.328 171.412 28.664 171.38 26.872C171.284 26.872 171.188 26.872 171.092 26.872C169.556 26.872 168.148 25.88 168.148 24.088C168.148 22.392 169.524 21.304 171.188 21.304C173.364 21.304 174.58 23.032 174.58 25.944C174.58 29.688 172.404 32.536 168.532 33.816ZM204.236 10.296V5.048H192.108V10.296H204.236ZM208.364 1.72V13.624H187.948V1.72H208.364ZM211.564 16.76V20.12H200.236V29.752H196.012V20.12H184.876V16.76H211.564ZM218.73 9.432C218.73 11.736 220.298 13.144 222.442 13.144C224.618 13.144 226.218 11.736 226.218 9.432C226.218 7.096 224.618 5.688 222.442 5.688C220.298 5.688 218.73 7.096 218.73 9.432ZM234.73 11.224H230.026C229.226 14.488 226.218 16.728 222.442 16.728C218.09 16.728 214.698 13.656 214.698 9.432C214.698 5.176 218.09 2.104 222.442 2.104C226.282 2.104 229.354 4.408 230.058 7.8H234.73V0.279999H238.954V20.024H234.73V11.224ZM231.274 18.264V19.064C231.274 22.136 234.282 25.464 240.554 26.328L239.018 29.624C234.218 28.92 230.826 26.808 229.066 23.96C227.306 26.776 223.946 28.92 219.21 29.624L217.641 26.328C223.818 25.432 226.954 21.944 226.954 19.064V18.264H231.274ZM257.063 3.8C252.807 3.8 250.791 4.408 250.791 5.72C250.791 7.096 252.807 7.672 257.063 7.672C261.351 7.672 263.367 7.096 263.367 5.72C263.367 4.408 261.351 3.8 257.063 3.8ZM257.063 10.744C250.343 10.744 246.407 8.984 246.407 5.72C246.407 2.488 250.343 0.695999 257.063 0.695999C263.815 0.695999 267.751 2.488 267.751 5.72C267.751 8.984 263.815 10.744 257.063 10.744ZM251.015 24.696V26.36H267.911V29.528H246.823V21.784H262.983V20.216H246.791V17.112H267.143V24.696H251.015ZM243.751 12.152H270.375V15.448H243.751V12.152ZM299.725 11.864L297.805 15.128C294.509 14.232 292.205 12.344 290.893 9.944C289.581 12.632 287.181 14.776 283.661 15.8L281.645 12.504C286.189 11.192 288.333 8.152 288.621 4.984H282.797V1.592H298.701V4.984H292.973C293.261 7.832 295.341 10.648 299.725 11.864ZM290.125 24.376V26.264H306.221V29.464H285.933V21.4H301.197V19.704H285.901V16.536H305.357V24.376H290.125ZM305.357 6.072H309.229V9.496H305.357V15.352H301.133V0.279999H305.357V6.072ZM337.908 2.456V5.624H320.532V2.456H327.092V0.0559978H331.348V2.456H337.908ZM326.036 11.16C326.036 12.376 327.284 12.984 329.236 12.984C331.188 12.984 332.436 12.376 332.436 11.16C332.436 9.912 331.188 9.304 329.236 9.304C327.284 9.304 326.036 9.912 326.036 11.16ZM336.468 11.16C336.468 14.104 333.62 15.96 329.236 15.96C324.884 15.96 322.004 14.104 322.004 11.16C322.004 8.184 324.884 6.328 329.236 6.328C333.62 6.328 336.468 8.184 336.468 11.16ZM328.532 24.824V26.456H344.628V29.528H324.34V21.944H339.604V20.408H324.308V17.336H343.764V24.824H328.532ZM343.764 6.52H347.668V9.976H343.764V16.184H339.54V0.247999H343.764V6.52ZM350.705 3.288H358.673C358.673 11.416 357.937 17.752 352.689 23.576L349.393 21.176C353.297 16.856 354.449 12.6 354.673 6.68H350.705V3.288ZM359.697 3.288H366.801C366.801 11.8 366.129 19.064 360.977 25.432L357.649 23.096C361.553 18.168 362.609 13.24 362.833 6.68H359.697V3.288ZM377.233 11.8V15.288H373.425V29.72H369.169V0.247999H373.425V11.8H377.233ZM389.519 17.272V22.904H396.015V17.272C394.991 17.464 393.903 17.56 392.751 17.56C391.599 17.56 390.543 17.464 389.519 17.272ZM392.751 5.048C388.655 5.048 385.935 6.712 385.935 9.656C385.935 12.568 388.655 14.264 392.751 14.264C396.847 14.264 399.599 12.568 399.599 9.656C399.599 6.712 396.847 5.048 392.751 5.048ZM400.207 22.904H406.127V26.328H379.439V22.904H385.327V15.704C383.087 14.328 381.743 12.216 381.775 9.656C381.775 4.824 386.415 1.72 392.751 1.72C399.119 1.72 403.759 4.824 403.759 9.656C403.759 12.216 402.415 14.328 400.207 15.704V22.904ZM413.164 18.936C412.396 13.784 417.836 11.704 417.836 8.664C417.836 7.064 416.78 6.04 415.116 6.04C413.708 6.04 412.588 6.776 411.564 7.832L408.972 5.464C410.636 3.576 412.908 2.264 415.692 2.264C419.532 2.264 422.348 4.248 422.348 8.344C422.348 12.888 416.78 14.424 417.26 18.936H413.164ZM415.212 27.448C413.548 27.448 412.3 26.104 412.3 24.376C412.3 22.616 413.548 21.304 415.212 21.304C416.908 21.304 418.156 22.616 418.156 24.376C418.156 26.104 416.908 27.448 415.212 27.448Z" fill="black" fill-opacity="0.65"/>
</svg>
