<svg width="219" height="16" viewBox="0 0 219 16" fill="none" xmlns="http://www.w3.org/2000/svg">
<path d="M0.820898 12V1.724H3.3969C6.5469 1.724 8.2409 3.572 8.2409 6.834C8.2409 10.082 6.5469 12 3.4529 12H0.820898ZM2.1229 10.936H3.2849C5.7069 10.936 6.8969 9.424 6.8969 6.834C6.8969 4.23 5.7069 2.788 3.2849 2.788H2.1229V10.936ZM9.67623 8.57V7.59H13.2602V8.57H9.67623ZM15.2857 12V1.724H18.3377C20.4237 1.724 21.8657 2.438 21.8657 4.244C21.8657 5.266 21.3197 6.162 20.3677 6.47V6.54C21.5857 6.778 22.4537 7.59 22.4537 8.99C22.4537 11.006 20.8577 12 18.5617 12H15.2857ZM16.5877 6.106H18.1137C19.8777 6.106 20.5917 5.448 20.5917 4.412C20.5917 3.208 19.7657 2.76 18.1697 2.76H16.5877V6.106ZM16.5877 10.964H18.3797C20.1437 10.964 21.1797 10.334 21.1797 8.948C21.1797 7.674 20.1717 7.086 18.3797 7.086H16.5877V10.964ZM28.1269 12.182C26.0409 12.182 24.4449 11.062 24.4449 7.758V1.724H25.7469V7.8C25.7469 10.278 26.7969 11.048 28.1269 11.048C29.4989 11.048 30.5769 10.278 30.5769 7.8V1.724H31.8229V7.758C31.8229 11.062 30.2269 12.182 28.1269 12.182ZM38.6088 12.182C35.9208 12.182 33.9888 10.208 33.9888 6.876C33.9888 3.558 35.9768 1.542 38.6928 1.542C40.1208 1.542 41.0588 2.186 41.6468 2.816L40.9468 3.656C40.4288 3.11 39.7708 2.676 38.7208 2.676C36.6628 2.676 35.3188 4.272 35.3188 6.834C35.3188 9.424 36.5368 11.048 38.7488 11.048C39.4768 11.048 40.1908 10.824 40.5968 10.446V7.758H38.4268V6.68H41.7868V10.992C41.1288 11.678 39.9948 12.182 38.6088 12.182ZM48.2611 12.182C45.5731 12.182 43.6411 10.208 43.6411 6.876C43.6411 3.558 45.6291 1.542 48.3451 1.542C49.7731 1.542 50.7111 2.186 51.2991 2.816L50.5991 3.656C50.0811 3.11 49.4231 2.676 48.3731 2.676C46.3151 2.676 44.9711 4.272 44.9711 6.834C44.9711 9.424 46.1891 11.048 48.4011 11.048C49.1291 11.048 49.8431 10.824 50.2491 10.446V7.758H48.0791V6.68H51.4391V10.992C50.7811 11.678 49.6471 12.182 48.2611 12.182ZM53.8814 12V1.724H59.8034V2.83H55.1834V6.05H59.0754V7.156H55.1834V10.894H59.9574V12H53.8814ZM62.1119 12V1.724H65.3319C67.4179 1.724 68.9159 2.48 68.9159 4.622C68.9159 6.218 67.9919 7.17 66.5919 7.506L69.2239 12H67.7539L65.2619 7.646H63.4139V12H62.1119ZM63.4139 6.596H65.1359C66.7459 6.596 67.6279 5.952 67.6279 4.622C67.6279 3.264 66.7459 2.788 65.1359 2.788H63.4139V6.596ZM70.6623 14.66L70.3543 13.904C71.2363 13.512 71.7543 12.826 71.7543 12C71.6983 12.014 71.6563 12.014 71.6003 12.014C71.1103 12.014 70.6623 11.706 70.6623 11.118C70.6623 10.572 71.1103 10.222 71.6283 10.222C72.3003 10.222 72.7063 10.796 72.7063 11.734C72.7063 13.078 71.9223 14.128 70.6623 14.66ZM79.1316 12L77.0176 4.398H78.3196L79.4536 8.794C79.6076 9.522 79.7616 10.208 79.9016 10.922H79.9716C80.1396 10.208 80.2936 9.508 80.4896 8.794L81.6656 4.398H82.9116L84.1016 8.794C84.2836 9.522 84.4516 10.208 84.6336 10.922H84.6896C84.8576 10.208 84.9976 9.522 85.1656 8.794L86.2856 4.398H87.4896L85.4456 12H83.9056L82.7996 7.898C82.6036 7.184 82.4636 6.484 82.2816 5.714H82.2116C82.0436 6.484 81.8896 7.198 81.6936 7.926L80.6296 12H79.1316ZM89.1523 12V0.855999H90.4263V3.908L90.3843 5.476C91.0843 4.776 91.8683 4.202 92.9043 4.202C94.5003 4.202 95.2283 5.238 95.2283 7.184V12H93.9543V7.352C93.9543 5.924 93.5203 5.322 92.5123 5.322C91.7283 5.322 91.1963 5.714 90.4263 6.484V12H89.1523ZM99.4062 12.182C98.1322 12.182 97.1802 11.398 97.1802 10.026C97.1802 8.374 98.6222 7.548 101.856 7.184C101.856 6.204 101.534 5.266 100.288 5.266C99.4062 5.266 98.6082 5.672 98.0062 6.078L97.5022 5.196C98.2022 4.748 99.2802 4.202 100.498 4.202C102.346 4.202 103.13 5.448 103.13 7.324V12H102.08L101.968 11.09H101.926C101.198 11.692 100.344 12.182 99.4062 12.182ZM99.7702 11.16C100.512 11.16 101.114 10.81 101.856 10.152V8.024C99.2942 8.332 98.4262 8.962 98.4262 9.942C98.4262 10.81 99.0142 11.16 99.7702 11.16ZM107.747 12.182C106.123 12.182 105.577 11.16 105.577 9.648V5.434H104.443V4.468L105.633 4.398L105.787 2.256H106.851V4.398H108.909V5.434H106.851V9.676C106.851 10.614 107.145 11.146 108.027 11.146C108.293 11.146 108.643 11.048 108.895 10.95L109.147 11.902C108.713 12.042 108.209 12.182 107.747 12.182ZM115.512 12.182C114.238 12.182 113.286 11.398 113.286 10.026C113.286 8.374 114.728 7.548 117.962 7.184C117.962 6.204 117.64 5.266 116.394 5.266C115.512 5.266 114.714 5.672 114.112 6.078L113.608 5.196C114.308 4.748 115.386 4.202 116.604 4.202C118.452 4.202 119.236 5.448 119.236 7.324V12H118.186L118.074 11.09H118.032C117.304 11.692 116.45 12.182 115.512 12.182ZM115.876 11.16C116.618 11.16 117.22 10.81 117.962 10.152V8.024C115.4 8.332 114.532 8.962 114.532 9.942C114.532 10.81 115.12 11.16 115.876 11.16ZM121.664 12V4.398H122.714L122.826 5.784H122.868C123.4 4.818 124.17 4.202 125.024 4.202C125.36 4.202 125.598 4.244 125.836 4.37L125.598 5.49C125.346 5.392 125.164 5.364 124.856 5.364C124.226 5.364 123.442 5.812 122.938 7.114V12H121.664ZM130.007 12.182C127.991 12.182 126.367 10.712 126.367 8.206C126.367 5.742 128.033 4.202 129.797 4.202C131.729 4.202 132.821 5.602 132.821 7.772C132.821 8.052 132.793 8.318 132.765 8.5H127.641C127.725 10.124 128.719 11.16 130.161 11.16C130.903 11.16 131.505 10.936 132.065 10.558L132.527 11.398C131.855 11.832 131.043 12.182 130.007 12.182ZM127.627 7.576H131.701C131.701 6.05 131.001 5.224 129.811 5.224C128.733 5.224 127.781 6.092 127.627 7.576ZM137.95 15.276C137.586 15.276 137.292 15.22 137.054 15.122L137.306 14.1C137.46 14.156 137.684 14.226 137.88 14.226C138.748 14.226 139.294 13.526 139.602 12.588L139.77 12.014L136.718 4.398H138.048L139.602 8.626C139.826 9.284 140.092 10.068 140.33 10.754H140.4C140.61 10.068 140.834 9.298 141.044 8.626L142.402 4.398H143.648L140.778 12.63C140.26 14.128 139.462 15.276 137.95 15.276ZM148.024 12.182C146.162 12.182 144.496 10.726 144.496 8.206C144.496 5.672 146.162 4.202 148.024 4.202C149.886 4.202 151.552 5.672 151.552 8.206C151.552 10.726 149.886 12.182 148.024 12.182ZM148.024 11.118C149.34 11.118 150.236 9.956 150.236 8.206C150.236 6.456 149.34 5.266 148.024 5.266C146.708 5.266 145.826 6.456 145.826 8.206C145.826 9.956 146.708 11.118 148.024 11.118ZM155.772 12.182C154.176 12.182 153.462 11.146 153.462 9.214V4.398H154.736V9.06C154.736 10.474 155.156 11.076 156.164 11.076C156.948 11.076 157.494 10.698 158.222 9.788V4.398H159.496V12H158.432L158.334 10.81H158.292C157.578 11.636 156.822 12.182 155.772 12.182ZM167.757 15.5C165.895 15.5 164.621 14.772 164.621 13.456C164.621 12.812 165.027 12.196 165.741 11.734V11.678C165.335 11.44 165.041 11.034 165.041 10.432C165.041 9.802 165.503 9.298 165.895 9.018V8.962C165.391 8.556 164.901 7.828 164.901 6.918C164.901 5.252 166.217 4.202 167.757 4.202C168.177 4.202 168.555 4.3 168.821 4.398H171.467V5.378H169.913C170.277 5.728 170.529 6.288 170.529 6.946C170.529 8.57 169.297 9.592 167.757 9.592C167.379 9.592 166.959 9.494 166.623 9.326C166.343 9.564 166.133 9.816 166.133 10.236C166.133 10.726 166.441 11.062 167.463 11.062H168.947C170.711 11.062 171.607 11.622 171.607 12.868C171.607 14.282 170.109 15.5 167.757 15.5ZM167.757 8.724C168.625 8.724 169.381 8.024 169.381 6.918C169.381 5.812 168.653 5.14 167.757 5.14C166.861 5.14 166.133 5.798 166.133 6.918C166.133 8.024 166.875 8.724 167.757 8.724ZM167.939 14.632C169.395 14.632 170.361 13.862 170.361 13.064C170.361 12.364 169.815 12.126 168.807 12.126H167.491C167.211 12.126 166.847 12.084 166.511 12C165.965 12.392 165.741 12.84 165.741 13.288C165.741 14.1 166.567 14.632 167.939 14.632ZM175.833 12.182C173.971 12.182 172.305 10.726 172.305 8.206C172.305 5.672 173.971 4.202 175.833 4.202C177.695 4.202 179.361 5.672 179.361 8.206C179.361 10.726 177.695 12.182 175.833 12.182ZM175.833 11.118C177.149 11.118 178.045 9.956 178.045 8.206C178.045 6.456 177.149 5.266 175.833 5.266C174.517 5.266 173.635 6.456 173.635 8.206C173.635 9.956 174.517 11.118 175.833 11.118ZM184.323 12.182C182.461 12.182 180.795 10.726 180.795 8.206C180.795 5.672 182.461 4.202 184.323 4.202C186.185 4.202 187.851 5.672 187.851 8.206C187.851 10.726 186.185 12.182 184.323 12.182ZM184.323 11.118C185.639 11.118 186.535 9.956 186.535 8.206C186.535 6.456 185.639 5.266 184.323 5.266C183.007 5.266 182.125 6.456 182.125 8.206C182.125 9.956 183.007 11.118 184.323 11.118ZM192.449 12.182C190.545 12.182 189.313 10.74 189.313 8.206C189.313 5.742 190.867 4.202 192.603 4.202C193.499 4.202 194.073 4.538 194.745 5.098L194.689 3.782V0.855999H195.949V12H194.913L194.801 11.104H194.759C194.157 11.692 193.359 12.182 192.449 12.182ZM192.729 11.118C193.429 11.118 194.045 10.768 194.689 10.068V6.078C194.031 5.504 193.457 5.28 192.827 5.28C191.595 5.28 190.629 6.456 190.629 8.192C190.629 10.026 191.385 11.118 192.729 11.118ZM203.422 12.182C202.148 12.182 201.196 11.398 201.196 10.026C201.196 8.374 202.638 7.548 205.872 7.184C205.872 6.204 205.55 5.266 204.304 5.266C203.422 5.266 202.624 5.672 202.022 6.078L201.518 5.196C202.218 4.748 203.296 4.202 204.514 4.202C206.362 4.202 207.146 5.448 207.146 7.324V12H206.096L205.984 11.09H205.942C205.214 11.692 204.36 12.182 203.422 12.182ZM203.786 11.16C204.528 11.16 205.13 10.81 205.872 10.152V8.024C203.31 8.332 202.442 8.962 202.442 9.942C202.442 10.81 203.03 11.16 203.786 11.16ZM211.763 12.182C210.139 12.182 209.593 11.16 209.593 9.648V5.434H208.459V4.468L209.649 4.398L209.803 2.256H210.867V4.398H212.925V5.434H210.867V9.676C210.867 10.614 211.161 11.146 212.043 11.146C212.309 11.146 212.659 11.048 212.911 10.95L213.163 11.902C212.729 12.042 212.225 12.182 211.763 12.182ZM215.44 8.906C215.118 6.47 217.596 5.574 217.596 3.908C217.596 3.068 217.078 2.396 216.084 2.396C215.384 2.396 214.768 2.732 214.278 3.292L213.55 2.62C214.194 1.878 215.09 1.332 216.224 1.332C217.806 1.332 218.842 2.298 218.842 3.824C218.842 5.882 216.322 6.708 216.574 8.906H215.44ZM216.042 12.182C215.538 12.182 215.118 11.79 215.118 11.216C215.118 10.628 215.538 10.222 216.042 10.222C216.56 10.222 216.98 10.628 216.98 11.216C216.98 11.79 216.56 12.182 216.042 12.182Z" fill="black" fill-opacity="0.33"/>
</svg>
