<svg width="901" height="358" viewBox="0 0 901 358" fill="none" xmlns="http://www.w3.org/2000/svg">
<path d="M450.457 252.023C519.746 252.023 575.915 195.83 575.915 126.512C575.915 57.1938 519.746 1.00043 450.457 1.00043C381.169 1.00043 325 57.1938 325 126.512C325 195.83 381.169 252.023 450.457 252.023Z" stroke="#0E66C8" stroke-opacity="0.12" stroke-miterlimit="10"/>
<path d="M450.457 250.106C518.687 250.106 573.999 194.771 573.999 126.512C573.999 58.2523 518.687 2.91711 450.457 2.91711C382.227 2.91711 326.916 58.2523 326.916 126.512C326.916 194.771 382.227 250.106 450.457 250.106Z" stroke="#0E66C8" stroke-opacity="0.12" stroke-width="1.0328" stroke-miterlimit="10"/>
<path d="M450.458 248.248C517.662 248.248 572.142 193.745 572.142 126.512C572.142 59.2787 517.662 4.77557 450.458 4.77557C383.254 4.77557 328.774 59.2787 328.774 126.512C328.774 193.745 383.254 248.248 450.458 248.248Z" stroke="#0E66C8" stroke-opacity="0.12" stroke-width="1.0656" stroke-miterlimit="10"/>
<path d="M450.456 246.389C516.634 246.389 570.282 192.718 570.282 126.512C570.282 60.305 516.634 6.63403 450.456 6.63403C384.278 6.63403 330.63 60.305 330.63 126.512C330.63 192.718 384.278 246.389 450.456 246.389Z" stroke="#0E66C8" stroke-opacity="0.21" stroke-width="1.0984" stroke-miterlimit="10"/>
<path d="M450.457 244.53C515.609 244.53 568.425 191.692 568.425 126.511C568.425 61.3314 515.609 8.49255 450.457 8.49255C385.305 8.49255 332.489 61.3314 332.489 126.511C332.489 191.692 385.305 244.53 450.457 244.53Z" stroke="#0E66C8" stroke-opacity="0.21" stroke-width="1.1311" stroke-miterlimit="10"/>
<path d="M450.458 242.672C514.584 242.672 566.568 190.665 566.568 126.511C566.568 62.3578 514.584 10.351 450.458 10.351C386.332 10.351 334.347 62.3578 334.347 126.511C334.347 190.665 386.332 242.672 450.458 242.672Z" stroke="#0E66C8" stroke-opacity="0.21" stroke-width="1.1639" stroke-miterlimit="10"/>
<path d="M450.458 240.755C513.526 240.755 564.652 189.606 564.652 126.511C564.652 63.4163 513.526 12.2677 450.458 12.2677C387.39 12.2677 336.263 63.4163 336.263 126.511C336.263 189.606 387.39 240.755 450.458 240.755Z" stroke="#0E66C8" stroke-opacity="0.34" stroke-width="1.1967" stroke-miterlimit="10"/>
<path d="M450.458 238.896C512.5 238.896 562.795 188.58 562.795 126.511C562.795 64.4427 512.5 14.1262 450.458 14.1262C388.416 14.1262 338.121 64.4427 338.121 126.511C338.121 188.58 388.416 238.896 450.458 238.896Z" stroke="#0E66C8" stroke-opacity="0.34" stroke-width="1.2295" stroke-miterlimit="10"/>
<path d="M450.457 237.038C511.473 237.038 560.936 187.553 560.936 126.511C560.936 65.4691 511.473 15.9846 450.457 15.9846C389.441 15.9846 339.978 65.4691 339.978 126.511C339.978 187.553 389.441 237.038 450.457 237.038Z" stroke="#0E66C8" stroke-opacity="0.34" stroke-width="1.2623" stroke-miterlimit="10"/>
<path d="M450.457 235.179C510.447 235.179 559.079 186.527 559.079 126.511C559.079 66.4954 510.447 17.8431 450.457 17.8431C390.468 17.8431 341.836 66.4954 341.836 126.511C341.836 186.527 390.468 235.179 450.457 235.179Z" stroke="#0E66C8" stroke-opacity="0.46" stroke-width="1.2951" stroke-miterlimit="10"/>
<path d="M450.457 233.264C509.389 233.264 557.163 185.469 557.163 126.512C557.163 67.5551 509.389 19.7609 450.457 19.7609C391.525 19.7609 343.752 67.5551 343.752 126.512C343.752 185.469 391.525 233.264 450.457 233.264Z" stroke="#0E66C8" stroke-opacity="0.46" stroke-width="1.3279" stroke-miterlimit="10"/>
<path d="M450.456 231.404C508.362 231.404 555.304 184.442 555.304 126.511C555.304 68.5804 508.362 21.6183 450.456 21.6183C392.55 21.6183 345.608 68.5804 345.608 126.511C345.608 184.442 392.55 231.404 450.456 231.404Z" stroke="#0E66C8" stroke-opacity="0.46" stroke-width="1.3607" stroke-miterlimit="10"/>
<path d="M450.459 229.545C507.338 229.545 553.449 183.415 553.449 126.511C553.449 69.6068 507.338 23.4767 450.459 23.4767C393.579 23.4767 347.469 69.6068 347.469 126.511C347.469 183.415 393.579 229.545 450.459 229.545Z" stroke="#0E66C8" stroke-opacity="0.58" stroke-width="1.3934" stroke-miterlimit="10"/>
<path d="M450.457 227.688C506.311 227.688 551.589 182.39 551.589 126.512C551.589 70.6342 506.311 25.3363 450.457 25.3363C394.603 25.3363 349.325 70.6342 349.325 126.512C349.325 182.39 394.603 227.688 450.457 227.688Z" stroke="#0E66C8" stroke-opacity="0.58" stroke-width="1.4262" stroke-miterlimit="10"/>
<path d="M450.457 225.771C505.253 225.771 549.673 181.331 549.673 126.512C549.673 71.6928 505.253 27.253 450.457 27.253C395.661 27.253 351.24 71.6928 351.24 126.512C351.24 181.331 395.661 225.771 450.457 225.771Z" stroke="#0E66C8" stroke-opacity="0.58" stroke-width="1.459" stroke-miterlimit="10"/>
<path d="M450.458 223.912C504.227 223.912 547.816 180.305 547.816 126.512C547.816 72.7191 504.227 29.1115 450.458 29.1115C396.688 29.1115 353.099 72.7191 353.099 126.512C353.099 180.305 396.688 223.912 450.458 223.912Z" stroke="#0E66C8" stroke-opacity="0.72" stroke-width="1.4918" stroke-miterlimit="10"/>
<path d="M450.458 222.054C503.202 222.054 545.959 179.278 545.959 126.512C545.959 73.7455 503.202 30.9699 450.458 30.9699C397.715 30.9699 354.957 73.7455 354.957 126.512C354.957 179.278 397.715 222.054 450.458 222.054Z" stroke="#0E66C8" stroke-opacity="0.72" stroke-width="1.5246" stroke-miterlimit="10"/>
<path d="M450.457 220.195C502.175 220.195 544.1 178.252 544.1 126.512C544.1 74.7718 502.175 32.8284 450.457 32.8284C398.739 32.8284 356.814 74.7718 356.814 126.512C356.814 178.252 398.739 220.195 450.457 220.195Z" stroke="#0E66C8" stroke-opacity="0.72" stroke-width="1.5574" stroke-miterlimit="10"/>
<path d="M450.457 218.278C501.116 218.278 542.184 177.193 542.184 126.512C542.184 75.8305 501.116 34.7451 450.457 34.7451C399.797 34.7451 358.729 75.8305 358.729 126.512C358.729 177.193 399.797 218.278 450.457 218.278Z" stroke="#0E66C8" stroke-opacity="0.88" stroke-width="1.5902" stroke-miterlimit="10"/>
<path d="M450.457 216.42C500.091 216.42 540.327 176.167 540.327 126.512C540.327 76.8568 500.091 36.6036 450.457 36.6036C400.824 36.6036 360.588 76.8568 360.588 126.512C360.588 176.167 400.824 216.42 450.457 216.42Z" stroke="#0E66C8" stroke-opacity="0.88" stroke-width="1.623" stroke-miterlimit="10"/>
<path d="M450.458 214.561C499.066 214.561 538.47 175.14 538.47 126.512C538.47 77.8832 499.066 38.462 450.458 38.462C401.85 38.462 362.446 77.8832 362.446 126.512C362.446 175.14 401.85 214.561 450.458 214.561Z" stroke="#0E66C8" stroke-opacity="0.98" stroke-width="1.6557" stroke-miterlimit="10"/>
<path d="M450.459 212.702C498.04 212.702 536.613 174.113 536.613 126.511C536.613 78.9095 498.04 40.3205 450.459 40.3205C402.877 40.3205 364.305 78.9095 364.305 126.511C364.305 174.113 402.877 212.702 450.459 212.702Z" stroke="#0E66C8" stroke-opacity="0.98" stroke-width="1.6885" stroke-miterlimit="10"/>
<path d="M450.457 210.844C497.013 210.844 534.753 173.087 534.753 126.511C534.753 79.9359 497.013 42.179 450.457 42.179C403.902 42.179 366.161 79.9359 366.161 126.511C366.161 173.087 403.902 210.844 450.457 210.844Z" stroke="#0E66C8" stroke-width="1.7213" stroke-miterlimit="10"/>
<path d="M450.457 208.927C495.954 208.927 532.837 172.028 532.837 126.511C532.837 80.9944 495.954 44.0956 450.457 44.0956C404.96 44.0956 368.077 80.9944 368.077 126.511C368.077 172.028 404.96 208.927 450.457 208.927Z" stroke="#0E66C8" stroke-width="1.7541" stroke-miterlimit="10"/>
<path d="M450.458 207.068C494.929 207.068 530.98 171.002 530.98 126.511C530.98 82.0208 494.929 45.9541 450.458 45.9541C405.986 45.9541 369.935 82.0208 369.935 126.511C369.935 171.002 405.986 207.068 450.458 207.068Z" stroke="#0E66C8" stroke-width="1.7869" stroke-miterlimit="10"/>
<path d="M450.456 205.21C493.902 205.21 529.121 169.975 529.121 126.511C529.121 83.0472 493.902 47.8126 450.456 47.8126C407.011 47.8126 371.791 83.0472 371.791 126.511C371.791 169.975 407.011 205.21 450.456 205.21Z" stroke="#0E66C8" stroke-width="1.8197" stroke-miterlimit="10"/>
<path d="M450.457 203.351C492.876 203.351 527.264 168.949 527.264 126.511C527.264 84.0736 492.876 49.6711 450.457 49.6711C408.038 49.6711 373.65 84.0736 373.65 126.511C373.65 168.949 408.038 203.351 450.457 203.351Z" stroke="#0E66C8" stroke-width="1.8525" stroke-miterlimit="10"/>
<path d="M450.459 201.436C491.82 201.436 525.35 167.891 525.35 126.512C525.35 85.1332 491.82 51.5889 450.459 51.5889C409.098 51.5889 375.568 85.1332 375.568 126.512C375.568 167.891 409.098 201.436 450.459 201.436Z" stroke="#0E66C8" stroke-width="1.8852" stroke-miterlimit="10"/>
<path d="M450.457 199.577C490.793 199.577 523.491 166.865 523.491 126.512C523.491 86.1596 490.793 53.4473 450.457 53.4473C410.122 53.4473 377.424 86.1596 377.424 126.512C377.424 166.865 410.122 199.577 450.457 199.577Z" stroke="#0E66C8" stroke-opacity="0.65" stroke-width="1.918" stroke-miterlimit="10"/>
<path d="M450.458 197.717C489.767 197.717 521.634 165.837 521.634 126.511C521.634 87.1848 489.767 55.3047 450.458 55.3047C411.149 55.3047 379.282 87.1848 379.282 126.511C379.282 165.837 411.149 197.717 450.458 197.717Z" stroke="#0E66C8" stroke-opacity="0.65" stroke-width="1.9508" stroke-miterlimit="10"/>
<path d="M450.457 195.859C488.74 195.859 519.775 164.811 519.775 126.511C519.775 88.2112 488.74 57.1631 450.457 57.1631C412.173 57.1631 381.139 88.2112 381.139 126.511C381.139 164.811 412.173 195.859 450.457 195.859Z" stroke="#0E66C8" stroke-opacity="0.65" stroke-width="1.9836" stroke-miterlimit="10"/>
<path d="M450.456 193.943C487.681 193.943 517.858 163.753 517.858 126.512C517.858 89.2709 487.681 59.0809 450.456 59.0809C413.231 59.0809 383.054 89.2709 383.054 126.512C383.054 163.753 413.231 193.943 450.456 193.943Z" stroke="#0E66C8" stroke-opacity="0.65" stroke-width="2.0164" stroke-miterlimit="10"/>
<path d="M450.457 192.085C486.656 192.085 516.001 162.727 516.001 126.512C516.001 90.2973 486.656 60.9395 450.457 60.9395C414.258 60.9395 384.913 90.2973 384.913 126.512C384.913 162.727 414.258 192.085 450.457 192.085Z" stroke="#0E66C8" stroke-opacity="0.65" stroke-width="2.0492" stroke-miterlimit="10"/>
<path d="M450.458 190.226C485.631 190.226 514.144 161.7 514.144 126.512C514.144 91.3236 485.631 62.7979 450.458 62.7979C415.285 62.7979 386.771 91.3236 386.771 126.512C386.771 161.7 415.285 190.226 450.458 190.226Z" stroke="#0E66C8" stroke-opacity="0.65" stroke-width="2.082" stroke-miterlimit="10"/>
<path d="M450.456 188.367C484.603 188.367 512.285 160.674 512.285 126.512C512.285 92.35 484.603 64.6564 450.456 64.6564C416.309 64.6564 388.627 92.35 388.627 126.512C388.627 160.674 416.309 188.367 450.456 188.367Z" stroke="#0E66C8" stroke-opacity="0.65" stroke-width="2.1148" stroke-miterlimit="10"/>
<path d="M450.457 186.509C483.578 186.509 510.428 159.647 510.428 126.512C510.428 93.3764 483.578 66.5148 450.457 66.5148C417.336 66.5148 390.486 93.3764 390.486 126.512C390.486 159.647 417.336 186.509 450.457 186.509Z" stroke="#0E66C8" stroke-opacity="0.65" stroke-width="2.1475" stroke-miterlimit="10"/>
<path d="M450.459 184.592C482.522 184.592 508.514 158.588 508.514 126.512C508.514 94.4349 482.522 68.4315 450.459 68.4315C418.396 68.4315 392.404 94.4349 392.404 126.512C392.404 158.588 418.396 184.592 450.459 184.592Z" stroke="#0E66C8" stroke-opacity="0.65" stroke-width="2.1803" stroke-miterlimit="10"/>
<path d="M450.457 182.733C481.494 182.733 506.655 157.562 506.655 126.512C506.655 95.4613 481.494 70.29 450.457 70.29C419.42 70.29 394.26 95.4613 394.26 126.512C394.26 157.562 419.42 182.733 450.457 182.733Z" stroke="#0E66C8" stroke-opacity="0.65" stroke-width="2.2131" stroke-miterlimit="10"/>
<path d="M450.458 180.875C480.469 180.875 504.798 156.535 504.798 126.512C504.798 96.4877 480.469 72.1485 450.458 72.1485C420.447 72.1485 396.118 96.4877 396.118 126.512C396.118 156.535 420.447 180.875 450.458 180.875Z" stroke="#0E66C8" stroke-opacity="0.65" stroke-width="2.2459" stroke-miterlimit="10"/>
<path d="M450.457 179.016C479.442 179.016 502.939 155.509 502.939 126.511C502.939 97.514 479.442 74.007 450.457 74.007C421.472 74.007 397.975 97.514 397.975 126.511C397.975 155.509 421.472 179.016 450.457 179.016Z" stroke="#0E66C8" stroke-opacity="0.65" stroke-width="2.2787" stroke-miterlimit="10"/>
<path d="M450.456 177.099C478.383 177.099 501.023 154.45 501.023 126.511C501.023 98.5726 478.383 75.9236 450.456 75.9236C422.53 75.9236 399.89 98.5726 399.89 126.511C399.89 154.45 422.53 177.099 450.456 177.099Z" stroke="#0E66C8" stroke-opacity="0.65" stroke-width="2.3115" stroke-miterlimit="10"/>
<path d="M450.457 175.242C477.358 175.242 499.165 153.425 499.165 126.513C499.165 99.6001 477.358 77.7832 450.457 77.7832C423.556 77.7832 401.749 99.6001 401.749 126.513C401.749 153.425 423.556 175.242 450.457 175.242Z" stroke="#0E66C8" stroke-opacity="0.65" stroke-width="2.3443" stroke-miterlimit="10"/>
<path d="M450.458 173.382C476.333 173.382 497.308 152.397 497.308 126.511C497.308 100.625 476.333 79.6406 450.458 79.6406C424.583 79.6406 403.607 100.625 403.607 126.511C403.607 152.397 424.583 173.382 450.458 173.382Z" stroke="#0E66C8" stroke-opacity="0.65" stroke-width="2.377" stroke-miterlimit="10"/>
<path d="M450.456 171.523C475.305 171.523 495.449 151.371 495.449 126.511C495.449 101.652 475.305 81.499 450.456 81.499C425.607 81.499 405.464 101.652 405.464 126.511C405.464 151.371 425.607 171.523 450.456 171.523Z" stroke="#0E66C8" stroke-opacity="0.65" stroke-width="2.4098" stroke-miterlimit="10"/>
<path d="M450.458 169.608C474.249 169.608 493.535 150.313 493.535 126.512C493.535 102.711 474.249 83.4168 450.458 83.4168C426.667 83.4168 407.381 102.711 407.381 126.512C407.381 150.313 426.667 169.608 450.458 169.608Z" stroke="#0E66C8" stroke-opacity="0.65" stroke-width="2.4426" stroke-miterlimit="10"/>
<path d="M450.457 167.749C473.222 167.749 491.676 149.287 491.676 126.512C491.676 103.738 473.222 85.2753 450.457 85.2753C427.692 85.2753 409.238 103.738 409.238 126.512C409.238 149.287 427.692 167.749 450.457 167.749Z" stroke="#0E66C8" stroke-opacity="0.65" stroke-width="2.4754" stroke-miterlimit="10"/>
<path d="M450.458 165.891C472.196 165.891 489.819 148.26 489.819 126.512C489.819 104.764 472.196 87.1338 450.458 87.1338C428.719 87.1338 411.096 104.764 411.096 126.512C411.096 148.26 428.719 165.891 450.458 165.891Z" stroke="#0E66C8" stroke-opacity="0.65" stroke-width="2.5082" stroke-miterlimit="10"/>
<path d="M450.458 164.031C471.171 164.031 487.962 147.233 487.962 126.511C487.962 105.789 471.171 88.9911 450.458 88.9911C429.745 88.9911 412.954 105.789 412.954 126.511C412.954 147.233 429.745 164.031 450.458 164.031Z" stroke="#0E66C8" stroke-opacity="0.65" stroke-width="2.541" stroke-miterlimit="10"/>
<path d="M450.458 162.115C470.113 162.115 486.046 146.175 486.046 126.512C486.046 106.849 470.113 90.9089 450.458 90.9089C430.803 90.9089 414.87 106.849 414.87 126.512C414.87 146.175 430.803 162.115 450.458 162.115Z" stroke="#0E66C8" stroke-opacity="0.65" stroke-width="2.5738" stroke-miterlimit="10"/>
<path d="M450.456 160.256C469.085 160.256 484.187 145.149 484.187 126.512C484.187 107.875 469.085 92.7674 450.456 92.7674C431.828 92.7674 416.726 107.875 416.726 126.512C416.726 145.149 431.828 160.256 450.456 160.256Z" stroke="#0E66C8" stroke-opacity="0.65" stroke-width="2.6066" stroke-miterlimit="10"/>
<path d="M450.457 158.398C468.06 158.398 482.329 144.122 482.329 126.512C482.329 108.902 468.06 94.6259 450.457 94.6259C432.855 94.6259 418.585 108.902 418.585 126.512C418.585 144.122 432.855 158.398 450.457 158.398Z" stroke="#0E66C8" stroke-opacity="0.65" stroke-width="2.6393" stroke-miterlimit="10"/>
<path d="M450.458 156.539C467.034 156.539 480.472 143.096 480.472 126.512C480.472 109.928 467.034 96.4844 450.458 96.4844C433.881 96.4844 420.443 109.928 420.443 126.512C420.443 143.096 433.881 156.539 450.458 156.539Z" stroke="#0E66C8" stroke-opacity="0.65" stroke-width="2.6721" stroke-miterlimit="10"/>
<path d="M450.459 154.681C466.009 154.681 478.615 142.069 478.615 126.512C478.615 110.954 466.009 98.3428 450.459 98.3428C434.908 98.3428 422.302 110.954 422.302 126.512C422.302 142.069 434.908 154.681 450.459 154.681Z" stroke="#0E66C8" stroke-opacity="0.65" stroke-width="2.7049" stroke-miterlimit="10"/>
<path d="M450.458 152.764C464.951 152.764 476.699 141.01 476.699 126.512C476.699 112.013 464.951 100.26 450.458 100.26C435.966 100.26 424.217 112.013 424.217 126.512C424.217 141.01 435.966 152.764 450.458 152.764Z" stroke="#0E66C8" stroke-opacity="0.65" stroke-width="2.7377" stroke-miterlimit="10"/>
<path d="M450.457 150.905C463.923 150.905 474.84 139.984 474.84 126.512C474.84 113.039 463.923 102.118 450.457 102.118C436.99 102.118 426.074 113.039 426.074 126.512C426.074 139.984 436.99 150.905 450.457 150.905Z" stroke="#0E66C8" stroke-opacity="0.65" stroke-width="2.7705" stroke-miterlimit="10"/>
<path d="M450.458 149.047C462.898 149.047 472.983 138.957 472.983 126.512C472.983 114.066 462.898 103.976 450.458 103.976C438.017 103.976 427.932 114.066 427.932 126.512C427.932 138.957 438.017 149.047 450.458 149.047Z" stroke="#0E66C8" stroke-opacity="0.65" stroke-width="2.8033" stroke-miterlimit="10"/>
<path d="M450.458 147.188C461.873 147.188 471.126 137.931 471.126 126.511C471.126 115.092 461.873 105.835 450.458 105.835C439.044 105.835 429.791 115.092 429.791 126.511C429.791 137.931 439.044 147.188 450.458 147.188Z" stroke="#0E66C8" stroke-opacity="0.65" stroke-width="2.8361" stroke-miterlimit="10"/>
<path d="M450.456 145.271C460.812 145.271 469.208 136.872 469.208 126.512C469.208 116.151 460.812 107.752 450.456 107.752C440.099 107.752 431.704 116.151 431.704 126.512C431.704 136.872 440.099 145.271 450.456 145.271Z" stroke="#0E66C8" stroke-opacity="0.65" stroke-width="2.8689" stroke-miterlimit="10"/>
<path d="M450.457 143.413C459.787 143.413 467.351 135.846 467.351 126.511C467.351 117.177 459.787 109.61 450.457 109.61C441.126 109.61 433.562 117.177 433.562 126.511C433.562 135.846 441.126 143.413 450.457 143.413Z" stroke="#0E66C8" stroke-opacity="0.65" stroke-width="2.9016" stroke-miterlimit="10"/>
<path d="M450.457 141.555C458.762 141.555 465.493 134.82 465.493 126.512C465.493 118.205 458.762 111.47 450.457 111.47C442.153 111.47 435.421 118.205 435.421 126.512C435.421 134.82 442.153 141.555 450.457 141.555Z" stroke="#0E66C8" stroke-opacity="0.65" stroke-width="2.9344" stroke-miterlimit="10"/>
<path d="M450.458 139.695C457.736 139.695 463.636 133.793 463.636 126.511C463.636 119.23 457.736 113.327 450.458 113.327C443.18 113.327 437.279 119.23 437.279 126.511C437.279 133.793 443.18 139.695 450.458 139.695Z" stroke="#0E66C8" stroke-opacity="0.65" stroke-width="2.9672" stroke-miterlimit="10"/>
<path d="M450.458 137.779C456.678 137.779 461.72 132.734 461.72 126.511C461.72 120.288 456.678 115.244 450.458 115.244C444.237 115.244 439.195 120.288 439.195 126.511C439.195 132.734 444.237 137.779 450.458 137.779Z" stroke="#0E66C8" stroke-opacity="0.65" stroke-width="3" stroke-miterlimit="10"/>
<path d="M450.507 201.147C491.815 201.147 525.303 167.66 525.303 126.352C525.303 85.043 491.815 51.5558 450.507 51.5558C409.198 51.5558 375.711 85.043 375.711 126.352C375.711 167.66 409.198 201.147 450.507 201.147Z" fill="#0E66C8"/>
<path d="M390.898 336.968V338.024H397.546V338.768H389.938V336.272H396.25V335.384H389.902V334.652H397.222V336.968H390.898ZM392.254 329.168V331.22H394.93V329.168H392.254ZM394.09 333.008H398.458V333.8H388.726V333.008H393.106V331.976H389.674V331.22H391.27V329.168H389.638V328.412H397.534V329.168H395.914V331.22H397.498V331.976H394.09V333.008ZM401.301 329.96V335.42C403.209 335.42 404.469 335.348 405.921 335.072L406.041 335.888C404.481 336.176 403.185 336.248 401.145 336.248H400.317V329.144H405.213V329.96H401.301ZM407.661 328.124H408.645V338.912H407.661V332.84H404.577V332.024H407.661V328.124ZM418.352 330.008V329.132H412.04V328.436H419.324V330.68H413.036V331.604H419.516V332.312H412.064V330.008H418.352ZM412.976 337.04V338.036H419.696V338.744H412.004V336.356H418.388V335.456H411.98V334.748H419.36V337.04H412.976ZM410.816 333.128H420.572V333.872H410.816V333.128ZM428.379 330.044V331.412C428.379 333.236 429.675 335.096 431.259 335.768L430.707 336.56C429.459 335.984 428.403 334.748 427.887 333.272C427.395 334.844 426.339 336.2 425.115 336.824L424.539 336.032C426.087 335.3 427.395 333.272 427.395 331.412V330.044H424.899V329.228H430.911V330.044H428.379ZM432.363 328.136H433.347V338.888H432.363V328.136ZM441.326 330.92H443.45V328.136H444.446V334.544H443.45V331.724H441.326V330.92ZM441.926 333.368L441.434 334.136C440.234 333.704 439.31 332.816 438.842 331.712C438.386 332.96 437.39 333.968 436.13 334.448L435.614 333.668C437.222 333.08 438.326 331.628 438.326 330.08V329.708H435.926V328.916H441.674V329.708H439.31V330.08C439.31 331.46 440.366 332.816 441.926 333.368ZM440.894 338.12C442.514 338.12 443.498 337.664 443.498 336.884C443.498 336.104 442.514 335.636 440.894 335.636C439.274 335.636 438.29 336.104 438.29 336.884C438.29 337.664 439.274 338.12 440.894 338.12ZM440.894 334.88C443.102 334.88 444.482 335.612 444.482 336.884C444.482 338.156 443.102 338.888 440.894 338.888C438.686 338.888 437.306 338.156 437.306 336.884C437.306 335.612 438.686 334.88 440.894 334.88ZM449.281 335.576C450.109 335.576 450.709 334.892 450.709 333.932C450.709 332.996 450.109 332.312 449.281 332.312C448.441 332.312 447.853 332.996 447.853 333.932C447.853 334.892 448.441 335.576 449.281 335.576ZM449.281 331.484C450.613 331.484 451.585 332.492 451.585 333.932C451.585 335.396 450.613 336.392 449.281 336.392C447.949 336.392 446.977 335.396 446.977 333.932C446.977 332.492 447.949 331.484 449.281 331.484ZM449.761 328.436V329.96H451.945V330.764H446.605V329.96H448.789V328.436H449.761ZM454.789 328.112H455.737V338.876H454.789V333.464H453.409V338.36H452.485V328.364H453.409V332.66H454.789V328.112ZM461.424 329.048V330.98C461.424 332.936 462.648 334.892 464.208 335.636L463.632 336.416C462.408 335.804 461.424 334.52 460.932 333.008C460.464 334.604 459.468 335.96 458.256 336.608L457.656 335.828C459.216 335.048 460.44 332.972 460.44 330.98V329.048H461.424ZM465.54 328.124H466.524V338.9H465.54V332.576H463.044V331.772H465.54V328.124ZM475.003 330.044V331.412C475.003 333.128 476.227 335.036 477.787 335.768L477.223 336.56C476.023 335.96 475.015 334.7 474.523 333.26C474.031 334.832 472.987 336.2 471.775 336.824L471.199 336.044C472.735 335.276 474.031 333.236 474.031 331.412V330.044H471.571V329.228H477.391V330.044H475.003ZM481.435 332.468V333.296H479.659V338.888H478.675V328.136H479.659V332.468H481.435ZM487.29 338.12C488.97 338.12 489.966 337.7 489.966 336.944C489.966 336.188 488.97 335.768 487.29 335.768C485.586 335.768 484.59 336.188 484.59 336.944C484.59 337.7 485.586 338.12 487.29 338.12ZM487.29 335C489.57 335 490.962 335.696 490.962 336.944C490.962 338.192 489.57 338.888 487.29 338.888C484.986 338.888 483.594 338.192 483.594 336.944C483.594 335.696 484.986 335 487.29 335ZM487.782 333.44H492.162V334.232H482.418V333.44H486.798V332.192H483.642V328.616H490.95V329.408H484.626V331.4H491.022V332.192H487.782V333.44ZM497.189 333.032V331.292H494.873V333.032H497.189ZM498.113 328.82V333.824H493.937V328.82H494.873V330.512H497.189V328.82H498.113ZM495.305 336.032V335.24H502.541V338.888H501.557V336.032H495.305ZM501.593 328.136H502.541V334.58H501.593V331.736H500.225V334.532H499.289V328.328H500.225V330.932H501.593V328.136ZM512.38 337.952V336.56H507.448V337.952H512.38ZM512.38 335.792V334.424H513.364V338.744H506.476V334.424H507.448V335.792H512.38ZM507.436 332.792C508.504 332.792 509.272 332.096 509.272 331.112C509.272 330.128 508.504 329.444 507.436 329.444C506.368 329.444 505.6 330.128 505.6 331.112C505.6 332.096 506.368 332.792 507.436 332.792ZM512.368 328.136H513.364V333.908H512.368V331.496H510.184C509.992 332.768 508.912 333.608 507.436 333.608C505.828 333.608 504.664 332.6 504.664 331.112C504.664 329.636 505.828 328.628 507.436 328.628C508.888 328.628 509.968 329.444 510.172 330.692H512.368V328.136ZM394.91 355V346.192H396.026V349.888H400.13V346.192H401.234V355H400.13V350.848H396.026V355H394.91ZM403.64 355V346.192H405.848C408.548 346.192 410 347.776 410 350.572C410 353.356 408.548 355 405.896 355H403.64ZM404.756 354.088H405.752C407.828 354.088 408.848 352.792 408.848 350.572C408.848 348.34 407.828 347.104 405.752 347.104H404.756V354.088ZM411.878 355V346.192H414.086C416.786 346.192 418.238 347.776 418.238 350.572C418.238 353.356 416.786 355 414.134 355H411.878ZM412.994 354.088H413.99C416.066 354.088 417.086 352.792 417.086 350.572C417.086 348.34 416.066 347.104 413.99 347.104H412.994V354.088ZM419.817 357.28L419.553 356.632C420.309 356.296 420.753 355.708 420.753 355C420.705 355.012 420.669 355.012 420.621 355.012C420.201 355.012 419.817 354.748 419.817 354.244C419.817 353.776 420.201 353.476 420.645 353.476C421.221 353.476 421.569 353.968 421.569 354.772C421.569 355.924 420.897 356.824 419.817 357.28ZM426.14 355V346.192H427.292L430.496 351.748L431.432 353.56H431.492C431.432 352.672 431.348 351.688 431.348 350.776V346.192H432.404V355H431.264L428.06 349.444L427.112 347.632H427.064C427.112 348.52 427.196 349.456 427.196 350.38V355H426.14ZM436.324 350.08L435.892 351.424H438.556L438.136 350.08C437.812 349.084 437.536 348.124 437.248 347.104H437.2C436.924 348.136 436.636 349.084 436.324 350.08ZM433.636 355L436.624 346.192H437.86L440.848 355H439.672L438.832 352.312H435.616L434.764 355H433.636ZM444.537 355.156C443.289 355.156 442.221 354.652 441.453 353.848L442.125 353.092C442.749 353.752 443.637 354.184 444.549 354.184C445.701 354.184 446.397 353.608 446.397 352.744C446.397 351.844 445.761 351.556 444.933 351.184L443.661 350.632C442.845 350.284 441.873 349.66 441.873 348.376C441.873 347.02 443.049 346.036 444.645 346.036C445.689 346.036 446.613 346.48 447.237 347.128L446.649 347.836C446.109 347.332 445.461 347.008 444.645 347.008C443.649 347.008 443.001 347.512 443.001 348.304C443.001 349.156 443.769 349.48 444.453 349.768L445.713 350.308C446.733 350.752 447.525 351.352 447.525 352.66C447.525 354.052 446.373 355.156 444.537 355.156ZM459.973 348.424V349.216H452.593V345.556H459.901V346.348H453.577V348.424H459.973ZM456.229 355.108C457.909 355.108 458.917 354.688 458.917 353.932C458.917 353.176 457.921 352.756 456.229 352.756C454.537 352.756 453.541 353.176 453.541 353.932C453.541 354.688 454.537 355.108 456.229 355.108ZM456.229 351.988C458.521 351.988 459.913 352.684 459.913 353.932C459.913 355.18 458.521 355.876 456.229 355.876C453.937 355.876 452.545 355.18 452.545 353.932C452.545 352.684 453.937 351.988 456.229 351.988ZM451.369 350.248H461.113V351.064H451.369V350.248ZM466.671 349.588L466.323 348.808C468.231 348.604 469.959 347.668 470.007 346.468H466.671V345.676H474.627V346.468H471.279C471.327 347.668 473.055 348.604 474.963 348.808L474.615 349.588C472.851 349.372 471.231 348.592 470.643 347.416C470.043 348.592 468.435 349.372 466.671 349.588ZM470.631 355.096C472.311 355.096 473.319 354.676 473.319 353.92C473.319 353.176 472.311 352.744 470.631 352.744C468.939 352.744 467.943 353.176 467.943 353.92C467.943 354.676 468.939 355.096 470.631 355.096ZM470.631 351.976C472.923 351.976 474.315 352.672 474.315 353.92C474.315 355.18 472.923 355.876 470.631 355.876C468.327 355.876 466.947 355.18 466.947 353.92C466.947 352.672 468.327 351.976 470.631 351.976ZM465.771 350.248H475.503V351.04H465.771V350.248ZM484.299 348.988V347.596H479.067V348.988H484.299ZM485.271 345.46V349.768H478.095V345.46H479.067V346.84H484.299V345.46H485.271ZM479.007 352.72V354.844H485.475V355.648H478.035V352.72H479.007ZM476.787 350.812H486.567V351.604H482.247V353.692H481.263V351.604H476.787V350.812ZM491.582 350.032V348.292H489.266V350.032H491.582ZM492.506 345.82V350.824H488.33V345.82H489.266V347.512H491.582V345.82H492.506ZM489.698 353.032V352.24H496.934V355.888H495.95V353.032H489.698ZM495.986 345.136H496.934V351.58H495.986V348.736H494.618V351.532H493.682V345.328H494.618V347.932H495.986V345.136ZM506.773 354.952V353.56H501.841V354.952H506.773ZM506.773 352.792V351.424H507.757V355.744H500.869V351.424H501.841V352.792H506.773ZM501.829 349.792C502.897 349.792 503.665 349.096 503.665 348.112C503.665 347.128 502.897 346.444 501.829 346.444C500.761 346.444 499.993 347.128 499.993 348.112C499.993 349.096 500.761 349.792 501.829 349.792ZM506.761 345.136H507.757V350.908H506.761V348.496H504.577C504.385 349.768 503.305 350.608 501.829 350.608C500.221 350.608 499.057 349.6 499.057 348.112C499.057 346.636 500.221 345.628 501.829 345.628C503.281 345.628 504.361 346.444 504.565 347.692H506.761V345.136Z" fill="#787878"/>
<path d="M397.894 284.24V285.26C397.894 288.06 399.354 291.32 402.374 292.72L400.914 294.8C398.874 293.86 397.434 292.02 396.614 289.84C395.794 292.24 394.314 294.26 392.214 295.26L390.734 293.16C393.754 291.76 395.254 288.3 395.254 285.26V284.24H391.434V282.06H401.554V284.24H397.894ZM408.234 287.32V289.5H405.554V298.72H402.914V280.3H405.554V287.32H408.234ZM417.813 296.74C420.273 296.74 421.533 296.32 421.533 295.36C421.533 294.4 420.273 293.96 417.813 293.96C415.353 293.96 414.093 294.4 414.093 295.36C414.093 296.32 415.353 296.74 417.813 296.74ZM417.813 291.96C421.793 291.96 424.213 293.18 424.213 295.36C424.213 297.52 421.793 298.74 417.813 298.74C413.833 298.74 411.433 297.52 411.433 295.36C411.433 293.18 413.833 291.96 417.813 291.96ZM419.193 288.96H426.213V291.06H409.553V288.96H416.553V287.44H411.573V281.08H424.213V283.18H414.193V285.34H424.313V287.44H419.193V288.96ZM434.062 288.1L433.182 286.04C436.662 285.74 438.462 284.52 438.882 283.26H433.982V281.16H447.602V283.26H442.682C443.102 284.52 444.902 285.74 448.402 286.04L447.482 288.1C444.022 287.78 441.742 286.5 440.782 284.74C439.802 286.5 437.542 287.78 434.062 288.1ZM440.742 296.7C443.202 296.7 444.462 296.26 444.462 295.3C444.462 294.34 443.202 293.92 440.742 293.92C438.282 293.92 437.022 294.34 437.022 295.3C437.022 296.26 438.282 296.7 440.742 296.7ZM440.742 291.88C444.722 291.88 447.142 293.14 447.142 295.3C447.142 297.48 444.722 298.72 440.742 298.72C436.762 298.72 434.362 297.48 434.362 295.3C434.362 293.14 436.762 291.88 440.742 291.88ZM432.462 288.8H449.102V290.88H432.462V288.8ZM462.781 286.4V284.74H455.601V286.4H462.781ZM465.401 280.88V288.46H452.981V280.88H455.601V282.76H462.781V280.88H465.401ZM455.421 293.34V296.3H465.701V298.4H452.781V293.34H455.421ZM450.841 289.74H467.541V291.82H460.741V294.72H458.101V291.82H450.841V289.74ZM479.29 288.32V286.08H476.91V288.32H479.29ZM481.73 281.48V290.38H474.43V281.48H476.91V284.06H479.29V281.48H481.73ZM476.81 294.34V292.24H489.49V298.74H486.85V294.34H476.81ZM486.99 280.3H489.49V291.38H486.99V286.92H485.55V291.32H483.09V280.62H485.55V284.8H486.99V280.3ZM504.969 296.4V294.76H498.009V296.4H504.969ZM504.969 292.76V291H507.589V298.5H495.389V291H498.009V292.76H504.969ZM497.269 287.66C498.629 287.66 499.609 286.84 499.609 285.46C499.609 284.08 498.629 283.26 497.269 283.26C495.929 283.26 494.949 284.08 494.949 285.46C494.949 286.84 495.929 287.66 497.269 287.66ZM504.949 280.3H507.589V290.2H504.949V286.5H502.029C501.529 288.5 499.649 289.86 497.269 289.86C494.509 289.86 492.429 288.02 492.429 285.46C492.429 282.9 494.509 281.06 497.269 281.06C499.609 281.06 501.489 282.4 502.009 284.36H504.949V280.3Z" fill="#0E66C8"/>
<path d="M442.001 311.517H460.767" stroke="#0E66C8" stroke-opacity="0.67" stroke-width="2" stroke-miterlimit="10"/>
<g clip-path="url(#clip0_241_1896)">
<path d="M413.778 140.333V154.667C413.778 155.934 414.281 157.149 415.177 158.045C416.073 158.941 417.288 159.444 418.555 159.444H485.444C486.711 159.444 487.927 158.941 488.823 158.045C489.719 157.149 490.222 155.934 490.222 154.667V140.333H413.778ZM480.666 152.278H471.111V147.5H480.666V152.278Z" fill="white"/>
<path d="M482.673 114.939C482.375 113.97 481.768 113.125 480.944 112.533C480.12 111.942 479.124 111.638 478.11 111.667H459.166V126C459.166 127.901 458.411 129.724 457.067 131.068C455.723 132.412 453.9 133.167 452 133.167C450.099 133.167 448.276 132.412 446.932 131.068C445.588 129.724 444.833 127.901 444.833 126V111.667H425.889C424.893 111.627 423.911 111.914 423.091 112.483C422.272 113.052 421.661 113.872 421.35 114.82C415.832 130.013 414.351 134.194 413.945 135.556H490.055C489.673 134.194 488.168 130.037 482.673 114.939Z" fill="white"/>
<path d="M440.055 106.698L449.611 97.3333V126C449.611 126.634 449.863 127.241 450.311 127.689C450.759 128.137 451.366 128.389 452 128.389C452.633 128.389 453.241 128.137 453.689 127.689C454.137 127.241 454.389 126.634 454.389 126V97.3333L463.944 106.769C464.172 106.986 464.439 107.155 464.732 107.268C465.025 107.381 465.338 107.435 465.652 107.428C465.966 107.42 466.275 107.35 466.562 107.223C466.849 107.096 467.108 106.913 467.324 106.686C467.541 106.458 467.71 106.191 467.823 105.898C467.936 105.605 467.99 105.292 467.983 104.978C467.975 104.664 467.905 104.355 467.778 104.068C467.651 103.781 467.468 103.522 467.241 103.306L452 88.16L436.735 103.306C436.365 103.761 436.175 104.336 436.202 104.922C436.229 105.508 436.471 106.064 436.882 106.483C437.292 106.902 437.842 107.156 438.428 107.195C439.013 107.235 439.592 107.058 440.055 106.698Z" fill="white"/>
</g>
<path d="M774.457 252.023C843.746 252.023 899.915 195.829 899.915 126.511C899.915 57.1933 843.746 1 774.457 1C705.169 1 649 57.1933 649 126.511C649 195.829 705.169 252.023 774.457 252.023Z" stroke="#0E66C8" stroke-opacity="0.12" stroke-miterlimit="10"/>
<path d="M774.457 250.106C842.687 250.106 897.999 194.771 897.999 126.511C897.999 58.2519 842.687 2.91669 774.457 2.91669C706.227 2.91669 650.916 58.2519 650.916 126.511C650.916 194.771 706.227 250.106 774.457 250.106Z" stroke="#0E66C8" stroke-opacity="0.12" stroke-width="1.0328" stroke-miterlimit="10"/>
<path d="M774.458 248.247C841.662 248.247 896.142 193.744 896.142 126.511C896.142 59.2782 841.662 4.77515 774.458 4.77515C707.254 4.77515 652.774 59.2782 652.774 126.511C652.774 193.744 707.254 248.247 774.458 248.247Z" stroke="#0E66C8" stroke-opacity="0.12" stroke-width="1.0656" stroke-miterlimit="10"/>
<path d="M774.456 246.389C840.634 246.389 894.282 192.718 894.282 126.511C894.282 60.3046 840.634 6.63361 774.456 6.63361C708.278 6.63361 654.63 60.3046 654.63 126.511C654.63 192.718 708.278 246.389 774.456 246.389Z" stroke="#0E66C8" stroke-opacity="0.21" stroke-width="1.0984" stroke-miterlimit="10"/>
<path d="M774.457 244.53C839.609 244.53 892.425 191.691 892.425 126.511C892.425 61.331 839.609 8.49213 774.457 8.49213C709.305 8.49213 656.489 61.331 656.489 126.511C656.489 191.691 709.305 244.53 774.457 244.53Z" stroke="#0E66C8" stroke-opacity="0.21" stroke-width="1.1311" stroke-miterlimit="10"/>
<path d="M774.458 242.671C838.584 242.671 890.568 190.665 890.568 126.511C890.568 62.3573 838.584 10.3506 774.458 10.3506C710.332 10.3506 658.347 62.3573 658.347 126.511C658.347 190.665 710.332 242.671 774.458 242.671Z" stroke="#0E66C8" stroke-opacity="0.21" stroke-width="1.1639" stroke-miterlimit="10"/>
<path d="M774.458 240.755C837.525 240.755 888.652 189.606 888.652 126.511C888.652 63.4159 837.525 12.2673 774.458 12.2673C711.39 12.2673 660.263 63.4159 660.263 126.511C660.263 189.606 711.39 240.755 774.458 240.755Z" stroke="#0E66C8" stroke-opacity="0.34" stroke-width="1.1967" stroke-miterlimit="10"/>
<path d="M774.458 238.896C836.5 238.896 886.795 188.579 886.795 126.511C886.795 64.4423 836.5 14.1257 774.458 14.1257C712.416 14.1257 662.121 64.4423 662.121 126.511C662.121 188.579 712.416 238.896 774.458 238.896Z" stroke="#0E66C8" stroke-opacity="0.34" stroke-width="1.2295" stroke-miterlimit="10"/>
<path d="M774.457 237.037C835.473 237.037 884.936 187.553 884.936 126.511C884.936 65.4687 835.473 15.9842 774.457 15.9842C713.441 15.9842 663.978 65.4687 663.978 126.511C663.978 187.553 713.441 237.037 774.457 237.037Z" stroke="#0E66C8" stroke-opacity="0.34" stroke-width="1.2623" stroke-miterlimit="10"/>
<path d="M774.457 235.179C834.447 235.179 883.079 186.526 883.079 126.511C883.079 66.495 834.447 17.8427 774.457 17.8427C714.468 17.8427 665.836 66.495 665.836 126.511C665.836 186.526 714.468 235.179 774.457 235.179Z" stroke="#0E66C8" stroke-opacity="0.46" stroke-width="1.2951" stroke-miterlimit="10"/>
<path d="M774.457 233.263C833.389 233.263 881.163 185.469 881.163 126.512C881.163 67.5547 833.389 19.7604 774.457 19.7604C715.525 19.7604 667.752 67.5547 667.752 126.512C667.752 185.469 715.525 233.263 774.457 233.263Z" stroke="#0E66C8" stroke-opacity="0.46" stroke-width="1.3279" stroke-miterlimit="10"/>
<path d="M774.456 231.403C832.362 231.403 879.303 184.441 879.303 126.511C879.303 68.58 832.362 21.6179 774.456 21.6179C716.55 21.6179 669.608 68.58 669.608 126.511C669.608 184.441 716.55 231.403 774.456 231.403Z" stroke="#0E66C8" stroke-opacity="0.46" stroke-width="1.3607" stroke-miterlimit="10"/>
<path d="M774.459 229.545C831.338 229.545 877.449 183.415 877.449 126.511C877.449 69.6063 831.338 23.4763 774.459 23.4763C717.579 23.4763 671.469 69.6063 671.469 126.511C671.469 183.415 717.579 229.545 774.459 229.545Z" stroke="#0E66C8" stroke-opacity="0.58" stroke-width="1.3934" stroke-miterlimit="10"/>
<path d="M774.457 227.687C830.311 227.687 875.589 182.389 875.589 126.512C875.589 70.6338 830.311 25.3359 774.457 25.3359C718.603 25.3359 673.325 70.6338 673.325 126.512C673.325 182.389 718.603 227.687 774.457 227.687Z" stroke="#0E66C8" stroke-opacity="0.58" stroke-width="1.4262" stroke-miterlimit="10"/>
<path d="M774.457 225.771C829.253 225.771 873.673 181.331 873.673 126.512C873.673 71.6924 829.253 27.2526 774.457 27.2526C719.661 27.2526 675.24 71.6924 675.24 126.512C675.24 181.331 719.661 225.771 774.457 225.771Z" stroke="#0E66C8" stroke-opacity="0.58" stroke-width="1.459" stroke-miterlimit="10"/>
<path d="M774.458 223.912C828.227 223.912 871.816 180.304 871.816 126.511C871.816 72.7187 828.227 29.111 774.458 29.111C720.688 29.111 677.099 72.7187 677.099 126.511C677.099 180.304 720.688 223.912 774.458 223.912Z" stroke="#0E66C8" stroke-opacity="0.72" stroke-width="1.4918" stroke-miterlimit="10"/>
<path d="M774.458 222.053C827.202 222.053 869.959 179.278 869.959 126.511C869.959 73.745 827.202 30.9695 774.458 30.9695C721.715 30.9695 678.957 73.745 678.957 126.511C678.957 179.278 721.715 222.053 774.458 222.053Z" stroke="#0E66C8" stroke-opacity="0.72" stroke-width="1.5246" stroke-miterlimit="10"/>
<path d="M774.457 220.195C826.175 220.195 868.1 178.251 868.1 126.511C868.1 74.7715 826.175 32.828 774.457 32.828C722.739 32.828 680.814 74.7715 680.814 126.511C680.814 178.251 722.739 220.195 774.457 220.195Z" stroke="#0E66C8" stroke-opacity="0.72" stroke-width="1.5574" stroke-miterlimit="10"/>
<path d="M774.457 218.278C825.116 218.278 866.184 177.193 866.184 126.511C866.184 75.83 825.116 34.7446 774.457 34.7446C723.797 34.7446 682.729 75.83 682.729 126.511C682.729 177.193 723.797 218.278 774.457 218.278Z" stroke="#0E66C8" stroke-opacity="0.98" stroke-width="1.5902" stroke-miterlimit="10"/>
<path d="M774.457 216.419C824.091 216.419 864.327 176.166 864.327 126.511C864.327 76.8564 824.091 36.6031 774.457 36.6031C724.824 36.6031 684.588 76.8564 684.588 126.511C684.588 176.166 724.824 216.419 774.457 216.419Z" stroke="#0E66C8" stroke-opacity="0.98" stroke-width="1.623" stroke-miterlimit="10"/>
<path d="M774.458 214.561C823.065 214.561 862.47 175.14 862.47 126.511C862.47 77.8828 823.065 38.4616 774.458 38.4616C725.85 38.4616 686.446 77.8828 686.446 126.511C686.446 175.14 725.85 214.561 774.458 214.561Z" stroke="#0E66C8" stroke-opacity="0.98" stroke-width="1.6557" stroke-miterlimit="10"/>
<path d="M774.459 212.702C822.04 212.702 860.613 174.113 860.613 126.511C860.613 78.9091 822.04 40.3201 774.459 40.3201C726.877 40.3201 688.305 78.9091 688.305 126.511C688.305 174.113 726.877 212.702 774.459 212.702Z" stroke="#0E66C8" stroke-opacity="0.98" stroke-width="1.6885" stroke-miterlimit="10"/>
<path d="M774.457 210.843C821.013 210.843 858.753 173.086 858.753 126.511C858.753 79.9354 821.013 42.1785 774.457 42.1785C727.902 42.1785 690.161 79.9354 690.161 126.511C690.161 173.086 727.902 210.843 774.457 210.843Z" stroke="#0E66C8" stroke-width="1.7213" stroke-miterlimit="10"/>
<path d="M774.457 208.927C819.954 208.927 856.837 172.028 856.837 126.511C856.837 80.994 819.954 44.0952 774.457 44.0952C728.96 44.0952 692.077 80.994 692.077 126.511C692.077 172.028 728.96 208.927 774.457 208.927Z" stroke="#0E66C8" stroke-width="1.7541" stroke-miterlimit="10"/>
<path d="M774.458 207.068C818.929 207.068 854.98 171.001 854.98 126.511C854.98 82.0204 818.929 45.9537 774.458 45.9537C729.986 45.9537 693.935 82.0204 693.935 126.511C693.935 171.001 729.986 207.068 774.458 207.068Z" stroke="#0E66C8" stroke-width="1.7869" stroke-miterlimit="10"/>
<path d="M774.456 205.209C817.901 205.209 853.121 169.975 853.121 126.511C853.121 83.0468 817.901 47.8122 774.456 47.8122C731.011 47.8122 695.791 83.0468 695.791 126.511C695.791 169.975 731.011 205.209 774.456 205.209Z" stroke="#0E66C8" stroke-width="1.8197" stroke-miterlimit="10"/>
<path d="M774.457 203.351C816.876 203.351 851.264 168.948 851.264 126.511C851.264 84.0731 816.876 49.6707 774.457 49.6707C732.038 49.6707 697.65 84.0731 697.65 126.511C697.65 168.948 732.038 203.351 774.457 203.351Z" stroke="#0E66C8" stroke-width="1.8525" stroke-miterlimit="10"/>
<path d="M774.459 201.435C815.82 201.435 849.35 167.891 849.35 126.512C849.35 85.1328 815.82 51.5884 774.459 51.5884C733.097 51.5884 699.568 85.1328 699.568 126.512C699.568 167.891 733.097 201.435 774.459 201.435Z" stroke="#0E66C8" stroke-width="1.8852" stroke-miterlimit="10"/>
<path d="M774.457 199.577C814.793 199.577 847.491 166.864 847.491 126.512C847.491 86.1592 814.793 53.4469 774.457 53.4469C734.122 53.4469 701.424 86.1592 701.424 126.512C701.424 166.864 734.122 199.577 774.457 199.577Z" stroke="#0E66C8" stroke-opacity="0.65" stroke-width="1.918" stroke-miterlimit="10"/>
<path d="M774.458 197.717C813.767 197.717 845.634 165.837 845.634 126.511C845.634 87.1844 813.767 55.3043 774.458 55.3043C735.149 55.3043 703.282 87.1844 703.282 126.511C703.282 165.837 735.149 197.717 774.458 197.717Z" stroke="#0E66C8" stroke-opacity="0.65" stroke-width="1.9508" stroke-miterlimit="10"/>
<path d="M774.457 195.858C812.74 195.858 843.775 164.81 843.775 126.51C843.775 88.2108 812.74 57.1627 774.457 57.1627C736.173 57.1627 705.139 88.2108 705.139 126.51C705.139 164.81 736.173 195.858 774.457 195.858Z" stroke="#0E66C8" stroke-opacity="0.65" stroke-width="1.9836" stroke-miterlimit="10"/>
<path d="M774.456 193.943C811.681 193.943 841.858 163.753 841.858 126.512C841.858 89.2705 811.681 59.0805 774.456 59.0805C737.231 59.0805 707.054 89.2705 707.054 126.512C707.054 163.753 737.231 193.943 774.456 193.943Z" stroke="#0E66C8" stroke-opacity="0.65" stroke-width="2.0164" stroke-miterlimit="10"/>
<path d="M774.457 192.084C810.656 192.084 840.001 162.726 840.001 126.512C840.001 90.2969 810.656 60.939 774.457 60.939C738.258 60.939 708.913 90.2969 708.913 126.512C708.913 162.726 738.258 192.084 774.457 192.084Z" stroke="#0E66C8" stroke-opacity="0.65" stroke-width="2.0492" stroke-miterlimit="10"/>
<path d="M774.458 190.225C809.631 190.225 838.144 161.7 838.144 126.511C838.144 91.3232 809.631 62.7975 774.458 62.7975C739.285 62.7975 710.771 91.3232 710.771 126.511C710.771 161.7 739.285 190.225 774.458 190.225Z" stroke="#0E66C8" stroke-opacity="0.65" stroke-width="2.082" stroke-miterlimit="10"/>
<path d="M774.456 188.367C808.603 188.367 836.285 160.673 836.285 126.511C836.285 92.3495 808.603 64.6559 774.456 64.6559C740.309 64.6559 712.627 92.3495 712.627 126.511C712.627 160.673 740.309 188.367 774.456 188.367Z" stroke="#0E66C8" stroke-opacity="0.65" stroke-width="2.1148" stroke-miterlimit="10"/>
<path d="M774.457 186.508C807.578 186.508 834.428 159.647 834.428 126.511C834.428 93.3759 807.578 66.5144 774.457 66.5144C741.336 66.5144 714.486 93.3759 714.486 126.511C714.486 159.647 741.336 186.508 774.457 186.508Z" stroke="#0E66C8" stroke-opacity="0.65" stroke-width="2.1475" stroke-miterlimit="10"/>
<path d="M774.459 184.591C806.522 184.591 832.514 158.588 832.514 126.511C832.514 94.4345 806.522 68.4311 774.459 68.4311C742.396 68.4311 716.404 94.4345 716.404 126.511C716.404 158.588 742.396 184.591 774.459 184.591Z" stroke="#0E66C8" stroke-opacity="0.65" stroke-width="2.1803" stroke-miterlimit="10"/>
<path d="M774.457 182.733C805.494 182.733 830.655 157.562 830.655 126.511C830.655 95.4608 805.494 70.2896 774.457 70.2896C743.42 70.2896 718.26 95.4608 718.26 126.511C718.26 157.562 743.42 182.733 774.457 182.733Z" stroke="#0E66C8" stroke-opacity="0.65" stroke-width="2.2131" stroke-miterlimit="10"/>
<path d="M774.458 180.874C804.469 180.874 828.798 156.535 828.798 126.511C828.798 96.4873 804.469 72.1481 774.458 72.1481C744.447 72.1481 720.118 96.4873 720.118 126.511C720.118 156.535 744.447 180.874 774.458 180.874Z" stroke="#0E66C8" stroke-opacity="0.65" stroke-width="2.2459" stroke-miterlimit="10"/>
<path d="M774.457 179.015C803.442 179.015 826.938 155.508 826.938 126.511C826.938 97.5136 803.442 74.0065 774.457 74.0065C745.472 74.0065 721.975 97.5136 721.975 126.511C721.975 155.508 745.472 179.015 774.457 179.015Z" stroke="#0E66C8" stroke-opacity="0.65" stroke-width="2.2787" stroke-miterlimit="10"/>
<path d="M774.456 177.099C802.383 177.099 825.023 154.45 825.023 126.511C825.023 98.5722 802.383 75.9232 774.456 75.9232C746.53 75.9232 723.89 98.5722 723.89 126.511C723.89 154.45 746.53 177.099 774.456 177.099Z" stroke="#0E66C8" stroke-opacity="0.65" stroke-width="2.3115" stroke-miterlimit="10"/>
<path d="M774.457 175.241C801.358 175.241 823.165 153.425 823.165 126.512C823.165 99.5996 801.358 77.7828 774.457 77.7828C747.556 77.7828 725.749 99.5996 725.749 126.512C725.749 153.425 747.556 175.241 774.457 175.241Z" stroke="#0E66C8" stroke-opacity="0.65" stroke-width="2.3443" stroke-miterlimit="10"/>
<path d="M774.458 173.382C800.333 173.382 821.308 152.397 821.308 126.511C821.308 100.625 800.333 79.6401 774.458 79.6401C748.583 79.6401 727.607 100.625 727.607 126.511C727.607 152.397 748.583 173.382 774.458 173.382Z" stroke="#0E66C8" stroke-opacity="0.65" stroke-width="2.377" stroke-miterlimit="10"/>
<path d="M774.456 171.523C799.305 171.523 819.449 151.37 819.449 126.511C819.449 101.651 799.305 81.4986 774.456 81.4986C749.607 81.4986 729.464 101.651 729.464 126.511C729.464 151.37 749.607 171.523 774.456 171.523Z" stroke="#0E66C8" stroke-opacity="0.65" stroke-width="2.4098" stroke-miterlimit="10"/>
<path d="M774.458 169.607C798.249 169.607 817.535 150.313 817.535 126.512C817.535 102.711 798.249 83.4164 774.458 83.4164C750.667 83.4164 731.381 102.711 731.381 126.512C731.381 150.313 750.667 169.607 774.458 169.607Z" stroke="#0E66C8" stroke-opacity="0.65" stroke-width="2.4426" stroke-miterlimit="10"/>
<path d="M774.457 167.749C797.222 167.749 815.676 149.286 815.676 126.512C815.676 103.737 797.222 85.2749 774.457 85.2749C751.692 85.2749 733.238 103.737 733.238 126.512C733.238 149.286 751.692 167.749 774.457 167.749Z" stroke="#0E66C8" stroke-opacity="0.65" stroke-width="2.4754" stroke-miterlimit="10"/>
<path d="M774.457 165.89C796.196 165.89 813.819 148.26 813.819 126.512C813.819 104.764 796.196 87.1334 774.457 87.1334C752.719 87.1334 735.096 104.764 735.096 126.512C735.096 148.26 752.719 165.89 774.457 165.89Z" stroke="#0E66C8" stroke-opacity="0.65" stroke-width="2.5082" stroke-miterlimit="10"/>
<path d="M774.458 164.03C795.171 164.03 811.962 147.232 811.962 126.511C811.962 105.789 795.171 88.9907 774.458 88.9907C753.745 88.9907 736.954 105.789 736.954 126.511C736.954 147.232 753.745 164.03 774.458 164.03Z" stroke="#0E66C8" stroke-opacity="0.65" stroke-width="2.541" stroke-miterlimit="10"/>
<path d="M774.458 162.115C794.113 162.115 810.046 146.175 810.046 126.512C810.046 106.849 794.113 90.9085 774.458 90.9085C754.803 90.9085 738.87 106.849 738.87 126.512C738.87 146.175 754.803 162.115 774.458 162.115Z" stroke="#0E66C8" stroke-opacity="0.65" stroke-width="2.5738" stroke-miterlimit="10"/>
<path d="M774.456 160.256C793.085 160.256 808.187 145.148 808.187 126.512C808.187 107.875 793.085 92.767 774.456 92.767C755.828 92.767 740.726 107.875 740.726 126.512C740.726 145.148 755.828 160.256 774.456 160.256Z" stroke="#0E66C8" stroke-opacity="0.65" stroke-width="2.6066" stroke-miterlimit="10"/>
<path d="M774.457 158.397C792.06 158.397 806.33 144.122 806.33 126.511C806.33 108.901 792.06 94.6254 774.457 94.6254C756.855 94.6254 742.585 108.901 742.585 126.511C742.585 144.122 756.855 158.397 774.457 158.397Z" stroke="#0E66C8" stroke-opacity="0.65" stroke-width="2.6393" stroke-miterlimit="10"/>
<path d="M774.458 156.539C791.034 156.539 804.472 143.095 804.472 126.511C804.472 109.928 791.034 96.4839 774.458 96.4839C757.881 96.4839 744.443 109.928 744.443 126.511C744.443 143.095 757.881 156.539 774.458 156.539Z" stroke="#0E66C8" stroke-opacity="0.65" stroke-width="2.6721" stroke-miterlimit="10"/>
<path d="M774.459 154.68C790.009 154.68 802.615 142.069 802.615 126.511C802.615 110.954 790.009 98.3424 774.459 98.3424C758.908 98.3424 746.302 110.954 746.302 126.511C746.302 142.069 758.908 154.68 774.459 154.68Z" stroke="#0E66C8" stroke-opacity="0.65" stroke-width="2.7049" stroke-miterlimit="10"/>
<path d="M774.458 152.764C788.951 152.764 800.699 141.01 800.699 126.511C800.699 112.013 788.951 100.259 774.458 100.259C759.966 100.259 748.217 112.013 748.217 126.511C748.217 141.01 759.966 152.764 774.458 152.764Z" stroke="#0E66C8" stroke-opacity="0.65" stroke-width="2.7377" stroke-miterlimit="10"/>
<path d="M774.457 150.905C787.923 150.905 798.84 139.983 798.84 126.511C798.84 113.039 787.923 102.118 774.457 102.118C760.99 102.118 750.074 113.039 750.074 126.511C750.074 139.983 760.99 150.905 774.457 150.905Z" stroke="#0E66C8" stroke-opacity="0.65" stroke-width="2.7705" stroke-miterlimit="10"/>
<path d="M774.458 149.046C786.898 149.046 796.983 138.957 796.983 126.511C796.983 114.065 786.898 103.976 774.458 103.976C762.017 103.976 751.932 114.065 751.932 126.511C751.932 138.957 762.017 149.046 774.458 149.046Z" stroke="#0E66C8" stroke-opacity="0.65" stroke-width="2.8033" stroke-miterlimit="10"/>
<path d="M774.458 147.188C785.873 147.188 795.126 137.93 795.126 126.511C795.126 115.092 785.873 105.834 774.458 105.834C763.044 105.834 753.791 115.092 753.791 126.511C753.791 137.93 763.044 147.188 774.458 147.188Z" stroke="#0E66C8" stroke-opacity="0.65" stroke-width="2.8361" stroke-miterlimit="10"/>
<path d="M774.456 145.271C784.812 145.271 793.208 136.872 793.208 126.511C793.208 116.15 784.812 107.751 774.456 107.751C764.1 107.751 755.704 116.15 755.704 126.511C755.704 136.872 764.1 145.271 774.456 145.271Z" stroke="#0E66C8" stroke-opacity="0.65" stroke-width="2.8689" stroke-miterlimit="10"/>
<path d="M774.456 143.412C783.787 143.412 791.351 135.845 791.351 126.511C791.351 117.177 783.787 109.61 774.456 109.61C765.126 109.61 757.562 117.177 757.562 126.511C757.562 135.845 765.126 143.412 774.456 143.412Z" stroke="#0E66C8" stroke-opacity="0.65" stroke-width="2.9016" stroke-miterlimit="10"/>
<path d="M774.457 141.555C782.762 141.555 789.493 134.82 789.493 126.512C789.493 118.204 782.762 111.469 774.457 111.469C766.153 111.469 759.421 118.204 759.421 126.512C759.421 134.82 766.153 141.555 774.457 141.555Z" stroke="#0E66C8" stroke-opacity="0.65" stroke-width="2.9344" stroke-miterlimit="10"/>
<path d="M774.458 139.695C781.736 139.695 787.636 133.792 787.636 126.511C787.636 119.229 781.736 113.327 774.458 113.327C767.18 113.327 761.279 119.229 761.279 126.511C761.279 133.792 767.18 139.695 774.458 139.695Z" stroke="#0E66C8" stroke-opacity="0.65" stroke-width="2.9672" stroke-miterlimit="10"/>
<path d="M774.458 137.778C780.678 137.778 785.72 132.734 785.72 126.511C785.72 120.288 780.678 115.243 774.458 115.243C768.237 115.243 763.195 120.288 763.195 126.511C763.195 132.734 768.237 137.778 774.458 137.778Z" stroke="#0E66C8" stroke-opacity="0.65" stroke-width="3" stroke-miterlimit="10"/>
<path d="M774.41 213.577C822.552 213.577 861.578 174.551 861.578 126.409C861.578 78.2678 822.552 39.2413 774.41 39.2413C726.269 39.2413 687.242 78.2678 687.242 126.409C687.242 174.551 726.269 213.577 774.41 213.577Z" fill="#0E66C8"/>
<path d="M713.374 327.288H718.414C718.414 330.396 716.986 333.132 713.41 334.884L712.882 334.08C715.774 332.7 717.214 330.636 717.418 328.08H713.374V327.288ZM720.586 326.124H721.57V336.888H720.586V326.124ZM731.661 335.952V334.56H726.729V335.952H731.661ZM731.661 333.792V332.424H732.645V336.744H725.757V332.424H726.729V333.792H731.661ZM726.717 330.792C727.785 330.792 728.553 330.096 728.553 329.112C728.553 328.128 727.785 327.444 726.717 327.444C725.649 327.444 724.881 328.128 724.881 329.112C724.881 330.096 725.649 330.792 726.717 330.792ZM731.649 326.136H732.645V331.908H731.649V329.496H729.465C729.273 330.768 728.193 331.608 726.717 331.608C725.109 331.608 723.945 330.6 723.945 329.112C723.945 327.636 725.109 326.628 726.717 326.628C728.169 326.628 729.249 327.444 729.453 328.692H731.649V326.136ZM738.416 328.776V329.616C738.416 331.344 739.484 333.108 741.032 333.852L740.48 334.62C739.304 334.044 738.392 332.868 737.936 331.488C737.48 332.964 736.496 334.212 735.272 334.812L734.72 334.068C736.292 333.3 737.444 331.476 737.444 329.616V328.776H735.008V327.984H737.432V326.316H738.416V327.984H740.804V328.776H738.416ZM744.872 330.552V331.368H743.096V336.888H742.112V326.124H743.096V330.552H744.872ZM751.495 332.484H753.679V326.124H754.663V334.32H753.679V333.216H751.495V332.484ZM749.299 327.288C748.279 327.288 747.583 327.744 747.583 328.428C747.583 329.124 748.279 329.58 749.299 329.58C750.319 329.58 751.015 329.124 751.015 328.428C751.015 327.744 750.319 327.288 749.299 327.288ZM749.299 330.312C747.727 330.312 746.647 329.58 746.647 328.428C746.647 327.3 747.727 326.556 749.299 326.556C750.871 326.556 751.951 327.3 751.951 328.428C751.951 329.58 750.871 330.312 749.299 330.312ZM748.915 333.936V331.86C747.847 331.908 746.815 331.92 745.927 331.92L745.795 331.104C747.787 331.104 750.451 331.08 752.731 330.792L752.815 331.5C751.867 331.644 750.871 331.752 749.899 331.812V333.936H748.915ZM748.315 335.844H754.939V336.648H747.331V333.516H748.315V335.844ZM760.386 326.916C762.066 326.916 763.266 327.936 763.266 329.448C763.266 330.948 762.066 331.98 760.386 331.98C758.718 331.98 757.506 330.948 757.506 329.448C757.506 327.936 758.718 326.916 760.386 326.916ZM760.386 327.756C759.282 327.756 758.466 328.44 758.466 329.448C758.466 330.444 759.282 331.14 760.386 331.14C761.502 331.14 762.306 330.444 762.306 329.448C762.306 328.44 761.502 327.756 760.386 327.756ZM764.682 326.124H765.666V336.912H764.682V326.124ZM757.086 334.548L756.966 333.72C758.922 333.72 761.622 333.708 763.974 333.348L764.058 334.08C761.634 334.524 759.03 334.548 757.086 334.548ZM772.74 329.616V331.596H778.236V329.616H772.74ZM775.98 334.704H780.372V335.508H770.616V334.704H774.984V332.388H771.768V326.892H772.74V328.812H778.236V326.892H779.196V332.388H775.98V334.704ZM782.82 329.532C782.82 330.588 783.612 331.332 784.668 331.332C785.724 331.332 786.516 330.588 786.516 329.532C786.516 328.476 785.724 327.732 784.668 327.732C783.612 327.732 782.82 328.476 782.82 329.532ZM787.476 329.532C787.476 331.092 786.276 332.184 784.668 332.184C783.06 332.184 781.86 331.092 781.86 329.532C781.86 327.972 783.06 326.88 784.668 326.88C786.276 326.88 787.476 327.972 787.476 329.532ZM784.296 333.24V335.844H790.488V336.648H783.312V333.24H784.296ZM790.008 329.4H791.592V330.216H790.008V334.044H789.024V326.124H790.008V329.4ZM801.959 330.228L801.551 331.02C799.883 330.732 798.263 329.796 797.567 328.5C796.895 329.808 795.275 330.732 793.595 331.02L793.199 330.228C795.155 329.94 797.051 328.644 797.051 327.108V326.508H798.083V327.108C798.083 328.608 800.003 329.94 801.959 330.228ZM802.427 332.184L802.439 333H798.035V336.9H797.051V333H792.707V332.184H802.427ZM804.694 330.888L804.322 330.096C806.23 329.844 807.97 328.776 807.97 327.468V327.456H804.622V326.664H812.59V327.456H809.242V327.468C809.242 328.776 810.982 329.844 812.878 330.096L812.518 330.888C810.766 330.624 809.182 329.76 808.606 328.512C808.018 329.76 806.434 330.624 804.694 330.888ZM805.942 333.6V335.844H812.398V336.648H804.958V333.6H805.942ZM803.71 331.668H813.478V332.46H809.17V334.644H808.186V332.46H803.71V331.668ZM826.288 326.136V334.008H825.304V326.136H826.288ZM824.032 331.692L823.552 332.472C822.316 332.04 821.332 331.152 820.84 330.024C820.384 331.248 819.388 332.22 818.116 332.676L817.6 331.908C819.232 331.344 820.324 329.94 820.324 328.404V327.816H817.864V327.024H823.768V327.816H821.332V328.404C821.332 329.856 822.448 331.164 824.032 331.692ZM820.348 335.844H826.612V336.648H819.364V333.264H820.348V335.844ZM834.723 330.84L834.831 331.632C833.355 331.932 832.083 332.004 829.827 332.004H828.987V327.06H833.751V327.852H829.971V331.2C832.095 331.2 833.319 331.116 834.723 330.84ZM831.135 333.132V335.844H837.327V336.648H830.151V333.132H831.135ZM836.847 329.316H838.443V330.132H836.847V333.912H835.863V326.124H836.847V329.316ZM735.716 348.428L735.296 347.648C736.844 347.288 737.888 346.304 737.888 345.152V345.128H735.512V344.348H737.876V343.148H738.86V344.348H741.236V345.128H738.86V345.152C738.86 346.232 739.904 347.156 741.428 347.504L741.032 348.272C739.796 347.972 738.86 347.324 738.392 346.448C737.936 347.396 736.976 348.116 735.716 348.428ZM741.896 348.824L741.968 349.556C740.96 349.724 739.904 349.832 738.884 349.892V353.576H737.9V349.952C736.844 349.988 735.824 350 734.924 350L734.792 349.172C736.844 349.172 739.544 349.16 741.896 348.824ZM742.664 343.136H743.648V353.9H742.664V343.136ZM747.019 346.316C747.019 347.324 747.787 348.032 748.867 348.032C749.935 348.032 750.715 347.324 750.715 346.316C750.715 345.296 749.935 344.6 748.867 344.6C747.787 344.6 747.019 345.296 747.019 346.316ZM751.675 346.316C751.675 347.816 750.487 348.86 748.867 348.86C747.235 348.86 746.059 347.816 746.059 346.316C746.059 344.804 747.235 343.772 748.867 343.772C750.487 343.772 751.675 344.804 751.675 346.316ZM747.211 350.828V350.024H754.207V353.888H753.223V350.828H747.211ZM755.767 345.584H754.207V347.072H755.767V347.876H754.207V349.52H753.223V343.136H754.207V344.768H755.767V345.584ZM763.242 348.308L762.75 349.076C761.55 348.644 760.626 347.744 760.158 346.64C759.69 347.876 758.706 348.86 757.446 349.316L756.93 348.548C758.526 347.972 759.642 346.544 759.642 345.02V344.612H757.242V343.808H762.99V344.612H760.626V345.008C760.626 346.412 761.682 347.756 763.242 348.308ZM759.726 350.732V352.952H764.802V350.732H759.726ZM758.766 353.744V349.952H765.762V353.744H758.766ZM764.766 343.124H765.762V349.424H764.766V346.64H762.642V345.824H764.766V343.124ZM772.74 346.616V348.596H778.236V346.616H772.74ZM775.98 351.704H780.372V352.508H770.616V351.704H774.984V349.388H771.768V343.892H772.74V345.812H778.236V343.892H779.196V349.388H775.98V351.704ZM782.82 346.532C782.82 347.588 783.612 348.332 784.668 348.332C785.724 348.332 786.516 347.588 786.516 346.532C786.516 345.476 785.724 344.732 784.668 344.732C783.612 344.732 782.82 345.476 782.82 346.532ZM787.476 346.532C787.476 348.092 786.276 349.184 784.668 349.184C783.06 349.184 781.86 348.092 781.86 346.532C781.86 344.972 783.06 343.88 784.668 343.88C786.276 343.88 787.476 344.972 787.476 346.532ZM784.296 350.24V352.844H790.488V353.648H783.312V350.24H784.296ZM790.008 346.4H791.592V347.216H790.008V351.044H789.024V343.124H790.008V346.4ZM796.266 349.472L795.846 348.668C797.706 348.356 799.746 346.856 799.746 345.14V344.912H796.182V344.108H804.33V344.912H800.766V345.14C800.766 346.856 802.818 348.332 804.69 348.632L804.294 349.424C802.65 349.1 800.946 348.044 800.262 346.568C799.578 348.056 797.886 349.124 796.266 349.472ZM800.754 351.692H805.146V352.508H795.378V351.692H799.77V349.088H800.754V351.692ZM810.377 345.776V346.604C810.377 348.404 811.601 350.156 813.197 350.852L812.657 351.62C811.421 351.056 810.401 349.892 809.909 348.476C809.429 349.976 808.409 351.2 807.173 351.8L806.621 351.056C808.217 350.3 809.405 348.488 809.405 346.604V345.776H806.909V344.984H809.393V343.316H810.389V344.984H812.837V345.776H810.377ZM814.241 343.112H815.237V353.876H814.241V343.112Z" fill="#787878"/>
<path d="M725.015 297V282.18H729.875C733.155 282.18 735.675 283.34 735.675 286.84C735.675 290.22 733.135 291.74 729.955 291.74H727.975V297H725.015ZM727.975 289.4H729.755C731.795 289.4 732.775 288.54 732.775 286.84C732.775 285.12 731.695 284.54 729.655 284.54H727.975V289.4ZM744.395 297.28C740.655 297.28 737.615 294.6 737.615 289.66C737.615 284.78 740.755 281.92 744.495 281.92C746.375 281.92 747.875 282.82 748.835 283.82L747.295 285.7C746.535 284.98 745.675 284.46 744.555 284.46C742.315 284.46 740.635 286.38 740.635 289.56C740.635 292.78 742.155 294.72 744.495 294.72C745.775 294.72 746.755 294.12 747.555 293.26L749.115 295.1C747.895 296.52 746.315 297.28 744.395 297.28ZM759.451 286.38V288.96H767.331V286.38H759.451ZM764.711 294.44H771.751V296.58H755.071V294.44H762.071V291.06H756.831V281.44H759.451V284.3H767.331V281.44H769.931V291.06H764.711V294.44ZM776.189 286.16C776.189 287.66 777.229 288.56 778.609 288.56C779.969 288.56 781.029 287.66 781.029 286.16C781.029 284.66 779.969 283.76 778.609 283.76C777.229 283.76 776.189 284.66 776.189 286.16ZM783.589 286.16C783.589 288.86 781.409 290.84 778.609 290.84C775.789 290.84 773.609 288.86 773.609 286.16C773.609 283.44 775.789 281.48 778.609 281.48C781.409 281.48 783.589 283.44 783.589 286.16ZM778.729 292.32V296.3H788.629V298.4H776.089V292.32H778.729ZM787.969 285.58H790.409V287.74H787.969V293.7H785.329V280.3H787.969V285.58ZM801.708 288.2L799.128 287.9C799.428 286.18 799.508 284.84 799.528 283.74H792.668V281.64H802.128V282.78C802.128 284.06 802.128 285.88 801.708 288.2ZM802.928 288.94L803.088 290.82C799.288 291.52 795.008 291.6 791.848 291.62L791.608 289.52C792.628 289.52 793.768 289.52 794.968 289.5V285.92H797.548V289.4C799.368 289.32 801.208 289.18 802.928 288.94ZM796.928 292.86V296.3H807.148V298.4H794.288V292.86H796.928ZM806.568 285.9H808.768V288.08H806.568V294.08H803.928V280.28H806.568V285.9ZM813.946 288.98V292.3C816.746 292.28 819.066 292.14 821.666 291.7L821.946 293.84C818.946 294.36 816.246 294.48 812.906 294.48H811.246V286.9H817.226V283.96H811.226V281.86H819.926V288.98H813.946ZM822.946 280.28H825.586V298.76H822.946V280.28Z" fill="#0E66C8"/>
<path d="M766 311.517H784.766" stroke="#0E66C8" stroke-opacity="0.67" stroke-width="2" stroke-miterlimit="10"/>
<path d="M763.1 120.766L771.033 128.7L786.9 112.833" stroke="white" stroke-width="9" stroke-linecap="round" stroke-linejoin="round"/>
<path d="M806.734 93H743.267C738.886 93 735.334 96.5519 735.334 100.933V140.6C735.334 144.981 738.886 148.533 743.267 148.533H806.734C811.115 148.533 814.667 144.981 814.667 140.6V100.933C814.667 96.5519 811.115 93 806.734 93Z" stroke="white" stroke-width="9" stroke-linecap="round" stroke-linejoin="round"/>
<path d="M775.001 148.534V164.4M759.135 164.4H790.868" stroke="white" stroke-width="9" stroke-linecap="round" stroke-linejoin="round"/>
<path d="M126.457 252.022C195.746 252.022 251.915 195.828 251.915 126.51C251.915 57.1923 195.746 0.999023 126.457 0.999023C57.1692 0.999023 1 57.1923 1 126.51C1 195.828 57.1692 252.022 126.457 252.022Z" stroke="#0E66C8" stroke-opacity="0.12" stroke-miterlimit="10"/>
<path d="M126.457 250.105C194.687 250.105 249.999 194.77 249.999 126.51C249.999 58.2509 194.687 2.91571 126.457 2.91571C58.2271 2.91571 2.91559 58.2509 2.91559 126.51C2.91559 194.77 58.2271 250.105 126.457 250.105Z" stroke="#0E66C8" stroke-opacity="0.12" stroke-width="1.0328" stroke-miterlimit="10"/>
<path d="M126.458 248.246C193.662 248.246 248.142 193.743 248.142 126.51C248.142 59.2773 193.662 4.77417 126.458 4.77417C59.2538 4.77417 4.77405 59.2773 4.77405 126.51C4.77405 193.743 59.2538 248.246 126.458 248.246Z" stroke="#0E66C8" stroke-opacity="0.12" stroke-width="1.0656" stroke-miterlimit="10"/>
<path d="M126.456 246.388C192.634 246.388 246.282 192.717 246.282 126.51C246.282 60.3036 192.634 6.63263 126.456 6.63263C60.2783 6.63263 6.63031 60.3036 6.63031 126.51C6.63031 192.717 60.2783 246.388 126.456 246.388Z" stroke="#0E66C8" stroke-opacity="0.21" stroke-width="1.0984" stroke-miterlimit="10"/>
<path d="M126.457 244.529C191.609 244.529 244.425 191.69 244.425 126.51C244.425 61.33 191.609 8.49115 126.457 8.49115C61.305 8.49115 8.48883 61.33 8.48883 126.51C8.48883 191.69 61.305 244.529 126.457 244.529Z" stroke="#0E66C8" stroke-opacity="0.21" stroke-width="1.1311" stroke-miterlimit="10"/>
<path d="M126.458 242.67C190.584 242.67 242.568 190.664 242.568 126.51C242.568 62.3564 190.584 10.3496 126.458 10.3496C62.3317 10.3496 10.3473 62.3564 10.3473 126.51C10.3473 190.664 62.3317 242.67 126.458 242.67Z" stroke="#0E66C8" stroke-opacity="0.21" stroke-width="1.1639" stroke-miterlimit="10"/>
<path d="M126.458 240.754C189.526 240.754 240.652 189.605 240.652 126.51C240.652 63.4149 189.526 12.2663 126.458 12.2663C63.3896 12.2663 12.2629 63.4149 12.2629 126.51C12.2629 189.605 63.3896 240.754 126.458 240.754Z" stroke="#0E66C8" stroke-opacity="0.34" stroke-width="1.1967" stroke-miterlimit="10"/>
<path d="M126.458 238.895C188.5 238.895 238.795 188.578 238.795 126.51C238.795 64.4413 188.5 14.1248 126.458 14.1248C64.4163 14.1248 14.1213 64.4413 14.1213 126.51C14.1213 188.578 64.4163 238.895 126.458 238.895Z" stroke="#0E66C8" stroke-opacity="0.34" stroke-width="1.2295" stroke-miterlimit="10"/>
<path d="M126.457 237.036C187.473 237.036 236.936 187.552 236.936 126.51C236.936 65.4677 187.473 15.9832 126.457 15.9832C65.4408 15.9832 15.9776 65.4677 15.9776 126.51C15.9776 187.552 65.4408 237.036 126.457 237.036Z" stroke="#0E66C8" stroke-opacity="0.34" stroke-width="1.2623" stroke-miterlimit="10"/>
<path d="M126.457 235.178C186.447 235.178 235.079 186.525 235.079 126.51C235.079 66.494 186.447 17.8417 126.457 17.8417C66.4675 17.8417 17.8361 66.494 17.8361 126.51C17.8361 186.525 66.4675 235.178 126.457 235.178Z" stroke="#0E66C8" stroke-opacity="0.46" stroke-width="1.2951" stroke-miterlimit="10"/>
<path d="M126.457 233.262C185.389 233.262 233.163 185.468 233.163 126.511C233.163 67.5537 185.389 19.7595 126.457 19.7595C67.5254 19.7595 19.7516 67.5537 19.7516 126.511C19.7516 185.468 67.5254 233.262 126.457 233.262Z" stroke="#0E66C8" stroke-opacity="0.46" stroke-width="1.3279" stroke-miterlimit="10"/>
<path d="M126.456 231.402C184.362 231.402 231.304 184.44 231.304 126.51C231.304 68.579 184.362 21.6169 126.456 21.6169C68.5499 21.6169 21.608 68.579 21.608 126.51C21.608 184.44 68.5499 231.402 126.456 231.402Z" stroke="#0E66C8" stroke-opacity="0.46" stroke-width="1.3607" stroke-miterlimit="10"/>
<path d="M126.459 229.544C183.338 229.544 229.449 183.414 229.449 126.51C229.449 69.6054 183.338 23.4753 126.459 23.4753C69.5788 23.4753 23.4686 69.6054 23.4686 126.51C23.4686 183.414 69.5788 229.544 126.459 229.544Z" stroke="#0E66C8" stroke-opacity="0.58" stroke-width="1.3934" stroke-miterlimit="10"/>
<path d="M126.457 227.686C182.311 227.686 227.589 182.388 227.589 126.511C227.589 70.6328 182.311 25.3349 126.457 25.3349C70.6033 25.3349 25.3249 70.6328 25.3249 126.511C25.3249 182.388 70.6033 227.686 126.457 227.686Z" stroke="#0E66C8" stroke-opacity="0.58" stroke-width="1.4262" stroke-miterlimit="10"/>
<path d="M126.457 225.77C181.253 225.77 225.673 181.33 225.673 126.511C225.673 71.6914 181.253 27.2516 126.457 27.2516C71.6612 27.2516 27.2405 71.6914 27.2405 126.511C27.2405 181.33 71.6612 225.77 126.457 225.77Z" stroke="#0E66C8" stroke-opacity="0.58" stroke-width="1.459" stroke-miterlimit="10"/>
<path d="M126.458 223.911C180.227 223.911 223.816 180.303 223.816 126.511C223.816 72.7177 180.227 29.11 126.458 29.11C72.6879 29.11 29.0989 72.7177 29.0989 126.511C29.0989 180.303 72.6879 223.911 126.458 223.911Z" stroke="#0E66C8" stroke-opacity="0.65" stroke-width="1.4918" stroke-miterlimit="10"/>
<path d="M126.458 222.052C179.202 222.052 221.959 179.277 221.959 126.51C221.959 73.7441 179.202 30.9685 126.458 30.9685C73.7146 30.9685 30.9574 73.7441 30.9574 126.51C30.9574 179.277 73.7146 222.052 126.458 222.052Z" stroke="#0E66C8" stroke-opacity="0.65" stroke-width="1.5246" stroke-miterlimit="10"/>
<path d="M126.457 220.194C178.175 220.194 220.1 178.25 220.1 126.51C220.1 74.7705 178.175 32.827 126.457 32.827C74.7392 32.827 32.8137 74.7705 32.8137 126.51C32.8137 178.25 74.7392 220.194 126.457 220.194Z" stroke="#0E66C8" stroke-opacity="0.65" stroke-width="1.5574" stroke-miterlimit="10"/>
<path d="M126.457 218.277C177.116 218.277 218.184 177.192 218.184 126.51C218.184 75.829 177.116 34.7437 126.457 34.7437C75.797 34.7437 34.7292 75.829 34.7292 126.51C34.7292 177.192 75.797 218.277 126.457 218.277Z" stroke="#0E66C8" stroke-opacity="0.7" stroke-width="1.5902" stroke-miterlimit="10"/>
<path d="M126.457 216.418C176.091 216.418 216.327 176.165 216.327 126.51C216.327 76.8554 176.091 36.6022 126.457 36.6022C76.8237 36.6022 36.5878 76.8554 36.5878 126.51C36.5878 176.165 76.8237 216.418 126.457 216.418Z" stroke="#0E66C8" stroke-opacity="0.7" stroke-width="1.623" stroke-miterlimit="10"/>
<path d="M126.458 214.56C175.066 214.56 214.47 175.139 214.47 126.51C214.47 77.8818 175.066 38.4606 126.458 38.4606C77.8504 38.4606 38.4462 77.8818 38.4462 126.51C38.4462 175.139 77.8504 214.56 126.458 214.56Z" stroke="#0E66C8" stroke-opacity="0.8" stroke-width="1.6557" stroke-miterlimit="10"/>
<path d="M126.459 212.701C174.04 212.701 212.613 174.112 212.613 126.51C212.613 78.9081 174.04 40.3191 126.459 40.3191C78.8772 40.3191 40.3047 78.9081 40.3047 126.51C40.3047 174.112 78.8772 212.701 126.459 212.701Z" stroke="#0E66C8" stroke-opacity="0.8" stroke-width="1.6885" stroke-miterlimit="10"/>
<path d="M126.457 210.842C173.013 210.842 210.753 173.085 210.753 126.51C210.753 79.9345 173.013 42.1776 126.457 42.1776C79.9017 42.1776 42.1609 79.9345 42.1609 126.51C42.1609 173.085 79.9017 210.842 126.457 210.842Z" stroke="#0E66C8" stroke-opacity="0.9" stroke-width="1.7213" stroke-miterlimit="10"/>
<path d="M126.457 208.926C171.954 208.926 208.837 172.027 208.837 126.51C208.837 80.993 171.954 44.0942 126.457 44.0942C80.9595 44.0942 44.0765 80.993 44.0765 126.51C44.0765 172.027 80.9595 208.926 126.457 208.926Z" stroke="#0E66C8" stroke-opacity="0.9" stroke-width="1.7541" stroke-miterlimit="10"/>
<path d="M126.458 207.067C170.929 207.067 206.98 171 206.98 126.51C206.98 82.0194 170.929 45.9527 126.458 45.9527C81.9863 45.9527 45.9351 82.0194 45.9351 126.51C45.9351 171 81.9863 207.067 126.458 207.067Z" stroke="#0E66C8" stroke-opacity="0.9" stroke-width="1.7869" stroke-miterlimit="10"/>
<path d="M126.456 205.208C169.902 205.208 205.121 169.974 205.121 126.51C205.121 83.0458 169.902 47.8112 126.456 47.8112C83.0108 47.8112 47.7913 83.0458 47.7913 126.51C47.7913 169.974 83.0108 205.208 126.456 205.208Z" stroke="#0E66C8" stroke-opacity="0.9" stroke-width="1.8197" stroke-miterlimit="10"/>
<path d="M126.457 203.35C168.876 203.35 203.264 168.947 203.264 126.51C203.264 84.0722 168.876 49.6697 126.457 49.6697C84.0375 49.6697 49.6498 84.0722 49.6498 126.51C49.6498 168.947 84.0375 203.35 126.457 203.35Z" stroke="#0E66C8" stroke-opacity="0.9" stroke-width="1.8525" stroke-miterlimit="10"/>
<path d="M126.459 201.434C167.82 201.434 201.35 167.89 201.35 126.511C201.35 85.1318 167.82 51.5875 126.459 51.5875C85.0975 51.5875 51.5676 85.1318 51.5676 126.511C51.5676 167.89 85.0975 201.434 126.459 201.434Z" stroke="#0E66C8" stroke-width="1.8852" stroke-miterlimit="10"/>
<path d="M126.457 199.576C166.793 199.576 199.491 166.863 199.491 126.511C199.491 86.1582 166.793 53.4459 126.457 53.4459C86.1221 53.4459 53.4238 86.1582 53.4238 126.511C53.4238 166.863 86.1221 199.576 126.457 199.576Z" stroke="#0E66C8" stroke-opacity="0.65" stroke-width="1.918" stroke-miterlimit="10"/>
<path d="M126.458 197.716C165.767 197.716 197.634 165.836 197.634 126.51C197.634 87.1834 165.767 55.3033 126.458 55.3033C87.1488 55.3033 55.2823 87.1834 55.2823 126.51C55.2823 165.836 87.1488 197.716 126.458 197.716Z" stroke="#0E66C8" stroke-opacity="0.65" stroke-width="1.9508" stroke-miterlimit="10"/>
<path d="M126.457 195.857C164.74 195.857 195.775 164.809 195.775 126.509C195.775 88.2098 164.74 57.1617 126.457 57.1617C88.1733 57.1617 57.1385 88.2098 57.1385 126.509C57.1385 164.809 88.1733 195.857 126.457 195.857Z" stroke="#0E66C8" stroke-opacity="0.65" stroke-width="1.9836" stroke-miterlimit="10"/>
<path d="M126.456 193.942C163.681 193.942 193.858 163.752 193.858 126.511C193.858 89.2695 163.681 59.0795 126.456 59.0795C89.2312 59.0795 59.0542 89.2695 59.0542 126.511C59.0542 163.752 89.2312 193.942 126.456 193.942Z" stroke="#0E66C8" stroke-opacity="0.65" stroke-width="2.0164" stroke-miterlimit="10"/>
<path d="M126.457 192.083C162.656 192.083 192.001 162.725 192.001 126.511C192.001 90.2959 162.656 60.938 126.457 60.938C90.2579 60.938 60.9127 90.2959 60.9127 126.511C60.9127 162.725 90.2579 192.083 126.457 192.083Z" stroke="#0E66C8" stroke-opacity="0.65" stroke-width="2.0492" stroke-miterlimit="10"/>
<path d="M126.458 190.224C161.631 190.224 190.144 161.699 190.144 126.51C190.144 91.3222 161.631 62.7965 126.458 62.7965C91.2846 62.7965 62.7711 91.3222 62.7711 126.51C62.7711 161.699 91.2846 190.224 126.458 190.224Z" stroke="#0E66C8" stroke-opacity="0.65" stroke-width="2.082" stroke-miterlimit="10"/>
<path d="M126.456 188.366C160.603 188.366 188.285 160.672 188.285 126.51C188.285 92.3486 160.603 64.655 126.456 64.655C92.3091 64.655 64.6274 92.3486 64.6274 126.51C64.6274 160.672 92.3091 188.366 126.456 188.366Z" stroke="#0E66C8" stroke-opacity="0.65" stroke-width="2.1148" stroke-miterlimit="10"/>
<path d="M126.457 186.507C159.578 186.507 186.428 159.646 186.428 126.51C186.428 93.375 159.578 66.5134 126.457 66.5134C93.3358 66.5134 66.4858 93.375 66.4858 126.51C66.4858 159.646 93.3358 186.507 126.457 186.507Z" stroke="#0E66C8" stroke-opacity="0.65" stroke-width="2.1475" stroke-miterlimit="10"/>
<path d="M126.459 184.59C158.522 184.59 184.514 158.587 184.514 126.51C184.514 94.4335 158.522 68.4301 126.459 68.4301C94.3958 68.4301 68.4036 94.4335 68.4036 126.51C68.4036 158.587 94.3958 184.59 126.459 184.59Z" stroke="#0E66C8" stroke-opacity="0.65" stroke-width="2.1803" stroke-miterlimit="10"/>
<path d="M126.457 182.732C157.494 182.732 182.655 157.561 182.655 126.51C182.655 95.4599 157.494 70.2886 126.457 70.2886C95.4204 70.2886 70.2599 95.4599 70.2599 126.51C70.2599 157.561 95.4204 182.732 126.457 182.732Z" stroke="#0E66C8" stroke-opacity="0.65" stroke-width="2.2131" stroke-miterlimit="10"/>
<path d="M126.458 180.873C156.469 180.873 180.798 156.534 180.798 126.51C180.798 96.4863 156.469 72.1471 126.458 72.1471C96.4471 72.1471 72.1184 96.4863 72.1184 126.51C72.1184 156.534 96.4471 180.873 126.458 180.873Z" stroke="#0E66C8" stroke-opacity="0.65" stroke-width="2.2459" stroke-miterlimit="10"/>
<path d="M126.457 179.014C155.442 179.014 178.939 155.507 178.939 126.51C178.939 97.5126 155.442 74.0056 126.457 74.0056C97.4716 74.0056 73.9747 97.5126 73.9747 126.51C73.9747 155.507 97.4716 179.014 126.457 179.014Z" stroke="#0E66C8" stroke-opacity="0.65" stroke-width="2.2787" stroke-miterlimit="10"/>
<path d="M126.456 177.098C154.383 177.098 177.023 154.449 177.023 126.51C177.023 98.5712 154.383 75.9222 126.456 75.9222C98.5295 75.9222 75.8903 98.5712 75.8903 126.51C75.8903 154.449 98.5295 177.098 126.456 177.098Z" stroke="#0E66C8" stroke-opacity="0.65" stroke-width="2.3115" stroke-miterlimit="10"/>
<path d="M126.457 175.24C153.358 175.24 175.165 153.424 175.165 126.511C175.165 99.5987 153.358 77.7818 126.457 77.7818C99.5562 77.7818 77.7487 99.5987 77.7487 126.511C77.7487 153.424 99.5562 175.24 126.457 175.24Z" stroke="#0E66C8" stroke-opacity="0.65" stroke-width="2.3443" stroke-miterlimit="10"/>
<path d="M126.458 173.381C152.333 173.381 173.308 152.396 173.308 126.51C173.308 100.624 152.333 79.6392 126.458 79.6392C100.583 79.6392 79.6072 100.624 79.6072 126.51C79.6072 152.396 100.583 173.381 126.458 173.381Z" stroke="#0E66C8" stroke-opacity="0.65" stroke-width="2.377" stroke-miterlimit="10"/>
<path d="M126.456 171.522C151.305 171.522 171.449 151.369 171.449 126.51C171.449 101.65 151.305 81.4976 126.456 81.4976C101.607 81.4976 81.4635 101.65 81.4635 126.51C81.4635 151.369 101.607 171.522 126.456 171.522Z" stroke="#0E66C8" stroke-opacity="0.65" stroke-width="2.4098" stroke-miterlimit="10"/>
<path d="M126.458 169.606C150.249 169.606 169.535 150.312 169.535 126.511C169.535 102.71 150.249 83.4154 126.458 83.4154C102.667 83.4154 83.3812 102.71 83.3812 126.511C83.3812 150.312 102.667 169.606 126.458 169.606Z" stroke="#0E66C8" stroke-opacity="0.65" stroke-width="2.4426" stroke-miterlimit="10"/>
<path d="M126.457 167.748C149.222 167.748 167.676 149.285 167.676 126.511C167.676 103.736 149.222 85.2739 126.457 85.2739C103.692 85.2739 85.2375 103.736 85.2375 126.511C85.2375 149.285 103.692 167.748 126.457 167.748Z" stroke="#0E66C8" stroke-opacity="0.65" stroke-width="2.4754" stroke-miterlimit="10"/>
<path d="M126.458 165.889C148.196 165.889 165.819 148.259 165.819 126.511C165.819 104.763 148.196 87.1324 126.458 87.1324C104.719 87.1324 87.096 104.763 87.096 126.511C87.096 148.259 104.719 165.889 126.458 165.889Z" stroke="#0E66C8" stroke-opacity="0.65" stroke-width="2.5082" stroke-miterlimit="10"/>
<path d="M126.458 164.029C147.171 164.029 163.962 147.231 163.962 126.51C163.962 105.788 147.171 88.9897 126.458 88.9897C105.745 88.9897 88.9545 105.788 88.9545 126.51C88.9545 147.231 105.745 164.029 126.458 164.029Z" stroke="#0E66C8" stroke-opacity="0.65" stroke-width="2.541" stroke-miterlimit="10"/>
<path d="M126.458 162.114C146.113 162.114 162.046 146.174 162.046 126.511C162.046 106.848 146.113 90.9075 126.458 90.9075C106.803 90.9075 90.8701 106.848 90.8701 126.511C90.8701 146.174 106.803 162.114 126.458 162.114Z" stroke="#0E66C8" stroke-opacity="0.65" stroke-width="2.5738" stroke-miterlimit="10"/>
<path d="M126.456 160.255C145.085 160.255 160.187 145.147 160.187 126.511C160.187 107.874 145.085 92.766 126.456 92.766C107.828 92.766 92.7263 107.874 92.7263 126.511C92.7263 145.147 107.828 160.255 126.456 160.255Z" stroke="#0E66C8" stroke-opacity="0.65" stroke-width="2.6066" stroke-miterlimit="10"/>
<path d="M126.457 158.396C144.06 158.396 158.329 144.121 158.329 126.51C158.329 108.9 144.06 94.6245 126.457 94.6245C108.855 94.6245 94.5848 108.9 94.5848 126.51C94.5848 144.121 108.855 158.396 126.457 158.396Z" stroke="#0E66C8" stroke-opacity="0.65" stroke-width="2.6393" stroke-miterlimit="10"/>
<path d="M126.458 156.538C143.034 156.538 156.472 143.094 156.472 126.51C156.472 109.927 143.034 96.4829 126.458 96.4829C109.881 96.4829 96.4433 109.927 96.4433 126.51C96.4433 143.094 109.881 156.538 126.458 156.538Z" stroke="#0E66C8" stroke-opacity="0.65" stroke-width="2.6721" stroke-miterlimit="10"/>
<path d="M126.459 154.679C142.009 154.679 154.615 142.068 154.615 126.51C154.615 110.953 142.009 98.3414 126.459 98.3414C110.908 98.3414 98.3018 110.953 98.3018 126.51C98.3018 142.068 110.908 154.679 126.459 154.679Z" stroke="#0E66C8" stroke-opacity="0.65" stroke-width="2.7049" stroke-miterlimit="10"/>
<path d="M126.458 152.763C140.951 152.763 152.699 141.009 152.699 126.51C152.699 112.012 140.951 100.258 126.458 100.258C111.966 100.258 100.217 112.012 100.217 126.51C100.217 141.009 111.966 152.763 126.458 152.763Z" stroke="#0E66C8" stroke-opacity="0.65" stroke-width="2.7377" stroke-miterlimit="10"/>
<path d="M126.457 150.904C139.923 150.904 150.84 139.982 150.84 126.51C150.84 113.038 139.923 102.117 126.457 102.117C112.99 102.117 102.074 113.038 102.074 126.51C102.074 139.982 112.99 150.904 126.457 150.904Z" stroke="#0E66C8" stroke-opacity="0.65" stroke-width="2.7705" stroke-miterlimit="10"/>
<path d="M126.458 149.045C138.898 149.045 148.983 138.956 148.983 126.51C148.983 114.064 138.898 103.975 126.458 103.975C114.017 103.975 103.932 114.064 103.932 126.51C103.932 138.956 114.017 149.045 126.458 149.045Z" stroke="#0E66C8" stroke-opacity="0.65" stroke-width="2.8033" stroke-miterlimit="10"/>
<path d="M126.458 147.187C137.873 147.187 147.126 137.929 147.126 126.51C147.126 115.091 137.873 105.833 126.458 105.833C115.044 105.833 105.791 115.091 105.791 126.51C105.791 137.929 115.044 147.187 126.458 147.187Z" stroke="#0E66C8" stroke-opacity="0.65" stroke-width="2.8361" stroke-miterlimit="10"/>
<path d="M126.456 145.27C136.812 145.27 145.208 136.871 145.208 126.51C145.208 116.149 136.812 107.75 126.456 107.75C116.099 107.75 107.704 116.149 107.704 126.51C107.704 136.871 116.099 145.27 126.456 145.27Z" stroke="#0E66C8" stroke-opacity="0.65" stroke-width="2.8689" stroke-miterlimit="10"/>
<path d="M126.457 143.411C135.787 143.411 143.351 135.844 143.351 126.51C143.351 117.176 135.787 109.609 126.457 109.609C117.126 109.609 109.562 117.176 109.562 126.51C109.562 135.844 117.126 143.411 126.457 143.411Z" stroke="#0E66C8" stroke-opacity="0.65" stroke-width="2.9016" stroke-miterlimit="10"/>
<path d="M126.457 141.554C134.762 141.554 141.493 134.819 141.493 126.511C141.493 118.203 134.762 111.468 126.457 111.468C118.153 111.468 111.421 118.203 111.421 126.511C111.421 134.819 118.153 141.554 126.457 141.554Z" stroke="#0E66C8" stroke-opacity="0.65" stroke-width="2.9344" stroke-miterlimit="10"/>
<path d="M126.458 139.694C133.736 139.694 139.636 133.791 139.636 126.51C139.636 119.228 133.736 113.326 126.458 113.326C119.18 113.326 113.279 119.228 113.279 126.51C113.279 133.791 119.18 139.694 126.458 139.694Z" stroke="#0E66C8" stroke-opacity="0.65" stroke-width="2.9672" stroke-miterlimit="10"/>
<path d="M126.458 137.777C132.678 137.777 137.72 132.733 137.72 126.51C137.72 120.287 132.678 115.242 126.458 115.242C120.237 115.242 115.195 120.287 115.195 126.51C115.195 132.733 120.237 137.777 126.458 137.777Z" stroke="#0E66C8" stroke-opacity="0.65" stroke-width="3" stroke-miterlimit="10"/>
<path d="M126.591 201.226C167.899 201.226 201.387 167.739 201.387 126.43C201.387 85.1217 167.899 51.6345 126.591 51.6345C85.2823 51.6345 51.795 85.1217 51.795 126.43C51.795 167.739 85.2823 201.226 126.591 201.226Z" fill="#0E66C8" fill-opacity="0.98"/>
<path d="M66.8976 334.968V336.024H73.5456V336.768H65.9376V334.272H72.2496V333.384H65.9016V332.652H73.2216V334.968H66.8976ZM68.2536 327.168V329.22H70.9296V327.168H68.2536ZM70.0896 331.008H74.4576V331.8H64.7256V331.008H69.1056V329.976H65.6736V329.22H67.2696V327.168H65.6376V326.412H73.5336V327.168H71.9136V329.22H73.4976V329.976H70.0896V331.008ZM77.3006 327.96V333.42C79.2086 333.42 80.4686 333.348 81.9206 333.072L82.0406 333.888C80.4806 334.176 79.1846 334.248 77.1446 334.248H76.3166V327.144H81.2126V327.96H77.3006ZM83.6606 326.124H84.6446V336.912H83.6606V330.84H80.5766V330.024H83.6606V326.124ZM88.1357 329.352C88.1357 330.372 88.9277 331.044 90.0317 331.044C91.1237 331.044 91.9157 330.372 91.9157 329.352C91.9157 328.344 91.1237 327.648 90.0317 327.648C88.9277 327.648 88.1357 328.344 88.1357 329.352ZM90.5237 331.848V333.672C91.5077 333.624 92.5037 333.564 93.4277 333.432L93.5117 334.152C91.2317 334.536 88.7237 334.572 86.8277 334.572L86.6957 333.744C87.5477 333.744 88.5317 333.732 89.5397 333.708V331.848C88.1357 331.68 87.1757 330.696 87.1757 329.352C87.1757 327.84 88.3637 326.82 90.0317 326.82C91.6757 326.82 92.8757 327.84 92.8757 329.352C92.8757 330.696 91.9037 331.668 90.5237 331.848ZM96.7997 330.564V331.392H95.0957V336.888H94.1117V326.112H95.0957V330.564H96.7997ZM106.886 327.852V328.656H100.526V327.852H103.226V326.256H104.21V327.852H106.886ZM103.718 333.648C104.63 333.648 105.326 332.976 105.326 332.004C105.326 331.044 104.63 330.372 103.718 330.372C102.794 330.372 102.098 331.044 102.098 332.004C102.098 332.976 102.794 333.648 103.718 333.648ZM103.718 329.532C105.17 329.532 106.238 330.564 106.238 332.004C106.238 333.468 105.17 334.488 103.718 334.488C102.254 334.488 101.186 333.468 101.186 332.004C101.186 330.564 102.254 329.532 103.718 329.532ZM108.422 326.136H109.406V336.888H108.422V331.44H106.658V330.636H108.422V326.136ZM116.437 336.12C118.117 336.12 119.125 335.7 119.125 334.968C119.125 334.236 118.117 333.816 116.437 333.816C114.745 333.816 113.749 334.236 113.749 334.968C113.749 335.7 114.745 336.12 116.437 336.12ZM116.437 333.048C118.753 333.048 120.121 333.732 120.121 334.968C120.121 336.204 118.753 336.876 116.437 336.876C114.133 336.876 112.753 336.204 112.753 334.968C112.753 333.732 114.133 333.048 116.437 333.048ZM114.949 330.192V331.452H117.937V330.192C117.493 330.264 116.989 330.312 116.437 330.312C115.897 330.312 115.393 330.264 114.949 330.192ZM113.665 328.32C113.665 329.088 114.721 329.556 116.437 329.556C118.153 329.556 119.209 329.088 119.209 328.32C119.209 327.54 118.153 327.084 116.437 327.084C114.721 327.084 113.665 327.54 113.665 328.32ZM118.909 331.452H121.309V332.244H111.565V331.452H113.977V329.94C113.125 329.592 112.657 329.052 112.657 328.32C112.657 327.06 114.109 326.316 116.437 326.316C118.777 326.316 120.217 327.06 120.217 328.32C120.217 329.04 119.737 329.592 118.909 329.928V331.452ZM123.612 329.148C123.612 330.108 124.272 330.792 125.172 330.792C126.06 330.792 126.72 330.108 126.72 329.148C126.72 328.188 126.06 327.516 125.172 327.516C124.272 327.516 123.612 328.188 123.612 329.148ZM127.62 329.148C127.62 330.6 126.588 331.596 125.172 331.596C123.744 331.596 122.724 330.6 122.724 329.148C122.724 327.708 123.744 326.724 125.172 326.724C126.588 326.724 127.62 327.708 127.62 329.148ZM130.728 335.94V334.548H125.616V335.94H130.728ZM130.728 333.768V332.472H131.7V336.744H124.632V332.472H125.616V333.768H130.728ZM130.752 326.136H131.7V332.004H130.752V329.412H129.384V331.92H128.448V326.34H129.384V328.596H130.752V326.136ZM138.516 327.048C136.752 327.048 135.744 327.456 135.744 328.176C135.744 328.896 136.752 329.304 138.516 329.304C140.28 329.304 141.288 328.896 141.288 328.176C141.288 327.456 140.28 327.048 138.516 327.048ZM138.516 330.036C136.152 330.036 134.736 329.388 134.736 328.176C134.736 326.964 136.152 326.304 138.516 326.304C140.88 326.304 142.296 326.964 142.296 328.176C142.296 329.388 140.88 330.036 138.516 330.036ZM135.816 334.908V336H142.464V336.768H134.856V334.188H141.168V333.228H134.82V332.484H142.14V334.908H135.816ZM133.644 330.768H143.388V331.56H133.644V330.768ZM151.218 328.044V329.412C151.218 331.236 152.514 333.096 154.098 333.768L153.546 334.56C152.298 333.984 151.242 332.748 150.726 331.272C150.234 332.844 149.178 334.2 147.954 334.824L147.378 334.032C148.926 333.3 150.234 331.272 150.234 329.412V328.044H147.738V327.228H153.75V328.044H151.218ZM155.202 326.136H156.186V336.888H155.202V326.136ZM164.165 328.92H166.289V326.136H167.285V332.544H166.289V329.724H164.165V328.92ZM164.765 331.368L164.273 332.136C163.073 331.704 162.149 330.816 161.681 329.712C161.225 330.96 160.229 331.968 158.969 332.448L158.453 331.668C160.061 331.08 161.165 329.628 161.165 328.08V327.708H158.765V326.916H164.513V327.708H162.149V328.08C162.149 329.46 163.205 330.816 164.765 331.368ZM163.733 336.12C165.353 336.12 166.337 335.664 166.337 334.884C166.337 334.104 165.353 333.636 163.733 333.636C162.113 333.636 161.129 334.104 161.129 334.884C161.129 335.664 162.113 336.12 163.733 336.12ZM163.733 332.88C165.941 332.88 167.321 333.612 167.321 334.884C167.321 336.156 165.941 336.888 163.733 336.888C161.525 336.888 160.145 336.156 160.145 334.884C160.145 333.612 161.525 332.88 163.733 332.88ZM172.612 333.672C173.596 333.672 174.304 332.976 174.304 332.016C174.304 331.044 173.596 330.348 172.612 330.348C171.64 330.348 170.932 331.044 170.932 332.016C170.932 332.976 171.64 333.672 172.612 333.672ZM172.612 329.532C174.148 329.532 175.24 330.564 175.24 332.016C175.24 333.48 174.148 334.488 172.612 334.488C171.1 334.488 170.008 333.48 170.008 332.016C170.008 330.564 171.1 329.532 172.612 329.532ZM173.092 326.256V327.852H175.744V328.644H169.396V327.852H172.108V326.256H173.092ZM179.512 330.552V331.38H177.748V336.888H176.764V326.136H177.748V330.552H179.512ZM185.931 331.932H188.379V329.34H185.895C185.991 329.76 186.051 330.216 186.051 330.708C186.051 331.152 186.003 331.56 185.931 331.932ZM183.375 333.588C184.395 333.588 185.127 332.46 185.127 330.708C185.127 328.968 184.395 327.84 183.375 327.84C182.343 327.84 181.623 328.968 181.623 330.708C181.623 332.46 182.343 333.588 183.375 333.588ZM188.379 326.124H189.363V336.912H188.379V332.736H185.691C185.247 333.828 184.407 334.464 183.375 334.464C181.803 334.464 180.687 333 180.687 330.708C180.687 328.416 181.803 326.952 183.375 326.952C184.371 326.952 185.163 327.528 185.619 328.536H188.379V326.124ZM87.9922 347.156V350.828H87.0562V343.328H87.9922V346.352H89.4322V343.136H90.3802V351.14H89.4322V347.156H87.9922ZM86.4442 348.428L86.5402 349.22C85.1722 349.484 84.0442 349.544 82.4962 349.544H81.7882V346.376H84.8602V344.852H81.7642V344.06H85.8082V347.12H82.7362V348.74C84.1402 348.74 85.1842 348.68 86.4442 348.428ZM84.3442 352.844H90.6922V353.648H83.3602V350.42H84.3442V352.844ZM98.6232 348.02L98.1072 348.8C96.9192 348.368 95.9952 347.504 95.5152 346.412C95.0712 347.636 94.1112 348.572 92.8392 349.04L92.3352 348.26C93.9672 347.696 95.0112 346.304 95.0112 344.732V343.592H95.9832V344.768C95.9832 346.196 97.0632 347.504 98.6232 348.02ZM95.1672 350.672V352.952H100.243V350.672H95.1672ZM94.2072 353.744V349.88H101.203V353.744H94.2072ZM100.207 343.136H101.203V349.328H100.207V346.052H97.8672V345.248H100.207V343.136ZM106.086 344.564C105.234 344.564 104.622 345.068 104.622 345.8C104.622 346.52 105.234 347.036 106.086 347.036C106.938 347.036 107.538 346.52 107.538 345.8C107.538 345.068 106.938 344.564 106.086 344.564ZM106.086 347.78C104.73 347.78 103.746 346.964 103.746 345.8C103.746 344.624 104.73 343.82 106.086 343.82C107.43 343.82 108.426 344.624 108.426 345.8C108.426 346.964 107.43 347.78 106.086 347.78ZM108.834 348.332L108.906 349.052C108.15 349.208 107.322 349.292 106.506 349.34V353.024H105.57V349.4C104.754 349.436 103.974 349.436 103.35 349.436L103.23 348.608C104.706 348.608 107.094 348.596 108.834 348.332ZM109.518 350.192V343.388H110.442V353.336H109.518V350.96H107.502V350.192H109.518ZM111.546 343.136H112.494V353.888H111.546V343.136ZM117.293 350.588C118.313 350.588 119.033 349.46 119.033 347.708C119.033 345.968 118.313 344.84 117.293 344.84C116.261 344.84 115.541 345.968 115.541 347.708C115.541 349.46 116.261 350.588 117.293 350.588ZM122.297 343.124H123.281V353.912H122.297V348.032H119.957C119.861 350.144 118.793 351.464 117.293 351.464C115.721 351.464 114.605 350 114.605 347.708C114.605 345.416 115.721 343.952 117.293 343.952C118.745 343.952 119.801 345.212 119.957 347.228H122.297V343.124ZM135.66 344.588V344.468H129.3V343.676H136.632V344.588C136.632 345.452 136.632 346.328 136.332 347.432L135.372 347.324C135.66 346.22 135.66 345.428 135.66 344.588ZM132.96 353.108C134.652 353.108 135.732 352.652 135.732 351.908C135.732 351.14 134.652 350.684 132.96 350.684C131.28 350.684 130.2 351.14 130.2 351.908C130.2 352.652 131.28 353.108 132.96 353.108ZM132.96 349.928C135.252 349.928 136.716 350.66 136.716 351.908C136.716 353.132 135.252 353.876 132.96 353.876C130.668 353.876 129.216 353.132 129.216 351.908C129.216 350.66 130.668 349.928 132.96 349.928ZM133.116 348.14H137.844V348.932H128.16V348.14H132.132V346.076H133.116V348.14ZM140.843 350.816V350.024H148.043V353.864H147.047V350.816H140.843ZM147.047 343.124H148.043V349.544H147.047V348.128H144.263V347.324H147.047V345.848H144.419C143.699 347.54 142.031 348.764 139.727 349.412L139.331 348.62C141.935 347.912 143.567 346.484 143.759 344.648H139.895V343.844H144.815C144.815 344.252 144.767 344.66 144.671 345.044H147.047V343.124ZM156.498 345.776V346.616C156.498 348.344 157.566 350.108 159.114 350.852L158.562 351.62C157.386 351.044 156.474 349.868 156.018 348.488C155.562 349.964 154.578 351.212 153.354 351.812L152.802 351.068C154.374 350.3 155.526 348.476 155.526 346.616V345.776H153.09V344.984H155.514V343.316H156.498V344.984H158.886V345.776H156.498ZM162.954 347.552V348.368H161.178V353.888H160.194V343.124H161.178V347.552H162.954ZM170.165 347.84L170.273 348.632C168.797 348.932 167.525 349.004 165.269 349.004H164.429V344.06H169.193V344.852H165.413V348.2C167.537 348.2 168.761 348.116 170.165 347.84ZM166.577 350.132V352.844H172.769V353.648H165.593V350.132H166.577ZM172.289 346.316H173.885V347.132H172.289V350.912H171.305V343.124H172.289V346.316Z" fill="#787878"/>
<path d="M82.6191 287.66V293.6H80.1591V280.64H82.6191V285.54H84.0991V280.3H86.5991V293.96H84.0991V287.66H82.6191ZM79.2991 288.96L79.5191 291.04C77.4391 291.4 75.6191 291.46 72.9191 291.46H71.6391V285.62H76.0591V283.86H71.6191V281.8H78.5991V287.54H74.1791V289.38C76.1391 289.36 77.6391 289.26 79.2991 288.96ZM76.8391 296.3H87.0591V298.4H74.1991V292.7H76.8391V296.3ZM100.298 288.26L98.9575 290.3C96.9975 289.66 95.6375 288.42 94.8375 286.82C94.0375 288.58 92.6175 289.94 90.5375 290.62L89.1575 288.56C92.2175 287.6 93.4975 285.28 93.4975 282.88V281.14H96.1575V283.04C96.1575 285.24 97.3975 287.36 100.298 288.26ZM95.0375 293.68V296.44H102.118V293.68H95.0375ZM92.4375 298.5V291.62H104.698V298.5H92.4375ZM102.058 280.3H104.698V290.82H102.058V285.64H98.6975V283.5H102.058V280.3ZM112.276 283.3C111.256 283.3 110.516 283.84 110.516 284.84C110.516 285.8 111.256 286.36 112.276 286.36C113.276 286.36 113.996 285.8 113.996 284.84C113.996 283.84 113.276 283.3 112.276 283.3ZM112.276 288.32C109.916 288.32 108.176 286.86 108.176 284.84C108.176 282.78 109.916 281.34 112.276 281.34C114.616 281.34 116.336 282.78 116.336 284.84C116.336 286.86 114.616 288.32 112.276 288.32ZM116.716 288.84L116.916 290.76C115.856 290.96 114.656 291.12 113.496 291.22V297.28H110.976V291.36C109.756 291.42 108.636 291.42 107.696 291.42L107.416 289.28C109.876 289.28 113.816 289.24 116.716 288.84ZM117.616 292.16V280.62H120.076V297.88H117.616V294.14H114.736V292.16H117.616ZM121.296 280.32H123.796V298.72H121.296V280.32ZM131.134 292.34C132.494 292.34 133.394 290.88 133.394 288.14C133.394 285.42 132.494 283.96 131.134 283.96C129.794 283.96 128.894 285.42 128.894 288.14C128.894 290.88 129.794 292.34 131.134 292.34ZM138.914 280.28H141.554V298.76H138.914V289.06H135.854C135.574 292.58 133.694 294.74 131.134 294.74C128.394 294.74 126.374 292.2 126.374 288.14C126.374 284.1 128.394 281.58 131.134 281.58C133.614 281.58 135.474 283.6 135.834 286.92H138.914V280.28ZM155.784 288.06V285.78H152.164V288.06H155.784ZM158.384 281.48V290.12H149.564V281.48H152.164V283.76H155.784V281.48H158.384ZM157.484 296.7C159.844 296.7 161.104 296.2 161.104 295.16C161.104 294.12 159.844 293.62 157.484 293.62C155.144 293.62 153.884 294.12 153.884 295.16C153.884 296.2 155.144 296.7 157.484 296.7ZM157.484 291.56C161.324 291.56 163.724 292.9 163.724 295.16C163.724 297.4 161.324 298.74 157.484 298.74C153.664 298.74 151.264 297.4 151.264 295.16C151.264 292.9 153.664 291.56 157.484 291.56ZM163.524 284.6H165.964V286.76H163.524V291.16H160.884V280.32H163.524V284.6ZM174.543 284.24V285.26C174.543 288.26 176.023 291.44 179.103 292.72L177.663 294.8C175.523 293.88 174.063 292.08 173.243 289.86C172.423 292.26 170.943 294.28 168.783 295.26L167.283 293.16C170.363 291.78 171.863 288.4 171.863 285.26V284.24H168.023V282.06H178.343V284.24H174.543ZM180.043 280.3H182.683V298.72H180.043V280.3Z" fill="#0E66C8"/>
<path d="M118 311.517H136.766" stroke="#0E66C8" stroke-opacity="0.67" stroke-width="2" stroke-miterlimit="10"/>
<path d="M122.908 88.9817L96.4084 98.9192C92.9634 100.244 90.6667 103.513 90.6667 107.223V127.981C90.6667 149.313 104.491 169.365 123.483 175.46C125.117 175.99 126.883 175.99 128.518 175.46C147.509 169.365 161.333 149.358 161.333 127.981V107.223C161.33 105.425 160.779 103.672 159.753 102.196C158.727 100.72 157.275 99.5924 155.592 98.9633L129.092 89.0258C127.104 88.2308 124.896 88.2308 122.908 88.9817Z" fill="white"/>
<path d="M114 131.933L121.933 139.867L137.8 124" stroke="#0E66C8" stroke-width="9" stroke-linecap="round" stroke-linejoin="round"/>
<defs>
<clipPath id="clip0_241_1896">
<rect width="86" height="86" fill="white" transform="translate(409 83)"/>
</clipPath>
</defs>
</svg>
