<svg width="464" height="86" viewBox="0 0 464 86" fill="none" xmlns="http://www.w3.org/2000/svg">
<path d="M132.24 20.48V22.52C132.24 28.12 135.16 34.64 141.2 37.44L138.28 41.6C134.2 39.72 131.32 36.04 129.68 31.68C128.04 36.48 125.08 40.52 120.88 42.52L117.92 38.32C123.96 35.52 126.96 28.6 126.96 22.52V20.48H119.32V16.12H139.56V20.48H132.24ZM152.92 26.64V31H147.56V49.44H142.28V12.6H147.56V26.64H152.92ZM174.077 45.48C178.997 45.48 181.517 44.64 181.517 42.72C181.517 40.8 178.997 39.92 174.077 39.92C169.157 39.92 166.637 40.8 166.637 42.72C166.637 44.64 169.157 45.48 174.077 45.48ZM174.077 35.92C182.037 35.92 186.877 38.36 186.877 42.72C186.877 47.04 182.037 49.48 174.077 49.48C166.117 49.48 161.317 47.04 161.317 42.72C161.317 38.36 166.117 35.92 174.077 35.92ZM176.837 29.92H190.877V34.12H157.557V29.92H171.557V26.88H161.597V14.16H186.877V18.36H166.837V22.68H187.077V26.88H176.837V29.92ZM199.514 28.2L197.754 24.08C204.714 23.48 208.314 21.04 209.154 18.52H199.354V14.32H226.594V18.52H216.754C217.594 21.04 221.194 23.48 228.194 24.08L226.354 28.2C219.434 27.56 214.874 25 212.954 21.48C210.994 25 206.474 27.56 199.514 28.2ZM212.874 45.4C217.794 45.4 220.314 44.52 220.314 42.6C220.314 40.68 217.794 39.84 212.874 39.84C207.954 39.84 205.434 40.68 205.434 42.6C205.434 44.52 207.954 45.4 212.874 45.4ZM212.874 35.76C220.834 35.76 225.674 38.28 225.674 42.6C225.674 46.96 220.834 49.44 212.874 49.44C204.914 49.44 200.114 46.96 200.114 42.6C200.114 38.28 204.914 35.76 212.874 35.76ZM196.314 29.6H229.594V33.76H196.314V29.6ZM258.951 24.8V21.48H244.591V24.8H258.951ZM264.191 13.76V28.92H239.351V13.76H244.591V17.52H258.951V13.76H264.191ZM244.231 38.68V44.6H264.791V48.8H238.951V38.68H244.231ZM235.071 31.48H268.471V35.64H254.871V41.44H249.591V35.64H235.071V31.48ZM284.908 28.64V24.16H280.148V28.64H284.908ZM289.788 14.96V32.76H275.188V14.96H280.148V20.12H284.908V14.96H289.788ZM279.948 40.68V36.48H305.308V49.48H300.028V40.68H279.948ZM300.308 12.6H305.308V34.76H300.308V25.84H297.428V34.64H292.508V13.24H297.428V21.6H300.308V12.6ZM338.264 44.8V41.52H324.344V44.8H338.264ZM338.264 37.52V34H343.504V49H319.104V34H324.344V37.52H338.264ZM322.864 27.32C325.584 27.32 327.544 25.68 327.544 22.92C327.544 20.16 325.584 18.52 322.864 18.52C320.184 18.52 318.224 20.16 318.224 22.92C318.224 25.68 320.184 27.32 322.864 27.32ZM338.224 12.6H343.504V32.4H338.224V25H332.384C331.384 29 327.624 31.72 322.864 31.72C317.344 31.72 313.184 28.04 313.184 22.92C313.184 17.8 317.344 14.12 322.864 14.12C327.544 14.12 331.304 16.8 332.344 20.72H338.224V12.6Z" fill="#0E66C8"/>
<path d="M6.30838 74.376V72.056H3.22038V74.376H6.30838ZM7.54038 68.76V75.432H1.97238V68.76H3.22038V71.016H6.30838V68.76H7.54038ZM3.79638 78.376V77.32H13.4444V82.184H12.1324V78.376H3.79638ZM12.1804 67.848H13.4444V76.44H12.1804V72.648H10.3564V76.376H9.10838V68.104H10.3564V71.576H12.1804V67.848ZM26.5631 80.936V79.08H19.9871V80.936H26.5631ZM26.5631 78.056V76.232H27.8751V81.992H18.6911V76.232H19.9871V78.056H26.5631ZM19.9711 74.056C21.3951 74.056 22.4191 73.128 22.4191 71.816C22.4191 70.504 21.3951 69.592 19.9711 69.592C18.5471 69.592 17.5231 70.504 17.5231 71.816C17.5231 73.128 18.5471 74.056 19.9711 74.056ZM26.5471 67.848H27.8751V75.544H26.5471V72.328H23.6351C23.3791 74.024 21.9391 75.144 19.9711 75.144C17.8271 75.144 16.2751 73.8 16.2751 71.816C16.2751 69.848 17.8271 68.504 19.9711 68.504C21.9071 68.504 23.3471 69.592 23.6191 71.256H26.5471V67.848ZM33.6499 79.624V81.032H42.5139V82.024H32.3699V78.696H40.7859V77.512H32.3219V76.536H42.0819V79.624H33.6499ZM35.4579 69.224V71.96H39.0259V69.224H35.4579ZM37.9059 74.344H43.7299V75.4H30.7539V74.344H36.5939V72.968H32.0179V71.96H34.1459V69.224H31.9699V68.216H42.4979V69.224H40.3379V71.96H42.4499V72.968H37.9059V74.344ZM47.5206 70.28V77.56C50.0646 77.56 51.7446 77.464 53.6806 77.096L53.8406 78.184C51.7606 78.568 50.0326 78.664 47.3126 78.664H46.2086V69.192H52.7366V70.28H47.5206ZM56.0006 67.832H57.3126V82.216H56.0006V74.12H51.8886V73.032H56.0006V67.832ZM70.2554 70.344V69.176H61.8394V68.248H71.5514V71.24H63.1674V72.472H71.8074V73.416H61.8714V70.344H70.2554ZM63.0874 79.72V81.048H72.0474V81.992H61.7914V78.808H70.3034V77.608H61.7594V76.664H71.5994V79.72H63.0874ZM60.2074 74.504H73.2154V75.496H60.2074V74.504ZM83.6243 70.392V72.216C83.6243 74.648 85.3523 77.128 87.4643 78.024L86.7283 79.08C85.0643 78.312 83.6563 76.664 82.9683 74.696C82.3123 76.792 80.9043 78.6 79.2723 79.432L78.5043 78.376C80.5683 77.4 82.3123 74.696 82.3123 72.216V70.392H78.9843V69.304H87.0003V70.392H83.6243ZM88.9363 67.848H90.2483V82.184H88.9363V67.848ZM100.887 71.56H103.719V67.848H105.047V76.392H103.719V72.632H100.887V71.56ZM101.687 74.824L101.031 75.848C99.431 75.272 98.199 74.088 97.575 72.616C96.967 74.28 95.639 75.624 93.959 76.264L93.271 75.224C95.415 74.44 96.887 72.504 96.887 70.44V69.944H93.687V68.888H101.351V69.944H98.199V70.44C98.199 72.28 99.607 74.088 101.687 74.824ZM100.311 81.16C102.471 81.16 103.783 80.552 103.783 79.512C103.783 78.472 102.471 77.848 100.311 77.848C98.151 77.848 96.839 78.472 96.839 79.512C96.839 80.552 98.151 81.16 100.311 81.16ZM100.311 76.84C103.255 76.84 105.095 77.816 105.095 79.512C105.095 81.208 103.255 82.184 100.311 82.184C97.367 82.184 95.527 81.208 95.527 79.512C95.527 77.816 97.367 76.84 100.311 76.84ZM111.494 77.768C112.598 77.768 113.398 76.856 113.398 75.576C113.398 74.328 112.598 73.416 111.494 73.416C110.374 73.416 109.59 74.328 109.59 75.576C109.59 76.856 110.374 77.768 111.494 77.768ZM111.494 72.312C113.27 72.312 114.566 73.656 114.566 75.576C114.566 77.528 113.27 78.856 111.494 78.856C109.718 78.856 108.422 77.528 108.422 75.576C108.422 73.656 109.718 72.312 111.494 72.312ZM112.134 68.248V70.28H115.046V71.352H107.926V70.28H110.838V68.248H112.134ZM118.838 67.816H120.102V82.168H118.838V74.952H116.998V81.48H115.766V68.152H116.998V73.88H118.838V67.816ZM127.685 69.064V71.64C127.685 74.248 129.317 76.856 131.397 77.848L130.628 78.888C128.997 78.072 127.685 76.36 127.029 74.344C126.405 76.472 125.077 78.28 123.461 79.144L122.661 78.104C124.741 77.064 126.373 74.296 126.373 71.64V69.064H127.685ZM133.173 67.832H134.485V82.2H133.173V73.768H129.845V72.696H133.173V67.832ZM143.053 72.12C143.053 73.464 144.141 74.392 145.597 74.392C147.101 74.392 148.173 73.464 148.173 72.12C148.173 70.792 147.101 69.88 145.597 69.88C144.141 69.88 143.053 70.792 143.053 72.12ZM146.253 75.464V77.896C147.645 77.816 149.069 77.704 150.397 77.496L150.509 78.472C147.277 79.064 143.805 79.096 141.213 79.096L141.053 77.992C142.205 77.992 143.533 77.992 144.941 77.944V75.464C143.085 75.224 141.773 73.928 141.773 72.12C141.773 70.12 143.389 68.76 145.597 68.76C147.853 68.76 149.453 70.12 149.453 72.12C149.453 73.928 148.157 75.24 146.253 75.464ZM151.341 67.816H152.653V82.216H151.341V67.816ZM163.996 74.776L163.372 75.8C161.74 75.272 160.508 74.136 159.9 72.712C159.292 74.344 157.996 75.624 156.284 76.232L155.612 75.192C157.772 74.44 159.212 72.584 159.212 70.52V69.96H155.996V68.904H163.692V69.96H160.524V70.52C160.524 72.392 161.884 74.072 163.996 74.776ZM162.252 81.128C164.364 81.128 165.66 80.536 165.66 79.512C165.66 78.504 164.364 77.912 162.252 77.912C160.108 77.912 158.828 78.504 158.828 79.512C158.828 80.536 160.108 81.128 162.252 81.128ZM162.252 76.872C165.164 76.872 166.972 77.848 166.972 79.512C166.972 81.192 165.164 82.168 162.252 82.168C159.308 82.168 157.516 81.192 157.516 79.512C157.516 77.848 159.308 76.872 162.252 76.872ZM166.812 71.464H168.94V72.568H166.812V76.504H165.5V67.848H166.812V71.464ZM174.603 77.896C175.915 77.896 176.859 76.968 176.859 75.688C176.859 74.392 175.915 73.464 174.603 73.464C173.307 73.464 172.363 74.392 172.363 75.688C172.363 76.968 173.307 77.896 174.603 77.896ZM174.603 72.376C176.651 72.376 178.107 73.752 178.107 75.688C178.107 77.64 176.651 78.984 174.603 78.984C172.587 78.984 171.131 77.64 171.131 75.688C171.131 73.752 172.587 72.376 174.603 72.376ZM175.243 68.008V70.136H178.779V71.192H170.315V70.136H173.931V68.008H175.243ZM183.803 73.736V74.84H181.451V82.184H180.139V67.848H181.451V73.736H183.803ZM196.618 74.712V75.784H186.762V69.144H196.474V70.232H188.058V74.712H196.618ZM185.098 79.16H198.122V80.248H185.098V79.16ZM201.704 69.224V77.448C203.768 77.448 205.896 77.272 208.216 76.808L208.376 77.896C205.928 78.392 203.736 78.552 201.544 78.552H200.408V69.224H201.704ZM213.176 73.56V74.648H210.872V82.184H209.56V67.832H210.872V73.56H213.176ZM220.129 69.368V77.416C221.665 77.4 223.105 77.304 224.769 76.968L224.945 78.072C223.073 78.456 221.473 78.552 219.745 78.552H218.833V69.368H220.129ZM226.017 72.648V68.184H227.265V81.464H226.017V73.736H222.817V72.648H226.017ZM229.073 67.816H230.321V82.184H229.073V67.816ZM244.368 75.576V76.632H234.512V69.08H244.224V70.136H235.84V72.264H243.904V73.304H235.84V75.576H244.368ZM232.832 79.256H245.856V80.328H232.832V79.256ZM252.191 69.56C250.799 69.56 249.823 70.296 249.823 71.368C249.823 72.472 250.799 73.192 252.191 73.192C253.583 73.192 254.559 72.472 254.559 71.368C254.559 70.296 253.583 69.56 252.191 69.56ZM252.191 74.2C250.063 74.2 248.591 73.064 248.591 71.368C248.591 69.688 250.063 68.552 252.191 68.552C254.319 68.552 255.791 69.688 255.791 71.368C255.791 73.064 254.319 74.2 252.191 74.2ZM256.959 74.92L257.039 75.896C255.631 76.136 254.191 76.28 252.783 76.36V81.752H251.471V76.424C250.111 76.472 248.815 76.488 247.679 76.488L247.519 75.384C250.223 75.384 253.839 75.368 256.959 74.92ZM258.047 67.848H259.359V82.2H258.047V78.664H254.799V77.64H258.047V67.848ZM263.47 73.656L272.366 73.272C272.398 72.52 272.398 71.784 272.398 71.048V70.36H263.838V69.288H273.678V71.048C273.678 73.176 273.678 75.112 273.054 78.056L271.758 77.928C272.078 76.552 272.238 75.368 272.318 74.264L263.662 74.744L263.47 73.656ZM262.302 79.112H275.278V80.184H262.302V79.112ZM285.542 70.376V72.04C285.542 74.424 287.222 77.032 289.302 78.024L288.518 79.048C286.918 78.232 285.542 76.52 284.886 74.536C284.262 76.648 282.87 78.488 281.238 79.352L280.47 78.312C282.518 77.304 284.23 74.584 284.23 72.04V70.376H280.982V69.304H288.806V70.376H285.542ZM291.094 67.832H292.406V82.2H291.094V74.12H287.99V73.048H291.094V67.832ZM303.621 74.776L302.997 75.8C301.365 75.272 300.133 74.136 299.525 72.712C298.917 74.344 297.621 75.624 295.909 76.232L295.237 75.192C297.397 74.44 298.837 72.584 298.837 70.52V69.96H295.621V68.904H303.317V69.96H300.149V70.52C300.149 72.392 301.509 74.072 303.621 74.776ZM301.877 81.128C303.989 81.128 305.285 80.536 305.285 79.512C305.285 78.504 303.989 77.912 301.877 77.912C299.733 77.912 298.453 78.504 298.453 79.512C298.453 80.536 299.733 81.128 301.877 81.128ZM301.877 76.872C304.789 76.872 306.597 77.848 306.597 79.512C306.597 81.192 304.789 82.168 301.877 82.168C298.933 82.168 297.141 81.192 297.141 79.512C297.141 77.848 298.933 76.872 301.877 76.872ZM306.437 71.464H308.565V72.568H306.437V76.504H305.125V67.848H306.437V71.464ZM318.34 74.776L317.716 75.8C316.084 75.272 314.852 74.136 314.244 72.712C313.636 74.344 312.34 75.624 310.628 76.232L309.956 75.192C312.116 74.44 313.556 72.584 313.556 70.52V69.96H310.34V68.904H318.036V69.96H314.868V70.52C314.868 72.392 316.228 74.072 318.34 74.776ZM316.596 81.128C318.708 81.128 320.004 80.536 320.004 79.512C320.004 78.504 318.708 77.912 316.596 77.912C314.452 77.912 313.172 78.504 313.172 79.512C313.172 80.536 314.452 81.128 316.596 81.128ZM316.596 76.872C319.508 76.872 321.316 77.848 321.316 79.512C321.316 81.192 319.508 82.168 316.596 82.168C313.652 82.168 311.86 81.192 311.86 79.512C311.86 77.848 313.652 76.872 316.596 76.872ZM321.156 71.464H323.284V72.568H321.156V76.504H319.844V67.848H321.156V71.464ZM330.019 71.368V72.472C330.019 74.872 331.651 77.208 333.779 78.136L333.059 79.16C331.411 78.408 330.051 76.856 329.395 74.968C328.755 76.968 327.395 78.6 325.747 79.4L325.011 78.408C327.139 77.4 328.723 74.984 328.723 72.472V71.368H325.395V70.312H328.707V68.088H330.035V70.312H333.299V71.368H330.019ZM335.171 67.816H336.499V82.168H335.171V67.816ZM354.508 72.232V73.288H344.668V68.408H354.412V69.464H345.98V72.232H354.508ZM349.516 81.144C351.756 81.144 353.1 80.584 353.1 79.576C353.1 78.568 351.772 78.008 349.516 78.008C347.26 78.008 345.932 78.568 345.932 79.576C345.932 80.584 347.26 81.144 349.516 81.144ZM349.516 76.984C352.572 76.984 354.428 77.912 354.428 79.576C354.428 81.24 352.572 82.168 349.516 82.168C346.46 82.168 344.604 81.24 344.604 79.576C344.604 77.912 346.46 76.984 349.516 76.984ZM343.036 74.664H356.028V75.752H343.036V74.664ZM361.002 77.816C362.122 77.816 362.858 76.36 362.858 74.008C362.858 71.704 362.122 70.248 361.002 70.248C359.85 70.248 359.13 71.704 359.13 74.008C359.13 76.36 359.85 77.816 361.002 77.816ZM365.85 73.416V68.152H367.098V81.48H365.85V74.488H364.042C363.93 77.304 362.762 79.032 361.002 79.032C359.13 79.032 357.93 77.112 357.93 74.008C357.93 70.952 359.13 69.032 361.002 69.032C362.73 69.032 363.882 70.712 364.042 73.416H365.85ZM368.698 67.832H369.946V82.184H368.698V67.832ZM380.883 70.392V72.216C380.883 74.504 382.515 77.048 384.595 78.024L383.843 79.08C382.243 78.28 380.899 76.6 380.243 74.68C379.587 76.776 378.195 78.6 376.579 79.432L375.811 78.392C377.859 77.368 379.587 74.648 379.587 72.216V70.392H376.307V69.304H384.067V70.392H380.883ZM389.459 73.624V74.728H387.091V82.184H385.779V67.848H387.091V73.624H389.459ZM397.266 81.16C399.506 81.16 400.834 80.6 400.834 79.592C400.834 78.584 399.506 78.024 397.266 78.024C394.994 78.024 393.666 78.584 393.666 79.592C393.666 80.6 394.994 81.16 397.266 81.16ZM397.266 77C400.306 77 402.162 77.928 402.162 79.592C402.162 81.256 400.306 82.184 397.266 82.184C394.194 82.184 392.338 81.256 392.338 79.592C392.338 77.928 394.194 77 397.266 77ZM397.922 74.92H403.762V75.976H390.77V74.92H396.61V73.256H392.402V68.488H402.146V69.544H393.714V72.2H402.242V73.256H397.922V74.92ZM406.689 73.784L406.225 72.744C408.769 72.472 411.073 71.224 411.137 69.624H406.689V68.568H417.297V69.624H412.833C412.897 71.224 415.201 72.472 417.745 72.744L417.281 73.784C414.929 73.496 412.769 72.456 411.985 70.888C411.185 72.456 409.041 73.496 406.689 73.784ZM411.969 81.128C414.209 81.128 415.553 80.568 415.553 79.56C415.553 78.568 414.209 77.992 411.969 77.992C409.713 77.992 408.385 78.568 408.385 79.56C408.385 80.568 409.713 81.128 411.969 81.128ZM411.969 76.968C415.025 76.968 416.881 77.896 416.881 79.56C416.881 81.24 415.025 82.168 411.969 82.168C408.897 82.168 407.057 81.24 407.057 79.56C407.057 77.896 408.897 76.968 411.969 76.968ZM405.489 74.664H418.465V75.72H405.489V74.664ZM430.191 72.984V71.128H423.215V72.984H430.191ZM431.487 68.28V74.024H421.919V68.28H423.215V70.12H430.191V68.28H431.487ZM423.135 77.96V80.792H431.759V81.864H421.839V77.96H423.135ZM420.175 75.416H433.215V76.472H427.455V79.256H426.143V76.472H420.175V75.416ZM439.902 74.376V72.056H436.814V74.376H439.902ZM441.134 68.76V75.432H435.566V68.76H436.814V71.016H439.902V68.76H441.134ZM437.39 78.376V77.32H447.038V82.184H445.726V78.376H437.39ZM445.774 67.848H447.038V76.44H445.774V72.648H443.95V76.376H442.702V68.104H443.95V71.576H445.774V67.848ZM460.157 80.936V79.08H453.581V80.936H460.157ZM460.157 78.056V76.232H461.469V81.992H452.285V76.232H453.581V78.056H460.157ZM453.565 74.056C454.989 74.056 456.013 73.128 456.013 71.816C456.013 70.504 454.989 69.592 453.565 69.592C452.141 69.592 451.117 70.504 451.117 71.816C451.117 73.128 452.141 74.056 453.565 74.056ZM460.141 67.848H461.469V75.544H460.141V72.328H457.229C456.973 74.024 455.533 75.144 453.565 75.144C451.421 75.144 449.869 73.8 449.869 71.816C449.869 69.848 451.421 68.504 453.565 68.504C455.501 68.504 456.941 69.592 457.213 71.256H460.141V67.848Z" fill="black" fill-opacity="0.65"/>
</svg>
