<svg width="251" height="86" viewBox="0 0 251 86" fill="none" xmlns="http://www.w3.org/2000/svg">
<path d="M3.822 74V42.878H14.028C20.916 42.878 26.208 45.314 26.208 52.664C26.208 59.762 20.874 62.954 14.196 62.954H10.038V74H3.822ZM10.038 58.04H13.776C18.06 58.04 20.118 56.234 20.118 52.664C20.118 49.052 17.85 47.834 13.566 47.834H10.038V58.04ZM38.8333 74.588C32.2393 74.588 27.1153 70.01 27.1153 62.24C27.1153 54.638 32.4913 49.892 38.0773 49.892C44.5453 49.892 47.9053 54.638 47.9053 61.106C47.9053 62.282 47.7793 63.416 47.6113 63.962H33.1213C33.6253 67.826 36.1453 69.842 39.6313 69.842C41.5633 69.842 43.2433 69.254 44.9233 68.204L47.0233 71.984C44.7133 73.58 41.7313 74.588 38.8333 74.588ZM33.0373 59.846H42.6133C42.6133 56.696 41.1853 54.68 38.1613 54.68C35.6833 54.68 33.4993 56.444 33.0373 59.846ZM51.3096 74V50.48H56.3496L56.8116 54.638H56.9376C58.6596 51.572 61.1796 49.892 63.6156 49.892C64.9176 49.892 65.6736 50.102 66.3876 50.396L65.3376 55.73C64.4976 55.478 63.8256 55.352 62.8596 55.352C61.0116 55.352 58.7856 56.57 57.4836 59.972V74H51.3096ZM68.9725 74V55.352H65.8225V50.774L68.9725 50.522V48.59C68.9725 43.676 71.2405 39.896 77.1625 39.896C78.9685 39.896 80.5645 40.316 81.6145 40.694L80.4805 45.272C79.6825 44.936 78.7585 44.768 78.0025 44.768C76.1545 44.768 75.1465 45.86 75.1465 48.464V50.48H79.5565V55.352H75.1465V74H68.9725ZM91.2053 74.588C85.3253 74.588 79.9073 70.052 79.9073 62.24C79.9073 54.428 85.3253 49.892 91.2053 49.892C97.0853 49.892 102.503 54.428 102.503 62.24C102.503 70.052 97.0853 74.588 91.2053 74.588ZM91.2053 69.548C94.3973 69.548 96.2033 66.692 96.2033 62.24C96.2033 57.83 94.3973 54.932 91.2053 54.932C88.0133 54.932 86.2073 57.83 86.2073 62.24C86.2073 66.692 88.0133 69.548 91.2053 69.548ZM105.988 74V50.48H111.028L111.49 54.638H111.616C113.338 51.572 115.858 49.892 118.294 49.892C119.596 49.892 120.352 50.102 121.066 50.396L120.016 55.73C119.176 55.478 118.504 55.352 117.538 55.352C115.69 55.352 113.464 56.57 112.162 59.972V74H105.988ZM122.601 74V50.48H127.641L128.103 53.63H128.229C130.203 51.572 132.387 49.892 135.453 49.892C138.813 49.892 140.787 51.404 141.921 54.008C144.063 51.74 146.331 49.892 149.397 49.892C154.395 49.892 156.705 53.42 156.705 59.342V74H150.531V60.098C150.531 56.444 149.481 55.184 147.255 55.184C145.911 55.184 144.399 56.066 142.719 57.83V74H136.587V60.098C136.587 56.444 135.495 55.184 133.269 55.184C131.925 55.184 130.413 56.066 128.775 57.83V74H122.601ZM167.2 74.588C163 74.588 160.228 71.606 160.228 67.616C160.228 62.576 164.302 59.93 173.794 58.922C173.668 56.612 172.66 54.848 169.762 54.848C167.578 54.848 165.478 55.814 163.294 57.074L161.068 53C163.84 51.278 167.2 49.892 170.896 49.892C176.86 49.892 179.926 53.462 179.926 60.266V74H174.886L174.466 71.48H174.298C172.24 73.244 169.888 74.588 167.2 74.588ZM169.216 69.758C170.98 69.758 172.282 68.918 173.794 67.448V62.702C168.04 63.416 166.108 65.012 166.108 67.112C166.108 68.96 167.41 69.758 169.216 69.758ZM184.538 74V50.48H189.578L190.04 53.588H190.166C192.224 51.572 194.618 49.892 197.81 49.892C202.892 49.892 205.076 53.42 205.076 59.342V74H198.902V60.098C198.902 56.444 197.894 55.184 195.584 55.184C193.652 55.184 192.434 56.108 190.712 57.83V74H184.538ZM219.76 74.588C213.25 74.588 208.294 70.052 208.294 62.24C208.294 54.428 213.922 49.892 220.306 49.892C223.204 49.892 225.43 51.026 227.152 52.496L224.212 56.486C223.036 55.478 221.944 54.932 220.642 54.932C217.03 54.932 214.594 57.83 214.594 62.24C214.594 66.692 217.072 69.548 220.432 69.548C222.112 69.548 223.708 68.75 225.01 67.658L227.488 71.732C225.22 73.706 222.364 74.588 219.76 74.588ZM239.209 74.588C232.615 74.588 227.491 70.01 227.491 62.24C227.491 54.638 232.867 49.892 238.453 49.892C244.921 49.892 248.281 54.638 248.281 61.106C248.281 62.282 248.155 63.416 247.987 63.962H233.497C234.001 67.826 236.521 69.842 240.007 69.842C241.939 69.842 243.619 69.254 245.299 68.204L247.399 71.984C245.089 73.58 242.107 74.588 239.209 74.588ZM233.413 59.846H242.989C242.989 56.696 241.561 54.68 238.537 54.68C236.059 54.68 233.875 56.444 233.413 59.846Z" fill="#002197"/>
<path d="M12.608 4.848V12.272H11.296V4.848H12.608ZM9.536 10.832L8.88 11.856C7.232 11.28 5.92 10.08 5.264 8.56C4.64 10.208 3.312 11.52 1.616 12.128L0.944 11.104C3.104 10.352 4.592 8.432 4.592 6.352V5.264H5.904V6.352C5.904 8.336 7.408 10.128 9.536 10.832ZM4.656 17.984H13.104V19.024H3.36V15.456H11.328V14.016H3.328V12.992H12.624V16.448H4.656V17.984ZM24.0308 11.84L23.3748 12.864C21.7748 12.288 20.5428 11.104 19.9028 9.616C19.2948 11.264 17.9828 12.576 16.3028 13.2L15.6148 12.16C17.7428 11.408 19.2308 9.488 19.2308 7.456V6.88H16.0308V5.808H23.6948V6.88H20.5428V7.456C20.5428 9.296 21.9508 11.104 24.0308 11.84ZM17.7908 15.264V14.208H27.3908V19.2H26.0628V15.264H17.7908ZM26.0628 4.832H27.3908V13.424H26.0628V9.648H23.2628V8.576H26.0628V4.832Z" fill="#002197"/>
</svg>
