<svg width="522" height="511" viewBox="0 0 522 511" fill="none" xmlns="http://www.w3.org/2000/svg">
<path d="M220.608 16L220.986 12.808H219.754V11.912H221.098L221.392 9.588H220.062V8.706H221.49L221.854 5.822H222.68L222.33 8.706H224.402L224.78 5.822H225.606L225.242 8.706H226.502V9.588H225.144L224.85 11.912H226.18V12.808H224.738L224.36 16H223.52L223.898 12.808H221.826L221.434 16H220.608ZM221.938 11.912H224.01L224.304 9.588H222.218L221.938 11.912ZM231.622 6.718V8.314C231.622 10.442 233.134 12.612 234.982 13.396L234.338 14.32C232.882 13.648 231.65 12.206 231.048 10.484C230.474 12.318 229.242 13.9 227.814 14.628L227.142 13.704C228.948 12.85 230.474 10.484 230.474 8.314V6.718H227.562V5.766H234.576V6.718H231.622ZM236.27 4.492H237.418V17.036H236.27V4.492ZM246.04 11.898H248.588V4.478H249.736V14.04H248.588V12.752H246.04V11.898ZM243.478 5.836C242.288 5.836 241.476 6.368 241.476 7.166C241.476 7.978 242.288 8.51 243.478 8.51C244.668 8.51 245.48 7.978 245.48 7.166C245.48 6.368 244.668 5.836 243.478 5.836ZM243.478 9.364C241.644 9.364 240.384 8.51 240.384 7.166C240.384 5.85 241.644 4.982 243.478 4.982C245.312 4.982 246.572 5.85 246.572 7.166C246.572 8.51 245.312 9.364 243.478 9.364ZM243.03 13.592V11.17C241.784 11.226 240.58 11.24 239.544 11.24L239.39 10.288C241.714 10.288 244.822 10.26 247.482 9.924L247.58 10.75C246.474 10.918 245.312 11.044 244.178 11.114V13.592H243.03ZM242.33 15.818H250.058V16.756H241.182V13.102H242.33V15.818ZM258.564 5.57V7.824C258.564 10.036 259.992 12.318 261.756 13.2L261.042 14.11C259.712 13.396 258.578 11.926 258.004 10.204C257.458 12.038 256.296 13.606 254.882 14.362L254.196 13.438C256.002 12.514 257.43 10.106 257.43 7.824V5.57H258.564ZM266.082 9.574V10.526H264.01V17.036H262.862V4.492H264.01V9.574H266.082ZM275.867 15.944V14.32H270.113V15.944H275.867ZM275.867 13.424V11.828H277.015V16.868H268.979V11.828H270.113V13.424H275.867ZM270.099 9.924C271.345 9.924 272.241 9.112 272.241 7.964C272.241 6.816 271.345 6.018 270.099 6.018C268.853 6.018 267.957 6.816 267.957 7.964C267.957 9.112 268.853 9.924 270.099 9.924ZM275.853 4.492H277.015V11.226H275.853V8.412H273.305C273.081 9.896 271.821 10.876 270.099 10.876C268.223 10.876 266.865 9.7 266.865 7.964C266.865 6.242 268.223 5.066 270.099 5.066C271.793 5.066 273.053 6.018 273.291 7.474H275.853V4.492Z" fill="#0032E1"/>
<path d="M457.414 149L457.792 145.808H456.56V144.912H457.904L458.198 142.588H456.868V141.706H458.296L458.66 138.822H459.486L459.136 141.706H461.208L461.586 138.822H462.412L462.048 141.706H463.308V142.588H461.95L461.656 144.912H462.986V145.808H461.544L461.166 149H460.326L460.704 145.808H458.632L458.24 149H457.414ZM458.744 144.912H460.816L461.11 142.588H459.024L458.744 144.912ZM466.426 141.552V143.862H472.838V141.552H466.426ZM470.206 147.488H475.33V148.426H463.948V147.488H469.044V144.786H465.292V138.374H466.426V140.614H472.838V138.374H473.958V144.786H470.206V147.488ZM477.625 141.454C477.625 142.686 478.549 143.554 479.781 143.554C481.013 143.554 481.937 142.686 481.937 141.454C481.937 140.222 481.013 139.354 479.781 139.354C478.549 139.354 477.625 140.222 477.625 141.454ZM483.057 141.454C483.057 143.274 481.657 144.548 479.781 144.548C477.905 144.548 476.505 143.274 476.505 141.454C476.505 139.634 477.905 138.36 479.781 138.36C481.657 138.36 483.057 139.634 483.057 141.454ZM479.347 145.78V148.818H486.571V149.756H478.199V145.78H479.347ZM486.011 141.3H487.859V142.252H486.011V146.718H484.863V137.478H486.011V141.3Z" fill="#0032E1"/>
<path d="M457.191 372L457.569 368.808H456.337V367.912H457.681L457.975 365.588H456.645V364.706H458.073L458.437 361.822H459.263L458.913 364.706H460.985L461.363 361.822H462.189L461.825 364.706H463.085V365.588H461.727L461.433 367.912H462.763V368.808H461.321L460.943 372H460.103L460.481 368.808H458.409L458.017 372H457.191ZM458.521 367.912H460.593L460.887 365.588H458.801L458.521 367.912ZM470.781 361.766V362.69H463.753V361.766H466.749V360.366H467.897V361.766H470.781ZM465.545 365.728C465.545 366.61 466.273 367.184 467.309 367.184C468.345 367.184 469.073 366.61 469.073 365.728C469.073 364.86 468.345 364.272 467.309 364.272C466.273 364.272 465.545 364.86 465.545 365.728ZM470.151 365.728C470.151 367.128 468.961 368.08 467.309 368.08C465.657 368.08 464.467 367.128 464.467 365.728C464.467 364.328 465.657 363.376 467.309 363.376C468.961 363.376 470.151 364.328 470.151 365.728ZM465.685 370.096V369.172H474.071V373.036H472.909V370.096H465.685ZM472.909 360.492H474.071V368.458H472.909V366.848H470.767V365.924H472.909V364.496H470.781V363.558H472.909V360.492ZM486.348 360.478V369.69H485.2V360.478H486.348ZM483.604 366.736L483.002 367.646C481.574 367.1 480.468 365.966 479.908 364.538C479.376 366.064 478.242 367.282 476.772 367.898L476.17 366.96C478.06 366.232 479.32 364.412 479.32 362.452V361.178H480.468V362.452C480.468 364.342 481.742 366.05 483.604 366.736ZM479.418 371.818H486.726V372.756H478.27V368.836H479.418V371.818Z" fill="#0032E1"/>
<path d="M13.8017 371L14.1797 367.808H12.9477V366.912H14.2917L14.5857 364.588H13.2557V363.706H14.6837L15.0477 360.822H15.8737L15.5237 363.706H17.5957L17.9737 360.822H18.7997L18.4357 363.706H19.6957V364.588H18.3377L18.0437 366.912H19.3737V367.808H17.9317L17.5537 371H16.7137L17.0917 367.808H15.0197L14.6277 371H13.8017ZM15.1317 366.912H17.2037L17.4977 364.588H15.4117L15.1317 366.912ZM24.6893 365.204V363.174H21.9873V365.204H24.6893ZM25.7673 360.29V366.128H20.8953V360.29H21.9873V362.264H24.6893V360.29H25.7673ZM22.4913 368.704V367.78H30.9333V372.036H29.7853V368.704H22.4913ZM29.8273 359.492H30.9333V367.01H29.8273V363.692H28.2313V366.954H27.1393V359.716H28.2313V362.754H29.8273V359.492ZM41.8522 370.944V369.32H36.0982V370.944H41.8522ZM41.8522 368.424V366.828H43.0002V371.868H34.9642V366.828H36.0982V368.424H41.8522ZM36.0842 364.924C37.3302 364.924 38.2262 364.112 38.2262 362.964C38.2262 361.816 37.3302 361.018 36.0842 361.018C34.8382 361.018 33.9422 361.816 33.9422 362.964C33.9422 364.112 34.8382 364.924 36.0842 364.924ZM41.8382 359.492H43.0002V366.226H41.8382V363.412H39.2902C39.0662 364.896 37.8062 365.876 36.0842 365.876C34.2082 365.876 32.8502 364.7 32.8502 362.964C32.8502 361.242 34.2082 360.066 36.0842 360.066C37.7782 360.066 39.0382 361.018 39.2762 362.474H41.8382V359.492Z" fill="#0032E1"/>
<path d="M1.69166 148L2.06966 144.808H0.837657V143.912H2.18166L2.47566 141.588H1.14566V140.706H2.57366L2.93766 137.822H3.76366L3.41366 140.706H5.48566L5.86366 137.822H6.68966L6.32566 140.706H7.58566V141.588H6.22766L5.93366 143.912H7.26366V144.808H5.82166L5.44366 148H4.60366L4.98166 144.808H2.90966L2.51766 148H1.69166ZM3.02166 143.912H5.09366L5.38766 141.588H3.30166L3.02166 143.912ZM18.9353 140.09L18.5433 140.986C16.5553 140.72 14.6933 139.852 13.8953 138.508C13.1113 139.852 11.2353 140.72 9.24728 140.986L8.85528 140.09C11.1653 139.838 13.3073 138.648 13.3073 137.038V136.576H14.4833V137.038C14.4833 138.648 16.6253 139.838 18.9353 140.09ZM10.7453 146.782V148H18.5013V148.896H9.62528V145.942H16.9893V144.78H9.58328V143.912H18.1233V146.782H10.7453ZM14.4693 141.952H19.5793V142.876H8.21128V141.952H13.3213V140.328H14.4693V141.952ZM29.3922 139.376V137.892H21.8882V136.982H30.5542V140.258H23.0782V141.868H30.8342V142.806H21.9302V139.376H29.3922ZM31.9262 144.094V145.032H26.7882V149.05H25.6402V145.032H20.5302V144.094H31.9262ZM42.0471 145.858V141.854H39.5131V140.916H42.0471V139.264H39.5131V138.34H42.0471V136.478H43.2091V145.858H42.0471ZM40.1851 143.072L39.5551 143.982C38.1971 143.408 37.1331 142.274 36.5871 140.874C36.0691 142.386 34.9631 143.59 33.4931 144.192L32.8771 143.282C34.7531 142.554 36.0131 140.762 36.0131 138.788V137.178H37.1611V138.788C37.1611 140.636 38.3791 142.358 40.1851 143.072ZM36.2791 147.818H43.5031V148.756H35.1311V144.906H36.2791V147.818Z" fill="#0032E1"/>
<path d="M220.608 506.561L220.986 503.369H219.754V502.473H221.098L221.392 500.149H220.062V499.267H221.49L221.854 496.383H222.68L222.33 499.267H224.402L224.78 496.383H225.606L225.242 499.267H226.502V500.149H225.144L224.85 502.473H226.18V503.369H224.738L224.36 506.561H223.52L223.898 503.369H221.826L221.434 506.561H220.608ZM221.938 502.473H224.01L224.304 500.149H222.218L221.938 502.473ZM233.848 498.301H236.326V495.053H237.488V502.529H236.326V499.239H233.848V498.301ZM234.548 501.157L233.974 502.053C232.574 501.549 231.496 500.513 230.95 499.225C230.418 500.681 229.256 501.857 227.786 502.417L227.184 501.507C229.06 500.821 230.348 499.127 230.348 497.321V496.887H227.548V495.963H234.254V496.887H231.496V497.321C231.496 498.931 232.728 500.513 234.548 501.157ZM233.344 506.701C235.234 506.701 236.382 506.169 236.382 505.259C236.382 504.349 235.234 503.803 233.344 503.803C231.454 503.803 230.306 504.349 230.306 505.259C230.306 506.169 231.454 506.701 233.344 506.701ZM233.344 502.921C235.92 502.921 237.53 503.775 237.53 505.259C237.53 506.743 235.92 507.597 233.344 507.597C230.768 507.597 229.158 506.743 229.158 505.259C229.158 503.775 230.768 502.921 233.344 502.921ZM241.938 499.113V501.423H248.35V499.113H241.938ZM245.718 505.049H250.842V505.987H239.46V505.049H244.556V502.347H240.804V495.935H241.938V498.175H248.35V495.935H249.47V502.347H245.718V505.049ZM256.828 499.113V501.423H263.24V499.113H256.828ZM260.608 505.049H265.732V505.987H254.35V505.049H259.446V502.347H255.694V495.935H256.828V498.175H263.24V495.935H264.36V502.347H260.608V505.049ZM277.421 496.873V497.811H267.229V496.873H271.779V495.235H272.927V496.873H277.421ZM269.385 501.045C269.385 501.983 270.519 502.543 272.353 502.543C274.159 502.543 275.279 501.983 275.279 501.045C275.279 500.121 274.159 499.561 272.353 499.561C270.519 499.561 269.385 500.121 269.385 501.045ZM272.927 505.189H278.051V506.127H266.669V505.189H271.779V503.425C269.567 503.299 268.223 502.445 268.223 501.045C268.223 499.533 269.805 498.665 272.353 498.665C274.859 498.665 276.441 499.533 276.441 501.045C276.441 502.445 275.111 503.285 272.927 503.425V505.189Z" fill="#0032E1"/>
<path d="M280.628 277.617V243.654L251.189 226.673L221.749 243.654V277.617L251.189 294.599L280.628 277.617Z" fill="#0032E1" fill-opacity="0.97"/>
<path d="M433.95 362.734L431.027 147.82L251.189 40.5018L95.0837 160.904L68.4977 356.262L251.189 467.756L433.95 362.734Z" stroke="white" stroke-width="2" stroke-miterlimit="10"/>
<path d="M431.444 361.342L428.521 149.42L251.189 43.564L97.102 162.226L71.0032 354.939L251.189 464.972L431.444 361.342Z" stroke="#0032E1" stroke-opacity="0.02" stroke-width="2" stroke-miterlimit="10"/>
<path d="M428.939 359.95L426.085 151.021L251.189 46.6263L99.1898 163.618L73.4391 353.687L251.189 462.118L428.939 359.95Z" stroke="#0032E1" stroke-opacity="0.02" stroke-width="2" stroke-miterlimit="10"/>
<path d="M426.364 358.558L423.58 152.622L251.189 49.6885L101.278 164.94L75.9446 352.434L251.189 459.265L426.364 358.558Z" stroke="#0032E1" stroke-opacity="0.05" stroke-width="2" stroke-miterlimit="10"/>
<path d="M423.858 357.166L421.074 154.153L251.119 52.7507L103.296 166.332L78.4501 351.111L251.119 456.481L423.858 357.166Z" stroke="#0032E1" stroke-opacity="0.05" stroke-width="2" stroke-miterlimit="10"/>
<path d="M421.353 355.775L418.638 155.754L251.119 55.813L105.384 167.724L80.9555 349.859L251.119 453.627L421.353 355.775Z" stroke="#0032E1" stroke-opacity="0.1" stroke-width="2" stroke-miterlimit="10"/>
<path d="M418.847 354.383L416.133 157.355L251.119 58.8752L107.472 169.047L83.461 348.536L251.119 450.774L418.847 354.383Z" stroke="#0032E1" stroke-opacity="0.1" stroke-width="2" stroke-miterlimit="10"/>
<path d="M416.272 352.991L413.697 158.886L251.119 61.9375L109.49 170.439L85.9665 347.284L251.119 447.99L416.272 352.991Z" stroke="#0032E1" stroke-opacity="0.1" stroke-width="2" stroke-miterlimit="10"/>
<path d="M413.767 351.599L411.192 160.486L251.119 64.9998L111.578 171.831L88.472 346.031L251.119 445.137L413.767 351.599Z" stroke="#0032E1" stroke-opacity="0.15" stroke-width="2" stroke-miterlimit="10"/>
<path d="M411.261 350.207L408.686 162.087L251.119 68.062L113.666 173.153L90.9775 344.709L251.119 442.283L411.261 350.207Z" stroke="#0032E1" stroke-opacity="0.15" stroke-width="2" stroke-miterlimit="10"/>
<path d="M408.686 348.815L406.25 163.618L251.05 71.1243L115.684 174.545L93.4829 343.456L251.05 439.499L408.686 348.815Z" stroke="#0032E1" stroke-opacity="0.15" stroke-width="2" stroke-miterlimit="10"/>
<path d="M406.181 347.423L403.745 165.219L251.05 74.1865L117.772 175.867L95.9884 342.134L251.05 436.646L406.181 347.423Z" stroke="#0032E1" stroke-opacity="0.15" stroke-width="2" stroke-miterlimit="10"/>
<path d="M403.675 346.101L401.309 166.82L251.05 77.2488L119.86 177.259L98.4939 340.881L251.05 433.792L403.675 346.101Z" stroke="#0032E1" stroke-opacity="0.2" stroke-width="2" stroke-miterlimit="10"/>
<path d="M401.17 344.709L398.803 168.351L251.05 80.311L121.948 178.651L100.999 339.628L251.05 431.008L401.17 344.709Z" stroke="#0032E1" stroke-opacity="0.2" stroke-width="2" stroke-miterlimit="10"/>
<path d="M398.595 343.317L396.298 169.952L251.05 83.3733L123.966 179.973L103.505 338.306L251.05 428.155L398.595 343.317Z" stroke="#0032E1" stroke-opacity="0.2" stroke-width="2" stroke-miterlimit="10"/>
<path d="M396.089 341.925L393.862 171.552L251.05 86.4355L126.054 181.365L106.01 337.053L251.05 425.302L396.089 341.925Z" stroke="#0032E1" stroke-opacity="0.2" stroke-width="2" stroke-miterlimit="10"/>
<path d="M393.584 340.533L391.357 173.083L251.05 89.4977L128.142 182.688L108.516 335.731L251.05 422.518L393.584 340.533Z" stroke="#0032E1" stroke-opacity="0.25" stroke-width="2" stroke-miterlimit="10"/>
<path d="M391.009 339.141L388.921 174.684L250.98 92.5601L130.16 184.08L111.021 334.478L250.98 419.664L391.009 339.141Z" stroke="#0032E1" stroke-opacity="0.25" stroke-width="2" stroke-miterlimit="10"/>
<path d="M388.503 337.749L386.415 176.285L250.98 95.6223L132.248 185.471L113.527 333.225L250.98 416.811L388.503 337.749Z" stroke="#0032E1" stroke-opacity="0.25" stroke-width="2" stroke-miterlimit="10"/>
<path d="M385.998 336.357L383.91 177.886L250.98 98.6845L134.336 186.794L116.032 331.903L250.98 414.027L385.998 336.357Z" stroke="#0032E1" stroke-opacity="0.25" stroke-width="2" stroke-miterlimit="10"/>
<path d="M383.492 334.965L381.474 179.417L250.98 101.747L136.354 188.186L118.538 330.65L250.98 411.173L383.492 334.965Z" stroke="#0032E1" stroke-opacity="0.25" stroke-width="2" stroke-miterlimit="10"/>
<path d="M380.917 333.573L378.968 181.017L250.98 104.809L138.442 189.578L121.043 329.328L250.98 408.32L380.917 333.573Z" stroke="#0032E1" stroke-opacity="0.3" stroke-width="2" stroke-miterlimit="10"/>
<path d="M378.412 332.181L376.532 182.618L250.98 107.871L140.53 190.9L123.479 328.075L250.98 405.536L378.412 332.181Z" stroke="#0032E1" stroke-opacity="0.3" stroke-width="2" stroke-miterlimit="10"/>
<path d="M375.906 330.789L374.027 184.149L250.911 110.934L142.549 192.292L125.985 326.822L250.911 402.683L375.906 330.789Z" stroke="#0032E1" stroke-opacity="0.3" stroke-width="2" stroke-miterlimit="10"/>
<path d="M373.331 329.397L371.591 185.75L250.911 113.996L144.636 193.614L128.49 325.5L250.911 399.829L373.331 329.397Z" stroke="#0032E1" stroke-opacity="0.3" stroke-width="2" stroke-miterlimit="10"/>
<path d="M370.826 328.075L369.086 187.351L250.911 116.988L146.724 195.006L130.996 324.247L250.911 397.045L370.826 328.075Z" stroke="#0032E1" stroke-opacity="0.4" stroke-width="2" stroke-miterlimit="10"/>
<path d="M368.32 326.683L366.58 188.882L250.911 120.051L148.743 196.398L133.501 322.925L250.911 394.192L368.32 326.683Z" stroke="#0032E1" stroke-opacity="0.4" stroke-width="2" stroke-miterlimit="10"/>
<path d="M365.815 325.291L364.144 190.482L250.911 123.113L150.831 197.721L136.006 321.672L250.911 391.338L365.815 325.291Z" stroke="#0032E1" stroke-opacity="0.4" stroke-width="2" stroke-miterlimit="10"/>
<path d="M363.239 323.899L361.639 192.083L250.911 126.175L152.918 199.112L138.512 320.419L250.911 388.554L363.239 323.899Z" stroke="#0032E1" stroke-opacity="0.4" stroke-width="2" stroke-miterlimit="10"/>
<path d="M360.734 322.507L359.203 193.614L250.841 129.237L154.937 200.504L141.017 319.097L250.841 385.701L360.734 322.507Z" stroke="#0032E1" stroke-opacity="0.4" stroke-width="2" stroke-miterlimit="10"/>
<path d="M358.229 321.115L356.697 195.215L250.841 132.3L157.025 201.827L143.523 317.844L250.841 382.848L358.229 321.115Z" stroke="#0032E1" stroke-opacity="0.4" stroke-width="2" stroke-miterlimit="10"/>
<path d="M355.653 319.723L354.192 196.816L250.841 135.362L159.113 203.219L146.028 316.522L250.841 380.064L355.653 319.723Z" stroke="#0032E1" stroke-opacity="0.4" stroke-width="2" stroke-miterlimit="10"/>
<path d="M353.148 318.331L351.756 198.347L250.841 138.424L161.2 204.541L148.534 315.269L250.841 377.21L353.148 318.331Z" stroke="#0032E1" stroke-opacity="0.4" stroke-width="2" stroke-miterlimit="10"/>
<path d="M350.642 316.94L349.251 199.948L250.841 141.486L163.219 205.933L151.039 314.016L250.841 374.357L350.642 316.94Z" stroke="#0032E1" stroke-opacity="0.5" stroke-width="2" stroke-miterlimit="10"/>
<path d="M348.137 315.548L346.815 201.548L250.841 144.549L165.307 207.325L153.545 312.694L250.841 371.573L348.137 315.548Z" stroke="#0032E1" stroke-opacity="0.5" stroke-width="2" stroke-miterlimit="10"/>
<path d="M345.562 314.156L344.309 203.149L250.771 147.611L167.395 208.647L156.05 311.441L250.771 368.719L345.562 314.156Z" stroke="#0032E1" stroke-opacity="0.5" stroke-width="2" stroke-miterlimit="10"/>
<path d="M343.056 312.764L341.804 204.68L250.771 150.673L169.413 210.039L158.556 310.119L250.771 365.866L343.056 312.764Z" stroke="#0032E1" stroke-opacity="0.5" stroke-width="2" stroke-miterlimit="10"/>
<path d="M340.551 311.441L339.368 206.281L250.771 153.735L171.501 211.431L161.061 308.866L250.771 363.082L340.551 311.441Z" stroke="#0032E1" stroke-opacity="0.54" stroke-width="2" stroke-miterlimit="10"/>
<path d="M337.976 310.049L336.862 207.882L250.771 156.798L173.589 212.753L163.567 307.614L250.771 360.229L337.976 310.049Z" stroke="#0032E1" stroke-opacity="0.54" stroke-width="2" stroke-miterlimit="10"/>
<path d="M335.47 308.658L334.426 209.413L250.771 159.86L175.607 214.145L166.072 306.291L250.771 357.375L335.47 308.658Z" stroke="#0032E1" stroke-opacity="0.54" stroke-width="2" stroke-miterlimit="10"/>
<path d="M332.965 307.266L331.921 211.013L250.771 162.922L177.695 215.468L168.578 305.039L250.771 354.591L332.965 307.266Z" stroke="#0032E1" stroke-opacity="0.54" stroke-width="2" stroke-miterlimit="10"/>
<path d="M330.459 305.874L329.485 212.614L250.702 165.984L179.783 216.86L171.014 303.716L250.702 351.738L330.459 305.874Z" stroke="#0032E1" stroke-opacity="0.56" stroke-width="2" stroke-miterlimit="10"/>
<path d="M327.884 304.482L326.98 214.145L250.702 169.047L181.801 218.252L173.519 302.463L250.702 348.884L327.884 304.482Z" stroke="#0032E1" stroke-opacity="0.56" stroke-width="2" stroke-miterlimit="10"/>
<path d="M325.379 303.09L324.474 215.746L250.702 172.109L183.889 219.574L176.025 301.211L250.702 346.101L325.379 303.09Z" stroke="#0032E1" stroke-opacity="0.56" stroke-width="2" stroke-miterlimit="10"/>
<path d="M322.873 301.698L322.038 217.347L250.702 175.171L185.977 220.966L178.53 299.888L250.702 343.247L322.873 301.698Z" stroke="#0032E1" stroke-opacity="0.56" stroke-width="2" stroke-miterlimit="10"/>
<path d="M320.298 300.306L319.533 218.878L250.702 178.234L187.995 222.358L181.035 298.636L250.702 340.394L320.298 300.306Z" stroke="#0032E1" stroke-opacity="0.62" stroke-width="2" stroke-miterlimit="10"/>
<path d="M317.793 298.914L317.097 220.479L250.702 181.296L190.083 223.68L183.541 297.313L250.702 337.61L317.793 298.914Z" stroke="#0032E1" stroke-opacity="0.62" stroke-width="2" stroke-miterlimit="10"/>
<path d="M315.287 297.522L314.591 222.079L250.632 184.358L192.171 225.072L186.046 296.061L250.632 334.756L315.287 297.522Z" stroke="#0032E1" stroke-opacity="0.62" stroke-width="2" stroke-miterlimit="10"/>
<path d="M312.782 296.13L312.086 223.68L250.632 187.42L194.259 226.394L188.552 294.808L250.632 331.903L312.782 296.13Z" stroke="#0032E1" stroke-opacity="0.62" stroke-width="2" stroke-miterlimit="10"/>
<path d="M310.207 294.808L309.65 225.211L250.632 190.482L196.277 227.786L191.057 293.485L250.632 329.119L310.207 294.808Z" stroke="#0032E1" stroke-opacity="0.62" stroke-width="2" stroke-miterlimit="10"/>
<path d="M307.701 293.416L307.145 226.812L250.632 193.545L198.365 229.178L193.563 292.233L250.632 326.266L307.701 293.416Z" stroke="#0032E1" stroke-opacity="0.62" stroke-width="2" stroke-miterlimit="10"/>
<path d="M305.196 292.024L304.709 228.413L250.632 196.607L200.453 230.501L196.068 290.91L250.632 323.412L305.196 292.024Z" stroke="#0032E1" stroke-opacity="0.62" stroke-width="2" stroke-miterlimit="10"/>
<path d="M302.621 290.632L302.203 229.944L250.632 199.669L202.471 231.892L198.574 289.658L250.632 320.628L302.621 290.632Z" stroke="#0032E1" stroke-opacity="0.62" stroke-width="2" stroke-miterlimit="10"/>
<path d="M300.115 289.24L299.698 231.545L250.563 202.732L204.559 233.215L201.079 288.405L250.563 317.775L300.115 289.24Z" stroke="#0032E1" stroke-opacity="0.68" stroke-width="2" stroke-miterlimit="10"/>
<path d="M297.61 287.848L297.262 233.145L250.563 205.794L206.647 234.607L203.585 287.083L250.563 314.921L297.61 287.848Z" stroke="#0032E1" stroke-opacity="0.7" stroke-width="2" stroke-miterlimit="10"/>
<path d="M295.035 286.456L294.756 234.676L250.563 208.856L208.665 235.999L206.09 285.83L250.563 312.137L295.035 286.456Z" stroke="#0032E1" stroke-opacity="0.7" stroke-width="2" stroke-miterlimit="10"/>
<path d="M292.529 285.064L292.321 236.277L250.563 211.918L210.753 237.321L208.596 284.508L250.563 309.284L292.529 285.064Z" stroke="#0032E1" stroke-opacity="0.78" stroke-width="2" stroke-miterlimit="10"/>
<path d="M290.024 283.672L289.815 237.878L250.562 214.98L212.841 238.713L211.101 283.255L250.562 306.43L290.024 283.672Z" stroke="#0032E1" stroke-opacity="0.82" stroke-width="2" stroke-miterlimit="10"/>
<path d="M287.518 282.28L287.379 239.409L250.563 218.043L214.859 240.105L213.607 282.002L250.563 303.647L287.518 282.28Z" stroke="#0032E1" stroke-opacity="0.86" stroke-width="2" stroke-miterlimit="10"/>
<path d="M284.943 280.889L284.874 241.01L250.493 221.105L216.947 241.427L216.112 280.68L250.493 300.793L284.943 280.889Z" stroke="#0032E1" stroke-opacity="0.9" stroke-width="2" stroke-miterlimit="10"/>
<path d="M282.438 279.497L282.368 242.61L250.493 224.098L219.035 242.819L218.618 279.427L250.493 297.94L282.438 279.497Z" stroke="#0032E1" stroke-width="2" stroke-miterlimit="10"/>
<path d="M279.932 278.174V244.142L250.493 227.16L221.054 244.142V278.174L250.493 295.156L279.932 278.174Z" stroke="#0032E1" stroke-width="2" stroke-miterlimit="10"/>
<path d="M442.5 366V144.5L250.5 33.5L58.5 144.5V366.5L250.5 476.5L442.5 366Z" stroke="#0032E1" stroke-opacity="0.53" stroke-width="2" stroke-miterlimit="10"/>
<path d="M250.897 37.7948C253.05 37.7948 254.795 36.0499 254.795 33.8974C254.795 31.7449 253.05 30 250.897 30C248.745 30 247 31.7449 247 33.8974C247 36.0499 248.745 37.7948 250.897 37.7948Z" fill="#0032E1"/>
<path d="M58.8974 148.795C61.0499 148.795 62.7948 147.05 62.7948 144.897C62.7948 142.745 61.0499 141 58.8974 141C56.745 141 55 142.745 55 144.897C55 147.05 56.745 148.795 58.8974 148.795Z" fill="#0032E1"/>
<path d="M58.8974 370.795C61.0499 370.795 62.7948 369.05 62.7948 366.897C62.7948 364.745 61.0499 363 58.8974 363C56.7449 363 55 364.745 55 366.897C55 369.05 56.7449 370.795 58.8974 370.795Z" fill="#0032E1"/>
<path d="M250.493 480.795C252.645 480.795 254.39 479.05 254.39 476.897C254.39 474.745 252.645 473 250.493 473C248.34 473 246.595 474.745 246.595 476.897C246.595 479.05 248.34 480.795 250.493 480.795Z" fill="#0032E1"/>
<path d="M441.897 370.795C444.05 370.795 445.795 369.05 445.795 366.897C445.795 364.745 444.05 363 441.897 363C439.745 363 438 364.745 438 366.897C438 369.05 439.745 370.795 441.897 370.795Z" fill="#0032E1"/>
<path d="M441.897 148.795C444.05 148.795 445.795 147.05 445.795 144.897C445.795 142.745 444.05 141 441.897 141C439.745 141 438 142.745 438 144.897C438 147.05 439.745 148.795 441.897 148.795Z" fill="#0032E1"/>
</svg>
