<svg width="378" height="211" viewBox="0 0 378 211" fill="none" xmlns="http://www.w3.org/2000/svg">
<path d="M0.704 68V67.136C4.384 63.92 6.08 61.584 6.08 59.568C6.08 58.224 5.376 57.248 3.92 57.248C2.96 57.248 2.128 57.84 1.488 58.608L0.64 57.776C1.6 56.736 2.608 56.048 4.096 56.048C6.192 56.048 7.504 57.424 7.504 59.52C7.504 61.856 5.664 64.24 2.912 66.848C3.52 66.8 4.24 66.736 4.832 66.736H8.08V68H0.704ZM13.323 68.208C11.083 68.208 9.659 66.176 9.659 62.096C9.659 58.016 11.083 56.048 13.323 56.048C15.547 56.048 16.971 58.032 16.971 62.096C16.971 66.176 15.547 68.208 13.323 68.208ZM13.323 67.04C14.651 67.04 15.547 65.552 15.547 62.096C15.547 58.672 14.651 57.216 13.323 57.216C11.979 57.216 11.083 58.672 11.083 62.096C11.083 65.552 11.979 67.04 13.323 67.04ZM18.454 68V67.136C22.134 63.92 23.83 61.584 23.83 59.568C23.83 58.224 23.126 57.248 21.67 57.248C20.71 57.248 19.878 57.84 19.238 58.608L18.39 57.776C19.35 56.736 20.358 56.048 21.846 56.048C23.942 56.048 25.254 57.424 25.254 59.52C25.254 61.856 23.414 64.24 20.662 66.848C21.27 66.8 21.99 66.736 22.582 66.736H25.83V68H18.454ZM27.329 68V67.136C31.009 63.92 32.705 61.584 32.705 59.568C32.705 58.224 32.001 57.248 30.545 57.248C29.585 57.248 28.753 57.84 28.113 58.608L27.265 57.776C28.225 56.736 29.233 56.048 30.721 56.048C32.817 56.048 34.129 57.424 34.129 59.52C34.129 61.856 32.289 64.24 29.537 66.848C30.145 66.8 30.865 66.736 31.457 66.736H34.705V68H27.329ZM37.724 68.208C37.148 68.208 36.668 67.76 36.668 67.104C36.668 66.432 37.148 65.968 37.724 65.968C38.3 65.968 38.78 66.432 38.78 67.104C38.78 67.76 38.3 68.208 37.724 68.208ZM47.9793 68.208C45.7393 68.208 44.3153 66.176 44.3153 62.096C44.3153 58.016 45.7393 56.048 47.9793 56.048C50.2033 56.048 51.6273 58.032 51.6273 62.096C51.6273 66.176 50.2033 68.208 47.9793 68.208ZM47.9793 67.04C49.3073 67.04 50.2033 65.552 50.2033 62.096C50.2033 58.672 49.3073 57.216 47.9793 57.216C46.6353 57.216 45.7393 58.672 45.7393 62.096C45.7393 65.552 46.6353 67.04 47.9793 67.04ZM54.2463 63.6H57.8463V60C57.8463 59.424 57.8943 58.48 57.9263 57.872H57.8623C57.5743 58.448 57.2543 59.024 56.9183 59.6L54.2463 63.6ZM57.8463 68V64.768H52.7263V63.808L57.6063 56.256H59.2223V63.6H60.7743V64.768H59.2223V68H57.8463ZM63.5053 68.208C62.9293 68.208 62.4493 67.76 62.4493 67.104C62.4493 66.432 62.9293 65.968 63.5053 65.968C64.0813 65.968 64.5613 66.432 64.5613 67.104C64.5613 67.76 64.0813 68.208 63.5053 68.208ZM79.0885 60.208V65.104H77.8405V55.104H79.0885V59.136H81.0085V54.848H82.2725V65.52H81.0085V60.208H79.0885ZM77.0245 61.904L77.1525 62.96C75.3285 63.312 73.8245 63.392 71.7605 63.392H70.8165V59.168H74.9125V57.136H70.7845V56.08H76.1765V60.16H72.0805V62.32C73.9525 62.32 75.3445 62.24 77.0245 61.904ZM74.2245 67.792H82.6885V68.864H72.9125V64.56H74.2245V67.792ZM93.2633 61.36L92.5753 62.4C90.9913 61.824 89.7593 60.672 89.1193 59.216C88.5273 60.848 87.2473 62.096 85.5513 62.72L84.8793 61.68C87.0553 60.928 88.4473 59.072 88.4473 56.976V55.456H89.7433V57.024C89.7433 58.928 91.1833 60.672 93.2633 61.36ZM88.6553 64.896V67.936H95.4233V64.896H88.6553ZM87.3753 68.992V63.84H96.7033V68.992H87.3753ZM95.3753 54.848H96.7033V63.104H95.3753V58.736H92.2552V57.664H95.3753V54.848ZM103.214 56.752C102.078 56.752 101.262 57.424 101.262 58.4C101.262 59.36 102.078 60.048 103.214 60.048C104.35 60.048 105.15 59.36 105.15 58.4C105.15 57.424 104.35 56.752 103.214 56.752ZM103.214 61.04C101.406 61.04 100.094 59.952 100.094 58.4C100.094 56.832 101.406 55.76 103.214 55.76C105.006 55.76 106.334 56.832 106.334 58.4C106.334 59.952 105.006 61.04 103.214 61.04ZM106.878 61.776L106.974 62.736C105.966 62.944 104.862 63.056 103.774 63.12V68.032H102.526V63.2C101.438 63.248 100.398 63.248 99.566 63.248L99.406 62.144C101.374 62.144 104.558 62.128 106.878 61.776ZM107.79 64.256V55.184H109.022V68.448H107.79V65.28H105.102V64.256H107.79ZM110.494 54.848H111.758V69.184H110.494V54.848ZM118.157 64.784C119.517 64.784 120.477 63.28 120.477 60.944C120.477 58.624 119.517 57.12 118.157 57.12C116.781 57.12 115.821 58.624 115.821 60.944C115.821 63.28 116.781 64.784 118.157 64.784ZM124.829 54.832H126.141V69.216H124.829V61.376H121.709C121.581 64.192 120.157 65.952 118.157 65.952C116.061 65.952 114.573 64 114.573 60.944C114.573 57.888 116.061 55.936 118.157 55.936C120.093 55.936 121.501 57.616 121.709 60.304H124.829V54.832ZM134.422 57.648V64.56C136.342 64.544 137.702 64.464 139.27 64.128L139.382 65.216C137.67 65.584 136.214 65.648 134.07 65.648H133.126V56.576H138.47V57.648H134.422ZM143.542 54.832H144.806V69.184H143.542V61.664H141.51V68.464H140.278V55.152H141.51V60.592H143.542V54.832ZM147.332 61.808H160.292V62.864H147.332V61.808ZM153.812 64.064C156.884 64.064 158.724 64.976 158.724 66.624C158.724 68.256 156.884 69.184 153.812 69.184C150.756 69.184 148.9 68.256 148.9 66.624C148.9 64.976 150.756 64.064 153.812 64.064ZM153.812 65.072C151.556 65.072 150.228 65.648 150.228 66.624C150.228 67.6 151.556 68.16 153.812 68.16C156.068 68.16 157.396 67.6 157.396 66.624C157.396 65.648 156.068 65.072 153.812 65.072ZM153.812 55.2C156.916 55.2 158.852 56.208 158.852 57.936C158.852 59.648 156.916 60.656 153.812 60.656C150.724 60.656 148.772 59.648 148.772 57.936C148.772 56.208 150.724 55.2 153.812 55.2ZM153.812 56.224C151.54 56.224 150.116 56.864 150.116 57.936C150.116 58.992 151.54 59.632 153.812 59.632C156.084 59.632 157.508 58.992 157.508 57.936C157.508 56.864 156.084 56.224 153.812 56.224ZM177.869 58.96L177.421 59.984C175.149 59.68 173.021 58.688 172.109 57.152C171.213 58.688 169.069 59.68 166.797 59.984L166.349 58.96C168.989 58.672 171.437 57.312 171.437 55.472V54.944H172.781V55.472C172.781 57.312 175.229 58.672 177.869 58.96ZM168.509 66.608V68H177.373V69.024H167.229V65.648H175.645V64.32H167.181V63.328H176.941V66.608H168.509ZM172.765 61.088H178.605V62.144H165.613V61.088H171.453V59.232H172.765V61.088ZM190.46 58.144V56.448H181.884V55.408H191.788V59.152H183.244V60.992H192.108V62.064H181.932V58.144H190.46ZM193.356 63.536V64.608H187.484V69.2H186.172V64.608H180.332V63.536H193.356ZM205.563 65.552V60.976H202.667V59.904H205.563V58.016H202.667V56.96H205.563V54.832H206.891V65.552H205.563ZM203.435 62.368L202.715 63.408C201.163 62.752 199.947 61.456 199.323 59.856C198.731 61.584 197.467 62.96 195.787 63.648L195.083 62.608C197.227 61.776 198.667 59.728 198.667 57.472V55.632H199.979V57.472C199.979 59.584 201.371 61.552 203.435 62.368ZM198.971 67.792H207.227V68.864H197.659V64.464H198.971V67.792ZM214.436 60.56L214.052 59.568C216.708 59.392 218.9 58.512 219.124 57.088H214.692V56.096H219.204V54.736H220.516V56.096H225.012V57.088H220.596C220.82 58.512 222.98 59.392 225.652 59.568L225.252 60.56C222.852 60.368 220.74 59.632 219.86 58.304C218.98 59.632 216.852 60.368 214.436 60.56ZM226.324 62.208H220.516V63.536H224.676V66.672H216.244V68.032H225.108V69.024H214.964V65.728H223.38V64.512H214.916V63.536H219.188V62.208H213.38V61.2H226.324V62.208ZM233.17 56.08V58.656C233.17 61.28 234.882 63.92 237.01 64.88L236.226 65.936C234.594 65.136 233.218 63.44 232.53 61.392C231.874 63.552 230.498 65.344 228.818 66.208L228.018 65.136C230.13 64.128 231.874 61.376 231.874 58.656V56.08H233.17ZM238.514 54.832H239.826V69.216H238.514V54.832ZM0.704 91V90.136C4.144 86.712 6.08 84.664 6.08 82.792C6.08 81.496 5.376 80.568 3.92 80.568C2.96 80.568 2.128 81.176 1.488 81.928L0.64 81.112C1.6 80.072 2.608 79.384 4.096 79.384C6.192 79.384 7.504 80.712 7.504 82.728C7.504 84.872 5.552 87 2.848 89.848C3.456 89.8 4.16 89.736 4.768 89.736H8.08V91H0.704ZM13.323 91.208C11.051 91.208 9.659 89.08 9.659 85.256C9.659 81.432 11.051 79.384 13.323 79.384C15.595 79.384 16.971 81.448 16.971 85.256C16.971 89.08 15.595 91.208 13.323 91.208ZM13.323 90.04C14.651 90.04 15.547 88.6 15.547 85.256C15.547 81.912 14.651 80.552 13.323 80.552C11.979 80.552 11.083 81.912 11.083 85.256C11.083 88.6 11.979 90.04 13.323 90.04ZM18.454 91V90.136C21.894 86.712 23.83 84.664 23.83 82.792C23.83 81.496 23.126 80.568 21.67 80.568C20.71 80.568 19.878 81.176 19.238 81.928L18.39 81.112C19.35 80.072 20.358 79.384 21.846 79.384C23.942 79.384 25.254 80.712 25.254 82.728C25.254 84.872 23.302 87 20.598 89.848C21.206 89.8 21.91 89.736 22.518 89.736H25.83V91H18.454ZM28.033 91V89.784H30.641V81.368H28.561V80.424C29.601 80.248 30.353 79.976 30.993 79.592H32.113V89.784H34.465V91H28.033ZM37.724 91.208C37.148 91.208 36.668 90.76 36.668 90.104C36.668 89.432 37.148 88.968 37.724 88.968C38.3 88.968 38.78 89.432 38.78 90.104C38.78 90.76 38.3 91.208 37.724 91.208ZM47.9793 91.208C45.7073 91.208 44.3153 89.08 44.3153 85.256C44.3153 81.432 45.7073 79.384 47.9793 79.384C50.2513 79.384 51.6273 81.448 51.6273 85.256C51.6273 89.08 50.2513 91.208 47.9793 91.208ZM47.9793 90.04C49.3073 90.04 50.2033 88.6 50.2033 85.256C50.2033 81.912 49.3073 80.552 47.9793 80.552C46.6353 80.552 45.7393 81.912 45.7393 85.256C45.7393 88.6 46.6353 90.04 47.9793 90.04ZM56.6302 91.208C54.7903 91.208 53.6383 90.44 52.8703 89.608L53.6063 88.648C54.2943 89.368 55.1903 89.992 56.5182 89.992C57.9103 89.992 58.9023 89.176 58.9023 87.896C58.9023 86.536 57.9583 85.64 55.2543 85.64V84.52C57.6703 84.52 58.5023 83.576 58.5023 82.376C58.5023 81.272 57.7343 80.568 56.5182 80.568C55.5743 80.568 54.7423 81.048 54.0863 81.72L53.3023 80.808C54.1823 79.976 55.2223 79.384 56.5823 79.384C58.5503 79.384 59.9903 80.424 59.9903 82.28C59.9903 83.656 59.1423 84.536 57.9103 84.984V85.048C59.2863 85.384 60.3903 86.392 60.3903 87.96C60.3903 89.992 58.7103 91.208 56.6302 91.208ZM63.5053 91.208C62.9293 91.208 62.4493 90.76 62.4493 90.104C62.4493 89.432 62.9293 88.968 63.5053 88.968C64.0813 88.968 64.5613 89.432 64.5613 90.104C64.5613 90.76 64.0813 91.208 63.5053 91.208ZM70.9125 91V79.256H74.2725C76.8965 79.256 78.6565 80.152 78.6565 82.712C78.6565 85.192 76.9125 86.344 74.3365 86.344H72.4005V91H70.9125ZM72.4005 85.144H74.1445C76.2085 85.144 77.1845 84.392 77.1845 82.712C77.1845 81.016 76.1445 80.472 74.0805 80.472H72.4005V85.144ZM85.4539 91.208C82.5419 91.208 80.3499 88.952 80.3499 85.144C80.3499 81.352 82.5739 79.048 85.5499 79.048C86.9739 79.048 88.0939 79.752 88.7659 80.504L87.9659 81.464C87.3579 80.808 86.5739 80.344 85.5659 80.344C83.3419 80.344 81.8699 82.168 81.8699 85.096C81.8699 88.056 83.2779 89.912 85.5179 89.912C86.6379 89.912 87.4859 89.416 88.2379 88.6L89.0539 89.528C88.1259 90.6 86.9739 91.208 85.4539 91.208ZM93.305 82.488V85.128H100.633V82.488H93.305ZM97.625 89.272H103.481V90.344H90.473V89.272H96.297V86.184H92.009V78.856H93.305V81.416H100.633V78.856H101.913V86.184H97.625V89.272ZM106.744 82.376C106.744 83.784 107.8 84.776 109.208 84.776C110.616 84.776 111.672 83.784 111.672 82.376C111.672 80.968 110.616 79.976 109.208 79.976C107.8 79.976 106.744 80.968 106.744 82.376ZM112.952 82.376C112.952 84.456 111.352 85.912 109.208 85.912C107.064 85.912 105.464 84.456 105.464 82.376C105.464 80.296 107.064 78.84 109.208 78.84C111.352 78.84 112.952 80.296 112.952 82.376ZM108.712 87.32V90.792H116.968V91.864H107.4V87.32H108.712ZM116.328 82.2H118.44V83.288H116.328V88.392H115.016V77.832H116.328V82.2ZM124.887 84.376V82.056H121.799V84.376H124.887ZM126.119 78.76V85.432H120.551V78.76H121.799V81.016H124.887V78.76H126.119ZM122.375 88.376V87.32H132.023V92.184H130.711V88.376H122.375ZM130.759 77.848H132.023V86.44H130.759V82.648H128.935V86.376H127.687V78.104H128.935V81.576H130.759V77.848ZM145.141 90.936V89.08H138.565V90.936H145.141ZM145.141 88.056V86.232H146.453V91.992H137.269V86.232H138.565V88.056H145.141ZM138.549 84.056C139.973 84.056 140.997 83.128 140.997 81.816C140.997 80.504 139.973 79.592 138.549 79.592C137.125 79.592 136.101 80.504 136.101 81.816C136.101 83.128 137.125 84.056 138.549 84.056ZM145.125 77.848H146.453V85.544H145.125V82.328H142.213C141.957 84.024 140.517 85.144 138.549 85.144C136.405 85.144 134.853 83.8 134.853 81.816C134.853 79.848 136.405 78.504 138.549 78.504C140.485 78.504 141.925 79.592 142.197 81.256H145.125V77.848ZM166.072 81.96L165.624 82.984C163.352 82.68 161.224 81.688 160.312 80.152C159.416 81.688 157.272 82.68 155 82.984L154.552 81.96C157.192 81.672 159.64 80.312 159.64 78.472V77.944H160.984V78.472C160.984 80.312 163.432 81.672 166.072 81.96ZM156.712 89.608V91H165.576V92.024H155.432V88.648H163.848V87.32H155.384V86.328H165.144V89.608H156.712ZM160.968 84.088H166.808V85.144H153.816V84.088H159.656V82.232H160.968V84.088ZM178.663 81.144V79.448H170.087V78.408H179.991V82.152H171.447V83.992H180.311V85.064H170.135V81.144H178.663ZM181.559 86.536V87.608H175.687V92.2H174.375V87.608H168.535V86.536H181.559ZM193.766 88.552V83.976H190.87V82.904H193.766V81.016H190.87V79.96H193.766V77.832H195.094V88.552H193.766ZM191.638 85.368L190.918 86.408C189.366 85.752 188.15 84.456 187.526 82.856C186.934 84.584 185.67 85.96 183.99 86.648L183.286 85.608C185.43 84.776 186.87 82.728 186.87 80.472V78.632H188.182V80.472C188.182 82.584 189.574 84.552 191.638 85.368ZM187.174 90.792H195.43V91.864H185.862V87.464H187.174V90.792ZM203.545 83.56L203.161 82.568C205.817 82.392 208.009 81.512 208.233 80.088H203.801V79.096H208.313V77.736H209.625V79.096H214.121V80.088H209.705C209.929 81.512 212.089 82.392 214.761 82.568L214.361 83.56C211.961 83.368 209.849 82.632 208.969 81.304C208.089 82.632 205.961 83.368 203.545 83.56ZM215.433 85.208H209.625V86.536H213.785V89.672H205.353V91.032H214.217V92.024H204.073V88.728H212.489V87.512H204.025V86.536H208.297V85.208H202.489V84.2H215.433V85.208ZM222.28 79.08V81.656C222.28 84.28 223.992 86.92 226.12 87.88L225.336 88.936C223.704 88.136 222.328 86.44 221.64 84.392C220.984 86.552 219.608 88.344 217.928 89.208L217.128 88.136C219.24 87.128 220.984 84.376 220.984 81.656V79.08H222.28ZM227.624 77.832H228.936V92.216H227.624V77.832ZM0.704 114V113.136C4.384 109.92 6.08 107.584 6.08 105.568C6.08 104.224 5.376 103.248 3.92 103.248C2.96 103.248 2.128 103.84 1.488 104.608L0.64 103.776C1.6 102.736 2.608 102.048 4.096 102.048C6.192 102.048 7.504 103.424 7.504 105.52C7.504 107.856 5.664 110.24 2.912 112.848C3.52 112.8 4.24 112.736 4.832 112.736H8.08V114H0.704ZM13.323 114.208C11.083 114.208 9.659 112.176 9.659 108.096C9.659 104.016 11.083 102.048 13.323 102.048C15.547 102.048 16.971 104.032 16.971 108.096C16.971 112.176 15.547 114.208 13.323 114.208ZM13.323 113.04C14.651 113.04 15.547 111.552 15.547 108.096C15.547 104.672 14.651 103.216 13.323 103.216C11.979 103.216 11.083 104.672 11.083 108.096C11.083 111.552 11.979 113.04 13.323 113.04ZM18.454 114V113.136C22.134 109.92 23.83 107.584 23.83 105.568C23.83 104.224 23.126 103.248 21.67 103.248C20.71 103.248 19.878 103.84 19.238 104.608L18.39 103.776C19.35 102.736 20.358 102.048 21.846 102.048C23.942 102.048 25.254 103.424 25.254 105.52C25.254 107.856 23.414 110.24 20.662 112.848C21.27 112.8 21.99 112.736 22.582 112.736H25.83V114H18.454ZM31.073 114.208C28.833 114.208 27.409 112.176 27.409 108.096C27.409 104.016 28.833 102.048 31.073 102.048C33.297 102.048 34.721 104.032 34.721 108.096C34.721 112.176 33.297 114.208 31.073 114.208ZM31.073 113.04C32.401 113.04 33.297 111.552 33.297 108.096C33.297 104.672 32.401 103.216 31.073 103.216C29.729 103.216 28.833 104.672 28.833 108.096C28.833 111.552 29.729 113.04 31.073 113.04ZM37.724 114.208C37.148 114.208 36.668 113.76 36.668 113.104C36.668 112.432 37.148 111.968 37.724 111.968C38.3 111.968 38.78 112.432 38.78 113.104C38.78 113.76 38.3 114.208 37.724 114.208ZM47.9793 114.208C45.7393 114.208 44.3153 112.176 44.3153 108.096C44.3153 104.016 45.7393 102.048 47.9793 102.048C50.2033 102.048 51.6273 104.032 51.6273 108.096C51.6273 112.176 50.2033 114.208 47.9793 114.208ZM47.9793 113.04C49.3073 113.04 50.2033 111.552 50.2033 108.096C50.2033 104.672 49.3073 103.216 47.9793 103.216C46.6353 103.216 45.7393 104.672 45.7393 108.096C45.7393 111.552 46.6353 113.04 47.9793 113.04ZM53.8143 114V112.784H56.4223V104.032H54.3423V103.104C55.3823 102.912 56.1343 102.64 56.7743 102.256H57.8943V112.784H60.2463V114H53.8143ZM63.5053 114.208C62.9293 114.208 62.4493 113.76 62.4493 113.104C62.4493 112.432 62.9293 111.968 63.5053 111.968C64.0813 111.968 64.5613 112.432 64.5613 113.104C64.5613 113.76 64.0813 114.208 63.5053 114.208ZM76.6405 114.176C78.9605 114.176 80.2405 113.728 80.2405 112.864C80.2405 112.016 78.9605 111.552 76.6405 111.552C74.3365 111.552 73.0405 112.016 73.0405 112.864C73.0405 113.728 74.3365 114.176 76.6405 114.176ZM76.6405 110.576C79.7605 110.576 81.5525 111.376 81.5525 112.864C81.5525 114.368 79.7605 115.168 76.6405 115.168C73.5205 115.168 71.7285 114.368 71.7285 112.864C71.7285 111.376 73.5205 110.576 76.6405 110.576ZM77.2965 108.432H83.1365V109.488H70.1445V108.432H75.9845V107.024H71.8565V101.248H81.5365V102.272H73.1685V103.6H81.1525V104.592H73.1685V106H81.6165V107.024H77.2965V108.432ZM93.3913 102.304V103.36H84.9273V102.304H88.4953V100.688H89.8073V102.304H93.3913ZM86.9753 106.544C86.9753 107.488 87.8393 108.064 89.1513 108.064C90.4633 108.064 91.3433 107.488 91.3433 106.544C91.3433 105.616 90.4633 105.024 89.1513 105.024C87.8393 105.024 86.9753 105.616 86.9753 106.544ZM92.5913 106.544C92.5913 108.08 91.1993 109.056 89.1513 109.056C87.1033 109.056 85.7273 108.08 85.7273 106.544C85.7273 105.024 87.1033 104.048 89.1513 104.048C91.1993 104.048 92.5913 105.024 92.5913 106.544ZM94.7193 113.936V112.352H88.2873V113.936H94.7193ZM94.7193 111.328V109.808H96.0153V114.992H86.9913V109.808H88.2873V111.328H94.7193ZM98.1433 104.48V105.584H96.0153V109.168H94.7033V100.832H96.0153V104.48H98.1433ZM110.84 104.56H113.672V100.848H115V109.392H113.672V105.632H110.84V104.56ZM111.64 107.824L110.984 108.848C109.384 108.272 108.152 107.088 107.528 105.616C106.92 107.28 105.592 108.624 103.912 109.264L103.224 108.224C105.368 107.44 106.84 105.504 106.84 103.44V102.944H103.64V101.888H111.304V102.944H108.152V103.44C108.152 105.28 109.56 107.088 111.64 107.824ZM110.264 114.16C112.424 114.16 113.736 113.552 113.736 112.512C113.736 111.472 112.424 110.848 110.264 110.848C108.104 110.848 106.792 111.472 106.792 112.512C106.792 113.552 108.104 114.16 110.264 114.16ZM110.264 109.84C113.208 109.84 115.048 110.816 115.048 112.512C115.048 114.208 113.208 115.184 110.264 115.184C107.32 115.184 105.48 114.208 105.48 112.512C105.48 110.816 107.32 109.84 110.264 109.84ZM120.727 105.488V108.128H128.055V105.488H120.727ZM125.047 112.272H130.903V113.344H117.895V112.272H123.719V109.184H119.431V101.856H120.727V104.416H128.055V101.856H129.335V109.184H125.047V112.272ZM135.446 105.488V108.128H142.774V105.488H135.446ZM139.766 112.272H145.622V113.344H132.614V112.272H138.438V109.184H134.15V101.856H135.446V104.416H142.774V101.856H144.054V109.184H139.766V112.272ZM159.62 102.928V104H147.972V102.928H153.172V101.056H154.484V102.928H159.62ZM150.436 107.696C150.436 108.768 151.732 109.408 153.828 109.408C155.892 109.408 157.172 108.768 157.172 107.696C157.172 106.64 155.892 106 153.828 106C151.732 106 150.436 106.64 150.436 107.696ZM154.484 112.432H160.34V113.504H147.332V112.432H153.172V110.416C150.644 110.272 149.108 109.296 149.108 107.696C149.108 105.968 150.916 104.976 153.828 104.976C156.692 104.976 158.5 105.968 158.5 107.696C158.5 109.296 156.98 110.256 154.484 110.416V112.432ZM173.165 106.96L171.869 106.816C172.205 105.168 172.253 103.936 172.253 103.024H166.397V101.952H173.533V102.704C173.533 103.648 173.533 105.072 173.165 106.96ZM174.525 107.824L174.621 108.784C171.645 109.28 168.205 109.36 165.661 109.36L165.533 108.288C166.445 108.288 167.485 108.272 168.573 108.256V105.152H169.869V108.208C171.437 108.144 173.069 108.016 174.525 107.824ZM169.037 110.656V113.792H177.261V114.864H167.725V110.656H169.037ZM176.797 105.504H178.845V106.592H176.797V111.648H175.485V100.832H176.797V105.504ZM182.492 107.28V110.64C184.844 110.64 186.956 110.528 189.468 110.128L189.596 111.2C187.004 111.632 184.828 111.728 182.364 111.728H181.18V106.224H186.46V103.232H181.132V102.16H187.788V107.28H182.492ZM190.812 100.816H192.124V115.2H190.812V100.816ZM203.669 102.064V104.64C203.669 107.248 205.301 109.856 207.381 110.848L206.613 111.888C204.981 111.072 203.669 109.36 203.013 107.344C202.389 109.472 201.061 111.28 199.445 112.144L198.645 111.104C200.725 110.064 202.357 107.296 202.357 104.64V102.064H203.669ZM209.157 100.832H210.469V115.2H209.157V106.768H205.829V105.696H209.157V100.832ZM223.796 100.832H225.108V115.2H223.796V100.832ZM214.18 102.048H215.476V105.84H219.636V102.048H220.932V111.728H214.18V102.048ZM215.476 106.88V110.656H219.636V106.88H215.476ZM240.45 108.048L239.858 109.136C237.682 108.64 235.442 107.104 234.53 104.992C233.618 107.088 231.378 108.624 229.218 109.136L228.626 108.048C231.138 107.552 233.842 105.392 233.842 102.944V101.84H235.218V102.944C235.218 105.392 237.938 107.568 240.45 108.048ZM228.082 112.176H241.09V113.264H228.082V112.176ZM258.619 104.96L258.171 105.984C255.899 105.68 253.771 104.688 252.859 103.152C251.963 104.688 249.819 105.68 247.547 105.984L247.099 104.96C249.739 104.672 252.187 103.312 252.187 101.472V100.944H253.531V101.472C253.531 103.312 255.979 104.672 258.619 104.96ZM249.259 112.608V114H258.123V115.024H247.979V111.648H256.395V110.32H247.931V109.328H257.691V112.608H249.259ZM253.515 107.088H259.355V108.144H246.363V107.088H252.203V105.232H253.515V107.088ZM271.21 104.144V102.448H262.634V101.408H272.538V105.152H263.994V106.992H272.858V108.064H262.682V104.144H271.21ZM274.106 109.536V110.608H268.234V115.2H266.922V110.608H261.082V109.536H274.106ZM286.313 111.552V106.976H283.417V105.904H286.313V104.016H283.417V102.96H286.313V100.832H287.641V111.552H286.313ZM284.185 108.368L283.465 109.408C281.913 108.752 280.697 107.456 280.073 105.856C279.481 107.584 278.217 108.96 276.537 109.648L275.833 108.608C277.977 107.776 279.417 105.728 279.417 103.472V101.632H280.729V103.472C280.729 105.584 282.121 107.552 284.185 108.368ZM279.721 113.792H287.977V114.864H278.409V110.464H279.721V113.792ZM295.186 106.56L294.802 105.568C297.458 105.392 299.65 104.512 299.874 103.088H295.442V102.096H299.954V100.736H301.266V102.096H305.762V103.088H301.346C301.57 104.512 303.73 105.392 306.402 105.568L306.002 106.56C303.602 106.368 301.49 105.632 300.61 104.304C299.73 105.632 297.602 106.368 295.186 106.56ZM307.074 108.208H301.266V109.536H305.426V112.672H296.994V114.032H305.858V115.024H295.714V111.728H304.13V110.512H295.666V109.536H299.938V108.208H294.13V107.2H307.074V108.208ZM313.92 102.08V104.656C313.92 107.28 315.632 109.92 317.76 110.88L316.976 111.936C315.344 111.136 313.968 109.44 313.28 107.392C312.624 109.552 311.248 111.344 309.568 112.208L308.768 111.136C310.88 110.128 312.624 107.376 312.624 104.656V102.08H313.92ZM319.264 100.832H320.576V115.216H319.264V100.832ZM0.704 137V136.136C4.384 132.92 6.08 130.584 6.08 128.568C6.08 127.224 5.376 126.248 3.92 126.248C2.96 126.248 2.128 126.84 1.488 127.608L0.64 126.776C1.6 125.736 2.608 125.048 4.096 125.048C6.192 125.048 7.504 126.424 7.504 128.52C7.504 130.856 5.664 133.24 2.912 135.848C3.52 135.8 4.24 135.736 4.832 135.736H8.08V137H0.704ZM13.323 137.208C11.083 137.208 9.659 135.176 9.659 131.096C9.659 127.016 11.083 125.048 13.323 125.048C15.547 125.048 16.971 127.032 16.971 131.096C16.971 135.176 15.547 137.208 13.323 137.208ZM13.323 136.04C14.651 136.04 15.547 134.552 15.547 131.096C15.547 127.672 14.651 126.216 13.323 126.216C11.979 126.216 11.083 127.672 11.083 131.096C11.083 134.552 11.979 136.04 13.323 136.04ZM19.158 137V135.784H21.766V127.032H19.686V126.104C20.726 125.912 21.478 125.64 22.118 125.256H23.238V135.784H25.59V137H19.158ZM28.705 128.856C28.705 130.44 29.409 131.464 30.801 131.464C31.601 131.464 32.497 131 33.249 129.896C33.089 127.48 32.193 126.2 30.689 126.2C29.569 126.2 28.705 127.256 28.705 128.856ZM30.369 137.208C29.105 137.208 28.209 136.696 27.553 136.008L28.369 135.096C28.849 135.656 29.569 135.992 30.321 135.992C31.841 135.992 33.153 134.744 33.265 131.112C32.545 131.992 31.537 132.552 30.561 132.552C28.609 132.552 27.329 131.288 27.329 128.856C27.329 126.584 28.865 125.048 30.689 125.048C32.945 125.048 34.625 126.904 34.625 130.632C34.625 135.384 32.577 137.208 30.369 137.208ZM37.724 137.208C37.148 137.208 36.668 136.76 36.668 136.104C36.668 135.432 37.148 134.968 37.724 134.968C38.3 134.968 38.78 135.432 38.78 136.104C38.78 136.76 38.3 137.208 37.724 137.208ZM47.9793 137.208C45.7393 137.208 44.3153 135.176 44.3153 131.096C44.3153 127.016 45.7393 125.048 47.9793 125.048C50.2033 125.048 51.6273 127.032 51.6273 131.096C51.6273 135.176 50.2033 137.208 47.9793 137.208ZM47.9793 136.04C49.3073 136.04 50.2033 134.552 50.2033 131.096C50.2033 127.672 49.3073 126.216 47.9793 126.216C46.6353 126.216 45.7393 127.672 45.7393 131.096C45.7393 134.552 46.6353 136.04 47.9793 136.04ZM54.4863 128.856C54.4863 130.44 55.1903 131.464 56.5823 131.464C57.3823 131.464 58.2783 131 59.0303 129.896C58.8703 127.48 57.9743 126.2 56.4703 126.2C55.3503 126.2 54.4863 127.256 54.4863 128.856ZM56.1503 137.208C54.8863 137.208 53.9903 136.696 53.3343 136.008L54.1503 135.096C54.6303 135.656 55.3503 135.992 56.1023 135.992C57.6223 135.992 58.9343 134.744 59.0463 131.112C58.3263 131.992 57.3183 132.552 56.3423 132.552C54.3903 132.552 53.1103 131.288 53.1103 128.856C53.1103 126.584 54.6463 125.048 56.4703 125.048C58.7263 125.048 60.4062 126.904 60.4062 130.632C60.4062 135.384 58.3583 137.208 56.1503 137.208ZM63.5053 137.208C62.9293 137.208 62.4493 136.76 62.4493 136.104C62.4493 135.432 62.9293 134.968 63.5053 134.968C64.0813 134.968 64.5613 135.432 64.5613 136.104C64.5613 136.76 64.0813 137.208 63.5053 137.208ZM75.8885 130.936H78.4005V124.088H79.6325V132.68H78.4005V131.88H75.8885V130.936ZM73.9365 125.256C72.7685 125.256 72.0165 125.72 72.0165 126.456C72.0165 127.192 72.7685 127.656 73.9365 127.656C75.1045 127.656 75.8725 127.192 75.8725 126.456C75.8725 125.72 75.1045 125.256 73.9365 125.256ZM73.9365 128.6C72.0805 128.6 70.8325 127.784 70.8325 126.456C70.8325 125.144 72.0805 124.328 73.9365 124.328C75.8085 124.328 77.0565 125.144 77.0565 126.456C77.0565 127.784 75.8085 128.6 73.9365 128.6ZM73.3445 132.68V130.36C72.1925 130.424 71.1045 130.424 70.2245 130.424L70.0645 129.4C72.0485 129.4 75.2485 129.368 77.6325 128.984L77.7285 129.896C76.7525 130.088 75.6645 130.216 74.5925 130.296V132.68H73.3445ZM80.9605 136.952V135.592H73.8885V136.952H80.9605ZM80.9605 134.584V133.24H82.2405V137.992H72.5925V133.24H73.8885V134.584H80.9605ZM80.9925 123.832H82.2405V132.712H80.9925V123.832ZM89.6953 125.08V127.656C89.6953 130.184 91.3273 132.792 93.3433 133.8L92.5273 134.84C91.0073 134.024 89.7113 132.344 89.0553 130.376C88.4313 132.472 87.1033 134.264 85.4873 135.128L84.7033 134.072C86.7673 133.016 88.3993 130.264 88.3993 127.656V125.08H89.6953ZM98.2873 129.656V130.744H95.9193V138.184H94.6073V123.848H95.9193V129.656H98.2873ZM110.03 123.832H111.342V138.216H110.03V123.832ZM103.774 124.936C105.902 124.936 107.422 126.888 107.422 129.944C107.422 133 105.902 134.952 103.774 134.952C101.646 134.952 100.126 133 100.126 129.944C100.126 126.888 101.646 124.936 103.774 124.936ZM103.774 126.12C102.366 126.12 101.374 127.624 101.374 129.944C101.374 132.28 102.366 133.784 103.774 133.784C105.166 133.784 106.158 132.28 106.158 129.944C106.158 127.624 105.166 126.12 103.774 126.12ZM125.837 131.576V132.632H115.981V125.08H125.693V126.136H117.309V128.264H125.373V129.304H117.309V131.576H125.837ZM114.301 135.256H127.325V136.328H114.301V135.256ZM141.478 130.792L140.87 131.816C139.19 131.304 137.862 130.216 137.19 128.808C136.566 130.36 135.238 131.56 133.51 132.104L132.886 131.096C135.014 130.408 136.518 128.664 136.518 126.744V126.568H133.254V125.512H136.518V123.736H137.83V125.512H141.062V126.568H137.814V126.744C137.814 128.552 139.35 130.168 141.478 130.792ZM136.39 134.12V136.936H143.11V134.12H136.39ZM135.11 137.992V133.08H144.39V137.992H135.11ZM143.078 123.832H144.39V132.344H143.078V123.832ZM150.884 133.768C151.988 133.768 152.788 132.856 152.788 131.576C152.788 130.328 151.988 129.416 150.884 129.416C149.764 129.416 148.98 130.328 148.98 131.576C148.98 132.856 149.764 133.768 150.884 133.768ZM150.884 128.312C152.66 128.312 153.956 129.656 153.956 131.576C153.956 133.528 152.66 134.856 150.884 134.856C149.108 134.856 147.812 133.528 147.812 131.576C147.812 129.656 149.108 128.312 150.884 128.312ZM151.524 124.248V126.28H154.436V127.352H147.316V126.28H150.228V124.248H151.524ZM158.228 123.816H159.492V138.168H158.228V130.952H156.388V137.48H155.156V124.152H156.388V129.88H158.228V123.816ZM166.867 125.08V127.656C166.867 130.184 168.499 132.792 170.515 133.8L169.699 134.84C168.179 134.024 166.883 132.344 166.227 130.376C165.603 132.472 164.275 134.264 162.659 135.128L161.875 134.072C163.939 133.016 165.571 130.264 165.571 127.656V125.08H166.867ZM175.459 129.656V130.744H173.091V138.184H171.779V123.848H173.091V129.656H175.459ZM186.898 126.696V126.344H178.146V125.272H188.21V126.696C188.21 128.472 188.21 130.44 187.666 133.336L186.354 133.192C186.898 130.44 186.898 128.424 186.898 126.696ZM183.138 135.096H189.762V136.168H176.786V135.096H181.826V129.96H183.138V135.096ZM199.899 126.392V128.216C199.899 130.504 201.531 133.048 203.611 134.024L202.859 135.08C201.259 134.28 199.915 132.6 199.259 130.68C198.603 132.776 197.211 134.6 195.595 135.432L194.827 134.392C196.875 133.368 198.603 130.648 198.603 128.216V126.392H195.323V125.304H203.083V126.392H199.899ZM208.475 129.624V130.728H206.107V138.184H204.795V123.848H206.107V129.624H208.475ZM216.282 137.16C218.522 137.16 219.85 136.6 219.85 135.592C219.85 134.584 218.522 134.024 216.282 134.024C214.01 134.024 212.682 134.584 212.682 135.592C212.682 136.6 214.01 137.16 216.282 137.16ZM216.282 133C219.322 133 221.178 133.928 221.178 135.592C221.178 137.256 219.322 138.184 216.282 138.184C213.21 138.184 211.354 137.256 211.354 135.592C211.354 133.928 213.21 133 216.282 133ZM216.938 130.92H222.778V131.976H209.786V130.92H215.626V129.256H211.418V124.488H221.162V125.544H212.73V128.2H221.258V129.256H216.938V130.92ZM225.944 134.76V133.704H235.88V138.184H234.568V134.76H225.944ZM227.512 126.824V128.488H234.488V126.824H227.512ZM231.656 131.24H237.48V132.312H224.488V131.24H230.344V129.528H226.216V124.168H227.512V125.8H234.488V124.168H235.784V129.528H231.656V131.24ZM246.743 132.312H249.655V123.832H250.967V134.76H249.655V133.288H246.743V132.312ZM243.815 125.384C242.455 125.384 241.527 125.992 241.527 126.904C241.527 127.832 242.455 128.44 243.815 128.44C245.175 128.44 246.103 127.832 246.103 126.904C246.103 125.992 245.175 125.384 243.815 125.384ZM243.815 129.416C241.719 129.416 240.279 128.44 240.279 126.904C240.279 125.4 241.719 124.408 243.815 124.408C245.911 124.408 247.351 125.4 247.351 126.904C247.351 128.44 245.911 129.416 243.815 129.416ZM243.303 134.248V131.48C241.879 131.544 240.503 131.56 239.319 131.56L239.143 130.472C241.799 130.472 245.351 130.44 248.391 130.056L248.503 131C247.239 131.192 245.911 131.336 244.615 131.416V134.248H243.303ZM242.503 136.792H251.335V137.864H241.191V133.688H242.503V136.792ZM269.76 127.96L269.312 128.984C267.04 128.68 264.912 127.688 264 126.152C263.104 127.688 260.96 128.68 258.688 128.984L258.24 127.96C260.88 127.672 263.328 126.312 263.328 124.472V123.944H264.672V124.472C264.672 126.312 267.12 127.672 269.76 127.96ZM260.4 135.608V137H269.264V138.024H259.12V134.648H267.536V133.32H259.072V132.328H268.832V135.608H260.4ZM264.656 130.088H270.496V131.144H257.504V130.088H263.344V128.232H264.656V130.088ZM282.351 127.144V125.448H273.775V124.408H283.679V128.152H275.135V129.992H283.999V131.064H273.823V127.144H282.351ZM285.247 132.536V133.608H279.375V138.2H278.063V133.608H272.223V132.536H285.247ZM297.453 134.552V129.976H294.557V128.904H297.453V127.016H294.557V125.96H297.453V123.832H298.781V134.552H297.453ZM295.325 131.368L294.605 132.408C293.053 131.752 291.837 130.456 291.213 128.856C290.621 130.584 289.357 131.96 287.677 132.648L286.973 131.608C289.117 130.776 290.557 128.728 290.557 126.472V124.632H291.869V126.472C291.869 128.584 293.261 130.552 295.325 131.368ZM290.861 136.792H299.117V137.864H289.549V133.464H290.861V136.792ZM306.326 129.56L305.942 128.568C308.598 128.392 310.79 127.512 311.014 126.088H306.582V125.096H311.094V123.736H312.406V125.096H316.902V126.088H312.486C312.71 127.512 314.87 128.392 317.542 128.568L317.142 129.56C314.742 129.368 312.63 128.632 311.75 127.304C310.87 128.632 308.742 129.368 306.326 129.56ZM318.214 131.208H312.406V132.536H316.566V135.672H308.134V137.032H316.998V138.024H306.854V134.728H315.27V133.512H306.806V132.536H311.078V131.208H305.27V130.2H318.214V131.208ZM325.061 125.08V127.656C325.061 130.28 326.773 132.92 328.901 133.88L328.117 134.936C326.485 134.136 325.109 132.44 324.421 130.392C323.765 132.552 322.389 134.344 320.709 135.208L319.909 134.136C322.021 133.128 323.765 130.376 323.765 127.656V125.08H325.061ZM330.405 123.832H331.717V138.216H330.405V123.832ZM0.704 160V159.136C4.384 155.92 6.08 153.584 6.08 151.568C6.08 150.224 5.376 149.248 3.92 149.248C2.96 149.248 2.128 149.84 1.488 150.608L0.64 149.776C1.6 148.736 2.608 148.048 4.096 148.048C6.192 148.048 7.504 149.424 7.504 151.52C7.504 153.856 5.664 156.24 2.912 158.848C3.52 158.8 4.24 158.736 4.832 158.736H8.08V160H0.704ZM13.323 160.208C11.083 160.208 9.659 158.176 9.659 154.096C9.659 150.016 11.083 148.048 13.323 148.048C15.547 148.048 16.971 150.032 16.971 154.096C16.971 158.176 15.547 160.208 13.323 160.208ZM13.323 159.04C14.651 159.04 15.547 157.552 15.547 154.096C15.547 150.672 14.651 149.216 13.323 149.216C11.979 149.216 11.083 150.672 11.083 154.096C11.083 157.552 11.979 159.04 13.323 159.04ZM19.158 160V158.784H21.766V150.032H19.686V149.104C20.726 148.912 21.478 148.64 22.118 148.256H23.238V158.784H25.59V160H19.158ZM31.089 160.208C28.929 160.208 27.345 158.896 27.345 157.088C27.345 155.52 28.433 154.432 29.505 153.856V153.776C28.641 153.184 27.921 152.304 27.921 151.072C27.921 149.28 29.313 148.096 31.137 148.096C33.137 148.096 34.353 149.376 34.353 151.184C34.353 152.416 33.489 153.472 32.785 154.016V154.096C33.809 154.688 34.769 155.568 34.769 157.168C34.769 158.88 33.297 160.208 31.089 160.208ZM31.889 153.632C32.689 152.928 33.105 152.128 33.105 151.264C33.105 150.112 32.385 149.168 31.121 149.168C30.033 149.168 29.249 149.936 29.249 151.072C29.249 152.48 30.513 153.088 31.889 153.632ZM31.121 159.12C32.465 159.12 33.377 158.304 33.377 157.136C33.377 155.568 31.937 154.976 30.273 154.304C29.329 154.912 28.673 155.84 28.673 156.96C28.673 158.208 29.713 159.12 31.121 159.12ZM37.724 160.208C37.148 160.208 36.668 159.76 36.668 159.104C36.668 158.432 37.148 157.968 37.724 157.968C38.3 157.968 38.78 158.432 38.78 159.104C38.78 159.76 38.3 160.208 37.724 160.208ZM44.9393 160V158.784H47.5473V150.032H45.4673V149.104C46.5073 148.912 47.2593 148.64 47.8993 148.256H49.0193V158.784H51.3713V160H44.9393ZM53.1103 160V159.136C56.7903 155.92 58.4863 153.584 58.4863 151.568C58.4863 150.224 57.7823 149.248 56.3263 149.248C55.3663 149.248 54.5343 149.84 53.8943 150.608L53.0463 149.776C54.0063 148.736 55.0143 148.048 56.5023 148.048C58.5983 148.048 59.9103 149.424 59.9103 151.52C59.9103 153.856 58.0703 156.24 55.3183 158.848C55.9263 158.8 56.6463 158.736 57.2383 158.736H60.4862V160H53.1103ZM63.5053 160.208C62.9293 160.208 62.4493 159.76 62.4493 159.104C62.4493 158.432 62.9293 157.968 63.5053 157.968C64.0813 157.968 64.5613 158.432 64.5613 159.104C64.5613 159.76 64.0813 160.208 63.5053 160.208ZM74.9765 148.08V150.656C74.9765 153.184 76.6085 155.792 78.6245 156.8L77.8085 157.84C76.2885 157.024 74.9925 155.344 74.3365 153.376C73.7125 155.472 72.3845 157.264 70.7685 158.128L69.9845 157.072C72.0485 156.016 73.6805 153.264 73.6805 150.656V148.08H74.9765ZM83.5685 152.656V153.744H81.2005V161.184H79.8885V146.848H81.2005V152.656H83.5685ZM95.3113 146.832H96.6233V161.216H95.3113V146.832ZM89.0553 147.936C91.1833 147.936 92.7033 149.888 92.7033 152.944C92.7033 156 91.1833 157.952 89.0553 157.952C86.9273 157.952 85.4073 156 85.4073 152.944C85.4073 149.888 86.9273 147.936 89.0553 147.936ZM89.0553 149.12C87.6473 149.12 86.6553 150.624 86.6553 152.944C86.6553 155.28 87.6473 156.784 89.0553 156.784C90.4473 156.784 91.4393 155.28 91.4393 152.944C91.4393 150.624 90.4473 149.12 89.0553 149.12ZM105.47 156.512V152.736H101.47V156.512H105.47ZM110.11 146.832H111.422V161.216H110.11V153.216H106.75V157.584H100.174V147.968H101.47V151.696H105.47V147.968H106.75V152.16H110.11V146.832ZM122.599 148.592C121.191 148.592 120.199 149.344 120.199 150.464C120.199 151.584 121.191 152.336 122.599 152.336C123.991 152.336 124.983 151.584 124.983 150.464C124.983 149.344 123.991 148.592 122.599 148.592ZM122.599 153.408C120.455 153.408 118.935 152.208 118.935 150.464C118.935 148.704 120.455 147.504 122.599 147.504C124.727 147.504 126.247 148.704 126.247 150.464C126.247 152.208 124.727 153.408 122.599 153.408ZM127.319 154.112L127.431 155.088C126.071 155.328 124.679 155.488 123.319 155.568V160.736H122.007V155.648C120.583 155.712 119.223 155.728 118.039 155.728L117.863 154.624C120.535 154.624 124.167 154.592 127.319 154.112ZM128.359 146.848H129.671V161.2H128.359V146.848ZM140.678 148.272V149.328H132.646V148.272H136.07V146.688H137.382V148.272H140.678ZM134.694 152.624C134.694 153.584 135.51 154.208 136.71 154.208C137.91 154.208 138.726 153.584 138.726 152.624C138.726 151.664 137.91 151.04 136.71 151.04C135.51 151.04 134.694 151.664 134.694 152.624ZM139.958 152.624C139.958 154.176 138.614 155.2 136.71 155.2C134.79 155.2 133.462 154.176 133.462 152.624C133.462 151.072 134.79 150.048 136.71 150.048C138.614 150.048 139.958 151.072 139.958 152.624ZM143.142 159.952V158.432H136.438V159.952H143.142ZM143.142 157.424V155.952H144.438V160.992H135.142V155.952H136.438V157.424H143.142ZM143.11 146.848H144.438V155.312H143.11V154.048H140.678V152.976H143.11V151.248H140.694V150.192H143.11V146.848ZM163.263 152.304L162.719 153.36C160.495 152.976 158.335 151.728 157.407 150C156.511 151.744 154.351 152.976 152.111 153.36L151.583 152.304C154.191 151.92 156.719 150.192 156.719 148.144V147.344H158.095V148.144C158.095 150.144 160.655 151.92 163.263 152.304ZM163.887 154.912L163.903 156H158.031V161.2H156.719V156H150.927V154.912H163.887ZM174.413 153.376L173.773 154.384C172.125 153.856 170.797 152.704 170.141 151.216C169.517 152.8 168.189 154.048 166.477 154.64L165.805 153.6C167.981 152.912 169.453 151.12 169.453 149.152V148.832H166.173V147.76H174.045V148.832H170.797V149.152C170.797 151.04 172.301 152.72 174.413 153.376ZM176.109 159.92V158.064H169.453V159.92H176.109ZM176.109 157.04V155.296H177.405V160.992H168.157V155.296H169.453V157.04H176.109ZM176.093 146.832H177.405V154.608H176.093V146.832ZM196.166 150.96L195.718 151.984C193.446 151.68 191.318 150.688 190.406 149.152C189.51 150.688 187.366 151.68 185.094 151.984L184.646 150.96C187.286 150.672 189.734 149.312 189.734 147.472V146.944H191.078V147.472C191.078 149.312 193.526 150.672 196.166 150.96ZM186.806 158.608V160H195.67V161.024H185.526V157.648H193.942V156.32H185.478V155.328H195.238V158.608H186.806ZM191.062 153.088H196.902V154.144H183.91V153.088H189.75V151.232H191.062V153.088ZM208.757 150.144V148.448H200.181V147.408H210.085V151.152H201.541V152.992H210.405V154.064H200.229V150.144H208.757ZM211.653 155.536V156.608H205.781V161.2H204.469V156.608H198.629V155.536H211.653ZM223.86 157.552V152.976H220.964V151.904H223.86V150.016H220.964V148.96H223.86V146.832H225.188V157.552H223.86ZM221.732 154.368L221.012 155.408C219.46 154.752 218.244 153.456 217.62 151.856C217.028 153.584 215.764 154.96 214.084 155.648L213.38 154.608C215.524 153.776 216.964 151.728 216.964 149.472V147.632H218.276V149.472C218.276 151.584 219.668 153.552 221.732 154.368ZM217.268 159.792H225.524V160.864H215.956V156.464H217.268V159.792ZM232.733 152.56L232.349 151.568C235.005 151.392 237.197 150.512 237.421 149.088H232.989V148.096H237.501V146.736H238.812V148.096H243.309V149.088H238.892C239.117 150.512 241.277 151.392 243.949 151.568L243.549 152.56C241.149 152.368 239.036 151.632 238.157 150.304C237.277 151.632 235.149 152.368 232.733 152.56ZM244.621 154.208H238.812V155.536H242.973V158.672H234.541V160.032H243.405V161.024H233.261V157.728H241.677V156.512H233.213V155.536H237.485V154.208H231.677V153.2H244.621V154.208ZM251.467 148.08V150.656C251.467 153.28 253.179 155.92 255.307 156.88L254.523 157.936C252.891 157.136 251.515 155.44 250.827 153.392C250.171 155.552 248.795 157.344 247.115 158.208L246.315 157.136C248.427 156.128 250.171 153.376 250.171 150.656V148.08H251.467ZM256.811 146.832H258.123V161.216H256.811V146.832ZM0.704 183V182.136C4.384 178.92 6.08 176.584 6.08 174.568C6.08 173.224 5.376 172.248 3.92 172.248C2.96 172.248 2.128 172.84 1.488 173.608L0.64 172.776C1.6 171.736 2.608 171.048 4.096 171.048C6.192 171.048 7.504 172.424 7.504 174.52C7.504 176.856 5.664 179.24 2.912 181.848C3.52 181.8 4.24 181.736 4.832 181.736H8.08V183H0.704ZM13.323 183.208C11.083 183.208 9.659 181.176 9.659 177.096C9.659 173.016 11.083 171.048 13.323 171.048C15.547 171.048 16.971 173.032 16.971 177.096C16.971 181.176 15.547 183.208 13.323 183.208ZM13.323 182.04C14.651 182.04 15.547 180.552 15.547 177.096C15.547 173.672 14.651 172.216 13.323 172.216C11.979 172.216 11.083 173.672 11.083 177.096C11.083 180.552 11.979 182.04 13.323 182.04ZM19.158 183V181.784H21.766V173.032H19.686V172.104C20.726 171.912 21.478 171.64 22.118 171.256H23.238V181.784H25.59V183H19.158ZM29.793 183C29.985 178.552 30.801 175.72 33.089 172.52H27.409V171.256H34.753V172.152C32.001 175.672 31.489 178.408 31.313 183H29.793ZM37.724 183.208C37.148 183.208 36.668 182.76 36.668 182.104C36.668 181.432 37.148 180.968 37.724 180.968C38.3 180.968 38.78 181.432 38.78 182.104C38.78 182.76 38.3 183.208 37.724 183.208ZM47.9793 183.208C45.7393 183.208 44.3153 181.176 44.3153 177.096C44.3153 173.016 45.7393 171.048 47.9793 171.048C50.2033 171.048 51.6273 173.032 51.6273 177.096C51.6273 181.176 50.2033 183.208 47.9793 183.208ZM47.9793 182.04C49.3073 182.04 50.2033 180.552 50.2033 177.096C50.2033 173.672 49.3073 172.216 47.9793 172.216C46.6353 172.216 45.7393 173.672 45.7393 177.096C45.7393 180.552 46.6353 182.04 47.9793 182.04ZM56.8703 183.208C54.7103 183.208 53.1263 181.896 53.1263 180.088C53.1263 178.52 54.2143 177.432 55.2863 176.856V176.776C54.4223 176.184 53.7023 175.304 53.7023 174.072C53.7023 172.28 55.0943 171.096 56.9183 171.096C58.9183 171.096 60.1343 172.376 60.1343 174.184C60.1343 175.416 59.2703 176.472 58.5663 177.016V177.096C59.5903 177.688 60.5503 178.568 60.5503 180.168C60.5503 181.88 59.0783 183.208 56.8703 183.208ZM57.6703 176.632C58.4703 175.928 58.8863 175.128 58.8863 174.264C58.8863 173.112 58.1663 172.168 56.9023 172.168C55.8143 172.168 55.0303 172.936 55.0303 174.072C55.0303 175.48 56.2943 176.088 57.6703 176.632ZM56.9023 182.12C58.2463 182.12 59.1583 181.304 59.1583 180.136C59.1583 178.568 57.7183 177.976 56.0543 177.304C55.1103 177.912 54.4543 178.84 54.4543 179.96C54.4543 181.208 55.4943 182.12 56.9023 182.12ZM63.5053 183.208C62.9293 183.208 62.4493 182.76 62.4493 182.104C62.4493 181.432 62.9293 180.968 63.5053 180.968C64.0813 180.968 64.5613 181.432 64.5613 182.104C64.5613 182.76 64.0813 183.208 63.5053 183.208ZM71.9845 172.648V179.64C74.0165 179.624 75.2965 179.56 76.8005 179.24L76.9285 180.312C75.2965 180.664 73.9045 180.728 71.6165 180.728H70.6885V171.592H76.0805V172.648H71.9845ZM78.2085 175.304V170.184H79.4405V183.464H78.2085V176.392H75.1205V175.304H78.2085ZM81.0885 169.832H82.3365V184.184H81.0885V169.832ZM95.3113 169.832H96.6233V184.216H95.3113V169.832ZM89.0553 170.936C91.1833 170.936 92.7033 172.888 92.7033 175.944C92.7033 179 91.1833 180.952 89.0553 180.952C86.9273 180.952 85.4073 179 85.4073 175.944C85.4073 172.888 86.9273 170.936 89.0553 170.936ZM89.0553 172.12C87.6473 172.12 86.6553 173.624 86.6553 175.944C86.6553 178.28 87.6473 179.784 89.0553 179.784C90.4473 179.784 91.4393 178.28 91.4393 175.944C91.4393 173.624 90.4473 172.12 89.0553 172.12ZM101.566 176.232V179.672C104.158 179.672 105.822 179.576 107.774 179.224L107.918 180.296C105.838 180.664 104.094 180.744 101.358 180.744H100.254V171.128H106.894V172.216H101.566V175.176H106.27V176.232H101.566ZM110.11 169.816H111.422V184.2H110.11V176.328H107.15V175.24H110.11V169.816ZM130.247 175.304L129.703 176.36C127.479 175.976 125.319 174.728 124.391 173C123.495 174.744 121.335 175.976 119.095 176.36L118.567 175.304C121.175 174.92 123.703 173.192 123.703 171.144V170.344H125.079V171.144C125.079 173.144 127.639 174.92 130.247 175.304ZM130.871 177.912L130.887 179H125.015V184.2H123.703V179H117.911V177.912H130.871ZM141.398 176.376L140.758 177.384C139.11 176.856 137.782 175.704 137.126 174.216C136.502 175.8 135.174 177.048 133.462 177.64L132.79 176.6C134.966 175.912 136.438 174.12 136.438 172.152V171.832H133.158V170.76H141.03V171.832H137.782V172.152C137.782 174.04 139.286 175.72 141.398 176.376ZM143.094 182.92V181.064H136.438V182.92H143.094ZM143.094 180.04V178.296H144.39V183.992H135.142V178.296H136.438V180.04H143.094ZM143.078 169.832H144.39V177.608H143.078V169.832ZM155.999 171.08V173.656C155.999 176.28 157.711 178.92 159.839 179.88L159.055 180.936C157.423 180.136 156.047 178.44 155.359 176.392C154.703 178.552 153.327 180.344 151.647 181.208L150.847 180.136C152.959 179.128 154.703 176.376 154.703 173.656V171.08H155.999ZM161.343 169.832H162.655V184.216H161.343V169.832ZM177.997 177.048L177.405 178.136C175.229 177.64 172.989 176.104 172.077 173.992C171.165 176.088 168.925 177.624 166.765 178.136L166.173 177.048C168.685 176.552 171.389 174.392 171.389 171.944V170.84H172.765V171.944C172.765 174.392 175.485 176.568 177.997 177.048ZM165.629 181.176H178.637V182.264H165.629V181.176ZM188.428 178.328V174.504H186.524V173.448H188.428V170.072H189.676V178.328H188.428ZM187.084 176.168L187.196 177.224C185.564 177.544 184.204 177.608 181.916 177.608H181.004V170.76H186.428V171.816H182.268V173.592H185.868V174.616H182.268V176.552C184.3 176.552 185.596 176.472 187.084 176.168ZM184.316 180.2V182.936H191.18V180.2H184.316ZM183.036 183.992V179.16H192.46V183.992H183.036ZM191.196 169.832H192.46V178.472H191.196V169.832ZM200.197 174.072C200.197 175.4 201.221 176.344 202.645 176.344C204.085 176.344 205.125 175.4 205.125 174.072C205.125 172.728 204.085 171.784 202.645 171.784C201.221 171.784 200.197 172.728 200.197 174.072ZM206.405 174.072C206.405 176.072 204.821 177.448 202.645 177.448C200.485 177.448 198.917 176.072 198.917 174.072C198.917 172.072 200.485 170.696 202.645 170.696C204.821 170.696 206.405 172.072 206.405 174.072ZM202.053 179.864V182.936H208.485V179.864H202.053ZM200.773 183.992V178.824H209.781V183.992H200.773ZM211.909 173.352V174.44H209.781V178.136H208.469V169.848H209.781V173.352H211.909ZM225.652 171.928V173H214.004V171.928H219.204V170.056H220.516V171.928H225.652ZM216.468 176.696C216.468 177.768 217.764 178.408 219.86 178.408C221.924 178.408 223.204 177.768 223.204 176.696C223.204 175.64 221.924 175 219.86 175C217.764 175 216.468 175.64 216.468 176.696ZM220.516 181.432H226.372V182.504H213.364V181.432H219.204V179.416C216.676 179.272 215.14 178.296 215.14 176.696C215.14 174.968 216.948 173.976 219.86 173.976C222.724 173.976 224.532 174.968 224.532 176.696C224.532 178.296 223.012 179.256 220.516 179.416V181.432ZM236.738 171.576V172.616H228.162V171.576H231.81V169.848H233.122V171.576H236.738ZM230.322 176.12C230.322 177.112 231.186 177.752 232.466 177.752C233.746 177.752 234.61 177.112 234.61 176.12C234.61 175.128 233.746 174.472 232.466 174.472C231.186 174.472 230.322 175.128 230.322 176.12ZM233.122 178.744V180.264C234.418 180.2 235.746 180.104 236.978 179.912L237.058 180.888C233.986 181.432 230.61 181.464 228.098 181.464L227.922 180.36C229.074 180.36 230.418 180.36 231.81 180.312V178.744C230.162 178.536 229.074 177.544 229.074 176.12C229.074 174.504 230.466 173.464 232.466 173.464C234.466 173.464 235.858 174.504 235.858 176.12C235.858 177.544 234.77 178.536 233.122 178.744ZM241.378 175.928V177.032H239.138V184.184H237.826V169.832H239.138V175.928H241.378ZM258.619 173.96L258.171 174.984C255.899 174.68 253.771 173.688 252.859 172.152C251.963 173.688 249.819 174.68 247.547 174.984L247.099 173.96C249.739 173.672 252.187 172.312 252.187 170.472V169.944H253.531V170.472C253.531 172.312 255.979 173.672 258.619 173.96ZM249.259 181.608V183H258.123V184.024H247.979V180.648H256.395V179.32H247.931V178.328H257.691V181.608H249.259ZM253.515 176.088H259.355V177.144H246.363V176.088H252.203V174.232H253.515V176.088ZM271.21 173.144V171.448H262.634V170.408H272.538V174.152H263.994V175.992H272.858V177.064H262.682V173.144H271.21ZM274.106 178.536V179.608H268.234V184.2H266.922V179.608H261.082V178.536H274.106ZM286.313 180.552V175.976H283.417V174.904H286.313V173.016H283.417V171.96H286.313V169.832H287.641V180.552H286.313ZM284.185 177.368L283.465 178.408C281.913 177.752 280.697 176.456 280.073 174.856C279.481 176.584 278.217 177.96 276.537 178.648L275.833 177.608C277.977 176.776 279.417 174.728 279.417 172.472V170.632H280.729V172.472C280.729 174.584 282.121 176.552 284.185 177.368ZM279.721 182.792H287.977V183.864H278.409V179.464H279.721V182.792ZM295.186 175.56L294.802 174.568C297.458 174.392 299.65 173.512 299.874 172.088H295.442V171.096H299.954V169.736H301.266V171.096H305.762V172.088H301.346C301.57 173.512 303.73 174.392 306.402 174.568L306.002 175.56C303.602 175.368 301.49 174.632 300.61 173.304C299.73 174.632 297.602 175.368 295.186 175.56ZM307.074 177.208H301.266V178.536H305.426V181.672H296.994V183.032H305.858V184.024H295.714V180.728H304.13V179.512H295.666V178.536H299.938V177.208H294.13V176.2H307.074V177.208ZM313.92 171.08V173.656C313.92 176.28 315.632 178.92 317.76 179.88L316.976 180.936C315.344 180.136 313.968 178.44 313.28 176.392C312.624 178.552 311.248 180.344 309.568 181.208L308.768 180.136C310.88 179.128 312.624 176.376 312.624 173.656V171.08H313.92ZM319.264 169.832H320.576V184.216H319.264V169.832ZM1.408 206V204.784H4.016V196.032H1.936V195.104C2.976 194.912 3.728 194.64 4.368 194.256H5.488V204.784H7.84V206H1.408ZM10.955 197.856C10.955 199.44 11.659 200.464 13.051 200.464C13.851 200.464 14.747 200 15.499 198.896C15.339 196.48 14.443 195.2 12.939 195.2C11.819 195.2 10.955 196.256 10.955 197.856ZM12.619 206.208C11.355 206.208 10.459 205.696 9.803 205.008L10.619 204.096C11.099 204.656 11.819 204.992 12.571 204.992C14.091 204.992 15.403 203.744 15.515 200.112C14.795 200.992 13.787 201.552 12.811 201.552C10.859 201.552 9.579 200.288 9.579 197.856C9.579 195.584 11.115 194.048 12.939 194.048C15.195 194.048 16.875 195.904 16.875 199.632C16.875 204.384 14.827 206.208 12.619 206.208ZM22.214 206.208C20.054 206.208 18.47 204.896 18.47 203.088C18.47 201.52 19.558 200.432 20.63 199.856V199.776C19.766 199.184 19.046 198.304 19.046 197.072C19.046 195.28 20.438 194.096 22.262 194.096C24.262 194.096 25.478 195.376 25.478 197.184C25.478 198.416 24.614 199.472 23.91 200.016V200.096C24.934 200.688 25.894 201.568 25.894 203.168C25.894 204.88 24.422 206.208 22.214 206.208ZM23.014 199.632C23.814 198.928 24.23 198.128 24.23 197.264C24.23 196.112 23.51 195.168 22.246 195.168C21.158 195.168 20.374 195.936 20.374 197.072C20.374 198.48 21.638 199.088 23.014 199.632ZM22.246 205.12C23.59 205.12 24.502 204.304 24.502 203.136C24.502 201.568 23.062 200.976 21.398 200.304C20.454 200.912 19.798 201.84 19.798 202.96C19.798 204.208 20.838 205.12 22.246 205.12ZM29.793 206C29.985 201.552 30.801 198.72 33.089 195.52H27.409V194.256H34.753V195.152C32.001 198.672 31.489 201.408 31.313 206H29.793ZM41.516 201.408C40.108 201.408 39.34 199.888 38.332 199.888C37.82 199.888 37.372 200.208 36.956 200.976L36.14 200.4C36.796 199.28 37.596 198.8 38.38 198.8C39.788 198.8 40.54 200.304 41.548 200.304C42.06 200.304 42.508 199.984 42.908 199.216L43.74 199.808C43.084 200.928 42.284 201.408 41.516 201.408ZM45.079 206V205.136C48.759 201.92 50.455 199.584 50.455 197.568C50.455 196.224 49.751 195.248 48.295 195.248C47.335 195.248 46.503 195.84 45.863 196.608L45.015 195.776C45.975 194.736 46.983 194.048 48.471 194.048C50.567 194.048 51.879 195.424 51.879 197.52C51.879 199.856 50.039 202.24 47.287 204.848C47.895 204.8 48.615 204.736 49.207 204.736H52.455V206H45.079ZM57.698 206.208C55.458 206.208 54.034 204.176 54.034 200.096C54.034 196.016 55.458 194.048 57.698 194.048C59.922 194.048 61.346 196.032 61.346 200.096C61.346 204.176 59.922 206.208 57.698 206.208ZM57.698 205.04C59.026 205.04 59.922 203.552 59.922 200.096C59.922 196.672 59.026 195.216 57.698 195.216C56.354 195.216 55.458 196.672 55.458 200.096C55.458 203.552 56.354 205.04 57.698 205.04ZM66.573 206.208C64.333 206.208 62.909 204.176 62.909 200.096C62.909 196.016 64.333 194.048 66.573 194.048C68.797 194.048 70.221 196.032 70.221 200.096C70.221 204.176 68.797 206.208 66.573 206.208ZM66.573 205.04C67.901 205.04 68.797 203.552 68.797 200.096C68.797 196.672 67.901 195.216 66.573 195.216C65.229 195.216 64.333 196.672 64.333 200.096C64.333 203.552 65.229 205.04 66.573 205.04ZM75.448 206.208C73.208 206.208 71.784 204.176 71.784 200.096C71.784 196.016 73.208 194.048 75.448 194.048C77.672 194.048 79.096 196.032 79.096 200.096C79.096 204.176 77.672 206.208 75.448 206.208ZM75.448 205.04C76.776 205.04 77.672 203.552 77.672 200.096C77.672 196.672 76.776 195.216 75.448 195.216C74.104 195.216 73.208 196.672 73.208 200.096C73.208 203.552 74.104 205.04 75.448 205.04ZM82.099 206.208C81.523 206.208 81.043 205.76 81.043 205.104C81.043 204.432 81.523 203.968 82.099 203.968C82.675 203.968 83.155 204.432 83.155 205.104C83.155 205.76 82.675 206.208 82.099 206.208ZM100.844 194.592V195.648H92.3804V194.592H95.9484V192.832H97.2604V194.592H100.844ZM94.4284 199.104C94.4284 200.112 95.3084 200.752 96.6044 200.752C97.9004 200.752 98.7964 200.112 98.7964 199.104C98.7964 198.112 97.9004 197.472 96.6044 197.472C95.3084 197.472 94.4284 198.112 94.4284 199.104ZM100.044 199.104C100.044 200.72 98.6364 201.776 96.6044 201.776C94.5724 201.776 93.1804 200.72 93.1804 199.104C93.1804 197.504 94.5724 196.448 96.6044 196.448C98.6364 196.448 100.044 197.504 100.044 199.104ZM95.8524 202.752V205.792H104.108V206.864H94.5404V202.752H95.8524ZM103.468 197.568H105.58V198.672H103.468V203.6H102.156V192.832H103.468V197.568ZM120.075 199.712H114.203V202.336H118.475V207.168H117.163V203.392H108.427V202.336H112.891V199.712H107.051V198.64H116.715C117.099 196.912 117.099 195.648 117.099 194.576H108.715V193.52H118.395V194.56C118.395 195.632 118.395 196.944 118.043 198.64H120.075V199.712ZM129.386 196.8H132.266V192.848H133.594V203.36H132.266V197.872H129.386V196.8ZM130.234 200.176L129.578 201.2C127.978 200.624 126.746 199.424 126.122 197.952C125.498 199.584 124.186 200.912 122.506 201.52L121.818 200.496C123.946 199.728 125.434 197.824 125.434 195.792V195.072H122.234V194H129.898V195.072H126.746V195.776C126.746 197.648 128.154 199.44 130.234 200.176ZM125.738 205.792H133.994V206.864H124.41V202.432H125.738V205.792ZM141.321 195.392V197.216C141.321 199.504 142.953 202.048 145.033 203.024L144.281 204.08C142.681 203.28 141.337 201.6 140.681 199.68C140.025 201.776 138.633 203.6 137.017 204.432L136.249 203.392C138.297 202.368 140.025 199.648 140.025 197.216V195.392H136.745V194.304H144.505V195.392H141.321ZM149.897 198.624V199.728H147.529V207.184H146.217V192.848H147.529V198.624H149.897ZM157.687 206.176C160.007 206.176 161.287 205.728 161.287 204.864C161.287 204.016 160.007 203.552 157.687 203.552C155.383 203.552 154.087 204.016 154.087 204.864C154.087 205.728 155.383 206.176 157.687 206.176ZM157.687 202.576C160.807 202.576 162.599 203.376 162.599 204.864C162.599 206.368 160.807 207.168 157.687 207.168C154.567 207.168 152.775 206.368 152.775 204.864C152.775 203.376 154.567 202.576 157.687 202.576ZM158.343 200.432H164.183V201.488H151.191V200.432H157.031V199.024H152.903V193.248H162.583V194.272H154.215V195.6H162.199V196.592H154.215V198H162.663V199.024H158.343V200.432ZM177.702 192.832V203.36H176.39V192.832H177.702ZM174.566 199.984L173.878 201.024C172.246 200.4 170.982 199.104 170.342 197.472C169.734 199.216 168.438 200.608 166.758 201.312L166.07 200.24C168.23 199.408 169.67 197.328 169.67 195.088V193.632H170.982V195.088C170.982 197.248 172.438 199.2 174.566 199.984ZM169.782 205.792H178.134V206.864H168.47V202.384H169.782V205.792ZM182.117 197.344C182.117 198.768 183.157 199.792 184.565 199.792C185.957 199.792 186.997 198.768 186.997 197.344C186.997 195.92 185.957 194.896 184.565 194.896C183.157 194.896 182.117 195.92 182.117 197.344ZM191.141 196.144H188.053C188.181 196.512 188.245 196.912 188.245 197.344C188.245 197.76 188.181 198.16 188.053 198.528H191.141V196.144ZM191.141 199.584H187.509C186.837 200.432 185.797 200.944 184.565 200.944C182.453 200.944 180.869 199.44 180.869 197.344C180.869 195.248 182.453 193.744 184.565 193.744C185.797 193.744 186.821 194.256 187.493 195.088H191.141V192.848H192.469V203.44H191.141V199.584ZM184.613 205.792H192.869V206.864H183.285V202.352H184.613V205.792ZM208.356 199.936V201.008H202.5V207.2H201.172V201.008H195.38V199.936H204.9C205.348 197.872 205.348 196.352 205.348 195.008V194.816H196.996V193.76H206.628V195.008C206.628 196.352 206.628 197.872 206.228 199.936H208.356ZM222.466 199.84L221.906 200.928C219.714 200.464 217.458 198.976 216.53 196.928C215.602 198.976 213.362 200.464 211.154 200.928L210.61 199.84C213.122 199.392 215.842 197.28 215.842 194.896V193.792H217.218V194.896C217.218 197.28 219.954 199.392 222.466 199.84ZM217.186 204.24H223.106V205.312H210.082V204.24H215.874V200.752H217.186V204.24ZM227.777 209.152C226.305 206.752 225.425 204.176 225.425 201.024C225.425 197.888 226.305 195.296 227.777 192.912L228.689 193.328C227.297 195.616 226.641 198.304 226.641 201.024C226.641 203.744 227.297 206.448 228.689 208.72L227.777 209.152ZM230.959 206V194.256H237.727V195.52H232.447V199.2H236.895V200.464H232.447V204.736H237.903V206H230.959ZM242.814 206V195.52H239.262V194.256H247.854V195.52H244.302V206H242.814ZM249.944 206V194.256H253.624C256.008 194.256 257.72 195.12 257.72 197.568C257.72 199.392 256.664 200.48 255.064 200.864L258.072 206H256.392L253.544 201.024H251.432V206H249.944ZM251.432 199.824H253.4C255.24 199.824 256.248 199.088 256.248 197.568C256.248 196.016 255.24 195.472 253.4 195.472H251.432V199.824ZM260.116 206V194.256H261.604V206H260.116ZM264.787 209.152L263.891 208.72C265.267 206.448 265.939 203.744 265.939 201.024C265.939 198.304 265.267 195.616 263.891 193.328L264.787 192.912C266.275 195.296 267.155 197.888 267.155 201.024C267.155 204.176 266.275 206.752 264.787 209.152ZM273.788 206V194.256H275.276V206H273.788ZM282.907 206.208C279.995 206.208 277.803 203.952 277.803 200.144C277.803 196.352 280.027 194.048 283.003 194.048C284.427 194.048 285.547 194.752 286.219 195.504L285.419 196.464C284.811 195.808 284.027 195.344 283.019 195.344C280.795 195.344 279.323 197.168 279.323 200.096C279.323 203.056 280.731 204.912 282.971 204.912C284.091 204.912 284.939 204.416 285.691 203.6L286.507 204.528C285.579 205.6 284.427 206.208 282.907 206.208ZM290.814 206V195.52H287.262V194.256H295.854V195.52H292.302V206H290.814ZM305.858 194.08V196.656C305.858 199.28 307.57 201.92 309.698 202.88L308.914 203.936C307.282 203.136 305.906 201.44 305.218 199.392C304.562 201.552 303.186 203.344 301.506 204.208L300.706 203.136C302.818 202.128 304.562 199.376 304.562 196.656V194.08H305.858ZM311.202 192.832H312.514V207.216H311.202V192.832ZM327.857 200.048L327.265 201.136C325.089 200.64 322.849 199.104 321.937 196.992C321.025 199.088 318.785 200.624 316.625 201.136L316.033 200.048C318.545 199.552 321.249 197.392 321.249 194.944V193.84H322.625V194.944C322.625 197.392 325.345 199.568 327.857 200.048ZM315.489 204.176H328.497V205.264H315.489V204.176ZM338.287 201.328V197.504H336.383V196.448H338.287V193.072H339.535V201.328H338.287ZM336.943 199.168L337.055 200.224C335.423 200.544 334.063 200.608 331.775 200.608H330.863V193.76H336.287V194.816H332.127V196.592H335.727V197.616H332.127V199.552C334.159 199.552 335.455 199.472 336.943 199.168ZM334.175 203.2V205.936H341.039V203.2H334.175ZM332.895 206.992V202.16H342.319V206.992H332.895ZM341.055 192.832H342.319V201.472H341.055V192.832ZM349.048 194.688H354.648C354.648 198.384 353.352 201.808 349.272 204.112L348.504 203.168C351.8 201.328 353.16 198.736 353.352 195.76H349.048V194.688ZM359.416 192.832H360.68V207.184H359.416V199.68H357.464V206.464H356.232V193.216H357.464V198.608H359.416V192.832ZM369.175 198.64V196.496H365.111V198.64H369.175ZM370.455 193.424V199.696H363.815V193.424H365.111V195.488H369.175V193.424H370.455ZM366.567 204.416V205.984H374.887V207.024H365.287V203.44H373.063V201.968H365.239V200.928H374.359V204.416H366.567ZM374.359 195.92H376.487V197.008H374.359V200.256H373.047V192.848H374.359V195.92Z" fill="#002197" fill-opacity="0.78"/>
<path d="M4.9 13.38V16.34H13.46V13.38H4.9ZM10.2 21.64H17.38V23.34H1.02V21.64H8.14V18H2.86V8.68H4.9V11.72H13.46V8.68H15.5V18H10.2V21.64ZM20.8584 13.2C20.8584 14.86 22.0584 15.94 23.6384 15.94C25.2184 15.94 26.4384 14.86 26.4384 13.2C26.4384 11.56 25.2184 10.48 23.6384 10.48C22.0584 10.48 20.8584 11.56 20.8584 13.2ZM28.4584 13.2C28.4584 15.84 26.3784 17.72 23.6384 17.72C20.9184 17.72 18.8384 15.84 18.8384 13.2C18.8384 10.56 20.9184 8.7 23.6384 8.7C26.3784 8.7 28.4584 10.56 28.4584 13.2ZM23.3584 19.36V23.52H33.4384V25.2H21.2784V19.36H23.3584ZM32.7184 12.84H35.2784V14.54H32.7184V20.72H30.6584V7.48H32.7184V12.84ZM55.3491 12.4L54.6291 13.94C51.6691 13.56 49.2091 12.42 48.0491 10.6C46.8691 12.42 44.4291 13.56 41.4691 13.94L40.7691 12.4C44.4691 11.98 46.9891 10.28 46.9891 8.14V7.62H49.1091V8.14C49.1091 10.28 51.6491 11.98 55.3491 12.4ZM43.9091 22.36V23.8H54.7091V25.38H41.8691V20.9H52.1691V19.56H41.8291V18H54.1891V22.36H43.9091ZM49.0691 15.12H56.2491V16.78H39.8891V15.12H47.0091V12.98H49.0691V15.12ZM69.8275 11.58V9.78H59.4275V8.12H71.9275V13.14H61.5475V15.08H72.3275V16.76H59.4675V11.58H69.8275ZM73.8675 18.38V20.04H66.6875V25.58H64.6075V20.04H57.4875V18.38H73.8675ZM88.0059 20.92V15.28H84.6459V13.62H88.0059V11.68H84.6459V10H88.0059V7.48H90.0659V20.92H88.0059ZM85.7459 16.82L84.6059 18.44C82.7059 17.64 81.2859 16.1 80.5259 14.22C79.7459 16.26 78.2459 17.86 76.1859 18.68L75.0659 17.06C77.8859 16.02 79.4459 13.44 79.4459 10.72V8.48H81.5459V10.72C81.5459 13.28 83.0459 15.78 85.7459 16.82ZM80.3859 23.52H90.4859V25.2H78.3059V19.62H80.3859V23.52ZM97.0566 9.76H104.157C104.157 14.58 102.577 18.84 97.4966 21.76L96.2966 20.3C100.197 18.04 101.837 15.08 102.117 11.44H97.0566V9.76ZM109.797 7.48H111.757V25.54H109.797V16.22H107.737V24.7H105.797V7.96H107.737V14.54H109.797V7.48ZM121.095 14.5V12.2H116.675V14.5H121.095ZM123.135 8.24V16.14H114.615V8.24H116.675V10.62H121.095V8.24H123.135ZM118.495 22.16V23.76H128.695V25.38H116.475V20.64H126.055V19.14H116.435V17.54H128.095V22.16H118.495ZM128.095 11.18H130.635V12.88H128.095V16.74H126.035V7.48H128.095V11.18ZM150.166 7.48V16.74H148.086V7.48H150.166ZM146.266 14.72L145.266 16.34C143.186 15.66 141.666 14.28 140.846 12.5C140.026 14.44 138.486 15.94 136.306 16.68L135.286 15.04C138.146 14.1 139.766 11.76 139.766 9.32V7.96H141.866V9.32C141.866 11.66 143.486 13.86 146.266 14.72ZM140.386 23.76H150.706V25.38H138.366V20.68H148.126V19.2H138.326V17.6H150.166V22.18H140.386V23.76ZM163.624 16.04L162.604 17.64C160.604 16.94 159.164 15.52 158.384 13.78C157.584 15.72 156.064 17.28 153.924 18.02L152.864 16.4C155.664 15.44 157.304 13.06 157.304 10.62V10.26H153.484V8.6H163.144V10.26H159.384V10.6C159.384 12.84 160.924 15.1 163.624 16.04ZM155.664 20.82V19.16H167.844V25.54H165.784V20.82H155.664ZM165.784 7.46H167.844V18.26H165.784V13.7H162.624V12H165.784V7.46Z" fill="#002197" fill-opacity="0.78"/>
<path d="M4.9 13.38V13.18H4.7V13.38H4.9ZM4.9 16.34H4.7V16.54H4.9V16.34ZM13.46 16.34V16.54H13.66V16.34H13.46ZM13.46 13.38H13.66V13.18H13.46V13.38ZM10.2 21.64H10V21.84H10.2V21.64ZM17.38 21.64H17.58V21.44H17.38V21.64ZM17.38 23.34V23.54H17.58V23.34H17.38ZM1.02 23.34H0.82V23.54H1.02V23.34ZM1.02 21.64V21.44H0.82V21.64H1.02ZM8.14 21.64V21.84H8.34V21.64H8.14ZM8.14 18H8.34V17.8H8.14V18ZM2.86 18H2.66V18.2H2.86V18ZM2.86 8.68V8.48H2.66V8.68H2.86ZM4.9 8.68H5.1V8.48H4.9V8.68ZM4.9 11.72H4.7V11.92H4.9V11.72ZM13.46 11.72V11.92H13.66V11.72H13.46ZM13.46 8.68V8.48H13.26V8.68H13.46ZM15.5 8.68H15.7V8.48H15.5V8.68ZM15.5 18V18.2H15.7V18H15.5ZM10.2 18V17.8H10V18H10.2ZM4.7 13.38V16.34H5.1V13.38H4.7ZM4.9 16.54H13.46V16.14H4.9V16.54ZM13.66 16.34V13.38H13.26V16.34H13.66ZM13.46 13.18H4.9V13.58H13.46V13.18ZM10.2 21.84H17.38V21.44H10.2V21.84ZM17.18 21.64V23.34H17.58V21.64H17.18ZM17.38 23.14H1.02V23.54H17.38V23.14ZM1.22 23.34V21.64H0.82V23.34H1.22ZM1.02 21.84H8.14V21.44H1.02V21.84ZM8.34 21.64V18H7.94V21.64H8.34ZM8.14 17.8H2.86V18.2H8.14V17.8ZM3.06 18V8.68H2.66V18H3.06ZM2.86 8.88H4.9V8.48H2.86V8.88ZM4.7 8.68V11.72H5.1V8.68H4.7ZM4.9 11.92H13.46V11.52H4.9V11.92ZM13.66 11.72V8.68H13.26V11.72H13.66ZM13.46 8.88H15.5V8.48H13.46V8.88ZM15.3 8.68V18H15.7V8.68H15.3ZM15.5 17.8H10.2V18.2H15.5V17.8ZM10 18V21.64H10.4V18H10ZM23.3584 19.36H23.5584V19.16H23.3584V19.36ZM23.3584 23.52H23.1584V23.72H23.3584V23.52ZM33.4384 23.52H33.6384V23.32H33.4384V23.52ZM33.4384 25.2V25.4H33.6384V25.2H33.4384ZM21.2784 25.2H21.0784V25.4H21.2784V25.2ZM21.2784 19.36V19.16H21.0784V19.36H21.2784ZM32.7184 12.84H32.5184V13.04H32.7184V12.84ZM35.2784 12.84H35.4784V12.64H35.2784V12.84ZM35.2784 14.54V14.74H35.4784V14.54H35.2784ZM32.7184 14.54V14.34H32.5184V14.54H32.7184ZM32.7184 20.72V20.92H32.9184V20.72H32.7184ZM30.6584 20.72H30.4584V20.92H30.6584V20.72ZM30.6584 7.48V7.28H30.4584V7.48H30.6584ZM32.7184 7.48H32.9184V7.28H32.7184V7.48ZM20.6584 13.2C20.6584 14.0804 20.9778 14.8188 21.5174 15.3368C22.0561 15.8538 22.8025 16.14 23.6384 16.14V15.74C22.8944 15.74 22.2508 15.4862 21.7944 15.0482C21.3391 14.6112 21.0584 13.9796 21.0584 13.2H20.6584ZM23.6384 16.14C24.4742 16.14 25.2252 15.8539 25.7687 15.3375C26.3134 14.8199 26.6384 14.0814 26.6384 13.2H26.2384C26.2384 13.9786 25.9535 14.6101 25.4932 15.0475C25.0316 15.4861 24.3826 15.74 23.6384 15.74V16.14ZM26.6384 13.2C26.6384 11.4391 25.3181 10.28 23.6384 10.28V10.68C25.1187 10.68 26.2384 11.6809 26.2384 13.2H26.6384ZM23.6384 10.28C22.8025 10.28 22.0563 10.5662 21.5178 11.0803C20.9783 11.5955 20.6584 12.329 20.6584 13.2H21.0584C21.0584 12.431 21.3386 11.8045 21.7941 11.3697C22.2505 10.9338 22.8944 10.68 23.6384 10.68V10.28ZM28.2584 13.2C28.2584 15.7156 26.2824 17.52 23.6384 17.52V17.92C26.4745 17.92 28.6584 15.9644 28.6584 13.2H28.2584ZM23.6384 17.52C21.015 17.52 19.0384 15.7162 19.0384 13.2H18.6384C18.6384 15.9638 20.8218 17.92 23.6384 17.92V17.52ZM19.0384 13.2C19.0384 10.685 21.0138 8.9 23.6384 8.9V8.5C20.8231 8.5 18.6384 10.435 18.6384 13.2H19.0384ZM23.6384 8.9C26.2836 8.9 28.2584 10.6855 28.2584 13.2H28.6584C28.6584 10.4345 26.4732 8.5 23.6384 8.5V8.9ZM23.1584 19.36V23.52H23.5584V19.36H23.1584ZM23.3584 23.72H33.4384V23.32H23.3584V23.72ZM33.2384 23.52V25.2H33.6384V23.52H33.2384ZM33.4384 25H21.2784V25.4H33.4384V25ZM21.4784 25.2V19.36H21.0784V25.2H21.4784ZM21.2784 19.56H23.3584V19.16H21.2784V19.56ZM32.7184 13.04H35.2784V12.64H32.7184V13.04ZM35.0784 12.84V14.54H35.4784V12.84H35.0784ZM35.2784 14.34H32.7184V14.74H35.2784V14.34ZM32.5184 14.54V20.72H32.9184V14.54H32.5184ZM32.7184 20.52H30.6584V20.92H32.7184V20.52ZM30.8584 20.72V7.48H30.4584V20.72H30.8584ZM30.6584 7.68H32.7184V7.28H30.6584V7.68ZM32.5184 7.48V12.84H32.9184V7.48H32.5184ZM55.3491 12.4L55.5302 12.4847L55.6481 12.2327L55.3716 12.2013L55.3491 12.4ZM54.6291 13.94L54.6036 14.1384L54.7484 14.157L54.8102 14.0247L54.6291 13.94ZM48.0491 10.6L48.2177 10.4925L48.0505 10.2301L47.8812 10.4912L48.0491 10.6ZM41.4691 13.94L41.287 14.0228L41.3481 14.1572L41.4945 14.1384L41.4691 13.94ZM40.7691 12.4L40.7465 12.2013L40.4731 12.2323L40.587 12.4828L40.7691 12.4ZM46.9891 7.62V7.42H46.7891V7.62H46.9891ZM49.1091 7.62H49.3091V7.42H49.1091V7.62ZM43.9091 22.36V22.16H43.7091V22.36H43.9091ZM43.9091 23.8H43.7091V24H43.9091V23.8ZM54.7091 23.8H54.9091V23.6H54.7091V23.8ZM54.7091 25.38V25.58H54.9091V25.38H54.7091ZM41.8691 25.38H41.6691V25.58H41.8691V25.38ZM41.8691 20.9V20.7H41.6691V20.9H41.8691ZM52.1691 20.9V21.1H52.3691V20.9H52.1691ZM52.1691 19.56H52.3691V19.36H52.1691V19.56ZM41.8291 19.56H41.6291V19.76H41.8291V19.56ZM41.8291 18V17.8H41.6291V18H41.8291ZM54.1891 18H54.3891V17.8H54.1891V18ZM54.1891 22.36V22.56H54.3891V22.36H54.1891ZM49.0691 15.12H48.8691V15.32H49.0691V15.12ZM56.2491 15.12H56.4491V14.92H56.2491V15.12ZM56.2491 16.78V16.98H56.4491V16.78H56.2491ZM39.8891 16.78H39.6891V16.98H39.8891V16.78ZM39.8891 15.12V14.92H39.6891V15.12H39.8891ZM47.0091 15.12V15.32H47.2091V15.12H47.0091ZM47.0091 12.98V12.78H46.8091V12.98H47.0091ZM49.0691 12.98H49.2691V12.78H49.0691V12.98ZM55.1679 12.3153L54.4479 13.8553L54.8102 14.0247L55.5302 12.4847L55.1679 12.3153ZM54.6545 13.7416C51.7192 13.3648 49.3311 12.2393 48.2177 10.4925L47.8804 10.7075C49.0871 12.6007 51.6189 13.7552 54.6036 14.1384L54.6545 13.7416ZM47.8812 10.4912C46.7475 12.2398 44.3778 13.3649 41.4436 13.7416L41.4945 14.1384C44.4804 13.7551 46.9906 12.6002 48.2169 10.7088L47.8812 10.4912ZM41.6511 13.8572L40.9511 12.3172L40.587 12.4828L41.287 14.0228L41.6511 13.8572ZM40.7916 12.5987C42.6639 12.3862 44.2526 11.8485 45.3792 11.0802C46.5061 10.3118 47.1891 9.29736 47.1891 8.14H46.7891C46.7891 9.12264 46.212 10.0282 45.1539 10.7498C44.0955 11.4715 42.5742 11.9938 40.7465 12.2013L40.7916 12.5987ZM47.1891 8.14V7.62H46.7891V8.14H47.1891ZM46.9891 7.82H49.1091V7.42H46.9891V7.82ZM48.9091 7.62V8.14H49.3091V7.62H48.9091ZM48.9091 8.14C48.9091 9.29799 49.5977 10.3124 50.7292 11.0805C51.8607 11.8486 53.4543 12.3862 55.3265 12.5987L55.3716 12.2013C53.5439 11.9938 52.0174 11.4714 50.9539 10.7495C49.8904 10.0276 49.3091 9.12201 49.3091 8.14H48.9091ZM43.7091 22.36V23.8H44.1091V22.36H43.7091ZM43.9091 24H54.7091V23.6H43.9091V24ZM54.5091 23.8V25.38H54.9091V23.8H54.5091ZM54.7091 25.18H41.8691V25.58H54.7091V25.18ZM42.0691 25.38V20.9H41.6691V25.38H42.0691ZM41.8691 21.1H52.1691V20.7H41.8691V21.1ZM52.3691 20.9V19.56H51.9691V20.9H52.3691ZM52.1691 19.36H41.8291V19.76H52.1691V19.36ZM42.0291 19.56V18H41.6291V19.56H42.0291ZM41.8291 18.2H54.1891V17.8H41.8291V18.2ZM53.9891 18V22.36H54.3891V18H53.9891ZM54.1891 22.16H43.9091V22.56H54.1891V22.16ZM49.0691 15.32H56.2491V14.92H49.0691V15.32ZM56.0491 15.12V16.78H56.4491V15.12H56.0491ZM56.2491 16.58H39.8891V16.98H56.2491V16.58ZM40.0891 16.78V15.12H39.6891V16.78H40.0891ZM39.8891 15.32H47.0091V14.92H39.8891V15.32ZM47.2091 15.12V12.98H46.8091V15.12H47.2091ZM47.0091 13.18H49.0691V12.78H47.0091V13.18ZM48.8691 12.98V15.12H49.2691V12.98H48.8691ZM69.8275 11.58V11.78H70.0275V11.58H69.8275ZM69.8275 9.78H70.0275V9.58H69.8275V9.78ZM59.4275 9.78H59.2275V9.98H59.4275V9.78ZM59.4275 8.12V7.92H59.2275V8.12H59.4275ZM71.9275 8.12H72.1275V7.92H71.9275V8.12ZM71.9275 13.14V13.34H72.1275V13.14H71.9275ZM61.5475 13.14V12.94H61.3475V13.14H61.5475ZM61.5475 15.08H61.3475V15.28H61.5475V15.08ZM72.3275 15.08H72.5275V14.88H72.3275V15.08ZM72.3275 16.76V16.96H72.5275V16.76H72.3275ZM59.4675 16.76H59.2675V16.96H59.4675V16.76ZM59.4675 11.58V11.38H59.2675V11.58H59.4675ZM73.8675 18.38H74.0675V18.18H73.8675V18.38ZM73.8675 20.04V20.24H74.0675V20.04H73.8675ZM66.6875 20.04V19.84H66.4875V20.04H66.6875ZM66.6875 25.58V25.78H66.8875V25.58H66.6875ZM64.6075 25.58H64.4075V25.78H64.6075V25.58ZM64.6075 20.04H64.8075V19.84H64.6075V20.04ZM57.4875 20.04H57.2875V20.24H57.4875V20.04ZM57.4875 18.38V18.18H57.2875V18.38H57.4875ZM70.0275 11.58V9.78H69.6275V11.58H70.0275ZM69.8275 9.58H59.4275V9.98H69.8275V9.58ZM59.6275 9.78V8.12H59.2275V9.78H59.6275ZM59.4275 8.32H71.9275V7.92H59.4275V8.32ZM71.7275 8.12V13.14H72.1275V8.12H71.7275ZM71.9275 12.94H61.5475V13.34H71.9275V12.94ZM61.3475 13.14V15.08H61.7475V13.14H61.3475ZM61.5475 15.28H72.3275V14.88H61.5475V15.28ZM72.1275 15.08V16.76H72.5275V15.08H72.1275ZM72.3275 16.56H59.4675V16.96H72.3275V16.56ZM59.6675 16.76V11.58H59.2675V16.76H59.6675ZM59.4675 11.78H69.8275V11.38H59.4675V11.78ZM73.6675 18.38V20.04H74.0675V18.38H73.6675ZM73.8675 19.84H66.6875V20.24H73.8675V19.84ZM66.4875 20.04V25.58H66.8875V20.04H66.4875ZM66.6875 25.38H64.6075V25.78H66.6875V25.38ZM64.8075 25.58V20.04H64.4075V25.58H64.8075ZM64.6075 19.84H57.4875V20.24H64.6075V19.84ZM57.6875 20.04V18.38H57.2875V20.04H57.6875ZM57.4875 18.58H73.8675V18.18H57.4875V18.58ZM88.0059 20.92H87.8059V21.12H88.0059V20.92ZM88.0059 15.28H88.2059V15.08H88.0059V15.28ZM84.6459 15.28H84.4459V15.48H84.6459V15.28ZM84.6459 13.62V13.42H84.4459V13.62H84.6459ZM88.0059 13.62V13.82H88.2059V13.62H88.0059ZM88.0059 11.68H88.2059V11.48H88.0059V11.68ZM84.6459 11.68H84.4459V11.88H84.6459V11.68ZM84.6459 10V9.8H84.4459V10H84.6459ZM88.0059 10V10.2H88.2059V10H88.0059ZM88.0059 7.48V7.28H87.8059V7.48H88.0059ZM90.0659 7.48H90.2659V7.28H90.0659V7.48ZM90.0659 20.92V21.12H90.2659V20.92H90.0659ZM85.7459 16.82L85.9095 16.9351L86.057 16.7255L85.8178 16.6334L85.7459 16.82ZM84.6059 18.44L84.5283 18.6243L84.6768 18.6868L84.7695 18.5551L84.6059 18.44ZM80.5259 14.22L80.7114 14.145L80.5208 13.6735L80.3391 14.1486L80.5259 14.22ZM76.1859 18.68L76.0214 18.7937L76.112 18.9247L76.2599 18.8658L76.1859 18.68ZM75.0659 17.06L74.9967 16.8724L74.7548 16.9616L74.9014 17.1737L75.0659 17.06ZM79.4459 8.48V8.28H79.2459V8.48H79.4459ZM81.5459 8.48H81.7459V8.28H81.5459V8.48ZM80.3859 23.52H80.1859V23.72H80.3859V23.52ZM90.4859 23.52H90.6859V23.32H90.4859V23.52ZM90.4859 25.2V25.4H90.6859V25.2H90.4859ZM78.3059 25.2H78.1059V25.4H78.3059V25.2ZM78.3059 19.62V19.42H78.1059V19.62H78.3059ZM80.3859 19.62H80.5859V19.42H80.3859V19.62ZM88.2059 20.92V15.28H87.8059V20.92H88.2059ZM88.0059 15.08H84.6459V15.48H88.0059V15.08ZM84.8459 15.28V13.62H84.4459V15.28H84.8459ZM84.6459 13.82H88.0059V13.42H84.6459V13.82ZM88.2059 13.62V11.68H87.8059V13.62H88.2059ZM88.0059 11.48H84.6459V11.88H88.0059V11.48ZM84.8459 11.68V10H84.4459V11.68H84.8459ZM84.6459 10.2H88.0059V9.8H84.6459V10.2ZM88.2059 10V7.48H87.8059V10H88.2059ZM88.0059 7.68H90.0659V7.28H88.0059V7.68ZM89.8659 7.48V20.92H90.2659V7.48H89.8659ZM90.0659 20.72H88.0059V21.12H90.0659V20.72ZM85.5824 16.7049L84.4424 18.3249L84.7695 18.5551L85.9095 16.9351L85.5824 16.7049ZM84.6835 18.2557C82.8368 17.4781 81.4532 15.98 80.7114 14.145L80.3405 14.295C81.1187 16.22 82.5751 17.8019 84.5283 18.6243L84.6835 18.2557ZM80.3391 14.1486C79.5779 16.1396 78.1169 17.6961 76.112 18.4942L76.2599 18.8658C78.375 18.0239 79.914 16.3804 80.7127 14.2914L80.3391 14.1486ZM76.3504 18.5663L75.2304 16.9463L74.9014 17.1737L76.0214 18.7937L76.3504 18.5663ZM75.1351 17.2476C78.0401 16.1763 79.6459 13.5168 79.6459 10.72H79.2459C79.2459 13.3632 77.7318 15.8637 74.9967 16.8724L75.1351 17.2476ZM79.6459 10.72V8.48H79.2459V10.72H79.6459ZM79.4459 8.68H81.5459V8.28H79.4459V8.68ZM81.3459 8.48V10.72H81.7459V8.48H81.3459ZM81.3459 10.72C81.3459 13.3574 82.892 15.935 85.674 17.0066L85.8178 16.6334C83.1999 15.625 81.7459 13.2026 81.7459 10.72H81.3459ZM80.3859 23.72H90.4859V23.32H80.3859V23.72ZM90.2859 23.52V25.2H90.6859V23.52H90.2859ZM90.4859 25H78.3059V25.4H90.4859V25ZM78.5059 25.2V19.62H78.1059V25.2H78.5059ZM78.3059 19.82H80.3859V19.42H78.3059V19.82ZM80.1859 19.62V23.52H80.5859V19.62H80.1859ZM97.0566 9.76V9.56H96.8566V9.76H97.0566ZM104.157 9.76H104.357V9.56H104.157V9.76ZM97.4966 21.76L97.3421 21.887L97.4495 22.0177L97.5962 21.9334L97.4966 21.76ZM96.2966 20.3L96.1963 20.127L95.9925 20.245L96.1421 20.427L96.2966 20.3ZM102.117 11.44L102.316 11.4553L102.333 11.24H102.117V11.44ZM97.0566 11.44H96.8566V11.64H97.0566V11.44ZM109.797 7.48V7.28H109.597V7.48H109.797ZM111.757 7.48H111.957V7.28H111.757V7.48ZM111.757 25.54V25.74H111.957V25.54H111.757ZM109.797 25.54H109.597V25.74H109.797V25.54ZM109.797 16.22H109.997V16.02H109.797V16.22ZM107.737 16.22V16.02H107.537V16.22H107.737ZM107.737 24.7V24.9H107.937V24.7H107.737ZM105.797 24.7H105.597V24.9H105.797V24.7ZM105.797 7.96V7.76H105.597V7.96H105.797ZM107.737 7.96H107.937V7.76H107.737V7.96ZM107.737 14.54H107.537V14.74H107.737V14.54ZM109.797 14.54V14.74H109.997V14.54H109.797ZM97.0566 9.96H104.157V9.56H97.0566V9.96ZM103.957 9.76C103.957 12.1488 103.565 14.3855 102.553 16.3821C101.542 18.3766 99.9064 20.1441 97.3969 21.5866L97.5962 21.9334C100.167 20.4559 101.861 18.6334 102.91 16.5629C103.958 14.4945 104.357 12.1912 104.357 9.76H103.957ZM97.6511 21.633L96.4511 20.173L96.1421 20.427L97.3421 21.887L97.6511 21.633ZM96.3968 20.473C98.3696 19.3299 99.7805 18.0038 100.733 16.4942C101.686 14.9845 102.174 13.3018 102.316 11.4553L101.917 11.4247C101.779 13.2182 101.307 14.8355 100.395 16.2808C99.4827 17.7262 98.1235 19.0101 96.1963 20.127L96.3968 20.473ZM102.117 11.24H97.0566V11.64H102.117V11.24ZM97.2566 11.44V9.76H96.8566V11.44H97.2566ZM109.797 7.68H111.757V7.28H109.797V7.68ZM111.557 7.48V25.54H111.957V7.48H111.557ZM111.757 25.34H109.797V25.74H111.757V25.34ZM109.997 25.54V16.22H109.597V25.54H109.997ZM109.797 16.02H107.737V16.42H109.797V16.02ZM107.537 16.22V24.7H107.937V16.22H107.537ZM107.737 24.5H105.797V24.9H107.737V24.5ZM105.997 24.7V7.96H105.597V24.7H105.997ZM105.797 8.16H107.737V7.76H105.797V8.16ZM107.537 7.96V14.54H107.937V7.96H107.537ZM107.737 14.74H109.797V14.34H107.737V14.74ZM109.997 14.54V7.48H109.597V14.54H109.997ZM121.095 14.5V14.7H121.295V14.5H121.095ZM121.095 12.2H121.295V12H121.095V12.2ZM116.675 12.2V12H116.475V12.2H116.675ZM116.675 14.5H116.475V14.7H116.675V14.5ZM123.135 8.24H123.335V8.04H123.135V8.24ZM123.135 16.14V16.34H123.335V16.14H123.135ZM114.615 16.14H114.415V16.34H114.615V16.14ZM114.615 8.24V8.04H114.415V8.24H114.615ZM116.675 8.24H116.875V8.04H116.675V8.24ZM116.675 10.62H116.475V10.82H116.675V10.62ZM121.095 10.62V10.82H121.295V10.62H121.095ZM121.095 8.24V8.04H120.895V8.24H121.095ZM118.495 22.16V21.96H118.295V22.16H118.495ZM118.495 23.76H118.295V23.96H118.495V23.76ZM128.695 23.76H128.895V23.56H128.695V23.76ZM128.695 25.38V25.58H128.895V25.38H128.695ZM116.475 25.38H116.275V25.58H116.475V25.38ZM116.475 20.64V20.44H116.275V20.64H116.475ZM126.055 20.64V20.84H126.255V20.64H126.055ZM126.055 19.14H126.255V18.94H126.055V19.14ZM116.435 19.14H116.235V19.34H116.435V19.14ZM116.435 17.54V17.34H116.235V17.54H116.435ZM128.095 17.54H128.295V17.34H128.095V17.54ZM128.095 22.16V22.36H128.295V22.16H128.095ZM128.095 11.18H127.895V11.38H128.095V11.18ZM130.635 11.18H130.835V10.98H130.635V11.18ZM130.635 12.88V13.08H130.835V12.88H130.635ZM128.095 12.88V12.68H127.895V12.88H128.095ZM128.095 16.74V16.94H128.295V16.74H128.095ZM126.035 16.74H125.835V16.94H126.035V16.74ZM126.035 7.48V7.28H125.835V7.48H126.035ZM128.095 7.48H128.295V7.28H128.095V7.48ZM121.295 14.5V12.2H120.895V14.5H121.295ZM121.095 12H116.675V12.4H121.095V12ZM116.475 12.2V14.5H116.875V12.2H116.475ZM116.675 14.7H121.095V14.3H116.675V14.7ZM122.935 8.24V16.14H123.335V8.24H122.935ZM123.135 15.94H114.615V16.34H123.135V15.94ZM114.815 16.14V8.24H114.415V16.14H114.815ZM114.615 8.44H116.675V8.04H114.615V8.44ZM116.475 8.24V10.62H116.875V8.24H116.475ZM116.675 10.82H121.095V10.42H116.675V10.82ZM121.295 10.62V8.24H120.895V10.62H121.295ZM121.095 8.44H123.135V8.04H121.095V8.44ZM118.295 22.16V23.76H118.695V22.16H118.295ZM118.495 23.96H128.695V23.56H118.495V23.96ZM128.495 23.76V25.38H128.895V23.76H128.495ZM128.695 25.18H116.475V25.58H128.695V25.18ZM116.675 25.38V20.64H116.275V25.38H116.675ZM116.475 20.84H126.055V20.44H116.475V20.84ZM126.255 20.64V19.14H125.855V20.64H126.255ZM126.055 18.94H116.435V19.34H126.055V18.94ZM116.635 19.14V17.54H116.235V19.14H116.635ZM116.435 17.74H128.095V17.34H116.435V17.74ZM127.895 17.54V22.16H128.295V17.54H127.895ZM128.095 21.96H118.495V22.36H128.095V21.96ZM128.095 11.38H130.635V10.98H128.095V11.38ZM130.435 11.18V12.88H130.835V11.18H130.435ZM130.635 12.68H128.095V13.08H130.635V12.68ZM127.895 12.88V16.74H128.295V12.88H127.895ZM128.095 16.54H126.035V16.94H128.095V16.54ZM126.235 16.74V7.48H125.835V16.74H126.235ZM126.035 7.68H128.095V7.28H126.035V7.68ZM127.895 7.48V11.18H128.295V7.48H127.895ZM150.166 7.48H150.366V7.28H150.166V7.48ZM150.166 16.74V16.94H150.366V16.74H150.166ZM148.086 16.74H147.886V16.94H148.086V16.74ZM148.086 7.48V7.28H147.886V7.48H148.086ZM146.266 14.72L146.436 14.8251L146.571 14.6053L146.325 14.5289L146.266 14.72ZM145.266 16.34L145.203 16.5301L145.353 16.579L145.436 16.4451L145.266 16.34ZM140.846 12.5L141.027 12.4163L140.838 12.0049L140.661 12.4221L140.846 12.5ZM136.306 16.68L136.136 16.7856L136.22 16.9204L136.37 16.8694L136.306 16.68ZM135.286 15.04L135.223 14.85L134.981 14.9295L135.116 15.1456L135.286 15.04ZM139.766 7.96V7.76H139.566V7.96H139.766ZM141.866 7.96H142.066V7.76H141.866V7.96ZM140.386 23.76H140.186V23.96H140.386V23.76ZM150.706 23.76H150.906V23.56H150.706V23.76ZM150.706 25.38V25.58H150.906V25.38H150.706ZM138.366 25.38H138.166V25.58H138.366V25.38ZM138.366 20.68V20.48H138.166V20.68H138.366ZM148.126 20.68V20.88H148.326V20.68H148.126ZM148.126 19.2H148.326V19H148.126V19.2ZM138.326 19.2H138.126V19.4H138.326V19.2ZM138.326 17.6V17.4H138.126V17.6H138.326ZM150.166 17.6H150.366V17.4H150.166V17.6ZM150.166 22.18V22.38H150.366V22.18H150.166ZM140.386 22.18V21.98H140.186V22.18H140.386ZM149.966 7.48V16.74H150.366V7.48H149.966ZM150.166 16.54H148.086V16.94H150.166V16.54ZM148.286 16.74V7.48H147.886V16.74H148.286ZM148.086 7.68H150.166V7.28H148.086V7.68ZM146.095 14.6149L145.095 16.2349L145.436 16.4451L146.436 14.8251L146.095 14.6149ZM145.328 16.1499C143.299 15.4866 141.823 14.144 141.027 12.4163L140.664 12.5837C141.508 14.416 143.072 15.8334 145.203 16.5301L145.328 16.1499ZM140.661 12.4221C139.863 14.3102 138.367 15.7692 136.241 16.4906L136.37 16.8694C138.605 16.1108 140.188 14.5698 141.03 12.5779L140.661 12.4221ZM136.475 16.5744L135.455 14.9344L135.116 15.1456L136.136 16.7856L136.475 16.5744ZM135.348 15.23C138.283 14.2652 139.966 11.8533 139.966 9.32H139.566C139.566 11.6667 138.008 13.9348 135.223 14.85L135.348 15.23ZM139.966 9.32V7.96H139.566V9.32H139.966ZM139.766 8.16H141.866V7.76H139.766V8.16ZM141.666 7.96V9.32H142.066V7.96H141.666ZM141.666 9.32C141.666 11.7589 143.354 14.0286 146.207 14.9111L146.325 14.5289C143.617 13.6914 142.066 11.5611 142.066 9.32H141.666ZM140.386 23.96H150.706V23.56H140.386V23.96ZM150.506 23.76V25.38H150.906V23.76H150.506ZM150.706 25.18H138.366V25.58H150.706V25.18ZM138.566 25.38V20.68H138.166V25.38H138.566ZM138.366 20.88H148.126V20.48H138.366V20.88ZM148.326 20.68V19.2H147.926V20.68H148.326ZM148.126 19H138.326V19.4H148.126V19ZM138.526 19.2V17.6H138.126V19.2H138.526ZM138.326 17.8H150.166V17.4H138.326V17.8ZM149.966 17.6V22.18H150.366V17.6H149.966ZM150.166 21.98H140.386V22.38H150.166V21.98ZM140.186 22.18V23.76H140.586V22.18H140.186ZM163.624 16.04L163.793 16.1475L163.929 15.9343L163.69 15.8511L163.624 16.04ZM162.604 17.64L162.538 17.8288L162.688 17.8811L162.773 17.7475L162.604 17.64ZM158.384 13.78L158.567 13.6982L158.376 13.274L158.199 13.7038L158.384 13.78ZM153.924 18.02L153.757 18.1295L153.842 18.26L153.989 18.209L153.924 18.02ZM152.864 16.4L152.799 16.2108L152.556 16.2942L152.697 16.5095L152.864 16.4ZM157.304 10.26H157.504V10.06H157.304V10.26ZM153.484 10.26H153.284V10.46H153.484V10.26ZM153.484 8.6V8.4H153.284V8.6H153.484ZM163.144 8.6H163.344V8.4H163.144V8.6ZM163.144 10.26V10.46H163.344V10.26H163.144ZM159.384 10.26V10.06H159.184V10.26H159.384ZM155.664 20.82H155.464V21.02H155.664V20.82ZM155.664 19.16V18.96H155.464V19.16H155.664ZM167.844 19.16H168.044V18.96H167.844V19.16ZM167.844 25.54V25.74H168.044V25.54H167.844ZM165.784 25.54H165.584V25.74H165.784V25.54ZM165.784 20.82H165.984V20.62H165.784V20.82ZM165.784 7.46V7.26H165.584V7.46H165.784ZM167.844 7.46H168.044V7.26H167.844V7.46ZM167.844 18.26V18.46H168.044V18.26H167.844ZM165.784 18.26H165.584V18.46H165.784V18.26ZM165.784 13.7H165.984V13.5H165.784V13.7ZM162.624 13.7H162.424V13.9H162.624V13.7ZM162.624 12V11.8H162.424V12H162.624ZM165.784 12V12.2H165.984V12H165.784ZM163.455 15.9325L162.435 17.5325L162.773 17.7475L163.793 16.1475L163.455 15.9325ZM162.67 17.4512C160.724 16.7701 159.325 15.3901 158.567 13.6982L158.202 13.8618C159.003 15.6499 160.484 17.1099 162.538 17.8288L162.67 17.4512ZM158.199 13.7038C157.419 15.5946 155.941 17.111 153.859 17.831L153.989 18.209C156.187 17.449 157.749 15.8454 158.569 13.8562L158.199 13.7038ZM154.091 17.9105L153.031 16.2905L152.697 16.5095L153.757 18.1295L154.091 17.9105ZM152.929 16.5892C155.803 15.6036 157.504 13.152 157.504 10.62H157.104C157.104 12.968 155.525 15.2764 152.799 16.2108L152.929 16.5892ZM157.504 10.62V10.26H157.104V10.62H157.504ZM157.304 10.06H153.484V10.46H157.304V10.06ZM153.684 10.26V8.6H153.284V10.26H153.684ZM153.484 8.8H163.144V8.4H153.484V8.8ZM162.944 8.6V10.26H163.344V8.6H162.944ZM163.144 10.06H159.384V10.46H163.144V10.06ZM159.184 10.26V10.6H159.584V10.26H159.184ZM159.184 10.6C159.184 12.9335 160.786 15.2637 163.558 16.2289L163.69 15.8511C161.062 14.9363 159.584 12.7465 159.584 10.6H159.184ZM155.864 20.82V19.16H155.464V20.82H155.864ZM155.664 19.36H167.844V18.96H155.664V19.36ZM167.644 19.16V25.54H168.044V19.16H167.644ZM167.844 25.34H165.784V25.74H167.844V25.34ZM165.984 25.54V20.82H165.584V25.54H165.984ZM165.784 20.62H155.664V21.02H165.784V20.62ZM165.784 7.66H167.844V7.26H165.784V7.66ZM167.644 7.46V18.26H168.044V7.46H167.644ZM167.844 18.06H165.784V18.46H167.844V18.06ZM165.984 18.26V13.7H165.584V18.26H165.984ZM165.784 13.5H162.624V13.9H165.784V13.5ZM162.824 13.7V12H162.424V13.7H162.824ZM162.624 12.2H165.784V11.8H162.624V12.2ZM165.984 12V7.46H165.584V12H165.984Z" fill="#002197" fill-opacity="0.78"/>
</svg>
