<svg width="313" height="86" viewBox="0 0 313 86" fill="none" xmlns="http://www.w3.org/2000/svg">
<path d="M66.16 27.32V39.2H61.24V13.28H66.16V23.08H69.12V12.6H74.12V39.92H69.12V27.32H66.16ZM59.52 29.92L59.96 34.08C55.8 34.8 52.16 34.92 46.76 34.92H44.2V23.24H53.04V19.72H44.16V15.6H58.12V27.08H49.28V30.76C53.2 30.72 56.2 30.52 59.52 29.92ZM54.6 44.6H75.04V48.8H49.32V37.4H54.6V44.6ZM103.517 28.52L100.837 32.6C96.9169 31.32 94.1969 28.84 92.5969 25.64C90.9969 29.16 88.1569 31.88 83.9969 33.24L81.2369 29.12C87.3569 27.2 89.9169 22.56 89.9169 17.76V14.28H95.2369V18.08C95.2369 22.48 97.7169 26.72 103.517 28.52ZM92.9969 39.36V44.88H107.157V39.36H92.9969ZM87.7969 49V35.24H112.317V49H87.7969ZM107.037 12.6H112.317V33.64H107.037V23.28H100.317V19H107.037V12.6ZM129.474 18.6C127.434 18.6 125.954 19.68 125.954 21.68C125.954 23.6 127.434 24.72 129.474 24.72C131.474 24.72 132.914 23.6 132.914 21.68C132.914 19.68 131.474 18.6 129.474 18.6ZM129.474 28.64C124.754 28.64 121.274 25.72 121.274 21.68C121.274 17.56 124.754 14.68 129.474 14.68C134.154 14.68 137.594 17.56 137.594 21.68C137.594 25.72 134.154 28.64 129.474 28.64ZM138.354 29.68L138.754 33.52C136.634 33.92 134.234 34.24 131.914 34.44V46.56H126.874V34.72C124.434 34.84 122.194 34.84 120.314 34.84L119.754 30.56C124.674 30.56 132.554 30.48 138.354 29.68ZM140.154 36.32V13.24H145.074V47.76H140.154V40.28H134.394V36.32H140.154ZM147.514 12.64H152.514V49.44H147.514V12.64ZM169.191 36.68C171.911 36.68 173.711 33.76 173.711 28.28C173.711 22.84 171.911 19.92 169.191 19.92C166.511 19.92 164.711 22.84 164.711 28.28C164.711 33.76 166.511 36.68 169.191 36.68ZM184.751 12.56H190.031V49.52H184.751V30.12H178.631C178.071 37.16 174.311 41.48 169.191 41.48C163.711 41.48 159.671 36.4 159.671 28.28C159.671 20.2 163.711 15.16 169.191 15.16C174.151 15.16 177.871 19.2 178.591 25.84H184.751V12.56ZM211.428 28.12V23.56H204.188V28.12H211.428ZM216.628 14.96V32.24H198.988V14.96H204.188V19.52H211.428V14.96H216.628ZM214.828 45.4C219.548 45.4 222.068 44.4 222.068 42.32C222.068 40.24 219.548 39.24 214.828 39.24C210.148 39.24 207.628 40.24 207.628 42.32C207.628 44.4 210.148 45.4 214.828 45.4ZM214.828 35.12C222.508 35.12 227.308 37.8 227.308 42.32C227.308 46.8 222.508 49.48 214.828 49.48C207.188 49.48 202.388 46.8 202.388 42.32C202.388 37.8 207.188 35.12 214.828 35.12ZM226.908 21.2H231.788V25.52H226.908V34.32H221.628V12.64H226.908V21.2ZM250.944 20.48V22.52C250.944 28.52 253.904 34.88 260.064 37.44L257.184 41.6C252.904 39.76 249.984 36.16 248.344 31.72C246.704 36.52 243.744 40.56 239.424 42.52L236.424 38.32C242.584 35.56 245.584 28.8 245.584 22.52V20.48H237.904V16.12H258.544V20.48H250.944ZM261.944 12.6H267.224V49.44H261.944V12.6Z" fill="#0E66C8"/>
<path d="M8.73519 76.312H11.6472V67.832H12.9592V78.76H11.6472V77.288H8.73519V76.312ZM5.80719 69.384C4.44719 69.384 3.51919 69.992 3.51919 70.904C3.51919 71.832 4.44719 72.44 5.80719 72.44C7.16719 72.44 8.09519 71.832 8.09519 70.904C8.09519 69.992 7.16719 69.384 5.80719 69.384ZM5.80719 73.416C3.71119 73.416 2.27119 72.44 2.27119 70.904C2.27119 69.4 3.71119 68.408 5.80719 68.408C7.90319 68.408 9.34319 69.4 9.34319 70.904C9.34319 72.44 7.90319 73.416 5.80719 73.416ZM5.29519 78.248V75.48C3.87119 75.544 2.49519 75.56 1.31119 75.56L1.13519 74.472C3.79119 74.472 7.34319 74.44 10.3832 74.056L10.4952 75C9.23119 75.192 7.90319 75.336 6.60719 75.416V78.248H5.29519ZM4.49519 80.792H13.3272V81.864H3.18319V77.688H4.49519V80.792ZM18.7979 79.464V80.968H27.8699V81.992H17.5019V78.488H26.0779V77.144H17.4699V76.12H27.3579V79.464H18.7979ZM26.9419 73.704H28.8939V74.76H15.9659V73.704H25.6139C25.7579 73.032 25.8379 72.424 25.9019 71.88L17.4059 72.264L17.2459 71.224L25.9659 70.952C25.9819 70.472 25.9819 70.024 25.9819 69.608V69.56H17.5979V68.52H27.2779V69.608C27.2779 70.728 27.2779 72.008 26.9419 73.704ZM39.3727 74.28L39.5167 75.336C37.1647 75.72 35.2127 75.8 32.5567 75.8H31.4047V71.656H36.5887V69.752H31.3567V68.68H37.8847V72.664H32.6847V74.728C35.2287 74.728 37.1007 74.648 39.3727 74.28ZM32.8447 78.456V77.384H42.4287V82.184H41.1167V78.456H32.8447ZM41.1167 67.848H42.4287V76.616H41.1167V67.848ZM51.8514 68.728C54.8274 68.728 57.0674 70.312 57.0674 72.696C57.0674 75.096 54.8274 76.664 51.8514 76.664C48.8754 76.664 46.6354 75.096 46.6354 72.696C46.6354 70.312 48.8754 68.728 51.8514 68.728ZM51.8514 69.8C49.5954 69.8 47.8834 70.968 47.8834 72.696C47.8834 74.44 49.5954 75.592 51.8514 75.592C54.1234 75.592 55.8194 74.44 55.8194 72.696C55.8194 70.968 54.1234 69.8 51.8514 69.8ZM45.3554 79.192H58.3954V80.28H45.3554V79.192ZM67.2422 79.336H73.1142V80.408H60.0742V79.336H65.9142V76.632H61.7062V72.2H70.2182V69.96H61.6742V68.888H71.4982V73.256H63.0022V75.576H71.8342V76.632H67.2422V79.336ZM90.4991 73L89.9871 74.04C87.8271 73.624 85.7631 72.408 84.8671 70.696C83.9871 72.424 81.9231 73.64 79.7471 74.04L79.2191 73C81.7791 72.6 84.1951 70.856 84.1951 68.856V68.216H85.5391V68.856C85.5391 70.856 87.9871 72.6 90.4991 73ZM81.3631 77.768V80.792H89.9391V81.864H80.0511V77.768H81.3631ZM85.5231 75.544H91.4111V76.6H78.3711V75.544H84.2111V73.112H85.5231V75.544ZM102.082 72.008L101.506 73.016C99.8578 72.632 98.5618 71.752 97.9378 70.568C97.3458 71.832 96.0498 72.792 94.3378 73.224L93.7618 72.216C95.8418 71.736 97.2498 70.44 97.2498 68.904V68.184H98.6098V68.904C98.6098 70.376 100.034 71.576 102.082 72.008ZM97.4098 77.208V75.144C95.9538 75.208 94.5298 75.208 93.2978 75.208L93.1378 74.12C95.8258 74.12 99.3778 74.12 102.514 73.704L102.61 74.664C101.33 74.872 100.018 75 98.7218 75.064V77.208H97.4098ZM103.49 80.936V79.352H96.6738V80.936H103.49ZM103.49 78.328V76.792H104.786V81.992H95.3618V76.792H96.6738V78.328H103.49ZM103.474 67.848H104.786V76.088H103.474V67.848ZM115.777 73.704V68.216H117.025V81.464H115.777V74.76H112.833C111.969 76.424 110.593 77.912 108.609 79.096L107.841 78.152C110.913 76.312 112.449 73.736 112.689 70.728H108.449V69.656H113.985C113.985 71.064 113.777 72.424 113.297 73.704H115.777ZM118.769 67.832H120.017V82.184H118.769V67.832ZM135.049 73.208V78.104H133.801V68.104H135.049V72.136H136.969V67.848H138.233V78.52H136.969V73.208H135.049ZM132.985 74.904L133.113 75.96C131.289 76.312 129.785 76.392 127.721 76.392H126.777V72.168H130.873V70.136H126.745V69.08H132.137V73.16H128.041V75.32C129.913 75.32 131.305 75.24 132.985 74.904ZM130.185 80.792H138.649V81.864H128.873V77.56H130.185V80.792ZM149.224 74.36L148.536 75.4C146.952 74.824 145.72 73.672 145.08 72.216C144.488 73.848 143.208 75.096 141.512 75.72L140.84 74.68C143.016 73.928 144.408 72.072 144.408 69.976V68.456H145.704V70.024C145.704 71.928 147.144 73.672 149.224 74.36ZM144.616 77.896V80.936H151.384V77.896H144.616ZM143.336 81.992V76.84H152.664V81.992H143.336ZM151.336 67.848H152.664V76.104H151.336V71.736H148.216V70.664H151.336V67.848ZM159.175 69.752C158.039 69.752 157.223 70.424 157.223 71.4C157.223 72.36 158.039 73.048 159.175 73.048C160.311 73.048 161.111 72.36 161.111 71.4C161.111 70.424 160.311 69.752 159.175 69.752ZM159.175 74.04C157.367 74.04 156.055 72.952 156.055 71.4C156.055 69.832 157.367 68.76 159.175 68.76C160.967 68.76 162.295 69.832 162.295 71.4C162.295 72.952 160.967 74.04 159.175 74.04ZM162.839 74.776L162.935 75.736C161.927 75.944 160.823 76.056 159.735 76.12V81.032H158.487V76.2C157.399 76.248 156.359 76.248 155.527 76.248L155.367 75.144C157.335 75.144 160.519 75.128 162.839 74.776ZM163.751 77.256V68.184H164.983V81.448H163.751V78.28H161.063V77.256H163.751ZM166.455 67.848H167.719V82.184H166.455V67.848ZM174.118 77.784C175.478 77.784 176.438 76.28 176.438 73.944C176.438 71.624 175.478 70.12 174.118 70.12C172.742 70.12 171.782 71.624 171.782 73.944C171.782 76.28 172.742 77.784 174.118 77.784ZM180.79 67.832H182.102V82.216H180.79V74.376H177.67C177.542 77.192 176.118 78.952 174.118 78.952C172.022 78.952 170.534 77 170.534 73.944C170.534 70.888 172.022 68.936 174.118 68.936C176.054 68.936 177.462 70.616 177.67 73.304H180.79V67.832ZM190.948 74.296V71.928H186.884V74.296H190.948ZM192.228 68.744V75.352H185.588V68.744H186.884V70.904H190.948V68.744H192.228ZM191.572 81.144C193.684 81.144 194.98 80.536 194.98 79.512C194.98 78.488 193.684 77.896 191.572 77.896C189.428 77.896 188.148 78.488 188.148 79.512C188.148 80.536 189.428 81.144 191.572 81.144ZM191.572 76.84C194.484 76.84 196.292 77.816 196.292 79.512C196.292 81.208 194.484 82.184 191.572 82.184C188.644 82.184 186.836 81.208 186.836 79.512C186.836 77.816 188.644 76.84 191.572 76.84ZM196.132 71.448H198.26V72.536H196.132V76.472H194.82V67.832H196.132V71.448ZM204.835 70.392V72.216C204.835 74.648 206.563 77.128 208.675 78.024L207.939 79.08C206.275 78.312 204.867 76.664 204.179 74.696C203.523 76.792 202.115 78.6 200.483 79.432L199.715 78.376C201.779 77.4 203.523 74.696 203.523 72.216V70.392H200.195V69.304H208.211V70.392H204.835ZM210.147 67.848H211.459V82.184H210.147V67.848ZM218.86 69.384H225.58C225.58 73.528 223.676 77.176 218.908 79.512L218.204 78.44C222.06 76.6 223.98 73.848 224.252 70.44H218.86V69.384ZM228.476 67.832H229.788V82.184H228.476V67.832ZM244.235 71.832V72.888H234.491V68.136H235.803V71.832H244.235ZM239.211 81.112C241.451 81.112 242.795 80.52 242.795 79.528C242.795 78.504 241.467 77.928 239.211 77.928C236.955 77.928 235.627 78.504 235.627 79.528C235.627 80.52 236.955 81.112 239.211 81.112ZM239.211 76.904C242.267 76.904 244.123 77.848 244.123 79.528C244.123 81.192 242.267 82.136 239.211 82.136C236.155 82.136 234.299 81.192 234.299 79.528C234.299 77.848 236.155 76.904 239.211 76.904ZM232.747 74.552H245.723V75.624H232.747V74.552ZM261.524 75.256V71.512H258.404V70.44H261.524V67.848H262.852V75.256H261.524ZM259.412 73.928L258.74 74.952C257.156 74.392 255.908 73.256 255.284 71.8C254.676 73.416 253.38 74.664 251.7 75.288L251.012 74.248C253.172 73.512 254.596 71.704 254.596 69.624V68.296H255.892V69.624C255.892 71.496 257.348 73.24 259.412 73.928ZM254.932 80.952H263.396V81.992H253.636V78.424H261.556V77.016H253.604V75.976H262.852V79.416H254.932V80.952ZM273.41 71.56H276.242V67.848H277.57V76.392H276.242V72.632H273.41V71.56ZM274.21 74.824L273.554 75.848C271.954 75.272 270.722 74.088 270.098 72.616C269.49 74.28 268.162 75.624 266.482 76.264L265.794 75.224C267.938 74.44 269.41 72.504 269.41 70.44V69.944H266.21V68.888H273.874V69.944H270.722V70.44C270.722 72.28 272.13 74.088 274.21 74.824ZM272.834 81.16C274.994 81.16 276.306 80.552 276.306 79.512C276.306 78.472 274.994 77.848 272.834 77.848C270.674 77.848 269.362 78.472 269.362 79.512C269.362 80.552 270.674 81.16 272.834 81.16ZM272.834 76.84C275.778 76.84 277.618 77.816 277.618 79.512C277.618 81.208 275.778 82.184 272.834 82.184C269.89 82.184 268.05 81.208 268.05 79.512C268.05 77.816 269.89 76.84 272.834 76.84ZM284.811 69.368H291.371C291.371 73.448 289.499 77.144 284.859 79.464L284.139 78.44C287.803 76.6 289.771 73.848 290.075 70.456H284.811V69.368ZM297.387 73.656V74.744H295.083V82.184H293.771V67.832H295.083V73.656H297.387ZM310.266 71.832V72.888H300.522V68.136H301.834V71.832H310.266ZM305.242 81.112C307.482 81.112 308.826 80.52 308.826 79.528C308.826 78.504 307.498 77.928 305.242 77.928C302.986 77.928 301.658 78.504 301.658 79.528C301.658 80.52 302.986 81.112 305.242 81.112ZM305.242 76.904C308.298 76.904 310.154 77.848 310.154 79.528C310.154 81.192 308.298 82.136 305.242 82.136C302.186 82.136 300.33 81.192 300.33 79.528C300.33 77.848 302.186 76.904 305.242 76.904ZM298.778 74.552H311.754V75.624H298.778V74.552Z" fill="black" fill-opacity="0.65"/>
</svg>
