<svg width="177" height="86" viewBox="0 0 177 86" fill="none" xmlns="http://www.w3.org/2000/svg">
<path d="M3.822 74V42.878H12.348C21.84 42.878 27.72 47.834 27.72 58.334C27.72 68.792 21.84 74 12.684 74H3.822ZM10.038 69.002H11.97C17.766 69.002 21.378 65.894 21.378 58.334C21.378 50.732 17.766 47.876 11.97 47.876H10.038V69.002ZM31.6204 74V50.48H37.7944V74H31.6204ZM34.7284 46.7C32.5864 46.7 31.1164 45.356 31.1164 43.298C31.1164 41.282 32.5864 39.938 34.7284 39.938C36.8284 39.938 38.2984 41.282 38.2984 43.298C38.2984 45.356 36.8284 46.7 34.7284 46.7ZM42.6963 74V50.48H47.7363L48.1983 54.638H48.3243C50.0463 51.572 52.5663 49.892 55.0023 49.892C56.3043 49.892 57.0603 50.102 57.7743 50.396L56.7243 55.73C55.8843 55.478 55.2123 55.352 54.2463 55.352C52.3983 55.352 50.1723 56.57 48.8703 59.972V74H42.6963ZM69.0651 74.588C62.4711 74.588 57.3471 70.01 57.3471 62.24C57.3471 54.638 62.7231 49.892 68.3091 49.892C74.7771 49.892 78.1371 54.638 78.1371 61.106C78.1371 62.282 78.0111 63.416 77.8431 63.962H63.3531C63.8571 67.826 66.3771 69.842 69.8631 69.842C71.7951 69.842 73.4751 69.254 75.1551 68.204L77.2551 71.984C74.9451 73.58 71.9631 74.588 69.0651 74.588ZM63.2691 59.846H72.8451C72.8451 56.696 71.4171 54.68 68.3931 54.68C65.9151 54.68 63.7311 56.444 63.2691 59.846ZM91.5374 74.588C85.0274 74.588 80.0714 70.052 80.0714 62.24C80.0714 54.428 85.6994 49.892 92.0834 49.892C94.9814 49.892 97.2074 51.026 98.9294 52.496L95.9894 56.486C94.8134 55.478 93.7214 54.932 92.4194 54.932C88.8074 54.932 86.3714 57.83 86.3714 62.24C86.3714 66.692 88.8494 69.548 92.2094 69.548C93.8894 69.548 95.4854 68.75 96.7874 67.658L99.2654 71.732C96.9974 73.706 94.1414 74.588 91.5374 74.588ZM110.128 74.588C104.542 74.588 102.4 71.018 102.4 65.768V55.352H99.0816V50.774L102.736 50.48L103.45 44.138H108.574V50.48H114.37V55.352H108.574V65.768C108.574 68.456 109.666 69.716 111.766 69.716C112.522 69.716 113.446 69.464 114.076 69.212L115.084 73.706C113.824 74.126 112.186 74.588 110.128 74.588ZM117.474 74V50.48H123.648V74H117.474ZM120.582 46.7C118.44 46.7 116.97 45.356 116.97 43.298C116.97 41.282 118.44 39.938 120.582 39.938C122.682 39.938 124.152 41.282 124.152 43.298C124.152 45.356 122.682 46.7 120.582 46.7ZM138.378 74.588C132.498 74.588 127.08 70.052 127.08 62.24C127.08 54.428 132.498 49.892 138.378 49.892C144.258 49.892 149.676 54.428 149.676 62.24C149.676 70.052 144.258 74.588 138.378 74.588ZM138.378 69.548C141.57 69.548 143.376 66.692 143.376 62.24C143.376 57.83 141.57 54.932 138.378 54.932C135.186 54.932 133.38 57.83 133.38 62.24C133.38 66.692 135.186 69.548 138.378 69.548ZM153.161 74V50.48H158.201L158.663 53.588H158.789C160.847 51.572 163.241 49.892 166.433 49.892C171.515 49.892 173.699 53.42 173.699 59.342V74H167.525V60.098C167.525 56.444 166.517 55.184 164.207 55.184C162.275 55.184 161.057 56.108 159.335 57.83V74H153.161Z" fill="#227EE2"/>
<path d="M6.8 11.296V8.928H2.736V11.296H6.8ZM8.08 5.744V12.352H1.44V5.744H2.736V7.904H6.8V5.744H8.08ZM7.424 18.144C9.536 18.144 10.832 17.536 10.832 16.512C10.832 15.488 9.536 14.896 7.424 14.896C5.28 14.896 4 15.488 4 16.512C4 17.536 5.28 18.144 7.424 18.144ZM7.424 13.84C10.336 13.84 12.144 14.816 12.144 16.512C12.144 18.208 10.336 19.184 7.424 19.184C4.496 19.184 2.688 18.208 2.688 16.512C2.688 14.816 4.496 13.84 7.424 13.84ZM11.984 8.448H14.112V9.536H11.984V13.472H10.672V4.832H11.984V8.448ZM24.0788 6.448V7.504H15.6148V6.448H19.1828V4.704H20.4948V6.448H24.0788ZM17.6628 10.752C17.6628 11.696 18.5268 12.304 19.8388 12.304C21.1508 12.304 22.0308 11.696 22.0308 10.752C22.0308 9.824 21.1508 9.216 19.8388 9.216C18.5268 9.216 17.6628 9.824 17.6628 10.752ZM23.2788 10.752C23.2788 12.304 21.8868 13.296 19.8388 13.296C17.7908 13.296 16.4148 12.304 16.4148 10.752C16.4148 9.216 17.7908 8.224 19.8388 8.224C21.8868 8.224 23.2788 9.216 23.2788 10.752ZM22.2068 18.16C24.3028 18.16 25.5828 17.616 25.5828 16.688C25.5828 15.76 24.3028 15.216 22.2068 15.216C20.1108 15.216 18.8307 15.76 18.8307 16.688C18.8307 17.616 20.1108 18.16 22.2068 18.16ZM22.2068 14.208C25.0868 14.208 26.8788 15.104 26.8788 16.688C26.8788 18.256 25.0868 19.168 22.2068 19.168C19.3108 19.168 17.5348 18.256 17.5348 16.688C17.5348 15.104 19.3108 14.208 22.2068 14.208ZM28.7828 8.384H26.7028V10.368H28.7828V11.456H26.7028V14.064H25.3908V4.832H26.7028V7.312H28.7828V8.384ZM40.7815 13.328V8.96H37.6615V7.888H40.7815V4.848H42.1095V13.328H40.7815ZM38.7015 11.632L37.9975 12.656C36.4295 12.064 35.2135 10.928 34.5895 9.44C33.9815 11.136 32.6855 12.432 30.9575 13.088L30.2695 12.016C32.4775 11.232 33.9015 9.312 33.9015 7.12V5.648H35.2135V7.072C35.2135 9.12 36.6055 10.896 38.7015 11.632ZM37.3735 18.128C39.5335 18.128 40.8455 17.504 40.8455 16.464C40.8455 15.408 39.5335 14.784 37.3735 14.784C35.2135 14.784 33.9015 15.408 33.9015 16.464C33.9015 17.504 35.2135 18.128 37.3735 18.128ZM37.3735 13.76C40.3175 13.76 42.1575 14.736 42.1575 16.464C42.1575 18.176 40.3175 19.168 37.3735 19.168C34.4295 19.168 32.5895 18.176 32.5895 16.464C32.5895 14.736 34.4295 13.76 37.3735 13.76Z" fill="#227EE2"/>
</svg>
