<svg width="710" height="39" viewBox="0 0 710 39" fill="none" xmlns="http://www.w3.org/2000/svg">
<path d="M3.36 7.6L2.832 6.56C5.072 6.224 7.28 4.896 7.408 3.344H3.648V2.24H12.528V3.344H8.784C8.912 4.896 11.136 6.224 13.36 6.56L12.832 7.6C10.816 7.248 8.928 6.208 8.096 4.784C7.28 6.208 5.392 7.248 3.36 7.6ZM2.512 0.639999L3.168 0.863999C1.84 2.928 1.408 5.344 1.392 7.92C1.392 10.512 1.84 12.912 3.168 14.976L2.512 15.2C1.088 13.056 0.512 10.736 0.512 7.92C0.512 5.12 1.088 2.784 2.512 0.639999ZM13.632 9.664H8.752V14.544H7.44V9.664H2.544V8.56H13.632V9.664ZM12.832 0.863999L13.488 0.639999C14.912 2.784 15.488 5.12 15.488 7.92C15.488 10.736 14.912 13.056 13.488 15.2L12.832 14.976C14.16 12.912 14.608 10.368 14.608 7.92C14.608 5.344 14.16 2.928 12.832 0.863999ZM20.464 2.192V4.88C20.464 7.184 21.536 9.616 23.424 10.768L22.672 11.792C21.312 10.96 20.352 9.44 19.84 7.696C19.328 9.6 18.288 11.216 16.864 12.096L16.048 11.12C18.016 9.968 19.2 7.392 19.2 4.928V2.192H20.464ZM24.24 5.984V1.152H25.472V14.48H24.24V7.072H21.872V5.984H24.24ZM27.152 0.832H28.4V15.184H27.152V0.832ZM33.3427 3.408V10.512C34.0947 10.496 34.8787 10.464 35.6627 10.416V3.408H33.3427ZM36.9427 3.408V10.336C37.6467 10.304 38.3187 10.24 38.9907 10.16L39.0868 11.12C36.1747 11.568 32.8147 11.648 30.3187 11.648L30.1747 10.544C30.7507 10.544 31.4067 10.544 32.0627 10.528V3.408H30.6227V2.336H38.5427V3.408H36.9427ZM40.7987 0.848H42.1108V15.184H40.7987V7.328H38.0627V6.24H40.7987V0.848ZM55.8695 7.712V8.784H46.0135V2.144H55.7255V3.232H47.3095V7.712H55.8695ZM44.3495 12.16H57.3735V13.248H44.3495V12.16ZM69.9482 5.152V6.224H60.1882V1.36H61.5002V5.152H69.9482ZM61.4042 10.64V13.76H70.0282V14.832H60.0922V10.64H61.4042ZM58.4282 8.144H71.4362V9.2H58.4282V8.144ZM76.0691 1.952H82.7571C82.7571 5.664 80.1491 8.384 76.0211 9.68L75.4931 8.64C78.8691 7.584 81.0771 5.552 81.3491 3.024H76.0691V1.952ZM78.9651 10.256V13.792H87.2211V14.864H77.6531V10.256H78.9651ZM86.5971 5.2H88.7091V6.288H86.5971V11.328H85.2851V0.848H86.5971V5.2ZM100.036 11.504V7.376H97.6359V6.304H100.036V4.624H97.6359V3.568H100.036V0.848H101.364V11.504H100.036ZM92.6599 3.056V8.224C93.3639 8.208 94.0999 8.176 94.8199 8.144V3.056H92.6599ZM97.9719 7.888L98.0519 8.864C95.2999 9.296 92.0519 9.344 89.7319 9.344L89.5879 8.256C90.1319 8.256 90.7559 8.256 91.3959 8.24V3.056H89.9719V2H97.5239V3.056H96.0999V8.064C96.7399 8.016 97.3799 7.952 97.9719 7.888ZM93.4759 13.792H101.732V14.864H92.1639V10.64H93.4759V13.792ZM107.827 10.896C109.139 10.896 110.083 9.968 110.083 8.688C110.083 7.392 109.139 6.464 107.827 6.464C106.531 6.464 105.587 7.392 105.587 8.688C105.587 9.968 106.531 10.896 107.827 10.896ZM107.827 5.376C109.875 5.376 111.331 6.752 111.331 8.688C111.331 10.64 109.875 11.984 107.827 11.984C105.811 11.984 104.355 10.64 104.355 8.688C104.355 6.752 105.811 5.376 107.827 5.376ZM108.467 1.008V3.136H112.003V4.192H103.539V3.136H107.155V1.008H108.467ZM117.027 6.736V7.84H114.675V15.184H113.363V0.848H114.675V6.736H117.027ZM127.825 3.696V3.344H119.073V2.272H129.137V3.696C129.137 5.472 129.137 7.44 128.593 10.336L127.281 10.192C127.825 7.44 127.825 5.424 127.825 3.696ZM124.065 12.096H130.689V13.168H117.713V12.096H122.753V6.96H124.065V12.096ZM142.778 2.304V3.36H134.746V2.304H138.17V0.704H139.482V2.304H142.778ZM136.794 6.832C136.794 7.84 137.626 8.496 138.81 8.496C139.994 8.496 140.826 7.84 140.826 6.832C140.826 5.84 139.994 5.168 138.81 5.168C137.626 5.168 136.794 5.84 136.794 6.832ZM142.058 6.832C142.058 8.432 140.698 9.52 138.81 9.52C136.922 9.52 135.562 8.432 135.562 6.832C135.562 5.232 136.922 4.144 138.81 4.144C140.698 4.144 142.058 5.232 142.058 6.832ZM136.954 11.824V10.768H146.538V15.184H145.21V11.824H136.954ZM145.21 0.848H146.538V9.952H145.21V8.112H142.762V7.056H145.21V5.424H142.778V4.352H145.21V0.848ZM160.569 0.832V11.36H159.257V0.832H160.569ZM157.433 7.984L156.745 9.024C155.113 8.4 153.849 7.104 153.209 5.472C152.601 7.216 151.305 8.608 149.625 9.312L148.937 8.24C151.097 7.408 152.537 5.328 152.537 3.088V1.632H153.849V3.088C153.849 5.248 155.305 7.2 157.433 7.984ZM152.649 13.792H161.001V14.864H151.337V10.384H152.649V13.792ZM171.336 7.84L170.68 8.864C169.08 8.288 167.848 7.104 167.208 5.616C166.6 7.264 165.288 8.576 163.608 9.2L162.92 8.16C165.048 7.408 166.536 5.488 166.536 3.456V2.88H163.336V1.808H171V2.88H167.848V3.456C167.848 5.296 169.256 7.104 171.336 7.84ZM165.096 11.264V10.208H174.696V15.2H173.368V11.264H165.096ZM173.368 0.832H174.696V9.424H173.368V5.648H170.568V4.576H173.368V0.832ZM188.726 0.848V11.328H187.414V0.848H188.726ZM178.566 5.36C178.566 6.784 179.622 7.776 181.014 7.776C182.438 7.776 183.494 6.784 183.494 5.36C183.494 3.968 182.438 2.976 181.014 2.976C179.622 2.976 178.566 3.968 178.566 5.36ZM184.774 5.36C184.774 7.44 183.158 8.912 181.014 8.912C178.886 8.912 177.286 7.44 177.286 5.36C177.286 3.296 178.886 1.84 181.014 1.84C183.158 1.84 184.774 3.296 184.774 5.36ZM180.806 13.792H189.158V14.864H179.494V10.256H180.806V13.792ZM196.799 5.488V8.128H204.127V5.488H196.799ZM201.119 12.272H206.975V13.344H193.967V12.272H199.791V9.184H195.503V1.856H196.799V4.416H204.127V1.856H205.407V9.184H201.119V12.272ZM209.598 5.376C209.598 6.784 210.654 7.776 212.062 7.776C213.47 7.776 214.526 6.784 214.526 5.376C214.526 3.968 213.47 2.976 212.062 2.976C210.654 2.976 209.598 3.968 209.598 5.376ZM215.806 5.376C215.806 7.456 214.206 8.912 212.062 8.912C209.918 8.912 208.318 7.456 208.318 5.376C208.318 3.296 209.918 1.84 212.062 1.84C214.206 1.84 215.806 3.296 215.806 5.376ZM211.566 10.32V13.792H219.822V14.864H210.254V10.32H211.566ZM219.182 5.2H221.294V6.288H219.182V11.392H217.87V0.832H219.182V5.2ZM234.365 4.96L233.917 5.984C231.645 5.68 229.517 4.688 228.605 3.152C227.709 4.688 225.565 5.68 223.293 5.984L222.845 4.96C225.485 4.672 227.933 3.312 227.933 1.472V0.943999H229.277V1.472C229.277 3.312 231.725 4.672 234.365 4.96ZM225.005 12.608V14H233.869V15.024H223.725V11.648H232.141V10.32H223.677V9.328H233.437V12.608H225.005ZM229.261 7.088H235.101V8.144H222.109V7.088H227.949V5.232H229.261V7.088ZM246.316 4.144V2.448H237.74V1.408H247.644V5.152H239.1V6.992H247.964V8.064H237.788V4.144H246.316ZM249.212 9.536V10.608H243.34V15.2H242.028V10.608H236.188V9.536H249.212ZM260.778 11.552V6.976H257.882V5.904H260.778V4.016H257.882V2.96H260.778V0.832H262.106V11.552H260.778ZM258.65 8.368L257.93 9.408C256.378 8.752 255.162 7.456 254.538 5.856C253.946 7.584 252.682 8.96 251.002 9.648L250.298 8.608C252.442 7.776 253.882 5.728 253.882 3.472V1.632H255.194V3.472C255.194 5.584 256.586 7.552 258.65 8.368ZM254.186 13.792H262.442V14.864H252.874V10.464H254.186V13.792ZM267.843 2.688H273.443C273.443 6.384 272.147 9.808 268.067 12.112L267.299 11.168C270.595 9.328 271.955 6.736 272.147 3.76H267.843V2.688ZM278.211 0.832H279.475V15.184H278.211V7.68H276.259V14.464H275.027V1.216H276.259V6.608H278.211V0.832ZM287.33 6.64V4.496H283.266V6.64H287.33ZM288.61 1.424V7.696H281.97V1.424H283.266V3.488H287.33V1.424H288.61ZM284.722 12.416V13.984H293.042V15.024H283.442V11.44H291.218V9.968H283.394V8.928H292.514V12.416H284.722ZM292.514 3.92H294.642V5.008H292.514V8.256H291.202V0.848H292.514V3.92ZM301.937 2.064C299.585 2.064 298.241 2.608 298.241 3.568C298.241 4.528 299.585 5.072 301.937 5.072C304.289 5.072 305.633 4.528 305.633 3.568C305.633 2.608 304.289 2.064 301.937 2.064ZM301.937 6.048C298.785 6.048 296.897 5.184 296.897 3.568C296.897 1.952 298.785 1.072 301.937 1.072C305.089 1.072 306.977 1.952 306.977 3.568C306.977 5.184 305.089 6.048 301.937 6.048ZM298.337 12.544V14H307.201V15.024H297.057V11.584H305.473V10.304H297.009V9.312H306.769V12.544H298.337ZM295.441 7.024H308.433V8.08H295.441V7.024ZM317.178 2.592C315.77 2.592 314.778 3.344 314.778 4.464C314.778 5.584 315.77 6.336 317.178 6.336C318.57 6.336 319.562 5.584 319.562 4.464C319.562 3.344 318.57 2.592 317.178 2.592ZM317.178 7.408C315.034 7.408 313.514 6.208 313.514 4.464C313.514 2.704 315.034 1.504 317.178 1.504C319.306 1.504 320.826 2.704 320.826 4.464C320.826 6.208 319.306 7.408 317.178 7.408ZM321.898 8.112L322.01 9.088C320.65 9.328 319.258 9.488 317.898 9.568V14.736H316.586V9.648C315.162 9.712 313.802 9.728 312.618 9.728L312.442 8.624C315.114 8.624 318.746 8.592 321.898 8.112ZM322.938 0.848H324.25V15.2H322.938V0.848ZM330.104 10.768C331.208 10.768 332.008 9.856 332.008 8.576C332.008 7.328 331.208 6.416 330.104 6.416C328.984 6.416 328.2 7.328 328.2 8.576C328.2 9.856 328.984 10.768 330.104 10.768ZM330.104 5.312C331.88 5.312 333.176 6.656 333.176 8.576C333.176 10.528 331.88 11.856 330.104 11.856C328.328 11.856 327.032 10.528 327.032 8.576C327.032 6.656 328.328 5.312 330.104 5.312ZM330.744 1.248V3.28H333.656V4.352H326.536V3.28H329.448V1.248H330.744ZM337.448 0.815999H338.712V15.168H337.448V7.952H335.608V14.48H334.376V1.152H335.608V6.88H337.448V0.815999ZM352.497 2.368V3.424H343.777V2.368H347.489V0.704H348.801V2.368H352.497ZM345.889 6.688C345.889 7.632 346.769 8.256 348.145 8.256C349.505 8.256 350.401 7.632 350.401 6.688C350.401 5.728 349.505 5.12 348.145 5.12C346.769 5.12 345.889 5.728 345.889 6.688ZM351.649 6.688C351.649 8.256 350.241 9.232 348.145 9.232C346.049 9.232 344.641 8.256 344.641 6.688C344.641 5.104 346.049 4.128 348.145 4.128C350.241 4.128 351.649 5.104 351.649 6.688ZM347.345 11.328V13.936H354.065V11.328H347.345ZM346.065 14.992V10.288H355.345V14.992H346.065ZM354.033 0.832H355.345V9.52H354.033V0.832ZM370.496 8.176L369.776 9.184C368.4 8.56 367.44 7.392 366.96 6.032C366.496 7.408 365.568 8.688 364.128 9.344C362.688 8.672 361.744 7.344 361.296 5.952C360.8 7.312 359.84 8.528 358.48 9.184L357.776 8.176C359.616 7.344 360.656 5.408 360.656 3.824V2H361.952V3.824C361.952 5.152 362.688 6.928 364.144 7.952C365.584 6.96 366.288 5.232 366.288 3.824V2H367.616V3.824C367.616 5.568 368.608 7.376 370.496 8.176ZM357.648 12.192H370.656V13.28H357.648V12.192ZM381.855 3.696V3.344H373.103V2.272H383.167V3.696C383.167 5.472 383.167 7.44 382.623 10.336L381.311 10.192C381.855 7.44 381.855 5.424 381.855 3.696ZM378.095 12.096H384.719V13.168H371.743V12.096H376.783V6.96H378.095V12.096ZM400.52 0.848V9.04H399.208V0.848H400.52ZM392.808 2.768C391.384 2.768 390.36 3.712 390.36 5.024C390.36 6.352 391.384 7.28 392.808 7.28C394.232 7.28 395.288 6.352 395.288 5.024C395.288 3.712 394.232 2.768 392.808 2.768ZM392.808 8.368C390.648 8.368 389.08 7.008 389.08 5.024C389.08 3.04 390.648 1.68 392.808 1.68C394.984 1.68 396.568 3.04 396.568 5.024C396.568 7.008 394.984 8.368 392.808 8.368ZM398.92 9.664V10.432C398.92 11.92 399.976 13.392 401.8 14L401.144 14.992C399.736 14.48 398.744 13.488 398.264 12.288C397.816 13.456 396.936 14.544 395.608 15.12C394.232 14.576 393.368 13.536 392.936 12.336C392.424 13.488 391.448 14.48 390.104 14.992L389.448 14C391.256 13.36 392.328 11.808 392.328 10.432V9.664H393.592V10.432C393.592 11.696 394.248 13.056 395.576 13.84C396.952 12.992 397.64 11.552 397.64 10.432V9.664H398.92ZM415.062 5.312L414.582 6.368C412.358 6.016 410.23 4.896 409.318 3.296C408.422 4.896 406.278 6.016 404.038 6.368L403.558 5.312C406.134 4.992 408.646 3.456 408.646 1.632V0.992H409.99V1.632C409.99 3.408 412.518 4.992 415.062 5.312ZM412.806 13.936V12.112H405.75V13.936H412.806ZM412.806 11.104V9.424H414.102V14.992H404.454V9.424H405.75V11.104H412.806ZM402.806 7.376H415.798V8.432H402.806V7.376ZM419.109 2.224V10.352C421.269 10.352 423.493 10.16 425.877 9.68L426.021 10.8C423.525 11.312 421.269 11.472 418.981 11.472H417.797V2.224H419.109ZM427.349 0.832H428.661V15.168H427.349V0.832ZM432.9 3.296V10.512C435.444 10.512 437.284 10.4 439.364 10.032L439.508 11.12C437.316 11.536 435.428 11.632 432.724 11.632H431.588V2.208H438.26V3.296H432.9ZM444.388 6.496V7.584H442.02V15.216H440.708V0.832H442.02V6.496H444.388ZM446.435 14.208C445.859 14.208 445.379 13.76 445.379 13.104C445.379 12.432 445.859 11.968 446.435 11.968C447.011 11.968 447.491 12.432 447.491 13.104C447.491 13.76 447.011 14.208 446.435 14.208ZM2.4 28.024C2.4 29.368 3.424 30.296 4.848 30.296C6.288 30.296 7.328 29.368 7.328 28.024C7.328 26.696 6.288 25.752 4.848 25.752C3.424 25.752 2.4 26.696 2.4 28.024ZM8.608 28.024C8.608 30.024 7.04 31.384 4.848 31.384C2.688 31.384 1.12 30.024 1.12 28.024C1.12 26.04 2.688 24.664 4.848 24.664C7.04 24.664 8.608 26.04 8.608 28.024ZM6.112 33.784V36.904H9.088V33.784H6.112ZM10.384 33.784V36.904H12.544V37.96H2.72V36.904H4.816V33.784H2.848V32.744H12.368V33.784H10.384ZM11.984 27.336H14.112V28.424H11.984V31.96H10.672V23.848H11.984V27.336ZM21.4068 24.728C24.3828 24.728 26.6228 26.312 26.6228 28.696C26.6228 31.096 24.3828 32.664 21.4068 32.664C18.4307 32.664 16.1907 31.096 16.1907 28.696C16.1907 26.312 18.4307 24.728 21.4068 24.728ZM21.4068 25.8C19.1507 25.8 17.4387 26.968 17.4387 28.696C17.4387 30.44 19.1507 31.592 21.4068 31.592C23.6788 31.592 25.3748 30.44 25.3748 28.696C25.3748 26.968 23.6788 25.8 21.4068 25.8ZM14.9107 35.192H27.9508V36.28H14.9107V35.192ZM36.1575 35.336H42.0295V36.408H28.9895V35.336H34.8295V32.632H30.6215V28.2H39.1335V25.96H30.5895V24.888H40.4135V29.256H31.9175V31.576H40.7495V32.632H36.1575V35.336ZM50.2363 35.288H56.1083V36.376H43.0683V35.288H48.9083V31.608H44.7323V24.984H54.4603V26.056H46.0443V30.552H54.6043V31.608H50.2363V35.288ZM65.0611 26.376V28.04C65.0611 30.424 66.7411 33.032 68.8211 34.024L68.0371 35.048C66.4371 34.232 65.0611 32.52 64.4051 30.536C63.7811 32.648 62.3891 34.488 60.7571 35.352L59.9891 34.312C62.0371 33.304 63.7491 30.584 63.7491 28.04V26.376H60.5011V25.304H68.3251V26.376H65.0611ZM70.6131 23.832H71.9251V38.2H70.6131V30.12H67.5091V29.048H70.6131V23.832ZM83.2839 25.768V26.824H74.5639V25.768H78.2759V23.976H79.5879V25.768H83.2839ZM81.1239 30.312C81.1239 29.304 80.2279 28.648 78.9319 28.648C77.6519 28.648 76.7559 29.304 76.7559 30.312C76.7559 31.32 77.6519 31.992 78.9319 31.992C80.2279 31.992 81.1239 31.32 81.1239 30.312ZM75.5079 30.312C75.5079 28.696 76.9159 27.624 78.9319 27.624C80.9479 27.624 82.3559 28.696 82.3559 30.312C82.3559 31.944 80.9479 33 78.9319 33C76.9159 33 75.5079 31.944 75.5079 30.312ZM74.4519 35.368L74.2599 34.264C76.9799 34.264 80.5479 34.248 83.6519 33.832L83.7479 34.808C80.5479 35.352 77.0919 35.368 74.4519 35.368ZM84.5639 23.848H85.8759V38.184H84.5639V23.848ZM89.0266 25.368H95.5866C95.5866 29.448 93.7146 33.144 89.0746 35.464L88.3546 34.44C92.0186 32.6 93.9866 29.848 94.2906 26.456H89.0266V25.368ZM101.603 29.656V30.744H99.2986V38.184H97.9866V23.832H99.2986V29.656H101.603ZM106.043 25.368H112.603C112.603 29.448 110.731 33.144 106.091 35.464L105.371 34.44C109.035 32.6 111.003 29.848 111.307 26.456H106.043V25.368ZM118.619 29.656V30.744H116.315V38.184H115.003V23.832H116.315V29.656H118.619ZM129.482 26.696V26.344H120.73V25.272H130.794V26.696C130.794 28.472 130.794 30.44 130.25 33.336L128.938 33.192C129.482 30.44 129.482 28.424 129.482 26.696ZM125.722 35.096H132.346V36.168H119.37V35.096H124.41V29.96H125.722V35.096ZM138.265 26.392V28.216C138.265 30.504 139.897 33.048 141.977 34.024L141.225 35.08C139.625 34.28 138.281 32.6 137.625 30.68C136.969 32.776 135.577 34.6 133.961 35.432L133.193 34.392C135.241 33.368 136.969 30.648 136.969 28.216V26.392H133.689V25.304H141.449V26.392H138.265ZM146.841 29.624V30.728H144.473V38.184H143.161V23.848H144.473V29.624H146.841ZM154.658 33.896C155.97 33.896 156.914 32.968 156.914 31.688C156.914 30.392 155.97 29.464 154.658 29.464C153.362 29.464 152.418 30.392 152.418 31.688C152.418 32.968 153.362 33.896 154.658 33.896ZM154.658 28.376C156.706 28.376 158.162 29.752 158.162 31.688C158.162 33.64 156.706 34.984 154.658 34.984C152.642 34.984 151.186 33.64 151.186 31.688C151.186 29.752 152.642 28.376 154.658 28.376ZM155.298 24.008V26.136H158.834V27.192H150.37V26.136H153.986V24.008H155.298ZM163.858 29.736V30.84H161.506V38.184H160.194V23.848H161.506V29.736H163.858ZM176.033 28.152V29.224H166.273V24.36H167.585V28.152H176.033ZM167.489 33.64V36.76H176.113V37.832H166.177V33.64H167.489ZM164.513 31.144H177.521V32.2H164.513V31.144ZM187.497 30.296V27.928H183.433V30.296H187.497ZM188.777 24.744V31.352H182.137V24.744H183.433V26.904H187.497V24.744H188.777ZM188.121 37.144C190.233 37.144 191.529 36.536 191.529 35.512C191.529 34.488 190.233 33.896 188.121 33.896C185.977 33.896 184.697 34.488 184.697 35.512C184.697 36.536 185.977 37.144 188.121 37.144ZM188.121 32.84C191.033 32.84 192.841 33.816 192.841 35.512C192.841 37.208 191.033 38.184 188.121 38.184C185.193 38.184 183.385 37.208 183.385 35.512C183.385 33.816 185.193 32.84 188.121 32.84ZM192.681 27.448H194.809V28.536H192.681V32.472H191.369V23.832H192.681V27.448ZM204.136 25.448V26.504H195.672V25.448H199.24V23.704H200.552V25.448H204.136ZM197.72 29.752C197.72 30.696 198.584 31.304 199.896 31.304C201.208 31.304 202.088 30.696 202.088 29.752C202.088 28.824 201.208 28.216 199.896 28.216C198.584 28.216 197.72 28.824 197.72 29.752ZM203.336 29.752C203.336 31.304 201.944 32.296 199.896 32.296C197.848 32.296 196.472 31.304 196.472 29.752C196.472 28.216 197.848 27.224 199.896 27.224C201.944 27.224 203.336 28.216 203.336 29.752ZM202.264 37.16C204.36 37.16 205.64 36.616 205.64 35.688C205.64 34.76 204.36 34.216 202.264 34.216C200.168 34.216 198.888 34.76 198.888 35.688C198.888 36.616 200.168 37.16 202.264 37.16ZM202.264 33.208C205.144 33.208 206.936 34.104 206.936 35.688C206.936 37.256 205.144 38.168 202.264 38.168C199.368 38.168 197.592 37.256 197.592 35.688C197.592 34.104 199.368 33.208 202.264 33.208ZM208.84 27.384H206.76V29.368H208.84V30.456H206.76V33.064H205.448V23.832H206.76V26.312H208.84V27.384ZM220.199 32.328V27.96H217.079V26.888H220.199V23.848H221.527V32.328H220.199ZM218.119 30.632L217.415 31.656C215.847 31.064 214.631 29.928 214.007 28.44C213.399 30.136 212.103 31.432 210.375 32.088L209.687 31.016C211.895 30.232 213.319 28.312 213.319 26.12V24.648H214.631V26.072C214.631 28.12 216.023 29.896 218.119 30.632ZM216.791 37.128C218.951 37.128 220.263 36.504 220.263 35.464C220.263 34.408 218.951 33.784 216.791 33.784C214.631 33.784 213.319 34.408 213.319 35.464C213.319 36.504 214.631 37.128 216.791 37.128ZM216.791 32.76C219.735 32.76 221.575 33.736 221.575 35.464C221.575 37.176 219.735 38.168 216.791 38.168C213.847 38.168 212.007 37.176 212.007 35.464C212.007 33.736 213.847 32.76 216.791 32.76ZM230.262 25.064C227.91 25.064 226.566 25.608 226.566 26.568C226.566 27.528 227.91 28.072 230.262 28.072C232.614 28.072 233.958 27.528 233.958 26.568C233.958 25.608 232.614 25.064 230.262 25.064ZM230.262 29.048C227.11 29.048 225.222 28.184 225.222 26.568C225.222 24.952 227.11 24.072 230.262 24.072C233.414 24.072 235.302 24.952 235.302 26.568C235.302 28.184 233.414 29.048 230.262 29.048ZM226.662 35.544V37H235.526V38.024H225.382V34.584H233.798V33.304H225.334V32.312H235.094V35.544H226.662ZM223.766 30.024H236.758V31.08H223.766V30.024ZM252.559 23.832V31.08H251.247V23.832H252.559ZM242.399 27.544C242.399 28.776 243.439 29.656 244.831 29.656C246.239 29.656 247.263 28.776 247.263 27.544C247.263 26.296 246.239 25.416 244.831 25.416C243.439 25.416 242.399 26.296 242.399 27.544ZM248.543 27.544C248.543 29.432 246.975 30.712 244.831 30.712C242.687 30.712 241.135 29.432 241.135 27.544C241.135 25.64 242.687 24.344 244.831 24.344C246.975 24.344 248.543 25.64 248.543 27.544ZM243.727 35.368V36.968C245.295 36.968 246.223 36.92 247.375 36.696L247.487 37.672C246.191 37.928 245.151 37.96 243.231 37.96H242.479V34.408H245.631V32.984H242.431V31.992H246.879V35.368H243.727ZM250.495 37.224C251.295 37.224 251.839 36.824 251.839 36.184C251.839 35.56 251.295 35.144 250.495 35.144C249.679 35.144 249.119 35.56 249.119 36.184C249.119 36.824 249.679 37.224 250.495 37.224ZM250.495 34.2C251.903 34.2 252.959 34.984 252.959 36.184C252.959 37.384 251.903 38.168 250.495 38.168C249.071 38.168 247.999 37.384 247.999 36.184C247.999 34.984 249.071 34.2 250.495 34.2ZM251.135 32.648H253.551V33.624H247.423V32.648H249.871V31.32H251.135V32.648ZM259.997 26.392V28.216C259.997 30.648 261.725 33.128 263.837 34.024L263.101 35.08C261.437 34.312 260.029 32.664 259.341 30.696C258.685 32.792 257.277 34.6 255.645 35.432L254.877 34.376C256.941 33.4 258.685 30.696 258.685 28.216V26.392H255.357V25.304H263.373V26.392H259.997ZM265.309 23.848H266.621V38.184H265.309V23.848ZM273.446 27.96C273.446 29.272 274.486 30.2 275.878 30.2C277.254 30.2 278.294 29.272 278.294 27.96C278.294 26.648 277.254 25.72 275.878 25.72C274.486 25.72 273.446 26.648 273.446 27.96ZM279.574 27.96C279.574 29.912 278.006 31.272 275.878 31.272C273.734 31.272 272.166 29.912 272.166 27.96C272.166 26.008 273.734 24.648 275.878 24.648C278.006 24.648 279.574 26.008 279.574 27.96ZM274.678 32.536V36.728C275.51 36.696 276.566 36.568 277.558 36.248L277.766 37.288C276.406 37.736 275.062 37.816 274.086 37.816H273.398V32.536H274.678ZM280.854 37.24C281.718 37.24 282.342 36.792 282.342 36.136C282.342 35.48 281.718 35.048 280.854 35.048C279.974 35.048 279.366 35.48 279.366 36.136C279.366 36.792 279.974 37.24 280.854 37.24ZM280.854 34.12C282.406 34.12 283.51 34.904 283.51 36.136C283.51 37.384 282.406 38.168 280.854 38.168C279.302 38.168 278.198 37.384 278.198 36.136C278.198 34.904 279.302 34.12 280.854 34.12ZM281.494 31.336V32.632H284.454V33.608H277.238V32.632H280.214V31.336H281.494ZM283.03 27.048H285.158V28.136H283.03V30.984H281.718V23.832H283.03V27.048ZM296.101 26.696V26.344H287.349V25.272H297.413V26.696C297.413 28.472 297.413 30.44 296.869 33.336L295.557 33.192C296.101 30.44 296.101 28.424 296.101 26.696ZM292.341 35.096H298.965V36.168H285.989V35.096H291.029V29.96H292.341V35.096ZM303.838 25.384H310.558C310.558 29.528 308.654 33.176 303.886 35.512L303.182 34.44C307.038 32.6 308.958 29.848 309.23 26.44H303.838V25.384ZM313.454 23.832H314.766V38.184H313.454V23.832ZM327.581 36.936V35.08H321.005V36.936H327.581ZM327.581 34.056V32.232H328.893V37.992H319.709V32.232H321.005V34.056H327.581ZM320.989 30.056C322.413 30.056 323.437 29.128 323.437 27.816C323.437 26.504 322.413 25.592 320.989 25.592C319.565 25.592 318.541 26.504 318.541 27.816C318.541 29.128 319.565 30.056 320.989 30.056ZM327.565 23.848H328.893V31.544H327.565V28.328H324.653C324.397 30.024 322.957 31.144 320.989 31.144C318.845 31.144 317.293 29.8 317.293 27.816C317.293 25.848 318.845 24.504 320.989 24.504C322.925 24.504 324.365 25.592 324.637 27.256H327.565V23.848ZM337.627 25.064C335.275 25.064 333.931 25.608 333.931 26.568C333.931 27.528 335.275 28.072 337.627 28.072C339.979 28.072 341.323 27.528 341.323 26.568C341.323 25.608 339.979 25.064 337.627 25.064ZM337.627 29.048C334.475 29.048 332.587 28.184 332.587 26.568C332.587 24.952 334.475 24.072 337.627 24.072C340.779 24.072 342.667 24.952 342.667 26.568C342.667 28.184 340.779 29.048 337.627 29.048ZM334.027 35.544V37H342.891V38.024H332.747V34.584H341.163V33.304H332.699V32.312H342.459V35.544H334.027ZM331.131 30.024H344.123V31.08H331.131V30.024ZM352.868 25.592C351.46 25.592 350.468 26.344 350.468 27.464C350.468 28.584 351.46 29.336 352.868 29.336C354.26 29.336 355.252 28.584 355.252 27.464C355.252 26.344 354.26 25.592 352.868 25.592ZM352.868 30.408C350.724 30.408 349.204 29.208 349.204 27.464C349.204 25.704 350.724 24.504 352.868 24.504C354.996 24.504 356.516 25.704 356.516 27.464C356.516 29.208 354.996 30.408 352.868 30.408ZM357.588 31.112L357.7 32.088C356.34 32.328 354.948 32.488 353.588 32.568V37.736H352.276V32.648C350.852 32.712 349.492 32.728 348.308 32.728L348.132 31.624C350.804 31.624 354.436 31.592 357.588 31.112ZM358.628 23.848H359.94V38.2H358.628V23.848ZM365.795 33.768C366.899 33.768 367.699 32.856 367.699 31.576C367.699 30.328 366.899 29.416 365.795 29.416C364.675 29.416 363.891 30.328 363.891 31.576C363.891 32.856 364.675 33.768 365.795 33.768ZM365.795 28.312C367.571 28.312 368.867 29.656 368.867 31.576C368.867 33.528 367.571 34.856 365.795 34.856C364.019 34.856 362.723 33.528 362.723 31.576C362.723 29.656 364.019 28.312 365.795 28.312ZM366.435 24.248V26.28H369.347V27.352H362.227V26.28H365.139V24.248H366.435ZM373.139 23.816H374.403V38.168H373.139V30.952H371.299V37.48H370.067V24.152H371.299V29.88H373.139V23.816ZM386.412 35.256H392.284V36.328H379.244V35.256H385.1V31.416H380.844V25.064H382.156V30.36H390.796V31.416H386.412V35.256ZM400.923 30.6L401.051 31.656C399.291 31.96 397.835 32.008 394.971 32.008H393.947V27.752H398.811V25.768H393.899V24.696H400.091V28.76H395.227V30.936C397.883 30.936 399.259 30.872 400.923 30.6ZM395.547 34.504V33.432H405.163V38.2H403.835V34.504H395.547ZM403.835 23.848H405.163V32.664H403.835V30.008H401.035V28.952H403.835V27.032H401.035V25.96H403.835V23.848ZM411.625 33.896C412.937 33.896 413.881 32.968 413.881 31.688C413.881 30.392 412.937 29.464 411.625 29.464C410.329 29.464 409.385 30.392 409.385 31.688C409.385 32.968 410.329 33.896 411.625 33.896ZM411.625 28.376C413.673 28.376 415.129 29.752 415.129 31.688C415.129 33.64 413.673 34.984 411.625 34.984C409.609 34.984 408.153 33.64 408.153 31.688C408.153 29.752 409.609 28.376 411.625 28.376ZM412.265 24.008V26.136H415.801V27.192H407.337V26.136H410.953V24.008H412.265ZM420.825 29.736V30.84H418.473V38.184H417.161V23.848H418.473V29.736H420.825ZM433 28.152V29.224H423.24V24.36H424.552V28.152H433ZM424.456 33.64V36.76H433.08V37.832H423.144V33.64H424.456ZM421.48 31.144H434.488V32.2H421.48V31.144ZM441.393 35.288V36.968H450.257V38.008H440.097V34.296H448.593V32.712H440.049V31.672H449.905V35.288H441.393ZM449.537 29.176H451.537V30.232H438.513V29.176H448.225C448.545 27.592 448.561 26.44 448.561 25.496H440.177V24.44H449.857V25.352C449.857 26.328 449.857 27.56 449.537 29.176ZM459.744 35.336H465.616V36.408H452.576V35.336H458.416V32.632H454.208V28.2H462.72V25.96H454.176V24.888H464V29.256H455.504V31.576H464.336V32.632H459.744V35.336ZM472.559 29.688V27.56H468.687V29.688H472.559ZM473.855 28.104V30.728H467.391V24.504H468.687V26.552H472.559V24.504H473.855V27.048H477.167V23.848H478.479V31.304H477.167V28.104H473.855ZM470.559 36.952H479.023V37.992H469.263V34.44H477.183V33.032H469.231V32.008H478.479V35.416H470.559V36.952ZM491.351 27.56H494.183V23.848H495.511V32.392H494.183V28.632H491.351V27.56ZM492.151 30.824L491.495 31.848C489.895 31.272 488.663 30.088 488.039 28.616C487.431 30.28 486.103 31.624 484.423 32.264L483.735 31.224C485.879 30.44 487.351 28.504 487.351 26.44V25.944H484.151V24.888H491.815V25.944H488.663V26.44C488.663 28.28 490.071 30.088 492.151 30.824ZM490.775 37.16C492.935 37.16 494.247 36.552 494.247 35.512C494.247 34.472 492.935 33.848 490.775 33.848C488.615 33.848 487.303 34.472 487.303 35.512C487.303 36.552 488.615 37.16 490.775 37.16ZM490.775 32.84C493.719 32.84 495.559 33.816 495.559 35.512C495.559 37.208 493.719 38.184 490.775 38.184C487.831 38.184 485.991 37.208 485.991 35.512C485.991 33.816 487.831 32.84 490.775 32.84ZM500.598 28.488V31.128H507.926V28.488H500.598ZM504.918 35.272H510.774V36.344H497.766V35.272H503.59V32.184H499.302V24.856H500.598V27.416H507.926V24.856H509.206V32.184H504.918V35.272ZM517.615 28.488V31.128H524.943V28.488H517.615ZM521.935 35.272H527.791V36.344H514.783V35.272H520.607V32.184H516.319V24.856H517.615V27.416H524.943V24.856H526.223V32.184H521.935V35.272ZM541.15 25.928V27H529.502V25.928H534.702V24.056H536.014V25.928H541.15ZM531.966 30.696C531.966 31.768 533.262 32.408 535.358 32.408C537.422 32.408 538.702 31.768 538.702 30.696C538.702 29.64 537.422 29 535.358 29C533.262 29 531.966 29.64 531.966 30.696ZM536.014 35.432H541.87V36.504H528.862V35.432H534.702V33.416C532.174 33.272 530.638 32.296 530.638 30.696C530.638 28.968 532.446 27.976 535.358 27.976C538.222 27.976 540.03 28.968 540.03 30.696C540.03 32.296 538.51 33.256 536.014 33.416V35.432ZM550.903 25.064V27.64C550.903 30.248 552.535 32.856 554.615 33.848L553.847 34.888C552.215 34.072 550.903 32.36 550.247 30.344C549.623 32.472 548.295 34.28 546.679 35.144L545.879 34.104C547.959 33.064 549.591 30.296 549.591 27.64V25.064H550.903ZM556.391 23.832H557.703V38.2H556.391V29.768H553.063V28.696H556.391V23.832ZM570.389 23.832H571.701V38.2H570.389V23.832ZM560.773 25.048H562.069V28.84H566.229V25.048H567.525V34.728H560.773V25.048ZM562.069 29.88V33.656H566.229V29.88H562.069ZM586.404 31.048L585.812 32.136C583.636 31.64 581.396 30.104 580.484 27.992C579.572 30.088 577.332 31.624 575.172 32.136L574.58 31.048C577.092 30.552 579.796 28.392 579.796 25.944V24.84H581.172V25.944C581.172 28.392 583.892 30.568 586.404 31.048ZM574.036 35.176H587.044V36.264H574.036V35.176ZM598.163 26.344V25.176H589.747V24.248H599.459V27.24H591.075V28.472H599.715V29.416H589.779V26.344H598.163ZM590.995 35.72V37.048H599.955V37.992H589.699V34.808H598.211V33.608H589.667V32.664H599.507V35.72H590.995ZM588.115 30.504H601.123V31.496H588.115V30.504ZM609.34 26.584V27.88C609.34 30.376 610.412 32.872 612.396 33.992L611.596 34.952C610.204 34.12 609.212 32.584 608.716 30.76C608.22 32.728 607.18 34.408 605.756 35.304L604.956 34.328C606.956 33.128 608.076 30.52 608.076 27.88V26.584H605.356V25.512H611.9V26.584H609.34ZM613.18 28.984V24.152H614.428V37.432H613.18V30.056H610.812V28.984H613.18ZM616.06 23.816H617.324V38.168H616.06V23.816ZM629.242 25.784V25.624H620.762V24.568H630.538V25.784C630.538 26.936 630.538 28.104 630.138 29.576L628.858 29.432C629.242 27.96 629.242 26.904 629.242 25.784ZM625.642 37.144C627.898 37.144 629.338 36.536 629.338 35.544C629.338 34.52 627.898 33.912 625.642 33.912C623.402 33.912 621.962 34.52 621.962 35.544C621.962 36.536 623.402 37.144 625.642 37.144ZM625.642 32.904C628.698 32.904 630.65 33.88 630.65 35.544C630.65 37.176 628.698 38.168 625.642 38.168C622.586 38.168 620.65 37.176 620.65 35.544C620.65 33.88 622.586 32.904 625.642 32.904ZM625.85 30.52H632.154V31.576H619.242V30.52H624.538V27.768H625.85V30.52ZM640.435 33.896C641.747 33.896 642.691 32.968 642.691 31.688C642.691 30.392 641.747 29.464 640.435 29.464C639.139 29.464 638.195 30.392 638.195 31.688C638.195 32.968 639.139 33.896 640.435 33.896ZM640.435 28.376C642.483 28.376 643.939 29.752 643.939 31.688C643.939 33.64 642.483 34.984 640.435 34.984C638.419 34.984 636.963 33.64 636.963 31.688C636.963 29.752 638.419 28.376 640.435 28.376ZM641.075 24.008V26.136H644.611V27.192H636.147V26.136H639.763V24.008H641.075ZM649.635 29.736V30.84H647.283V38.184H645.971V23.848H647.283V29.736H649.635ZM662.418 23.848V32.12H661.154V23.848H662.418ZM658.306 28.968H655.49C654.562 30.408 653.074 31.56 651.122 32.408L650.434 31.432C653.362 30.264 655.01 28.376 655.266 25.96H651.058V24.904H656.61C656.61 25.992 656.418 27 656.034 27.912H658.306V24.152H659.538V31.896H658.306V28.968ZM660.594 32.616V33.544C660.594 35.032 661.666 36.536 663.474 37.16L662.834 38.12C661.41 37.624 660.418 36.616 659.938 35.4C659.506 36.568 658.642 37.688 657.298 38.248C655.922 37.704 655.074 36.648 654.658 35.448C654.13 36.6 653.154 37.608 651.794 38.12L651.138 37.16C652.946 36.504 654.034 34.952 654.034 33.544V32.616H655.298V33.544C655.298 34.84 655.954 36.184 657.282 36.968C658.642 36.12 659.314 34.648 659.314 33.544V32.616H660.594ZM676.625 28.312L676.145 29.368C673.921 29.016 671.793 27.896 670.881 26.296C669.985 27.896 667.841 29.016 665.601 29.368L665.121 28.312C667.697 27.992 670.209 26.456 670.209 24.632V23.992H671.553V24.632C671.553 26.408 674.081 27.992 676.625 28.312ZM674.369 36.936V35.112H667.313V36.936H674.369ZM674.369 34.104V32.424H675.665V37.992H666.017V32.424H667.313V34.104H674.369ZM664.369 30.376H677.361V31.432H664.369V30.376ZM680.672 25.224V33.352C682.832 33.352 685.056 33.16 687.44 32.68L687.584 33.8C685.088 34.312 682.832 34.472 680.544 34.472H679.36V25.224H680.672ZM688.912 23.832H690.224V38.168H688.912V23.832ZM694.462 26.296V33.512C697.006 33.512 698.846 33.4 700.926 33.032L701.07 34.12C698.878 34.536 696.99 34.632 694.286 34.632H693.15V25.208H699.822V26.296H694.462ZM705.95 29.496V30.584H703.582V38.216H702.27V23.832H703.582V29.496H705.95ZM707.997 37.208C707.421 37.208 706.941 36.76 706.941 36.104C706.941 35.432 707.421 34.968 707.997 34.968C708.573 34.968 709.053 35.432 709.053 36.104C709.053 36.76 708.573 37.208 707.997 37.208Z" fill="#227EE2"/>
</svg>
