<svg width="1175" height="278" viewBox="0 0 1175 278" fill="none" xmlns="http://www.w3.org/2000/svg">
<circle cx="1036.53" cy="139.232" r="138.475" fill="url(#paint0_radial_239_19602)"/>
<circle cx="578.336" cy="139.232" r="138.475" fill="url(#paint1_radial_239_19602)"/>
<circle cx="138.475" cy="139.475" r="138.475" fill="url(#paint2_radial_239_19602)"/>
<path d="M74.7013 147.36L77.8373 144.896C79.5013 147.168 82.1893 148.64 85.5813 148.64C88.3973 148.64 90.1573 147.68 90.1573 145.664C90.1573 143.712 88.1733 142.976 86.1893 142.4L82.5093 141.344C78.4133 140.16 75.6613 138.688 75.6613 134.784C75.6613 130.56 79.2453 128 84.6853 128C88.5253 128 91.6933 128.992 94.1573 131.968L91.2133 134.656C89.5813 132.8 87.5013 131.808 84.7173 131.808C82.1573 131.808 80.4613 132.864 80.4613 134.592C80.4613 136.192 81.6773 136.928 84.1413 137.632L87.7253 138.688C92.3333 139.968 94.9573 141.728 94.9573 145.6C94.9573 150.304 91.0213 152.48 85.6133 152.48C80.4293 152.48 77.0053 150.56 74.7013 147.36ZM110.402 146.496L113.602 148.704C112.482 150.848 109.25 152.48 105.538 152.48C100.194 152.48 96.3863 148.896 96.3863 143.552C96.3863 138.208 99.9383 134.56 105.282 134.56C110.626 134.56 114.05 138.208 114.05 143.936C114.05 144.32 113.986 144.768 113.922 145.088H101.25C101.602 147.488 103.234 148.768 105.698 148.768C107.81 148.768 109.634 147.68 110.402 146.496ZM101.41 142.112H109.186C108.994 140.32 107.65 138.368 105.282 138.368C102.914 138.368 101.506 140.224 101.41 142.112ZM128.797 146.24L133.085 147.36C131.741 150.656 128.637 152.48 124.573 152.48C118.973 152.48 115.325 148.96 115.325 143.52C115.325 138.08 118.973 134.56 124.573 134.56C128.637 134.56 131.613 136.448 132.893 139.744L128.733 141.024C128.221 139.488 126.717 138.4 124.637 138.4C122.045 138.4 120.125 140.384 120.125 143.52C120.125 146.656 122.045 148.64 124.637 148.64C126.493 148.64 128.125 148 128.797 146.24ZM145.704 135.04H150.504V152H146.216V149.376C145.672 151.072 143.72 152.48 140.808 152.48C136.776 152.48 134.056 150.432 134.056 146.336V135.04H138.856V145.056C138.856 147.616 140.296 148.64 142.376 148.64C143.912 148.64 145.512 147.552 145.704 146.016V135.04ZM165.321 135.36L164.233 139.008C163.081 138.528 161.705 138.24 160.169 138.496C159.209 138.656 158.153 139.2 157.609 139.968V152H152.745V135.04H157.097V137.088C157.833 135.68 159.369 134.816 160.809 134.624C162.313 134.432 164.297 134.752 165.321 135.36ZM166.453 152V135.04H171.317V152H166.453ZM166.133 132.32V127.072H171.637V132.32H166.133ZM181.445 152.48C178.053 152.48 175.941 150.784 175.941 146.848V138.88H172.901V135.04H175.941V129.6H180.741V135.04H185.381V138.88H180.741V146.464C180.741 147.936 181.381 148.64 182.501 148.64C183.589 148.64 184.389 148.384 185.253 148.096L186.245 151.616C184.901 152.192 183.237 152.48 181.445 152.48ZM192.481 161.056H187.681L192.033 151.104L184.961 135.04H189.825L194.369 145.664L198.785 135.04H203.585L192.481 161.056ZM135.449 168.99H136.619V175.113H133.044V177.713H138.153V178.753H126.765V177.713H131.874V175.113H128.299V168.99H129.469V170.914H135.449V168.99ZM129.469 174.073H135.449V171.954H129.469V174.073ZM147.444 168.483H148.614V171.681H150.46V172.721H148.614V176.842H147.444V168.483ZM140.645 180.209V176.088H141.815V179.169H148.965V180.209H140.645ZM140.411 171.928C140.411 173.254 141.243 174.047 142.374 174.047C143.505 174.047 144.337 173.254 144.337 171.928C144.337 170.602 143.505 169.809 142.374 169.809C141.243 169.809 140.411 170.602 140.411 171.928ZM139.267 171.928C139.267 170.056 140.502 168.769 142.374 168.769C144.246 168.769 145.481 170.056 145.481 171.928C145.481 173.8 144.246 175.087 142.374 175.087C140.502 175.087 139.267 173.8 139.267 171.928Z" fill="white"/>
<path d="M487.828 140.224C487.828 132.704 492.66 128 499.54 128C503.988 128 507.06 129.728 509.3 132.832L506.068 135.296C504.564 133.056 502.356 131.872 499.86 131.872C495.636 131.872 492.628 135.008 492.628 140.224C492.628 145.44 495.636 148.608 499.86 148.608C502.708 148.608 504.948 147.456 506.42 145.248L509.684 147.808C507.412 150.912 504.18 152.48 499.54 152.48C492.66 152.48 487.828 147.744 487.828 140.224ZM514.622 143.52C514.622 146.752 516.318 148.64 518.91 148.64C521.502 148.64 523.262 146.752 523.262 143.52C523.262 140.288 521.502 138.4 518.91 138.4C516.318 138.4 514.622 140.288 514.622 143.52ZM509.822 143.52C509.822 138.08 513.47 134.56 518.91 134.56C524.35 134.56 528.062 138.08 528.062 143.52C528.062 148.96 524.35 152.48 518.91 152.48C513.47 152.48 509.822 148.96 509.822 143.52ZM542.41 135.36L541.322 139.008C540.17 138.528 538.794 138.24 537.258 138.496C536.298 138.656 535.242 139.2 534.698 139.968V152H529.834V135.04H534.186V137.088C534.922 135.68 536.458 134.816 537.898 134.624C539.402 134.432 541.386 134.752 542.41 135.36ZM547.542 161.056H542.742V135.04H547.094V137.056C547.862 135.712 549.686 134.56 552.342 134.56C557.59 134.56 560.63 138.464 560.63 143.52C560.63 148.576 557.59 152.48 552.342 152.48C550.038 152.48 548.438 151.712 547.542 150.592V161.056ZM547.542 140.16V146.88C548.214 148 549.43 148.64 551.222 148.64C553.846 148.64 555.734 146.56 555.734 143.52C555.734 140.48 553.846 138.4 551.222 138.4C549.43 138.4 548.214 139.04 547.542 140.16ZM566.719 143.52C566.719 146.752 568.415 148.64 571.007 148.64C573.599 148.64 575.359 146.752 575.359 143.52C575.359 140.288 573.599 138.4 571.007 138.4C568.415 138.4 566.719 140.288 566.719 143.52ZM561.919 143.52C561.919 138.08 565.567 134.56 571.007 134.56C576.447 134.56 580.159 138.08 580.159 143.52C580.159 148.96 576.447 152.48 571.007 152.48C565.567 152.48 561.919 148.96 561.919 143.52ZM594.508 135.36L593.42 139.008C592.268 138.528 590.892 138.24 589.356 138.496C588.396 138.656 587.34 139.2 586.796 139.968V152H581.932V135.04H586.284V137.088C587.02 135.68 588.556 134.816 589.996 134.624C591.5 134.432 593.484 134.752 594.508 135.36ZM609.574 152H605.222V150.304C604.07 151.616 602.278 152.48 600.198 152.48C596.038 152.48 593.734 150.272 593.734 146.72C593.734 142.592 597.158 141.056 601.702 140.896L604.742 140.8C604.518 138.816 603.366 138.08 601.766 138.08C599.526 138.08 597.638 138.784 596.166 139.776L594.598 136.48C596.23 135.36 598.758 134.56 601.99 134.56C606.534 134.56 609.574 136.576 609.574 140.704V152ZM600.934 148.832C602.31 148.832 603.654 148.288 604.774 147.328V144.32L601.894 144.448C599.782 144.544 598.534 145.472 598.534 146.88C598.534 148.128 599.462 148.832 600.934 148.832ZM618.913 152.48C615.521 152.48 613.409 150.784 613.409 146.848V138.88H610.369V135.04H613.409V129.6H618.209V135.04H622.849V138.88H618.209V146.464C618.209 147.936 618.849 148.64 619.969 148.64C621.057 148.64 621.857 148.384 622.721 148.096L623.713 151.616C622.369 152.192 620.705 152.48 618.913 152.48ZM625.142 152V135.04H630.006V152H625.142ZM624.822 132.32V127.072H630.326V132.32H624.822ZM637.351 143.52C637.351 146.752 639.047 148.64 641.639 148.64C644.231 148.64 645.991 146.752 645.991 143.52C645.991 140.288 644.231 138.4 641.639 138.4C639.047 138.4 637.351 140.288 637.351 143.52ZM632.551 143.52C632.551 138.08 636.199 134.56 641.639 134.56C647.079 134.56 650.791 138.08 650.791 143.52C650.791 148.96 647.079 152.48 641.639 152.48C636.199 152.48 632.551 148.96 632.551 143.52ZM657.363 152H652.563V135.04H656.851V137.664C657.395 135.968 659.347 134.56 662.259 134.56C666.291 134.56 669.011 136.608 669.011 140.704V152H664.211V141.984C664.211 139.424 662.771 138.4 660.691 138.4C659.155 138.4 657.555 139.488 657.363 141.024V152ZM553.643 169.068V171.616C553.643 173.865 551.498 175.88 548.469 177.856L547.767 176.907C550.705 175.061 552.447 173.293 552.447 171.538V170.108H547.949V169.068H553.643ZM556.087 168.483H557.257V180.274H556.087V168.483ZM559.775 171.551C559.775 169.861 560.971 168.704 562.843 168.704C564.52 168.704 565.651 169.64 565.872 171.044H568.238V168.483H569.408V174.723H568.238V172.084H565.872C565.638 173.475 564.507 174.398 562.843 174.398C560.971 174.398 559.775 173.241 559.775 171.551ZM568.238 175.308H569.408V180.274H561.283V175.308H562.453V176.777H568.238V175.308ZM560.919 171.551C560.919 172.682 561.712 173.358 562.843 173.358C563.974 173.358 564.767 172.682 564.767 171.551C564.767 170.42 563.974 169.744 562.843 169.744C561.712 169.744 560.919 170.42 560.919 171.551ZM562.453 179.234H568.238V177.817H562.453V179.234ZM577.01 169.406C575.112 169.406 573.89 169.744 573.89 170.511C573.89 171.278 575.112 171.616 577.01 171.616C578.908 171.616 580.13 171.278 580.13 170.511C580.13 169.744 578.908 169.406 577.01 169.406ZM577.01 172.643C574.098 172.643 572.72 171.902 572.72 170.511C572.72 169.107 574.098 168.379 577.01 168.379C579.922 168.379 581.3 169.107 581.3 170.511C581.3 171.915 579.922 172.643 577.01 172.643ZM571.316 173.397H582.704V174.411H571.316V173.397ZM572.85 177.206H580V176.257H572.85V175.217H581.17V178.246H574.02V179.299H581.365V180.339H572.85V177.206ZM590.533 168.6C592.496 168.6 593.9 169.718 593.9 171.369C593.9 173.02 592.496 174.138 590.533 174.138C588.57 174.138 587.166 173.02 587.166 171.369C587.166 169.718 588.57 168.6 590.533 168.6ZM595.72 168.483H596.89V180.274H595.72V168.483ZM591.014 180.079H589.844V176.192H586.594V175.152H590.754C592.119 175.152 593.601 175.009 594.706 174.762L594.888 175.75C593.874 175.984 592.47 176.153 591.014 176.192V180.079ZM590.533 173.072C591.885 173.072 592.73 172.461 592.73 171.369C592.73 170.277 591.885 169.666 590.533 169.666C589.181 169.666 588.336 170.277 588.336 171.369C588.336 172.461 589.181 173.072 590.533 173.072ZM599.383 173.787C599.383 172.513 600.41 171.46 602.256 171.46C604.102 171.46 605.129 172.513 605.129 173.787C605.129 175.061 604.102 176.114 602.256 176.114C600.41 176.114 599.383 175.061 599.383 173.787ZM607.066 168.483H608.236V172.253H610.082V173.293H608.236V177.232H607.066V168.483ZM600.267 180.209V176.868H601.437V179.169H608.587V180.209H600.267ZM605.571 169.731V170.758H598.668V169.731H601.541V168.184H602.711V169.731H605.571ZM600.553 173.787C600.553 174.541 601.138 175.087 602.256 175.087C603.374 175.087 603.959 174.541 603.959 173.787C603.959 173.033 603.374 172.487 602.256 172.487C601.138 172.487 600.553 173.033 600.553 173.787Z" fill="white"/>
<path d="M957.168 128.48H967.408C973.232 128.48 976.752 130.976 976.752 136.224C976.752 141.472 973.232 144 967.408 144H961.968V152H957.168V128.48ZM966.832 132.32H961.968V140.16H966.832C970.256 140.16 971.952 139.104 971.952 136.224C971.952 133.344 970.256 132.32 966.832 132.32ZM990.613 135.36L989.525 139.008C988.373 138.528 986.997 138.24 985.461 138.496C984.501 138.656 983.445 139.2 982.901 139.968V152H978.037V135.04H982.389V137.088C983.125 135.68 984.661 134.816 986.101 134.624C987.605 134.432 989.589 134.752 990.613 135.36ZM994.639 143.52C994.639 146.752 996.335 148.64 998.927 148.64C1001.52 148.64 1003.28 146.752 1003.28 143.52C1003.28 140.288 1001.52 138.4 998.927 138.4C996.335 138.4 994.639 140.288 994.639 143.52ZM989.839 143.52C989.839 138.08 993.487 134.56 998.927 134.56C1004.37 134.56 1008.08 138.08 1008.08 143.52C1008.08 148.96 1004.37 152.48 998.927 152.48C993.487 152.48 989.839 148.96 989.839 143.52ZM1016.96 152.48C1013.56 152.48 1011.45 150.784 1011.45 146.848V138.88H1008.41V135.04H1011.45V129.6H1016.25V135.04H1020.89V138.88H1016.25V146.464C1016.25 147.936 1016.89 148.64 1018.01 148.64C1019.1 148.64 1019.9 148.384 1020.76 148.096L1021.76 151.616C1020.41 152.192 1018.75 152.48 1016.96 152.48ZM1035.3 146.496L1038.5 148.704C1037.38 150.848 1034.14 152.48 1030.43 152.48C1025.09 152.48 1021.28 148.896 1021.28 143.552C1021.28 138.208 1024.83 134.56 1030.18 134.56C1035.52 134.56 1038.94 138.208 1038.94 143.936C1038.94 144.32 1038.88 144.768 1038.82 145.088H1026.14C1026.5 147.488 1028.13 148.768 1030.59 148.768C1032.7 148.768 1034.53 147.68 1035.3 146.496ZM1026.3 142.112H1034.08C1033.89 140.32 1032.54 138.368 1030.18 138.368C1027.81 138.368 1026.4 140.224 1026.3 142.112ZM1053.69 146.24L1057.98 147.36C1056.63 150.656 1053.53 152.48 1049.47 152.48C1043.87 152.48 1040.22 148.96 1040.22 143.52C1040.22 138.08 1043.87 134.56 1049.47 134.56C1053.53 134.56 1056.51 136.448 1057.79 139.744L1053.63 141.024C1053.11 139.488 1051.61 138.4 1049.53 138.4C1046.94 138.4 1045.02 140.384 1045.02 143.52C1045.02 146.656 1046.94 148.64 1049.53 148.64C1051.39 148.64 1053.02 148 1053.69 146.24ZM1066.05 152.48C1062.66 152.48 1060.55 150.784 1060.55 146.848V138.88H1057.51V135.04H1060.55V129.6H1065.35V135.04H1069.99V138.88H1065.35V146.464C1065.35 147.936 1065.99 148.64 1067.11 148.64C1068.2 148.64 1069 148.384 1069.86 148.096L1070.85 151.616C1069.51 152.192 1067.85 152.48 1066.05 152.48ZM1072.28 152V135.04H1077.15V152H1072.28ZM1071.96 132.32V127.072H1077.47V132.32H1071.96ZM1084.49 143.52C1084.49 146.752 1086.19 148.64 1088.78 148.64C1091.37 148.64 1093.13 146.752 1093.13 143.52C1093.13 140.288 1091.37 138.4 1088.78 138.4C1086.19 138.4 1084.49 140.288 1084.49 143.52ZM1079.69 143.52C1079.69 138.08 1083.34 134.56 1088.78 134.56C1094.22 134.56 1097.93 138.08 1097.93 143.52C1097.93 148.96 1094.22 152.48 1088.78 152.48C1083.34 152.48 1079.69 148.96 1079.69 143.52ZM1104.5 152H1099.7V135.04H1103.99V137.664C1104.54 135.968 1106.49 134.56 1109.4 134.56C1113.43 134.56 1116.15 136.608 1116.15 140.704V152H1111.35V141.984C1111.35 139.424 1109.91 138.4 1107.83 138.4C1106.3 138.4 1104.7 139.488 1104.5 141.024V152ZM997.74 180.599C995.153 180.599 993.554 179.468 993.554 177.96C993.554 176.387 995.153 175.321 997.74 175.321C1000.33 175.321 1001.93 176.387 1001.93 177.96C1001.93 179.533 1000.33 180.599 997.74 180.599ZM998.507 168.899V169.939H995.946V170.966C995.946 172.24 997.597 173.176 998.923 174.008L998.299 174.866C997.129 174.164 995.946 173.371 995.374 172.474C994.867 173.41 993.632 174.476 992.462 175.217L991.799 174.359C993.281 173.358 994.776 172.253 994.776 170.966V169.939H992.215V168.899H998.507ZM997.74 176.361C995.959 176.361 994.724 176.972 994.724 177.96C994.724 178.948 995.959 179.559 997.74 179.559C999.521 179.559 1000.76 178.948 1000.76 177.96C1000.76 176.972 999.521 176.361 997.74 176.361ZM998.013 172.175V171.135H1000.57V168.483H1001.74V175.152H1000.57V172.175H998.013ZM1012.33 168.99H1013.5V175.113H1009.93V177.713H1015.04V178.753H1003.65V177.713H1008.76V175.113H1005.18V168.99H1006.35V170.914H1012.33V168.99ZM1006.35 174.073H1012.33V171.954H1006.35V174.073ZM1027.41 168.99H1028.58V175.113H1025V177.713H1030.11V178.753H1018.72V177.713H1023.83V175.113H1020.26V168.99H1021.43V170.914H1027.41V168.99ZM1021.43 174.073H1027.41V171.954H1021.43V174.073ZM1036.5 171.525C1039.17 171.525 1040.56 172.396 1040.56 173.865C1040.56 175.23 1039.36 176.075 1037.09 176.192V177.713H1042.2V178.753H1030.81V177.713H1035.92V176.192C1033.63 176.075 1032.45 175.23 1032.45 173.865C1032.45 172.396 1033.84 171.525 1036.5 171.525ZM1036.5 175.191C1038.56 175.191 1039.39 174.736 1039.39 173.865C1039.39 172.994 1038.56 172.539 1036.5 172.539C1034.45 172.539 1033.62 172.994 1033.62 173.865C1033.62 174.736 1034.45 175.191 1036.5 175.191ZM1035.93 168.184H1037.07V169.835H1041.31V170.849H1031.69V169.835H1035.93V168.184ZM1052.18 173.033V171.993H1054.95V168.483H1056.12V180.274H1054.95V173.033H1052.18ZM1049.05 168.938H1050.22V171.785C1050.22 174.203 1051.79 175.607 1053.25 176.803L1052.5 177.622C1051.33 176.725 1050.09 175.36 1049.64 174.203C1049.18 175.555 1047.95 176.894 1046.78 177.817L1046.02 176.998C1047.63 175.685 1049.05 174.216 1049.05 171.785V168.938ZM1063.59 168.951H1064.76V177.336H1058.69V168.951H1059.86V171.889H1063.59V168.951ZM1067.17 168.483H1068.34V180.274H1067.17V168.483ZM1059.86 176.296H1063.59V172.929H1059.86V176.296ZM1070.05 177.713H1081.44V178.753H1070.05V177.713ZM1075.16 168.99H1076.33V170.81C1076.33 172.5 1078.93 173.761 1080.67 174.437L1080.15 175.425C1078.37 174.814 1076.45 173.579 1075.75 172.526C1075.04 173.579 1073.12 174.814 1071.34 175.425L1070.82 174.437C1072.56 173.761 1075.16 172.5 1075.16 170.81V168.99Z" fill="white"/>
<path d="M342.3 169.008H336.156V157.488H325.98V152.048H336.156V141.168H342.3V152.048H352.54V157.488H342.3V169.008Z" fill="#4C8ED6"/>
<path d="M792.344 169.008H786.2V157.488H776.024V152.048H786.2V141.168H792.344V152.048H802.584V157.488H792.344V169.008Z" fill="#4C8ED6"/>
<defs>
<radialGradient id="paint0_radial_239_19602" cx="0" cy="0" r="1" gradientUnits="userSpaceOnUse" gradientTransform="translate(1036.53 139.232) rotate(90) scale(138.475)">
<stop stop-color="#4C8ED6"/>
<stop offset="1" stop-color="#4C8ED6" stop-opacity="0.04"/>
</radialGradient>
<radialGradient id="paint1_radial_239_19602" cx="0" cy="0" r="1" gradientUnits="userSpaceOnUse" gradientTransform="translate(578.336 139.232) rotate(90) scale(138.475)">
<stop stop-color="#4C8ED6"/>
<stop offset="1" stop-color="#4C8ED6" stop-opacity="0.04"/>
</radialGradient>
<radialGradient id="paint2_radial_239_19602" cx="0" cy="0" r="1" gradientUnits="userSpaceOnUse" gradientTransform="translate(138.475 139.475) rotate(90) scale(138.475)">
<stop stop-color="#4C8ED6"/>
<stop stop-color="#4C8ED6"/>
<stop offset="1" stop-color="#4C8ED6" stop-opacity="0.04"/>
</radialGradient>
</defs>
</svg>
