<svg width="412" height="86" viewBox="0 0 412 86" fill="none" xmlns="http://www.w3.org/2000/svg">
<path d="M104.64 46V16.36H114.36C120.92 16.36 125.96 18.68 125.96 25.68C125.96 32.44 120.88 35.48 114.52 35.48H110.56V46H104.64ZM110.56 30.8H114.12C118.2 30.8 120.16 29.08 120.16 25.68C120.16 22.24 118 21.08 113.92 21.08H110.56V30.8ZM145.4 46.56C137.92 46.56 131.84 41.2 131.84 31.32C131.84 21.56 138.12 15.84 145.6 15.84C149.36 15.84 152.36 17.64 154.28 19.64L151.2 23.4C149.68 21.96 147.96 20.92 145.72 20.92C141.24 20.92 137.88 24.76 137.88 31.12C137.88 37.56 140.92 41.44 145.6 41.44C148.16 41.44 150.12 40.24 151.72 38.52L154.84 42.2C152.4 45.04 149.24 46.56 145.4 46.56ZM168.449 24.76V29.92H184.209V24.76H168.449ZM178.969 40.88H193.049V45.16H159.689V40.88H173.689V34.12H163.209V14.88H168.449V20.6H184.209V14.88H189.409V34.12H178.969V40.88ZM203.926 24.32C203.926 27.32 206.006 29.12 208.766 29.12C211.486 29.12 213.606 27.32 213.606 24.32C213.606 21.32 211.486 19.52 208.766 19.52C206.006 19.52 203.926 21.32 203.926 24.32ZM218.726 24.32C218.726 29.72 214.366 33.68 208.766 33.68C203.126 33.68 198.766 29.72 198.766 24.32C198.766 18.88 203.126 14.96 208.766 14.96C214.366 14.96 218.726 18.88 218.726 24.32ZM209.006 36.64V44.6H228.806V48.8H203.726V36.64H209.006ZM227.486 23.16H232.366V27.48H227.486V39.4H222.206V12.6H227.486V23.16ZM256.963 28.4L251.803 27.8C252.403 24.36 252.563 21.68 252.603 19.48H238.883V15.28H257.803V17.56C257.803 20.12 257.803 23.76 256.963 28.4ZM259.403 29.88L259.723 33.64C252.123 35.04 243.563 35.2 237.243 35.24L236.763 31.04C238.803 31.04 241.083 31.04 243.483 31V23.84H248.643V30.8C252.283 30.64 255.963 30.36 259.403 29.88ZM247.403 37.72V44.6H267.843V48.8H242.123V37.72H247.403ZM266.683 23.8H271.083V28.16H266.683V40.16H261.403V12.56H266.683V23.8ZM283.439 29.96V36.6C289.039 36.56 293.679 36.28 298.879 35.4L299.439 39.68C293.439 40.72 288.039 40.96 281.359 40.96H278.039V25.8H289.999V19.92H277.999V15.72H295.399V29.96H283.439ZM301.439 12.56H306.719V49.52H301.439V12.56Z" fill="#0E66C8"/>
<path d="M8.762 71.56H11.594V67.848H12.922V76.392H11.594V72.632H8.762V71.56ZM9.562 74.824L8.906 75.848C7.306 75.272 6.074 74.088 5.45 72.616C4.842 74.28 3.514 75.624 1.834 76.264L1.146 75.224C3.29 74.44 4.762 72.504 4.762 70.44V69.944H1.562V68.888H9.226V69.944H6.074V70.44C6.074 72.28 7.482 74.088 9.562 74.824ZM8.186 81.16C10.346 81.16 11.658 80.552 11.658 79.512C11.658 78.472 10.346 77.848 8.186 77.848C6.026 77.848 4.714 78.472 4.714 79.512C4.714 80.552 6.026 81.16 8.186 81.16ZM8.186 76.84C11.13 76.84 12.97 77.816 12.97 79.512C12.97 81.208 11.13 82.184 8.186 82.184C5.242 82.184 3.402 81.208 3.402 79.512C3.402 77.816 5.242 76.84 8.186 76.84ZM18.6488 72.488V75.128H25.9768V72.488H18.6488ZM22.9688 79.272H28.8248V80.344H15.8168V79.272H21.6408V76.184H17.3528V68.856H18.6488V71.416H25.9768V68.856H27.2568V76.184H22.9688V79.272ZM36.9995 69.464C34.8235 69.464 33.3355 70.264 33.3355 71.528C33.3355 72.792 34.8235 73.608 36.9995 73.608C39.1915 73.608 40.6795 72.792 40.6795 71.528C40.6795 70.264 39.1915 69.464 36.9995 69.464ZM36.9995 74.664C34.0235 74.664 31.9915 73.448 31.9915 71.528C31.9915 69.608 34.0235 68.408 36.9995 68.408C39.9915 68.408 42.0235 69.608 42.0235 71.528C42.0235 73.448 39.9915 74.664 36.9995 74.664ZM43.5275 76.008V77.08H40.1355V82.184H38.8075V77.08H35.2075V82.184H33.8795V77.08H30.5355V76.008H43.5275ZM46.3263 73.56L45.9423 72.568C48.5983 72.392 50.7903 71.512 51.0143 70.088H46.5823V69.096H51.0943V67.736H52.4062V69.096H56.9023V70.088H52.4862C52.7103 71.512 54.8703 72.392 57.5423 72.568L57.1423 73.56C54.7423 73.368 52.6302 72.632 51.7503 71.304C50.8703 72.632 48.7423 73.368 46.3263 73.56ZM58.2143 75.208H52.4062V76.536H56.5663V79.672H48.1343V81.032H56.9983V82.024H46.8543V78.728H55.2703V77.512H46.8063V76.536H51.0783V75.208H45.2703V74.2H58.2143V75.208ZM65.925 74.296V71.928H61.861V74.296H65.925ZM67.205 68.744V75.352H60.565V68.744H61.861V70.904H65.925V68.744H67.205ZM66.549 81.144C68.661 81.144 69.957 80.536 69.957 79.512C69.957 78.488 68.661 77.896 66.549 77.896C64.405 77.896 63.125 78.488 63.125 79.512C63.125 80.536 64.405 81.144 66.549 81.144ZM66.549 76.84C69.461 76.84 71.269 77.816 71.269 79.512C71.269 81.208 69.461 82.184 66.549 82.184C63.621 82.184 61.813 81.208 61.813 79.512C61.813 77.816 63.621 76.84 66.549 76.84ZM71.109 71.448H73.237V72.536H71.109V76.472H69.797V67.832H71.109V71.448ZM79.8118 70.392V72.216C79.8118 74.648 81.5398 77.128 83.6518 78.024L82.9158 79.08C81.2518 78.312 79.8438 76.664 79.1558 74.696C78.4998 76.792 77.0918 78.6 75.4598 79.432L74.6918 78.376C76.7558 77.4 78.4998 74.696 78.4998 72.216V70.392H75.1718V69.304H83.1878V70.392H79.8118ZM85.1238 67.848H86.4358V82.184H85.1238V67.848ZM89.7625 84.04L89.4105 83.176C90.4185 82.728 91.0105 81.944 91.0105 81C90.9465 81.016 90.8985 81.016 90.8345 81.016C90.2745 81.016 89.7625 80.664 89.7625 79.992C89.7625 79.368 90.2745 78.968 90.8665 78.968C91.6345 78.968 92.0985 79.624 92.0985 80.696C92.0985 82.232 91.2025 83.432 89.7625 84.04ZM102.466 69.064V71.64C102.466 74.248 104.098 76.856 106.178 77.848L105.41 78.888C103.778 78.072 102.466 76.36 101.81 74.344C101.186 76.472 99.8578 78.28 98.2418 79.144L97.4418 78.104C99.5218 77.064 101.154 74.296 101.154 71.64V69.064H102.466ZM107.954 67.832H109.266V82.2H107.954V73.768H104.626V72.696H107.954V67.832ZM122.593 67.832H123.905V82.2H122.593V67.832ZM112.977 69.048H114.273V72.84H118.433V69.048H119.729V78.728H112.977V69.048ZM114.273 73.88V77.656H118.433V73.88H114.273ZM139.247 75.048L138.655 76.136C136.479 75.64 134.239 74.104 133.327 71.992C132.415 74.088 130.175 75.624 128.015 76.136L127.423 75.048C129.935 74.552 132.639 72.392 132.639 69.944V68.84H134.015V69.944C134.015 72.392 136.735 74.568 139.247 75.048ZM126.879 79.176H139.887V80.264H126.879V79.176ZM144.43 72.488V75.128H151.758V72.488H144.43ZM148.75 79.272H154.606V80.344H141.598V79.272H147.422V76.184H143.134V68.856H144.43V71.416H151.758V68.856H153.038V76.184H148.75V79.272ZM157.869 72.376C157.869 73.784 158.925 74.776 160.333 74.776C161.741 74.776 162.797 73.784 162.797 72.376C162.797 70.968 161.741 69.976 160.333 69.976C158.925 69.976 157.869 70.968 157.869 72.376ZM164.077 72.376C164.077 74.456 162.477 75.912 160.333 75.912C158.189 75.912 156.589 74.456 156.589 72.376C156.589 70.296 158.189 68.84 160.333 68.84C162.477 68.84 164.077 70.296 164.077 72.376ZM159.837 77.32V80.792H168.093V81.864H158.525V77.32H159.837ZM167.453 72.2H169.565V73.288H167.453V78.392H166.141V67.832H167.453V72.2ZM171.388 84.04L171.036 83.176C172.044 82.728 172.636 81.944 172.636 81C172.572 81.016 172.524 81.016 172.46 81.016C171.9 81.016 171.388 80.664 171.388 79.992C171.388 79.368 171.9 78.968 172.492 78.968C173.26 78.968 173.724 79.624 173.724 80.696C173.724 82.232 172.828 83.432 171.388 84.04ZM184.155 69.08V71.656C184.155 74.28 185.867 76.92 187.995 77.88L187.211 78.936C185.579 78.136 184.203 76.44 183.515 74.392C182.859 76.552 181.483 78.344 179.803 79.208L179.003 78.136C181.115 77.128 182.859 74.376 182.859 71.656V69.08H184.155ZM189.499 67.832H190.811V82.216H189.499V67.832ZM206.154 75.048L205.562 76.136C203.386 75.64 201.146 74.104 200.234 71.992C199.322 74.088 197.082 75.624 194.922 76.136L194.33 75.048C196.842 74.552 199.546 72.392 199.546 69.944V68.84H200.922V69.944C200.922 72.392 203.642 74.568 206.154 75.048ZM193.786 79.176H206.794V80.264H193.786V79.176ZM216.584 76.328V72.504H214.68V71.448H216.584V68.072H217.832V76.328H216.584ZM215.24 74.168L215.352 75.224C213.72 75.544 212.36 75.608 210.072 75.608H209.16V68.76H214.584V69.816H210.424V71.592H214.024V72.616H210.424V74.552C212.456 74.552 213.752 74.472 215.24 74.168ZM212.472 78.2V80.936H219.336V78.2H212.472ZM211.192 81.992V77.16H220.616V81.992H211.192ZM219.352 67.832H220.616V76.472H219.352V67.832ZM226.055 72.488V75.128H233.383V72.488H226.055ZM230.375 79.272H236.231V80.344H223.223V79.272H229.047V76.184H224.759V68.856H226.055V71.416H233.383V68.856H234.663V76.184H230.375V79.272ZM239.494 72.376C239.494 73.784 240.55 74.776 241.958 74.776C243.366 74.776 244.422 73.784 244.422 72.376C244.422 70.968 243.366 69.976 241.958 69.976C240.55 69.976 239.494 70.968 239.494 72.376ZM245.702 72.376C245.702 74.456 244.102 75.912 241.958 75.912C239.814 75.912 238.214 74.456 238.214 72.376C238.214 70.296 239.814 68.84 241.958 68.84C244.102 68.84 245.702 70.296 245.702 72.376ZM241.462 77.32V80.792H249.718V81.864H240.15V77.32H241.462ZM249.078 72.2H251.19V73.288H249.078V78.392H247.766V67.832H249.078V72.2ZM264.133 72.232V73.288H254.293V68.408H264.037V69.464H255.605V72.232H264.133ZM259.141 81.144C261.381 81.144 262.725 80.584 262.725 79.576C262.725 78.568 261.397 78.008 259.141 78.008C256.885 78.008 255.557 78.568 255.557 79.576C255.557 80.584 256.885 81.144 259.141 81.144ZM259.141 76.984C262.197 76.984 264.053 77.912 264.053 79.576C264.053 81.24 262.197 82.168 259.141 82.168C256.085 82.168 254.229 81.24 254.229 79.576C254.229 77.912 256.085 76.984 259.141 76.984ZM252.661 74.664H265.653V75.752H252.661V74.664ZM271.709 81V69.256H275.069C277.693 69.256 279.453 70.152 279.453 72.712C279.453 75.192 277.709 76.344 275.133 76.344H273.197V81H271.709ZM273.197 75.144H274.941C277.005 75.144 277.981 74.392 277.981 72.712C277.981 71.016 276.941 70.472 274.877 70.472H273.197V75.144ZM286.251 81.208C283.339 81.208 281.147 78.952 281.147 75.144C281.147 71.352 283.371 69.048 286.347 69.048C287.771 69.048 288.891 69.752 289.563 70.504L288.763 71.464C288.155 70.808 287.371 70.344 286.363 70.344C284.139 70.344 282.667 72.168 282.667 75.096C282.667 78.056 284.075 79.912 286.315 79.912C287.435 79.912 288.283 79.416 289.035 78.6L289.851 79.528C288.923 80.6 287.771 81.208 286.251 81.208ZM294.102 72.488V75.128H301.43V72.488H294.102ZM298.422 79.272H304.278V80.344H291.27V79.272H297.094V76.184H292.806V68.856H294.102V71.416H301.43V68.856H302.71V76.184H298.422V79.272ZM307.541 72.376C307.541 73.784 308.597 74.776 310.005 74.776C311.413 74.776 312.469 73.784 312.469 72.376C312.469 70.968 311.413 69.976 310.005 69.976C308.597 69.976 307.541 70.968 307.541 72.376ZM313.749 72.376C313.749 74.456 312.149 75.912 310.005 75.912C307.861 75.912 306.261 74.456 306.261 72.376C306.261 70.296 307.861 68.84 310.005 68.84C312.149 68.84 313.749 70.296 313.749 72.376ZM309.509 77.32V80.792H317.765V81.864H308.197V77.32H309.509ZM317.125 72.2H319.237V73.288H317.125V78.392H315.813V67.832H317.125V72.2ZM328.243 73.96L326.947 73.816C327.283 72.168 327.331 70.936 327.331 70.024H321.475V68.952H328.611V69.704C328.611 70.648 328.611 72.072 328.243 73.96ZM329.603 74.824L329.699 75.784C326.723 76.28 323.283 76.36 320.739 76.36L320.611 75.288C321.523 75.288 322.563 75.272 323.651 75.256V72.152H324.947V75.208C326.515 75.144 328.147 75.016 329.603 74.824ZM324.115 77.656V80.792H332.339V81.864H322.803V77.656H324.115ZM331.875 72.504H333.923V73.592H331.875V78.648H330.563V67.832H331.875V72.504ZM337.57 74.28V77.64C339.922 77.64 342.034 77.528 344.546 77.128L344.674 78.2C342.082 78.632 339.906 78.728 337.442 78.728H336.258V73.224H341.538V70.232H336.21V69.16H342.866V74.28H337.57ZM345.89 67.816H347.202V82.2H345.89V67.816ZM350.993 69.384H357.713C357.713 73.528 355.809 77.176 351.041 79.512L350.337 78.44C354.193 76.6 356.113 73.848 356.385 70.44H350.993V69.384ZM360.609 67.832H361.921V82.184H360.609V67.832ZM376.368 71.832V72.888H366.624V68.136H367.936V71.832H376.368ZM371.344 81.112C373.584 81.112 374.928 80.52 374.928 79.528C374.928 78.504 373.6 77.928 371.344 77.928C369.088 77.928 367.76 78.504 367.76 79.528C367.76 80.52 369.088 81.112 371.344 81.112ZM371.344 76.904C374.4 76.904 376.256 77.848 376.256 79.528C376.256 81.192 374.4 82.136 371.344 82.136C368.288 82.136 366.432 81.192 366.432 79.528C366.432 77.848 368.288 76.904 371.344 76.904ZM364.88 74.552H377.856V75.624H364.88V74.552ZM387.369 70.584V71.88C387.369 74.376 388.441 76.872 390.425 77.992L389.625 78.952C388.233 78.12 387.241 76.584 386.745 74.76C386.249 76.728 385.209 78.408 383.785 79.304L382.985 78.328C384.985 77.128 386.105 74.52 386.105 71.88V70.584H383.385V69.512H389.929V70.584H387.369ZM391.209 72.984V68.152H392.457V81.432H391.209V74.056H388.841V72.984H391.209ZM394.089 67.816H395.353V82.168H394.089V67.816ZM407.911 69.784V69.624H399.431V68.568H409.207V69.784C409.207 70.936 409.207 72.104 408.807 73.576L407.527 73.432C407.911 71.96 407.911 70.904 407.911 69.784ZM404.311 81.144C406.567 81.144 408.007 80.536 408.007 79.544C408.007 78.52 406.567 77.912 404.311 77.912C402.071 77.912 400.631 78.52 400.631 79.544C400.631 80.536 402.071 81.144 404.311 81.144ZM404.311 76.904C407.367 76.904 409.319 77.88 409.319 79.544C409.319 81.176 407.367 82.168 404.311 82.168C401.255 82.168 399.319 81.176 399.319 79.544C399.319 77.88 401.255 76.904 404.311 76.904ZM404.519 74.52H410.823V75.576H397.911V74.52H403.207V71.768H404.519V74.52Z" fill="black" fill-opacity="0.65"/>
</svg>
