<svg width="504" height="95" viewBox="0 0 504 95" fill="none" xmlns="http://www.w3.org/2000/svg">
<path d="M69.2903 71.56C61.8103 71.56 55.7303 66.2 55.7303 56.32C55.7303 46.56 62.0103 40.84 69.4903 40.84C73.2503 40.84 76.2503 42.64 78.1703 44.64L75.0903 48.4C73.5703 46.96 71.8503 45.92 69.6103 45.92C65.1303 45.92 61.7703 49.76 61.7703 56.12C61.7703 62.56 64.8103 66.44 69.4903 66.44C72.0503 66.44 74.0103 65.24 75.6103 63.52L78.7303 67.2C76.2903 70.04 73.1303 71.56 69.2903 71.56ZM92.3794 71.56C86.7794 71.56 81.6194 67.24 81.6194 59.8C81.6194 52.36 86.7794 48.04 92.3794 48.04C97.9794 48.04 103.139 52.36 103.139 59.8C103.139 67.24 97.9794 71.56 92.3794 71.56ZM92.3794 66.76C95.4194 66.76 97.1394 64.04 97.1394 59.8C97.1394 55.6 95.4194 52.84 92.3794 52.84C89.3394 52.84 87.6194 55.6 87.6194 59.8C87.6194 64.04 89.3394 66.76 92.3794 66.76ZM108.058 71V48.6H112.858L113.298 51.6H113.418C115.298 49.64 117.378 48.04 120.298 48.04C123.498 48.04 125.378 49.48 126.458 51.96C128.498 49.8 130.658 48.04 133.578 48.04C138.338 48.04 140.538 51.4 140.538 57.04V71H134.658V57.76C134.658 54.28 133.658 53.08 131.538 53.08C130.258 53.08 128.818 53.92 127.218 55.6V71H121.378V57.76C121.378 54.28 120.338 53.08 118.218 53.08C116.938 53.08 115.498 53.92 113.938 55.6V71H108.058ZM146.613 79.6V48.6H151.413L151.853 50.92H151.973C153.853 49.32 156.173 48.04 158.573 48.04C164.093 48.04 167.373 52.56 167.373 59.44C167.373 67.12 162.773 71.56 157.853 71.56C155.893 71.56 154.013 70.68 152.293 69.12L152.493 72.8V79.6H146.613ZM156.533 66.72C159.253 66.72 161.333 64.4 161.333 59.52C161.333 55.24 159.973 52.88 156.893 52.88C155.373 52.88 154.013 53.64 152.493 55.2V65.04C153.893 66.28 155.333 66.72 156.533 66.72ZM177.328 71.56C173.328 71.56 170.688 68.72 170.688 64.92C170.688 60.12 174.568 57.6 183.608 56.64C183.488 54.44 182.528 52.76 179.768 52.76C177.688 52.76 175.688 53.68 173.608 54.88L171.488 51C174.128 49.36 177.328 48.04 180.848 48.04C186.528 48.04 189.448 51.44 189.448 57.92V71H184.648L184.248 68.6H184.088C182.128 70.28 179.888 71.56 177.328 71.56ZM179.248 66.96C180.928 66.96 182.168 66.16 183.608 64.76V60.24C178.128 60.92 176.288 62.44 176.288 64.44C176.288 66.2 177.528 66.96 179.248 66.96ZM195.441 71V48.6H200.241L200.681 51.56H200.801C202.761 49.64 205.041 48.04 208.081 48.04C212.921 48.04 215.001 51.4 215.001 57.04V71H209.121V57.76C209.121 54.28 208.161 53.08 205.961 53.08C204.121 53.08 202.961 53.96 201.321 55.6V71H195.441ZM223.026 80C221.706 80 220.826 79.84 219.946 79.56L221.026 75.04C221.426 75.16 222.066 75.32 222.586 75.32C224.866 75.32 226.146 73.88 226.786 71.92L227.186 70.6L218.466 48.6H224.386L227.946 59C228.626 61 229.186 63.16 229.826 65.32H230.026C230.546 63.24 231.106 61.08 231.626 59L234.706 48.6H240.346L232.386 71.68C230.426 76.96 228.026 80 223.026 80ZM253.578 71V41.36H259.498V71H253.578ZM266.301 71V48.6H271.101L271.541 51.56H271.661C273.621 49.64 275.901 48.04 278.941 48.04C283.781 48.04 285.861 51.4 285.861 57.04V71H279.981V57.76C279.981 54.28 279.021 53.08 276.821 53.08C274.981 53.08 273.821 53.96 272.181 55.6V71H266.301ZM300.126 71.56C294.806 71.56 292.766 68.16 292.766 63.16V53.24H289.606V48.88L293.086 48.6L293.766 42.56H298.646V48.6H304.166V53.24H298.646V63.16C298.646 65.72 299.686 66.92 301.686 66.92C302.406 66.92 303.286 66.68 303.886 66.44L304.846 70.72C303.646 71.12 302.086 71.56 300.126 71.56ZM308.723 71V48.6H313.523L313.963 52.56H314.083C315.723 49.64 318.123 48.04 320.443 48.04C321.683 48.04 322.403 48.24 323.083 48.52L322.083 53.6C321.283 53.36 320.643 53.24 319.723 53.24C317.963 53.24 315.842 54.4 314.603 57.64V71H308.723ZM335.036 71.56C329.436 71.56 324.276 67.24 324.276 59.8C324.276 52.36 329.436 48.04 335.036 48.04C340.636 48.04 345.796 52.36 345.796 59.8C345.796 67.24 340.636 71.56 335.036 71.56ZM335.036 66.76C338.076 66.76 339.796 64.04 339.796 59.8C339.796 55.6 338.076 52.84 335.036 52.84C331.996 52.84 330.276 55.6 330.276 59.8C330.276 64.04 331.996 66.76 335.036 66.76ZM358.595 71.56C353.035 71.56 349.435 67.16 349.435 59.8C349.435 52.52 353.995 48.04 358.835 48.04C361.355 48.04 362.915 49 364.515 50.48L364.315 46.96V39.08H370.155V71H365.395L364.955 68.68H364.795C363.155 70.28 360.915 71.56 358.595 71.56ZM360.115 66.72C361.675 66.72 362.995 66.08 364.315 64.4V54.56C362.955 53.32 361.515 52.88 360.115 52.88C357.595 52.88 355.475 55.28 355.475 59.76C355.475 64.4 357.155 66.72 360.115 66.72ZM383.137 71.56C378.297 71.56 376.217 68.2 376.217 62.6V48.6H382.097V61.84C382.097 65.28 383.057 66.52 385.217 66.52C387.057 66.52 388.257 65.72 389.777 63.72V48.6H395.657V71H390.857L390.417 67.8H390.257C388.337 70.08 386.177 71.56 383.137 71.56ZM411.446 71.56C405.246 71.56 400.526 67.24 400.526 59.8C400.526 52.36 405.886 48.04 411.966 48.04C414.726 48.04 416.846 49.12 418.486 50.52L415.686 54.32C414.566 53.36 413.526 52.84 412.286 52.84C408.846 52.84 406.526 55.6 406.526 59.8C406.526 64.04 408.886 66.76 412.086 66.76C413.686 66.76 415.206 66 416.446 64.96L418.806 68.84C416.646 70.72 413.926 71.56 411.446 71.56ZM430.751 71.56C425.431 71.56 423.391 68.16 423.391 63.16V53.24H420.231V48.88L423.711 48.6L424.391 42.56H429.271V48.6H434.791V53.24H429.271V63.16C429.271 65.72 430.311 66.92 432.311 66.92C433.031 66.92 433.911 66.68 434.511 66.44L435.471 70.72C434.271 71.12 432.711 71.56 430.751 71.56ZM439.348 71V48.6H445.228V71H439.348ZM442.308 45C440.268 45 438.868 43.72 438.868 41.76C438.868 39.84 440.268 38.56 442.308 38.56C444.308 38.56 445.708 39.84 445.708 41.76C445.708 43.72 444.308 45 442.308 45ZM460.856 71.56C455.256 71.56 450.096 67.24 450.096 59.8C450.096 52.36 455.256 48.04 460.856 48.04C466.456 48.04 471.616 52.36 471.616 59.8C471.616 67.24 466.456 71.56 460.856 71.56ZM460.856 66.76C463.896 66.76 465.616 64.04 465.616 59.8C465.616 55.6 463.896 52.84 460.856 52.84C457.816 52.84 456.096 55.6 456.096 59.8C456.096 64.04 457.816 66.76 460.856 66.76ZM476.535 71V48.6H481.335L481.775 51.56H481.895C483.855 49.64 486.135 48.04 489.175 48.04C494.015 48.04 496.095 51.4 496.095 57.04V71H490.215V57.76C490.215 54.28 489.255 53.08 487.055 53.08C485.215 53.08 484.055 53.96 482.415 55.6V71H476.535Z" fill="black" fill-opacity="0.8"/>
<path d="M63.029 6.272V7.92H54.181V6.272H57.557V4.688H59.669V6.272H63.029ZM56.965 11.264C56.965 12.032 57.637 12.448 58.613 12.448C59.605 12.448 60.261 12.032 60.261 11.264C60.261 10.512 59.605 10.096 58.613 10.096C57.637 10.096 56.965 10.512 56.965 11.264ZM59.669 13.936V15.104C60.869 15.024 62.069 14.944 63.221 14.784L63.381 16.32C60.165 16.912 56.757 16.928 54.149 16.928L53.893 15.216C54.997 15.216 56.245 15.216 57.557 15.184V13.936C55.973 13.632 54.949 12.64 54.949 11.264C54.949 9.616 56.453 8.496 58.613 8.496C60.757 8.496 62.261 9.616 62.261 11.264C62.261 12.64 61.237 13.632 59.669 13.936ZM63.989 4.64H66.101V19.376H63.989V4.64ZM73.9558 5.776V7.92C73.9558 10.576 74.9958 13.248 77.3638 14.416L76.0838 16.08C74.5478 15.296 73.5078 13.872 72.8998 12.112C72.2598 13.984 71.1558 15.536 69.4918 16.352L68.2278 14.64C70.7078 13.472 71.8278 10.656 71.8278 7.92V5.776H73.9558ZM82.2118 10.304V12.064H80.0678V19.376H77.9558V4.64H80.0678V10.304H82.2118ZM96.1465 11.36L95.2825 13.104C92.6905 12.64 90.8025 11.264 89.8425 9.44C88.8825 11.248 87.0105 12.64 84.4345 13.104L83.5705 11.36C86.8985 10.816 88.7225 8.56 88.7225 6.512V5.456H90.9785V6.512C90.9785 8.608 92.7865 10.816 96.1465 11.36ZM90.9145 15.936H96.5945V17.632H83.2505V15.936H88.8025V12.64H90.9145V15.936ZM98.5293 6.464H104.337C104.337 10.592 103.121 13.968 99.0093 16.368L97.7773 14.896C100.737 13.168 101.985 11.04 102.257 8.144H98.5293V6.464ZM108.577 4.64H110.593V19.376H108.577V11.888H107.265V18.752H105.297V5.024H107.265V10.192H108.577V4.64Z" fill="black" fill-opacity="0.8"/>
<path d="M503 95C503.552 95 504 94.5523 504 94C504 93.4477 503.552 93 503 93V95ZM0 95H503V93H0V95Z" fill="black"/>
</svg>
