<svg width="593" height="97" viewBox="0 0 593 97" fill="none" xmlns="http://www.w3.org/2000/svg">
<path d="M3.78 20.94C1.94 17.94 0.84 14.72 0.84 10.78C0.84 6.86 1.94 3.62 3.78 0.64L4.92 1.16C3.18 4.02 2.36 7.38 2.36 10.78C2.36 14.18 3.18 17.56 4.92 20.4L3.78 20.94ZM7.41781 9.26L6.79781 7.96C9.91781 7.5 13.0178 5.44 13.0178 3.08V2.98H7.35781V1.66H20.4578V2.98H14.8378V3.08C14.8378 5.44 17.9378 7.5 21.0978 7.96L20.4578 9.26C17.6778 8.78 15.0178 7.28 13.9378 5.16C12.8378 7.28 10.1978 8.78 7.41781 9.26ZM22.0378 10.76L22.0578 12.1H14.7178V18.48H13.0778V12.1H5.83781V10.76H22.0378ZM24.1363 20.94L23.0163 20.4C24.7363 17.56 25.5763 14.18 25.5763 10.78C25.5763 7.38 24.7363 4.02 23.0163 1.16L24.1363 0.64C25.9963 3.62 27.0963 6.86 27.0963 10.78C27.0963 14.72 25.9963 17.94 24.1363 20.94ZM34.2941 2.24V5.6C34.2941 8.48 35.6341 11.52 37.9941 12.96L37.0541 14.24C35.3541 13.2 34.1541 11.3 33.5141 9.12C32.8741 11.5 31.5741 13.52 29.7941 14.62L28.7741 13.4C31.2341 11.96 32.7141 8.74 32.7141 5.66V2.24H34.2941ZM39.0141 6.98V0.939999H40.5541V17.6H39.0141V8.34H36.0541V6.98H39.0141ZM42.6541 0.54H44.2141V18.48H42.6541V0.54ZM50.1925 3.76V12.64C51.1325 12.62 52.1125 12.58 53.0925 12.52V3.76H50.1925ZM54.6925 3.76V12.42C55.5725 12.38 56.4125 12.3 57.2525 12.2L57.3725 13.4C53.7325 13.96 49.5325 14.06 46.4125 14.06L46.2325 12.68C46.9525 12.68 47.7725 12.68 48.5925 12.66V3.76H46.7925V2.42H56.6925V3.76H54.6925ZM59.5125 0.559999H61.1525V18.48H59.5125V8.66H56.0925V7.3H59.5125V0.559999ZM78.1509 9.14V10.48H65.8309V2.18H77.9709V3.54H67.4509V9.14H78.1509ZM63.7509 14.7H80.0309V16.06H63.7509V14.7ZM95.5494 5.94V7.28H83.3494V1.2H84.9894V5.94H95.5494ZM84.8694 12.8V16.7H95.6494V18.04H83.2294V12.8H84.8694ZM81.1494 9.68H97.4094V11H81.1494V9.68ZM104.3 4.06V12.7C106.7 12.68 108.4 12.58 110.36 12.16L110.5 13.52C108.36 13.98 106.54 14.06 103.86 14.06H102.68V2.72H109.36V4.06H104.3ZM115.7 0.54H117.28V18.48H115.7V9.08H113.16V17.58H111.62V0.939999H113.16V7.74H115.7V0.54ZM130.079 2.74V4.06H119.499V2.74H123.959V0.54H125.599V2.74H130.079ZM122.059 8.38C122.059 9.64 123.159 10.44 124.779 10.44C126.399 10.44 127.519 9.64 127.519 8.38C127.519 7.14 126.399 6.34 124.779 6.34C123.159 6.34 122.059 7.14 122.059 8.38ZM129.079 8.38C129.079 10.4 127.319 11.72 124.779 11.72C122.239 11.72 120.499 10.4 120.499 8.38C120.499 6.38 122.239 5.06 124.779 5.06C127.319 5.06 129.079 6.38 129.079 8.38ZM123.839 12.94V16.74H134.159V18.08H122.199V12.94H123.839ZM133.359 6.46H135.999V7.84H133.359V14H131.719V0.54H133.359V6.46ZM151.557 0.559999V13.44H149.917V0.559999H151.557ZM144.557 9.12V3.42H139.377V9.12H144.557ZM146.157 2.1V10.44H137.777V2.1H146.157ZM141.657 16.56H152.097V17.88H140.017V12.22H141.657V16.56ZM170.516 9.14H163.176V12.42H168.516V18.46H166.876V13.74H155.956V12.42H161.536V9.14H154.236V7.8H166.316C166.796 5.64 166.796 4.06 166.796 2.72H156.316V1.4H168.416V2.7C168.416 4.04 168.416 5.68 167.976 7.8H170.516V9.14ZM191.387 9.14H184.047V12.42H189.387V18.46H187.747V13.74H176.827V12.42H182.407V9.14H175.107V7.8H187.187C187.667 5.64 187.667 4.06 187.667 2.72H177.187V1.4H189.287V2.7C189.287 4.04 189.287 5.68 188.847 7.8H191.387V9.14ZM201.445 9.44L200.665 10.7C198.925 10 197.685 8.68 197.045 7.06C196.465 8.82 195.225 10.26 193.445 11L192.645 9.8C194.925 8.86 196.245 6.68 196.245 4.42V4.22H193.005V2.9H196.245V0.74H197.805V2.9H201.005V4.22H197.805V4.42C197.805 6.54 199.165 8.58 201.445 9.44ZM195.585 13.84V12.5H207.645V18.48H206.005V13.84H195.585ZM206.065 0.559999H207.645V11.56H206.065V6.68H203.805V11.44H202.265V0.859999H203.805V5.34H206.065V0.559999ZM215.216 6.18C215.216 7.96 216.516 9.24 218.276 9.24C220.016 9.24 221.316 7.96 221.316 6.18C221.316 4.4 220.016 3.12 218.276 3.12C216.516 3.12 215.216 4.4 215.216 6.18ZM226.496 4.68H222.636C222.796 5.14 222.876 5.64 222.876 6.18C222.876 6.7 222.796 7.2 222.636 7.66H226.496V4.68ZM226.496 8.98H221.956C221.116 10.04 219.816 10.68 218.276 10.68C215.636 10.68 213.656 8.8 213.656 6.18C213.656 3.56 215.636 1.68 218.276 1.68C219.816 1.68 221.096 2.32 221.936 3.36H226.496V0.559999H228.156V13.8H226.496V8.98ZM218.336 16.74H228.656V18.08H216.676V12.44H218.336V16.74ZM247.015 9.42V10.76H239.695V18.5H238.035V10.76H230.795V9.42H242.695C243.255 6.84 243.255 4.94 243.255 3.26V3.02H232.815V1.7H244.855V3.26C244.855 4.94 244.855 6.84 244.355 9.42H247.015ZM249.233 2.48H257.633C257.633 7.66 255.253 12.22 249.293 15.14L248.413 13.8C253.233 11.5 255.633 8.06 255.973 3.8H249.233V2.48ZM261.253 0.54H262.893V18.48H261.253V0.54ZM274.992 8.2L273.372 8.02C273.792 5.96 273.852 4.42 273.852 3.28H266.532V1.94H275.452V2.88C275.452 4.06 275.452 5.84 274.992 8.2ZM276.692 9.28L276.812 10.48C273.092 11.1 268.792 11.2 265.612 11.2L265.452 9.86C266.592 9.86 267.892 9.84 269.252 9.82V5.94H270.872V9.76C272.832 9.68 274.872 9.52 276.692 9.28ZM269.832 12.82V16.74H280.112V18.08H268.192V12.82H269.832ZM279.532 6.38H282.092V7.74H279.532V14.06H277.892V0.54H279.532V6.38ZM287.383 17V2.32H295.843V3.9H289.243V8.5H294.803V10.08H289.243V15.42H296.063V17H287.383ZM301.201 17V3.9H296.761V2.32H307.501V3.9H303.061V17H301.201ZM309.113 17V2.32H313.713C316.693 2.32 318.833 3.4 318.833 6.46C318.833 8.74 317.513 10.1 315.513 10.58L319.273 17H317.173L313.613 10.78H310.973V17H309.113ZM310.973 9.28H313.433C315.733 9.28 316.993 8.36 316.993 6.46C316.993 4.52 315.733 3.84 313.433 3.84H310.973V9.28ZM320.828 17V2.32H322.688V17H320.828ZM329.56 7.7L329.08 6.46C332.4 6.24 335.14 5.14 335.42 3.36H329.88V2.12H335.52V0.419999H337.16V2.12H342.78V3.36H337.26C337.54 5.14 340.24 6.24 343.58 6.46L343.08 7.7C340.08 7.46 337.44 6.54 336.34 4.88C335.24 6.54 332.58 7.46 329.56 7.7ZM344.42 9.76H337.16V11.42H342.36V15.34H331.82V17.04H342.9V18.28H330.22V14.16H340.74V12.64H330.16V11.42H335.5V9.76H328.24V8.5H344.42V9.76ZM360.339 0.54V13.7H358.699V0.54H360.339ZM356.419 9.48L355.559 10.78C353.519 10 351.939 8.38 351.139 6.34C350.379 8.52 348.759 10.26 346.659 11.14L345.799 9.8C348.499 8.76 350.299 6.16 350.299 3.36V1.54H351.939V3.36C351.939 6.06 353.759 8.5 356.419 9.48ZM350.439 16.74H360.879V18.08H348.799V12.48H350.439V16.74ZM368.33 6.18C368.33 7.96 369.63 9.24 371.39 9.24C373.13 9.24 374.43 7.96 374.43 6.18C374.43 4.4 373.13 3.12 371.39 3.12C369.63 3.12 368.33 4.4 368.33 6.18ZM379.61 4.68H375.75C375.91 5.14 375.99 5.64 375.99 6.18C375.99 6.7 375.91 7.2 375.75 7.66H379.61V4.68ZM379.61 8.98H375.07C374.23 10.04 372.93 10.68 371.39 10.68C368.75 10.68 366.77 8.8 366.77 6.18C366.77 3.56 368.75 1.68 371.39 1.68C372.93 1.68 374.21 2.32 375.05 3.36H379.61V0.559999H381.27V13.8H379.61V8.98ZM371.45 16.74H381.77V18.08H369.79V12.44H371.45V16.74ZM400.128 9.42V10.76H392.808V18.5H391.148V10.76H383.908V9.42H395.808C396.368 6.84 396.368 4.94 396.368 3.26V3.02H385.928V1.7H397.968V3.26C397.968 4.94 397.968 6.84 397.468 9.42H400.128ZM410.687 11.14H414.327V0.54H415.967V14.2H414.327V12.36H410.687V11.14ZM407.027 2.48C405.327 2.48 404.167 3.24 404.167 4.38C404.167 5.54 405.327 6.3 407.027 6.3C408.727 6.3 409.887 5.54 409.887 4.38C409.887 3.24 408.727 2.48 407.027 2.48ZM407.027 7.52C404.407 7.52 402.607 6.3 402.607 4.38C402.607 2.5 404.407 1.26 407.027 1.26C409.647 1.26 411.447 2.5 411.447 4.38C411.447 6.3 409.647 7.52 407.027 7.52ZM406.387 13.56V10.1C404.607 10.18 402.887 10.2 401.407 10.2L401.187 8.84C404.507 8.84 408.947 8.8 412.747 8.32L412.887 9.5C411.307 9.74 409.647 9.92 408.027 10.02V13.56H406.387ZM405.387 16.74H416.427V18.08H403.747V12.86H405.387V16.74ZM431.725 0.54H433.365V18.52H431.725V0.54ZM423.905 1.92C426.565 1.92 428.465 4.36 428.465 8.18C428.465 12 426.565 14.44 423.905 14.44C421.245 14.44 419.345 12 419.345 8.18C419.345 4.36 421.245 1.92 423.905 1.92ZM423.905 3.4C422.145 3.4 420.905 5.28 420.905 8.18C420.905 11.1 422.145 12.98 423.905 12.98C425.645 12.98 426.885 11.1 426.885 8.18C426.885 5.28 425.645 3.4 423.905 3.4ZM452.676 9.82V5.14H448.776V3.8H452.676V0.559999H454.336V9.82H452.676ZM450.036 8.16L449.196 9.44C447.216 8.74 445.656 7.32 444.876 5.5C444.116 7.52 442.496 9.08 440.396 9.86L439.536 8.56C442.236 7.64 444.016 5.38 444.016 2.78V1.12H445.636V2.78C445.636 5.12 447.456 7.3 450.036 8.16ZM444.436 16.94H455.016V18.24H442.816V13.78H452.716V12.02H442.776V10.72H454.336V15.02H444.436V16.94ZM467.855 8.12L468.035 9.44C465.095 9.92 462.655 10.02 459.335 10.02H457.895V5H464.375V2.74H457.835V1.42H465.995V6.26H459.495V8.68C462.675 8.68 465.015 8.58 467.855 8.12ZM470.055 16.9V14.7H461.675V16.9H470.055ZM470.055 13.42V11.3H471.675V18.24H460.055V11.3H461.675V13.42H470.055ZM470.035 0.559999H471.675V10.4H470.035V0.559999ZM484.993 2.74V4.06H474.413V2.74H478.873V0.54H480.513V2.74H484.993ZM476.973 8.38C476.973 9.64 478.073 10.44 479.693 10.44C481.313 10.44 482.433 9.64 482.433 8.38C482.433 7.14 481.313 6.34 479.693 6.34C478.073 6.34 476.973 7.14 476.973 8.38ZM483.993 8.38C483.993 10.4 482.233 11.72 479.693 11.72C477.153 11.72 475.413 10.4 475.413 8.38C475.413 6.38 477.153 5.06 479.693 5.06C482.233 5.06 483.993 6.38 483.993 8.38ZM478.753 12.94V16.74H489.073V18.08H477.113V12.94H478.753ZM488.273 6.46H490.913V7.84H488.273V14H486.633V0.54H488.273V6.46ZM496.284 2.48H504.684C504.684 7.66 502.304 12.22 496.344 15.14L495.464 13.8C500.284 11.5 502.684 8.06 503.024 3.8H496.284V2.48ZM508.304 0.54H509.944V18.48H508.304V0.54ZM525.763 16.92V14.6H517.543V16.92H525.763ZM525.763 13.32V11.04H527.403V18.24H515.923V11.04H517.543V13.32H525.763ZM517.523 8.32C519.303 8.32 520.583 7.16 520.583 5.52C520.583 3.88 519.303 2.74 517.523 2.74C515.743 2.74 514.463 3.88 514.463 5.52C514.463 7.16 515.743 8.32 517.523 8.32ZM525.743 0.559999H527.403V10.18H525.743V6.16H522.103C521.783 8.28 519.983 9.68 517.523 9.68C514.843 9.68 512.903 8 512.903 5.52C512.903 3.06 514.843 1.38 517.523 1.38C519.943 1.38 521.743 2.74 522.083 4.82H525.743V0.559999ZM543.101 0.559999H544.741V10.18H543.101V0.559999ZM533.181 11.06H534.801V13.26H543.121V11.06H544.741V18.24H533.181V11.06ZM534.801 14.54V16.92H543.121V14.54H534.801ZM535.101 1.4C537.821 1.4 539.801 3.08 539.801 5.52C539.801 8 537.821 9.66 535.101 9.66C532.401 9.66 530.441 8 530.441 5.52C530.441 3.08 532.401 1.4 535.101 1.4ZM535.101 2.76C533.321 2.76 532.041 3.9 532.041 5.52C532.041 7.16 533.321 8.3 535.101 8.3C536.921 8.3 538.201 7.16 538.201 5.52C538.201 3.9 536.921 2.76 535.101 2.76ZM550.179 2.28V12.44C552.879 12.44 555.659 12.2 558.639 11.6L558.819 13C555.699 13.64 552.879 13.84 550.019 13.84H548.539V2.28H550.179ZM560.479 0.54H562.119V18.46H560.479V0.54ZM567.218 3.62V12.64C570.398 12.64 572.698 12.5 575.298 12.04L575.478 13.4C572.738 13.92 570.378 14.04 566.998 14.04H565.578V2.26H573.918V3.62H567.218ZM581.578 7.62V8.98H578.618V18.52H576.978V0.54H578.618V7.62H581.578ZM583.936 17.26C583.216 17.26 582.616 16.7 582.616 15.88C582.616 15.04 583.216 14.46 583.936 14.46C584.656 14.46 585.256 15.04 585.256 15.88C585.256 16.7 584.656 17.26 583.936 17.26ZM9.64 44.2H13.18V39.56H14.84V50.24H13.18V45.54H9.64V44.2ZM10.64 48.28L9.82 49.56C7.82 48.84 6.28 47.36 5.5 45.52C4.74 47.6 3.08 49.28 0.98 50.08L0.12 48.78C2.8 47.8 4.64 45.38 4.64 42.8V42.18H0.64V40.86H10.22V42.18H6.28V42.8C6.28 45.1 8.04 47.36 10.64 48.28ZM8.92 56.2C11.62 56.2 13.26 55.44 13.26 54.14C13.26 52.84 11.62 52.06 8.92 52.06C6.22 52.06 4.58 52.84 4.58 54.14C4.58 55.44 6.22 56.2 8.92 56.2ZM8.92 50.8C12.6 50.8 14.9 52.02 14.9 54.14C14.9 56.26 12.6 57.48 8.92 57.48C5.24 57.48 2.94 56.26 2.94 54.14C2.94 52.02 5.24 50.8 8.92 50.8ZM22.7984 45.36V48.66H31.9584V45.36H22.7984ZM28.1984 53.84H35.5184V55.18H19.2584V53.84H26.5384V49.98H21.1784V40.82H22.7984V44.02H31.9584V40.82H33.5584V49.98H28.1984V53.84ZM41.9969 45.36V48.66H51.1569V45.36H41.9969ZM47.3969 53.84H54.7169V55.18H38.4569V53.84H45.7369V49.98H40.3769V40.82H41.9969V44.02H51.1569V40.82H52.7569V49.98H47.3969V53.84ZM73.0153 42.16V43.5H58.4553V42.16H64.9553V39.82H66.5953V42.16H73.0153ZM61.5353 48.12C61.5353 49.46 63.1553 50.26 65.7753 50.26C68.3553 50.26 69.9553 49.46 69.9553 48.12C69.9553 46.8 68.3553 46 65.7753 46C63.1553 46 61.5353 46.8 61.5353 48.12ZM66.5953 54.04H73.9153V55.38H57.6553V54.04H64.9553V51.52C61.7953 51.34 59.8753 50.12 59.8753 48.12C59.8753 45.96 62.1353 44.72 65.7753 44.72C69.3553 44.72 71.6153 45.96 71.6153 48.12C71.6153 50.12 69.7153 51.32 66.5953 51.52V54.04ZM91.3264 45.26H95.2464V39.56H96.9064V52.86H95.2464V46.6H91.3264V45.26ZM83.4064 40.98H91.3664C91.3664 45.64 89.0264 49.12 83.2664 51.04L82.5864 49.72C85.6064 48.76 87.5464 47.34 88.6264 45.62L82.7864 46.06L82.4864 44.72L89.2264 44.42C89.4664 43.76 89.6064 43.06 89.6664 42.32H83.4064V40.98ZM87.2664 55.74H97.4264V57.08H85.6264V51.54H87.2664V55.74ZM114.445 48.82V44.14H110.545V42.8H114.445V39.56H116.105V48.82H114.445ZM111.805 47.16L110.965 48.44C108.985 47.74 107.425 46.32 106.645 44.5C105.885 46.52 104.265 48.08 102.165 48.86L101.305 47.56C104.005 46.64 105.785 44.38 105.785 41.78V40.12H107.405V41.78C107.405 44.12 109.225 46.3 111.805 47.16ZM106.205 55.94H116.785V57.24H104.585V52.78H114.485V51.02H104.545V49.72H116.105V54.02H106.205V55.94ZM135.243 39.56V50.66H133.603V39.56H135.243ZM131.543 47.56L131.723 48.86C129.103 49.3 126.923 49.38 123.003 49.38H121.543V40.86H130.103V42.18H123.183V44.42H129.603V45.72H123.183V48.06C126.923 48.06 129.043 47.98 131.543 47.56ZM129.283 56.18C132.023 56.18 133.683 55.44 133.683 54.2C133.683 52.92 132.023 52.2 129.283 52.2C126.563 52.2 124.903 52.92 124.903 54.2C124.903 55.44 126.563 56.18 129.283 56.18ZM129.283 50.92C133.023 50.92 135.303 52.1 135.303 54.2C135.303 56.28 133.023 57.46 129.283 57.46C125.563 57.46 123.283 56.28 123.283 54.2C123.283 52.1 125.563 50.92 129.283 50.92ZM151.274 41.08V44.3C151.274 47.56 153.314 50.82 155.914 52.06L154.954 53.36C152.914 52.34 151.274 50.2 150.454 47.68C149.674 50.34 148.014 52.6 145.994 53.68L144.994 52.38C147.594 51.08 149.634 47.62 149.634 44.3V41.08H151.274ZM158.134 39.54H159.774V57.5H158.134V46.96H153.974V45.62H158.134V39.54ZM177.233 39.54H178.873V57.5H177.233V39.54ZM165.213 41.06H166.833V45.8H172.033V41.06H173.653V53.16H165.213V41.06ZM166.833 47.1V51.82H172.033V47.1H166.833ZM198.851 48.56L198.111 49.92C195.391 49.3 192.591 47.38 191.451 44.74C190.311 47.36 187.511 49.28 184.811 49.92L184.071 48.56C187.211 47.94 190.591 45.24 190.591 42.18V40.8H192.311V42.18C192.311 45.24 195.711 47.96 198.851 48.56ZM183.391 53.72H199.651V55.08H183.391V53.72ZM213.122 42.98V44.6C213.122 47.72 214.462 50.84 216.942 52.24L215.942 53.44C214.202 52.4 212.962 50.48 212.342 48.2C211.722 50.66 210.422 52.76 208.642 53.88L207.642 52.66C210.142 51.16 211.542 47.9 211.542 44.6V42.98H208.142V41.64H216.322V42.98H213.122ZM217.922 45.98V39.94H219.482V56.54H217.922V47.32H214.962V45.98H217.922ZM221.522 39.52H223.102V57.46H221.522V39.52ZM239.601 41.98V41.78H229.001V40.46H241.221V41.98C241.221 43.42 241.221 44.88 240.721 46.72L239.121 46.54C239.601 44.7 239.601 43.38 239.601 41.98ZM235.101 56.18C237.921 56.18 239.721 55.42 239.721 54.18C239.721 52.9 237.921 52.14 235.101 52.14C232.301 52.14 230.501 52.9 230.501 54.18C230.501 55.42 232.301 56.18 235.101 56.18ZM235.101 50.88C238.921 50.88 241.361 52.1 241.361 54.18C241.361 56.22 238.921 57.46 235.101 57.46C231.281 57.46 228.861 56.22 228.861 54.18C228.861 52.1 231.281 50.88 235.101 50.88ZM235.361 47.9H243.241V49.22H227.101V47.9H233.721V44.46H235.361V47.9ZM266.232 39.54V49.84H264.592V39.54H266.232ZM259.252 46.72V42H254.072V46.72H259.252ZM260.852 40.7V48.04H252.472V40.7H260.852ZM266.652 52.32H261.412C261.432 54.04 264.212 55.78 267.292 56.16L266.732 57.42C264.032 57.04 261.632 55.8 260.572 54.14C259.492 55.84 257.012 57.04 254.312 57.42L253.772 56.16C256.832 55.8 259.692 54.1 259.712 52.32H254.472V51.06H259.732V49.32H261.392V51.06H266.652V52.32ZM279.543 45.36V48.66H288.703V45.36H279.543ZM284.943 53.84H292.263V55.18H276.003V53.84H283.283V49.98H277.923V40.82H279.543V44.02H288.703V40.82H290.303V49.98H284.943V53.84ZM297.141 45.22C297.141 46.98 298.461 48.22 300.221 48.22C301.981 48.22 303.301 46.98 303.301 45.22C303.301 43.46 301.981 42.22 300.221 42.22C298.461 42.22 297.141 43.46 297.141 45.22ZM304.901 45.22C304.901 47.82 302.901 49.64 300.221 49.64C297.541 49.64 295.541 47.82 295.541 45.22C295.541 42.62 297.541 40.8 300.221 40.8C302.901 40.8 304.901 42.62 304.901 45.22ZM299.601 51.4V55.74H309.921V57.08H297.961V51.4H299.601ZM309.121 45H311.761V46.36H309.121V52.74H307.481V39.54H309.121V45ZM329.7 44.7L329.14 45.98C326.3 45.6 323.64 44.36 322.5 42.44C321.38 44.36 318.7 45.6 315.86 45.98L315.3 44.7C318.6 44.34 321.66 42.64 321.66 40.34V39.68H323.34V40.34C323.34 42.64 326.4 44.34 329.7 44.7ZM318 54.26V56H329.08V57.28H316.4V53.06H326.92V51.4H316.34V50.16H328.54V54.26H318ZM323.32 47.36H330.62V48.68H314.38V47.36H321.68V45.04H323.32V47.36ZM346.238 43.68V41.56H335.518V40.26H347.898V44.94H337.218V47.24H348.298V48.58H335.578V43.68H346.238ZM349.858 50.42V51.76H342.518V57.5H340.878V51.76H333.578V50.42H349.858ZM365.917 52.94V47.22H362.297V45.88H365.917V43.52H362.297V42.2H365.917V39.54H367.577V52.94H365.917ZM363.257 48.96L362.357 50.26C360.417 49.44 358.897 47.82 358.117 45.82C357.377 47.98 355.797 49.7 353.697 50.56L352.817 49.26C355.497 48.22 357.297 45.66 357.297 42.84V40.54H358.937V42.84C358.937 45.48 360.677 47.94 363.257 48.96ZM357.677 55.74H367.997V57.08H356.037V51.58H357.677V55.74ZM380.095 41.08C377.155 41.08 375.475 41.76 375.475 42.96C375.475 44.16 377.155 44.84 380.095 44.84C383.035 44.84 384.715 44.16 384.715 42.96C384.715 41.76 383.035 41.08 380.095 41.08ZM380.095 46.06C376.155 46.06 373.795 44.98 373.795 42.96C373.795 40.94 376.155 39.84 380.095 39.84C384.035 39.84 386.395 40.94 386.395 42.96C386.395 44.98 384.035 46.06 380.095 46.06ZM375.595 54.18V56H386.675V57.28H373.995V52.98H384.515V51.38H373.935V50.14H386.135V54.18H375.595ZM371.975 47.28H388.215V48.6H371.975V47.28ZM397.146 41.86H404.146C404.146 46.48 402.526 50.76 397.426 53.64L396.466 52.46C400.586 50.16 402.286 46.92 402.526 43.2H397.146V41.86ZM410.106 39.54H411.686V57.48H410.106V48.1H407.666V56.58H406.126V40.02H407.666V46.76H410.106V39.54ZM423.105 46.8V44.12H418.025V46.8H423.105ZM424.705 40.28V48.12H416.405V40.28H418.025V42.86H423.105V40.28H424.705ZM419.845 54.02V55.98H430.245V57.28H418.245V52.8H427.965V50.96H418.185V49.66H429.585V54.02H419.845ZM429.585 43.4H432.245V44.76H429.585V48.82H427.945V39.56H429.585V43.4ZM444.596 50.12C443.876 50.12 443.276 49.54 443.276 48.74C443.276 47.9 443.876 47.32 444.596 47.32C445.316 47.32 445.916 47.9 445.916 48.74C445.916 49.54 445.316 50.12 444.596 50.12ZM469.959 41.98V41.78H459.359V40.46H471.579V41.98C471.579 43.42 471.579 44.88 471.079 46.72L469.479 46.54C469.959 44.7 469.959 43.38 469.959 41.98ZM465.459 56.18C468.279 56.18 470.079 55.42 470.079 54.18C470.079 52.9 468.279 52.14 465.459 52.14C462.659 52.14 460.859 52.9 460.859 54.18C460.859 55.42 462.659 56.18 465.459 56.18ZM465.459 50.88C469.279 50.88 471.719 52.1 471.719 54.18C471.719 56.22 469.279 57.46 465.459 57.46C461.639 57.46 459.219 56.22 459.219 54.18C459.219 52.1 461.639 50.88 465.459 50.88ZM465.719 47.9H473.599V49.22H457.459V47.9H464.079V44.46H465.719V47.9ZM489.158 55.92V53.46H480.338V55.92H489.158ZM489.158 52.18V49.82H490.778V57.24H478.718V49.82H480.338V52.18H489.158ZM490.318 46.86H492.898V48.2H476.598V46.86H488.678C489.178 44.66 489.178 43.06 489.178 41.7H478.678V40.36H490.798V41.66C490.798 43.04 490.798 44.64 490.318 46.86ZM501.076 52.12C502.716 52.12 503.896 50.96 503.896 49.36C503.896 47.74 502.716 46.58 501.076 46.58C499.456 46.58 498.276 47.74 498.276 49.36C498.276 50.96 499.456 52.12 501.076 52.12ZM501.076 45.22C503.636 45.22 505.456 46.94 505.456 49.36C505.456 51.8 503.636 53.48 501.076 53.48C498.556 53.48 496.736 51.8 496.736 49.36C496.736 46.94 498.556 45.22 501.076 45.22ZM501.876 39.76V42.42H506.296V43.74H495.716V42.42H500.236V39.76H501.876ZM512.576 46.92V48.3H509.636V57.48H507.996V39.56H509.636V46.92H512.576ZM527.675 43.12V42.68H516.735V41.34H529.315V43.12C529.315 45.34 529.315 47.8 528.635 51.42L526.995 51.24C527.675 47.8 527.675 45.28 527.675 43.12ZM522.975 53.62H531.255V54.96H515.035V53.62H521.335V47.2H522.975V53.62ZM554.206 39.56V49.8H552.566V39.56H554.206ZM544.566 41.96C542.786 41.96 541.506 43.14 541.506 44.78C541.506 46.44 542.786 47.6 544.566 47.6C546.346 47.6 547.666 46.44 547.666 44.78C547.666 43.14 546.346 41.96 544.566 41.96ZM544.566 48.96C541.866 48.96 539.906 47.26 539.906 44.78C539.906 42.3 541.866 40.6 544.566 40.6C547.286 40.6 549.266 42.3 549.266 44.78C549.266 47.26 547.286 48.96 544.566 48.96ZM552.206 50.58V51.54C552.206 53.4 553.526 55.24 555.806 56L554.986 57.24C553.226 56.6 551.986 55.36 551.386 53.86C550.826 55.32 549.726 56.68 548.066 57.4C546.346 56.72 545.266 55.42 544.726 53.92C544.086 55.36 542.866 56.6 541.186 57.24L540.366 56C542.626 55.2 543.966 53.26 543.966 51.54V50.58H545.546V51.54C545.546 53.12 546.366 54.82 548.026 55.8C549.746 54.74 550.606 52.94 550.606 51.54V50.58H552.206ZM566.784 40.66C570.504 40.66 573.304 42.64 573.304 45.62C573.304 48.62 570.504 50.58 566.784 50.58C563.064 50.58 560.264 48.62 560.264 45.62C560.264 42.64 563.064 40.66 566.784 40.66ZM566.784 42C563.964 42 561.824 43.46 561.824 45.62C561.824 47.8 563.964 49.24 566.784 49.24C569.624 49.24 571.744 47.8 571.744 45.62C571.744 43.46 569.624 42 566.784 42ZM558.664 53.74H574.964V55.1H558.664V53.74ZM586.763 48.78H591.023V45.18H586.763V48.78ZM585.143 51.64V42.6H580.203V51.64H585.143ZM591.023 39.54H592.663V57.52H591.023V50.12H586.763V52.94H578.603V41.3H586.763V43.84H591.023V39.54ZM9.64 83.2H13.18V78.56H14.84V89.24H13.18V84.54H9.64V83.2ZM10.64 87.28L9.82 88.56C7.82 87.84 6.28 86.36 5.5 84.52C4.74 86.6 3.08 88.28 0.98 89.08L0.12 87.78C2.8 86.8 4.64 84.38 4.64 81.8V81.18H0.64V79.86H10.22V81.18H6.28V81.8C6.28 84.1 8.04 86.36 10.64 87.28ZM8.92 95.2C11.62 95.2 13.26 94.44 13.26 93.14C13.26 91.84 11.62 91.06 8.92 91.06C6.22 91.06 4.58 91.84 4.58 93.14C4.58 94.44 6.22 95.2 8.92 95.2ZM8.92 89.8C12.6 89.8 14.9 91.02 14.9 93.14C14.9 95.26 12.6 96.48 8.92 96.48C5.24 96.48 2.94 95.26 2.94 93.14C2.94 91.02 5.24 89.8 8.92 89.8ZM21.0984 84.36V87.66H30.2584V84.36H21.0984ZM26.4984 92.84H33.8184V94.18H17.5584V92.84H24.8384V88.98H19.4784V79.82H21.0984V83.02H30.2584V79.82H31.8584V88.98H26.4984V92.84ZM38.5969 84.36V87.66H47.7569V84.36H38.5969ZM43.9969 92.84H51.3169V94.18H35.0569V92.84H42.3369V88.98H36.9769V79.82H38.5969V83.02H47.7569V79.82H49.3569V88.98H43.9969V92.84ZM54.4953 84.22C54.4953 85.98 55.8153 87.22 57.5753 87.22C59.3353 87.22 60.6553 85.98 60.6553 84.22C60.6553 82.46 59.3353 81.22 57.5753 81.22C55.8153 81.22 54.4953 82.46 54.4953 84.22ZM62.2553 84.22C62.2553 86.82 60.2553 88.64 57.5753 88.64C54.8953 88.64 52.8953 86.82 52.8953 84.22C52.8953 81.62 54.8953 79.8 57.5753 79.8C60.2553 79.8 62.2553 81.62 62.2553 84.22ZM56.9553 90.4V94.74H67.2753V96.08H55.3153V90.4H56.9553ZM66.4753 84H69.1153V85.36H66.4753V91.74H64.8353V78.54H66.4753V84ZM74.6864 80.48H83.0864C83.0864 85.66 80.7064 90.22 74.7464 93.14L73.8664 91.8C78.6864 89.5 81.0864 86.06 81.4264 81.8H74.6864V80.48ZM86.7064 78.54H88.3464V96.48H86.7064V78.54ZM106.465 83.6L105.905 84.84C103.065 84.48 100.365 83.22 99.2448 81.3C98.1048 83.22 95.4048 84.48 92.5448 84.84L91.9848 83.6C95.2448 83.24 98.4048 81.48 98.4048 79.3V78.62H100.085V79.3C100.085 81.48 103.205 83.24 106.465 83.6ZM107.345 87.34H100.045V89.12H105.265V93.22H94.7248V95H105.805V96.28H93.1248V92.02H103.645V90.38H93.0648V89.12H98.4048V87.34H91.1048V86.02H107.345V87.34ZM114.663 81.74V84.02C114.663 86.88 116.703 90.06 119.303 91.28L118.363 92.6C116.363 91.6 114.683 89.5 113.863 87.1C113.043 89.72 111.303 92 109.283 93.04L108.323 91.74C110.883 90.46 113.043 87.06 113.043 84.02V81.74H108.943V80.38H118.643V81.74H114.663ZM125.383 85.78V87.16H122.423V96.48H120.783V78.56H122.423V85.78H125.383ZM128.322 83.92C128.322 85.62 129.642 86.74 131.482 86.74C133.302 86.74 134.622 85.62 134.622 83.92C134.622 82.24 133.302 81.08 131.482 81.08C129.642 81.08 128.322 82.24 128.322 83.92ZM132.302 88.08V91.12C133.942 91.04 135.602 90.94 137.142 90.72L137.282 91.92C133.482 92.56 129.302 92.62 126.142 92.62L125.922 91.24C127.342 91.24 128.982 91.22 130.662 91.18V88.08C128.322 87.8 126.722 86.16 126.722 83.92C126.722 81.4 128.702 79.7 131.482 79.7C134.222 79.7 136.222 81.4 136.222 83.92C136.222 86.16 134.602 87.78 132.302 88.08ZM142.762 85.94V87.32H139.922V96.48H138.282V78.52H139.922V85.94H142.762ZM149.033 84.18C149.033 85.96 150.333 87.24 152.093 87.24C153.833 87.24 155.133 85.96 155.133 84.18C155.133 82.4 153.833 81.12 152.093 81.12C150.333 81.12 149.033 82.4 149.033 84.18ZM160.313 82.68H156.453C156.613 83.14 156.693 83.64 156.693 84.18C156.693 84.7 156.613 85.2 156.453 85.66H160.313V82.68ZM160.313 86.98H155.773C154.933 88.04 153.633 88.68 152.093 88.68C149.453 88.68 147.473 86.8 147.473 84.18C147.473 81.56 149.453 79.68 152.093 79.68C153.633 79.68 154.913 80.32 155.753 81.36H160.313V78.56H161.973V91.8H160.313V86.98ZM152.153 94.74H162.473V96.08H150.493V90.44H152.153V94.74ZM180.931 87.42V88.76H173.611V96.5H171.951V88.76H164.711V87.42H176.611C177.171 84.84 177.171 82.94 177.171 81.26V81.02H166.731V79.7H178.771V81.26C178.771 82.94 178.771 84.84 178.271 87.42H180.931ZM197.67 87.3L196.97 88.66C194.23 88.08 191.41 86.22 190.25 83.66C189.09 86.22 186.29 88.08 183.53 88.66L182.85 87.3C185.99 86.74 189.39 84.1 189.39 81.12V79.74H191.11V81.12C191.11 84.1 194.53 86.74 197.67 87.3ZM191.07 92.8H198.47V94.14H182.19V92.8H189.43V88.44H191.07V92.8ZM212.248 81.68V80.22H201.728V79.06H213.868V82.8H203.388V84.34H214.188V85.52H201.768V81.68H212.248ZM203.288 93.4V95.06H214.488V96.24H201.668V92.26H212.308V90.76H201.628V89.58H213.928V93.4H203.288ZM199.688 86.88H215.948V88.12H199.688V86.88ZM224.299 84.36V87.66H233.459V84.36H224.299ZM229.699 92.84H237.019V94.18H220.759V92.84H228.039V88.98H222.679V79.82H224.299V83.02H233.459V79.82H235.059V88.98H229.699V92.84ZM246.338 80.58C243.618 80.58 241.758 81.58 241.758 83.16C241.758 84.74 243.618 85.76 246.338 85.76C249.078 85.76 250.938 84.74 250.938 83.16C250.938 81.58 249.078 80.58 246.338 80.58ZM246.338 87.08C242.618 87.08 240.078 85.56 240.078 83.16C240.078 80.76 242.618 79.26 246.338 79.26C250.078 79.26 252.618 80.76 252.618 83.16C252.618 85.56 250.078 87.08 246.338 87.08ZM254.498 88.76V90.1H250.258V96.48H248.598V90.1H244.098V96.48H242.438V90.1H238.258V88.76H254.498ZM266.396 80.74V82.06H255.816V80.74H260.276V78.54H261.916V80.74H266.396ZM258.376 86.38C258.376 87.64 259.476 88.44 261.096 88.44C262.716 88.44 263.836 87.64 263.836 86.38C263.836 85.14 262.716 84.34 261.096 84.34C259.476 84.34 258.376 85.14 258.376 86.38ZM265.396 86.38C265.396 88.4 263.636 89.72 261.096 89.72C258.556 89.72 256.816 88.4 256.816 86.38C256.816 84.38 258.556 83.06 261.096 83.06C263.636 83.06 265.396 84.38 265.396 86.38ZM260.156 90.94V94.74H270.476V96.08H258.516V90.94H260.156ZM269.676 84.46H272.316V85.84H269.676V92H268.036V78.54H269.676V84.46ZM280.427 92.86V94.96H291.507V96.26H278.807V91.62H289.427V89.64H278.747V88.34H291.067V92.86H280.427ZM290.607 85.22H293.107V86.54H276.827V85.22H288.967C289.367 83.24 289.387 81.8 289.387 80.62H278.907V79.3H291.007V80.44C291.007 81.66 291.007 83.2 290.607 85.22ZM303.266 92.92H310.606V94.26H294.306V92.92H301.606V89.54H296.346V84H306.986V81.2H296.306V79.86H308.586V85.32H297.966V88.22H309.006V89.54H303.266V92.92ZM319.184 85.86V83.2H314.344V85.86H319.184ZM320.804 83.88V87.16H312.724V79.38H314.344V81.94H319.184V79.38H320.804V82.56H324.944V78.56H326.584V87.88H324.944V83.88H320.804ZM316.684 94.94H327.264V96.24H315.064V91.8H324.964V90.04H315.024V88.76H326.584V93.02H316.684V94.94ZM342.475 83.2H346.015V78.56H347.675V89.24H346.015V84.54H342.475V83.2ZM343.475 87.28L342.655 88.56C340.655 87.84 339.115 86.36 338.335 84.52C337.575 86.6 335.915 88.28 333.815 89.08L332.955 87.78C335.635 86.8 337.475 84.38 337.475 81.8V81.18H333.475V79.86H343.055V81.18H339.115V81.8C339.115 84.1 340.875 86.36 343.475 87.28ZM341.755 95.2C344.455 95.2 346.095 94.44 346.095 93.14C346.095 91.84 344.455 91.06 341.755 91.06C339.055 91.06 337.415 91.84 337.415 93.14C337.415 94.44 339.055 95.2 341.755 95.2ZM341.755 89.8C345.435 89.8 347.735 91.02 347.735 93.14C347.735 95.26 345.435 96.48 341.755 96.48C338.075 96.48 335.775 95.26 335.775 93.14C335.775 91.02 338.075 89.8 341.755 89.8ZM353.934 84.36V87.66H363.094V84.36H353.934ZM359.334 92.84H366.654V94.18H350.394V92.84H357.674V88.98H352.314V79.82H353.934V83.02H363.094V79.82H364.694V88.98H359.334V92.84ZM371.432 84.36V87.66H380.592V84.36H371.432ZM376.832 92.84H384.152V94.18H367.892V92.84H375.172V88.98H369.812V79.82H371.432V83.02H380.592V79.82H382.192V88.98H376.832V92.84ZM400.75 81.16V82.5H386.19V81.16H392.69V78.82H394.33V81.16H400.75ZM389.27 87.12C389.27 88.46 390.89 89.26 393.51 89.26C396.09 89.26 397.69 88.46 397.69 87.12C397.69 85.8 396.09 85 393.51 85C390.89 85 389.27 85.8 389.27 87.12ZM394.33 93.04H401.65V94.38H385.39V93.04H392.69V90.52C389.53 90.34 387.61 89.12 387.61 87.12C387.61 84.96 389.87 83.72 393.51 83.72C397.09 83.72 399.35 84.96 399.35 87.12C399.35 89.12 397.45 90.32 394.33 90.52V93.04ZM412.742 80.08V83.3C412.742 86.56 414.782 89.82 417.382 91.06L416.422 92.36C414.382 91.34 412.742 89.2 411.922 86.68C411.142 89.34 409.482 91.6 407.462 92.68L406.462 91.38C409.062 90.08 411.102 86.62 411.102 83.3V80.08H412.742ZM419.602 78.54H421.242V96.5H419.602V85.96H415.442V84.62H419.602V78.54ZM437 78.54H438.64V96.5H437V78.54ZM424.98 80.06H426.6V84.8H431.8V80.06H433.42V92.16H424.98V80.06ZM426.6 86.1V90.82H431.8V86.1H426.6ZM456.918 87.56L456.178 88.92C453.458 88.3 450.658 86.38 449.518 83.74C448.378 86.36 445.578 88.28 442.878 88.92L442.138 87.56C445.278 86.94 448.658 84.24 448.658 81.18V79.8H450.378V81.18C450.378 84.24 453.778 86.96 456.918 87.56ZM441.458 92.72H457.718V94.08H441.458V92.72ZM472.05 83.5H475.65V78.56H477.31V91.7H475.65V84.84H472.05V83.5ZM473.11 87.72L472.29 89C470.29 88.28 468.75 86.78 467.97 84.94C467.19 86.98 465.55 88.64 463.45 89.4L462.59 88.12C465.25 87.16 467.11 84.78 467.11 82.24V81.34H463.11V80H472.69V81.34H468.75V82.22C468.75 84.56 470.51 86.8 473.11 87.72ZM467.49 94.74H477.81V96.08H465.83V90.54H467.49V94.74ZM492.548 84.36V80.7H483.708V84.36H492.548ZM494.168 79.38V85.68H482.108V79.38H494.168ZM483.708 90.96V94.74H494.468V96.08H482.068V90.96H483.708ZM479.988 87.72H496.288V89.04H489.088V92.66H487.448V89.04H479.988V87.72ZM498.586 80.48H506.986C506.986 85.66 504.606 90.22 498.646 93.14L497.766 91.8C502.586 89.5 504.986 86.06 505.326 81.8H498.586V80.48ZM510.606 78.54H512.246V96.48H510.606V78.54ZM528.165 94.92V92.6H519.945V94.92H528.165ZM528.165 91.32V89.04H529.805V96.24H518.325V89.04H519.945V91.32H528.165ZM519.925 86.32C521.705 86.32 522.985 85.16 522.985 83.52C522.985 81.88 521.705 80.74 519.925 80.74C518.145 80.74 516.865 81.88 516.865 83.52C516.865 85.16 518.145 86.32 519.925 86.32ZM528.145 78.56H529.805V88.18H528.145V84.16H524.505C524.185 86.28 522.385 87.68 519.925 87.68C517.245 87.68 515.305 86 515.305 83.52C515.305 81.06 517.245 79.38 519.925 79.38C522.345 79.38 524.145 80.74 524.485 82.82H528.145V78.56ZM549.176 78.56H550.816V88.18H549.176V78.56ZM539.256 89.06H540.876V91.26H549.196V89.06H550.816V96.24H539.256V89.06ZM540.876 92.54V94.92H549.196V92.54H540.876ZM541.176 79.4C543.896 79.4 545.876 81.08 545.876 83.52C545.876 86 543.896 87.66 541.176 87.66C538.476 87.66 536.516 86 536.516 83.52C536.516 81.08 538.476 79.4 541.176 79.4ZM541.176 80.76C539.396 80.76 538.116 81.9 538.116 83.52C538.116 85.16 539.396 86.3 541.176 86.3C542.996 86.3 544.276 85.16 544.276 83.52C544.276 81.9 542.996 80.76 541.176 80.76ZM556.354 80.28V90.44C559.054 90.44 561.834 90.2 564.814 89.6L564.994 91C561.874 91.64 559.054 91.84 556.194 91.84H554.714V80.28H556.354ZM566.654 78.54H568.294V96.46H566.654V78.54ZM573.493 81.62V90.64C576.673 90.64 578.973 90.5 581.573 90.04L581.753 91.4C579.013 91.92 576.653 92.04 573.273 92.04H571.853V80.26H580.193V81.62H573.493ZM587.853 85.62V86.98H584.893V96.52H583.253V78.54H584.893V85.62H587.853ZM590.311 95.26C589.591 95.26 588.991 94.7 588.991 93.88C588.991 93.04 589.591 92.46 590.311 92.46C591.031 92.46 591.631 93.04 591.631 93.88C591.631 94.7 591.031 95.26 590.311 95.26Z" fill="black" fill-opacity="0.8"/>
</svg>
