<svg width="296" height="243" viewBox="0 0 296 243" fill="none" xmlns="http://www.w3.org/2000/svg">
<path d="M147.058 1.28707C147.058 1.28717 147.058 1.28726 147.058 1.28736C141.905 5.7121 132.321 12.3058 120.33 17.6511C108.271 23.0268 93.8875 27.091 79.2055 26.5001L77.6642 26.4381L77.459 26.4298L77.4562 26.6352L77.4352 28.187C77.1818 46.8017 81.3541 76.4877 92.1894 106.087C103.022 135.677 120.592 165.396 147.288 183.814L147.301 183.795C147.389 183.843 147.485 183.89 147.583 183.933C147.797 184.027 148.051 184.115 148.254 184.115C148.619 184.115 148.957 183.999 149.234 183.803C175.928 165.378 193.492 135.281 204.32 105.325C215.154 75.3498 219.327 45.2883 219.073 26.6753L219.052 25.1235L219.049 24.9181L218.844 24.9264L217.303 24.9884C202.594 25.5804 188.194 21.879 176.137 16.8777C164.079 11.8756 154.475 5.61964 149.369 1.21792C149.071 0.957782 148.681 0.8 148.254 0.8C147.861 0.8 147.437 0.995015 147.147 1.215L147.145 1.21234L147.145 1.21247C147.118 1.23537 147.092 1.25833 147.065 1.28135C147.064 1.28201 147.063 1.28266 147.063 1.28332C147.061 1.28457 147.06 1.28582 147.058 1.28707ZM121.71 20.7807C132.161 16.1218 140.859 10.5283 146.552 6.10434V88.4781H90.0327C83.5575 65.9555 80.8498 44.6869 80.8295 29.9705C95.5741 30.2125 109.825 26.0787 121.71 20.7807ZM95.385 104.905C93.7941 100.559 92.3493 96.2125 91.0432 91.9015H146.552V179.093C122.138 161.119 105.717 133.13 95.385 104.905ZM201.12 104.155C190.785 132.749 174.363 161.095 149.957 179.09V91.9015H205.186C203.953 95.9668 202.599 100.061 201.12 104.155Z" fill="black" fill-opacity="0.8" stroke="black" stroke-width="0.4"/>
<mask id="path-2-outside-1_239_9516" maskUnits="userSpaceOnUse" x="0" y="205.711" width="296" height="37" fill="black">
<rect fill="white" y="205.711" width="296" height="37"/>
<path d="M32.6702 210.231L29.313 216.325L28.6556 215.971C28.9217 215.262 29.0547 214.821 29.0547 214.648C29.0547 214.176 28.4756 213.664 27.3175 213.113C24.1716 211.632 20.8379 210.892 17.3164 210.892C14.4209 210.892 11.9011 211.436 9.75685 212.522C8.72387 213.058 7.90217 213.75 7.29179 214.601C6.69704 215.451 6.39966 216.349 6.39966 217.293C6.39966 218.081 6.63441 218.829 7.10398 219.537C7.57348 220.23 8.19171 220.75 8.95862 221.096C9.80379 221.49 10.7976 221.766 11.9402 221.923C13.0984 222.065 14.9765 222.175 17.5746 222.254C21.1744 222.364 23.749 222.537 25.2985 222.773C26.8479 222.994 28.1235 223.388 29.1252 223.954C31.7858 225.45 33.1162 227.726 33.1162 230.781C33.1162 233.694 31.9111 236.079 29.5008 237.937C26.8245 240.016 23.1386 241.055 18.4432 241.055C15.7356 241.055 13.3723 240.78 11.3533 240.229C9.33425 239.678 6.92398 238.662 4.12242 237.181C3.33985 236.82 2.87813 236.638 2.73728 236.638C2.5025 236.638 2.13471 236.922 1.63387 237.489L1 237.087L4.52152 231.159L5.17887 231.536C4.88149 232.166 4.7328 232.591 4.7328 232.812C4.7328 233.316 5.7345 234.095 7.73783 235.15C9.53772 236.095 11.2672 236.78 12.9262 237.205C14.6009 237.615 16.4164 237.819 18.3728 237.819C22.3326 237.819 25.3376 236.945 27.3879 235.197C28.7496 234.032 29.4305 232.646 29.4305 231.04C29.4305 228.93 28.2644 227.474 25.9323 226.671C25.1811 226.403 24.3985 226.238 23.5847 226.175C22.7864 226.096 20.5014 225.986 16.7294 225.844C14.0374 225.734 11.9245 225.529 10.3907 225.23C8.87256 224.931 7.51873 224.442 6.32922 223.765C5.21799 223.135 4.3337 222.254 3.67635 221.12C3.03466 219.986 2.71381 218.75 2.71381 217.412C2.71381 215.128 3.55898 213.168 5.2493 211.53C6.50138 210.333 8.23086 209.396 10.4377 208.719C12.6445 208.026 15.0626 207.68 17.692 207.68C19.8362 207.68 21.8239 207.893 23.6551 208.318C25.5019 208.743 27.5835 209.475 29.8999 210.514C30.4164 210.735 30.7374 210.845 30.8624 210.845C31.1443 210.845 31.5277 210.53 32.0127 209.9L32.6702 210.231ZM50.9633 225.442V237.418H71.5054C72.1629 237.418 72.6245 237.315 72.8907 237.111C73.1723 236.906 73.3835 236.504 73.5245 235.906H74.2757V242H73.5479C73.3913 241.402 73.1723 241 72.8907 240.796C72.6245 240.591 72.1629 240.488 71.5054 240.488H45.7748V239.733C46.3852 239.575 46.7845 239.363 46.9723 239.095C47.1758 238.827 47.2774 238.363 47.2774 237.701V211.034C47.2774 210.373 47.1758 209.908 46.9723 209.641C46.7689 209.373 46.3695 209.16 45.7748 209.003V208.247H71.2004C71.8576 208.247 72.3195 208.145 72.5854 207.94C72.8513 207.735 73.0629 207.326 73.2192 206.711H73.9704V212.806H73.2192C73.0785 212.223 72.867 211.829 72.5854 211.624C72.3195 211.42 71.8576 211.318 71.2004 211.318H50.9633V222.372H64.2275C64.885 222.372 65.3466 222.269 65.6128 222.065C65.8944 221.86 66.1057 221.458 66.2466 220.86H66.9978V226.954H66.2466C66.1057 226.356 65.8944 225.954 65.6128 225.749C65.3466 225.545 64.885 225.442 64.2275 225.442H50.9633ZM92.7801 225.986V238.008C92.7801 238.496 92.8898 238.866 93.1088 239.119C93.3279 239.37 93.7192 239.575 94.2826 239.733V240.488H87.5916V239.733C88.1551 239.575 88.5466 239.37 88.7657 239.119C88.9847 238.866 89.0941 238.496 89.0941 238.008V210.703C89.0941 210.231 88.9847 209.869 88.7657 209.617C88.5466 209.365 88.1551 209.16 87.5916 209.003V208.247H104.448C106.811 208.247 108.651 208.373 109.965 208.625C111.28 208.877 112.454 209.333 113.487 209.995C114.567 210.656 115.435 211.562 116.092 212.711C116.828 214.002 117.196 215.451 117.196 217.057C117.196 219.262 116.523 221.151 115.177 222.726C114.144 223.938 112.829 224.789 111.233 225.277C109.652 225.749 107.391 225.986 104.448 225.986H92.7801ZM92.7801 222.915H104.8C106.585 222.915 107.907 222.844 108.768 222.702C109.644 222.561 110.427 222.285 111.116 221.876C112.712 220.931 113.51 219.348 113.51 217.128C113.51 214.892 112.712 213.302 111.116 212.357C110.427 211.947 109.652 211.672 108.791 211.53C107.931 211.388 106.6 211.318 104.8 211.318H92.7801V222.915ZM156.689 225.442H134.738V237.701C134.738 238.363 134.832 238.827 135.02 239.095C135.223 239.363 135.63 239.575 136.24 239.733V240.488H129.55V239.733C130.16 239.575 130.559 239.363 130.747 239.095C130.95 238.827 131.052 238.363 131.052 237.701V211.034C131.052 210.373 130.95 209.908 130.747 209.641C130.543 209.357 130.144 209.144 129.55 209.003V208.247H136.24V209.003C135.646 209.16 135.247 209.373 135.043 209.641C134.84 209.908 134.738 210.373 134.738 211.034V222.372H156.689V211.034C156.689 210.373 156.587 209.908 156.383 209.641C156.18 209.357 155.781 209.144 155.186 209.003V208.247H161.877V209.003C161.282 209.16 160.883 209.373 160.68 209.641C160.476 209.908 160.375 210.373 160.375 211.034V237.701C160.375 238.347 160.476 238.811 160.68 239.095C160.883 239.363 161.282 239.575 161.877 239.733V240.488H155.186V239.733C155.781 239.575 156.18 239.363 156.383 239.095C156.587 238.827 156.689 238.363 156.689 237.701V225.442ZM181.344 225.442V237.418H201.886C202.544 237.418 203.005 237.315 203.271 237.111C203.553 236.906 203.764 236.504 203.905 235.906H204.656V242H203.929C203.772 241.402 203.553 241 203.271 240.796C203.005 240.591 202.544 240.488 201.886 240.488H176.156V239.733C176.766 239.575 177.165 239.363 177.353 239.095C177.556 238.827 177.658 238.363 177.658 237.701V211.034C177.658 210.373 177.556 209.908 177.353 209.641C177.15 209.373 176.75 209.16 176.156 209.003V208.247H201.581C202.238 208.247 202.7 208.145 202.966 207.94C203.232 207.735 203.444 207.326 203.6 206.711H204.351V212.806H203.6C203.459 212.223 203.248 211.829 202.966 211.624C202.7 211.42 202.238 211.318 201.581 211.318H181.344V222.372H194.608C195.266 222.372 195.727 222.269 195.993 222.065C196.275 221.86 196.486 221.458 196.627 220.86H197.379V226.954H196.627C196.486 226.356 196.275 225.954 195.993 225.749C195.727 225.545 195.266 225.442 194.608 225.442H181.344ZM223.161 225.962V237.701C223.161 238.347 223.263 238.811 223.466 239.095C223.669 239.363 224.069 239.575 224.663 239.733V240.488H217.973V239.733C218.567 239.575 218.966 239.363 219.17 239.095C219.373 238.827 219.475 238.363 219.475 237.701V211.034C219.475 210.373 219.373 209.908 219.17 209.641C218.966 209.357 218.567 209.144 217.973 209.003V208.247H235.556C237.967 208.247 239.868 208.381 241.262 208.649C242.67 208.9 243.891 209.349 244.924 209.995C245.988 210.656 246.849 211.562 247.506 212.711C248.258 214.018 248.633 215.49 248.633 217.128C248.633 219.584 247.819 221.592 246.192 223.151C244.579 224.694 242.357 225.576 239.524 225.797L247.671 238.552C248.156 239.339 248.86 239.733 249.783 239.733V240.488H242.365V239.733C243.132 239.606 243.515 239.386 243.515 239.071C243.515 238.914 243.241 238.402 242.693 237.536L235.416 225.962H223.161ZM223.161 222.915H236.143C237.912 222.915 239.242 222.844 240.135 222.702C241.042 222.545 241.841 222.27 242.529 221.876C244.141 220.931 244.947 219.348 244.947 217.128C244.947 214.892 244.118 213.302 242.459 212.357C241.723 211.947 240.902 211.672 239.994 211.53C239.102 211.388 237.709 211.318 235.815 211.318H223.161V222.915ZM263.639 238.032V210.703C263.639 210.231 263.53 209.869 263.311 209.617C263.092 209.365 262.7 209.16 262.137 209.003V208.247H279.04C282.875 208.247 285.809 208.782 287.844 209.853C290.411 211.192 292.367 213.254 293.713 216.042C294.887 218.482 295.474 221.254 295.474 224.356C295.474 228.025 294.684 231.19 293.103 233.851C291.679 236.213 289.871 237.914 287.68 238.953C285.504 239.977 282.624 240.488 279.04 240.488H262.137V239.733C262.7 239.575 263.092 239.37 263.311 239.119C263.53 238.866 263.639 238.504 263.639 238.032ZM267.325 237.418H278.9C282.296 237.418 284.815 236.89 286.459 235.835C288.4 234.576 289.824 232.646 290.732 230.048C291.326 228.316 291.624 226.419 291.624 224.356C291.624 220.608 290.677 217.506 288.783 215.049C287.735 213.695 286.459 212.735 284.956 212.168C283.454 211.601 281.435 211.318 278.9 211.318H267.325V237.418Z"/>
</mask>
<path d="M32.6702 210.231L29.313 216.325L28.6556 215.971C28.9217 215.262 29.0547 214.821 29.0547 214.648C29.0547 214.176 28.4756 213.664 27.3175 213.113C24.1716 211.632 20.8379 210.892 17.3164 210.892C14.4209 210.892 11.9011 211.436 9.75685 212.522C8.72387 213.058 7.90217 213.75 7.29179 214.601C6.69704 215.451 6.39966 216.349 6.39966 217.293C6.39966 218.081 6.63441 218.829 7.10398 219.537C7.57348 220.23 8.19171 220.75 8.95862 221.096C9.80379 221.49 10.7976 221.766 11.9402 221.923C13.0984 222.065 14.9765 222.175 17.5746 222.254C21.1744 222.364 23.749 222.537 25.2985 222.773C26.8479 222.994 28.1235 223.388 29.1252 223.954C31.7858 225.45 33.1162 227.726 33.1162 230.781C33.1162 233.694 31.9111 236.079 29.5008 237.937C26.8245 240.016 23.1386 241.055 18.4432 241.055C15.7356 241.055 13.3723 240.78 11.3533 240.229C9.33425 239.678 6.92398 238.662 4.12242 237.181C3.33985 236.82 2.87813 236.638 2.73728 236.638C2.5025 236.638 2.13471 236.922 1.63387 237.489L1 237.087L4.52152 231.159L5.17887 231.536C4.88149 232.166 4.7328 232.591 4.7328 232.812C4.7328 233.316 5.7345 234.095 7.73783 235.15C9.53772 236.095 11.2672 236.78 12.9262 237.205C14.6009 237.615 16.4164 237.819 18.3728 237.819C22.3326 237.819 25.3376 236.945 27.3879 235.197C28.7496 234.032 29.4305 232.646 29.4305 231.04C29.4305 228.93 28.2644 227.474 25.9323 226.671C25.1811 226.403 24.3985 226.238 23.5847 226.175C22.7864 226.096 20.5014 225.986 16.7294 225.844C14.0374 225.734 11.9245 225.529 10.3907 225.23C8.87256 224.931 7.51873 224.442 6.32922 223.765C5.21799 223.135 4.3337 222.254 3.67635 221.12C3.03466 219.986 2.71381 218.75 2.71381 217.412C2.71381 215.128 3.55898 213.168 5.2493 211.53C6.50138 210.333 8.23086 209.396 10.4377 208.719C12.6445 208.026 15.0626 207.68 17.692 207.68C19.8362 207.68 21.8239 207.893 23.6551 208.318C25.5019 208.743 27.5835 209.475 29.8999 210.514C30.4164 210.735 30.7374 210.845 30.8624 210.845C31.1443 210.845 31.5277 210.53 32.0127 209.9L32.6702 210.231ZM50.9633 225.442V237.418H71.5054C72.1629 237.418 72.6245 237.315 72.8907 237.111C73.1723 236.906 73.3835 236.504 73.5245 235.906H74.2757V242H73.5479C73.3913 241.402 73.1723 241 72.8907 240.796C72.6245 240.591 72.1629 240.488 71.5054 240.488H45.7748V239.733C46.3852 239.575 46.7845 239.363 46.9723 239.095C47.1758 238.827 47.2774 238.363 47.2774 237.701V211.034C47.2774 210.373 47.1758 209.908 46.9723 209.641C46.7689 209.373 46.3695 209.16 45.7748 209.003V208.247H71.2004C71.8576 208.247 72.3195 208.145 72.5854 207.94C72.8513 207.735 73.0629 207.326 73.2192 206.711H73.9704V212.806H73.2192C73.0785 212.223 72.867 211.829 72.5854 211.624C72.3195 211.42 71.8576 211.318 71.2004 211.318H50.9633V222.372H64.2275C64.885 222.372 65.3466 222.269 65.6128 222.065C65.8944 221.86 66.1057 221.458 66.2466 220.86H66.9978V226.954H66.2466C66.1057 226.356 65.8944 225.954 65.6128 225.749C65.3466 225.545 64.885 225.442 64.2275 225.442H50.9633ZM92.7801 225.986V238.008C92.7801 238.496 92.8898 238.866 93.1088 239.119C93.3279 239.37 93.7192 239.575 94.2826 239.733V240.488H87.5916V239.733C88.1551 239.575 88.5466 239.37 88.7657 239.119C88.9847 238.866 89.0941 238.496 89.0941 238.008V210.703C89.0941 210.231 88.9847 209.869 88.7657 209.617C88.5466 209.365 88.1551 209.16 87.5916 209.003V208.247H104.448C106.811 208.247 108.651 208.373 109.965 208.625C111.28 208.877 112.454 209.333 113.487 209.995C114.567 210.656 115.435 211.562 116.092 212.711C116.828 214.002 117.196 215.451 117.196 217.057C117.196 219.262 116.523 221.151 115.177 222.726C114.144 223.938 112.829 224.789 111.233 225.277C109.652 225.749 107.391 225.986 104.448 225.986H92.7801ZM92.7801 222.915H104.8C106.585 222.915 107.907 222.844 108.768 222.702C109.644 222.561 110.427 222.285 111.116 221.876C112.712 220.931 113.51 219.348 113.51 217.128C113.51 214.892 112.712 213.302 111.116 212.357C110.427 211.947 109.652 211.672 108.791 211.53C107.931 211.388 106.6 211.318 104.8 211.318H92.7801V222.915ZM156.689 225.442H134.738V237.701C134.738 238.363 134.832 238.827 135.02 239.095C135.223 239.363 135.63 239.575 136.24 239.733V240.488H129.55V239.733C130.16 239.575 130.559 239.363 130.747 239.095C130.95 238.827 131.052 238.363 131.052 237.701V211.034C131.052 210.373 130.95 209.908 130.747 209.641C130.543 209.357 130.144 209.144 129.55 209.003V208.247H136.24V209.003C135.646 209.16 135.247 209.373 135.043 209.641C134.84 209.908 134.738 210.373 134.738 211.034V222.372H156.689V211.034C156.689 210.373 156.587 209.908 156.383 209.641C156.18 209.357 155.781 209.144 155.186 209.003V208.247H161.877V209.003C161.282 209.16 160.883 209.373 160.68 209.641C160.476 209.908 160.375 210.373 160.375 211.034V237.701C160.375 238.347 160.476 238.811 160.68 239.095C160.883 239.363 161.282 239.575 161.877 239.733V240.488H155.186V239.733C155.781 239.575 156.18 239.363 156.383 239.095C156.587 238.827 156.689 238.363 156.689 237.701V225.442ZM181.344 225.442V237.418H201.886C202.544 237.418 203.005 237.315 203.271 237.111C203.553 236.906 203.764 236.504 203.905 235.906H204.656V242H203.929C203.772 241.402 203.553 241 203.271 240.796C203.005 240.591 202.544 240.488 201.886 240.488H176.156V239.733C176.766 239.575 177.165 239.363 177.353 239.095C177.556 238.827 177.658 238.363 177.658 237.701V211.034C177.658 210.373 177.556 209.908 177.353 209.641C177.15 209.373 176.75 209.16 176.156 209.003V208.247H201.581C202.238 208.247 202.7 208.145 202.966 207.94C203.232 207.735 203.444 207.326 203.6 206.711H204.351V212.806H203.6C203.459 212.223 203.248 211.829 202.966 211.624C202.7 211.42 202.238 211.318 201.581 211.318H181.344V222.372H194.608C195.266 222.372 195.727 222.269 195.993 222.065C196.275 221.86 196.486 221.458 196.627 220.86H197.379V226.954H196.627C196.486 226.356 196.275 225.954 195.993 225.749C195.727 225.545 195.266 225.442 194.608 225.442H181.344ZM223.161 225.962V237.701C223.161 238.347 223.263 238.811 223.466 239.095C223.669 239.363 224.069 239.575 224.663 239.733V240.488H217.973V239.733C218.567 239.575 218.966 239.363 219.17 239.095C219.373 238.827 219.475 238.363 219.475 237.701V211.034C219.475 210.373 219.373 209.908 219.17 209.641C218.966 209.357 218.567 209.144 217.973 209.003V208.247H235.556C237.967 208.247 239.868 208.381 241.262 208.649C242.67 208.9 243.891 209.349 244.924 209.995C245.988 210.656 246.849 211.562 247.506 212.711C248.258 214.018 248.633 215.49 248.633 217.128C248.633 219.584 247.819 221.592 246.192 223.151C244.579 224.694 242.357 225.576 239.524 225.797L247.671 238.552C248.156 239.339 248.86 239.733 249.783 239.733V240.488H242.365V239.733C243.132 239.606 243.515 239.386 243.515 239.071C243.515 238.914 243.241 238.402 242.693 237.536L235.416 225.962H223.161ZM223.161 222.915H236.143C237.912 222.915 239.242 222.844 240.135 222.702C241.042 222.545 241.841 222.27 242.529 221.876C244.141 220.931 244.947 219.348 244.947 217.128C244.947 214.892 244.118 213.302 242.459 212.357C241.723 211.947 240.902 211.672 239.994 211.53C239.102 211.388 237.709 211.318 235.815 211.318H223.161V222.915ZM263.639 238.032V210.703C263.639 210.231 263.53 209.869 263.311 209.617C263.092 209.365 262.7 209.16 262.137 209.003V208.247H279.04C282.875 208.247 285.809 208.782 287.844 209.853C290.411 211.192 292.367 213.254 293.713 216.042C294.887 218.482 295.474 221.254 295.474 224.356C295.474 228.025 294.684 231.19 293.103 233.851C291.679 236.213 289.871 237.914 287.68 238.953C285.504 239.977 282.624 240.488 279.04 240.488H262.137V239.733C262.7 239.575 263.092 239.37 263.311 239.119C263.53 238.866 263.639 238.504 263.639 238.032ZM267.325 237.418H278.9C282.296 237.418 284.815 236.89 286.459 235.835C288.4 234.576 289.824 232.646 290.732 230.048C291.326 228.316 291.624 226.419 291.624 224.356C291.624 220.608 290.677 217.506 288.783 215.049C287.735 213.695 286.459 212.735 284.956 212.168C283.454 211.601 281.435 211.318 278.9 211.318H267.325V237.418Z" fill="black" fill-opacity="0.8"/>
<path d="M32.6702 210.231L29.313 216.325L28.6556 215.971C28.9217 215.262 29.0547 214.821 29.0547 214.648C29.0547 214.176 28.4756 213.664 27.3175 213.113C24.1716 211.632 20.8379 210.892 17.3164 210.892C14.4209 210.892 11.9011 211.436 9.75685 212.522C8.72387 213.058 7.90217 213.75 7.29179 214.601C6.69704 215.451 6.39966 216.349 6.39966 217.293C6.39966 218.081 6.63441 218.829 7.10398 219.537C7.57348 220.23 8.19171 220.75 8.95862 221.096C9.80379 221.49 10.7976 221.766 11.9402 221.923C13.0984 222.065 14.9765 222.175 17.5746 222.254C21.1744 222.364 23.749 222.537 25.2985 222.773C26.8479 222.994 28.1235 223.388 29.1252 223.954C31.7858 225.45 33.1162 227.726 33.1162 230.781C33.1162 233.694 31.9111 236.079 29.5008 237.937C26.8245 240.016 23.1386 241.055 18.4432 241.055C15.7356 241.055 13.3723 240.78 11.3533 240.229C9.33425 239.678 6.92398 238.662 4.12242 237.181C3.33985 236.82 2.87813 236.638 2.73728 236.638C2.5025 236.638 2.13471 236.922 1.63387 237.489L1 237.087L4.52152 231.159L5.17887 231.536C4.88149 232.166 4.7328 232.591 4.7328 232.812C4.7328 233.316 5.7345 234.095 7.73783 235.15C9.53772 236.095 11.2672 236.78 12.9262 237.205C14.6009 237.615 16.4164 237.819 18.3728 237.819C22.3326 237.819 25.3376 236.945 27.3879 235.197C28.7496 234.032 29.4305 232.646 29.4305 231.04C29.4305 228.93 28.2644 227.474 25.9323 226.671C25.1811 226.403 24.3985 226.238 23.5847 226.175C22.7864 226.096 20.5014 225.986 16.7294 225.844C14.0374 225.734 11.9245 225.529 10.3907 225.23C8.87256 224.931 7.51873 224.442 6.32922 223.765C5.21799 223.135 4.3337 222.254 3.67635 221.12C3.03466 219.986 2.71381 218.75 2.71381 217.412C2.71381 215.128 3.55898 213.168 5.2493 211.53C6.50138 210.333 8.23086 209.396 10.4377 208.719C12.6445 208.026 15.0626 207.68 17.692 207.68C19.8362 207.68 21.8239 207.893 23.6551 208.318C25.5019 208.743 27.5835 209.475 29.8999 210.514C30.4164 210.735 30.7374 210.845 30.8624 210.845C31.1443 210.845 31.5277 210.53 32.0127 209.9L32.6702 210.231ZM50.9633 225.442V237.418H71.5054C72.1629 237.418 72.6245 237.315 72.8907 237.111C73.1723 236.906 73.3835 236.504 73.5245 235.906H74.2757V242H73.5479C73.3913 241.402 73.1723 241 72.8907 240.796C72.6245 240.591 72.1629 240.488 71.5054 240.488H45.7748V239.733C46.3852 239.575 46.7845 239.363 46.9723 239.095C47.1758 238.827 47.2774 238.363 47.2774 237.701V211.034C47.2774 210.373 47.1758 209.908 46.9723 209.641C46.7689 209.373 46.3695 209.16 45.7748 209.003V208.247H71.2004C71.8576 208.247 72.3195 208.145 72.5854 207.94C72.8513 207.735 73.0629 207.326 73.2192 206.711H73.9704V212.806H73.2192C73.0785 212.223 72.867 211.829 72.5854 211.624C72.3195 211.42 71.8576 211.318 71.2004 211.318H50.9633V222.372H64.2275C64.885 222.372 65.3466 222.269 65.6128 222.065C65.8944 221.86 66.1057 221.458 66.2466 220.86H66.9978V226.954H66.2466C66.1057 226.356 65.8944 225.954 65.6128 225.749C65.3466 225.545 64.885 225.442 64.2275 225.442H50.9633ZM92.7801 225.986V238.008C92.7801 238.496 92.8898 238.866 93.1088 239.119C93.3279 239.37 93.7192 239.575 94.2826 239.733V240.488H87.5916V239.733C88.1551 239.575 88.5466 239.37 88.7657 239.119C88.9847 238.866 89.0941 238.496 89.0941 238.008V210.703C89.0941 210.231 88.9847 209.869 88.7657 209.617C88.5466 209.365 88.1551 209.16 87.5916 209.003V208.247H104.448C106.811 208.247 108.651 208.373 109.965 208.625C111.28 208.877 112.454 209.333 113.487 209.995C114.567 210.656 115.435 211.562 116.092 212.711C116.828 214.002 117.196 215.451 117.196 217.057C117.196 219.262 116.523 221.151 115.177 222.726C114.144 223.938 112.829 224.789 111.233 225.277C109.652 225.749 107.391 225.986 104.448 225.986H92.7801ZM92.7801 222.915H104.8C106.585 222.915 107.907 222.844 108.768 222.702C109.644 222.561 110.427 222.285 111.116 221.876C112.712 220.931 113.51 219.348 113.51 217.128C113.51 214.892 112.712 213.302 111.116 212.357C110.427 211.947 109.652 211.672 108.791 211.53C107.931 211.388 106.6 211.318 104.8 211.318H92.7801V222.915ZM156.689 225.442H134.738V237.701C134.738 238.363 134.832 238.827 135.02 239.095C135.223 239.363 135.63 239.575 136.24 239.733V240.488H129.55V239.733C130.16 239.575 130.559 239.363 130.747 239.095C130.95 238.827 131.052 238.363 131.052 237.701V211.034C131.052 210.373 130.95 209.908 130.747 209.641C130.543 209.357 130.144 209.144 129.55 209.003V208.247H136.24V209.003C135.646 209.16 135.247 209.373 135.043 209.641C134.84 209.908 134.738 210.373 134.738 211.034V222.372H156.689V211.034C156.689 210.373 156.587 209.908 156.383 209.641C156.18 209.357 155.781 209.144 155.186 209.003V208.247H161.877V209.003C161.282 209.16 160.883 209.373 160.68 209.641C160.476 209.908 160.375 210.373 160.375 211.034V237.701C160.375 238.347 160.476 238.811 160.68 239.095C160.883 239.363 161.282 239.575 161.877 239.733V240.488H155.186V239.733C155.781 239.575 156.18 239.363 156.383 239.095C156.587 238.827 156.689 238.363 156.689 237.701V225.442ZM181.344 225.442V237.418H201.886C202.544 237.418 203.005 237.315 203.271 237.111C203.553 236.906 203.764 236.504 203.905 235.906H204.656V242H203.929C203.772 241.402 203.553 241 203.271 240.796C203.005 240.591 202.544 240.488 201.886 240.488H176.156V239.733C176.766 239.575 177.165 239.363 177.353 239.095C177.556 238.827 177.658 238.363 177.658 237.701V211.034C177.658 210.373 177.556 209.908 177.353 209.641C177.15 209.373 176.75 209.16 176.156 209.003V208.247H201.581C202.238 208.247 202.7 208.145 202.966 207.94C203.232 207.735 203.444 207.326 203.6 206.711H204.351V212.806H203.6C203.459 212.223 203.248 211.829 202.966 211.624C202.7 211.42 202.238 211.318 201.581 211.318H181.344V222.372H194.608C195.266 222.372 195.727 222.269 195.993 222.065C196.275 221.86 196.486 221.458 196.627 220.86H197.379V226.954H196.627C196.486 226.356 196.275 225.954 195.993 225.749C195.727 225.545 195.266 225.442 194.608 225.442H181.344ZM223.161 225.962V237.701C223.161 238.347 223.263 238.811 223.466 239.095C223.669 239.363 224.069 239.575 224.663 239.733V240.488H217.973V239.733C218.567 239.575 218.966 239.363 219.17 239.095C219.373 238.827 219.475 238.363 219.475 237.701V211.034C219.475 210.373 219.373 209.908 219.17 209.641C218.966 209.357 218.567 209.144 217.973 209.003V208.247H235.556C237.967 208.247 239.868 208.381 241.262 208.649C242.67 208.9 243.891 209.349 244.924 209.995C245.988 210.656 246.849 211.562 247.506 212.711C248.258 214.018 248.633 215.49 248.633 217.128C248.633 219.584 247.819 221.592 246.192 223.151C244.579 224.694 242.357 225.576 239.524 225.797L247.671 238.552C248.156 239.339 248.86 239.733 249.783 239.733V240.488H242.365V239.733C243.132 239.606 243.515 239.386 243.515 239.071C243.515 238.914 243.241 238.402 242.693 237.536L235.416 225.962H223.161ZM223.161 222.915H236.143C237.912 222.915 239.242 222.844 240.135 222.702C241.042 222.545 241.841 222.27 242.529 221.876C244.141 220.931 244.947 219.348 244.947 217.128C244.947 214.892 244.118 213.302 242.459 212.357C241.723 211.947 240.902 211.672 239.994 211.53C239.102 211.388 237.709 211.318 235.815 211.318H223.161V222.915ZM263.639 238.032V210.703C263.639 210.231 263.53 209.869 263.311 209.617C263.092 209.365 262.7 209.16 262.137 209.003V208.247H279.04C282.875 208.247 285.809 208.782 287.844 209.853C290.411 211.192 292.367 213.254 293.713 216.042C294.887 218.482 295.474 221.254 295.474 224.356C295.474 228.025 294.684 231.19 293.103 233.851C291.679 236.213 289.871 237.914 287.68 238.953C285.504 239.977 282.624 240.488 279.04 240.488H262.137V239.733C262.7 239.575 263.092 239.37 263.311 239.119C263.53 238.866 263.639 238.504 263.639 238.032ZM267.325 237.418H278.9C282.296 237.418 284.815 236.89 286.459 235.835C288.4 234.576 289.824 232.646 290.732 230.048C291.326 228.316 291.624 226.419 291.624 224.356C291.624 220.608 290.677 217.506 288.783 215.049C287.735 213.695 286.459 212.735 284.956 212.168C283.454 211.601 281.435 211.318 278.9 211.318H267.325V237.418Z" stroke="black" stroke-width="0.8" mask="url(#path-2-outside-1_239_9516)"/>
</svg>
