<svg width="403" height="86" viewBox="0 0 403 86" fill="none" xmlns="http://www.w3.org/2000/svg">
<path d="M108.04 15.72V19.88H87.84V15.72H95.56V12.32H100.84V15.72H108.04ZM94.48 27.64C94.48 29.52 95.96 30.48 98.2 30.48C100.4 30.48 101.92 29.52 101.92 27.64C101.92 25.8 100.4 24.84 98.2 24.84C95.96 24.84 94.48 25.8 94.48 27.64ZM106.8 27.64C106.8 31.64 103.24 34.36 98.2 34.36C93.12 34.36 89.56 31.64 89.56 27.64C89.56 23.68 93.12 20.96 98.2 20.96C103.24 20.96 106.8 23.68 106.8 27.64ZM113.32 44.96V42.48H99.08V44.96H113.32ZM113.32 38.6V35.92H118.52V49H93.88V35.92H99.08V38.6H113.32ZM113.24 12.6H118.52V34.56H113.24V31.92H108.44V27.72H113.24V24.64H108.52V20.44H113.24V12.6ZM152.077 44.8V41.52H138.157V44.8H152.077ZM152.077 37.52V34H157.317V49H132.917V34H138.157V37.52H152.077ZM136.677 27.32C139.397 27.32 141.357 25.68 141.357 22.92C141.357 20.16 139.397 18.52 136.677 18.52C133.997 18.52 132.037 20.16 132.037 22.92C132.037 25.68 133.997 27.32 136.677 27.32ZM152.037 12.6H157.317V32.4H152.037V25H146.197C145.197 29 141.437 31.72 136.677 31.72C131.157 31.72 126.997 28.04 126.997 22.92C126.997 17.8 131.157 14.12 136.677 14.12C141.357 14.12 145.117 16.8 146.157 20.72H152.037V12.6ZM174.074 24.76V29.92H189.834V24.76H174.074ZM184.594 40.88H198.674V45.16H165.314V40.88H179.314V34.12H168.834V14.88H174.074V20.6H189.834V14.88H195.034V34.12H184.594V40.88ZM209.551 24.32C209.551 27.32 211.631 29.12 214.391 29.12C217.111 29.12 219.231 27.32 219.231 24.32C219.231 21.32 217.111 19.52 214.391 19.52C211.631 19.52 209.551 21.32 209.551 24.32ZM224.351 24.32C224.351 29.72 219.991 33.68 214.391 33.68C208.751 33.68 204.391 29.72 204.391 24.32C204.391 18.88 208.751 14.96 214.391 14.96C219.991 14.96 224.351 18.88 224.351 24.32ZM214.631 36.64V44.6H234.431V48.8H209.351V36.64H214.631ZM233.111 23.16H237.991V27.48H233.111V39.4H227.831V12.6H233.111V23.16ZM262.588 28.4L257.428 27.8C258.028 24.36 258.188 21.68 258.228 19.48H244.508V15.28H263.428V17.56C263.428 20.12 263.428 23.76 262.588 28.4ZM265.028 29.88L265.348 33.64C257.748 35.04 249.188 35.2 242.868 35.24L242.388 31.04C244.428 31.04 246.708 31.04 249.108 31V23.84H254.268V30.8C257.908 30.64 261.588 30.36 265.028 29.88ZM253.028 37.72V44.6H273.468V48.8H247.748V37.72H253.028ZM272.308 23.8H276.708V28.16H272.308V40.16H267.028V12.56H272.308V23.8ZM289.064 29.96V36.6C294.664 36.56 299.304 36.28 304.504 35.4L305.064 39.68C299.064 40.72 293.664 40.96 286.984 40.96H283.664V25.8H295.624V19.92H283.624V15.72H301.024V29.96H289.064ZM307.064 12.56H312.344V49.52H307.064V12.56Z" fill="#0E66C8"/>
<path d="M8.87025 71.8H11.7503V67.848H13.0783V78.36H11.7503V72.872H8.87025V71.8ZM9.71825 75.176L9.06225 76.2C7.46225 75.624 6.23025 74.424 5.60625 72.952C4.98225 74.584 3.67025 75.912 1.99025 76.52L1.30225 75.496C3.43025 74.728 4.91825 72.824 4.91825 70.792V70.072H1.71825V69H9.38225V70.072H6.23025V70.776C6.23025 72.648 7.63825 74.44 9.71825 75.176ZM5.22225 80.792H13.4783V81.864H3.89425V77.432H5.22225V80.792ZM28.3191 74.84L27.6791 75.88C26.0311 75.304 24.7191 74.12 24.0631 72.616C23.4551 74.248 22.1271 75.528 20.4311 76.152L19.7431 75.128C21.9191 74.36 23.3751 72.488 23.3751 70.472V69.896H20.0951V68.84H27.9671V69.896H24.7191V70.472C24.7191 72.392 26.2071 74.136 28.3191 74.84ZM21.7271 78.328V77.272H31.3271V82.184H30.0151V78.328H21.7271ZM30.0151 67.832H31.3271V76.52H30.0151V67.832ZM41.7899 76.312H44.7019V67.832H46.0139V78.76H44.7019V77.288H41.7899V76.312ZM38.8619 69.384C37.5019 69.384 36.5739 69.992 36.5739 70.904C36.5739 71.832 37.5019 72.44 38.8619 72.44C40.2219 72.44 41.1499 71.832 41.1499 70.904C41.1499 69.992 40.2219 69.384 38.8619 69.384ZM38.8619 73.416C36.7659 73.416 35.3259 72.44 35.3259 70.904C35.3259 69.4 36.7659 68.408 38.8619 68.408C40.9579 68.408 42.3979 69.4 42.3979 70.904C42.3979 72.44 40.9579 73.416 38.8619 73.416ZM38.3499 78.248V75.48C36.9259 75.544 35.5499 75.56 34.3659 75.56L34.1899 74.472C36.8459 74.472 40.3979 74.44 43.4379 74.056L43.5499 75C42.2859 75.192 40.9579 75.336 39.6619 75.416V78.248H38.3499ZM37.5499 80.792H46.3819V81.864H36.2379V77.688H37.5499V80.792ZM59.4206 67.832H60.7326V82.216H59.4206V67.832ZM53.1646 68.936C55.2926 68.936 56.8126 70.888 56.8126 73.944C56.8126 77 55.2926 78.952 53.1646 78.952C51.0366 78.952 49.5166 77 49.5166 73.944C49.5166 70.888 51.0366 68.936 53.1646 68.936ZM53.1646 70.12C51.7566 70.12 50.7646 71.624 50.7646 73.944C50.7646 76.28 51.7566 77.784 53.1646 77.784C54.5566 77.784 55.5486 76.28 55.5486 73.944C55.5486 71.624 54.5566 70.12 53.1646 70.12ZM68.0375 81V69.256H71.3975C74.0215 69.256 75.7815 70.152 75.7815 72.712C75.7815 75.192 74.0375 76.344 71.4615 76.344H69.5255V81H68.0375ZM69.5255 75.144H71.2695C73.3335 75.144 74.3095 74.392 74.3095 72.712C74.3095 71.016 73.2695 70.472 71.2055 70.472H69.5255V75.144ZM82.5789 81.208C79.6669 81.208 77.4749 78.952 77.4749 75.144C77.4749 71.352 79.6989 69.048 82.6749 69.048C84.0989 69.048 85.2189 69.752 85.8909 70.504L85.0909 71.464C84.4829 70.808 83.6989 70.344 82.6909 70.344C80.4669 70.344 78.9949 72.168 78.9949 75.096C78.9949 78.056 80.4029 79.912 82.6429 79.912C83.7629 79.912 84.6109 79.416 85.3629 78.6L86.1789 79.528C85.2509 80.6 84.0989 81.208 82.5789 81.208ZM90.43 72.488V75.128H97.758V72.488H90.43ZM94.75 79.272H100.606V80.344H87.598V79.272H93.422V76.184H89.134V68.856H90.43V71.416H97.758V68.856H99.038V76.184H94.75V79.272ZM103.869 72.376C103.869 73.784 104.925 74.776 106.333 74.776C107.741 74.776 108.797 73.784 108.797 72.376C108.797 70.968 107.741 69.976 106.333 69.976C104.925 69.976 103.869 70.968 103.869 72.376ZM110.077 72.376C110.077 74.456 108.477 75.912 106.333 75.912C104.189 75.912 102.589 74.456 102.589 72.376C102.589 70.296 104.189 68.84 106.333 68.84C108.477 68.84 110.077 70.296 110.077 72.376ZM105.837 77.32V80.792H114.093V81.864H104.525V77.32H105.837ZM113.453 72.2H115.565V73.288H113.453V78.392H112.141V67.832H113.453V72.2ZM132.966 73.304L132.422 74.36C130.198 73.976 128.038 72.728 127.11 71C126.214 72.744 124.054 73.976 121.814 74.36L121.286 73.304C123.894 72.92 126.422 71.192 126.422 69.144V68.344H127.798V69.144C127.798 71.144 130.358 72.92 132.966 73.304ZM133.59 75.912L133.606 77H127.734V82.2H126.422V77H120.63V75.912H133.59ZM136.612 74.184L136.116 73.128C138.66 72.792 140.98 71.368 140.98 69.624V69.608H136.516V68.552H147.14V69.608H142.676V69.624C142.676 71.368 144.996 72.792 147.524 73.128L147.044 74.184C144.708 73.832 142.596 72.68 141.828 71.016C141.044 72.68 138.932 73.832 136.612 74.184ZM138.276 77.8V80.792H146.884V81.864H136.964V77.8H138.276ZM135.3 75.224H148.324V76.28H142.58V79.192H141.268V76.28H135.3V75.224ZM156.531 69.064C154.179 69.064 152.835 69.608 152.835 70.568C152.835 71.528 154.179 72.072 156.531 72.072C158.883 72.072 160.227 71.528 160.227 70.568C160.227 69.608 158.883 69.064 156.531 69.064ZM156.531 73.048C153.379 73.048 151.491 72.184 151.491 70.568C151.491 68.952 153.379 68.072 156.531 68.072C159.683 68.072 161.571 68.952 161.571 70.568C161.571 72.184 159.683 73.048 156.531 73.048ZM152.931 79.544V81H161.795V82.024H151.651V78.584H160.067V77.304H151.603V76.312H161.363V79.544H152.931ZM150.035 74.024H163.027V75.08H150.035V74.024ZM178.38 69.784V69.624H169.9V68.568H179.676V69.784C179.676 70.936 179.676 72.104 179.276 73.576L177.996 73.432C178.38 71.96 178.38 70.904 178.38 69.784ZM174.78 81.144C177.036 81.144 178.476 80.536 178.476 79.544C178.476 78.52 177.036 77.912 174.78 77.912C172.54 77.912 171.1 78.52 171.1 79.544C171.1 80.536 172.54 81.144 174.78 81.144ZM174.78 76.904C177.836 76.904 179.788 77.88 179.788 79.544C179.788 81.176 177.836 82.168 174.78 82.168C171.724 82.168 169.788 81.176 169.788 79.544C169.788 77.88 171.724 76.904 174.78 76.904ZM174.988 74.52H181.292V75.576H168.38V74.52H173.676V71.768H174.988V74.52ZM189.531 69.464C187.355 69.464 185.867 70.264 185.867 71.528C185.867 72.792 187.355 73.608 189.531 73.608C191.723 73.608 193.211 72.792 193.211 71.528C193.211 70.264 191.723 69.464 189.531 69.464ZM189.531 74.664C186.555 74.664 184.523 73.448 184.523 71.528C184.523 69.608 186.555 68.408 189.531 68.408C192.523 68.408 194.555 69.608 194.555 71.528C194.555 73.448 192.523 74.664 189.531 74.664ZM196.059 76.008V77.08H192.667V82.184H191.339V77.08H187.739V82.184H186.411V77.08H183.067V76.008H196.059ZM201.994 77.896C203.306 77.896 204.25 76.968 204.25 75.688C204.25 74.392 203.306 73.464 201.994 73.464C200.698 73.464 199.754 74.392 199.754 75.688C199.754 76.968 200.698 77.896 201.994 77.896ZM201.994 72.376C204.042 72.376 205.498 73.752 205.498 75.688C205.498 77.64 204.042 78.984 201.994 78.984C199.978 78.984 198.522 77.64 198.522 75.688C198.522 73.752 199.978 72.376 201.994 72.376ZM202.634 68.008V70.136H206.17V71.192H197.706V70.136H201.322V68.008H202.634ZM211.194 73.736V74.84H208.842V82.184H207.53V67.848H208.842V73.736H211.194ZM219.608 75.224H223.016V72.344H219.608V75.224ZM218.312 77.512V70.28H214.36V77.512H218.312ZM223.016 67.832H224.328V82.216H223.016V76.296H219.608V78.552H213.08V69.24H219.608V71.272H223.016V67.832ZM231.649 69.384H238.369C238.369 73.528 236.465 77.176 231.697 79.512L230.993 78.44C234.849 76.6 236.769 73.848 237.041 70.44H231.649V69.384ZM241.265 67.832H242.577V82.184H241.265V67.832ZM256.032 80.936V79.08H249.456V80.936H256.032ZM256.032 78.056V76.232H257.344V81.992H248.16V76.232H249.456V78.056H256.032ZM249.44 74.056C250.864 74.056 251.888 73.128 251.888 71.816C251.888 70.504 250.864 69.592 249.44 69.592C248.016 69.592 246.992 70.504 246.992 71.816C246.992 73.128 248.016 74.056 249.44 74.056ZM256.016 67.848H257.344V75.544H256.016V72.328H253.104C252.848 74.024 251.408 75.144 249.44 75.144C247.296 75.144 245.744 73.8 245.744 71.816C245.744 69.848 247.296 68.504 249.44 68.504C251.376 68.504 252.816 69.592 253.088 71.256H256.016V67.848ZM268.617 71.368V72.488C268.617 74.792 270.041 77.144 272.105 78.136L271.369 79.16C269.801 78.392 268.585 76.824 267.977 74.984C267.369 76.952 266.057 78.616 264.425 79.416L263.689 78.424C265.785 77.4 267.321 74.968 267.321 72.488V71.368H264.073V70.312H267.305V68.088H268.617V70.312H271.801V71.368H268.617ZM277.225 73.736V74.824H274.857V82.184H273.545V67.832H274.857V73.736H277.225ZM286.056 76.312H288.968V67.832H290.28V78.76H288.968V77.288H286.056V76.312ZM283.128 69.384C281.768 69.384 280.84 69.992 280.84 70.904C280.84 71.832 281.768 72.44 283.128 72.44C284.488 72.44 285.416 71.832 285.416 70.904C285.416 69.992 284.488 69.384 283.128 69.384ZM283.128 73.416C281.032 73.416 279.592 72.44 279.592 70.904C279.592 69.4 281.032 68.408 283.128 68.408C285.224 68.408 286.664 69.4 286.664 70.904C286.664 72.44 285.224 73.416 283.128 73.416ZM282.616 78.248V75.48C281.192 75.544 279.816 75.56 278.632 75.56L278.456 74.472C281.112 74.472 284.664 74.44 287.704 74.056L287.816 75C286.552 75.192 285.224 75.336 283.928 75.416V78.248H282.616ZM281.816 80.792H290.648V81.864H280.504V77.688H281.816V80.792ZM297.91 68.888C300.15 68.888 301.75 70.248 301.75 72.264C301.75 74.264 300.15 75.64 297.91 75.64C295.686 75.64 294.07 74.264 294.07 72.264C294.07 70.248 295.686 68.888 297.91 68.888ZM297.91 70.008C296.438 70.008 295.35 70.92 295.35 72.264C295.35 73.592 296.438 74.52 297.91 74.52C299.398 74.52 300.47 73.592 300.47 72.264C300.47 70.92 299.398 70.008 297.91 70.008ZM303.638 67.832H304.95V82.216H303.638V67.832ZM293.51 79.064L293.35 77.96C295.958 77.96 299.558 77.944 302.694 77.464L302.806 78.44C299.574 79.032 296.102 79.064 293.51 79.064ZM314.383 72.488V75.128H321.711V72.488H314.383ZM318.703 79.272H324.559V80.344H311.551V79.272H317.375V76.184H313.087V68.856H314.383V71.416H321.711V68.856H322.991V76.184H318.703V79.272ZM327.822 72.376C327.822 73.784 328.878 74.776 330.286 74.776C331.694 74.776 332.75 73.784 332.75 72.376C332.75 70.968 331.694 69.976 330.286 69.976C328.878 69.976 327.822 70.968 327.822 72.376ZM334.03 72.376C334.03 74.456 332.43 75.912 330.286 75.912C328.142 75.912 326.542 74.456 326.542 72.376C326.542 70.296 328.142 68.84 330.286 68.84C332.43 68.84 334.03 70.296 334.03 72.376ZM329.79 77.32V80.792H338.046V81.864H328.478V77.32H329.79ZM337.406 72.2H339.518V73.288H337.406V78.392H336.094V67.832H337.406V72.2ZM348.525 73.96L347.229 73.816C347.565 72.168 347.613 70.936 347.613 70.024H341.757V68.952H348.893V69.704C348.893 70.648 348.893 72.072 348.525 73.96ZM349.885 74.824L349.981 75.784C347.005 76.28 343.565 76.36 341.021 76.36L340.893 75.288C341.805 75.288 342.845 75.272 343.933 75.256V72.152H345.229V75.208C346.797 75.144 348.429 75.016 349.885 74.824ZM344.397 77.656V80.792H352.621V81.864H343.085V77.656H344.397ZM352.157 72.504H354.205V73.592H352.157V78.648H350.845V67.832H352.157V72.504ZM357.851 74.28V77.64C360.203 77.64 362.315 77.528 364.827 77.128L364.955 78.2C362.363 78.632 360.187 78.728 357.723 78.728H356.539V73.224H361.819V70.232H356.491V69.16H363.147V74.28H357.851ZM366.171 67.816H367.483V82.2H366.171V67.816ZM374.852 69.384H381.572C381.572 73.528 379.668 77.176 374.9 79.512L374.196 78.44C378.052 76.6 379.972 73.848 380.244 70.44H374.852V69.384ZM384.468 67.832H385.78V82.184H384.468V67.832ZM400.227 71.832V72.888H390.483V68.136H391.795V71.832H400.227ZM395.203 81.112C397.443 81.112 398.787 80.52 398.787 79.528C398.787 78.504 397.459 77.928 395.203 77.928C392.947 77.928 391.619 78.504 391.619 79.528C391.619 80.52 392.947 81.112 395.203 81.112ZM395.203 76.904C398.259 76.904 400.115 77.848 400.115 79.528C400.115 81.192 398.259 82.136 395.203 82.136C392.147 82.136 390.291 81.192 390.291 79.528C390.291 77.848 392.147 76.904 395.203 76.904ZM388.739 74.552H401.715V75.624H388.739V74.552Z" fill="black" fill-opacity="0.65"/>
</svg>
