<svg width="80" height="66" viewBox="0 0 80 66" fill="none" xmlns="http://www.w3.org/2000/svg">
<path d="M40.3661 1.09797L40.4967 0.946486C41.8393 2.10396 44.3759 3.75761 47.5658 5.08082C50.7544 6.40351 54.5568 7.3797 58.4356 7.2236L58.8449 7.20713L59.0501 7.19887L59.0529 7.40426L59.0585 7.81636C59.126 12.778 58.0147 20.7787 55.1318 28.7544C52.2513 36.7239 47.5729 44.7484 40.4492 49.6656C40.3519 49.7343 40.2328 49.7749 40.1049 49.7749C40.018 49.7749 39.9263 49.74 39.8674 49.7141C39.8331 49.699 39.799 49.682 39.7678 49.6648L39.7648 49.6691C32.6407 44.7539 27.9604 36.8303 25.0784 28.9574C22.1952 21.0812 21.0837 13.1801 21.1513 8.2178C21.1513 8.2178 21.1513 8.21779 21.1513 8.21779L21.1569 7.8057L21.1596 7.60031L21.3649 7.60858L21.7742 7.62505C25.6434 7.78076 29.44 6.70953 32.6295 5.28771C35.8011 3.8739 38.3342 2.13043 39.6915 0.964803C39.692 0.964449 39.6924 0.964098 39.6928 0.963744C39.7 0.957543 39.7072 0.951355 39.7143 0.945187L39.7145 0.945053L39.715 0.945608C39.8103 0.871256 39.9563 0.8 40.1049 0.8C40.2551 0.8 40.3926 0.855744 40.4975 0.947237L40.3661 1.09797ZM40.3661 1.09797C41.7268 2.27104 44.2822 3.93527 47.4892 5.26556C50.6956 6.59566 54.5275 7.58104 58.4436 7.42344L58.653 7.41501L40.3661 1.09797ZM32.7109 5.47038C35.8998 4.04885 38.4494 2.29511 39.8217 1.11667L39.8051 49.4538C32.7694 44.5674 28.1308 36.7141 25.2662 28.8886C22.3908 21.034 21.2841 13.157 21.3513 8.22051L21.3541 8.00847L21.3488 8.00825L21.3568 7.80841L21.5568 7.81112L21.5568 7.81646L21.7661 7.82489C25.6759 7.98223 29.5039 6.90002 32.7109 5.47038ZM54.0057 28.344L54.1938 28.412L54.0057 28.344C51.2995 35.8311 47.024 43.2384 40.7039 48.0009V25.2867H55.0253C54.7142 26.3016 54.3748 27.3229 54.0057 28.344ZM33.1156 6.38712C35.7613 5.20773 37.9862 3.80358 39.5059 2.65326V24.0838H24.7543C23.0816 18.2294 22.37 12.7057 22.347 8.84219C26.2371 8.87695 29.9872 7.78173 33.1156 6.38712ZM26.2028 28.5424C25.8047 27.4548 25.441 26.3668 25.1102 25.2867H39.5059V48.0021C33.1832 43.2467 28.9081 35.9326 26.2028 28.5424Z" fill="#10151C" stroke="#10151C" stroke-width="0.4"/>
<mask id="path-2-outside-1_240_1891" maskUnits="userSpaceOnUse" x="0" y="54.6288" width="80" height="11" fill="black">
<rect fill="white" y="54.6288" width="80" height="11"/>
<path d="M9.41035 56.5634L8.51881 58.1817L8.34424 58.0876C8.4149 57.8994 8.45022 57.7824 8.45022 57.7364C8.45022 57.611 8.29644 57.475 7.98888 57.3287C7.15345 56.9356 6.26815 56.739 5.33297 56.739C4.56405 56.739 3.89489 56.8833 3.32547 57.1719C3.05115 57.314 2.83294 57.498 2.67085 57.7238C2.51291 57.9497 2.43393 58.188 2.43393 58.4389C2.43393 58.648 2.49628 58.8466 2.62097 59.0348C2.74566 59.2188 2.90983 59.3568 3.11349 59.4488C3.33794 59.5533 3.60186 59.6265 3.90528 59.6684C4.21285 59.7059 4.71161 59.7352 5.40156 59.7562C6.35752 59.7854 7.04123 59.8314 7.4527 59.8941C7.86418 59.9527 8.20293 60.0573 8.46893 60.2077C9.17549 60.605 9.52877 61.2093 9.52877 62.0206C9.52877 62.7942 9.20877 63.4277 8.56868 63.9211C7.85795 64.4732 6.87913 64.7491 5.63223 64.7491C4.91319 64.7491 4.28558 64.676 3.74942 64.5296C3.21324 64.3833 2.57317 64.1135 1.82919 63.7204C1.62137 63.6243 1.49876 63.5762 1.46135 63.5762C1.399 63.5762 1.30133 63.6514 1.16833 63.802L1 63.6953L1.93517 62.121L2.10974 62.2213C2.03077 62.3886 1.99128 62.5014 1.99128 62.56C1.99128 62.6938 2.25729 62.9008 2.7893 63.181C3.26728 63.4319 3.72655 63.6138 4.16713 63.7267C4.61186 63.8354 5.09398 63.8898 5.61353 63.8898C6.66508 63.8898 7.46309 63.6577 8.00758 63.1935C8.36918 62.8841 8.55001 62.5161 8.55001 62.0896C8.55001 61.5292 8.24033 61.1424 7.62104 60.9291C7.42153 60.858 7.21371 60.8142 6.99759 60.7974C6.78561 60.7765 6.17879 60.7472 5.17711 60.7095C4.46223 60.6803 3.90112 60.626 3.4938 60.5465C3.09064 60.4671 2.73112 60.3374 2.41523 60.1576C2.12013 59.9903 1.8853 59.7562 1.71073 59.4551C1.54032 59.154 1.45512 58.8257 1.45512 58.4703C1.45512 57.864 1.67956 57.3433 2.12845 56.9084C2.46095 56.5906 2.92023 56.3418 3.50627 56.162C4.09231 55.978 4.73446 55.8859 5.43273 55.8859C6.00214 55.8859 6.53 55.9425 7.01629 56.0554C7.50674 56.1682 8.05953 56.3627 8.67466 56.6387C8.81184 56.6973 8.89707 56.7265 8.93026 56.7265C9.00512 56.7265 9.10694 56.6428 9.23574 56.4756L9.41035 56.5634ZM14.2683 60.6029V63.7832H19.7234C19.898 63.7832 20.0206 63.756 20.0913 63.7016C20.1661 63.6472 20.2222 63.5406 20.2596 63.3817H20.4591V65H20.2658C20.2243 64.8411 20.1661 64.7345 20.0913 64.6802C20.0206 64.6258 19.898 64.5986 19.7234 64.5986H12.8904V64.3979C13.0525 64.356 13.1585 64.2996 13.2084 64.2285C13.2625 64.1574 13.2894 64.0341 13.2894 63.8584V56.7767C13.2894 56.6011 13.2625 56.4777 13.2084 56.4066C13.1544 56.3355 13.0483 56.279 12.8904 56.2372V56.0365H19.6424C19.817 56.0365 19.9396 56.0094 20.0102 55.955C20.0809 55.9006 20.137 55.7919 20.1785 55.6288H20.378V57.2472H20.1785C20.1412 57.0924 20.085 56.9878 20.0102 56.9335C19.9396 56.8791 19.817 56.852 19.6424 56.852H14.2683V59.7875H17.7907C17.9653 59.7875 18.0879 59.7604 18.1586 59.7059C18.2334 59.6516 18.2895 59.545 18.3269 59.3861H18.5264V61.0044H18.3269C18.2895 60.8455 18.2334 60.7389 18.1586 60.6845C18.0879 60.6301 17.9653 60.6029 17.7907 60.6029H14.2683ZM25.3731 60.7472V63.94C25.3731 64.0696 25.4023 64.1678 25.4604 64.2348C25.5186 64.3017 25.6225 64.356 25.7721 64.3979V64.5986H23.9953V64.3979C24.1449 64.356 24.2489 64.3017 24.3071 64.2348C24.3652 64.1678 24.3943 64.0696 24.3943 63.94V56.6888C24.3943 56.5634 24.3652 56.4672 24.3071 56.4004C24.2489 56.3334 24.1449 56.279 23.9953 56.2372V56.0365H28.4717C29.0993 56.0365 29.5877 56.07 29.9368 56.1369C30.286 56.2038 30.5977 56.325 30.8719 56.5007C31.1588 56.6763 31.3895 56.9168 31.564 57.222C31.7593 57.565 31.857 57.9497 31.857 58.3762C31.857 58.9617 31.6783 59.4635 31.3208 59.8816C31.0466 60.2036 30.6974 60.4294 30.2734 60.5591C29.8537 60.6845 29.2531 60.7472 28.4717 60.7472H25.3731ZM25.3731 59.9318H28.5652C29.0391 59.9318 29.3903 59.913 29.6188 59.8754C29.8516 59.8377 30.0594 59.7646 30.2423 59.6558C30.6662 59.4049 30.8782 58.9846 30.8782 58.395C30.8782 57.8012 30.6662 57.3788 30.2423 57.1279C30.0594 57.0192 29.8537 56.9461 29.625 56.9084C29.3965 56.8708 29.0432 56.852 28.5652 56.852H25.3731V59.9318ZM42.3447 60.6029H36.5154V63.8584C36.5154 64.0341 36.5404 64.1574 36.5903 64.2285C36.6443 64.2996 36.7524 64.356 36.9144 64.3979V64.5986H35.1377V64.3979C35.2997 64.356 35.4057 64.2996 35.4556 64.2285C35.5096 64.1574 35.5367 64.0341 35.5367 63.8584V56.7767C35.5367 56.6011 35.5096 56.4777 35.4556 56.4066C35.4016 56.3313 35.2956 56.2749 35.1377 56.2372V56.0365H36.9144V56.2372C36.7565 56.279 36.6505 56.3355 36.5965 56.4066C36.5425 56.4777 36.5154 56.6011 36.5154 56.7767V59.7875H42.3447V56.7767C42.3447 56.6011 42.3176 56.4777 42.2636 56.4066C42.2096 56.3313 42.1036 56.2749 41.9457 56.2372V56.0365H43.7226V56.2372C43.5645 56.279 43.4586 56.3355 43.4045 56.4066C43.3505 56.4777 43.3235 56.6011 43.3235 56.7767V63.8584C43.3235 64.0299 43.3505 64.1532 43.4045 64.2285C43.4586 64.2996 43.5645 64.356 43.7226 64.3979V64.5986H41.9457V64.3979C42.1036 64.356 42.2096 64.2996 42.2636 64.2285C42.3176 64.1574 42.3447 64.0341 42.3447 63.8584V60.6029ZM48.8922 60.6029V63.7832H54.3473C54.5219 63.7832 54.6445 63.756 54.7152 63.7016C54.79 63.6472 54.8461 63.5406 54.8835 63.3817H55.083V65H54.8898C54.8482 64.8411 54.79 64.7345 54.7152 64.6802C54.6445 64.6258 54.5219 64.5986 54.3473 64.5986H47.5143V64.3979C47.6764 64.356 47.7825 64.2996 47.8323 64.2285C47.8864 64.1574 47.9133 64.0341 47.9133 63.8584V56.7767C47.9133 56.6011 47.8864 56.4777 47.8323 56.4066C47.7783 56.3355 47.6723 56.279 47.5143 56.2372V56.0365H54.2663C54.4409 56.0365 54.5635 56.0094 54.6341 55.955C54.7048 55.9006 54.7609 55.7919 54.8024 55.6288H55.0019V57.2472H54.8024C54.7651 57.0924 54.7089 56.9878 54.6341 56.9335C54.5635 56.8791 54.4409 56.852 54.2663 56.852H48.8922V59.7875H52.4146C52.5892 59.7875 52.7118 59.7604 52.7825 59.7059C52.8573 59.6516 52.9134 59.545 52.9508 59.3861H53.1503V61.0044H52.9508C52.9134 60.8455 52.8573 60.7389 52.7825 60.6845C52.7118 60.6301 52.5892 60.6029 52.4146 60.6029H48.8922ZM59.997 60.7409V63.8584C59.997 64.0299 60.0241 64.1532 60.0781 64.2285C60.1322 64.2996 60.2381 64.356 60.3961 64.3979V64.5986H58.6193V64.3979C58.7772 64.356 58.8832 64.2996 58.9372 64.2285C58.9912 64.1574 59.0183 64.0341 59.0183 63.8584V56.7767C59.0183 56.6011 58.9912 56.4777 58.9372 56.4066C58.8832 56.3313 58.7772 56.2749 58.6193 56.2372V56.0365H63.2889C63.929 56.0365 64.4339 56.0721 64.8039 56.1432C65.1779 56.2101 65.5022 56.3292 65.7764 56.5007C66.0591 56.6763 66.2876 56.9168 66.4623 57.222C66.6618 57.5691 66.7615 57.9601 66.7615 58.395C66.7615 59.0473 66.5453 59.5805 66.1131 59.9945C65.685 60.4043 65.0948 60.6385 64.3425 60.697L66.5059 64.0843C66.6347 64.2933 66.8218 64.3979 67.067 64.3979V64.5986H65.0969V64.3979C65.3005 64.3644 65.4024 64.3059 65.4024 64.2222C65.4024 64.1804 65.3296 64.0445 65.1842 63.8145L63.2514 60.7409H59.997ZM59.997 59.9318H63.4447C63.9144 59.9318 64.2677 59.913 64.5046 59.8754C64.7456 59.8335 64.9577 59.7604 65.1405 59.6558C65.5686 59.4049 65.7827 58.9846 65.7827 58.395C65.7827 57.8012 65.5624 57.3788 65.1218 57.1279C64.9265 57.0192 64.7083 56.9461 64.4672 56.9084C64.2303 56.8708 63.8604 56.852 63.3574 56.852H59.997V59.9318ZM70.7466 63.9462V56.6888C70.7466 56.5634 70.7175 56.4672 70.6593 56.4004C70.6011 56.3334 70.4972 56.279 70.3476 56.2372V56.0365H74.8364C75.8547 56.0365 76.634 56.1787 77.1743 56.4631C77.856 56.8185 78.3755 57.3663 78.7329 58.1065C79.0447 58.7547 79.2006 59.4906 79.2006 60.3145C79.2006 61.2888 78.9907 62.1293 78.5709 62.836C78.1927 63.4632 77.7126 63.9149 77.1307 64.1909C76.553 64.4627 75.7882 64.5986 74.8364 64.5986H70.3476V64.3979C70.4972 64.356 70.6011 64.3017 70.6593 64.2348C70.7175 64.1678 70.7466 64.0717 70.7466 63.9462ZM71.7254 63.7832H74.799C75.701 63.7832 76.3701 63.6431 76.8065 63.3629C77.3219 63.0284 77.7002 62.5161 77.9412 61.8261C78.0992 61.3662 78.1781 60.8623 78.1781 60.3145C78.1781 59.3192 77.9266 58.4953 77.4237 57.843C77.1453 57.4834 76.8065 57.2283 76.4075 57.0778C76.0085 56.9272 75.4723 56.852 74.799 56.852H71.7254V63.7832Z"/>
</mask>
<path d="M9.41035 56.5634L8.51881 58.1817L8.34424 58.0876C8.4149 57.8994 8.45022 57.7824 8.45022 57.7364C8.45022 57.611 8.29644 57.475 7.98888 57.3287C7.15345 56.9356 6.26815 56.739 5.33297 56.739C4.56405 56.739 3.89489 56.8833 3.32547 57.1719C3.05115 57.314 2.83294 57.498 2.67085 57.7238C2.51291 57.9497 2.43393 58.188 2.43393 58.4389C2.43393 58.648 2.49628 58.8466 2.62097 59.0348C2.74566 59.2188 2.90983 59.3568 3.11349 59.4488C3.33794 59.5533 3.60186 59.6265 3.90528 59.6684C4.21285 59.7059 4.71161 59.7352 5.40156 59.7562C6.35752 59.7854 7.04123 59.8314 7.4527 59.8941C7.86418 59.9527 8.20293 60.0573 8.46893 60.2077C9.17549 60.605 9.52877 61.2093 9.52877 62.0206C9.52877 62.7942 9.20877 63.4277 8.56868 63.9211C7.85795 64.4732 6.87913 64.7491 5.63223 64.7491C4.91319 64.7491 4.28558 64.676 3.74942 64.5296C3.21324 64.3833 2.57317 64.1135 1.82919 63.7204C1.62137 63.6243 1.49876 63.5762 1.46135 63.5762C1.399 63.5762 1.30133 63.6514 1.16833 63.802L1 63.6953L1.93517 62.121L2.10974 62.2213C2.03077 62.3886 1.99128 62.5014 1.99128 62.56C1.99128 62.6938 2.25729 62.9008 2.7893 63.181C3.26728 63.4319 3.72655 63.6138 4.16713 63.7267C4.61186 63.8354 5.09398 63.8898 5.61353 63.8898C6.66508 63.8898 7.46309 63.6577 8.00758 63.1935C8.36918 62.8841 8.55001 62.5161 8.55001 62.0896C8.55001 61.5292 8.24033 61.1424 7.62104 60.9291C7.42153 60.858 7.21371 60.8142 6.99759 60.7974C6.78561 60.7765 6.17879 60.7472 5.17711 60.7095C4.46223 60.6803 3.90112 60.626 3.4938 60.5465C3.09064 60.4671 2.73112 60.3374 2.41523 60.1576C2.12013 59.9903 1.8853 59.7562 1.71073 59.4551C1.54032 59.154 1.45512 58.8257 1.45512 58.4703C1.45512 57.864 1.67956 57.3433 2.12845 56.9084C2.46095 56.5906 2.92023 56.3418 3.50627 56.162C4.09231 55.978 4.73446 55.8859 5.43273 55.8859C6.00214 55.8859 6.53 55.9425 7.01629 56.0554C7.50674 56.1682 8.05953 56.3627 8.67466 56.6387C8.81184 56.6973 8.89707 56.7265 8.93026 56.7265C9.00512 56.7265 9.10694 56.6428 9.23574 56.4756L9.41035 56.5634ZM14.2683 60.6029V63.7832H19.7234C19.898 63.7832 20.0206 63.756 20.0913 63.7016C20.1661 63.6472 20.2222 63.5406 20.2596 63.3817H20.4591V65H20.2658C20.2243 64.8411 20.1661 64.7345 20.0913 64.6802C20.0206 64.6258 19.898 64.5986 19.7234 64.5986H12.8904V64.3979C13.0525 64.356 13.1585 64.2996 13.2084 64.2285C13.2625 64.1574 13.2894 64.0341 13.2894 63.8584V56.7767C13.2894 56.6011 13.2625 56.4777 13.2084 56.4066C13.1544 56.3355 13.0483 56.279 12.8904 56.2372V56.0365H19.6424C19.817 56.0365 19.9396 56.0094 20.0102 55.955C20.0809 55.9006 20.137 55.7919 20.1785 55.6288H20.378V57.2472H20.1785C20.1412 57.0924 20.085 56.9878 20.0102 56.9335C19.9396 56.8791 19.817 56.852 19.6424 56.852H14.2683V59.7875H17.7907C17.9653 59.7875 18.0879 59.7604 18.1586 59.7059C18.2334 59.6516 18.2895 59.545 18.3269 59.3861H18.5264V61.0044H18.3269C18.2895 60.8455 18.2334 60.7389 18.1586 60.6845C18.0879 60.6301 17.9653 60.6029 17.7907 60.6029H14.2683ZM25.3731 60.7472V63.94C25.3731 64.0696 25.4023 64.1678 25.4604 64.2348C25.5186 64.3017 25.6225 64.356 25.7721 64.3979V64.5986H23.9953V64.3979C24.1449 64.356 24.2489 64.3017 24.3071 64.2348C24.3652 64.1678 24.3943 64.0696 24.3943 63.94V56.6888C24.3943 56.5634 24.3652 56.4672 24.3071 56.4004C24.2489 56.3334 24.1449 56.279 23.9953 56.2372V56.0365H28.4717C29.0993 56.0365 29.5877 56.07 29.9368 56.1369C30.286 56.2038 30.5977 56.325 30.8719 56.5007C31.1588 56.6763 31.3895 56.9168 31.564 57.222C31.7593 57.565 31.857 57.9497 31.857 58.3762C31.857 58.9617 31.6783 59.4635 31.3208 59.8816C31.0466 60.2036 30.6974 60.4294 30.2734 60.5591C29.8537 60.6845 29.2531 60.7472 28.4717 60.7472H25.3731ZM25.3731 59.9318H28.5652C29.0391 59.9318 29.3903 59.913 29.6188 59.8754C29.8516 59.8377 30.0594 59.7646 30.2423 59.6558C30.6662 59.4049 30.8782 58.9846 30.8782 58.395C30.8782 57.8012 30.6662 57.3788 30.2423 57.1279C30.0594 57.0192 29.8537 56.9461 29.625 56.9084C29.3965 56.8708 29.0432 56.852 28.5652 56.852H25.3731V59.9318ZM42.3447 60.6029H36.5154V63.8584C36.5154 64.0341 36.5404 64.1574 36.5903 64.2285C36.6443 64.2996 36.7524 64.356 36.9144 64.3979V64.5986H35.1377V64.3979C35.2997 64.356 35.4057 64.2996 35.4556 64.2285C35.5096 64.1574 35.5367 64.0341 35.5367 63.8584V56.7767C35.5367 56.6011 35.5096 56.4777 35.4556 56.4066C35.4016 56.3313 35.2956 56.2749 35.1377 56.2372V56.0365H36.9144V56.2372C36.7565 56.279 36.6505 56.3355 36.5965 56.4066C36.5425 56.4777 36.5154 56.6011 36.5154 56.7767V59.7875H42.3447V56.7767C42.3447 56.6011 42.3176 56.4777 42.2636 56.4066C42.2096 56.3313 42.1036 56.2749 41.9457 56.2372V56.0365H43.7226V56.2372C43.5645 56.279 43.4586 56.3355 43.4045 56.4066C43.3505 56.4777 43.3235 56.6011 43.3235 56.7767V63.8584C43.3235 64.0299 43.3505 64.1532 43.4045 64.2285C43.4586 64.2996 43.5645 64.356 43.7226 64.3979V64.5986H41.9457V64.3979C42.1036 64.356 42.2096 64.2996 42.2636 64.2285C42.3176 64.1574 42.3447 64.0341 42.3447 63.8584V60.6029ZM48.8922 60.6029V63.7832H54.3473C54.5219 63.7832 54.6445 63.756 54.7152 63.7016C54.79 63.6472 54.8461 63.5406 54.8835 63.3817H55.083V65H54.8898C54.8482 64.8411 54.79 64.7345 54.7152 64.6802C54.6445 64.6258 54.5219 64.5986 54.3473 64.5986H47.5143V64.3979C47.6764 64.356 47.7825 64.2996 47.8323 64.2285C47.8864 64.1574 47.9133 64.0341 47.9133 63.8584V56.7767C47.9133 56.6011 47.8864 56.4777 47.8323 56.4066C47.7783 56.3355 47.6723 56.279 47.5143 56.2372V56.0365H54.2663C54.4409 56.0365 54.5635 56.0094 54.6341 55.955C54.7048 55.9006 54.7609 55.7919 54.8024 55.6288H55.0019V57.2472H54.8024C54.7651 57.0924 54.7089 56.9878 54.6341 56.9335C54.5635 56.8791 54.4409 56.852 54.2663 56.852H48.8922V59.7875H52.4146C52.5892 59.7875 52.7118 59.7604 52.7825 59.7059C52.8573 59.6516 52.9134 59.545 52.9508 59.3861H53.1503V61.0044H52.9508C52.9134 60.8455 52.8573 60.7389 52.7825 60.6845C52.7118 60.6301 52.5892 60.6029 52.4146 60.6029H48.8922ZM59.997 60.7409V63.8584C59.997 64.0299 60.0241 64.1532 60.0781 64.2285C60.1322 64.2996 60.2381 64.356 60.3961 64.3979V64.5986H58.6193V64.3979C58.7772 64.356 58.8832 64.2996 58.9372 64.2285C58.9912 64.1574 59.0183 64.0341 59.0183 63.8584V56.7767C59.0183 56.6011 58.9912 56.4777 58.9372 56.4066C58.8832 56.3313 58.7772 56.2749 58.6193 56.2372V56.0365H63.2889C63.929 56.0365 64.4339 56.0721 64.8039 56.1432C65.1779 56.2101 65.5022 56.3292 65.7764 56.5007C66.0591 56.6763 66.2876 56.9168 66.4623 57.222C66.6618 57.5691 66.7615 57.9601 66.7615 58.395C66.7615 59.0473 66.5453 59.5805 66.1131 59.9945C65.685 60.4043 65.0948 60.6385 64.3425 60.697L66.5059 64.0843C66.6347 64.2933 66.8218 64.3979 67.067 64.3979V64.5986H65.0969V64.3979C65.3005 64.3644 65.4024 64.3059 65.4024 64.2222C65.4024 64.1804 65.3296 64.0445 65.1842 63.8145L63.2514 60.7409H59.997ZM59.997 59.9318H63.4447C63.9144 59.9318 64.2677 59.913 64.5046 59.8754C64.7456 59.8335 64.9577 59.7604 65.1405 59.6558C65.5686 59.4049 65.7827 58.9846 65.7827 58.395C65.7827 57.8012 65.5624 57.3788 65.1218 57.1279C64.9265 57.0192 64.7083 56.9461 64.4672 56.9084C64.2303 56.8708 63.8604 56.852 63.3574 56.852H59.997V59.9318ZM70.7466 63.9462V56.6888C70.7466 56.5634 70.7175 56.4672 70.6593 56.4004C70.6011 56.3334 70.4972 56.279 70.3476 56.2372V56.0365H74.8364C75.8547 56.0365 76.634 56.1787 77.1743 56.4631C77.856 56.8185 78.3755 57.3663 78.7329 58.1065C79.0447 58.7547 79.2006 59.4906 79.2006 60.3145C79.2006 61.2888 78.9907 62.1293 78.5709 62.836C78.1927 63.4632 77.7126 63.9149 77.1307 64.1909C76.553 64.4627 75.7882 64.5986 74.8364 64.5986H70.3476V64.3979C70.4972 64.356 70.6011 64.3017 70.6593 64.2348C70.7175 64.1678 70.7466 64.0717 70.7466 63.9462ZM71.7254 63.7832H74.799C75.701 63.7832 76.3701 63.6431 76.8065 63.3629C77.3219 63.0284 77.7002 62.5161 77.9412 61.8261C78.0992 61.3662 78.1781 60.8623 78.1781 60.3145C78.1781 59.3192 77.9266 58.4953 77.4237 57.843C77.1453 57.4834 76.8065 57.2283 76.4075 57.0778C76.0085 56.9272 75.4723 56.852 74.799 56.852H71.7254V63.7832Z" fill="#10151C"/>
<path d="M9.41035 56.5634L8.51881 58.1817L8.34424 58.0876C8.4149 57.8994 8.45022 57.7824 8.45022 57.7364C8.45022 57.611 8.29644 57.475 7.98888 57.3287C7.15345 56.9356 6.26815 56.739 5.33297 56.739C4.56405 56.739 3.89489 56.8833 3.32547 57.1719C3.05115 57.314 2.83294 57.498 2.67085 57.7238C2.51291 57.9497 2.43393 58.188 2.43393 58.4389C2.43393 58.648 2.49628 58.8466 2.62097 59.0348C2.74566 59.2188 2.90983 59.3568 3.11349 59.4488C3.33794 59.5533 3.60186 59.6265 3.90528 59.6684C4.21285 59.7059 4.71161 59.7352 5.40156 59.7562C6.35752 59.7854 7.04123 59.8314 7.4527 59.8941C7.86418 59.9527 8.20293 60.0573 8.46893 60.2077C9.17549 60.605 9.52877 61.2093 9.52877 62.0206C9.52877 62.7942 9.20877 63.4277 8.56868 63.9211C7.85795 64.4732 6.87913 64.7491 5.63223 64.7491C4.91319 64.7491 4.28558 64.676 3.74942 64.5296C3.21324 64.3833 2.57317 64.1135 1.82919 63.7204C1.62137 63.6243 1.49876 63.5762 1.46135 63.5762C1.399 63.5762 1.30133 63.6514 1.16833 63.802L1 63.6953L1.93517 62.121L2.10974 62.2213C2.03077 62.3886 1.99128 62.5014 1.99128 62.56C1.99128 62.6938 2.25729 62.9008 2.7893 63.181C3.26728 63.4319 3.72655 63.6138 4.16713 63.7267C4.61186 63.8354 5.09398 63.8898 5.61353 63.8898C6.66508 63.8898 7.46309 63.6577 8.00758 63.1935C8.36918 62.8841 8.55001 62.5161 8.55001 62.0896C8.55001 61.5292 8.24033 61.1424 7.62104 60.9291C7.42153 60.858 7.21371 60.8142 6.99759 60.7974C6.78561 60.7765 6.17879 60.7472 5.17711 60.7095C4.46223 60.6803 3.90112 60.626 3.4938 60.5465C3.09064 60.4671 2.73112 60.3374 2.41523 60.1576C2.12013 59.9903 1.8853 59.7562 1.71073 59.4551C1.54032 59.154 1.45512 58.8257 1.45512 58.4703C1.45512 57.864 1.67956 57.3433 2.12845 56.9084C2.46095 56.5906 2.92023 56.3418 3.50627 56.162C4.09231 55.978 4.73446 55.8859 5.43273 55.8859C6.00214 55.8859 6.53 55.9425 7.01629 56.0554C7.50674 56.1682 8.05953 56.3627 8.67466 56.6387C8.81184 56.6973 8.89707 56.7265 8.93026 56.7265C9.00512 56.7265 9.10694 56.6428 9.23574 56.4756L9.41035 56.5634ZM14.2683 60.6029V63.7832H19.7234C19.898 63.7832 20.0206 63.756 20.0913 63.7016C20.1661 63.6472 20.2222 63.5406 20.2596 63.3817H20.4591V65H20.2658C20.2243 64.8411 20.1661 64.7345 20.0913 64.6802C20.0206 64.6258 19.898 64.5986 19.7234 64.5986H12.8904V64.3979C13.0525 64.356 13.1585 64.2996 13.2084 64.2285C13.2625 64.1574 13.2894 64.0341 13.2894 63.8584V56.7767C13.2894 56.6011 13.2625 56.4777 13.2084 56.4066C13.1544 56.3355 13.0483 56.279 12.8904 56.2372V56.0365H19.6424C19.817 56.0365 19.9396 56.0094 20.0102 55.955C20.0809 55.9006 20.137 55.7919 20.1785 55.6288H20.378V57.2472H20.1785C20.1412 57.0924 20.085 56.9878 20.0102 56.9335C19.9396 56.8791 19.817 56.852 19.6424 56.852H14.2683V59.7875H17.7907C17.9653 59.7875 18.0879 59.7604 18.1586 59.7059C18.2334 59.6516 18.2895 59.545 18.3269 59.3861H18.5264V61.0044H18.3269C18.2895 60.8455 18.2334 60.7389 18.1586 60.6845C18.0879 60.6301 17.9653 60.6029 17.7907 60.6029H14.2683ZM25.3731 60.7472V63.94C25.3731 64.0696 25.4023 64.1678 25.4604 64.2348C25.5186 64.3017 25.6225 64.356 25.7721 64.3979V64.5986H23.9953V64.3979C24.1449 64.356 24.2489 64.3017 24.3071 64.2348C24.3652 64.1678 24.3943 64.0696 24.3943 63.94V56.6888C24.3943 56.5634 24.3652 56.4672 24.3071 56.4004C24.2489 56.3334 24.1449 56.279 23.9953 56.2372V56.0365H28.4717C29.0993 56.0365 29.5877 56.07 29.9368 56.1369C30.286 56.2038 30.5977 56.325 30.8719 56.5007C31.1588 56.6763 31.3895 56.9168 31.564 57.222C31.7593 57.565 31.857 57.9497 31.857 58.3762C31.857 58.9617 31.6783 59.4635 31.3208 59.8816C31.0466 60.2036 30.6974 60.4294 30.2734 60.5591C29.8537 60.6845 29.2531 60.7472 28.4717 60.7472H25.3731ZM25.3731 59.9318H28.5652C29.0391 59.9318 29.3903 59.913 29.6188 59.8754C29.8516 59.8377 30.0594 59.7646 30.2423 59.6558C30.6662 59.4049 30.8782 58.9846 30.8782 58.395C30.8782 57.8012 30.6662 57.3788 30.2423 57.1279C30.0594 57.0192 29.8537 56.9461 29.625 56.9084C29.3965 56.8708 29.0432 56.852 28.5652 56.852H25.3731V59.9318ZM42.3447 60.6029H36.5154V63.8584C36.5154 64.0341 36.5404 64.1574 36.5903 64.2285C36.6443 64.2996 36.7524 64.356 36.9144 64.3979V64.5986H35.1377V64.3979C35.2997 64.356 35.4057 64.2996 35.4556 64.2285C35.5096 64.1574 35.5367 64.0341 35.5367 63.8584V56.7767C35.5367 56.6011 35.5096 56.4777 35.4556 56.4066C35.4016 56.3313 35.2956 56.2749 35.1377 56.2372V56.0365H36.9144V56.2372C36.7565 56.279 36.6505 56.3355 36.5965 56.4066C36.5425 56.4777 36.5154 56.6011 36.5154 56.7767V59.7875H42.3447V56.7767C42.3447 56.6011 42.3176 56.4777 42.2636 56.4066C42.2096 56.3313 42.1036 56.2749 41.9457 56.2372V56.0365H43.7226V56.2372C43.5645 56.279 43.4586 56.3355 43.4045 56.4066C43.3505 56.4777 43.3235 56.6011 43.3235 56.7767V63.8584C43.3235 64.0299 43.3505 64.1532 43.4045 64.2285C43.4586 64.2996 43.5645 64.356 43.7226 64.3979V64.5986H41.9457V64.3979C42.1036 64.356 42.2096 64.2996 42.2636 64.2285C42.3176 64.1574 42.3447 64.0341 42.3447 63.8584V60.6029ZM48.8922 60.6029V63.7832H54.3473C54.5219 63.7832 54.6445 63.756 54.7152 63.7016C54.79 63.6472 54.8461 63.5406 54.8835 63.3817H55.083V65H54.8898C54.8482 64.8411 54.79 64.7345 54.7152 64.6802C54.6445 64.6258 54.5219 64.5986 54.3473 64.5986H47.5143V64.3979C47.6764 64.356 47.7825 64.2996 47.8323 64.2285C47.8864 64.1574 47.9133 64.0341 47.9133 63.8584V56.7767C47.9133 56.6011 47.8864 56.4777 47.8323 56.4066C47.7783 56.3355 47.6723 56.279 47.5143 56.2372V56.0365H54.2663C54.4409 56.0365 54.5635 56.0094 54.6341 55.955C54.7048 55.9006 54.7609 55.7919 54.8024 55.6288H55.0019V57.2472H54.8024C54.7651 57.0924 54.7089 56.9878 54.6341 56.9335C54.5635 56.8791 54.4409 56.852 54.2663 56.852H48.8922V59.7875H52.4146C52.5892 59.7875 52.7118 59.7604 52.7825 59.7059C52.8573 59.6516 52.9134 59.545 52.9508 59.3861H53.1503V61.0044H52.9508C52.9134 60.8455 52.8573 60.7389 52.7825 60.6845C52.7118 60.6301 52.5892 60.6029 52.4146 60.6029H48.8922ZM59.997 60.7409V63.8584C59.997 64.0299 60.0241 64.1532 60.0781 64.2285C60.1322 64.2996 60.2381 64.356 60.3961 64.3979V64.5986H58.6193V64.3979C58.7772 64.356 58.8832 64.2996 58.9372 64.2285C58.9912 64.1574 59.0183 64.0341 59.0183 63.8584V56.7767C59.0183 56.6011 58.9912 56.4777 58.9372 56.4066C58.8832 56.3313 58.7772 56.2749 58.6193 56.2372V56.0365H63.2889C63.929 56.0365 64.4339 56.0721 64.8039 56.1432C65.1779 56.2101 65.5022 56.3292 65.7764 56.5007C66.0591 56.6763 66.2876 56.9168 66.4623 57.222C66.6618 57.5691 66.7615 57.9601 66.7615 58.395C66.7615 59.0473 66.5453 59.5805 66.1131 59.9945C65.685 60.4043 65.0948 60.6385 64.3425 60.697L66.5059 64.0843C66.6347 64.2933 66.8218 64.3979 67.067 64.3979V64.5986H65.0969V64.3979C65.3005 64.3644 65.4024 64.3059 65.4024 64.2222C65.4024 64.1804 65.3296 64.0445 65.1842 63.8145L63.2514 60.7409H59.997ZM59.997 59.9318H63.4447C63.9144 59.9318 64.2677 59.913 64.5046 59.8754C64.7456 59.8335 64.9577 59.7604 65.1405 59.6558C65.5686 59.4049 65.7827 58.9846 65.7827 58.395C65.7827 57.8012 65.5624 57.3788 65.1218 57.1279C64.9265 57.0192 64.7083 56.9461 64.4672 56.9084C64.2303 56.8708 63.8604 56.852 63.3574 56.852H59.997V59.9318ZM70.7466 63.9462V56.6888C70.7466 56.5634 70.7175 56.4672 70.6593 56.4004C70.6011 56.3334 70.4972 56.279 70.3476 56.2372V56.0365H74.8364C75.8547 56.0365 76.634 56.1787 77.1743 56.4631C77.856 56.8185 78.3755 57.3663 78.7329 58.1065C79.0447 58.7547 79.2006 59.4906 79.2006 60.3145C79.2006 61.2888 78.9907 62.1293 78.5709 62.836C78.1927 63.4632 77.7126 63.9149 77.1307 64.1909C76.553 64.4627 75.7882 64.5986 74.8364 64.5986H70.3476V64.3979C70.4972 64.356 70.6011 64.3017 70.6593 64.2348C70.7175 64.1678 70.7466 64.0717 70.7466 63.9462ZM71.7254 63.7832H74.799C75.701 63.7832 76.3701 63.6431 76.8065 63.3629C77.3219 63.0284 77.7002 62.5161 77.9412 61.8261C78.0992 61.3662 78.1781 60.8623 78.1781 60.3145C78.1781 59.3192 77.9266 58.4953 77.4237 57.843C77.1453 57.4834 76.8065 57.2283 76.4075 57.0778C76.0085 56.9272 75.4723 56.852 74.799 56.852H71.7254V63.7832Z" stroke="#10151C" stroke-width="0.8" mask="url(#path-2-outside-1_240_1891)"/>
</svg>
