<svg width="62" height="16" viewBox="0 0 62 16" fill="none" xmlns="http://www.w3.org/2000/svg">
<path d="M9.904 2.272V3.92H1.056V2.272H4.432V0.688H6.544V2.272H9.904ZM3.84 7.264C3.84 8.032 4.512 8.448 5.488 8.448C6.48 8.448 7.136 8.032 7.136 7.264C7.136 6.512 6.48 6.096 5.488 6.096C4.512 6.096 3.84 6.512 3.84 7.264ZM6.544 9.936V11.104C7.744 11.024 8.944 10.944 10.096 10.784L10.256 12.32C7.04 12.912 3.632 12.928 1.024 12.928L0.768 11.216C1.872 11.216 3.12 11.216 4.432 11.184V9.936C2.848 9.632 1.824 8.64 1.824 7.264C1.824 5.616 3.328 4.496 5.488 4.496C7.632 4.496 9.136 5.616 9.136 7.264C9.136 8.64 8.112 9.632 6.544 9.936ZM10.864 0.639999H12.976V15.376H10.864V0.639999ZM20.9908 1.776V3.92C20.9908 6.576 22.0308 9.248 24.3988 10.416L23.1188 12.08C21.5828 11.296 20.5427 9.872 19.9348 8.112C19.2948 9.984 18.1908 11.536 16.5267 12.352L15.2627 10.64C17.7427 9.472 18.8628 6.656 18.8628 3.92V1.776H20.9908ZM29.2468 6.304V8.064H27.1028V15.376H24.9908V0.639999H27.1028V6.304H29.2468ZM47.1265 7.36L46.2625 9.104C43.6705 8.64 41.7825 7.264 40.8225 5.44C39.8625 7.248 37.9905 8.64 35.4145 9.104L34.5505 7.36C37.8785 6.816 39.7025 4.56 39.7025 2.512V1.456H41.9585V2.512C41.9585 4.608 43.7665 6.816 47.1265 7.36ZM41.8945 11.936H47.5745V13.632H34.2305V11.936H39.7825V8.64H41.8945V11.936ZM49.6692 2.464H55.4772C55.4772 6.592 54.2612 9.968 50.1492 12.368L48.9172 10.896C51.8772 9.168 53.1252 7.04 53.3972 4.144H49.6692V2.464ZM59.7172 0.639999H61.7332V15.376H59.7172V7.888H58.4052V14.752H56.4373V1.024H58.4052V6.192H59.7172V0.639999Z" fill="black" fill-opacity="0.9"/>
</svg>
