<svg width="92" height="16" viewBox="0 0 92 16" fill="none" xmlns="http://www.w3.org/2000/svg">
<path d="M5.056 3.584V4.88C5.056 7.376 6.128 9.872 8.112 10.992L7.312 11.952C5.92 11.12 4.928 9.584 4.432 7.76C3.936 9.728 2.896 11.408 1.472 12.304L0.672 11.328C2.672 10.128 3.792 7.52 3.792 4.88V3.584H1.072V2.512H7.616V3.584H5.056ZM8.896 5.984V1.152H10.144V14.432H8.896V7.056H6.528V5.984H8.896ZM11.776 0.815999H13.04V15.168H11.776V0.815999ZM23.9827 5.36V2.352H20.4148V5.36H23.9827ZM19.1027 5.36V2.352H16.9427V1.296H27.4708V2.352H25.2948V5.36H27.4068V6.416H16.9907V5.36H19.1027ZM25.8388 13.936V11.552H18.6068V13.936H25.8388ZM28.7028 8.832H22.8787V10.512H27.1188V14.992H17.3268V10.512H21.5668V8.832H15.7267V7.776H28.7028V8.832ZM36.2636 3.296V10.512C38.8076 10.512 40.6476 10.4 42.7276 10.032L42.8716 11.12C40.6796 11.536 38.7916 11.632 36.0876 11.632H34.9516V2.208H41.6236V3.296H36.2636ZM47.7516 6.496V7.584H45.3836V15.216H44.0716V0.832H45.3836V6.496H47.7516ZM55.7024 2.256C53.5104 2.256 52.0544 2.944 52.0544 4.08C52.0544 5.2 53.5104 5.888 55.7024 5.888C57.9104 5.888 59.3504 5.2 59.3504 4.08C59.3504 2.944 57.9104 2.256 55.7024 2.256ZM55.7024 6.96C52.6624 6.96 50.6784 5.856 50.6784 4.08C50.6784 2.304 52.6624 1.2 55.7024 1.2C58.7424 1.2 60.7264 2.304 60.7264 4.08C60.7264 5.856 58.7424 6.96 55.7024 6.96ZM52.1824 10.672V13.776H60.7904V14.864H50.8704V10.672H52.1824ZM49.2064 8.112H62.2144V9.184H56.4864V12.08H55.1584V9.184H49.2064V8.112ZM71.2531 12.336H77.1251V13.408H64.0851V12.336H69.9251V9.632H65.7171V5.2H74.2291V2.96H65.6851V1.888H75.5091V6.256H67.0131V8.576H75.8451V9.632H71.2531V12.336ZM90.4839 7.712V8.784H80.6279V2.144H90.3399V3.232H81.9239V7.712H90.4839ZM78.9639 12.16H91.9879V13.248H78.9639V12.16Z" fill="black" fill-opacity="0.9"/>
</svg>
