<svg width="62" height="16" viewBox="0 0 62 16" fill="none" xmlns="http://www.w3.org/2000/svg">
<path d="M9.952 2.592V3.648H1.232V2.592H4.944V0.832H6.256V2.592H9.952ZM3.392 7.12C3.392 8.112 4.288 8.752 5.6 8.752C6.896 8.752 7.792 8.112 7.792 7.12C7.792 6.112 6.896 5.472 5.6 5.472C4.288 5.472 3.392 6.112 3.392 7.12ZM6.256 9.744V11.248C7.616 11.184 9.008 11.088 10.32 10.912L10.416 11.888C7.216 12.416 3.76 12.464 1.12 12.464L0.928 11.36C2.144 11.36 3.52 11.344 4.944 11.296V9.76C3.248 9.552 2.144 8.56 2.144 7.12C2.144 5.504 3.552 4.464 5.6 4.464C7.648 4.464 9.04 5.504 9.04 7.12C9.04 8.544 7.952 9.536 6.256 9.744ZM11.232 0.832H12.544V15.184H11.232V0.832ZM20.5427 2.08V4.656C20.5427 7.184 22.1748 9.792 24.1908 10.8L23.3748 11.84C21.8548 11.024 20.5588 9.344 19.9028 7.376C19.2787 9.472 17.9507 11.264 16.3347 12.128L15.5507 11.072C17.6147 10.016 19.2467 7.264 19.2467 4.656V2.08H20.5427ZM29.1348 6.656V7.744H26.7668V15.184H25.4548V0.848H26.7668V6.656H29.1348ZM46.7276 7.84L46.1676 8.928C43.9756 8.464 41.7196 6.976 40.7916 4.928C39.8636 6.976 37.6236 8.464 35.4156 8.928L34.8716 7.84C37.3836 7.392 40.1036 5.28 40.1036 2.896V1.792H41.4796V2.896C41.4796 5.28 44.2156 7.392 46.7276 7.84ZM41.4476 12.24H47.3676V13.312H34.3436V12.24H40.1356V8.752H41.4476V12.24ZM49.7664 2.688H55.3664C55.3664 6.384 54.0704 9.808 49.9904 12.112L49.2224 11.168C52.5184 9.328 53.8784 6.736 54.0704 3.76H49.7664V2.688ZM60.1344 0.832H61.3984V15.184H60.1344V7.68H58.1824V14.464H56.9504V1.216H58.1824V6.608H60.1344V0.832Z" fill="black" fill-opacity="0.9"/>
</svg>
