<svg width="62" height="16" viewBox="0 0 62 16" fill="none" xmlns="http://www.w3.org/2000/svg">
<path d="M5.056 3.584V4.88C5.056 7.376 6.128 9.872 8.112 10.992L7.312 11.952C5.92 11.12 4.928 9.584 4.432 7.76C3.936 9.728 2.896 11.408 1.472 12.304L0.672 11.328C2.672 10.128 3.792 7.52 3.792 4.88V3.584H1.072V2.512H7.616V3.584H5.056ZM8.896 5.984V1.152H10.144V14.432H8.896V7.056H6.528V5.984H8.896ZM11.776 0.815999H13.04V15.168H11.776V0.815999ZM23.9827 5.36V2.352H20.4148V5.36H23.9827ZM19.1027 5.36V2.352H16.9427V1.296H27.4708V2.352H25.2948V5.36H27.4068V6.416H16.9907V5.36H19.1027ZM25.8388 13.936V11.552H18.6068V13.936H25.8388ZM28.7028 8.832H22.8787V10.512H27.1188V14.992H17.3268V10.512H21.5668V8.832H15.7267V7.776H28.7028V8.832ZM46.7276 7.84L46.1676 8.928C43.9756 8.464 41.7196 6.976 40.7916 4.928C39.8636 6.976 37.6236 8.464 35.4156 8.928L34.8716 7.84C37.3836 7.392 40.1036 5.28 40.1036 2.896V1.792H41.4796V2.896C41.4796 5.28 44.2156 7.392 46.7276 7.84ZM41.4476 12.24H47.3676V13.312H34.3436V12.24H40.1356V8.752H41.4476V12.24ZM49.7664 2.688H55.3664C55.3664 6.384 54.0704 9.808 49.9904 12.112L49.2224 11.168C52.5184 9.328 53.8784 6.736 54.0704 3.76H49.7664V2.688ZM60.1344 0.832H61.3984V15.184H60.1344V7.68H58.1824V14.464H56.9504V1.216H58.1824V6.608H60.1344V0.832Z" fill="black" fill-opacity="0.9"/>
</svg>
