<svg width="62" height="16" viewBox="0 0 62 16" fill="none" xmlns="http://www.w3.org/2000/svg">
<path d="M5.36 3.824V4.544C5.36 7.008 6.08 9.488 8.208 10.736L6.976 12.272C5.68 11.488 4.832 10.224 4.352 8.672C3.84 10.352 2.976 11.792 1.648 12.624L0.4 11.072C2.544 9.712 3.312 7.072 3.312 4.544V3.824H0.944V2.112H7.504V3.824H5.36ZM8.352 5.664V0.879999H10.32V14.704H8.352V7.376H6.48V5.664H8.352ZM11.328 0.624H13.328V15.36H11.328V0.624ZM23.7268 4.944V2.72H20.7028V4.944H23.7268ZM18.6068 4.944V2.72H16.7347V1.04H27.6948V2.72H25.8228V4.944H27.5828V6.624H16.8307V4.944H18.6068ZM25.2148 13.552V12.064H19.1828V13.552H25.2148ZM28.8788 9.216H23.2788V10.416H27.2948V15.2H17.1187V10.416H21.1667V9.216H15.5667V7.536H28.8788V9.216ZM47.1265 7.36L46.2625 9.104C43.6705 8.64 41.7825 7.264 40.8225 5.44C39.8625 7.248 37.9905 8.64 35.4145 9.104L34.5505 7.36C37.8785 6.816 39.7025 4.56 39.7025 2.512V1.456H41.9585V2.512C41.9585 4.608 43.7665 6.816 47.1265 7.36ZM41.8945 11.936H47.5745V13.632H34.2305V11.936H39.7825V8.64H41.8945V11.936ZM49.6692 2.464H55.4772C55.4772 6.592 54.2612 9.968 50.1492 12.368L48.9172 10.896C51.8772 9.168 53.1252 7.04 53.3972 4.144H49.6692V2.464ZM59.7172 0.639999H61.7332V15.376H59.7172V7.888H58.4052V14.752H56.4373V1.024H58.4052V6.192H59.7172V0.639999Z" fill="black" fill-opacity="0.9"/>
</svg>
