<svg width="302" height="14" viewBox="0 0 302 14" fill="none" xmlns="http://www.w3.org/2000/svg">
<path d="M3.588 8.53V10.545H10.179V11.91H1.872V8.53H3.588ZM3.64 3.07V4.11H8.307V3.07H3.64ZM6.812 6.463H11.388V7.828H0.559V6.463H5.096V5.462H1.937V0.573999H3.64V1.744H8.307V0.573999H10.01V5.462H6.812V6.463ZM17.965 1.068V2.81C17.965 4.968 18.81 7.139 20.734 8.088L19.694 9.44C18.446 8.803 17.601 7.646 17.107 6.216C16.587 7.737 15.69 8.998 14.338 9.661L13.311 8.27C15.326 7.321 16.236 5.033 16.236 2.81V1.068H17.965ZM24.673 4.747V6.177H22.931V12.118H21.215V0.145H22.931V4.747H24.673ZM34.0668 1.406V3.59C34.0668 5.462 34.9378 7.438 36.4718 8.374L35.8608 9.206C34.7558 8.53 33.9758 7.295 33.5598 5.878C33.1438 7.425 32.2988 8.738 31.1418 9.453L30.4788 8.66C32.0778 7.724 33.0398 5.631 33.0398 3.629V1.406H34.0668ZM37.1348 4.487V0.561H38.1358V11.39H37.1348V5.371H35.2108V4.487H37.1348ZM39.5008 0.301H40.5148V11.962H39.5008V0.301ZM44.5828 5.02L44.1928 4.175C46.2468 3.967 48.1058 2.979 48.1968 1.692H44.5828V0.833999H53.2018V1.692H49.5748C49.6658 2.979 51.5378 3.967 53.5788 4.175L53.2018 5.02C51.2778 4.799 49.5358 3.954 48.8858 2.68C48.2358 3.954 46.4938 4.799 44.5828 5.02ZM48.8728 11.13C50.7058 11.13 51.7848 10.701 51.7848 9.934C51.7848 9.18 50.7058 8.751 48.8728 8.751C47.0268 8.751 45.9608 9.18 45.9608 9.934C45.9608 10.701 47.0268 11.13 48.8728 11.13ZM48.8728 7.932C51.3688 7.932 52.8638 8.647 52.8638 9.934C52.8638 11.234 51.3688 11.949 48.8728 11.949C46.3768 11.949 44.8818 11.234 44.8818 9.934C44.8818 8.647 46.3768 7.932 48.8728 7.932ZM49.4058 6.112H54.1508V6.97H43.6078V6.112H48.3398V4.435H49.4058V6.112ZM65.9148 4.526V5.358H57.9848V0.613H65.8498V1.445H59.0508V2.55H65.5378V3.356H59.0508V4.526H65.9148ZM57.7768 9.297V8.452H65.7848V11.975H64.7188V9.297H57.7768ZM56.5938 6.463H67.1498V7.321H56.5938V6.463ZM78.1338 2.797H75.4428V4.084H78.1338V2.797ZM74.3898 5.072V3.343H71.2438V5.072H74.3898ZM75.4428 4.916V5.93H70.1908V0.847H71.2438V2.511H74.3898V0.86H75.4428V1.965H78.1338V0.314H79.1998V6.398H78.1338V4.916H75.4428ZM72.7648 10.961H79.6418V11.806H71.7118V8.92H78.1468V7.802H71.6858V6.957H79.1998V9.726H72.7648V10.961ZM86.5307 2.381V3.863C86.5307 5.722 87.8567 7.789 89.5467 8.582L88.9357 9.44C87.6357 8.79 86.5437 7.425 86.0107 5.865C85.4777 7.568 84.3467 9.05 83.0337 9.726L82.4097 8.881C84.0737 8.049 85.4777 5.839 85.4777 3.863V2.381H82.8127V1.497H89.1177V2.381H86.5307ZM93.4987 5.007V5.904H91.5747V11.962H90.5087V0.314H91.5747V5.007H93.4987ZM99.8937 3.174V4.071C99.8937 6.021 101.22 7.919 102.949 8.673L102.364 9.505C101.025 8.894 99.9197 7.633 99.3867 6.099C98.8667 7.724 97.7617 9.05 96.4227 9.7L95.8247 8.894C97.5537 8.075 98.8407 6.112 98.8407 4.071V3.174H96.1367V2.316H98.8277V0.508999H99.9067V2.316H102.559V3.174H99.8937ZM104.08 0.287999H105.159V11.949H104.08V0.287999ZM112.737 1.315V3.408C112.737 5.54 114.128 7.685 115.857 8.465L115.22 9.323C113.894 8.673 112.776 7.295 112.217 5.631C111.684 7.386 110.566 8.842 109.201 9.544L108.551 8.673C110.267 7.854 111.684 5.618 111.684 3.408V1.315H112.737ZM117.079 0.301H118.145V11.988H117.079V0.301ZM126.511 7.178L126.056 6.307C128.071 5.969 130.281 4.344 130.281 2.485V2.238H126.42V1.367H135.247V2.238H131.386V2.485C131.386 4.344 133.609 5.943 135.637 6.268L135.208 7.126C133.427 6.775 131.581 5.631 130.84 4.032C130.099 5.644 128.266 6.801 126.511 7.178ZM131.373 9.583H136.131V10.467H125.549V9.583H130.307V6.762H131.373V9.583ZM142.838 3.174V4.071C142.838 6.021 144.164 7.919 145.893 8.673L145.308 9.505C143.969 8.894 142.864 7.633 142.331 6.099C141.811 7.724 140.706 9.05 139.367 9.7L138.769 8.894C140.498 8.075 141.785 6.112 141.785 4.071V3.174H139.081V2.316H141.772V0.508999H142.851V2.316H145.503V3.174H142.838ZM147.024 0.287999H148.103V11.949H147.024V0.287999ZM157.657 7.191H160.023V0.301H161.089V9.18H160.023V7.984H157.657V7.191ZM155.278 1.562C154.173 1.562 153.419 2.056 153.419 2.797C153.419 3.551 154.173 4.045 155.278 4.045C156.383 4.045 157.137 3.551 157.137 2.797C157.137 2.056 156.383 1.562 155.278 1.562ZM155.278 4.838C153.575 4.838 152.405 4.045 152.405 2.797C152.405 1.575 153.575 0.768999 155.278 0.768999C156.981 0.768999 158.151 1.575 158.151 2.797C158.151 4.045 156.981 4.838 155.278 4.838ZM154.862 8.764V6.515C153.705 6.567 152.587 6.58 151.625 6.58L151.482 5.696C153.64 5.696 156.526 5.67 158.996 5.358L159.087 6.125C158.06 6.281 156.981 6.398 155.928 6.463V8.764H154.862ZM154.212 10.831H161.388V11.702H153.146V8.309H154.212V10.831ZM169.811 0.521999C172.346 0.521999 173.906 1.315 173.906 2.667C173.906 4.032 172.346 4.825 169.811 4.825C167.276 4.825 165.716 4.032 165.716 2.667C165.716 1.315 167.276 0.521999 169.811 0.521999ZM169.811 1.341C167.952 1.341 166.808 1.835 166.808 2.667C166.808 3.512 167.952 4.006 169.811 4.006C171.67 4.006 172.814 3.512 172.814 2.667C172.814 1.835 171.67 1.341 169.811 1.341ZM165.872 7.386H166.925V8.66H172.684V7.386H173.75V11.806H165.872V7.386ZM166.925 9.479V10.948H172.684V9.479H166.925ZM164.533 5.761H175.089V6.619H164.533V5.761ZM184.95 1.406V3.59C184.95 5.462 185.821 7.438 187.355 8.374L186.744 9.206C185.639 8.53 184.859 7.295 184.443 5.878C184.027 7.425 183.182 8.738 182.025 9.453L181.362 8.66C182.961 7.724 183.923 5.631 183.923 3.629V1.406H184.95ZM188.018 4.487V0.561H189.019V11.39H188.018V5.371H186.094V4.487H188.018ZM190.384 0.301H191.398V11.962H190.384V0.301ZM195.466 5.02L195.076 4.175C197.13 3.967 198.989 2.979 199.08 1.692H195.466V0.833999H204.085V1.692H200.458C200.549 2.979 202.421 3.967 204.462 4.175L204.085 5.02C202.161 4.799 200.419 3.954 199.769 2.68C199.119 3.954 197.377 4.799 195.466 5.02ZM199.756 11.13C201.589 11.13 202.668 10.701 202.668 9.934C202.668 9.18 201.589 8.751 199.756 8.751C197.91 8.751 196.844 9.18 196.844 9.934C196.844 10.701 197.91 11.13 199.756 11.13ZM199.756 7.932C202.252 7.932 203.747 8.647 203.747 9.934C203.747 11.234 202.252 11.949 199.756 11.949C197.26 11.949 195.765 11.234 195.765 9.934C195.765 8.647 197.26 7.932 199.756 7.932ZM200.289 6.112H205.034V6.97H194.491V6.112H199.223V4.435H200.289V6.112ZM213.301 9.648H218.072V10.519H207.477V9.648H212.222V7.451H208.803V3.85H215.719V2.03H208.777V1.159H216.759V4.708H209.856V6.593H217.032V7.451H213.301V9.648ZM224.319 11V10.298C227.309 7.685 228.687 5.787 228.687 4.149C228.687 3.057 228.115 2.264 226.932 2.264C226.152 2.264 225.476 2.745 224.956 3.369L224.267 2.693C225.047 1.848 225.866 1.289 227.075 1.289C228.778 1.289 229.844 2.407 229.844 4.11C229.844 6.008 228.349 7.945 226.113 10.064C226.607 10.025 227.192 9.973 227.673 9.973H230.312V11H224.319ZM235.807 5.969C235.209 5.969 234.442 6.32 233.857 7.191C234 9.167 234.715 10.246 235.911 10.246C236.821 10.246 237.536 9.375 237.536 8.075C237.536 6.788 236.964 5.969 235.807 5.969ZM235.911 11.169C234.078 11.169 232.726 9.596 232.726 6.45C232.726 2.719 234.403 1.289 236.249 1.289C237.237 1.289 237.952 1.705 238.472 2.264L237.822 3.005C237.445 2.55 236.873 2.277 236.288 2.277C234.988 2.277 233.883 3.278 233.831 6.242C234.416 5.527 235.248 5.085 236.002 5.085C237.614 5.085 238.641 6.086 238.641 8.075C238.641 9.921 237.393 11.169 235.911 11.169ZM243.681 11.169C242.186 11.169 241.25 10.545 240.626 9.869L241.224 9.089C241.783 9.674 242.511 10.181 243.59 10.181C244.721 10.181 245.527 9.505 245.527 8.4C245.527 7.269 244.76 6.502 242.563 6.502V5.592C244.526 5.592 245.202 4.799 245.202 3.772C245.202 2.862 244.578 2.264 243.59 2.264C242.823 2.264 242.147 2.641 241.614 3.187L240.977 2.433C241.692 1.77 242.537 1.289 243.642 1.289C245.241 1.289 246.411 2.173 246.411 3.681C246.411 4.838 245.722 5.605 244.721 5.982V6.034C245.839 6.294 246.736 7.152 246.736 8.452C246.736 10.155 245.371 11.169 243.681 11.169ZM250.19 4.383C250.19 5.67 250.762 6.502 251.893 6.502C252.543 6.502 253.271 6.125 253.882 5.228C253.752 3.265 253.024 2.225 251.802 2.225C250.892 2.225 250.19 3.083 250.19 4.383ZM251.542 11.169C250.515 11.169 249.787 10.753 249.254 10.194L249.917 9.453C250.307 9.908 250.892 10.181 251.503 10.181C252.738 10.181 253.804 9.167 253.895 6.216C253.31 6.931 252.491 7.386 251.698 7.386C250.112 7.386 249.072 6.359 249.072 4.383C249.072 2.537 250.32 1.289 251.802 1.289C253.635 1.289 255 2.797 255 5.826C255 9.687 253.336 11.169 251.542 11.169ZM257.726 13.47L257.44 12.768C258.259 12.404 258.74 11.767 258.74 11C258.688 11.013 258.649 11.013 258.597 11.013C258.142 11.013 257.726 10.727 257.726 10.181C257.726 9.674 258.142 9.349 258.623 9.349C259.247 9.349 259.624 9.882 259.624 10.753C259.624 12.001 258.896 12.976 257.726 13.47ZM268.788 11.169C267.293 11.169 266.357 10.545 265.733 9.869L266.331 9.089C266.89 9.674 267.618 10.181 268.697 10.181C269.828 10.181 270.634 9.505 270.634 8.4C270.634 7.269 269.867 6.502 267.67 6.502V5.592C269.633 5.592 270.309 4.799 270.309 3.772C270.309 2.862 269.685 2.264 268.697 2.264C267.93 2.264 267.254 2.641 266.721 3.187L266.084 2.433C266.799 1.77 267.644 1.289 268.749 1.289C270.348 1.289 271.518 2.173 271.518 3.681C271.518 4.838 270.829 5.605 269.828 5.982V6.034C270.946 6.294 271.843 7.152 271.843 8.452C271.843 10.155 270.478 11.169 268.788 11.169ZM277.221 11.169C275.401 11.169 274.244 9.518 274.244 6.203C274.244 2.888 275.401 1.289 277.221 1.289C279.028 1.289 280.185 2.901 280.185 6.203C280.185 9.518 279.028 11.169 277.221 11.169ZM277.221 10.22C278.3 10.22 279.028 9.011 279.028 6.203C279.028 3.421 278.3 2.238 277.221 2.238C276.129 2.238 275.401 3.421 275.401 6.203C275.401 9.011 276.129 10.22 277.221 10.22ZM285.485 11.169C283.73 11.169 282.443 10.103 282.443 8.634C282.443 7.36 283.327 6.476 284.198 6.008V5.943C283.496 5.462 282.911 4.747 282.911 3.746C282.911 2.29 284.042 1.328 285.524 1.328C287.149 1.328 288.137 2.368 288.137 3.837C288.137 4.838 287.435 5.696 286.863 6.138V6.203C287.695 6.684 288.475 7.399 288.475 8.699C288.475 10.09 287.279 11.169 285.485 11.169ZM286.135 5.826C286.785 5.254 287.123 4.604 287.123 3.902C287.123 2.966 286.538 2.199 285.511 2.199C284.627 2.199 283.99 2.823 283.99 3.746C283.99 4.89 285.017 5.384 286.135 5.826ZM285.511 10.285C286.603 10.285 287.344 9.622 287.344 8.673C287.344 7.399 286.174 6.918 284.822 6.372C284.055 6.866 283.522 7.62 283.522 8.53C283.522 9.544 284.367 10.285 285.511 10.285ZM300.782 2.004V2.875H291.318V2.004H295.543V0.483H296.609V2.004H300.782ZM293.32 5.878C293.32 6.749 294.373 7.269 296.076 7.269C297.753 7.269 298.793 6.749 298.793 5.878C298.793 5.02 297.753 4.5 296.076 4.5C294.373 4.5 293.32 5.02 293.32 5.878ZM296.609 9.726H301.367V10.597H290.798V9.726H295.543V8.088C293.489 7.971 292.241 7.178 292.241 5.878C292.241 4.474 293.71 3.668 296.076 3.668C298.403 3.668 299.872 4.474 299.872 5.878C299.872 7.178 298.637 7.958 296.609 8.088V9.726Z" fill="black" fill-opacity="0.79"/>
</svg>
