<svg width="149" height="14" viewBox="0 0 149 14" fill="none" xmlns="http://www.w3.org/2000/svg">
<path d="M4.03 7.789V2.719H2.496V7.789H4.03ZM6.773 4.487V0.326999H8.372V11.572H6.773V5.878H5.616V9.128H0.897V1.367H5.616V4.487H6.773ZM9.204 0.132H10.829V12.105H9.204V0.132ZM23.503 0.145V6.138H21.774V0.145H23.503ZM15.391 3.226C15.391 4.084 16.054 4.578 16.938 4.578C17.822 4.578 18.459 4.084 18.459 3.226C18.459 2.381 17.822 1.874 16.938 1.874C16.054 1.874 15.391 2.381 15.391 3.226ZM20.123 3.226C20.123 4.825 18.758 5.969 16.938 5.969C15.105 5.969 13.727 4.825 13.727 3.226C13.727 1.64 15.105 0.496 16.938 0.496C18.758 0.496 20.123 1.64 20.123 3.226ZM17.237 10.649H23.802V11.975H15.534V8.673H21.8V7.945H15.521V6.632H23.503V9.895H17.237V10.649ZM31.1158 11V0.651999H32.2988V3.486L32.2598 4.942C32.9098 4.292 33.6378 3.759 34.5998 3.759C36.0818 3.759 36.7578 4.721 36.7578 6.528V11H35.5748V6.684C35.5748 5.358 35.1718 4.799 34.2358 4.799C33.5078 4.799 33.0138 5.163 32.2988 5.878V11H31.1158ZM42.8993 11.169C41.0273 11.169 39.5193 9.804 39.5193 7.477C39.5193 5.189 41.0663 3.759 42.7043 3.759C44.4983 3.759 45.5123 5.059 45.5123 7.074C45.5123 7.334 45.4863 7.581 45.4603 7.75H40.7023C40.7803 9.258 41.7033 10.22 43.0423 10.22C43.7313 10.22 44.2903 10.012 44.8103 9.661L45.2393 10.441C44.6153 10.844 43.8613 11.169 42.8993 11.169ZM40.6893 6.892H44.4723C44.4723 5.475 43.8223 4.708 42.7173 4.708C41.7163 4.708 40.8323 5.514 40.6893 6.892ZM49.5385 11.169C48.6545 11.169 48.2905 10.597 48.2905 9.596V0.651999H49.4735V9.674C49.4735 10.038 49.6295 10.181 49.8115 10.181C49.8765 10.181 49.9285 10.181 50.0585 10.155L50.2275 11.065C50.0585 11.13 49.8635 11.169 49.5385 11.169ZM53.0376 13.977V3.941H54.0126L54.1166 4.747H54.1556C54.7926 4.227 55.5856 3.759 56.4046 3.759C58.2246 3.759 59.2126 5.189 59.2126 7.36C59.2126 9.778 57.7696 11.169 56.1446 11.169C55.5076 11.169 54.8316 10.87 54.1946 10.35L54.2206 11.585V13.977H53.0376ZM55.9496 10.181C57.1196 10.181 57.9776 9.128 57.9776 7.373C57.9776 5.813 57.4576 4.76 56.1186 4.76C55.5206 4.76 54.9096 5.098 54.2206 5.735V9.44C54.8576 9.986 55.4816 10.181 55.9496 10.181ZM66.7931 13.249C63.9461 13.249 61.6711 11.429 61.6711 8.049C61.6711 4.162 64.4921 1.614 67.7291 1.614C70.6541 1.614 72.5001 3.564 72.5001 6.424C72.5001 8.959 70.9141 10.285 69.6011 10.285C68.8081 10.285 68.1971 9.921 68.1061 9.18H68.0671C67.5991 9.739 66.9361 10.181 66.2991 10.181C65.3111 10.181 64.5571 9.44 64.5571 8.114C64.5571 6.58 65.6491 4.747 67.3521 4.747C67.8461 4.747 68.2491 4.981 68.5091 5.462H68.5351L68.7041 4.864H69.4841L68.9121 7.763C68.6391 8.933 68.9121 9.466 69.7051 9.466C70.6281 9.466 71.6681 8.361 71.6681 6.476C71.6681 4.123 70.2771 2.407 67.6381 2.407C65.0511 2.407 62.5551 4.617 62.5551 8.01C62.5551 10.844 64.4011 12.456 66.8711 12.456C67.7551 12.456 68.5871 12.183 69.2371 11.806L69.5491 12.508C68.7041 13.015 67.7941 13.249 66.7931 13.249ZM66.5331 9.362C66.9361 9.362 67.3781 9.102 67.8851 8.504L68.2881 6.19C68.0151 5.735 67.7551 5.579 67.3521 5.579C66.2081 5.579 65.5061 6.957 65.5061 8.049C65.5061 8.985 65.9481 9.362 66.5331 9.362ZM77.3268 11.169C76.3258 11.169 75.3638 10.753 74.6878 10.194L75.2728 9.414C75.8838 9.908 76.5208 10.246 77.3658 10.246C78.3018 10.246 78.7568 9.752 78.7568 9.141C78.7568 8.413 77.9248 8.101 77.1448 7.802C76.1568 7.438 75.0778 6.957 75.0778 5.761C75.0778 4.643 75.9878 3.759 77.5218 3.759C78.3928 3.759 79.1598 4.123 79.7058 4.552L79.1338 5.319C78.6528 4.955 78.1588 4.695 77.5348 4.695C76.6378 4.695 76.2218 5.163 76.2218 5.709C76.2218 6.385 76.9498 6.632 77.7428 6.931C78.7698 7.321 79.9008 7.737 79.9008 9.076C79.9008 10.22 78.9908 11.169 77.3268 11.169ZM85.4489 11.169C83.5769 11.169 82.0689 9.804 82.0689 7.477C82.0689 5.189 83.6159 3.759 85.2539 3.759C87.0479 3.759 88.0619 5.059 88.0619 7.074C88.0619 7.334 88.0359 7.581 88.0099 7.75H83.2519C83.3299 9.258 84.2529 10.22 85.5919 10.22C86.2809 10.22 86.8399 10.012 87.3599 9.661L87.7889 10.441C87.1649 10.844 86.4109 11.169 85.4489 11.169ZM83.2389 6.892H87.0219C87.0219 5.475 86.3719 4.708 85.2669 4.708C84.2659 4.708 83.3819 5.514 83.2389 6.892ZM90.8401 13.977V3.941H91.8151L91.9191 4.747H91.9581C92.5951 4.227 93.3881 3.759 94.2071 3.759C96.0271 3.759 97.0151 5.189 97.0151 7.36C97.0151 9.778 95.5721 11.169 93.9471 11.169C93.3101 11.169 92.6341 10.87 91.9971 10.35L92.0231 11.585V13.977H90.8401ZM93.7521 10.181C94.9221 10.181 95.7801 9.128 95.7801 7.373C95.7801 5.813 95.2601 4.76 93.9211 4.76C93.3231 4.76 92.7121 5.098 92.0231 5.735V9.44C92.6601 9.986 93.2841 10.181 93.7521 10.181ZM99.9417 11V0.651999H101.125V3.486L101.086 4.942C101.736 4.292 102.464 3.759 103.426 3.759C104.908 3.759 105.584 4.721 105.584 6.528V11H104.401V6.684C104.401 5.358 103.998 4.799 103.062 4.799C102.334 4.799 101.84 5.163 101.125 5.878V11H99.9417ZM111.725 11.169C109.853 11.169 108.345 9.804 108.345 7.477C108.345 5.189 109.892 3.759 111.53 3.759C113.324 3.759 114.338 5.059 114.338 7.074C114.338 7.334 114.312 7.581 114.286 7.75H109.528C109.606 9.258 110.529 10.22 111.868 10.22C112.557 10.22 113.116 10.012 113.636 9.661L114.065 10.441C113.441 10.844 112.687 11.169 111.725 11.169ZM109.515 6.892H113.298C113.298 5.475 112.648 4.708 111.543 4.708C110.542 4.708 109.658 5.514 109.515 6.892ZM117.116 11V3.941H118.091L118.195 5.228H118.234C118.728 4.331 119.443 3.759 120.236 3.759C120.548 3.759 120.769 3.798 120.99 3.915L120.769 4.955C120.535 4.864 120.366 4.838 120.08 4.838C119.495 4.838 118.767 5.254 118.299 6.463V11H117.116ZM125.462 11.169C123.694 11.169 122.55 9.83 122.55 7.477C122.55 5.189 123.993 3.759 125.605 3.759C126.437 3.759 126.97 4.071 127.594 4.591L127.542 3.369V0.651999H128.712V11H127.75L127.646 10.168H127.607C127.048 10.714 126.307 11.169 125.462 11.169ZM125.722 10.181C126.372 10.181 126.944 9.856 127.542 9.206V5.501C126.931 4.968 126.398 4.76 125.813 4.76C124.669 4.76 123.772 5.852 123.772 7.464C123.772 9.167 124.474 10.181 125.722 10.181ZM132.769 11.169C132.301 11.169 131.911 10.805 131.911 10.272C131.911 9.726 132.301 9.349 132.769 9.349C133.237 9.349 133.627 9.726 133.627 10.272C133.627 10.805 133.237 11.169 132.769 11.169ZM136.816 11V0.651999H137.986V7.672H138.025L141.028 3.941H142.354L140.001 6.788L142.666 11H141.379L139.312 7.594L137.986 9.141V11H136.816ZM145.029 11V3.941H146.004L146.108 5.228H146.147C146.641 4.331 147.356 3.759 148.149 3.759C148.461 3.759 148.682 3.798 148.903 3.915L148.682 4.955C148.448 4.864 148.279 4.838 147.993 4.838C147.408 4.838 146.68 5.254 146.212 6.463V11H145.029Z" fill="black" fill-opacity="0.79"/>
</svg>
