<svg width="51" height="14" viewBox="0 0 51 14" fill="none" xmlns="http://www.w3.org/2000/svg">
<path d="M5.538 8.283V5.215H2.21V8.283H5.538ZM5.538 4.37V1.289H6.578V9.154H1.157V1.289H2.21V4.37H5.538ZM11.583 4.89V5.787H9.659V11.949H8.593V0.314H9.659V4.89H11.583ZM19.499 9.648H24.27V10.519H13.675V9.648H18.42V7.451H15.001V3.85H21.917V2.03H14.975V1.159H22.957V4.708H16.054V6.593H23.23V7.451H19.499V9.648ZM27.311 1.549H32.641C32.641 4.864 31.12 7.867 27.35 9.752L26.765 8.92C29.742 7.425 31.341 5.189 31.588 2.433H27.311V1.549ZM37.529 5.033V5.917H35.657V11.962H34.591V0.301H35.657V5.033H37.529ZM40.375 1.562H45.835C45.835 4.929 44.288 7.893 40.414 9.791L39.842 8.92C42.975 7.425 44.535 5.189 44.756 2.42H40.375V1.562ZM48.188 0.301H49.254V11.962H48.188V0.301Z" fill="black" fill-opacity="0.79"/>
<path d="M0 12.95H50.957V13.6H0V12.95Z" fill="black" fill-opacity="0.79"/>
</svg>
