<svg width="154" height="13" viewBox="0 0 154 13" fill="none" xmlns="http://www.w3.org/2000/svg">
<path d="M8.32 3.759V1.991H3.575V3.759H8.32ZM10.01 0.651999V5.111H1.885V0.651999H10.01ZM3.523 8.439V10.545H10.192V11.91H1.807V8.439H3.523ZM0.546 6.06H11.388V7.412H6.981V9.453H5.265V7.412H0.546V6.06ZM17.406 0.937999C19.278 0.937999 20.708 2.173 20.708 3.889C20.708 5.618 19.278 6.84 17.406 6.84C15.534 6.84 14.117 5.618 14.117 3.889C14.117 2.173 15.534 0.937999 17.406 0.937999ZM17.406 2.407C16.483 2.407 15.781 2.953 15.781 3.889C15.781 4.825 16.483 5.371 17.406 5.371C18.329 5.371 19.031 4.825 19.031 3.889C19.031 2.953 18.329 2.407 17.406 2.407ZM21.826 0.132H23.542V12.144H21.826V0.132ZM13.831 9.713L13.61 8.322C15.716 8.322 18.654 8.309 21.176 7.932L21.28 9.167C18.706 9.687 15.898 9.713 13.831 9.713ZM31.3498 1.51H36.6148C36.6148 4.89 35.4708 7.971 31.2978 10.051L30.7128 9.232C32.8708 8.166 34.1578 6.84 34.8728 5.28L30.9468 5.657L30.7648 4.721L35.1978 4.422C35.3928 3.772 35.5098 3.096 35.5488 2.381H31.3498V1.51ZM41.4508 5.033V5.917H39.5788V11.962H38.5128V0.301H39.5788V5.033H41.4508ZM44.3488 1.51H49.6138C49.6138 4.89 48.4698 7.971 44.2968 10.051L43.7118 9.232C45.8698 8.166 47.1568 6.84 47.8718 5.28L43.9458 5.657L43.7638 4.721L48.1968 4.422C48.3918 3.772 48.5088 3.096 48.5478 2.381H44.3488V1.51ZM54.4498 5.033V5.917H52.5778V11.962H51.5118V0.301H52.5778V5.033H54.4498ZM58.6608 4.123C58.6608 5.462 60.0258 6.333 61.8848 6.333C63.7438 6.333 65.0958 5.462 65.0958 4.123C65.0958 2.784 63.7438 1.913 61.8848 1.913C60.0258 1.913 58.6608 2.784 58.6608 4.123ZM62.4178 9.583H67.1888V10.467H56.5938V9.583H61.3388V7.152C59.1678 6.996 57.6338 5.839 57.6338 4.123C57.6338 2.264 59.4148 1.068 61.8848 1.068C64.3418 1.068 66.1098 2.264 66.1098 4.123C66.1098 5.839 64.5888 6.996 62.4178 7.152V9.583ZM70.7758 9.349V8.491H78.7838V11.975H77.7178V9.349H70.7758ZM75.4038 6.593H80.1488V7.451H69.5928V6.593H74.3378V5.358H70.9838V0.613H78.8488V1.445H72.0498V2.55H78.5368V3.356H72.0498V4.526H78.9138V5.358H75.4038V6.593ZM89.945 3.343V3.876C89.945 5.735 90.894 7.633 92.454 8.491L91.843 9.284C90.699 8.647 89.88 7.477 89.451 6.086C89.048 7.568 88.229 8.868 87.085 9.544L86.448 8.738C88.021 7.815 88.931 5.787 88.931 3.876V3.343H86.734V2.472H88.931V0.73H89.958V2.472H92.142V3.343H89.945ZM95.47 0.301H96.497V11.962H95.47V5.891H93.936V11.39H92.935V0.561H93.936V5.007H95.47V0.301ZM108.079 6.333V3.109H104.777V2.251H108.079V0.301H109.158V6.333H108.079ZM106.298 4.5L106.441 5.384C104.621 5.735 103.048 5.839 101.124 5.839H100.227V0.86H101.293V4.942C103.074 4.942 104.608 4.838 106.298 4.5ZM102.723 10.948H109.574V11.806H101.67V8.868H108.092V7.737H101.644V6.879H109.158V9.687H102.723V10.948ZM119.955 1.406V3.59C119.955 5.462 120.826 7.438 122.36 8.374L121.749 9.206C120.644 8.53 119.864 7.295 119.448 5.878C119.032 7.425 118.187 8.738 117.03 9.453L116.367 8.66C117.966 7.724 118.928 5.631 118.928 3.629V1.406H119.955ZM123.023 4.487V0.561H124.024V11.39H123.023V5.371H121.099V4.487H123.023ZM125.389 0.301H126.403V11.962H125.389V0.301ZM131.979 2.394V8.166C132.59 8.153 133.227 8.127 133.864 8.088V2.394H131.979ZM134.904 2.394V8.023C135.476 7.997 136.022 7.945 136.568 7.88L136.646 8.66C134.28 9.024 131.55 9.089 129.522 9.089L129.405 8.192C129.873 8.192 130.406 8.192 130.939 8.179V2.394H129.769V1.523H136.204V2.394H134.904ZM138.037 0.314H139.103V11.962H138.037V5.579H135.814V4.695H138.037V0.314ZM151.842 5.891V6.762H143.834V1.367H151.725V2.251H144.887V5.891H151.842ZM142.482 9.505H153.064V10.389H142.482V9.505Z" fill="black" fill-opacity="0.79"/>
</svg>
