<svg width="386" height="15" viewBox="0 0 386 15" fill="none" xmlns="http://www.w3.org/2000/svg">
<path d="M4.901 11.169C2.535 11.169 0.754 9.336 0.754 6.242C0.754 3.161 2.561 1.289 4.979 1.289C6.136 1.289 7.046 1.861 7.592 2.472L6.942 3.252C6.448 2.719 5.811 2.342 4.992 2.342C3.185 2.342 1.989 3.824 1.989 6.203C1.989 8.608 3.133 10.116 4.953 10.116C5.863 10.116 6.552 9.713 7.163 9.05L7.826 9.804C7.072 10.675 6.136 11.169 4.901 11.169ZM13.269 11.169C11.54 11.169 9.99304 9.817 9.99304 7.477C9.99304 5.124 11.54 3.759 13.269 3.759C14.998 3.759 16.545 5.124 16.545 7.477C16.545 9.817 14.998 11.169 13.269 11.169ZM13.269 10.181C14.491 10.181 15.323 9.102 15.323 7.477C15.323 5.852 14.491 4.747 13.269 4.747C12.047 4.747 11.228 5.852 11.228 7.477C11.228 9.102 12.047 10.181 13.269 10.181ZM19.4498 13.977V3.941H20.4248L20.5288 4.747H20.5678C21.2048 4.227 21.9978 3.759 22.8168 3.759C24.6368 3.759 25.6248 5.189 25.6248 7.36C25.6248 9.778 24.1818 11.169 22.5568 11.169C21.9198 11.169 21.2438 10.87 20.6068 10.35L20.6328 11.585V13.977H19.4498ZM22.3618 10.181C23.5318 10.181 24.3898 9.128 24.3898 7.373C24.3898 5.813 23.8698 4.76 22.5308 4.76C21.9328 4.76 21.3218 5.098 20.6328 5.735V9.44C21.2698 9.986 21.8938 10.181 22.3618 10.181ZM28.6176 14.042C28.2796 14.042 28.0066 13.99 27.7856 13.899L28.0196 12.95C28.1626 13.002 28.3706 13.067 28.5526 13.067C29.3586 13.067 29.8656 12.417 30.1516 11.546L30.3076 11.013L27.4736 3.941H28.7086L30.1516 7.867C30.3596 8.478 30.6066 9.206 30.8276 9.843H30.8926C31.0876 9.206 31.2956 8.491 31.4906 7.867L32.7516 3.941H33.9086L31.2436 11.585C30.7626 12.976 30.0216 14.042 28.6176 14.042ZM36.3199 11V3.941H37.2949L37.3989 5.228H37.4379C37.9319 4.331 38.6469 3.759 39.4399 3.759C39.7519 3.759 39.9729 3.798 40.1939 3.915L39.9729 4.955C39.7389 4.864 39.5699 4.838 39.2839 4.838C38.6989 4.838 37.9709 5.254 37.5029 6.463V11H36.3199ZM42.3999 11V3.941H43.5829V11H42.3999ZM42.9979 2.485C42.5299 2.485 42.2049 2.173 42.2049 1.692C42.2049 1.237 42.5299 0.925 42.9979 0.925C43.4659 0.925 43.7909 1.237 43.7909 1.692C43.7909 2.173 43.4659 2.485 42.9979 2.485ZM49.399 14.25C47.67 14.25 46.487 13.574 46.487 12.352C46.487 11.754 46.864 11.182 47.527 10.753V10.701C47.15 10.48 46.877 10.103 46.877 9.544C46.877 8.959 47.306 8.491 47.67 8.231V8.179C47.202 7.802 46.747 7.126 46.747 6.281C46.747 4.734 47.969 3.759 49.399 3.759C49.789 3.759 50.14 3.85 50.387 3.941H52.844V4.851H51.401C51.739 5.176 51.973 5.696 51.973 6.307C51.973 7.815 50.829 8.764 49.399 8.764C49.048 8.764 48.658 8.673 48.346 8.517C48.086 8.738 47.891 8.972 47.891 9.362C47.891 9.817 48.177 10.129 49.126 10.129H50.504C52.142 10.129 52.974 10.649 52.974 11.806C52.974 13.119 51.583 14.25 49.399 14.25ZM49.399 7.958C50.205 7.958 50.907 7.308 50.907 6.281C50.907 5.254 50.231 4.63 49.399 4.63C48.567 4.63 47.891 5.241 47.891 6.281C47.891 7.308 48.58 7.958 49.399 7.958ZM49.568 13.444C50.92 13.444 51.817 12.729 51.817 11.988C51.817 11.338 51.31 11.117 50.374 11.117H49.152C48.892 11.117 48.554 11.078 48.242 11C47.735 11.364 47.527 11.78 47.527 12.196C47.527 12.95 48.294 13.444 49.568 13.444ZM55.3852 11V0.651999H56.5682V3.486L56.5292 4.942C57.1792 4.292 57.9072 3.759 58.8692 3.759C60.3512 3.759 61.0272 4.721 61.0272 6.528V11H59.8442V6.684C59.8442 5.358 59.4412 4.799 58.5052 4.799C57.7772 4.799 57.2832 5.163 56.5682 5.878V11H55.3852ZM66.5447 11.169C65.0367 11.169 64.5297 10.22 64.5297 8.816V4.903H63.4767V4.006L64.5817 3.941L64.7247 1.952H65.7127V3.941H67.6237V4.903H65.7127V8.842C65.7127 9.713 65.9857 10.207 66.8047 10.207C67.0517 10.207 67.3767 10.116 67.6107 10.025L67.8447 10.909C67.4417 11.039 66.9737 11.169 66.5447 11.169ZM75.5661 12.118C72.2251 12.118 69.5081 9.401 69.5081 6.06C69.5081 2.719 72.2251 0.0019998 75.5661 0.0019998C78.9071 0.0019998 81.6241 2.719 81.6241 6.06C81.6241 9.427 78.8811 12.118 75.5661 12.118ZM75.5661 11.702C78.6861 11.702 81.2081 9.18 81.2081 6.06C81.2081 2.94 78.6861 0.418 75.5661 0.418C72.4201 0.418 69.9241 2.966 69.9241 6.06C69.9241 9.18 72.4461 11.702 75.5661 11.702ZM75.8001 9.505C73.9801 9.505 72.6021 8.244 72.6021 5.995C72.6021 3.785 74.0191 2.459 75.9041 2.459C76.7621 2.459 77.4771 2.862 77.9061 3.304L77.3081 3.993C76.9181 3.616 76.5021 3.382 75.9171 3.382C74.5911 3.382 73.7331 4.357 73.7331 5.969C73.7331 7.607 74.5391 8.582 75.8651 8.582C76.5411 8.582 77.0221 8.335 77.4641 7.867L78.0751 8.517C77.4641 9.18 76.7361 9.505 75.8001 9.505ZM83.6781 11V10.298C86.4731 7.516 88.0461 5.852 88.0461 4.331C88.0461 3.278 87.4741 2.524 86.2911 2.524C85.5111 2.524 84.8351 3.018 84.3151 3.629L83.6261 2.966C84.4061 2.121 85.2251 1.562 86.4341 1.562C88.1371 1.562 89.2031 2.641 89.2031 4.279C89.2031 6.021 87.6171 7.75 85.4201 10.064C85.9141 10.025 86.4861 9.973 86.9801 9.973H89.6711V11H83.6781ZM94.971 11.169C93.125 11.169 91.994 9.44 91.994 6.333C91.994 3.226 93.125 1.562 94.971 1.562C96.817 1.562 97.935 3.239 97.935 6.333C97.935 9.44 96.817 11.169 94.971 11.169ZM94.971 10.22C96.05 10.22 96.778 9.05 96.778 6.333C96.778 3.616 96.05 2.511 94.971 2.511C93.879 2.511 93.151 3.616 93.151 6.333C93.151 9.05 93.879 10.22 94.971 10.22ZM100.18 11V10.298C102.975 7.516 104.548 5.852 104.548 4.331C104.548 3.278 103.976 2.524 102.793 2.524C102.013 2.524 101.337 3.018 100.817 3.629L100.128 2.966C100.908 2.121 101.727 1.562 102.936 1.562C104.639 1.562 105.705 2.641 105.705 4.279C105.705 6.021 104.119 7.75 101.922 10.064C102.416 10.025 102.988 9.973 103.482 9.973H106.173V11H100.18ZM111.291 11.169C109.796 11.169 108.86 10.545 108.236 9.869L108.834 9.089C109.393 9.674 110.121 10.181 111.2 10.181C112.331 10.181 113.137 9.518 113.137 8.478C113.137 7.373 112.37 6.645 110.173 6.645V5.735C112.136 5.735 112.812 4.968 112.812 3.993C112.812 3.096 112.188 2.524 111.2 2.524C110.433 2.524 109.757 2.914 109.224 3.46L108.587 2.719C109.302 2.043 110.147 1.562 111.252 1.562C112.851 1.562 114.021 2.407 114.021 3.915C114.021 5.033 113.332 5.748 112.331 6.112V6.164C113.449 6.437 114.346 7.256 114.346 8.53C114.346 10.181 112.981 11.169 111.291 11.169ZM120.655 7.763V6.931H126.427V7.763H120.655ZM135.966 11.169C134.614 11.169 133.457 10.623 132.625 9.752L133.353 8.933C134.029 9.648 134.991 10.116 135.979 10.116C137.227 10.116 137.981 9.492 137.981 8.556C137.981 7.581 137.292 7.269 136.395 6.866L135.017 6.268C134.133 5.891 133.08 5.215 133.08 3.824C133.08 2.355 134.354 1.289 136.083 1.289C137.214 1.289 138.215 1.77 138.891 2.472L138.254 3.239C137.669 2.693 136.967 2.342 136.083 2.342C135.004 2.342 134.302 2.888 134.302 3.746C134.302 4.669 135.134 5.02 135.875 5.332L137.24 5.917C138.345 6.398 139.203 7.048 139.203 8.465C139.203 9.973 137.955 11.169 135.966 11.169ZM142.111 11V1.458H147.61V2.485H143.32V5.475H146.934V6.502H143.32V9.973H147.753V11H142.111ZM150.793 11V1.458H153.523C155.655 1.458 157.085 2.186 157.085 4.266C157.085 6.281 155.668 7.217 153.575 7.217H152.002V11H150.793ZM152.002 6.242H153.419C155.096 6.242 155.889 5.631 155.889 4.266C155.889 2.888 155.044 2.446 153.367 2.446H152.002V6.242ZM160.047 11V1.458H161.256V5.462H165.702V1.458H166.898V11H165.702V6.502H161.256V11H160.047ZM170.545 11V1.458H176.044V2.485H171.754V5.475H175.368V6.502H171.754V9.973H176.187V11H170.545ZM179.228 11V1.458H182.218C184.155 1.458 185.546 2.16 185.546 4.149C185.546 5.631 184.688 6.515 183.388 6.827L185.832 11H184.467L182.153 6.957H180.437V11H179.228ZM180.437 5.982H182.036C183.531 5.982 184.35 5.384 184.35 4.149C184.35 2.888 183.531 2.446 182.036 2.446H180.437V5.982ZM188.532 11V1.458H190.924C193.849 1.458 195.422 3.174 195.422 6.203C195.422 9.219 193.849 11 190.976 11H188.532ZM189.741 10.012H190.82C193.069 10.012 194.174 8.608 194.174 6.203C194.174 3.785 193.069 2.446 190.82 2.446H189.741V10.012ZM206.046 11.169C203.68 11.169 201.899 9.336 201.899 6.242C201.899 3.161 203.706 1.289 206.124 1.289C207.281 1.289 208.191 1.861 208.737 2.472L208.087 3.252C207.593 2.719 206.956 2.342 206.137 2.342C204.33 2.342 203.134 3.824 203.134 6.203C203.134 8.608 204.278 10.116 206.098 10.116C207.008 10.116 207.697 9.713 208.308 9.05L208.971 9.804C208.217 10.675 207.281 11.169 206.046 11.169ZM214.414 11.169C212.685 11.169 211.138 9.817 211.138 7.477C211.138 5.124 212.685 3.759 214.414 3.759C216.143 3.759 217.69 5.124 217.69 7.477C217.69 9.817 216.143 11.169 214.414 11.169ZM214.414 10.181C215.636 10.181 216.468 9.102 216.468 7.477C216.468 5.852 215.636 4.747 214.414 4.747C213.192 4.747 212.373 5.852 212.373 7.477C212.373 9.102 213.192 10.181 214.414 10.181ZM221.066 11.169C220.598 11.169 220.208 10.805 220.208 10.272C220.208 9.726 220.598 9.349 221.066 9.349C221.534 9.349 221.924 9.726 221.924 10.272C221.924 10.805 221.534 11.169 221.066 11.169ZM224.892 13.47L224.606 12.768C225.425 12.404 225.906 11.767 225.906 11C225.854 11.013 225.815 11.013 225.763 11.013C225.308 11.013 224.892 10.727 224.892 10.181C224.892 9.674 225.308 9.349 225.789 9.349C226.413 9.349 226.79 9.882 226.79 10.753C226.79 12.001 226.062 12.976 224.892 13.47ZM233.822 11V1.458H235.031V9.973H239.191V11H233.822ZM242.171 11V2.485H239.285V1.458H246.266V2.485H243.38V11H242.171ZM249.004 11V1.458H251.396C254.321 1.458 255.894 3.174 255.894 6.203C255.894 9.219 254.321 11 251.448 11H249.004ZM250.213 10.012H251.292C253.541 10.012 254.646 8.608 254.646 6.203C254.646 3.785 253.541 2.446 251.292 2.446H250.213V10.012ZM259.476 11.169C259.008 11.169 258.618 10.805 258.618 10.272C258.618 9.726 259.008 9.349 259.476 9.349C259.944 9.349 260.334 9.726 260.334 10.272C260.334 10.805 259.944 11.169 259.476 11.169ZM269.225 5.67L268.757 7.126H271.643L271.188 5.67C270.837 4.591 270.538 3.551 270.226 2.446H270.174C269.875 3.564 269.563 4.591 269.225 5.67ZM266.313 11L269.55 1.458H270.889L274.126 11H272.852L271.942 8.088H268.458L267.535 11H266.313ZM277.655 11.169C276.771 11.169 276.407 10.597 276.407 9.596V0.651999H277.59V9.674C277.59 10.038 277.746 10.181 277.928 10.181C277.993 10.181 278.045 10.181 278.175 10.155L278.344 11.065C278.175 11.13 277.98 11.169 277.655 11.169ZM282.402 11.169C281.518 11.169 281.154 10.597 281.154 9.596V0.651999H282.337V9.674C282.337 10.038 282.493 10.181 282.675 10.181C282.74 10.181 282.792 10.181 282.922 10.155L283.091 11.065C282.922 11.13 282.727 11.169 282.402 11.169ZM289.848 11V3.941H290.823L290.927 5.228H290.966C291.46 4.331 292.175 3.759 292.968 3.759C293.28 3.759 293.501 3.798 293.722 3.915L293.501 4.955C293.267 4.864 293.098 4.838 292.812 4.838C292.227 4.838 291.499 5.254 291.031 6.463V11H289.848ZM295.928 11V3.941H297.111V11H295.928ZM296.526 2.485C296.058 2.485 295.733 2.173 295.733 1.692C295.733 1.237 296.058 0.925 296.526 0.925C296.994 0.925 297.319 1.237 297.319 1.692C297.319 2.173 296.994 2.485 296.526 2.485ZM302.927 14.25C301.198 14.25 300.015 13.574 300.015 12.352C300.015 11.754 300.392 11.182 301.055 10.753V10.701C300.678 10.48 300.405 10.103 300.405 9.544C300.405 8.959 300.834 8.491 301.198 8.231V8.179C300.73 7.802 300.275 7.126 300.275 6.281C300.275 4.734 301.497 3.759 302.927 3.759C303.317 3.759 303.668 3.85 303.915 3.941H306.372V4.851H304.929C305.267 5.176 305.501 5.696 305.501 6.307C305.501 7.815 304.357 8.764 302.927 8.764C302.576 8.764 302.186 8.673 301.874 8.517C301.614 8.738 301.419 8.972 301.419 9.362C301.419 9.817 301.705 10.129 302.654 10.129H304.032C305.67 10.129 306.502 10.649 306.502 11.806C306.502 13.119 305.111 14.25 302.927 14.25ZM302.927 7.958C303.733 7.958 304.435 7.308 304.435 6.281C304.435 5.254 303.759 4.63 302.927 4.63C302.095 4.63 301.419 5.241 301.419 6.281C301.419 7.308 302.108 7.958 302.927 7.958ZM303.096 13.444C304.448 13.444 305.345 12.729 305.345 11.988C305.345 11.338 304.838 11.117 303.902 11.117H302.68C302.42 11.117 302.082 11.078 301.77 11C301.263 11.364 301.055 11.78 301.055 12.196C301.055 12.95 301.822 13.444 303.096 13.444ZM308.913 11V0.651999H310.096V3.486L310.057 4.942C310.707 4.292 311.435 3.759 312.397 3.759C313.879 3.759 314.555 4.721 314.555 6.528V11H313.372V6.684C313.372 5.358 312.969 4.799 312.033 4.799C311.305 4.799 310.811 5.163 310.096 5.878V11H308.913ZM320.073 11.169C318.565 11.169 318.058 10.22 318.058 8.816V4.903H317.005V4.006L318.11 3.941L318.253 1.952H319.241V3.941H321.152V4.903H319.241V8.842C319.241 9.713 319.514 10.207 320.333 10.207C320.58 10.207 320.905 10.116 321.139 10.025L321.373 10.909C320.97 11.039 320.502 11.169 320.073 11.169ZM327.737 11V3.941H328.712L328.816 5.228H328.855C329.349 4.331 330.064 3.759 330.857 3.759C331.169 3.759 331.39 3.798 331.611 3.915L331.39 4.955C331.156 4.864 330.987 4.838 330.701 4.838C330.116 4.838 329.388 5.254 328.92 6.463V11H327.737ZM336.525 11.169C334.653 11.169 333.145 9.804 333.145 7.477C333.145 5.189 334.692 3.759 336.33 3.759C338.124 3.759 339.138 5.059 339.138 7.074C339.138 7.334 339.112 7.581 339.086 7.75H334.328C334.406 9.258 335.329 10.22 336.668 10.22C337.357 10.22 337.916 10.012 338.436 9.661L338.865 10.441C338.241 10.844 337.487 11.169 336.525 11.169ZM334.315 6.892H338.098C338.098 5.475 337.448 4.708 336.343 4.708C335.342 4.708 334.458 5.514 334.315 6.892ZM343.762 11.169C342.761 11.169 341.799 10.753 341.123 10.194L341.708 9.414C342.319 9.908 342.956 10.246 343.801 10.246C344.737 10.246 345.192 9.752 345.192 9.141C345.192 8.413 344.36 8.101 343.58 7.802C342.592 7.438 341.513 6.957 341.513 5.761C341.513 4.643 342.423 3.759 343.957 3.759C344.828 3.759 345.595 4.123 346.141 4.552L345.569 5.319C345.088 4.955 344.594 4.695 343.97 4.695C343.073 4.695 342.657 5.163 342.657 5.709C342.657 6.385 343.385 6.632 344.178 6.931C345.205 7.321 346.336 7.737 346.336 9.076C346.336 10.22 345.426 11.169 343.762 11.169ZM351.884 11.169C350.012 11.169 348.504 9.804 348.504 7.477C348.504 5.189 350.051 3.759 351.689 3.759C353.483 3.759 354.497 5.059 354.497 7.074C354.497 7.334 354.471 7.581 354.445 7.75H349.687C349.765 9.258 350.688 10.22 352.027 10.22C352.716 10.22 353.275 10.012 353.795 9.661L354.224 10.441C353.6 10.844 352.846 11.169 351.884 11.169ZM349.674 6.892H353.457C353.457 5.475 352.807 4.708 351.702 4.708C350.701 4.708 349.817 5.514 349.674 6.892ZM357.275 11V3.941H358.25L358.354 5.228H358.393C358.887 4.331 359.602 3.759 360.395 3.759C360.707 3.759 360.928 3.798 361.149 3.915L360.928 4.955C360.694 4.864 360.525 4.838 360.239 4.838C359.654 4.838 358.926 5.254 358.458 6.463V11H357.275ZM365.257 11L362.709 3.941H363.944L365.27 7.958C365.491 8.647 365.712 9.375 365.933 10.038H365.985C366.206 9.375 366.427 8.647 366.635 7.958L367.974 3.941H369.144L366.635 11H365.257ZM374.352 11.169C372.48 11.169 370.972 9.804 370.972 7.477C370.972 5.189 372.519 3.759 374.157 3.759C375.951 3.759 376.965 5.059 376.965 7.074C376.965 7.334 376.939 7.581 376.913 7.75H372.155C372.233 9.258 373.156 10.22 374.495 10.22C375.184 10.22 375.743 10.012 376.263 9.661L376.692 10.441C376.068 10.844 375.314 11.169 374.352 11.169ZM372.142 6.892H375.925C375.925 5.475 375.275 4.708 374.17 4.708C373.169 4.708 372.285 5.514 372.142 6.892ZM382.148 11.169C380.38 11.169 379.236 9.83 379.236 7.477C379.236 5.189 380.679 3.759 382.291 3.759C383.123 3.759 383.656 4.071 384.28 4.591L384.228 3.369V0.651999H385.398V11H384.436L384.332 10.168H384.293C383.734 10.714 382.993 11.169 382.148 11.169ZM382.408 10.181C383.058 10.181 383.63 9.856 384.228 9.206V5.501C383.617 4.968 383.084 4.76 382.499 4.76C381.355 4.76 380.458 5.852 380.458 7.464C380.458 9.167 381.16 10.181 382.408 10.181Z" fill="black" fill-opacity="0.79"/>
</svg>
