<svg width="165" height="25" viewBox="0 0 165 25" fill="none" xmlns="http://www.w3.org/2000/svg">
<mask id="path-1-outside-1_239_20227" maskUnits="userSpaceOnUse" x="27.2944" y="3.68677" width="138" height="18" fill="black">
<rect fill="white" x="27.2944" y="3.68677" width="138" height="18"/>
<path d="M42.8893 6.3087L41.3422 9.11703L41.0393 8.95374C41.1619 8.62715 41.2232 8.42401 41.2232 8.34417C41.2232 8.12654 40.9563 7.89065 40.4226 7.63665C38.9728 6.95449 37.4365 6.61341 35.8137 6.61341C34.4793 6.61341 33.3181 6.86379 32.3299 7.36454C31.8539 7.61129 31.4752 7.9305 31.1939 8.32243C30.9199 8.71437 30.7828 9.1279 30.7828 9.5633C30.7828 9.92612 30.891 10.2708 31.1074 10.5974C31.3238 10.9167 31.6087 11.1563 31.9621 11.3158C32.3516 11.4972 32.8096 11.6243 33.3361 11.6969C33.8699 11.7621 34.7354 11.8129 35.9327 11.8493C37.5916 11.9 38.7781 11.9798 39.4921 12.0887C40.2062 12.1902 40.794 12.3718 41.2556 12.6329C42.4818 13.3223 43.0949 14.3709 43.0949 15.7788C43.0949 17.1212 42.5395 18.2207 41.4288 19.0769C40.1954 20.0349 38.4968 20.5138 36.333 20.5138C35.0852 20.5138 33.9961 20.3868 33.0656 20.1328C32.1352 19.8789 31.0244 19.4107 29.7334 18.7285C29.3727 18.5618 29.16 18.4783 29.095 18.4783C28.9868 18.4783 28.8174 18.6089 28.5865 18.8701L28.2944 18.6851L29.9173 15.953L30.2202 16.1271C30.0832 16.4173 30.0147 16.6132 30.0147 16.7148C30.0147 16.9471 30.4763 17.3063 31.3995 17.7925C32.229 18.2279 33.026 18.5435 33.7905 18.7396C34.5623 18.9282 35.3989 19.0225 36.3005 19.0225C38.1253 19.0225 39.5102 18.6197 40.455 17.8143C41.0825 17.2773 41.3963 16.6386 41.3963 15.8985C41.3963 14.9261 40.8589 14.2548 39.7843 13.8848C39.438 13.7613 39.0774 13.6852 38.7024 13.6561C38.3345 13.6199 37.2815 13.569 35.5432 13.5037C34.3026 13.453 33.3289 13.3586 32.622 13.2207C31.9224 13.0829 31.2985 12.8579 30.7504 12.5459C30.2383 12.2556 29.8307 11.8493 29.5278 11.3268C29.2321 10.8043 29.0842 10.2346 29.0842 9.61778C29.0842 8.56557 29.4737 7.66201 30.2527 6.9074C30.8297 6.35579 31.6267 5.92402 32.6437 5.61206C33.6607 5.29271 34.775 5.13304 35.9868 5.13304C36.9749 5.13304 37.8909 5.23112 38.7348 5.42702C39.5859 5.62292 40.5452 5.96038 41.6127 6.43925C41.8507 6.54096 41.9986 6.59168 42.0562 6.59168C42.1861 6.59168 42.3628 6.44649 42.5863 6.15627L42.8893 6.3087ZM51.3195 13.3187V18.8375H60.7861C61.0891 18.8375 61.3019 18.7903 61.4246 18.6959C61.5543 18.6016 61.6517 18.4166 61.7166 18.1408H62.0628V20.9492H61.7274C61.6553 20.6734 61.5543 20.4884 61.4246 20.3941C61.3019 20.2998 61.0891 20.2525 60.7861 20.2525H48.9285V19.9042C49.2097 19.8316 49.3938 19.7337 49.4803 19.6104C49.5741 19.4869 49.6209 19.2729 49.6209 18.9681V6.67876C49.6209 6.37404 49.5741 6.15989 49.4803 6.03659C49.3866 5.91314 49.2025 5.81519 48.9285 5.7426V5.39428H60.6456C60.9485 5.39428 61.1613 5.34718 61.2839 5.25286C61.4064 5.15853 61.5039 4.96975 61.5759 4.68677H61.9221V7.49524H61.5759C61.5111 7.22661 61.4136 7.0452 61.2839 6.95087C61.1613 6.85655 60.9485 6.80945 60.6456 6.80945H51.3195V11.9036H57.4322C57.7352 11.9036 57.9479 11.8565 58.0706 11.7621C58.2004 11.6677 58.2977 11.4827 58.3627 11.207H58.7089V14.0153H58.3627C58.2977 13.7396 58.2004 13.5545 58.0706 13.4602C57.9479 13.3659 57.7352 13.3187 57.4322 13.3187H51.3195ZM70.5904 13.569V19.1096C70.5904 19.3345 70.6409 19.505 70.7419 19.6212C70.8428 19.7373 71.0231 19.8316 71.2828 19.9042V20.2525H68.1993V19.9042C68.459 19.8316 68.6394 19.7373 68.7404 19.6212C68.8413 19.505 68.8917 19.3345 68.8917 19.1096V6.52633C68.8917 6.3087 68.8413 6.14178 68.7404 6.02572C68.6394 5.90952 68.459 5.81519 68.1993 5.7426V5.39428H75.9674C77.0566 5.39428 77.9041 5.45238 78.51 5.56844C79.1159 5.68464 79.6568 5.89503 80.1327 6.19989C80.6305 6.5046 81.0308 6.92189 81.3337 7.45162C81.6727 8.0467 81.8422 8.71437 81.8422 9.45449C81.8422 10.4705 81.5321 11.3413 80.9117 12.0669C80.4357 12.6256 79.8299 13.0176 79.0941 13.2426C78.3657 13.4602 77.3235 13.569 75.9674 13.569H70.5904ZM70.5904 12.154H76.1297C76.952 12.154 77.5615 12.1214 77.9581 12.0561C78.3621 11.9907 78.7227 11.8638 79.0401 11.6751C79.7757 11.2396 80.1435 10.5103 80.1435 9.48709C80.1435 8.45675 79.7757 7.72373 79.0401 7.28832C78.7227 7.09967 78.3657 6.97274 77.9689 6.9074C77.5723 6.84205 76.9593 6.80945 76.1297 6.80945H70.5904V12.154ZM100.042 13.3187H89.9262V18.9681C89.9262 19.2729 89.9695 19.4869 90.0561 19.6104C90.1498 19.7337 90.3373 19.8316 90.6186 19.9042V20.2525H87.5353V19.9042C87.8165 19.8316 88.0004 19.7337 88.087 19.6104C88.1807 19.4869 88.2277 19.2729 88.2277 18.9681V6.67876C88.2277 6.37404 88.1807 6.15989 88.087 6.03659C87.9932 5.9059 87.8093 5.80795 87.5353 5.7426V5.39428H90.6186V5.7426C90.3445 5.81519 90.1606 5.91314 90.0669 6.03659C89.9731 6.15989 89.9262 6.37404 89.9262 6.67876V11.9036H100.042V6.67876C100.042 6.37404 99.9951 6.15989 99.9013 6.03659C99.8075 5.9059 99.6236 5.80795 99.3496 5.7426V5.39428H102.433V5.7426C102.159 5.81519 101.975 5.91314 101.881 6.03659C101.787 6.15989 101.741 6.37404 101.741 6.67876V18.9681C101.741 19.2657 101.787 19.4797 101.881 19.6104C101.975 19.7337 102.159 19.8316 102.433 19.9042V20.2525H99.3496V19.9042C99.6236 19.8316 99.8075 19.7337 99.9013 19.6104C99.9951 19.4869 100.042 19.2729 100.042 18.9681V13.3187ZM111.404 13.3187V18.8375H120.871C121.174 18.8375 121.386 18.7903 121.509 18.6959C121.639 18.6016 121.736 18.4166 121.801 18.1408H122.147V20.9492H121.812C121.74 20.6734 121.639 20.4884 121.509 20.3941C121.386 20.2998 121.174 20.2525 120.871 20.2525H109.013V19.9042C109.294 19.8316 109.478 19.7337 109.565 19.6104C109.659 19.4869 109.706 19.2729 109.706 18.9681V6.67876C109.706 6.37404 109.659 6.15989 109.565 6.03659C109.471 5.91314 109.287 5.81519 109.013 5.7426V5.39428H120.73C121.033 5.39428 121.246 5.34718 121.368 5.25286C121.491 5.15853 121.589 4.96975 121.661 4.68677H122.007V7.49524H121.661C121.596 7.22661 121.498 7.0452 121.368 6.95087C121.246 6.85655 121.033 6.80945 120.73 6.80945H111.404V11.9036H117.517C117.82 11.9036 118.033 11.8565 118.155 11.7621C118.285 11.6677 118.382 11.4827 118.447 11.207H118.794V14.0153H118.447C118.382 13.7396 118.285 13.5545 118.155 13.4602C118.033 13.3659 117.82 13.3187 117.517 13.3187H111.404ZM130.675 13.5582V18.9681C130.675 19.2657 130.722 19.4797 130.816 19.6104C130.909 19.7337 131.093 19.8316 131.367 19.9042V20.2525H128.284V19.9042C128.558 19.8316 128.742 19.7337 128.836 19.6104C128.93 19.4869 128.977 19.2729 128.977 18.9681V6.67876C128.977 6.37404 128.93 6.15989 128.836 6.03659C128.742 5.9059 128.558 5.80795 128.284 5.7426V5.39428H136.387C137.498 5.39428 138.375 5.45601 139.017 5.57945C139.666 5.69552 140.228 5.90228 140.704 6.19989C141.195 6.5046 141.591 6.92189 141.894 7.45162C142.241 8.05394 142.414 8.73248 142.414 9.48709C142.414 10.6191 142.039 11.5444 141.289 12.2628C140.546 12.974 139.521 13.3804 138.216 13.482L141.97 19.36C142.194 19.7228 142.518 19.9042 142.944 19.9042V20.2525H139.525V19.9042C139.878 19.8461 140.055 19.7445 140.055 19.5993C140.055 19.5269 139.929 19.291 139.676 18.8918L136.323 13.5582H130.675ZM130.675 12.154H136.658C137.473 12.154 138.086 12.1214 138.497 12.0561C138.916 11.9835 139.283 11.8565 139.601 11.6751C140.344 11.2396 140.715 10.5103 140.715 9.48709C140.715 8.45675 140.333 7.72373 139.568 7.28832C139.229 7.09967 138.851 6.97274 138.432 6.9074C138.021 6.84205 137.379 6.80945 136.506 6.80945H130.675V12.154ZM149.329 19.1205V6.52633C149.329 6.3087 149.279 6.14178 149.178 6.02572C149.077 5.90952 148.896 5.81519 148.637 5.7426V5.39428H156.426C158.194 5.39428 159.546 5.64104 160.484 6.13454C161.667 6.75135 162.568 7.702 163.188 8.98648C163.729 10.1113 164 11.3884 164 12.818C164 14.5088 163.636 15.9675 162.907 17.1938C162.251 18.2823 161.418 19.066 160.408 19.545C159.405 20.0167 158.078 20.2525 156.426 20.2525H148.637V19.9042C148.896 19.8316 149.077 19.7373 149.178 19.6212C149.279 19.505 149.329 19.3383 149.329 19.1205ZM151.028 18.8375H156.362C157.927 18.8375 159.088 18.5944 159.845 18.1081C160.74 17.5277 161.396 16.6386 161.814 15.4413C162.089 14.6431 162.225 13.7687 162.225 12.818C162.225 11.0909 161.789 9.66125 160.916 8.5292C160.433 7.90514 159.845 7.46249 159.153 7.20124C158.461 6.94 157.53 6.80945 156.362 6.80945H151.028V18.8375Z"/>
</mask>
<path d="M42.8893 6.3087L41.3422 9.11703L41.0393 8.95374C41.1619 8.62715 41.2232 8.42401 41.2232 8.34417C41.2232 8.12654 40.9563 7.89065 40.4226 7.63665C38.9728 6.95449 37.4365 6.61341 35.8137 6.61341C34.4793 6.61341 33.3181 6.86379 32.3299 7.36454C31.8539 7.61129 31.4752 7.9305 31.1939 8.32243C30.9199 8.71437 30.7828 9.1279 30.7828 9.5633C30.7828 9.92612 30.891 10.2708 31.1074 10.5974C31.3238 10.9167 31.6087 11.1563 31.9621 11.3158C32.3516 11.4972 32.8096 11.6243 33.3361 11.6969C33.8699 11.7621 34.7354 11.8129 35.9327 11.8493C37.5916 11.9 38.7781 11.9798 39.4921 12.0887C40.2062 12.1902 40.794 12.3718 41.2556 12.6329C42.4818 13.3223 43.0949 14.3709 43.0949 15.7788C43.0949 17.1212 42.5395 18.2207 41.4288 19.0769C40.1954 20.0349 38.4968 20.5138 36.333 20.5138C35.0852 20.5138 33.9961 20.3868 33.0656 20.1328C32.1352 19.8789 31.0244 19.4107 29.7334 18.7285C29.3727 18.5618 29.16 18.4783 29.095 18.4783C28.9868 18.4783 28.8174 18.6089 28.5865 18.8701L28.2944 18.6851L29.9173 15.953L30.2202 16.1271C30.0832 16.4173 30.0147 16.6132 30.0147 16.7148C30.0147 16.9471 30.4763 17.3063 31.3995 17.7925C32.229 18.2279 33.026 18.5435 33.7905 18.7396C34.5623 18.9282 35.3989 19.0225 36.3005 19.0225C38.1253 19.0225 39.5102 18.6197 40.455 17.8143C41.0825 17.2773 41.3963 16.6386 41.3963 15.8985C41.3963 14.9261 40.8589 14.2548 39.7843 13.8848C39.438 13.7613 39.0774 13.6852 38.7024 13.6561C38.3345 13.6199 37.2815 13.569 35.5432 13.5037C34.3026 13.453 33.3289 13.3586 32.622 13.2207C31.9224 13.0829 31.2985 12.8579 30.7504 12.5459C30.2383 12.2556 29.8307 11.8493 29.5278 11.3268C29.2321 10.8043 29.0842 10.2346 29.0842 9.61778C29.0842 8.56557 29.4737 7.66201 30.2527 6.9074C30.8297 6.35579 31.6267 5.92402 32.6437 5.61206C33.6607 5.29271 34.775 5.13304 35.9868 5.13304C36.9749 5.13304 37.8909 5.23112 38.7348 5.42702C39.5859 5.62292 40.5452 5.96038 41.6127 6.43925C41.8507 6.54096 41.9986 6.59168 42.0562 6.59168C42.1861 6.59168 42.3628 6.44649 42.5863 6.15627L42.8893 6.3087ZM51.3195 13.3187V18.8375H60.7861C61.0891 18.8375 61.3019 18.7903 61.4246 18.6959C61.5543 18.6016 61.6517 18.4166 61.7166 18.1408H62.0628V20.9492H61.7274C61.6553 20.6734 61.5543 20.4884 61.4246 20.3941C61.3019 20.2998 61.0891 20.2525 60.7861 20.2525H48.9285V19.9042C49.2097 19.8316 49.3938 19.7337 49.4803 19.6104C49.5741 19.4869 49.6209 19.2729 49.6209 18.9681V6.67876C49.6209 6.37404 49.5741 6.15989 49.4803 6.03659C49.3866 5.91314 49.2025 5.81519 48.9285 5.7426V5.39428H60.6456C60.9485 5.39428 61.1613 5.34718 61.2839 5.25286C61.4064 5.15853 61.5039 4.96975 61.5759 4.68677H61.9221V7.49524H61.5759C61.5111 7.22661 61.4136 7.0452 61.2839 6.95087C61.1613 6.85655 60.9485 6.80945 60.6456 6.80945H51.3195V11.9036H57.4322C57.7352 11.9036 57.9479 11.8565 58.0706 11.7621C58.2004 11.6677 58.2977 11.4827 58.3627 11.207H58.7089V14.0153H58.3627C58.2977 13.7396 58.2004 13.5545 58.0706 13.4602C57.9479 13.3659 57.7352 13.3187 57.4322 13.3187H51.3195ZM70.5904 13.569V19.1096C70.5904 19.3345 70.6409 19.505 70.7419 19.6212C70.8428 19.7373 71.0231 19.8316 71.2828 19.9042V20.2525H68.1993V19.9042C68.459 19.8316 68.6394 19.7373 68.7404 19.6212C68.8413 19.505 68.8917 19.3345 68.8917 19.1096V6.52633C68.8917 6.3087 68.8413 6.14178 68.7404 6.02572C68.6394 5.90952 68.459 5.81519 68.1993 5.7426V5.39428H75.9674C77.0566 5.39428 77.9041 5.45238 78.51 5.56844C79.1159 5.68464 79.6568 5.89503 80.1327 6.19989C80.6305 6.5046 81.0308 6.92189 81.3337 7.45162C81.6727 8.0467 81.8422 8.71437 81.8422 9.45449C81.8422 10.4705 81.5321 11.3413 80.9117 12.0669C80.4357 12.6256 79.8299 13.0176 79.0941 13.2426C78.3657 13.4602 77.3235 13.569 75.9674 13.569H70.5904ZM70.5904 12.154H76.1297C76.952 12.154 77.5615 12.1214 77.9581 12.0561C78.3621 11.9907 78.7227 11.8638 79.0401 11.6751C79.7757 11.2396 80.1435 10.5103 80.1435 9.48709C80.1435 8.45675 79.7757 7.72373 79.0401 7.28832C78.7227 7.09967 78.3657 6.97274 77.9689 6.9074C77.5723 6.84205 76.9593 6.80945 76.1297 6.80945H70.5904V12.154ZM100.042 13.3187H89.9262V18.9681C89.9262 19.2729 89.9695 19.4869 90.0561 19.6104C90.1498 19.7337 90.3373 19.8316 90.6186 19.9042V20.2525H87.5353V19.9042C87.8165 19.8316 88.0004 19.7337 88.087 19.6104C88.1807 19.4869 88.2277 19.2729 88.2277 18.9681V6.67876C88.2277 6.37404 88.1807 6.15989 88.087 6.03659C87.9932 5.9059 87.8093 5.80795 87.5353 5.7426V5.39428H90.6186V5.7426C90.3445 5.81519 90.1606 5.91314 90.0669 6.03659C89.9731 6.15989 89.9262 6.37404 89.9262 6.67876V11.9036H100.042V6.67876C100.042 6.37404 99.9951 6.15989 99.9013 6.03659C99.8075 5.9059 99.6236 5.80795 99.3496 5.7426V5.39428H102.433V5.7426C102.159 5.81519 101.975 5.91314 101.881 6.03659C101.787 6.15989 101.741 6.37404 101.741 6.67876V18.9681C101.741 19.2657 101.787 19.4797 101.881 19.6104C101.975 19.7337 102.159 19.8316 102.433 19.9042V20.2525H99.3496V19.9042C99.6236 19.8316 99.8075 19.7337 99.9013 19.6104C99.9951 19.4869 100.042 19.2729 100.042 18.9681V13.3187ZM111.404 13.3187V18.8375H120.871C121.174 18.8375 121.386 18.7903 121.509 18.6959C121.639 18.6016 121.736 18.4166 121.801 18.1408H122.147V20.9492H121.812C121.74 20.6734 121.639 20.4884 121.509 20.3941C121.386 20.2998 121.174 20.2525 120.871 20.2525H109.013V19.9042C109.294 19.8316 109.478 19.7337 109.565 19.6104C109.659 19.4869 109.706 19.2729 109.706 18.9681V6.67876C109.706 6.37404 109.659 6.15989 109.565 6.03659C109.471 5.91314 109.287 5.81519 109.013 5.7426V5.39428H120.73C121.033 5.39428 121.246 5.34718 121.368 5.25286C121.491 5.15853 121.589 4.96975 121.661 4.68677H122.007V7.49524H121.661C121.596 7.22661 121.498 7.0452 121.368 6.95087C121.246 6.85655 121.033 6.80945 120.73 6.80945H111.404V11.9036H117.517C117.82 11.9036 118.033 11.8565 118.155 11.7621C118.285 11.6677 118.382 11.4827 118.447 11.207H118.794V14.0153H118.447C118.382 13.7396 118.285 13.5545 118.155 13.4602C118.033 13.3659 117.82 13.3187 117.517 13.3187H111.404ZM130.675 13.5582V18.9681C130.675 19.2657 130.722 19.4797 130.816 19.6104C130.909 19.7337 131.093 19.8316 131.367 19.9042V20.2525H128.284V19.9042C128.558 19.8316 128.742 19.7337 128.836 19.6104C128.93 19.4869 128.977 19.2729 128.977 18.9681V6.67876C128.977 6.37404 128.93 6.15989 128.836 6.03659C128.742 5.9059 128.558 5.80795 128.284 5.7426V5.39428H136.387C137.498 5.39428 138.375 5.45601 139.017 5.57945C139.666 5.69552 140.228 5.90228 140.704 6.19989C141.195 6.5046 141.591 6.92189 141.894 7.45162C142.241 8.05394 142.414 8.73248 142.414 9.48709C142.414 10.6191 142.039 11.5444 141.289 12.2628C140.546 12.974 139.521 13.3804 138.216 13.482L141.97 19.36C142.194 19.7228 142.518 19.9042 142.944 19.9042V20.2525H139.525V19.9042C139.878 19.8461 140.055 19.7445 140.055 19.5993C140.055 19.5269 139.929 19.291 139.676 18.8918L136.323 13.5582H130.675ZM130.675 12.154H136.658C137.473 12.154 138.086 12.1214 138.497 12.0561C138.916 11.9835 139.283 11.8565 139.601 11.6751C140.344 11.2396 140.715 10.5103 140.715 9.48709C140.715 8.45675 140.333 7.72373 139.568 7.28832C139.229 7.09967 138.851 6.97274 138.432 6.9074C138.021 6.84205 137.379 6.80945 136.506 6.80945H130.675V12.154ZM149.329 19.1205V6.52633C149.329 6.3087 149.279 6.14178 149.178 6.02572C149.077 5.90952 148.896 5.81519 148.637 5.7426V5.39428H156.426C158.194 5.39428 159.546 5.64104 160.484 6.13454C161.667 6.75135 162.568 7.702 163.188 8.98648C163.729 10.1113 164 11.3884 164 12.818C164 14.5088 163.636 15.9675 162.907 17.1938C162.251 18.2823 161.418 19.066 160.408 19.545C159.405 20.0167 158.078 20.2525 156.426 20.2525H148.637V19.9042C148.896 19.8316 149.077 19.7373 149.178 19.6212C149.279 19.505 149.329 19.3383 149.329 19.1205ZM151.028 18.8375H156.362C157.927 18.8375 159.088 18.5944 159.845 18.1081C160.74 17.5277 161.396 16.6386 161.814 15.4413C162.089 14.6431 162.225 13.7687 162.225 12.818C162.225 11.0909 161.789 9.66125 160.916 8.5292C160.433 7.90514 159.845 7.46249 159.153 7.20124C158.461 6.94 157.53 6.80945 156.362 6.80945H151.028V18.8375Z" fill="black" fill-opacity="0.8"/>
<path d="M42.8893 6.3087L41.3422 9.11703L41.0393 8.95374C41.1619 8.62715 41.2232 8.42401 41.2232 8.34417C41.2232 8.12654 40.9563 7.89065 40.4226 7.63665C38.9728 6.95449 37.4365 6.61341 35.8137 6.61341C34.4793 6.61341 33.3181 6.86379 32.3299 7.36454C31.8539 7.61129 31.4752 7.9305 31.1939 8.32243C30.9199 8.71437 30.7828 9.1279 30.7828 9.5633C30.7828 9.92612 30.891 10.2708 31.1074 10.5974C31.3238 10.9167 31.6087 11.1563 31.9621 11.3158C32.3516 11.4972 32.8096 11.6243 33.3361 11.6969C33.8699 11.7621 34.7354 11.8129 35.9327 11.8493C37.5916 11.9 38.7781 11.9798 39.4921 12.0887C40.2062 12.1902 40.794 12.3718 41.2556 12.6329C42.4818 13.3223 43.0949 14.3709 43.0949 15.7788C43.0949 17.1212 42.5395 18.2207 41.4288 19.0769C40.1954 20.0349 38.4968 20.5138 36.333 20.5138C35.0852 20.5138 33.9961 20.3868 33.0656 20.1328C32.1352 19.8789 31.0244 19.4107 29.7334 18.7285C29.3727 18.5618 29.16 18.4783 29.095 18.4783C28.9868 18.4783 28.8174 18.6089 28.5865 18.8701L28.2944 18.6851L29.9173 15.953L30.2202 16.1271C30.0832 16.4173 30.0147 16.6132 30.0147 16.7148C30.0147 16.9471 30.4763 17.3063 31.3995 17.7925C32.229 18.2279 33.026 18.5435 33.7905 18.7396C34.5623 18.9282 35.3989 19.0225 36.3005 19.0225C38.1253 19.0225 39.5102 18.6197 40.455 17.8143C41.0825 17.2773 41.3963 16.6386 41.3963 15.8985C41.3963 14.9261 40.8589 14.2548 39.7843 13.8848C39.438 13.7613 39.0774 13.6852 38.7024 13.6561C38.3345 13.6199 37.2815 13.569 35.5432 13.5037C34.3026 13.453 33.3289 13.3586 32.622 13.2207C31.9224 13.0829 31.2985 12.8579 30.7504 12.5459C30.2383 12.2556 29.8307 11.8493 29.5278 11.3268C29.2321 10.8043 29.0842 10.2346 29.0842 9.61778C29.0842 8.56557 29.4737 7.66201 30.2527 6.9074C30.8297 6.35579 31.6267 5.92402 32.6437 5.61206C33.6607 5.29271 34.775 5.13304 35.9868 5.13304C36.9749 5.13304 37.8909 5.23112 38.7348 5.42702C39.5859 5.62292 40.5452 5.96038 41.6127 6.43925C41.8507 6.54096 41.9986 6.59168 42.0562 6.59168C42.1861 6.59168 42.3628 6.44649 42.5863 6.15627L42.8893 6.3087ZM51.3195 13.3187V18.8375H60.7861C61.0891 18.8375 61.3019 18.7903 61.4246 18.6959C61.5543 18.6016 61.6517 18.4166 61.7166 18.1408H62.0628V20.9492H61.7274C61.6553 20.6734 61.5543 20.4884 61.4246 20.3941C61.3019 20.2998 61.0891 20.2525 60.7861 20.2525H48.9285V19.9042C49.2097 19.8316 49.3938 19.7337 49.4803 19.6104C49.5741 19.4869 49.6209 19.2729 49.6209 18.9681V6.67876C49.6209 6.37404 49.5741 6.15989 49.4803 6.03659C49.3866 5.91314 49.2025 5.81519 48.9285 5.7426V5.39428H60.6456C60.9485 5.39428 61.1613 5.34718 61.2839 5.25286C61.4064 5.15853 61.5039 4.96975 61.5759 4.68677H61.9221V7.49524H61.5759C61.5111 7.22661 61.4136 7.0452 61.2839 6.95087C61.1613 6.85655 60.9485 6.80945 60.6456 6.80945H51.3195V11.9036H57.4322C57.7352 11.9036 57.9479 11.8565 58.0706 11.7621C58.2004 11.6677 58.2977 11.4827 58.3627 11.207H58.7089V14.0153H58.3627C58.2977 13.7396 58.2004 13.5545 58.0706 13.4602C57.9479 13.3659 57.7352 13.3187 57.4322 13.3187H51.3195ZM70.5904 13.569V19.1096C70.5904 19.3345 70.6409 19.505 70.7419 19.6212C70.8428 19.7373 71.0231 19.8316 71.2828 19.9042V20.2525H68.1993V19.9042C68.459 19.8316 68.6394 19.7373 68.7404 19.6212C68.8413 19.505 68.8917 19.3345 68.8917 19.1096V6.52633C68.8917 6.3087 68.8413 6.14178 68.7404 6.02572C68.6394 5.90952 68.459 5.81519 68.1993 5.7426V5.39428H75.9674C77.0566 5.39428 77.9041 5.45238 78.51 5.56844C79.1159 5.68464 79.6568 5.89503 80.1327 6.19989C80.6305 6.5046 81.0308 6.92189 81.3337 7.45162C81.6727 8.0467 81.8422 8.71437 81.8422 9.45449C81.8422 10.4705 81.5321 11.3413 80.9117 12.0669C80.4357 12.6256 79.8299 13.0176 79.0941 13.2426C78.3657 13.4602 77.3235 13.569 75.9674 13.569H70.5904ZM70.5904 12.154H76.1297C76.952 12.154 77.5615 12.1214 77.9581 12.0561C78.3621 11.9907 78.7227 11.8638 79.0401 11.6751C79.7757 11.2396 80.1435 10.5103 80.1435 9.48709C80.1435 8.45675 79.7757 7.72373 79.0401 7.28832C78.7227 7.09967 78.3657 6.97274 77.9689 6.9074C77.5723 6.84205 76.9593 6.80945 76.1297 6.80945H70.5904V12.154ZM100.042 13.3187H89.9262V18.9681C89.9262 19.2729 89.9695 19.4869 90.0561 19.6104C90.1498 19.7337 90.3373 19.8316 90.6186 19.9042V20.2525H87.5353V19.9042C87.8165 19.8316 88.0004 19.7337 88.087 19.6104C88.1807 19.4869 88.2277 19.2729 88.2277 18.9681V6.67876C88.2277 6.37404 88.1807 6.15989 88.087 6.03659C87.9932 5.9059 87.8093 5.80795 87.5353 5.7426V5.39428H90.6186V5.7426C90.3445 5.81519 90.1606 5.91314 90.0669 6.03659C89.9731 6.15989 89.9262 6.37404 89.9262 6.67876V11.9036H100.042V6.67876C100.042 6.37404 99.9951 6.15989 99.9013 6.03659C99.8075 5.9059 99.6236 5.80795 99.3496 5.7426V5.39428H102.433V5.7426C102.159 5.81519 101.975 5.91314 101.881 6.03659C101.787 6.15989 101.741 6.37404 101.741 6.67876V18.9681C101.741 19.2657 101.787 19.4797 101.881 19.6104C101.975 19.7337 102.159 19.8316 102.433 19.9042V20.2525H99.3496V19.9042C99.6236 19.8316 99.8075 19.7337 99.9013 19.6104C99.9951 19.4869 100.042 19.2729 100.042 18.9681V13.3187ZM111.404 13.3187V18.8375H120.871C121.174 18.8375 121.386 18.7903 121.509 18.6959C121.639 18.6016 121.736 18.4166 121.801 18.1408H122.147V20.9492H121.812C121.74 20.6734 121.639 20.4884 121.509 20.3941C121.386 20.2998 121.174 20.2525 120.871 20.2525H109.013V19.9042C109.294 19.8316 109.478 19.7337 109.565 19.6104C109.659 19.4869 109.706 19.2729 109.706 18.9681V6.67876C109.706 6.37404 109.659 6.15989 109.565 6.03659C109.471 5.91314 109.287 5.81519 109.013 5.7426V5.39428H120.73C121.033 5.39428 121.246 5.34718 121.368 5.25286C121.491 5.15853 121.589 4.96975 121.661 4.68677H122.007V7.49524H121.661C121.596 7.22661 121.498 7.0452 121.368 6.95087C121.246 6.85655 121.033 6.80945 120.73 6.80945H111.404V11.9036H117.517C117.82 11.9036 118.033 11.8565 118.155 11.7621C118.285 11.6677 118.382 11.4827 118.447 11.207H118.794V14.0153H118.447C118.382 13.7396 118.285 13.5545 118.155 13.4602C118.033 13.3659 117.82 13.3187 117.517 13.3187H111.404ZM130.675 13.5582V18.9681C130.675 19.2657 130.722 19.4797 130.816 19.6104C130.909 19.7337 131.093 19.8316 131.367 19.9042V20.2525H128.284V19.9042C128.558 19.8316 128.742 19.7337 128.836 19.6104C128.93 19.4869 128.977 19.2729 128.977 18.9681V6.67876C128.977 6.37404 128.93 6.15989 128.836 6.03659C128.742 5.9059 128.558 5.80795 128.284 5.7426V5.39428H136.387C137.498 5.39428 138.375 5.45601 139.017 5.57945C139.666 5.69552 140.228 5.90228 140.704 6.19989C141.195 6.5046 141.591 6.92189 141.894 7.45162C142.241 8.05394 142.414 8.73248 142.414 9.48709C142.414 10.6191 142.039 11.5444 141.289 12.2628C140.546 12.974 139.521 13.3804 138.216 13.482L141.97 19.36C142.194 19.7228 142.518 19.9042 142.944 19.9042V20.2525H139.525V19.9042C139.878 19.8461 140.055 19.7445 140.055 19.5993C140.055 19.5269 139.929 19.291 139.676 18.8918L136.323 13.5582H130.675ZM130.675 12.154H136.658C137.473 12.154 138.086 12.1214 138.497 12.0561C138.916 11.9835 139.283 11.8565 139.601 11.6751C140.344 11.2396 140.715 10.5103 140.715 9.48709C140.715 8.45675 140.333 7.72373 139.568 7.28832C139.229 7.09967 138.851 6.97274 138.432 6.9074C138.021 6.84205 137.379 6.80945 136.506 6.80945H130.675V12.154ZM149.329 19.1205V6.52633C149.329 6.3087 149.279 6.14178 149.178 6.02572C149.077 5.90952 148.896 5.81519 148.637 5.7426V5.39428H156.426C158.194 5.39428 159.546 5.64104 160.484 6.13454C161.667 6.75135 162.568 7.702 163.188 8.98648C163.729 10.1113 164 11.3884 164 12.818C164 14.5088 163.636 15.9675 162.907 17.1938C162.251 18.2823 161.418 19.066 160.408 19.545C159.405 20.0167 158.078 20.2525 156.426 20.2525H148.637V19.9042C148.896 19.8316 149.077 19.7373 149.178 19.6212C149.279 19.505 149.329 19.3383 149.329 19.1205ZM151.028 18.8375H156.362C157.927 18.8375 159.088 18.5944 159.845 18.1081C160.74 17.5277 161.396 16.6386 161.814 15.4413C162.089 14.6431 162.225 13.7687 162.225 12.818C162.225 11.0909 161.789 9.66125 160.916 8.5292C160.433 7.90514 159.845 7.46249 159.153 7.20124C158.461 6.94 157.53 6.80945 156.362 6.80945H151.028V18.8375Z" stroke="black" stroke-width="0.8" mask="url(#path-1-outside-1_239_20227)"/>
<path d="M9.79373 0.904025C9.79359 0.904145 9.79345 0.904265 9.79331 0.904385C9.14544 1.4608 7.93025 2.29772 6.40712 2.9767C4.87552 3.65945 3.05785 4.17122 1.20984 4.09685L1.01213 4.08889L0.806887 4.08063L0.804103 4.28602L0.801405 4.48507C0.801405 4.48507 0.801405 4.48507 0.801405 4.48508C0.768598 6.89541 1.30787 10.7245 2.70463 14.5401C4.10061 18.3535 6.37141 22.203 9.83714 24.5942L9.83836 24.5924C9.85889 24.6042 9.88149 24.6157 9.90382 24.6255C9.93359 24.6386 9.99498 24.6636 10.0601 24.6636C10.1438 24.6636 10.2218 24.637 10.2856 24.5922C13.7512 22.1998 16.0209 18.3012 17.416 14.4416C18.8124 10.5781 19.3516 6.70109 19.3188 4.29117L19.3161 4.09211L19.3133 3.88672L19.1081 3.89498L18.9104 3.90294C17.0561 3.97756 15.2346 3.51078 13.7036 2.87569C12.172 2.24033 10.9566 1.44724 10.3173 0.896215C10.2486 0.836497 10.1585 0.8 10.0601 0.8C9.95695 0.8 9.86307 0.848356 9.80428 0.895296L9.80411 0.895092L9.80395 0.895225C9.80056 0.89815 9.79715 0.901084 9.79373 0.904025ZM16.6775 14.1731L16.6775 14.1731C15.3978 17.7137 13.393 21.2066 10.4529 23.4939V12.8348H17.1271C16.9887 13.2794 16.839 13.7263 16.6775 14.1731ZM3.44198 14.2685L3.25417 14.3373L3.44198 14.2685C3.26672 13.7898 3.10533 13.3109 2.95722 12.8348H9.66738V23.4947C6.72574 21.2121 4.72117 17.763 3.44198 14.2685ZM6.72614 3.69662C7.91871 3.16499 8.9357 2.5393 9.66738 2.00434V12.047H2.72326C1.94772 9.30739 1.60949 6.72553 1.58671 4.89185C3.44731 4.88862 5.23442 4.36161 6.72614 3.69662Z" fill="black" fill-opacity="0.8" stroke="black" stroke-width="0.4"/>
</svg>
