<svg width="164" height="86" viewBox="0 0 164 86" fill="none" xmlns="http://www.w3.org/2000/svg">
<path d="M13.104 74.588C8.946 74.588 4.788 72.95 1.764 70.052L5.334 65.768C7.56 67.826 10.5 69.212 13.23 69.212C16.464 69.212 18.186 67.826 18.186 65.642C18.186 63.332 16.296 62.618 13.524 61.442L9.366 59.678C6.216 58.376 3.066 55.856 3.066 51.32C3.066 46.238 7.518 42.332 13.818 42.332C17.43 42.332 21.042 43.76 23.562 46.322L20.412 50.228C18.438 48.59 16.38 47.666 13.818 47.666C11.088 47.666 9.366 48.884 9.366 50.942C9.366 53.168 11.55 53.966 14.196 55.016L18.27 56.738C22.05 58.292 24.528 60.686 24.528 65.18C24.528 70.262 20.286 74.588 13.104 74.588ZM38.095 74.588C31.501 74.588 26.377 70.01 26.377 62.24C26.377 54.638 31.753 49.892 37.339 49.892C43.807 49.892 47.167 54.638 47.167 61.106C47.167 62.282 47.041 63.416 46.873 63.962H32.383C32.887 67.826 35.407 69.842 38.893 69.842C40.825 69.842 42.505 69.254 44.185 68.204L46.285 71.984C43.975 73.58 40.993 74.588 38.095 74.588ZM32.299 59.846H41.875C41.875 56.696 40.447 54.68 37.423 54.68C34.945 54.68 32.761 56.444 32.299 59.846ZM50.5713 83.03V50.48H55.6113L56.0733 52.916H56.1993C58.1733 51.236 60.6093 49.892 63.1293 49.892C68.9253 49.892 72.3693 54.638 72.3693 61.862C72.3693 69.926 67.5393 74.588 62.3733 74.588C60.3153 74.588 58.3413 73.664 56.5353 72.026L56.7453 75.89V83.03H50.5713ZM60.9873 69.506C63.8433 69.506 66.0273 67.07 66.0273 61.946C66.0273 57.452 64.5993 54.974 61.3653 54.974C59.7693 54.974 58.3413 55.772 56.7453 57.41V67.742C58.2153 69.044 59.7273 69.506 60.9873 69.506ZM75.9206 74V40.484H82.0946V48.926L81.8006 53.336C83.6906 51.572 86.0006 49.892 89.1926 49.892C94.2746 49.892 96.4586 53.42 96.4586 59.342V74H90.2846V60.098C90.2846 56.444 89.2766 55.184 86.9666 55.184C85.0346 55.184 83.8166 56.108 82.0946 57.83V74H75.9206ZM111.354 74.588C104.76 74.588 99.6358 70.01 99.6358 62.24C99.6358 54.638 105.012 49.892 110.598 49.892C117.066 49.892 120.426 54.638 120.426 61.106C120.426 62.282 120.3 63.416 120.132 63.962H105.642C106.146 67.826 108.666 69.842 112.152 69.842C114.084 69.842 115.764 69.254 117.444 68.204L119.544 71.984C117.234 73.58 114.252 74.588 111.354 74.588ZM105.558 59.846H115.134C115.134 56.696 113.706 54.68 110.682 54.68C108.204 54.68 106.02 56.444 105.558 59.846ZM123.83 74V50.48H128.87L129.332 54.638H129.458C131.18 51.572 133.7 49.892 136.136 49.892C137.438 49.892 138.194 50.102 138.908 50.396L137.858 55.73C137.018 55.478 136.346 55.352 135.38 55.352C133.532 55.352 131.306 56.57 130.004 59.972V74H123.83ZM148.225 74.588C142.387 74.588 138.607 69.968 138.607 62.24C138.607 54.596 143.395 49.892 148.477 49.892C151.123 49.892 152.761 50.9 154.441 52.454L154.231 48.758V40.484H160.363V74H155.365L154.903 71.564H154.735C153.013 73.244 150.661 74.588 148.225 74.588ZM149.821 69.506C151.459 69.506 152.845 68.834 154.231 67.07V56.738C152.803 55.436 151.291 54.974 149.821 54.974C147.175 54.974 144.949 57.494 144.949 62.198C144.949 67.07 146.713 69.506 149.821 69.506Z" fill="black"/>
<path d="M3.36 11.6L2.832 10.56C5.072 10.224 7.28 8.896 7.408 7.344H3.648V6.24H12.528V7.344H8.784C8.912 8.896 11.136 10.224 13.36 10.56L12.832 11.6C10.816 11.248 8.928 10.208 8.096 8.784C7.28 10.208 5.392 11.248 3.36 11.6ZM2.512 4.64L3.168 4.864C1.84 6.928 1.408 9.344 1.392 11.92C1.392 14.512 1.84 16.912 3.168 18.976L2.512 19.2C1.088 17.056 0.512 14.736 0.512 11.92C0.512 9.12 1.088 6.784 2.512 4.64ZM13.632 13.664H8.752V18.544H7.44V13.664H2.544V12.56H13.632V13.664ZM12.832 4.864L13.488 4.64C14.912 6.784 15.488 9.12 15.488 11.92C15.488 14.736 14.912 17.056 13.488 19.2L12.832 18.976C14.16 16.912 14.608 14.368 14.608 11.92C14.608 9.344 14.16 6.928 12.832 4.864ZM21.104 6.192V8.88C21.104 11.184 22.176 13.616 24.064 14.768L23.312 15.792C21.952 14.96 20.992 13.44 20.48 11.696C19.968 13.6 18.928 15.216 17.504 16.096L16.688 15.12C18.656 13.968 19.84 11.392 19.84 8.928V6.192H21.104ZM24.88 9.984V5.152H26.112V18.48H24.88V11.072H22.512V9.984H24.88ZM27.792 4.832H29.04V19.184H27.792V4.832ZM34.6228 7.408V14.512C35.3748 14.496 36.1588 14.464 36.9428 14.416V7.408H34.6228ZM38.2228 7.408V14.336C38.9268 14.304 39.5988 14.24 40.2708 14.16L40.3668 15.12C37.4548 15.568 34.0948 15.648 31.5988 15.648L31.4548 14.544C32.0308 14.544 32.6868 14.544 33.3428 14.528V7.408H31.9028V6.336H39.8228V7.408H38.2228ZM42.0788 4.848H43.3908V19.184H42.0788V11.328H39.3428V10.24H42.0788V4.848ZM57.7895 11.712V12.784H47.9335V6.144H57.6455V7.232H49.2295V11.712H57.7895ZM46.2695 16.16H59.2935V17.248H46.2695V16.16Z" fill="black"/>
</svg>
