<svg width="755" height="46" viewBox="0 0 755 46" fill="none" xmlns="http://www.w3.org/2000/svg">
<path d="M3.36 11.6L2.832 10.56C5.072 10.224 7.28 8.896 7.408 7.344H3.648V6.24H12.528V7.344H8.784C8.912 8.896 11.136 10.224 13.36 10.56L12.832 11.6C10.816 11.248 8.928 10.208 8.096 8.784C7.28 10.208 5.392 11.248 3.36 11.6ZM2.512 4.64L3.168 4.864C1.84 6.928 1.408 9.344 1.392 11.92C1.392 14.512 1.84 16.912 3.168 18.976L2.512 19.2C1.088 17.056 0.512 14.736 0.512 11.92C0.512 9.12 1.088 6.784 2.512 4.64ZM13.632 13.664H8.752V18.544H7.44V13.664H2.544V12.56H13.632V13.664ZM12.832 4.864L13.488 4.64C14.912 6.784 15.488 9.12 15.488 11.92C15.488 14.736 14.912 17.056 13.488 19.2L12.832 18.976C14.16 16.912 14.608 14.368 14.608 11.92C14.608 9.344 14.16 6.928 12.832 4.864ZM20.464 6.192V8.88C20.464 11.184 21.536 13.616 23.424 14.768L22.672 15.792C21.312 14.96 20.352 13.44 19.84 11.696C19.328 13.6 18.288 15.216 16.864 16.096L16.048 15.12C18.016 13.968 19.2 11.392 19.2 8.928V6.192H20.464ZM24.24 9.984V5.152H25.472V18.48H24.24V11.072H21.872V9.984H24.24ZM27.152 4.832H28.4V19.184H27.152V4.832ZM33.3427 7.408V14.512C34.0947 14.496 34.8787 14.464 35.6627 14.416V7.408H33.3427ZM36.9427 7.408V14.336C37.6467 14.304 38.3187 14.24 38.9907 14.16L39.0868 15.12C36.1747 15.568 32.8147 15.648 30.3187 15.648L30.1747 14.544C30.7507 14.544 31.4067 14.544 32.0627 14.528V7.408H30.6227V6.336H38.5427V7.408H36.9427ZM40.7987 4.848H42.1108V19.184H40.7987V11.328H38.0627V10.24H40.7987V4.848ZM55.8695 11.712V12.784H46.0135V6.144H55.7255V7.232H47.3095V11.712H55.8695ZM44.3495 16.16H57.3735V17.248H44.3495V16.16ZM69.9482 9.152V10.224H60.1882V5.36H61.5002V9.152H69.9482ZM61.4042 14.64V17.76H70.0282V18.832H60.0922V14.64H61.4042ZM58.4282 12.144H71.4362V13.2H58.4282V12.144ZM83.1251 8.56H85.9571V4.848H87.2851V13.392H85.9571V9.632H83.1251V8.56ZM83.9251 11.824L83.2691 12.848C81.6691 12.272 80.4371 11.088 79.8131 9.616C79.2051 11.28 77.8771 12.624 76.1971 13.264L75.5091 12.224C77.6531 11.44 79.1251 9.504 79.1251 7.44V6.944H75.9251V5.888H83.5891V6.944H80.4371V7.44C80.4371 9.28 81.8451 11.088 83.9251 11.824ZM82.5491 18.16C84.7091 18.16 86.0211 17.552 86.0211 16.512C86.0211 15.472 84.7091 14.848 82.5491 14.848C80.3891 14.848 79.0771 15.472 79.0771 16.512C79.0771 17.552 80.3891 18.16 82.5491 18.16ZM82.5491 13.84C85.4931 13.84 87.3331 14.816 87.3331 16.512C87.3331 18.208 85.4931 19.184 82.5491 19.184C79.6051 19.184 77.7651 18.208 77.7651 16.512C77.7651 14.816 79.6051 13.84 82.5491 13.84ZM99.5879 10.544V8.432H92.4679V10.544H99.5879ZM100.9 5.408V11.616H91.1719V5.408H92.4679V7.376H99.5879V5.408H100.9ZM102.548 13.344V14.4H96.6599V19.2H95.3479V14.4H89.5239V13.344H102.548ZM110.125 13.296C109.549 13.296 109.069 12.832 109.069 12.192C109.069 11.52 109.549 11.056 110.125 11.056C110.701 11.056 111.181 11.52 111.181 12.192C111.181 12.832 110.701 13.296 110.125 13.296ZM127.856 6.784V6.624H119.376V5.568H129.152V6.784C129.152 7.936 129.152 9.104 128.752 10.576L127.472 10.432C127.856 8.96 127.856 7.904 127.856 6.784ZM124.256 18.144C126.512 18.144 127.952 17.536 127.952 16.544C127.952 15.52 126.512 14.912 124.256 14.912C122.016 14.912 120.576 15.52 120.576 16.544C120.576 17.536 122.016 18.144 124.256 18.144ZM124.256 13.904C127.312 13.904 129.264 14.88 129.264 16.544C129.264 18.176 127.312 19.168 124.256 19.168C121.2 19.168 119.264 18.176 119.264 16.544C119.264 14.88 121.2 13.904 124.256 13.904ZM124.464 11.52H130.768V12.576H117.856V11.52H123.152V8.768H124.464V11.52ZM141.934 6.784V6.624H133.454V5.568H143.23V6.784C143.23 7.936 143.23 9.104 142.83 10.576L141.55 10.432C141.934 8.96 141.934 7.904 141.934 6.784ZM138.334 18.144C140.59 18.144 142.03 17.536 142.03 16.544C142.03 15.52 140.59 14.912 138.334 14.912C136.094 14.912 134.654 15.52 134.654 16.544C134.654 17.536 136.094 18.144 138.334 18.144ZM138.334 13.904C141.39 13.904 143.342 14.88 143.342 16.544C143.342 18.176 141.39 19.168 138.334 19.168C135.278 19.168 133.342 18.176 133.342 16.544C133.342 14.88 135.278 13.904 138.334 13.904ZM138.542 11.52H144.846V12.576H131.934V11.52H137.23V8.768H138.542V11.52ZM158.967 10.544V8.432H151.847V10.544H158.967ZM160.279 5.408V11.616H150.551V5.408H151.847V7.376H158.967V5.408H160.279ZM161.927 13.344V14.4H156.039V19.2H154.727V14.4H148.903V13.344H161.927ZM173.014 9.488V6.56H165.942V9.488H173.014ZM174.31 5.504V10.544H164.662V5.504H174.31ZM165.942 14.768V17.792H174.55V18.864H164.63V14.768H165.942ZM162.966 12.176H176.006V13.232H170.246V16.128H168.934V13.232H162.966V12.176ZM181.733 5.888C183.973 5.888 185.573 7.248 185.573 9.264C185.573 11.264 183.973 12.64 181.733 12.64C179.509 12.64 177.893 11.264 177.893 9.264C177.893 7.248 179.509 5.888 181.733 5.888ZM181.733 7.008C180.261 7.008 179.173 7.92 179.173 9.264C179.173 10.592 180.261 11.52 181.733 11.52C183.221 11.52 184.293 10.592 184.293 9.264C184.293 7.92 183.221 7.008 181.733 7.008ZM187.461 4.832H188.773V19.216H187.461V4.832ZM177.333 16.064L177.173 14.96C179.781 14.96 183.381 14.944 186.517 14.464L186.629 15.44C183.397 16.032 179.925 16.064 177.333 16.064ZM195.902 7.648V14.56C197.822 14.544 199.182 14.464 200.75 14.128L200.862 15.216C199.15 15.584 197.694 15.648 195.55 15.648H194.606V6.576H199.95V7.648H195.902ZM205.022 4.832H206.286V19.184H205.022V11.664H202.99V18.464H201.758V5.152H202.99V10.592H205.022V4.832ZM218.668 11.072V9.344H216.252V8.288H218.668V4.832H219.996V14.096H218.668V12.144H216.236V11.072H218.668ZM216.236 6.416V7.472H208.204V6.416H211.628V4.704H212.94V6.416H216.236ZM210.252 10.864C210.252 11.872 211.068 12.528 212.268 12.528C213.468 12.528 214.284 11.872 214.284 10.864C214.284 9.872 213.468 9.216 212.268 9.216C211.068 9.216 210.252 9.872 210.252 10.864ZM215.516 10.864C215.516 12.48 214.172 13.536 212.268 13.536C210.348 13.536 209.02 12.48 209.02 10.864C209.02 9.264 210.348 8.208 212.268 8.208C214.172 8.208 215.516 9.264 215.516 10.864ZM215.292 18.16C217.404 18.16 218.7 17.632 218.7 16.72C218.7 15.792 217.404 15.28 215.292 15.28C213.18 15.28 211.868 15.792 211.868 16.72C211.868 17.632 213.18 18.16 215.292 18.16ZM215.292 14.272C218.252 14.272 220.06 15.152 220.06 16.72C220.06 18.272 218.252 19.168 215.292 19.168C212.316 19.168 210.508 18.272 210.508 16.72C210.508 15.152 212.316 14.272 215.292 14.272ZM232.853 8.56H235.685V4.848H237.013V13.392H235.685V9.632H232.853V8.56ZM233.653 11.824L232.997 12.848C231.397 12.272 230.165 11.088 229.541 9.616C228.933 11.28 227.605 12.624 225.925 13.264L225.237 12.224C227.381 11.44 228.853 9.504 228.853 7.44V6.944H225.653V5.888H233.317V6.944H230.165V7.44C230.165 9.28 231.573 11.088 233.653 11.824ZM232.277 18.16C234.437 18.16 235.749 17.552 235.749 16.512C235.749 15.472 234.437 14.848 232.277 14.848C230.117 14.848 228.805 15.472 228.805 16.512C228.805 17.552 230.117 18.16 232.277 18.16ZM232.277 13.84C235.221 13.84 237.061 14.816 237.061 16.512C237.061 18.208 235.221 19.184 232.277 19.184C229.333 19.184 227.493 18.208 227.493 16.512C227.493 14.816 229.333 13.84 232.277 13.84ZM242.1 9.488V12.128H249.428V9.488H242.1ZM246.42 16.272H252.276V17.344H239.268V16.272H245.092V13.184H240.804V5.856H242.1V8.416H249.428V5.856H250.708V13.184H246.42V16.272ZM261.373 6.08V8.656C261.373 11.28 263.085 13.92 265.213 14.88L264.429 15.936C262.797 15.136 261.421 13.44 260.733 11.392C260.077 13.552 258.701 15.344 257.021 16.208L256.221 15.136C258.333 14.128 260.077 11.376 260.077 8.656V6.08H261.373ZM266.717 4.832H268.029V19.216H266.717V4.832ZM282.732 12.048L282.14 13.136C279.964 12.64 277.724 11.104 276.812 8.992C275.9 11.088 273.66 12.624 271.5 13.136L270.908 12.048C273.42 11.552 276.124 9.392 276.124 6.944V5.84H277.5V6.944C277.5 9.392 280.22 11.568 282.732 12.048ZM270.364 16.176H283.372V17.264H270.364V16.176ZM292.522 13.328V9.504H290.618V8.448H292.522V5.072H293.77V13.328H292.522ZM291.178 11.168L291.29 12.224C289.658 12.544 288.298 12.608 286.01 12.608H285.098V5.76H290.522V6.816H286.362V8.592H289.962V9.616H286.362V11.552C288.394 11.552 289.69 11.472 291.178 11.168ZM288.41 15.2V17.936H295.274V15.2H288.41ZM287.13 18.992V14.16H296.554V18.992H287.13ZM295.29 4.832H296.554V13.472H295.29V4.832ZM302.003 6.688H307.603C307.603 10.384 306.307 13.808 302.227 16.112L301.459 15.168C304.755 13.328 306.115 10.736 306.307 7.76H302.003V6.688ZM312.371 4.832H313.635V19.184H312.371V11.68H310.419V18.464H309.187V5.216H310.419V10.608H312.371V4.832ZM321.49 10.64V8.496H317.426V10.64H321.49ZM322.77 5.424V11.696H316.13V5.424H317.426V7.488H321.49V5.424H322.77ZM318.882 16.416V17.984H327.202V19.024H317.602V15.44H325.378V13.968H317.554V12.928H326.674V16.416H318.882ZM326.674 7.92H328.802V9.008H326.674V12.256H325.362V4.848H326.674V7.92ZM344.027 9.232V10.288H334.187V5.408H343.931V6.464H335.499V9.232H344.027ZM339.035 18.144C341.275 18.144 342.619 17.584 342.619 16.576C342.619 15.568 341.291 15.008 339.035 15.008C336.779 15.008 335.451 15.568 335.451 16.576C335.451 17.584 336.779 18.144 339.035 18.144ZM339.035 13.984C342.091 13.984 343.947 14.912 343.947 16.576C343.947 18.24 342.091 19.168 339.035 19.168C335.979 19.168 334.123 18.24 334.123 16.576C334.123 14.912 335.979 13.984 339.035 13.984ZM332.555 11.664H345.547V12.752H332.555V11.664ZM352.948 18.208C351.108 18.208 349.956 17.44 349.188 16.608L349.924 15.648C350.612 16.368 351.508 16.992 352.836 16.992C354.228 16.992 355.22 16.16 355.22 14.8C355.22 13.408 354.276 12.464 351.572 12.464V11.344C353.988 11.344 354.82 10.368 354.82 9.104C354.82 7.984 354.052 7.248 352.836 7.248C351.892 7.248 351.06 7.712 350.404 8.384L349.62 7.456C350.5 6.64 351.54 6.048 352.9 6.048C354.868 6.048 356.308 7.136 356.308 8.992C356.308 10.416 355.46 11.36 354.228 11.824V11.888C355.604 12.208 356.708 13.264 356.708 14.864C356.708 16.96 355.028 18.208 352.948 18.208ZM361.407 18.208C359.167 18.208 357.743 16.176 357.743 12.096C357.743 8.016 359.167 6.048 361.407 6.048C363.631 6.048 365.055 8.032 365.055 12.096C365.055 16.176 363.631 18.208 361.407 18.208ZM361.407 17.04C362.735 17.04 363.631 15.552 363.631 12.096C363.631 8.672 362.735 7.216 361.407 7.216C360.063 7.216 359.167 8.672 359.167 12.096C359.167 15.552 360.063 17.04 361.407 17.04ZM376.538 15.472V10.496H372.49V9.456H376.538V7.76H372.49V6.704H376.538V4.848H377.866V15.472H376.538ZM374.17 11.728L374.314 12.816C372.01 13.232 370.074 13.344 367.962 13.344H366.874V5.872H368.186V12.24C370.154 12.224 372.026 12.112 374.17 11.728ZM369.978 17.792H378.234V18.864H368.666V14.56H369.978V17.792ZM393.491 4.832H394.803V19.216H393.491V4.832ZM387.235 5.936C389.363 5.936 390.883 7.888 390.883 10.944C390.883 14 389.363 15.952 387.235 15.952C385.107 15.952 383.587 14 383.587 10.944C383.587 7.888 385.107 5.936 387.235 5.936ZM387.235 7.12C385.827 7.12 384.835 8.624 384.835 10.944C384.835 13.28 385.827 14.784 387.235 14.784C388.627 14.784 389.619 13.28 389.619 10.944C389.619 8.624 388.627 7.12 387.235 7.12ZM405.425 11.584L404.737 12.608C403.185 12.032 401.953 10.848 401.313 9.376C400.721 11.056 399.441 12.368 397.761 13.008L397.073 11.968C399.249 11.184 400.641 9.232 400.641 7.04V5.568H401.953V7.152C401.953 9.088 403.361 10.88 405.425 11.584ZM403.713 18.144C405.825 18.144 407.121 17.552 407.121 16.56C407.121 15.552 405.825 14.96 403.713 14.96C401.585 14.96 400.289 15.552 400.289 16.56C400.289 17.552 401.585 18.144 403.713 18.144ZM403.713 13.936C406.625 13.936 408.433 14.88 408.433 16.56C408.433 18.224 406.625 19.168 403.713 19.168C400.785 19.168 398.977 18.224 398.977 16.56C398.977 14.88 400.785 13.936 403.713 13.936ZM408.273 8.544H410.401V9.632H408.273V13.536H406.961V4.848H408.273V8.544ZM415.872 5.888C418.112 5.888 419.712 7.248 419.712 9.264C419.712 11.264 418.112 12.64 415.872 12.64C413.648 12.64 412.032 11.264 412.032 9.264C412.032 7.248 413.648 5.888 415.872 5.888ZM415.872 7.008C414.4 7.008 413.312 7.92 413.312 9.264C413.312 10.592 414.4 11.52 415.872 11.52C417.36 11.52 418.432 10.592 418.432 9.264C418.432 7.92 417.36 7.008 415.872 7.008ZM421.6 4.832H422.912V19.216H421.6V4.832ZM411.472 16.064L411.312 14.96C413.92 14.96 417.52 14.944 420.656 14.464L420.768 15.44C417.536 16.032 414.064 16.064 411.472 16.064ZM1.392 29.688H6.992C6.992 33.384 5.696 36.808 1.616 39.112L0.848 38.168C4.144 36.328 5.504 33.736 5.696 30.76H1.392V29.688ZM11.76 27.832H13.024V42.184H11.76V34.68H9.808V41.464H8.576V28.216H9.808V33.608H11.76V27.832ZM20.8787 33.64V31.496H16.8147V33.64H20.8787ZM22.1587 28.424V34.696H15.5187V28.424H16.8147V30.488H20.8787V28.424H22.1587ZM18.2708 39.416V40.984H26.5908V42.024H16.9907V38.44H24.7668V36.968H16.9427V35.928H26.0627V39.416H18.2708ZM26.0627 30.92H28.1908V32.008H26.0627V35.256H24.7508V27.848H26.0627V30.92ZM42.4396 31.544H38.8556C37.9276 33.848 35.7516 35.528 32.6636 36.424L32.1356 35.384C35.5596 34.36 37.6876 32.456 37.9276 29.976H32.8716V28.92H39.3516C39.3516 29.448 39.2876 29.976 39.1916 30.472H42.4396V27.848H43.7676V36.424H42.4396V34.536H38.6796V33.464H42.4396V31.544ZM39.0796 41.096C41.1916 41.096 42.5356 40.44 42.5356 39.352C42.5356 38.28 41.1916 37.624 39.0796 37.624C36.9676 37.624 35.6236 38.28 35.6236 39.352C35.6236 40.44 36.9676 41.096 39.0796 41.096ZM39.0796 36.584C41.9756 36.584 43.8316 37.624 43.8316 39.352C43.8316 41.08 41.9756 42.12 39.0796 42.12C36.1836 42.12 34.3276 41.08 34.3276 39.352C34.3276 37.624 36.1836 36.584 39.0796 36.584ZM53.6064 34.6L53.7344 35.656C51.9744 35.96 50.5184 36.008 47.6544 36.008H46.6304V31.752H51.4944V29.768H46.5824V28.696H52.7744V32.76H47.9104V34.936C50.5664 34.936 51.9424 34.872 53.6064 34.6ZM48.2304 38.504V37.432H57.8464V42.2H56.5184V38.504H48.2304ZM56.5184 27.848H57.8464V36.664H56.5184V34.008H53.7184V32.952H56.5184V31.032H53.7184V29.96H56.5184V27.848ZM64.9331 30.392V32.216C64.9331 34.504 66.5651 37.048 68.6451 38.024L67.8931 39.08C66.2931 38.28 64.9491 36.6 64.2931 34.68C63.6371 36.776 62.2451 38.6 60.6291 39.432L59.8611 38.392C61.9091 37.368 63.6371 34.648 63.6371 32.216V30.392H60.3571V29.304H68.1171V30.392H64.9331ZM73.5091 33.624V34.728H71.1411V42.184H69.8291V27.848H71.1411V33.624H73.5091ZM85.9559 27.848V38.328H84.6439V27.848H85.9559ZM75.7959 32.36C75.7959 33.784 76.8519 34.776 78.2439 34.776C79.6679 34.776 80.7239 33.784 80.7239 32.36C80.7239 30.968 79.6679 29.976 78.2439 29.976C76.8519 29.976 75.7959 30.968 75.7959 32.36ZM82.0039 32.36C82.0039 34.44 80.3879 35.912 78.2439 35.912C76.1159 35.912 74.5159 34.44 74.5159 32.36C74.5159 30.296 76.1159 28.84 78.2439 28.84C80.3879 28.84 82.0039 30.296 82.0039 32.36ZM78.0359 40.792H86.3879V41.864H76.7239V37.256H78.0359V40.792ZM93.0047 30.648V37.56C94.9247 37.544 96.2847 37.464 97.8527 37.128L97.9647 38.216C96.2527 38.584 94.7967 38.648 92.6527 38.648H91.7087V29.576H97.0527V30.648H93.0047ZM102.125 27.832H103.389V42.184H102.125V34.664H100.093V41.464H98.8607V28.152H100.093V33.592H102.125V27.832ZM110.187 35.96V39.368H113.307V35.96H110.187ZM109.963 30.216V34.904H113.531V30.216H109.963ZM114.619 39.368H118.283V40.44H105.259V39.368H108.875V35.96H106.459V34.904H108.651V30.216H106.427V29.16H117.067V30.216H114.843V34.904H117.051V35.96H114.619V39.368ZM129.402 30.344V29.176H120.986V28.248H130.698V31.24H122.314V32.472H130.954V33.416H121.018V30.344H129.402ZM122.234 39.72V41.048H131.194V41.992H120.938V38.808H129.45V37.608H120.906V36.664H130.746V39.72H122.234ZM119.354 34.504H132.362V35.496H119.354V34.504ZM137.651 34.808L137.155 33.768C139.651 33.4 142.131 31.752 142.131 29.864V29.784H137.603V28.728H148.083V29.784H143.587V29.864C143.587 31.752 146.067 33.4 148.595 33.768L148.083 34.808C145.859 34.424 143.731 33.224 142.867 31.528C141.987 33.224 139.875 34.424 137.651 34.808ZM149.347 36.008L149.363 37.08H143.491V42.184H142.179V37.08H136.387V36.008H149.347ZM151.634 34.248L151.234 33.256C153.938 32.984 156.114 31.88 156.226 30.28H151.794V29.24H156.29V27.752H157.602V29.24H162.098V30.28H157.65C157.762 31.88 159.938 32.984 162.658 33.256L162.242 34.248C159.89 34.008 157.81 33.144 156.946 31.704C156.082 33.144 153.986 34.008 151.634 34.248ZM163.426 36.104H157.602V37.752H161.826V42.136H160.514V38.792H151.89V37.752H156.29V36.104H150.45V35.048H163.426V36.104ZM171.009 28.728C173.985 28.728 176.225 30.312 176.225 32.696C176.225 35.096 173.985 36.664 171.009 36.664C168.033 36.664 165.793 35.096 165.793 32.696C165.793 30.312 168.033 28.728 171.009 28.728ZM171.009 29.8C168.753 29.8 167.041 30.968 167.041 32.696C167.041 34.44 168.753 35.592 171.009 35.592C173.281 35.592 174.977 34.44 174.977 32.696C174.977 30.968 173.281 29.8 171.009 29.8ZM164.513 39.192H177.553V40.28H164.513V39.192ZM185.759 39.336H191.631V40.408H178.591V39.336H184.431V36.632H180.223V32.2H188.735V29.96H180.191V28.888H190.015V33.256H181.519V35.576H190.351V36.632H185.759V39.336ZM205.752 30.696V30.344H197V29.272H207.064V30.696C207.064 32.472 207.064 34.44 206.52 37.336L205.208 37.192C205.752 34.44 205.752 32.424 205.752 30.696ZM201.992 39.096H208.616V40.168H195.64V39.096H200.68V33.96H201.992V39.096ZM210.343 28.904H215.943C215.943 32.328 214.055 34.904 210.423 36.44L209.783 35.48C212.711 34.28 214.359 32.344 214.599 29.96H210.343V28.904ZM212.167 38.04V36.968H221.815V42.184H220.503V38.04H212.167ZM220.551 27.848H221.815V36.28H220.551V32.52H218.663V36.216H217.415V28.104H218.663V31.448H220.551V27.848ZM231.27 35.88L229.958 35.752C230.358 33.368 230.39 31.624 230.39 30.472H224.422V29.4H231.67V30.184C231.67 31.336 231.67 33.208 231.27 35.88ZM227.974 33.496V37.88C229.542 37.816 231.142 37.72 232.598 37.544L232.678 38.504C229.702 38.984 226.326 39.048 223.782 39.048L223.638 37.96C224.55 37.96 225.606 37.944 226.678 37.912V33.496H227.974ZM237.078 33.832V34.936H234.79V42.184H233.478V27.832H234.79V33.832H237.078ZM243.807 30.44V37.496C244.575 37.48 245.375 37.448 246.159 37.416V30.44H243.807ZM247.439 30.44V37.336C248.191 37.288 248.927 37.224 249.631 37.128L249.727 38.104C246.719 38.584 243.311 38.632 240.783 38.632L240.623 37.528C241.215 37.528 241.855 37.528 242.527 37.512V30.44H240.991V29.384H248.975V30.44H247.439ZM254.207 33.576V34.664H251.839V42.184H250.527V27.848H251.839V33.576H254.207ZM266.397 35.576V36.632H256.541V29.08H266.253V30.136H257.869V32.264H265.933V33.304H257.869V35.576H266.397ZM254.861 39.256H267.885V40.328H254.861V39.256ZM271.052 29.432V37.64C273.18 37.624 275.132 37.48 277.244 37.048L277.42 38.168C275.148 38.6 273.132 38.744 270.86 38.744H269.74V29.432H271.052ZM279.468 27.832H280.78V42.216H279.468V33.656H275.068V32.568H279.468V27.832ZM287.851 29.08V31.656C287.851 34.184 289.483 36.792 291.499 37.8L290.683 38.84C289.163 38.024 287.867 36.344 287.211 34.376C286.587 36.472 285.259 38.264 283.643 39.128L282.859 38.072C284.923 37.016 286.555 34.264 286.555 31.656V29.08H287.851ZM296.443 33.656V34.744H294.075V42.184H292.763V27.848H294.075V33.656H296.443ZM300.362 37.816C301.482 37.816 302.218 36.36 302.218 34.008C302.218 31.704 301.482 30.248 300.362 30.248C299.21 30.248 298.49 31.704 298.49 34.008C298.49 36.36 299.21 37.816 300.362 37.816ZM305.21 33.416V28.152H306.458V41.48H305.21V34.488H303.402C303.29 37.304 302.122 39.032 300.362 39.032C298.49 39.032 297.29 37.112 297.29 34.008C297.29 30.952 298.49 29.032 300.362 29.032C302.09 29.032 303.242 30.712 303.402 33.416H305.21ZM308.058 27.832H309.306V42.184H308.058V27.832ZM325.907 27.832V38.36H324.595V27.832H325.907ZM322.771 34.984L322.083 36.024C320.451 35.4 319.187 34.104 318.547 32.472C317.939 34.216 316.643 35.608 314.963 36.312L314.275 35.24C316.435 34.408 317.875 32.328 317.875 30.088V28.632H319.187V30.088C319.187 32.248 320.643 34.2 322.771 34.984ZM317.987 40.792H326.339V41.864H316.675V37.384H317.987V40.792ZM333.633 35.816V38.2C335.009 38.136 336.369 38.056 337.665 37.896L337.761 38.856C334.625 39.336 331.185 39.4 328.465 39.4L328.305 38.296C329.537 38.296 330.913 38.296 332.321 38.248V35.816H329.361V31.96H335.217V30.2H329.313V29.16H336.513V32.952H330.641V34.776H336.913V35.816H333.633ZM338.593 27.816H339.905V42.216H338.593V27.816ZM352.336 30.344V29.176H343.92V28.248H353.632V31.24H345.248V32.472H353.888V33.416H343.952V30.344H352.336ZM345.168 39.72V41.048H354.128V41.992H343.872V38.808H352.384V37.608H343.84V36.664H353.68V39.72H345.168ZM342.288 34.504H355.296V35.496H342.288V34.504ZM365.257 34.264V31.864H361.193V34.264H365.257ZM366.537 28.632V35.32H359.897V28.632H361.193V30.824H365.257V28.632H366.537ZM362.793 38.072V40.92H370.809V41.976H361.481V37.016H370.553V38.072H362.793ZM370.441 31.288H372.569V32.376H370.441V36.232H369.129V27.848H370.441V31.288ZM384.888 32.152V33.224H375.128V28.36H376.44V32.152H384.888ZM376.344 37.64V40.76H384.968V41.832H375.032V37.64H376.344ZM373.368 35.144H386.376V36.2H373.368V35.144ZM398.064 31.56H400.896V27.848H402.224V36.392H400.896V32.632H398.064V31.56ZM398.864 34.824L398.208 35.848C396.608 35.272 395.376 34.088 394.752 32.616C394.144 34.28 392.816 35.624 391.136 36.264L390.448 35.224C392.592 34.44 394.064 32.504 394.064 30.44V29.944H390.864V28.888H398.528V29.944H395.376V30.44C395.376 32.28 396.784 34.088 398.864 34.824ZM397.488 41.16C399.648 41.16 400.96 40.552 400.96 39.512C400.96 38.472 399.648 37.848 397.488 37.848C395.328 37.848 394.016 38.472 394.016 39.512C394.016 40.552 395.328 41.16 397.488 41.16ZM397.488 36.84C400.432 36.84 402.272 37.816 402.272 39.512C402.272 41.208 400.432 42.184 397.488 42.184C394.544 42.184 392.704 41.208 392.704 39.512C392.704 37.816 394.544 36.84 397.488 36.84ZM407.311 32.488V35.128H414.639V32.488H407.311ZM411.631 39.272H417.487V40.344H404.479V39.272H410.303V36.184H406.015V28.856H407.311V31.416H414.639V28.856H415.919V36.184H411.631V39.272ZM421.39 32.488V35.128H428.718V32.488H421.39ZM425.71 39.272H431.566V40.344H418.558V39.272H424.382V36.184H420.094V28.856H421.39V31.416H428.718V28.856H429.998V36.184H425.71V39.272ZM444.925 29.928V31H433.277V29.928H438.477V28.056H439.789V29.928H444.925ZM435.741 34.696C435.741 35.768 437.037 36.408 439.133 36.408C441.197 36.408 442.477 35.768 442.477 34.696C442.477 33.64 441.197 33 439.133 33C437.037 33 435.741 33.64 435.741 34.696ZM439.789 39.432H445.645V40.504H432.637V39.432H438.477V37.416C435.949 37.272 434.413 36.296 434.413 34.696C434.413 32.968 436.221 31.976 439.133 31.976C441.997 31.976 443.805 32.968 443.805 34.696C443.805 36.296 442.285 37.256 439.789 37.416V39.432ZM450.502 29.384H457.222C457.222 33.528 455.318 37.176 450.55 39.512L449.846 38.44C453.702 36.6 455.622 33.848 455.894 30.44H450.502V29.384ZM460.118 27.832H461.43V42.184H460.118V27.832ZM474.244 40.936V39.08H467.668V40.936H474.244ZM474.244 38.056V36.232H475.556V41.992H466.372V36.232H467.668V38.056H474.244ZM467.652 34.056C469.076 34.056 470.1 33.128 470.1 31.816C470.1 30.504 469.076 29.592 467.652 29.592C466.228 29.592 465.204 30.504 465.204 31.816C465.204 33.128 466.228 34.056 467.652 34.056ZM474.228 27.848H475.556V35.544H474.228V32.328H471.316C471.06 34.024 469.62 35.144 467.652 35.144C465.508 35.144 463.956 33.8 463.956 31.816C463.956 29.848 465.508 28.504 467.652 28.504C469.588 28.504 471.028 29.592 471.3 31.256H474.228V27.848ZM491.213 27.848H492.525V35.544H491.213V27.848ZM483.277 36.248H484.573V38.008H491.229V36.248H492.525V41.992H483.277V36.248ZM484.573 39.032V40.936H491.229V39.032H484.573ZM484.813 28.52C486.989 28.52 488.573 29.864 488.573 31.816C488.573 33.8 486.989 35.128 484.813 35.128C482.653 35.128 481.085 33.8 481.085 31.816C481.085 29.864 482.653 28.52 484.813 28.52ZM484.813 29.608C483.389 29.608 482.365 30.52 482.365 31.816C482.365 33.128 483.389 34.04 484.813 34.04C486.269 34.04 487.293 33.128 487.293 31.816C487.293 30.52 486.269 29.608 484.813 29.608ZM497.036 29.224V37.352C499.196 37.352 501.42 37.16 503.804 36.68L503.948 37.8C501.452 38.312 499.196 38.472 496.908 38.472H495.724V29.224H497.036ZM505.276 27.832H506.588V42.168H505.276V27.832ZM510.827 30.296V37.512C513.371 37.512 515.211 37.4 517.291 37.032L517.435 38.12C515.243 38.536 513.355 38.632 510.651 38.632H509.515V29.208H516.187V30.296H510.827ZM522.315 33.496V34.584H519.947V42.216H518.635V27.832H519.947V33.496H522.315ZM524.362 41.208C523.786 41.208 523.306 40.76 523.306 40.104C523.306 39.432 523.786 38.968 524.362 38.968C524.938 38.968 525.418 39.432 525.418 40.104C525.418 40.76 524.938 41.208 524.362 41.208Z" fill="black"/>
</svg>
