<svg width="224" height="38" viewBox="0 0 224 38" fill="none" xmlns="http://www.w3.org/2000/svg">
<path d="M13.3641 37.672C8.61212 37.672 3.86012 35.8 0.404123 32.488L4.48412 27.592C7.02812 29.944 10.3881 31.528 13.5081 31.528C17.2041 31.528 19.1721 29.944 19.1721 27.448C19.1721 24.808 17.0121 23.992 13.8441 22.648L9.09212 20.632C5.49212 19.144 1.89212 16.264 1.89212 11.08C1.89212 5.272 6.98012 0.808 14.1801 0.808C18.3081 0.808 22.4361 2.44 25.3161 5.368L21.7161 9.832C19.4601 7.96 17.1081 6.904 14.1801 6.904C11.0601 6.904 9.09212 8.296 9.09212 10.648C9.09212 13.192 11.5881 14.104 14.6121 15.304L19.2681 17.272C23.5881 19.048 26.4201 21.784 26.4201 26.92C26.4201 32.728 21.5721 37.672 13.3641 37.672ZM33.1892 37V1.432H54.9812V7.384H40.2932V15.592H52.7732V21.544H40.2932V31.048H55.5092V37H33.1892ZM63.2005 37V1.432H74.8645C82.7365 1.432 88.7845 4.216 88.7845 12.616C88.7845 20.728 82.6885 24.376 75.0565 24.376H70.3045V37H63.2005ZM70.3045 18.76H74.5765C79.4725 18.76 81.8245 16.696 81.8245 12.616C81.8245 8.488 79.2325 7.096 74.3365 7.096H70.3045V18.76ZM95.6961 37V1.432H102.8V15.448H116.24V1.432H123.296V37H116.24V21.64H102.8V37H95.6961ZM132.504 37V1.432H154.296V7.384H139.608V15.592H152.088V21.544H139.608V31.048H154.824V37H132.504ZM162.515 37V1.432H174.899C182.339 1.432 188.243 4.072 188.243 12.232C188.243 17.56 185.555 20.872 181.475 22.456L189.779 37H181.859L174.563 23.56H169.619V37H162.515ZM169.619 17.944H174.227C178.787 17.944 181.331 16.024 181.331 12.232C181.331 8.392 178.787 7.096 174.227 7.096H169.619V17.944ZM195.714 37V1.432H205.458C216.306 1.432 223.026 7.096 223.026 19.096C223.026 31.048 216.306 37 205.842 37H195.714ZM202.818 31.288H205.026C211.65 31.288 215.778 27.736 215.778 19.096C215.778 10.408 211.65 7.144 205.026 7.144H202.818V31.288Z" fill="black"/>
</svg>
