<svg width="512" height="21" viewBox="0 0 512 21" fill="none" xmlns="http://www.w3.org/2000/svg">
<path d="M11.9007 7.66V13.6H9.44071V0.64H11.9007V5.54H13.3807V0.299999H15.8807V13.96H13.3807V7.66H11.9007ZM8.58071 8.96L8.80071 11.04C6.72071 11.4 4.90071 11.46 2.20071 11.46H0.920709V5.62H5.34071V3.86H0.900709V1.8H7.88071V7.54H3.46071V9.38C5.42071 9.36 6.92071 9.26 8.58071 8.96ZM6.12071 16.3H16.3407V18.4H3.48071V12.7H6.12071V16.3ZM29.7791 8.26L28.4391 10.3C26.4791 9.66 25.1191 8.42 24.3191 6.82C23.5191 8.58 22.0991 9.94 20.0191 10.62L18.6391 8.56C21.6991 7.6 22.9791 5.28 22.9791 2.88V1.14H25.6391V3.04C25.6391 5.24 26.8791 7.36 29.7791 8.26ZM24.5191 13.68V16.44H31.5991V13.68H24.5191ZM21.9191 18.5V11.62H34.1791V18.5H21.9191ZM31.5391 0.299999H34.1791V10.82H31.5391V5.64H28.1791V3.5H31.5391V0.299999ZM41.9576 3.3C40.9376 3.3 40.1976 3.84 40.1976 4.84C40.1976 5.8 40.9376 6.36 41.9576 6.36C42.9576 6.36 43.6776 5.8 43.6776 4.84C43.6776 3.84 42.9576 3.3 41.9576 3.3ZM41.9576 8.32C39.5976 8.32 37.8576 6.86 37.8576 4.84C37.8576 2.78 39.5976 1.34 41.9576 1.34C44.2976 1.34 46.0176 2.78 46.0176 4.84C46.0176 6.86 44.2976 8.32 41.9576 8.32ZM46.3976 8.84L46.5976 10.76C45.5376 10.96 44.3376 11.12 43.1776 11.22V17.28H40.6576V11.36C39.4376 11.42 38.3176 11.42 37.3776 11.42L37.0976 9.28C39.5576 9.28 43.4976 9.24 46.3976 8.84ZM47.2976 12.16V0.619999H49.7576V17.88H47.2976V14.14H44.4176V12.16H47.2976ZM50.9776 0.319999H53.4776V18.72H50.9776V0.319999ZM61.016 12.34C62.376 12.34 63.276 10.88 63.276 8.14C63.276 5.42 62.376 3.96 61.016 3.96C59.676 3.96 58.776 5.42 58.776 8.14C58.776 10.88 59.676 12.34 61.016 12.34ZM68.796 0.279999H71.436V18.76H68.796V9.06H65.736C65.456 12.58 63.576 14.74 61.016 14.74C58.276 14.74 56.256 12.2 56.256 8.14C56.256 4.1 58.276 1.58 61.016 1.58C63.496 1.58 65.356 3.6 65.716 6.92H68.796V0.279999ZM83.6857 6.38V8.96H91.5657V6.38H83.6857ZM88.9457 14.44H95.9857V16.58H79.3057V14.44H86.3057V11.06H81.0657V1.44H83.6857V4.3H91.5657V1.44H94.1657V11.06H88.9457V14.44ZM100.624 6.16C100.624 7.66 101.664 8.56 103.044 8.56C104.404 8.56 105.464 7.66 105.464 6.16C105.464 4.66 104.404 3.76 103.044 3.76C101.664 3.76 100.624 4.66 100.624 6.16ZM108.024 6.16C108.024 8.86 105.844 10.84 103.044 10.84C100.224 10.84 98.0441 8.86 98.0441 6.16C98.0441 3.44 100.224 1.48 103.044 1.48C105.844 1.48 108.024 3.44 108.024 6.16ZM103.164 12.32V16.3H113.064V18.4H100.524V12.32H103.164ZM112.404 5.58H114.844V7.74H112.404V13.7H109.764V0.299999H112.404V5.58ZM116.663 10.04H132.923V11.24H116.663V10.04ZM118.783 16.88H131.143V18.12H118.783V16.88ZM118.783 12.9H120.263V17.24H118.783V12.9ZM124.783 1.14C128.643 1.14 131.103 2.46 131.103 4.7C131.103 6.94 128.643 8.28 124.783 8.28C120.943 8.28 118.483 6.94 118.483 4.7C118.483 2.46 120.943 1.14 124.783 1.14ZM124.783 2.34C121.903 2.34 120.003 3.24 120.003 4.7C120.003 6.18 121.903 7.08 124.783 7.08C127.703 7.08 129.583 6.18 129.583 4.7C129.583 3.24 127.703 2.34 124.783 2.34ZM153.174 0.519999H154.634V18.52H153.174V0.519999ZM147.894 2.46H149.354C149.354 7.62 146.914 12.2 140.974 15.1L140.174 13.92C145.394 11.4 147.894 7.48 147.894 2.7V2.46ZM140.974 2.46H148.514V3.68H140.974V2.46ZM160.693 1.24H162.153V3.58H171.173V1.24H172.653V8.42H160.693V1.24ZM162.153 4.78V7.22H171.173V4.78H162.153ZM158.513 10.4H174.773V11.62H158.513V10.4ZM165.913 7.68H167.393V10.96H165.913V7.68ZM160.633 16.88H172.993V18.12H160.633V16.88ZM160.633 13.14H162.113V17.3H160.633V13.14ZM177.551 20.72L177.151 19.74C178.331 19.18 179.071 18.22 179.071 16.98L178.851 15.4L179.711 16.68C179.491 16.98 179.171 17.06 178.831 17.06C178.171 17.06 177.611 16.62 177.611 15.86C177.611 15.12 178.191 14.66 178.871 14.66C179.771 14.66 180.311 15.42 180.311 16.68C180.311 18.52 179.231 19.98 177.551 20.72ZM197.335 1.86V3.94H187.235V1.86H191.095V0.159999H193.735V1.86H197.335ZM190.555 7.82C190.555 8.76 191.295 9.24 192.415 9.24C193.515 9.24 194.275 8.76 194.275 7.82C194.275 6.9 193.515 6.42 192.415 6.42C191.295 6.42 190.555 6.9 190.555 7.82ZM196.715 7.82C196.715 9.82 194.935 11.18 192.415 11.18C189.875 11.18 188.095 9.82 188.095 7.82C188.095 5.84 189.875 4.48 192.415 4.48C194.935 4.48 196.715 5.84 196.715 7.82ZM199.975 16.48V15.24H192.855V16.48H199.975ZM199.975 13.3V11.96H202.575V18.5H190.255V11.96H192.855V13.3H199.975ZM199.935 0.299999H202.575V11.28H199.935V9.96H197.535V7.86H199.935V6.32H197.575V4.22H199.935V0.299999ZM218.554 16.4V14.76H211.594V16.4H218.554ZM218.554 12.76V11H221.174V18.5H208.974V11H211.594V12.76H218.554ZM210.854 7.66C212.214 7.66 213.194 6.84 213.194 5.46C213.194 4.08 212.214 3.26 210.854 3.26C209.514 3.26 208.534 4.08 208.534 5.46C208.534 6.84 209.514 7.66 210.854 7.66ZM218.534 0.299999H221.174V10.2H218.534V6.5H215.614C215.114 8.5 213.234 9.86 210.854 9.86C208.094 9.86 206.014 8.02 206.014 5.46C206.014 2.9 208.094 1.06 210.854 1.06C213.194 1.06 215.074 2.4 215.594 4.36H218.534V0.299999ZM233.483 6.38V8.96H241.363V6.38H233.483ZM238.743 14.44H245.783V16.58H229.103V14.44H236.103V11.06H230.863V1.44H233.483V4.3H241.363V1.44H243.963V11.06H238.743V14.44ZM250.422 6.16C250.422 7.66 251.462 8.56 252.842 8.56C254.202 8.56 255.262 7.66 255.262 6.16C255.262 4.66 254.202 3.76 252.842 3.76C251.462 3.76 250.422 4.66 250.422 6.16ZM257.822 6.16C257.822 8.86 255.642 10.84 252.842 10.84C250.022 10.84 247.842 8.86 247.842 6.16C247.842 3.44 250.022 1.48 252.842 1.48C255.642 1.48 257.822 3.44 257.822 6.16ZM252.962 12.32V16.3H262.862V18.4H250.322V12.32H252.962ZM262.202 5.58H264.642V7.74H262.202V13.7H259.562V0.299999H262.202V5.58ZM280.871 8.2L278.291 7.9C278.591 6.18 278.671 4.84 278.691 3.74H271.831V1.64H281.291V2.78C281.291 4.06 281.291 5.88 280.871 8.2ZM282.091 8.94L282.251 10.82C278.451 11.52 274.171 11.6 271.011 11.62L270.771 9.52C271.791 9.52 272.931 9.52 274.131 9.5V5.92H276.711V9.4C278.531 9.32 280.371 9.18 282.091 8.94ZM276.091 12.86V16.3H286.311V18.4H273.451V12.86H276.091ZM285.731 5.9H287.931V8.08H285.731V14.08H283.091V0.279999H285.731V5.9ZM293.31 8.98V12.3C296.11 12.28 298.43 12.14 301.03 11.7L301.31 13.84C298.31 14.36 295.61 14.48 292.27 14.48H290.61V6.9H296.59V3.96H290.59V1.86H299.29V8.98H293.31ZM302.31 0.279999H304.95V18.76H302.31V0.279999ZM313.048 9.6H314.528V13.9H313.048V9.6ZM313.768 1.7C316.528 1.7 318.508 3.42 318.508 5.9C318.508 8.4 316.528 10.1 313.768 10.1C311.008 10.1 309.028 8.4 309.028 5.9C309.028 3.42 311.008 1.7 313.768 1.7ZM313.768 2.98C311.848 2.98 310.468 4.18 310.468 5.9C310.468 7.64 311.848 8.84 313.768 8.84C315.688 8.84 317.068 7.64 317.068 5.9C317.068 4.18 315.688 2.98 313.768 2.98ZM320.688 0.519999H322.148V18.52H320.688V0.519999ZM321.748 8H325.088V9.24H321.748V8ZM308.408 14.58L308.168 13.32C311.448 13.32 315.828 13.28 319.508 12.78L319.628 13.9C315.828 14.54 311.568 14.58 308.408 14.58ZM336.98 8.32V6.08H334.6V8.32H336.98ZM339.42 1.48V10.38H332.12V1.48H334.6V4.06H336.98V1.48H339.42ZM334.5 14.34V12.24H347.18V18.74H344.54V14.34H334.5ZM344.68 0.299999H347.18V11.38H344.68V6.92H343.24V11.32H340.78V0.619999H343.24V4.8H344.68V0.299999ZM362.858 16.4V14.76H355.898V16.4H362.858ZM362.858 12.76V11H365.478V18.5H353.278V11H355.898V12.76H362.858ZM355.158 7.66C356.518 7.66 357.498 6.84 357.498 5.46C357.498 4.08 356.518 3.26 355.158 3.26C353.818 3.26 352.838 4.08 352.838 5.46C352.838 6.84 353.818 7.66 355.158 7.66ZM362.838 0.299999H365.478V10.2H362.838V6.5H359.918C359.418 8.5 357.538 9.86 355.158 9.86C352.398 9.86 350.318 8.02 350.318 5.46C350.318 2.9 352.398 1.06 355.158 1.06C357.498 1.06 359.378 2.4 359.898 4.36H362.838V0.299999ZM383.248 8.2L380.668 7.9C380.968 6.18 381.048 4.84 381.068 3.74H374.208V1.64H383.668V2.78C383.668 4.06 383.668 5.88 383.248 8.2ZM384.468 8.94L384.628 10.82C380.828 11.52 376.548 11.6 373.388 11.62L373.148 9.52C374.168 9.52 375.308 9.52 376.508 9.5V5.92H379.088V9.4C380.908 9.32 382.748 9.18 384.468 8.94ZM378.468 12.86V16.3H388.688V18.4H375.828V12.86H378.468ZM388.108 5.9H390.308V8.08H388.108V14.08H385.468V0.279999H388.108V5.9ZM395.686 8.98V12.3C398.486 12.28 400.806 12.14 403.406 11.7L403.686 13.84C400.686 14.36 397.986 14.48 394.646 14.48H392.986V6.9H398.966V3.96H392.966V1.86H401.666V8.98H395.686ZM404.686 0.279999H407.326V18.76H404.686V0.279999ZM423.405 0.519999H424.865V18.52H423.405V0.519999ZM424.385 8H427.625V9.24H424.385V8ZM414.805 2.48H416.165C416.165 6.7 415.185 10.96 411.925 14.42L410.745 13.58C413.745 10.5 414.805 6.62 414.805 2.62V2.48ZM411.285 2.48H415.365V3.72H411.285V2.48ZM419.705 2.48H421.085C421.085 6.66 420.445 11.7 417.085 15.62L415.885 14.8C418.985 11.26 419.705 6.62 419.705 2.6V2.48ZM416.745 2.48H420.305V3.72H416.745V2.48ZM434.203 3.04H435.423V6.12C435.423 9.88 433.003 13.64 430.243 15.04L429.383 13.86C431.903 12.64 434.203 9.24 434.203 6.12V3.04ZM434.483 3.04H435.703V6.12C435.703 9.2 437.983 12.3 440.563 13.42L439.723 14.6C436.903 13.28 434.483 9.84 434.483 6.12V3.04ZM429.943 2.38H440.003V3.62H429.943V2.38ZM442.583 0.519999H444.063V18.52H442.583V0.519999ZM465.075 0.54H466.555V14.04H465.075V0.54ZM466.075 6.52H469.255V7.76H466.075V6.52ZM452.675 2.78H463.315V3.98H452.675V2.78ZM457.995 5.04C460.535 5.04 462.275 6.34 462.275 8.38C462.275 10.38 460.535 11.7 457.995 11.7C455.435 11.7 453.695 10.38 453.695 8.38C453.695 6.34 455.435 5.04 457.995 5.04ZM457.995 6.2C456.275 6.2 455.095 7.06 455.095 8.38C455.095 9.66 456.275 10.52 457.995 10.52C459.695 10.52 460.855 9.66 460.855 8.38C460.855 7.06 459.695 6.2 457.995 6.2ZM457.255 0.54H458.735V3.4H457.255V0.54ZM455.415 16.88H467.395V18.12H455.415V16.88ZM455.415 12.96H456.895V17.4H455.415V12.96ZM479.713 5.64H484.973V6.88H479.713V5.64ZM484.493 0.54H485.973V13.86H484.493V0.54ZM474.473 16.88H486.413V18.12H474.473V16.88ZM474.473 12.56H475.953V17.48H474.473V12.56ZM472.113 1.72H473.593V4.98H478.733V1.72H480.193V10.76H472.113V1.72ZM473.593 6.16V9.54H478.733V6.16H473.593ZM497.132 7.58H500.612V8.82H497.132V7.58ZM503.652 0.519999H505.092V18.52H503.652V0.519999ZM500.112 0.92H501.512V17.6H500.112V0.92ZM493.872 2.06C496.192 2.06 497.692 4.46 497.692 8.28C497.692 12.1 496.192 14.5 493.872 14.5C491.552 14.5 490.052 12.1 490.052 8.28C490.052 4.46 491.552 2.06 493.872 2.06ZM493.872 3.44C492.372 3.44 491.412 5.34 491.412 8.28C491.412 11.22 492.372 13.14 493.872 13.14C495.372 13.14 496.332 11.22 496.332 8.28C496.332 5.34 495.372 3.44 493.872 3.44ZM509.95 12.7L509.73 4.04L509.69 2.06H511.35L511.31 4.04L511.09 12.7H509.95ZM510.51 17.28C509.85 17.28 509.29 16.74 509.29 15.98C509.29 15.18 509.85 14.66 510.51 14.66C511.19 14.66 511.75 15.18 511.75 15.98C511.75 16.74 511.19 17.28 510.51 17.28Z" fill="black"/>
</svg>
