<svg width="366" height="70" viewBox="0 0 366 70" fill="none" xmlns="http://www.w3.org/2000/svg">
<path d="M3.5 63.06V59.798H1.96V63.06H3.5ZM3.5 58.874V55.654H4.452V63.998H0.98V55.654H1.96V58.874H3.5ZM7.574 63.06V59.798H6.09V63.06H7.574ZM7.574 58.874V55.654H8.54V63.998H5.124V55.654H6.09V58.874H7.574ZM12.418 59.378V60.344H10.738V67.036H9.604V54.478H10.738V59.378H12.418ZM22.6229 58.314V56.368H15.1469V55.444H23.7429V59.238H16.3089V61.282H24.0369V62.22H15.1749V58.314H22.6229ZM13.7469 64.502H25.1569V65.454H13.7469V64.502ZM35.6418 56.984V56.676H27.9838V55.738H36.7898V56.984C36.7898 58.538 36.7898 60.26 36.3138 62.794L35.1658 62.668C35.6418 60.26 35.6418 58.496 35.6418 56.984ZM32.3518 64.334H38.1478V65.272H26.7938V64.334H31.2038V59.84H32.3518V64.334ZM43.6296 55.416H49.4256C49.4256 58.608 47.1996 60.946 43.5596 62.024L43.0976 61.1C46.0796 60.218 47.9696 58.51 48.1796 56.34H43.6296V55.416ZM48.8796 66.112C50.6856 66.112 51.8336 65.538 51.8336 64.586C51.8336 63.62 50.6856 63.046 48.8796 63.046C47.0736 63.046 45.9256 63.62 45.9256 64.586C45.9256 65.538 47.0736 66.112 48.8796 66.112ZM48.8796 62.15C51.3576 62.15 52.9676 63.06 52.9676 64.586C52.9676 66.098 51.3576 67.022 48.8796 67.022C46.4016 67.022 44.7916 66.098 44.7916 64.586C44.7916 63.06 46.4016 62.15 48.8796 62.15ZM52.8136 57.726H54.6756V58.678H52.8136V61.982H51.6656V54.478H52.8136V57.726ZM62.7245 60.4L62.8365 61.324C61.2965 61.59 60.0225 61.632 57.5165 61.632H56.6205V57.908H60.8765V56.172H56.5785V55.234H61.9965V58.79H57.7405V60.694C60.0645 60.694 61.2685 60.638 62.7245 60.4ZM58.0205 63.816V62.878H66.4345V67.05H65.2725V63.816H58.0205ZM65.2725 54.492H66.4345V62.206H65.2725V59.882H62.8225V58.958H65.2725V57.278H62.8225V56.34H65.2725V54.492ZM76.5554 56.018V56.942H69.1494V56.018H72.2714V54.478H73.4194V56.018H76.5554ZM70.9414 59.966C70.9414 60.848 71.7114 61.408 72.8454 61.408C73.9794 61.408 74.7634 60.848 74.7634 59.966C74.7634 59.098 73.9794 58.538 72.8454 58.538C71.7114 58.538 70.9414 59.098 70.9414 59.966ZM75.8554 59.966C75.8554 61.38 74.6234 62.304 72.8454 62.304C71.0674 62.304 69.8494 61.38 69.8494 59.966C69.8494 58.566 71.0674 57.642 72.8454 57.642C74.6234 57.642 75.8554 58.566 75.8554 59.966ZM72.1874 63.158V65.818H79.4114V66.756H71.0394V63.158H72.1874ZM78.8514 58.622H80.6994V59.588H78.8514V63.9H77.7034V54.478H78.8514V58.622ZM89.1212 55.668V58.02C89.1212 60.036 90.0592 62.164 91.7112 63.172L91.0532 64.068C89.8632 63.34 89.0232 62.01 88.5752 60.484C88.1272 62.15 87.2172 63.564 85.9712 64.334L85.2572 63.48C86.9792 62.472 88.0152 60.218 88.0152 58.062V55.668H89.1212ZM92.4252 58.986V54.758H93.5032V66.42H92.4252V59.938H90.3532V58.986H92.4252ZM94.9732 54.478H96.0652V67.036H94.9732V54.478ZM101.09 56.732V62.948C101.748 62.934 102.434 62.906 103.12 62.864V56.732H101.09ZM104.24 56.732V62.794C104.856 62.766 105.444 62.71 106.032 62.64L106.116 63.48C103.568 63.872 100.628 63.942 98.4441 63.942L98.3181 62.976C98.8221 62.976 99.3961 62.976 99.9701 62.962V56.732H98.7101V55.794H105.64V56.732H104.24ZM107.614 54.492H108.762V67.036H107.614V60.162H105.22V59.21H107.614V54.492ZM121.501 60.498V61.436H112.877V55.626H121.375V56.578H114.011V60.498H121.501ZM111.421 64.39H122.817V65.342H111.421V64.39ZM128.528 55.402C130.488 55.402 131.888 56.592 131.888 58.356C131.888 60.106 130.488 61.31 128.528 61.31C126.582 61.31 125.168 60.106 125.168 58.356C125.168 56.592 126.582 55.402 128.528 55.402ZM128.528 56.382C127.24 56.382 126.288 57.18 126.288 58.356C126.288 59.518 127.24 60.33 128.528 60.33C129.83 60.33 130.768 59.518 130.768 58.356C130.768 57.18 129.83 56.382 128.528 56.382ZM133.54 54.478H134.688V67.064H133.54V54.478ZM124.678 64.306L124.538 63.34C126.82 63.34 129.97 63.326 132.714 62.906L132.812 63.76C129.984 64.278 126.946 64.306 124.678 64.306ZM143.222 58.552V60.862H149.634V58.552H143.222ZM147.002 64.488H152.126V65.426H140.744V64.488H145.84V61.786H142.088V55.374H143.222V57.614H149.634V55.374H150.754V61.786H147.002V64.488ZM155.121 58.454C155.121 59.686 156.045 60.554 157.277 60.554C158.509 60.554 159.433 59.686 159.433 58.454C159.433 57.222 158.509 56.354 157.277 56.354C156.045 56.354 155.121 57.222 155.121 58.454ZM160.553 58.454C160.553 60.274 159.153 61.548 157.277 61.548C155.401 61.548 154.001 60.274 154.001 58.454C154.001 56.634 155.401 55.36 157.277 55.36C159.153 55.36 160.553 56.634 160.553 58.454ZM156.843 62.78V65.818H164.067V66.756H155.695V62.78H156.843ZM163.507 58.3H165.355V59.252H163.507V63.718H162.359V54.478H163.507V58.3ZM177.276 61.03V56.662H174.154V61.03H177.276ZM173.006 61.03V56.662H171.06V55.738H180.37V56.662H178.424V61.03H180.342V61.968H171.088V61.03H173.006ZM170.052 64.474H181.434V65.426H170.052V64.474ZM189.329 64.544H194.467V65.482H183.057V64.544H188.167V62.178H184.485V58.3H191.933V56.34H184.457V55.402H193.053V59.224H185.619V61.254H193.347V62.178H189.329V64.544ZM204.798 57.068V56.746H197.322V55.808H205.932V57.068C205.932 58.664 205.932 60.47 205.442 63.186L204.294 63.06C204.798 60.498 204.798 58.622 204.798 57.068ZM196.104 64.25H207.458V65.202H196.104V64.25ZM215.115 60.134L215.227 61.058C213.631 61.352 212.315 61.422 210.509 61.422H209.683V57.852H213.267V56.228H209.655V55.304H214.373V58.72H210.789V60.498C212.413 60.498 213.645 60.428 215.115 60.134ZM212.581 63.494V65.944H218.587V63.494H212.581ZM211.461 66.868V62.584H219.707V66.868H211.461ZM218.601 54.478H219.707V61.982H218.601V58.608H216.921V61.814H215.829V54.716H216.921V57.67H218.601V54.478ZM227.798 55.556C225.74 55.556 224.564 56.032 224.564 56.872C224.564 57.712 225.74 58.188 227.798 58.188C229.856 58.188 231.032 57.712 231.032 56.872C231.032 56.032 229.856 55.556 227.798 55.556ZM227.798 59.042C225.04 59.042 223.388 58.286 223.388 56.872C223.388 55.458 225.04 54.688 227.798 54.688C230.556 54.688 232.208 55.458 232.208 56.872C232.208 58.286 230.556 59.042 227.798 59.042ZM224.648 64.726V66H232.404V66.896H223.528V63.886H230.892V62.766H223.486V61.898H232.026V64.726H224.648ZM222.114 59.896H233.482V60.82H222.114V59.896ZM242.898 56.718V58.314C242.898 60.442 244.41 62.612 246.258 63.396L245.614 64.32C244.158 63.648 242.926 62.206 242.324 60.484C241.75 62.318 240.518 63.9 239.09 64.628L238.418 63.704C240.224 62.85 241.75 60.484 241.75 58.314V56.718H238.838V55.766H245.852V56.718H242.898ZM247.546 54.492H248.694V67.036H247.546V54.492ZM253.957 63.326V65.944H260.271V63.326H253.957ZM252.837 66.868V62.402H261.405V66.868H252.837ZM261.027 59.77H262.833V60.694H251.423V59.77H259.865C260.229 58.202 260.229 57.054 260.229 56.074H252.879V55.15H261.363V56.074C261.363 57.054 261.363 58.202 261.027 59.77ZM272.948 63.074V59.77H269.364V63.074H272.948ZM272.948 58.86V55.542H274.068V64.012H268.23V55.542H269.364V58.86H272.948ZM279.458 59.42V60.386H277.386V67.022H276.238V54.492H277.386V59.42H279.458ZM287.003 64.544H292.141V65.482H280.731V64.544H285.841V62.178H282.159V58.3H289.607V56.34H282.131V55.402H290.727V59.224H283.293V61.254H291.021V62.178H287.003V64.544ZM302.201 60.498V56.522H298.673V60.498H302.201ZM303.321 55.598V61.408H297.553V55.598H303.321ZM300.115 62.808V65.818H307.339V66.756H298.967V62.808H300.115ZM306.779 58.3H308.627V59.266H306.779V63.662H305.631V54.464H306.779V58.3ZM311.692 55.696V62.892C313.498 62.892 315.36 62.738 317.39 62.332L317.53 63.284C315.388 63.718 313.47 63.858 311.552 63.858H310.558V55.696H311.692ZM321.73 59.49V60.442H319.714V67.036H318.566V54.478H319.714V59.49H321.73ZM325.551 58.552V60.862H331.963V58.552H325.551ZM329.331 64.488H334.455V65.426H323.073V64.488H328.169V61.786H324.417V55.374H325.551V57.614H331.963V55.374H333.083V61.786H329.331V64.488ZM339.816 55.668V58.02C339.816 60.036 340.754 62.164 342.406 63.172L341.748 64.068C340.558 63.34 339.718 62.01 339.27 60.484C338.822 62.15 337.912 63.564 336.666 64.334L335.952 63.48C337.674 62.472 338.71 60.218 338.71 58.062V55.668H339.816ZM343.12 58.986V54.758H344.198V66.42H343.12V59.938H341.048V58.986H343.12ZM345.668 54.478H346.76V67.036H345.668V54.478ZM353.045 61.52V64.474H356.545V61.52C356.013 61.646 355.411 61.716 354.781 61.716C354.165 61.716 353.563 61.646 353.045 61.52ZM354.781 56.172C352.765 56.172 351.323 57.096 351.323 58.496C351.323 59.896 352.765 60.82 354.781 60.82C356.797 60.82 358.253 59.896 358.253 58.496C358.253 57.096 356.797 56.172 354.781 56.172ZM357.693 64.474H360.507V65.426H349.097V64.474H351.897V61.086C350.847 60.54 350.217 59.63 350.217 58.496C350.217 56.536 352.121 55.276 354.781 55.276C357.455 55.276 359.345 56.536 359.345 58.496C359.345 59.63 358.729 60.526 357.693 61.072V64.474ZM363.334 66.182C362.83 66.182 362.41 65.79 362.41 65.216C362.41 64.628 362.83 64.222 363.334 64.222C363.838 64.222 364.258 64.628 364.258 65.216C364.258 65.79 363.838 66.182 363.334 66.182Z" fill="black" fill-opacity="0.78"/>
<path d="M2.528 12.2H16.48C16.48 20.136 11.552 25.608 2.848 28.04L1.152 24.648C7.584 22.92 11.2 19.592 11.84 15.56H2.528V12.2ZM15.008 36.488C18.592 36.488 20.736 35.56 20.736 33.736C20.736 31.912 18.592 30.984 15.008 30.984C11.424 30.984 9.28 31.912 9.28 33.736C9.28 35.56 11.424 36.488 15.008 36.488ZM15.008 27.688C20.96 27.688 24.896 30.024 24.896 33.736C24.896 37.448 20.96 39.784 15.008 39.784C9.056 39.784 5.12 37.448 5.12 33.736C5.12 30.024 9.056 27.688 15.008 27.688ZM24.576 17.16H28.48V20.648H24.576V27.304H20.352V10.248H24.576V17.16ZM46.1735 23.624L46.5895 26.984C43.1655 27.624 40.1255 27.72 34.5255 27.72H32.2535V18.12H40.9575V15.336H32.2215V11.944H45.1175V21.256H36.4455V24.328C40.6695 24.296 43.2615 24.168 46.1735 23.624ZM35.6135 33.128V29.768H55.7735V39.784H51.5495V33.128H35.6135ZM51.5495 10.312L55.7735 10.28V28.456H51.5495V24.008H46.8135V20.648H51.5495V17.736H46.8135V14.344H51.5495V10.312ZM78.267 13.384L78.235 16.68H60.891V13.384H67.419V10.248H71.675V13.384H78.267ZM66.363 23.4C66.363 25.032 67.675 25.896 69.563 25.896C71.419 25.896 72.763 25.032 72.763 23.4C72.763 21.8 71.419 20.936 69.563 20.936C67.675 20.936 66.363 21.8 66.363 23.4ZM76.795 23.4C76.795 26.792 73.787 29.096 69.563 29.096C65.339 29.096 62.331 26.792 62.331 23.4C62.331 20.072 65.339 17.736 69.563 17.736C73.787 17.736 76.795 20.072 76.795 23.4ZM69.307 30.696V35.88H85.147V39.24H65.083V30.696H69.307ZM84.091 19.272H87.995V22.76H84.091V32.328H79.867V10.28H84.091V19.272ZM105.226 20.008V24.136H117.834V20.008H105.226ZM113.642 32.904H124.906V36.328H98.2185V32.904H109.418V27.496H101.034V12.104H105.226V16.68H117.834V12.104H121.994V27.496H113.642V32.904ZM132.328 19.656C132.328 22.056 133.992 23.496 136.2 23.496C138.376 23.496 140.072 22.056 140.072 19.656C140.072 17.256 138.376 15.816 136.2 15.816C133.992 15.816 132.328 17.256 132.328 19.656ZM144.168 19.656C144.168 23.976 140.68 27.144 136.2 27.144C131.688 27.144 128.2 23.976 128.2 19.656C128.2 15.304 131.688 12.168 136.2 12.168C140.68 12.168 144.168 15.304 144.168 19.656ZM136.392 29.512V35.88H152.232V39.24H132.168V29.512H136.392ZM151.176 18.728H155.08V22.184H151.176V31.72H146.952V10.28H151.176V18.728ZM181.592 25.032V16.2H175.576V25.032H181.592ZM171.384 25.032V16.2H167.384V12.84H189.784V16.2H185.784V25.032H189.688V28.392H167.544V25.032H171.384ZM165.304 32.904H191.992V36.328H165.304V32.904ZM210.485 33.064H221.749V36.52H195.061V33.064H206.261V28.68H198.133V18.696H214.581V15.528H198.101V12.168H218.741V21.992H202.325V25.288H219.413V28.68H210.485V33.064ZM243.987 16.488V16.36H227.571V13H248.211V16.488C248.211 20.616 248.211 24.648 247.123 30.696L242.931 30.312C243.987 24.68 243.987 20.488 243.987 16.488ZM224.819 32.456H251.475V35.912H224.819V32.456ZM268.016 22.728L268.368 26.056C265.04 26.664 262.128 26.728 257.808 26.728H255.76V17.736H262.832V15.336H255.728V12.04H266.896V20.776H259.824V23.4C262.96 23.368 265.36 23.24 268.016 22.728ZM263.888 32.2V36.104H275.568V32.2H263.888ZM259.728 39.4V28.904H279.696V39.4H259.728ZM275.696 10.312H279.696V27.688H275.696V20.616H273.328V27.432H269.392V10.824H273.328V17.224H275.696V10.312Z" fill="black"/>
</svg>
