<svg width="316" height="57" viewBox="0 0 316 57" fill="none" xmlns="http://www.w3.org/2000/svg">
<path d="M12.9782 2.168V5.96C12.9782 9.464 14.2982 13.136 17.2022 14.96L15.8102 16.88C13.8422 15.68 12.5462 13.568 11.8022 11.144C11.0342 13.808 9.61825 16.088 7.53025 17.36L6.01825 15.488C9.09025 13.664 10.5782 9.776 10.5782 6.08V2.168H12.9782ZM18.0662 7.76V0.584H20.3942V20.84H18.0662V9.776H14.8742V7.76H18.0662ZM22.4822 0.175999H24.8342V21.848H22.4822V0.175999ZM33.5444 4.28V14.624C34.4804 14.6 35.4884 14.576 36.4484 14.504V4.28H33.5444ZM38.8484 4.28V14.36C39.8084 14.288 40.7924 14.192 41.7044 14.072L41.8724 15.896C37.4804 16.616 32.5124 16.712 28.7444 16.712L28.5044 14.672C29.3204 14.672 30.2324 14.672 31.1444 14.648V4.28H29.1044V2.288H41.0804V4.28H38.8484ZM44.1524 0.175999H46.6484V21.872H44.1524V10.232H40.4084V8.216H44.1524V0.175999ZM68.3905 10.4V12.392H53.3665V2.072H68.2225V4.088H55.8385V10.4H68.3905ZM50.9665 17.024H70.6225V19.064H50.9665V17.024ZM80.2686 1.688C83.6526 1.688 86.1726 3.824 86.1726 6.896C86.1726 9.968 83.6526 12.104 80.2686 12.104C76.8846 12.104 74.3886 9.968 74.3886 6.896C74.3886 3.824 76.8846 1.688 80.2686 1.688ZM80.2686 3.8C78.2766 3.8 76.8126 5 76.8126 6.896C76.8126 8.768 78.2766 9.992 80.2686 9.992C82.2846 9.992 83.7486 8.768 83.7486 6.896C83.7486 5 82.2846 3.8 80.2686 3.8ZM88.6206 0.151999H91.1166V21.872H88.6206V0.151999ZM73.6926 17.288L73.3806 15.248C77.2686 15.248 82.6686 15.224 87.3246 14.528L87.4926 16.328C82.7166 17.24 77.5326 17.288 73.6926 17.288ZM105.889 7.256V10.808H116.161V7.256H105.889ZM112.249 17.168H120.865V19.208H101.233V17.168H109.777V12.8H103.441V1.616H105.889V5.264H116.161V1.616H118.609V12.8H112.249V17.168ZM126.239 7.04C126.239 9.032 127.679 10.328 129.575 10.328C131.471 10.328 132.936 9.032 132.936 7.04C132.936 5.072 131.471 3.776 129.575 3.776C127.679 3.776 126.239 5.072 126.239 7.04ZM135.36 7.04C135.36 10.208 132.863 12.464 129.575 12.464C126.311 12.464 123.815 10.208 123.815 7.04C123.815 3.872 126.311 1.64 129.575 1.64C132.863 1.64 135.36 3.872 135.36 7.04ZM129.239 14.432V19.424H141.336V21.44H126.743V14.432H129.239ZM140.472 6.608H143.544V8.648H140.472V16.064H138V0.175999H140.472V6.608ZM163.764 11.288V4.208H158.772V11.288H163.764ZM156.3 11.288V4.208H153.108V2.216H169.404V4.208H166.212V11.288H169.356V13.304H153.18V11.288H156.3ZM151.476 17.144H171.156V19.184H151.476V17.144ZM184.834 17.264H193.45V19.304H173.818V17.264H182.362V13.568H176.194V6.584H188.674V3.68H176.146V1.688H191.122V8.552H178.618V11.576H191.602V13.568H184.834V17.264ZM210.752 4.664V4.328H198.224V2.336H213.224V4.664C213.224 7.568 213.224 10.616 212.408 15.2L209.912 14.936C210.752 10.664 210.752 7.472 210.752 4.664ZM196.136 16.784H215.744V18.824H196.136V16.784ZM228.583 9.656L228.799 11.624C226.183 12.128 223.975 12.2 220.831 12.2H219.367V5.84H225.127V3.488H219.319V1.544H227.527V7.688H221.767V10.232C224.359 10.208 226.327 10.088 228.583 9.656ZM224.815 15.992V19.616H234.391V15.992H224.815ZM222.367 21.584V14.024H236.791V21.584H222.367ZM234.439 0.151999H236.791V13.064H234.439V7.496H232.039V12.8H229.735V0.584H232.039V5.504H234.439V0.151999ZM252.715 15.152C254.467 15.152 255.739 13.952 255.739 12.128C255.739 10.304 254.467 9.104 252.715 9.104C250.963 9.104 249.691 10.304 249.691 12.128C249.691 13.952 250.963 15.152 252.715 15.152ZM252.715 7.064C255.811 7.064 258.091 9.176 258.091 12.128C258.091 15.104 255.811 17.192 252.715 17.192C249.595 17.192 247.339 15.104 247.339 12.128C247.339 9.176 249.595 7.064 252.715 7.064ZM253.915 0.511999V3.512H258.979V5.528H246.283V3.512H251.443V0.511999H253.915ZM266.563 8.888V10.952H263.227V21.872H260.731V0.175999H263.227V8.888H266.563ZM271.937 2.288V14.384C274.865 14.36 277.985 14.12 281.273 13.448L281.561 15.488C277.889 16.208 274.529 16.448 271.265 16.448H269.465V2.288H271.937ZM288.785 8.624V10.664H285.497V21.848H283.025V0.175999H285.497V8.624H288.785ZM302.056 17.264H310.672V19.304H291.04V17.264H299.584V13.568H293.416V6.584H305.896V3.68H293.368V1.688H308.344V8.552H295.84V11.576H308.824V13.568H302.056V17.264ZM1.63957 37.048H11.3836C11.3836 42.4 7.32757 46.48 1.37557 48.472L0.823569 47.416C6.03157 45.688 9.67957 42.376 10.0156 38.128H1.63957V37.048ZM5.35957 49.528V55.072H18.1516V56.152H4.08757V49.528H5.35957ZM17.0716 42.136H20.4316V43.24H17.0716V51.16H15.7996V35.368H17.0716V42.136ZM39.0777 51.328V44.608H34.9257V43.552H39.0777V40.648H34.9257V39.568H39.0777V35.344H40.3497V51.328H39.0777ZM27.2937 38.272V46.504C28.5897 46.48 29.9097 46.456 31.2537 46.36V38.272H27.2937ZM35.7897 46L35.8617 46.984C31.6857 47.632 26.7657 47.68 23.2617 47.68L23.0697 46.552C23.9817 46.552 24.9897 46.552 26.0457 46.528V38.272H23.6937V37.192H34.9017V38.272H32.5017V46.288C33.6297 46.216 34.7337 46.144 35.7897 46ZM28.2537 55.072H40.9737V56.152H26.9817V49.936H28.2537V55.072ZM51.6518 50.584C53.8838 50.584 55.5158 48.976 55.5158 46.888C55.5158 44.776 53.8838 43.192 51.6518 43.192C49.3958 43.192 47.7878 44.776 47.7878 46.888C47.7878 48.976 49.3958 50.584 51.6518 50.584ZM51.6518 42.088C54.6038 42.088 56.7158 44.08 56.7158 46.888C56.7158 49.72 54.6038 51.664 51.6518 51.664C48.6998 51.664 46.5878 49.72 46.5878 46.888C46.5878 44.08 48.6998 42.088 51.6518 42.088ZM52.2518 35.56V38.896H57.8438V39.976H45.1718V38.896H50.9798V35.56H52.2518ZM65.2358 44.392V45.472H61.5158V56.656H60.2438V35.344H61.5158V44.392H65.2358ZM79.9459 44.392V35.968H81.1699V55.504H79.9459V45.448H74.9059C73.5859 47.944 71.5219 50.2 68.5939 51.976L67.7779 51.016C72.5779 48.16 75.1459 43.84 75.4339 39.256H68.5459V38.176H76.6819C76.6819 40.312 76.2739 42.4 75.4099 44.392H79.9459ZM84.3859 35.368H85.6099V56.68H84.3859V35.368ZM99.1844 42.16V46.648H111.136V42.16H99.1844ZM105.76 52.744H114.856V53.824H95.4884V52.744H104.488V47.728H97.9124V36.952H99.1844V41.08H111.136V36.952H112.384V47.728H105.76V52.744ZM119.607 42.088C119.607 44.392 121.407 46.12 123.807 46.12C126.159 46.12 127.959 44.392 127.959 42.088C127.959 39.784 126.159 38.056 123.807 38.056C121.407 38.056 119.607 39.784 119.607 42.088ZM129.207 42.088C129.207 45.112 126.903 47.248 123.807 47.248C120.663 47.248 118.383 45.112 118.383 42.088C118.383 39.04 120.663 36.928 123.807 36.928C126.903 36.928 129.207 39.04 129.207 42.088ZM122.511 49.552V55.072H135.303V56.152H121.239V49.552H122.511ZM134.247 42.04H137.583V43.144H134.247V51.16H132.975V35.344H134.247V42.04ZM149.773 36.76C146.053 36.76 143.701 37.792 143.701 39.472C143.701 41.176 146.053 42.208 149.773 42.208C153.493 42.208 155.845 41.176 155.845 39.472C155.845 37.792 153.493 36.76 149.773 36.76ZM149.773 43.216C145.141 43.216 142.405 41.896 142.405 39.472C142.405 37.072 145.141 35.752 149.773 35.752C154.405 35.752 157.141 37.072 157.141 39.472C157.141 41.896 154.405 43.216 149.773 43.216ZM143.845 52.576V55.312H157.549V56.368H142.597V51.592H155.605V49.216H142.549V48.184H156.853V52.576H143.845ZM140.125 44.896H159.397V45.976H140.125V44.896ZM175.131 37.336V41.584C175.131 45.472 178.227 49.384 181.059 50.728L180.267 51.76C177.939 50.536 175.515 47.8 174.531 44.608C173.571 47.944 171.171 50.8 168.795 52.096L168.003 51.064C170.811 49.624 173.883 45.568 173.883 41.584V37.336H175.131ZM184.035 35.368H185.307V56.704H184.035V35.368ZM202.513 46.168L201.841 47.2C199.441 46.288 197.449 44.416 196.561 42.04C195.673 44.656 193.561 46.672 191.065 47.632L190.393 46.624C193.369 45.52 195.913 42.76 195.913 39.496V38.08H190.849V37H202.201V38.08H197.161V39.472C197.161 42.496 199.561 45.112 202.513 46.168ZM193.129 50.512V49.432H206.761V56.656H205.489V50.512H193.129ZM210.097 41.224V42.328H206.761V48.184H205.489V35.368H206.761V41.224H210.097ZM223.552 50.44C225.52 50.44 226.936 48.856 226.936 46.792C226.936 44.752 225.52 43.144 223.552 43.144C221.608 43.144 220.192 44.752 220.192 46.792C220.192 48.856 221.608 50.44 223.552 50.44ZM223.552 42.064C226.192 42.064 228.088 44.008 228.088 46.792C228.088 49.6 226.192 51.544 223.552 51.544C220.96 51.544 219.04 49.6 219.04 46.792C219.04 44.008 220.96 42.064 223.552 42.064ZM224.2 35.992V39.28H228.976V40.36H218.176V39.28H222.928V35.992H224.2ZM234.856 35.368H236.104V56.68H234.856V45.616H231.472V55.552H230.224V35.896H231.472V44.536H234.856V35.368ZM249.774 42.16V46.648H261.726V42.16H249.774ZM256.35 52.744H265.446V53.824H246.078V52.744H255.078V47.728H248.502V36.952H249.774V41.08H261.726V36.952H262.974V47.728H256.35V52.744ZM274.396 37.456V41.8C274.396 45.16 276.436 48.832 279.196 50.44L278.38 51.424C276.292 50.152 274.588 47.656 273.82 44.896C273.052 47.92 271.276 50.536 269.092 51.88L268.252 50.92C271.06 49.312 273.196 45.496 273.196 41.824V37.456H274.396ZM280.828 43.288V35.896H282.052V55.552H280.828V44.368H276.82V43.288H280.828ZM285.196 35.368H286.42V56.68H285.196V35.368ZM297.026 47.08V52.72H303.722V47.08C302.738 47.368 301.586 47.536 300.338 47.536C299.114 47.536 298.01 47.368 297.026 47.08ZM293.93 42.232C293.93 44.752 296.666 46.504 300.338 46.504C304.034 46.504 306.77 44.752 306.77 42.232C306.77 39.688 304.034 37.936 300.338 37.936C296.666 37.936 293.93 39.688 293.93 42.232ZM304.994 52.72H310.058V53.8H290.714V52.72H295.754V46.6C293.882 45.688 292.73 44.152 292.73 42.232C292.73 38.968 295.898 36.904 300.338 36.904C304.802 36.904 307.97 38.968 307.97 42.232C307.97 44.128 306.842 45.64 304.994 46.576V52.72ZM314.688 55.312C314.04 55.312 313.464 54.808 313.464 54.016C313.464 53.2 314.04 52.696 314.688 52.696C315.336 52.696 315.912 53.2 315.912 54.016C315.912 54.808 315.336 55.312 314.688 55.312Z" fill="black"/>
</svg>
