<svg width="397" height="57" viewBox="0 0 397 57" fill="none" xmlns="http://www.w3.org/2000/svg">
<path d="M53.4047 8.528V15.752H51.1007V0.559999H53.4047V6.512H55.8047V0.151999H58.1567V16.328H55.8047V8.528H53.4047ZM49.9487 10.64L50.1647 12.632C47.5487 13.112 45.3647 13.208 42.1967 13.208H40.7327V6.608H46.4927V3.944H40.6847V1.976H48.8927V8.432H43.1327V11.216C45.7247 11.192 47.6927 11.072 49.9487 10.64ZM46.3247 19.424H58.7567V21.44H43.8287V14.816H46.3247V19.424ZM74.9068 9.824L73.6348 11.744C71.2588 10.928 69.5308 9.296 68.6188 7.256C67.6588 9.536 65.8828 11.288 63.3388 12.176L62.0668 10.232C65.4748 9.128 67.3468 6.344 67.3468 3.32V1.112H69.8188V3.44C69.8188 6.2 71.6908 8.768 74.9068 9.824ZM68.2828 15.608V19.616H77.6668V15.608H68.2828ZM65.8588 21.584V13.64H80.0908V21.584H65.8588ZM77.6188 0.175999H80.0908V12.608H77.6188V6.248H73.2268V4.208H77.6188V0.175999ZM89.881 3.32C88.369 3.32 87.337 4.208 87.337 5.528C87.337 6.848 88.369 7.736 89.881 7.736C91.369 7.736 92.401 6.848 92.401 5.528C92.401 4.208 91.369 3.32 89.881 3.32ZM89.881 9.584C87.121 9.584 85.129 7.928 85.129 5.528C85.129 3.128 87.121 1.472 89.881 1.472C92.617 1.472 94.609 3.128 94.609 5.528C94.609 7.928 92.617 9.584 89.881 9.584ZM95.257 10.472L95.449 12.272C94.033 12.536 92.497 12.728 90.985 12.848V20.12H88.633V12.968C87.073 13.016 85.609 13.04 84.433 13.04L84.145 11C87.073 11 91.801 10.976 95.257 10.472ZM96.505 14.264V0.607999H98.809V20.792H96.505V16.16H92.737V14.264H96.505ZM100.705 0.151999H103.057V21.848H100.705V0.151999ZM112.607 14.84C114.479 14.84 115.751 12.824 115.751 9.392C115.751 6.032 114.479 3.992 112.607 3.992C110.759 3.992 109.487 6.032 109.487 9.392C109.487 12.824 110.759 14.84 112.607 14.84ZM122.279 0.151999H124.775V21.896H122.279V10.256H118.079C117.791 14.456 115.583 17.048 112.607 17.048C109.415 17.048 107.135 14.096 107.135 9.392C107.135 4.736 109.415 1.76 112.607 1.76C115.511 1.76 117.719 4.256 118.055 8.24H122.279V0.151999ZM139.38 7.256V10.808H149.652V7.256H139.38ZM145.74 17.168H154.356V19.208H134.724V17.168H143.268V12.8H136.932V1.616H139.38V5.264H149.652V1.616H152.1V12.8H145.74V17.168ZM159.73 7.04C159.73 9.032 161.17 10.328 163.066 10.328C164.962 10.328 166.426 9.032 166.426 7.04C166.426 5.072 164.962 3.776 163.066 3.776C161.17 3.776 159.73 5.072 159.73 7.04ZM168.85 7.04C168.85 10.208 166.354 12.464 163.066 12.464C159.802 12.464 157.306 10.208 157.306 7.04C157.306 3.872 159.802 1.64 163.066 1.64C166.354 1.64 168.85 3.872 168.85 7.04ZM162.73 14.432V19.424H174.826V21.44H160.234V14.432H162.73ZM173.962 6.608H177.034V8.648H173.962V16.064H171.49V0.175999H173.962V6.608ZM180.032 24.8L179.408 23.24C181.064 22.568 182.024 21.344 182.024 19.952C181.928 19.976 181.856 19.976 181.76 19.976C180.776 19.976 179.912 19.352 179.912 18.2C179.912 17.12 180.776 16.424 181.832 16.424C183.176 16.424 183.968 17.552 183.968 19.4C183.968 21.92 182.504 23.864 180.032 24.8ZM197.035 7.256V10.808H207.307V7.256H197.035ZM203.395 17.168H212.011V19.208H192.379V17.168H200.923V12.8H194.587V1.616H197.035V5.264H207.307V1.616H209.755V12.8H203.395V17.168ZM217.385 7.04C217.385 9.032 218.825 10.328 220.721 10.328C222.617 10.328 224.081 9.032 224.081 7.04C224.081 5.072 222.617 3.776 220.721 3.776C218.825 3.776 217.385 5.072 217.385 7.04ZM226.505 7.04C226.505 10.208 224.009 12.464 220.721 12.464C217.457 12.464 214.961 10.208 214.961 7.04C214.961 3.872 217.457 1.64 220.721 1.64C224.009 1.64 226.505 3.872 226.505 7.04ZM220.385 14.432V19.424H232.481V21.44H217.889V14.432H220.385ZM231.617 6.608H234.689V8.648H231.617V16.064H229.145V0.175999H231.617V6.608ZM255.054 8.672L255.294 10.664C252.486 11.264 249.942 11.384 245.286 11.384H243.534V1.568H253.134V3.56H246.006V9.368C250.11 9.344 252.438 9.224 255.054 8.672ZM248.166 15.416V19.592H257.142V15.416H248.166ZM245.718 21.584V13.472H259.566V21.584H245.718ZM262.638 5.288V7.328H259.566V12.392H257.094V0.151999H259.566V5.288H262.638ZM277.396 8.72L277.66 10.736C274.828 11.312 272.26 11.456 267.556 11.456H265.804V1.736H275.452V3.752H268.276V9.44C272.428 9.416 274.756 9.296 277.396 8.72ZM274.9 19.856C277.9 19.856 279.676 19.04 279.676 17.576C279.676 16.112 277.9 15.32 274.9 15.32C271.9 15.32 270.124 16.112 270.124 17.576C270.124 19.04 271.9 19.856 274.9 19.856ZM274.9 13.328C279.34 13.328 282.124 14.936 282.124 17.576C282.124 20.24 279.34 21.872 274.9 21.872C270.46 21.872 267.676 20.24 267.676 17.576C267.676 14.936 270.46 13.328 274.9 13.328ZM281.932 5.576H284.956V7.616H281.932V12.896H279.412V0.175999H281.932V5.576ZM294.866 4.376V6.464C294.866 9.824 297.002 13.664 300.29 15.224L298.922 17.168C296.498 16.016 294.65 13.616 293.666 10.88C292.706 13.904 290.786 16.496 288.29 17.72L286.874 15.752C290.186 14.168 292.394 10.064 292.394 6.464V4.376H287.666V2.336H299.45V4.376H294.866ZM307.442 8.72V10.76H304.058V21.848H301.586V0.175999H304.058V8.72H307.442ZM317.895 6.104C317.895 7.928 319.263 9.128 321.159 9.128C323.055 9.128 324.447 7.928 324.447 6.104C324.447 4.304 323.055 3.128 321.159 3.128C319.263 3.128 317.895 4.304 317.895 6.104ZM330.711 7.088H326.703C326.223 9.536 324.039 11.168 321.159 11.168C317.919 11.168 315.519 9.104 315.519 6.104C315.519 3.152 317.919 1.088 321.159 1.088C324.015 1.088 326.199 2.672 326.679 5.048H330.711V0.199999H333.183V11.648H330.711V7.088ZM323.055 19.688V17.168H319.959V19.688H323.055ZM323.055 12.896H325.335V21.584H317.655V12.896H319.959V15.344H323.055V12.896ZM331.599 12.728V14.456C331.599 16.76 332.799 18.968 335.415 19.928L334.191 21.8C332.271 21.056 331.023 19.664 330.351 18.008C329.631 19.64 328.407 21.032 326.583 21.8L325.335 19.928C327.927 18.848 329.151 16.592 329.151 14.456V12.728H331.599ZM352.885 0.151999H355.381V21.896H352.885V0.151999ZM343.837 1.76C347.077 1.76 349.429 4.736 349.429 9.392C349.429 14.096 347.077 17.048 343.837 17.048C340.621 17.048 338.269 14.096 338.269 9.392C338.269 4.736 340.621 1.76 343.837 1.76ZM343.837 3.992C341.965 3.992 340.645 6.032 340.645 9.392C340.645 12.8 341.965 14.84 343.837 14.84C345.733 14.84 347.053 12.8 347.053 9.392C347.053 6.032 345.733 3.992 343.837 3.992ZM7.67019 38.728V42.328C7.67019 46.024 10.7662 49.696 13.6462 50.992L12.8782 52C10.5022 50.848 8.03019 48.232 7.04619 45.136C6.11019 48.352 3.66219 51.256 1.33419 52.528L0.542188 51.496C3.30219 50.104 6.42219 46.048 6.42219 42.328V38.728H1.14219V37.624H13.0462V38.728H7.67019ZM16.4782 35.368H17.7502V56.68H16.4782V35.368ZM26.4603 49.984V55.264H38.4123V49.984H26.4603ZM25.2123 56.344V48.928H39.6603V56.344H25.2123ZM38.8443 44.56H42.1083V45.64H22.7643V44.56H37.5723C38.2443 41.728 38.2443 39.736 38.2443 38.056V37.648H25.2843V36.568H39.4683V38.056C39.4683 39.76 39.4683 41.752 38.8443 44.56ZM60.0508 50.368V44.176H52.8988V50.368H60.0508ZM60.0508 43.12V37.216H61.2988V51.448H51.6268V37.216H52.8988V43.12H60.0508ZM70.5868 44.008V45.16H66.8668V56.68H65.5948V35.368H66.8668V44.008H70.5868ZM83.2329 52.792H92.3289V53.896H72.9609V52.792H81.9609V48.304H75.5049V42.064H88.5369V38.128H75.4329V37.072H89.7849V43.12H76.7529V47.224H90.2889V48.304H83.2329V52.792ZM102.159 37.72H111.951C111.951 43.672 108.807 49.096 101.943 52.48L101.247 51.424C107.103 48.592 110.343 44.056 110.679 38.8H102.159V37.72ZM116.919 35.368H118.191V56.68H116.919V35.368ZM139.261 55.288V52.072H128.485V55.288H139.261ZM139.261 51.016V47.92H140.533V56.344H127.213V47.92H128.485V51.016H139.261ZM128.941 45.016C131.365 45.016 133.117 43.384 133.117 41.248C133.117 39.064 131.365 37.48 128.941 37.48C126.517 37.48 124.765 39.064 124.765 41.248C124.765 43.384 126.517 45.016 128.941 45.016ZM139.261 35.368H140.533V46.792H139.261V41.752H134.317C134.053 44.368 131.917 46.096 128.941 46.096C125.773 46.096 123.541 44.128 123.541 41.248C123.541 38.344 125.773 36.4 128.941 36.4C131.869 36.4 134.005 38.08 134.317 40.648H139.261V35.368ZM155.124 55.6C158.772 55.6 161.1 54.592 161.1 52.888C161.1 51.208 158.772 50.176 155.124 50.176C151.476 50.176 149.148 51.208 149.148 52.888C149.148 54.592 151.476 55.6 155.124 55.6ZM155.124 49.168C159.66 49.168 162.372 50.488 162.372 52.888C162.372 55.288 159.66 56.632 155.124 56.632C150.588 56.632 147.876 55.288 147.876 52.888C147.876 50.488 150.588 49.168 155.124 49.168ZM151.764 43.24V46.144H158.532V43.24C157.548 43.432 156.396 43.552 155.1 43.552C153.852 43.552 152.724 43.432 151.764 43.24ZM149.052 39.664C149.052 41.416 151.428 42.52 155.1 42.52C158.82 42.52 161.196 41.416 161.196 39.664C161.196 37.912 158.82 36.832 155.1 36.832C151.428 36.832 149.052 37.912 149.052 39.664ZM159.78 46.144H164.748V47.224H145.5V46.144H150.492V42.88C148.74 42.232 147.756 41.128 147.756 39.664C147.756 37.192 150.54 35.8 155.1 35.8C159.684 35.8 162.492 37.192 162.492 39.664C162.492 41.104 161.532 42.208 159.78 42.856V46.144ZM174.554 55V37.504H179.09C183.05 37.504 185.474 38.8 185.474 42.424C185.474 45.928 183.074 47.608 179.186 47.608H175.994V55H174.554ZM175.994 46.408H178.898C182.354 46.408 184.01 45.232 184.01 42.424C184.01 39.592 182.282 38.704 178.802 38.704H175.994V46.408ZM195.777 55.312C191.457 55.312 188.385 51.832 188.385 46.24C188.385 40.648 191.481 37.192 195.921 37.192C197.985 37.192 199.593 38.2 200.529 39.304L199.713 40.24C198.777 39.184 197.529 38.488 195.921 38.488C192.225 38.488 189.897 41.464 189.897 46.192C189.897 50.968 192.177 54.016 195.849 54.016C197.625 54.016 198.945 53.272 200.193 51.904L201.009 52.816C199.665 54.376 198.033 55.312 195.777 55.312ZM212.832 42.16V46.648H224.784V42.16H212.832ZM219.408 52.744H228.504V53.824H209.136V52.744H218.136V47.728H211.56V36.952H212.832V41.08H224.784V36.952H226.032V47.728H219.408V52.744ZM233.255 42.088C233.255 44.392 235.055 46.12 237.455 46.12C239.807 46.12 241.607 44.392 241.607 42.088C241.607 39.784 239.807 38.056 237.455 38.056C235.055 38.056 233.255 39.784 233.255 42.088ZM242.855 42.088C242.855 45.112 240.551 47.248 237.455 47.248C234.311 47.248 232.031 45.112 232.031 42.088C232.031 39.04 234.311 36.928 237.455 36.928C240.551 36.928 242.855 39.04 242.855 42.088ZM236.159 49.552V55.072H248.951V56.152H234.887V49.552H236.159ZM247.895 42.04H251.231V43.144H247.895V51.16H246.623V35.344H247.895V42.04ZM263.421 36.76C259.701 36.76 257.349 37.792 257.349 39.472C257.349 41.176 259.701 42.208 263.421 42.208C267.141 42.208 269.493 41.176 269.493 39.472C269.493 37.792 267.141 36.76 263.421 36.76ZM263.421 43.216C258.789 43.216 256.053 41.896 256.053 39.472C256.053 37.072 258.789 35.752 263.421 35.752C268.053 35.752 270.789 37.072 270.789 39.472C270.789 41.896 268.053 43.216 263.421 43.216ZM257.493 52.576V55.312H271.197V56.368H256.245V51.592H269.253V49.216H256.197V48.184H270.501V52.576H257.493ZM253.773 44.896H273.045V45.976H253.773V44.896ZM288.779 37.336V41.584C288.779 45.472 291.875 49.384 294.707 50.728L293.915 51.76C291.587 50.536 289.163 47.8 288.179 44.608C287.219 47.944 284.819 50.8 282.443 52.096L281.651 51.064C284.459 49.624 287.531 45.568 287.531 41.584V37.336H288.779ZM297.683 35.368H298.955V56.704H297.683V35.368ZM316.161 46.168L315.489 47.2C313.089 46.288 311.097 44.416 310.209 42.04C309.321 44.656 307.209 46.672 304.713 47.632L304.041 46.624C307.017 45.52 309.561 42.76 309.561 39.496V38.08H304.497V37H315.849V38.08H310.809V39.472C310.809 42.496 313.209 45.112 316.161 46.168ZM306.777 50.512V49.432H320.409V56.656H319.137V50.512H306.777ZM323.745 41.224V42.328H320.409V48.184H319.137V35.368H320.409V41.224H323.745ZM332.647 50.584C334.879 50.584 336.511 48.976 336.511 46.888C336.511 44.776 334.879 43.192 332.647 43.192C330.391 43.192 328.783 44.776 328.783 46.888C328.783 48.976 330.391 50.584 332.647 50.584ZM332.647 42.088C335.599 42.088 337.711 44.08 337.711 46.888C337.711 49.72 335.599 51.664 332.647 51.664C329.695 51.664 327.583 49.72 327.583 46.888C327.583 44.08 329.695 42.088 332.647 42.088ZM333.247 35.56V38.896H338.839V39.976H326.167V38.896H331.975V35.56H333.247ZM346.231 44.392V45.472H342.511V56.656H341.239V35.344H342.511V44.392H346.231ZM354.606 37.456V41.8C354.606 45.16 356.646 48.832 359.406 50.44L358.59 51.424C356.502 50.152 354.798 47.656 354.03 44.896C353.262 47.92 351.486 50.536 349.302 51.88L348.462 50.92C351.27 49.312 353.406 45.496 353.406 41.824V37.456H354.606ZM361.038 43.288V35.896H362.262V55.552H361.038V44.368H357.03V43.288H361.038ZM365.406 35.368H366.63V56.68H365.406V35.368ZM377.236 47.08V52.72H383.932V47.08C382.948 47.368 381.796 47.536 380.548 47.536C379.324 47.536 378.22 47.368 377.236 47.08ZM374.14 42.232C374.14 44.752 376.876 46.504 380.548 46.504C384.244 46.504 386.98 44.752 386.98 42.232C386.98 39.688 384.244 37.936 380.548 37.936C376.876 37.936 374.14 39.688 374.14 42.232ZM385.204 52.72H390.268V53.8H370.924V52.72H375.964V46.6C374.092 45.688 372.94 44.152 372.94 42.232C372.94 38.968 376.108 36.904 380.548 36.904C385.012 36.904 388.18 38.968 388.18 42.232C388.18 44.128 387.052 45.64 385.204 46.576V52.72ZM394.898 55.312C394.25 55.312 393.674 54.808 393.674 54.016C393.674 53.2 394.25 52.696 394.898 52.696C395.546 52.696 396.122 53.2 396.122 54.016C396.122 54.808 395.546 55.312 394.898 55.312Z" fill="black"/>
</svg>
