<svg width="100" height="30" viewBox="0 0 100 30" fill="none" xmlns="http://www.w3.org/2000/svg">
<rect width="100" height="30" rx="10" fill="black" fill-opacity="0.21"/>
<path d="M45.7517 21.196C42.9377 21.196 40.7817 19.32 40.7817 15.862C40.7817 12.446 42.9937 10.444 45.7517 10.444C47.2497 10.444 48.2857 11.088 48.9577 11.774L47.8657 13.09C47.3477 12.6 46.7597 12.222 45.8217 12.222C44.0997 12.222 42.8957 13.566 42.8957 15.792C42.8957 18.046 43.9317 19.404 45.9757 19.404C46.4657 19.404 46.9697 19.264 47.2637 19.012V16.968H45.4297V15.274H49.1117V19.95C48.4117 20.636 47.1937 21.196 45.7517 21.196ZM55.5909 21.196C52.8469 21.196 50.9569 19.138 50.9569 15.778C50.9569 12.404 52.8469 10.444 55.5909 10.444C58.3349 10.444 60.2249 12.418 60.2249 15.778C60.2249 19.138 58.3349 21.196 55.5909 21.196ZM55.5909 19.404C57.1309 19.404 58.1109 17.99 58.1109 15.778C58.1109 13.552 57.1309 12.222 55.5909 12.222C54.0509 12.222 53.0709 13.552 53.0709 15.778C53.0709 17.99 54.0509 19.404 55.5909 19.404Z" fill="white"/>
</svg>
