<svg width="291" height="353" viewBox="0 0 291 353" fill="none" xmlns="http://www.w3.org/2000/svg">
<path d="M9.18437 31.12V33.2H30.3044V37.16H3.94437V27.48H24.1444V25.56H3.90437V21.64H29.3444V31.12H9.18437ZM8.90437 7.2C8.90437 8.92 11.4244 9.64 16.7444 9.64C22.1044 9.64 24.6244 8.92 24.6244 7.2C24.6244 5.56 22.1044 4.8 16.7444 4.8C11.4244 4.8 8.90437 5.56 8.90437 7.2ZM19.3044 15.56H33.3844V19.68H0.104369V15.56H14.0244V13.4C7.30437 12.92 3.42437 10.8 3.42437 7.2C3.42437 3.16 8.34437 0.919999 16.7444 0.919999C25.1844 0.919999 30.1044 3.16 30.1044 7.2C30.1044 10.84 26.1844 12.96 19.3044 13.4V15.56ZM74.3012 0.639998V27.08H68.9812V0.639998H74.3012ZM49.3812 12.32C49.3812 15.28 51.5412 17.08 54.2612 17.08C57.0212 17.08 59.1012 15.28 59.1012 12.32C59.1012 9.28 57.0212 7.52 54.2612 7.52C51.5412 7.52 49.3812 9.28 49.3812 12.32ZM64.2612 12.32C64.2612 17.68 59.9012 21.64 54.2612 21.64C48.6212 21.64 44.2212 17.68 44.2212 12.32C44.2212 6.88 48.6212 2.96 54.2612 2.96C59.9012 2.96 64.2612 6.88 64.2612 12.32ZM55.0612 32.6H75.2212V36.8H49.7812V24.48H55.0612V32.6ZM106.098 22H113.018V0.599998H118.298V28.52H113.018V25.6H106.098V22ZM99.0181 5.68C96.5381 5.68 94.8181 6.64 94.8181 8.44C94.8181 10.24 96.5381 11.16 99.0181 11.16C101.458 11.16 103.178 10.24 103.178 8.44C103.178 6.64 101.458 5.68 99.0181 5.68ZM99.0181 15C93.6181 15 89.8581 12.36 89.8581 8.44C89.8581 4.52 93.6181 1.84 99.0181 1.84C104.378 1.84 108.178 4.52 108.178 8.44C108.178 12.36 104.378 15 99.0181 15ZM97.0581 32.6H119.098V36.8H91.7781V25.84H96.8981V20.92C93.6581 21.08 90.5781 21.12 87.8181 21.12L87.1381 16.92C93.8581 16.88 102.818 16.8 110.578 15.8L110.938 19.56C108.058 20.04 105.098 20.36 102.138 20.6V27.56H97.0581V32.6ZM148.677 34V4.36H158.397C164.957 4.36 169.997 6.68 169.997 13.68C169.997 20.44 164.917 23.48 158.557 23.48H154.597V34H148.677ZM154.597 18.8H158.157C162.237 18.8 164.197 17.08 164.197 13.68C164.197 10.24 162.037 9.08 157.957 9.08H154.597V18.8ZM194.237 34.56C186.757 34.56 180.677 29.2 180.677 19.32C180.677 9.56 186.957 3.84 194.437 3.84C198.197 3.84 201.197 5.64 203.117 7.64L200.037 11.4C198.517 9.96 196.797 8.92 194.557 8.92C190.077 8.92 186.717 12.76 186.717 19.12C186.717 25.56 189.757 29.44 194.437 29.44C196.997 29.44 198.957 28.24 200.557 26.52L203.677 30.2C201.237 33.04 198.077 34.56 194.237 34.56ZM222.086 12.76V17.92H237.846V12.76H222.086ZM232.606 28.88H246.686V33.16H213.326V28.88H227.326V22.12H216.846V2.88H222.086V8.6H237.846V2.88H243.046V22.12H232.606V28.88ZM262.363 12.32C262.363 15.32 264.443 17.12 267.203 17.12C269.923 17.12 272.043 15.32 272.043 12.32C272.043 9.32 269.923 7.52 267.203 7.52C264.443 7.52 262.363 9.32 262.363 12.32ZM277.163 12.32C277.163 17.72 272.803 21.68 267.203 21.68C261.563 21.68 257.203 17.72 257.203 12.32C257.203 6.88 261.563 2.96 267.203 2.96C272.803 2.96 277.163 6.88 277.163 12.32ZM267.443 24.64V32.6H287.243V36.8H262.163V24.64H267.443ZM285.923 11.16H290.803V15.48H285.923V27.4H280.643V0.599998H285.923V11.16ZM114.776 80.4L112.616 84.76C106.136 83.6 101.416 80.16 99.0156 75.6C96.6156 80.12 91.9356 83.6 85.4956 84.76L83.3356 80.4C91.6556 79.04 96.2156 73.4 96.2156 68.28V65.64H101.856V68.28C101.856 73.52 106.376 79.04 114.776 80.4ZM101.696 91.84H115.896V96.08H82.5356V91.84H96.4156V83.6H101.696V91.84ZM146.493 82.04V71H138.973V82.04H146.493ZM133.733 82.04V71H128.733V66.8H156.733V71H151.733V82.04H156.613V86.24H128.933V82.04H133.733ZM126.133 91.88H159.493V96.16H126.133V91.88ZM199.529 82.6V86.76H173.649V66.28H199.249V70.52H179.009V74.4H198.409V78.48H179.009V82.6H199.529ZM169.729 91.92H203.089V96.2H169.729V91.92ZM222.486 69.6C220.446 69.6 218.966 70.68 218.966 72.68C218.966 74.6 220.446 75.72 222.486 75.72C224.486 75.72 225.926 74.6 225.926 72.68C225.926 70.68 224.486 69.6 222.486 69.6ZM222.486 79.64C217.766 79.64 214.286 76.72 214.286 72.68C214.286 68.56 217.766 65.68 222.486 65.68C227.166 65.68 230.606 68.56 230.606 72.68C230.606 76.72 227.166 79.64 222.486 79.64ZM231.366 80.68L231.766 84.52C229.646 84.92 227.246 85.24 224.926 85.44V97.56H219.886V85.72C217.446 85.84 215.206 85.84 213.326 85.84L212.766 81.56C217.686 81.56 225.566 81.48 231.366 80.68ZM233.166 87.32V64.24H238.086V98.76H233.166V91.28H227.406V87.32H233.166ZM240.526 63.64H245.526V100.44H240.526V63.64ZM267.003 87.68C269.723 87.68 271.523 84.76 271.523 79.28C271.523 73.84 269.723 70.92 267.003 70.92C264.323 70.92 262.523 73.84 262.523 79.28C262.523 84.76 264.323 87.68 267.003 87.68ZM282.563 63.56H287.843V100.52H282.563V81.12H276.443C275.883 88.16 272.123 92.48 267.003 92.48C261.523 92.48 257.483 87.4 257.483 79.28C257.483 71.2 261.523 66.16 267.003 66.16C271.963 66.16 275.683 70.2 276.403 76.84H282.563V63.56ZM23.5925 130.84H43.8325V133.28H23.5925V130.84ZM33.7925 135.36C38.5525 135.36 41.9125 138.04 41.9125 142.08C41.9125 146.08 38.5525 148.76 33.7925 148.76C29.0725 148.76 25.7125 146.08 25.7125 142.08C25.7125 138.04 29.0725 135.36 33.7925 135.36ZM33.7925 137.68C30.6725 137.68 28.5125 139.44 28.5125 142.08C28.5125 144.68 30.6725 146.44 33.7925 146.44C36.9525 146.44 39.1525 144.68 39.1525 142.08C39.1525 139.44 36.9525 137.68 33.7925 137.68ZM32.3525 126.72H35.3125V132.4H32.3525V126.72ZM50.1125 127.04H53.0725V149.88H50.1125V127.04ZM43.7925 136H51.2725V138.44H43.7925V136ZM43.7525 142.72H51.2325V145.16H43.7525V142.72ZM29.1525 152.04H53.0725V163.04H50.1125V154.44H29.1525V152.04ZM93.6294 127.08H96.5894V153.48H93.6294V127.08ZM73.6294 159.76H97.7494V162.24H73.6294V159.76ZM73.6294 151.08H76.5494V160.88H73.6294V151.08ZM76.7094 129.04H79.1494V132.72C79.1494 139.76 75.0294 145.8 69.1894 148.24L67.6294 145.88C72.9094 143.76 76.7094 138.44 76.7094 132.72V129.04ZM77.2294 129.04H79.6694V132.72C79.6694 138.24 83.5094 143.24 88.7494 145.2L87.1894 147.56C81.3494 145.24 77.2294 139.56 77.2294 132.72V129.04ZM120.066 130.72H122.506V133.76C122.506 140.28 118.306 145.76 112.466 148L110.906 145.64C116.146 143.72 120.066 138.92 120.066 133.76V130.72ZM120.626 130.72H123.066V133.72C123.066 138.44 126.746 142.96 131.906 144.76L130.386 147.12C124.626 145 120.626 139.72 120.626 133.72V130.72ZM129.946 136.56H138.186V139.04H129.946V136.56ZM111.906 129.6H131.106V132.04H111.906V129.6ZM116.346 150.6H140.266V163.04H137.306V153.04H116.346V150.6ZM137.306 127.04H140.266V148.6H137.306V127.04ZM180.823 127.08H183.783V153.44H180.823V127.08ZM160.823 159.76H184.943V162.24H160.823V159.76ZM160.823 150.72H163.743V160.56H160.823V150.72ZM164.543 129.6C169.863 129.6 173.863 133.24 173.863 138.4C173.863 143.6 169.863 147.24 164.543 147.24C159.183 147.24 155.183 143.6 155.183 138.4C155.183 133.24 159.183 129.6 164.543 129.6ZM164.543 132.16C160.863 132.16 158.103 134.76 158.103 138.4C158.103 142.04 160.863 144.64 164.543 144.64C168.223 144.64 170.983 142.04 170.983 138.4C170.983 134.76 168.223 132.16 164.543 132.16ZM233.886 135.56H241.366V138H233.886V135.56ZM233.846 142.56H241.326V145H233.846V142.56ZM213.686 130.72H233.926V133.16H213.686V130.72ZM223.886 135.04C228.686 135.04 232.006 137.6 232.006 141.52C232.006 145.44 228.686 147.96 223.886 147.96C219.126 147.96 215.806 145.44 215.806 141.52C215.806 137.6 219.126 135.04 223.886 135.04ZM223.886 137.32C220.726 137.32 218.606 139.04 218.606 141.52C218.606 144.04 220.726 145.72 223.886 145.72C227.086 145.72 229.246 144.04 229.246 141.52C229.246 139.04 227.086 137.32 223.886 137.32ZM222.446 126.68H225.406V132.16H222.446V126.68ZM240.206 127.04H243.166V148.28H240.206V127.04ZM220.046 149.88H222.966V153.8H240.246V149.88H243.166V162.56H220.046V149.88ZM222.966 156.12V160.16H240.246V156.12H222.966ZM275.323 135.72H285.123V138.2H275.323V135.72ZM267.043 128.72C272.403 128.72 276.283 132.08 276.283 137C276.283 141.92 272.403 145.32 267.043 145.32C261.683 145.32 257.843 141.92 257.843 137C257.843 132.08 261.683 128.72 267.043 128.72ZM267.043 131.2C263.323 131.2 260.683 133.6 260.683 137C260.683 140.4 263.323 142.8 267.043 142.8C270.763 142.8 273.443 140.4 273.443 137C273.443 133.6 270.763 131.2 267.043 131.2ZM283.803 127.04H286.763V146.36H283.803V127.04ZM263.883 148.2H266.843V152.92H283.843V148.2H286.763V162.56H263.883V148.2ZM266.843 155.28V160.12H283.843V155.28H266.843ZM110.746 218.92H143.426V221.4H110.746V218.92ZM125.546 210.12H128.466V219.68H125.546V210.12ZM114.666 192.6H117.586V199.2H136.506V192.6H139.426V210.96H114.666V192.6ZM117.586 201.64V208.52H136.506V201.64H117.586ZM179.263 190H182.223V216.6H179.263V190ZM181.263 201.08H187.623V203.56H181.263V201.08ZM159.943 222.76H183.903V225.24H159.943V222.76ZM159.943 213.88H162.903V223.72H159.943V213.88ZM164.383 192.6C169.743 192.6 173.703 196.24 173.703 201.44C173.703 206.6 169.743 210.24 164.383 210.24C159.063 210.24 155.103 206.6 155.103 201.44C155.103 196.24 159.063 192.6 164.383 192.6ZM164.383 195.2C160.743 195.2 157.983 197.8 157.983 201.44C157.983 205.04 160.743 207.64 164.383 207.64C168.063 207.64 170.863 205.04 170.863 201.44C170.863 197.8 168.063 195.2 164.383 195.2ZM215.646 192.84H231.686V195.32H215.646V192.84ZM221.246 200.84H224.166V209.84H221.246V200.84ZM230.526 192.84H233.406V194.72C233.406 197 233.406 200.6 232.446 205.4L229.526 205.08C230.526 200.28 230.526 197 230.526 194.72V192.84ZM238.566 190.04H241.526V217.16H238.566V190.04ZM240.126 201.88H246.846V204.36H240.126V201.88ZM219.006 222.76H242.726V225.24H219.006V222.76ZM219.006 214.68H221.966V223.52H219.006V214.68ZM213.806 211.28L213.446 208.8C219.886 208.8 228.726 208.68 236.086 207.64L236.286 209.84C228.806 211.12 220.166 211.28 213.806 211.28ZM283.763 190H286.683V226.08H283.763V190ZM259.363 214.84H262.323C268.283 214.84 273.683 214.6 280.203 213.56L280.523 216C273.883 217.08 268.443 217.32 262.323 217.32H259.363V214.84ZM259.283 193.44H275.843V206.12H262.323V215.8H259.363V203.68H272.883V195.88H259.283V193.44ZM50.9925 253.04H53.8325V279.88H50.9925V253.04ZM44.9525 263.88H51.9525V266.36H44.9525V263.88ZM43.0325 253.72H45.8325V278.8H43.0325V253.72ZM30.4725 285.76H54.9525V288.24H30.4725V285.76ZM30.4725 277.44H33.4725V286.6H30.4725V277.44ZM25.2325 272H27.5525C32.5925 272 36.3925 271.84 40.8725 270.92L41.1925 273.32C36.5525 274.2 32.7125 274.4 27.5525 274.4H25.2325V272ZM25.1525 256.16H38.6725V266.28H28.0725V273.24H25.2325V264H35.8325V258.6H25.1525V256.16ZM93.7094 253.04H96.6694V273.8H93.7094V253.04ZM73.4294 275.72H96.6694V288.56H73.4294V275.72ZM93.7894 278.12H76.3494V286.12H93.7894V278.12ZM85.6694 260.24H94.4294V262.72H85.6694V260.24ZM76.2694 254.56H78.7094V258.4C78.7094 265.12 74.6694 270.52 68.7494 272.76L67.1894 270.36C72.5494 268.48 76.2694 263.84 76.2694 258.4V254.56ZM76.7494 254.56H79.1494V258.56C79.1494 263.36 82.9894 267.84 88.1094 269.56L86.5494 271.88C80.8694 269.8 76.7494 264.64 76.7494 258.56V254.56ZM119.826 255.4C124.386 255.4 127.626 258.08 127.626 262C127.626 265.92 124.386 268.6 119.826 268.6C115.346 268.6 112.026 265.92 112.026 262C112.026 258.08 115.346 255.4 119.826 255.4ZM119.826 257.68C116.866 257.68 114.746 259.48 114.746 262C114.746 264.52 116.866 266.36 119.826 266.36C122.826 266.36 124.986 264.52 124.986 262C124.986 259.48 122.826 257.68 119.826 257.68ZM138.186 253.04H141.066V289.04H138.186V253.04ZM131.466 253.88H134.266V287.12H131.466V253.88ZM124.586 276.72H132.546V279.08H124.586V276.72ZM118.226 272.88H121.106V286.12H118.226V272.88ZM110.666 274.04L110.266 271.52C115.226 271.52 123.266 271.48 129.106 270.56L129.346 272.76C123.226 273.96 115.586 274.04 110.666 274.04ZM163.903 255.84C169.143 255.84 172.823 260.72 172.823 268.36C172.823 275.96 169.143 280.88 163.903 280.88C158.703 280.88 155.023 275.96 155.023 268.36C155.023 260.72 158.703 255.84 163.903 255.84ZM163.903 258.48C160.303 258.48 157.823 262.44 157.823 268.36C157.823 274.28 160.303 278.24 163.903 278.24C167.503 278.24 170.023 274.28 170.023 268.36C170.023 262.44 167.503 258.48 163.903 258.48ZM180.943 253H183.903V289.08H180.943V253ZM171.823 266.88H182.263V269.32H171.823V266.88ZM241.286 253.04H244.166V289.04H241.286V253.04ZM234.966 267.56H242.086V270.04H234.966V267.56ZM233.126 253.84H235.886V287.16H233.126V253.84ZM215.006 277.52H217.326C222.726 277.52 226.326 277.36 230.446 276.48L230.766 278.96C226.446 279.88 222.846 280.04 217.326 280.04H215.006V277.52ZM215.006 257.44H228.406V259.88H217.926V278.64H215.006V257.44ZM257.243 270.64H289.763V273.08H257.243V270.64ZM273.483 276.24C281.203 276.24 285.803 278.52 285.803 282.64C285.803 286.76 281.203 289.04 273.483 289.04C265.803 289.04 261.203 286.76 261.203 282.64C261.203 278.52 265.803 276.24 273.483 276.24ZM273.483 278.56C267.723 278.56 264.163 280.08 264.163 282.64C264.163 285.24 267.723 286.72 273.483 286.72C279.283 286.72 282.803 285.24 282.803 282.64C282.803 280.08 279.283 278.56 273.483 278.56ZM273.483 253.96C281.243 253.96 286.123 256.52 286.123 260.8C286.123 265.04 281.243 267.6 273.483 267.6C265.763 267.6 260.883 265.04 260.883 260.8C260.883 256.52 265.763 253.96 273.483 253.96ZM273.483 256.32C267.643 256.32 263.923 258 263.923 260.8C263.923 263.56 267.643 265.24 273.483 265.24C279.363 265.24 283.083 263.56 283.083 260.8C283.083 258 279.363 256.32 273.483 256.32ZM184.849 327.08H187.769V332.68H184.849V327.08ZM184.809 316.28H187.369V317.72C187.369 324.04 180.089 327.88 172.929 328.92L171.889 326.6C178.249 325.92 184.809 322.48 184.809 317.72V316.28ZM185.249 316.28H187.809V317.72C187.809 322.48 194.409 325.92 200.689 326.6L199.649 328.92C192.529 327.88 185.249 324.04 185.249 317.72V316.28ZM170.049 331.88H202.569V334.32H170.049V331.88ZM174.009 337.48H198.369V345.52H177.009V349.96H174.129V343.28H195.449V339.76H174.009V337.48ZM174.129 349.28H199.489V351.64H174.129V349.28ZM217.566 317.52H242.286V326.68H220.606V333H217.646V324.4H239.326V319.92H217.566V317.52ZM217.646 331.56H243.086V334.04H217.646V331.56ZM213.606 337.92H246.286V340.4H213.606V337.92ZM228.406 338.88H231.366V352.08H228.406V338.88ZM276.363 321.48H284.603V323.92H276.363V321.48ZM276.363 328.92H284.603V331.36H276.363V328.92ZM266.443 318.04H268.843V322.72C268.843 329.72 264.763 335.6 258.923 338.04L257.363 335.68C262.603 333.64 266.443 328.44 266.443 322.72V318.04ZM266.923 318.04H269.363V322.72C269.363 328.08 273.043 333.04 278.163 335.08L276.523 337.4C270.923 335.08 266.923 329.32 266.923 322.72V318.04ZM283.803 316.08H286.763V342.96H283.803V316.08ZM263.763 348.76H287.643V351.24H263.763V348.76ZM263.763 340.2H266.723V350.04H263.763V340.2Z" fill="black"/>
</svg>
